<?xml version="1.0" encoding="UTF-8"?>
<svg id="Layer_1" data-name="Layer 1" xmlns="http://www.w3.org/2000/svg" viewBox="0 0 2920.04 2971.67">
  <defs>
    <style>
      .cls-1 {
        fill: #070707;
      }

      .cls-2 {
        fill: #939393;
      }

      .cls-3 {
        fill: #f6f6f6;
      }

      .cls-4 {
        fill: #060606;
      }

      .cls-5 {
        fill: #0b0b0b;
      }

      .cls-6 {
        fill: #080808;
      }

      .cls-7 {
        fill: #f5f5f5;
      }

      .cls-8 {
        fill: #9f9f9f;
      }

      .cls-9 {
        fill: #fbfbfb;
      }

      .cls-10 {
        fill: #fdfdfd;
      }
    </style>
  </defs>
  <path class="cls-10" d="M1149.63,1797.97c125.82,113.36,297.8,153.89,457.4,91.95,90.05-34.95,165.69-103.71,229.22-168.14,2.33-2.68,7.86-4.98,10.35-3.6,9.91,5.49-6.55,169.88,13.11,264.3-49.35,131.92-122.94,242.42-227.81,332.32l-36.32,97.04-134.59,186.47-129.25-180.51c-24.93-34.81-24.53-85.29-56.7-117.09-101.87-87.67-176.04-195.58-220.19-324.26l4-260.28,90.79,81.8Z"/>
  <g>
    <path class="cls-1" d="M1149.63,1797.97l-16.97,5.83-58.7-49.77c-3.8,10.29-7.35,209-3.9,219.42,43.26,130.51,126.53,238.09,227.27,329.31,5.13,38.05,147.56,268.01,163.34,268.17,10.3.1,112.96-150.62,121.22-166.56l37.73-98.8c96.16-85.73,183.88-202.09,224.98-325.21-11.09-79.97-14.51-160.55-10.26-241.72,8.72-6.94,9.35-12.56,1.9-16.86l5.59-16.32c1.57-4.58,5.34-3.02,8.72.38,2.49,2.51,7.42,6.43,7.44,12.49l.47,201.66,11,49.89c12.84-36.08-2.45-72-2.25-110.5l.69-132.87c.14-27.21,7.17-50.32.6-78.32-2.88-12.27,1.21-23.1,5.05-29.28,5.7-9.17,21.32-15.81,28.52-8.26,3.19,3.67,2.06,16.59.97,21.83-9.56,46.17-5.76,108.96-4.56,161.76,24.24,12.79,43.07,24.05,57.31,45.63l119.11,180.48,470.62,210.34c192.92,86.22,281.87,194.04,330.48,399.16,25.75,108.66,39.49,215.71,44,328.08.53,13.13-21.19,14.72-28.22,12.56-5.56-1.7-18.33-3.11-18.86-15.29-5.29-121.39-22.03-238.42-52.53-354.89-38.56-147.23-130.96-252.15-269.36-314.32l-465.37-209.04c-.65,129.48-12.65,251.85-31.22,376.87-1.81,12.16-13.37,20.5-21.1,21.7-6.9,1.07-16.09-.82-23.92-6.79l-209.91-160.04c-34.04-25.95-88.93,57.95-109.54,14.15-45.36,27.33-35.92,78.95-81.77,141.46l-102.94,140.34c-37.1,50.57-78.86,105.07-81.37,168.77l-7.48,189.88c-.44,11.25-34.1,10.92-34.07.38l.45-161.28c.17-60.37,21.67-114.05,52.03-166.37l-145.91-200.94c-11.72-56.47-35.57-103.4-85.89-134.41-22.66,33.33-47.88-16.32-84.79,11.25l-211.17,157.69c-9.54,7.12-22.56,7.57-29.42,4.37-9.8-4.58-15.29-14.1-16.27-27.05l-27.53-364.92-453.61,204.72c-84.62,38.19-159.32,89.31-209.52,167.67-44.57,69.57-75.53,145.28-87.29,226.82l-40.61,281.76c-1.53,10.61-39.67,9.67-42.87-.45,14.41-204.24,42.36-455.03,185.59-602.4,61.58-63.36,137.57-100.62,217.64-136.54l437.98-196.47,112.21-170.18c15.72-23.84,37.91-42.73,60.68-56.3,2.7-79.57,12.3-124.7-27.63-183.16,5.34.05,8.04-3.81,7.1-5.78l-5.98-12.57c-2.51-5.28-6.23-8.4-6.62-11.18-.46-3.29,8.68-11.71,14.59-5.04,7.47,8.43,29.68,18.89,31.95,29.82l20.11,96.83c22.24-6.1,39.3-4.64,53.81-1.13,17.47,4.23,17.39,26.12,27.95,38.21,15.01,17.2,31.41,28.17,20.23,51.31Z"/>
    <path class="cls-10" d="M2018.18,2418.63l-185.91-141.64c-27.29-20.79-49.98-16.26-92.52-7.31,83.67-96.37,148.81-205.33,173.16-331.57,6.02-31.23-3.25-53.62-21.42-85.46,27.79,4.91,39.27,31.32,53.23,53.69l93.29,149.47c13.43,119.88-8.7,236.25-19.83,362.82Z"/>
    <path class="cls-10" d="M1087.56,2277.94l-183.74,142.08c-12.96-120.52-34.27-240.52-23.46-362.18l101.58-164.02c9.42-15.22,19.79-29.33,38.26-34.51-18.11,27.6-21.35,53.34-15.2,85.12,25.33,130.76,96.7,237.97,188.19,342.47-34.73-22.65-66.9-38.89-105.62-8.95Z"/>
    <rect x="1811.91" y="1716.77" width="149.07" height="9.87" transform="translate(160.62 3604.37) rotate(-89.87)"/>
  </g>
  <g>
    <path class="cls-4" d="M2095.56,838.81c-1.33,16.11-5.41,32.59,2.13,50.77,35.47,2.95,63.15,27.97,69.89,64.95,22.98,126.17-7.29,258.23-79.43,364.37-22.45,33.03-55.47,50.93-93.6,54.04l-9.47,32.5c1.61-18.18-3.46-36.01,11.65-59.44l-46.35-45.14-13.92-10.9c35-137.02,39.41-272.23,28.49-410.68l15.23-11.76c6.9,5.26,12.22,13.18,12.28,25.5l.74,142.39c1.92.02,4.7-1.02,6.1-4.21l1.11-122.1c69.4-24.32,54.24-66.12,81.96-93.96,2.8,12.57,6.54,18.15,13.18,23.66Z"/>
    <path class="cls-7" d="M2056.68,1081.9c-13.48-47.75,74.02-81.87,45.3-98.6-4.99-2.91-14.65-6.72-21.57-.32l-40.91,37.79c5.54-58.25,19.9-104.04,54.61-92.43,78.52,26.26,31.39,351.38-93.27,401.97l13.01-115.17c48.31-29.11,58.61-77.34,42.83-133.22Z"/>
    <path class="cls-8" d="M2017.81,1180.56l7.75-67.99c20.25,15.42,20.37,48.68-7.75,67.99Z"/>
  </g>
  <g>
    <path class="cls-10" d="M1980.18,867.52l6.87,171.9c2.51,67.68-12.84,134.28-25.38,201.17l-11.3,60.27c-18.92,100.95-89.47,244.6-189.12,283.42l-7.92-83.41c-5.19-54.7-30.52-106.71-85.41-127.17-54.75-20.41-123.18-39.58-180.38-26.99-33.75,7.43-46.63,6.12-79.19-1.2-44.47-10-96.85,9.02-141.36,16.33-68.36,11.23-114.55,63.94-120.01,131.67l-7.23,89.7c-116.65-46.46-157.44-170.64-187.56-285.73l-33.65-128.6c-15.53-59.33-10.87-115.42-6.7-173.5l14.48-201.59c11.43-50.47,20.49-98.25,17.33-151.73-6.94-117.18,40.67-230.1,128.71-305.33,51.17-43.73,110.54-52.08,175.89-40.71l127.25,22.14c46.45,8.08,85.12,13.22,132.12,7.1l154.2-20.08c47.3-6.16,89.74-.6,133.3,14.33l19.46-4.79c3-.74,2.77,16.94,5.89,19.92,85.04,81.36,137.18,188.12,129.55,308.07-2.43,38.22,2.92,73,9.64,110.44l20.53,114.36Z"/>
    <g>
      <path class="cls-6" d="M1799.87,845.95c-124.63-23.15-217.76,25.97-228.44-20.17-12.34-53.31,129.02-62.53,220.55-46.42,44.77,7.88,79.68,45.11,88.68,87.2-30.69,4.61-52.07-15.28-80.79-20.61Z"/>
      <path class="cls-1" d="M1308.35,842.52c-61.45,17.18-162.28-31.91-293.69,31.32,12.25-117.1,154.54-110.6,275.37-88.01,15.18,2.84,21.52,13.56,25.64,20.48,4.48,7.52,6.89,32.24-7.32,36.22Z"/>
      <path class="cls-5" d="M1396.77,1276.51c62.78,42.76,85.66-4.4,152.64-9.85,11.14,3.4,6.37,30.23-3,32.5l-33.06,8.01c-45.5,31.29-81.29,28.81-128.6,4.93-25.82-13.04-60.22-30.07-47.9-71.58,24.64-83.04,46.84-169.49,54.13-258.95.78-9.54,2.63-15.37,8.72-18.23,53.95-25.34-38.54,286.07-27.56,301.23,3.88,5.35,17.08,6.79,24.64,11.94Z"/>
      <path class="cls-6" d="M1757.6,953.87c-2.75,29.91-6.37,48.33-24.08,62.97-15.97,13.2-40.9,15.52-59.95,3.19-18.48-11.97-28.15-35.39-25.85-64.14-12.52,2-23.26,15.97-33.01,14.31-9.82-1.68-4.62-19.93,3.36-27.11,62.72-56.38,168.55-37.84,203.83,39.99-31.85,6.51-37.01-15.76-64.3-29.21Z"/>
      <path class="cls-6" d="M1245.56,956.81c.47,27.1-5.88,46.21-22.21,60.06-16.45,13.95-41.85,15.24-60.7,3.59-18.75-11.59-27.91-36.83-24.3-64.18-31.09,5.69-47.07,36.27-57.48,28.54-25.91-19.24,78.89-108.71,171.49-58.87,18.27,9.83,31.79,23.2,30.76,45.6-12.77,2.43-20.67-3.46-37.57-14.74Z"/>
    </g>
  </g>
  <g>
    <path d="M2095.56,838.81c-16.02,15.91-30.8,35.56-44.34,58.95l-35.13,22.12-1.27,107.89c-1.62,15.3-11.23,20.76-24.62,12.84,1.54-58.68-1.8-116.38-10.02-173.1-6.09.33-15.36.26-16.63-3.81-9.08-29.11-17.46-84.62-20.89-116.47-5.83-54.18-11.26-106.9-9.31-161.77-7.2-74.6-39.03-140.2-85.38-198.13-39.59-49.48-49.14-57.43-112.13-66.32-15.69-2.21-31.44-3.07-47.28-2.41-156.13,27.19-301.02,30.57-456.77-9.22-209.63-17.22-288.9,211.63-273.31,388.85-16.93,104.86-27.68,210.06-32.25,315.61-8.06,118.7,26.94,265.03,70.25,376.05,26.85,68.83,60.38,133.81,128.68,169.38-14.69-200.66,159.53-249.13,324.16-223.27,166.18-29.48,337.2,25.15,325.15,221.48,86.99-46.14,133.65-153.46,157.95-247.19l17.95-9.43c20.43-18.28,67.72,36.31,55.33,61.2-14.36,8.52-21.24,22.98-20.64,43.38-7.11,80.44-29.66,162.92-82.02,227.04l-15.31-6.64s-.62,114.71-1.85,344.13c4.44-.71-2.6.41-20.85,3.31-10.4-85.41-14.71-171.45-13.93-257.95l-14.87,6.44-3.27,25.51c-104.49,107.68-226.08,187.34-380.68,187.28-77.19-.03-251.79-46.75-296.35-110.42-5.39-7.7-6.66-16.96-6.32-26.17-19.82-38.32-45.14-81.81-91.79-85.52-1.94,16.43-10.93,14.19-21.97,2.12l-23.85-98.76c-9.85,7.45-18.36,8.01-25.55,1.68-33.03-48.36-52.47-103.48-64.37-164.46l-15.51-79.44c-36.26-2.37-70.15-17.81-91.82-50-69.65-103.43-103.83-232.13-85.87-356.11,6.46-44.61,36.4-73.6,78.58-80.57l-28.03-338.08c-4.52-54.56,9.79-111.47,31.68-157.81-10.82-14.23-8.26-25.12-.49-41.55,38.13-80.53,101.16-144.96,191.59-161.4,7.56-53.45,37.03-91.24,76.15-120.51,71.13-53.21,152.74-57.67,238.65-60.91,70.07-2.65,133.6-12.8,205.37-1.33l128.44,20.54c101.36,6.46,241.45,78.73,249.2,184.96,76.65-2.42,133.1,47.37,171.56,109.11,22.63,36.33,27.57,68.32,32.91,110.57l15,118.59-23.95,289.69Z"/>
    <path class="cls-3" d="M843.6,1077.38c-10.59,56.75-9.74,108.11,41.76,139.73l12.29,111.77c-27.64-6.21-43.25-20.42-55.04-39.77-59.51-97.69-88.57-212.37-69.5-325.2,2.7-15.98,16.8-27.37,27.79-33.06,10.53-5.45,32.78-.64,40.28,14.56,10.15,20.56,13.62,41.83,12.23,68.76-22.46-19.9-31.34-35.58-55.99-30.84-41.8,8.04,54.42,49.85,46.18,94.05Z"/>
    <path class="cls-2" d="M881.08,1174.9c-18.16-12.03-29.13-38.53-10.78-63.54,11.12,20.69,9.01,36.23,10.78,63.54Z"/>
    <g>
      <path class="cls-9" d="M1536.52,1585.19l-171.72-1.67c-16.45,27.53,17.09,47.63,33.24,62.5,22.69,20.9-11.5,57.01-37.35,60.99-49.98,7.69-92.9-19.49-123.41-48.77-37.85-36.34-41.06-85.59-37.95-136.04,2.66-43.15,24.63-76.03,70.86-80.98,115.64-12.39,231.89-12.69,347.61-2.81,46.46,3.97,77.91,29.39,83.5,76.07,6.12,50.99,3.15,99.75-34.24,139.66-29.1,31.07-76.42,59.85-127.93,54.11-27.25-3.04-59.52-36.48-40.48-60.87,10.86-13.91,50.8-26.74,37.86-62.17Z"/>
      <path class="cls-5" d="M1652.23,1489.29c-167.61,49.47-416.26,20.33-411.61-10.91,1.08-7.28,11.27-13.89,21.51-12.55,121.04,15.85,239.05,22.05,358.79-.36l23.58-1.78c10.31-.78,15.86,23.19,7.73,25.59Z"/>
    </g>
  </g>
</svg>