<?xml version="1.0" encoding="UTF-8"?>
<svg id="Layer_1" xmlns="http://www.w3.org/2000/svg" version="1.1" viewBox="0 0 2995.13 2990.91">
  <!-- Generator: Adobe Illustrator 30.3.0, SVG Export Plug-In . SVG Version: 2.1.3 Build 182)  -->
  <defs>
    <style>
      .st0 {
        fill: #0a0a0a;
      }

      .st1 {
        fill: #060606;
      }

      .st2 {
        fill: #e7e7e7;
      }

      .st3 {
        fill: #050505;
      }

      .st4 {
        fill: #080808;
      }

      .st5 {
        fill: #f7f7f7;
      }

      .st6 {
        fill: #f5f5f5;
      }

      .st7 {
        fill: #0c0c0c;
      }

      .st8 {
        fill: #eee;
      }

      .st9 {
        fill: #fdfdfd;
      }

      .st10 {
        fill: #090909;
      }
    </style>
  </defs>
  <path class="st1" d="M1881.44,1885.1c-7.24,10.14-1.04,25.28,18.59,45.42,13.35,119.73-90.89,314.74-181.23,384.39l-28.98,5.67-.2,7.45c-39.23,24.42-34.82,23.63,13.21-2.36,12.49-22.95,30.93-14.39,50.57-2.54,60.18,50.87,120.04,98.8,179.57,143.8,31.54-104.42,56.52-210.56,74.95-318.42-5.08-28.73-1.86-51.86,9.67-69.39,9.81-2.88,13.27,1.63,13.25,8.63l-.15,75.6c1.71,2.73,4.2,3.94,5.98,4.25l5.55-88.21c13.77,10.91,23.02,21.51,36.75,27.06-6.16-4.03-13.95-1.81-14.09,3.7l-.46,17.94c-2.87,112.21-73.47,404.05-103.9,419.5-31.18,15.84-164.19-109.31-223.11-164.55-15.42-14.46-30.29-18.84-40.99-13.19-21.5,11.34-23.79,26.31-17.08,46.34,25.57,76.21-75.61,79.32-132.09,136.98-52.96,54.07-48.64,129.81-47.84,199.79l2.42,211.27c.12,10.56-17.09,17.14-24.03,15.9-6.96-1.24-14.34-10.06-14.46-20.81l-2.29-198.02c-1.83-158.13-95.53-256.81-112.34-342.54-5.06-25.8-20.72-42.94-36.9-57.84l-31.83-29.29c-23.37-8.42-35.05-12.64-35.05-12.64-90.71-105.58-194.38-246.28-173.69-392.11l-18.3-2.48c-3.05-3.81-13.44-17.56-10.7-22.75,14.66-27.74,39.22-38.89,67.37-53.85,7.96-6.98,10.93-27.43,24.37-30.21,5.82,18.25,4.14,34.58-.37,43.6-4.96,9.92-21.42,10.8-36.22,9.47,13.56,11.48,15.99,19,17.21,43.28l14.45-32.38c2.34,33.78-4.35,60.48,6.74,82.04,2.76,12.47.42,26.22-6.99,41.24l21.56,17.98c37.53,134.78,130.18,228.35,225.87,322.13l95.06,210.86c23.42-45.35,47.57-92.04,84.92-127.91.75-40.86,22.68-78.21,50.34-106.98,77.57-69.57,201.07-204.45,213.42-310.77-19.33-89.96-22.15-186.51-16.72-273.61,11.84-10.58,16.18-8.05,27.4.42,11.09,8.36,15.82,15.47,16.68,29.92l5.71,95.29c13.43-6.4,25.56-7.95,29.31-3.47,4.6,5.5-.18,21.47-.92,26.42Z"/>
  <path class="st4" d="M2369.41,2103.14c10.52,19.82,8.38,44.08,7.85,72.06,79.47,31.79,156.45,61.34,228.9,107.27,225.42,142.9,258.66,435.69,271.31,690.06-3.37,12.7-43.36,11.17-44.56-7.02-13.1-197.73-39.89-444.39-178.2-582.24-53.92-53.74-117.55-91.25-186.92-119.41l-156.14-63.38c2-.53,8.68.56,11.76-.35,3.33-.99,2.91-10.19,3.66-14.01l23.03-12.72c-6.55-26.54-9.06-53.37-2.31-78.23,21.87,19.29,9.82,41.87,15.41,66.19,9.95-17.61,7.42-39.19,6.19-58.2Z"/>
  <path class="st4" d="M565,2190.05c11.79,15.92,30.89,10,31.76,36.21l-130.12,54.45c-130.7,54.69-218.31,159.71-263.24,293.74-43.46,129.64-61.3,261.12-73.15,398.87-.9,10.44-39.16,10.32-44.46-.42,18.81-284.49,72.43-615.91,356.24-732.39l122.96-50.47Z"/>
  <path class="st9" d="M1881.44,1885.1l53.13,65.63c22.85,46.42,71.58,81.97,83.03,128.39,13.47,54.59,3.34,117.56-11.25,172.53l-65.78,247.81-160.91-136.01c-24.14-20.41-46.22-41.47-76.82-37.79-8.52,3.94-12.78,5.15-13.02-5.08,76.4-68.81,137.64-157.88,173.56-257.66,16.16-44.88,34.5-93.67,18.3-139.3-4.41-12.42-33.61-21.6-19.32-45.5,4.56,4.41,12.93,6.15,19.07,6.99Z"/>
  <path class="st9" d="M1280,2331.63c-28.39-13.09-53.37-2.54-77.96,18.26l-175.81,148.7c-38.3-108.58-110.85-375.64-73.74-429.21l100.47-144.99c8.04-11.61,30.9-30.91,44.18-39.29,25.2,10.07-3.84,28.02-7.53,37.71-40.34,105.95,91.57,317.86,190.39,408.81Z"/>
  <g>
    <path d="M2369.41,2103.14c14.91,45.61-7.99,108.55-57.75,97.33l-232.67-94.02c-23.96-2.42-33.91,17.51-29.83,59.81-9.38,16.64-18.11,18.13-22.66-.83,5.36-33.94,2.4-62.72-8.88-86.31l-17.73-4.43c-40.47-60.14-81.63-119.87-123.48-179.21l5.05-10.38c-10.29-13.17-21.24-17.4-32.86-12.68-13.6-32.89-19.5-70.17-17.7-111.82-6.65-21.84-15.86-29.86-27.62-24.07-17.75,13.8-25.21,8.03-34.46-11.03l67.49-75.79-3.01-23.49,51.88-81.1c40.02-101,71.29-204.78,93.8-311.35,23.2-16.46,26.76-31.51,10.68-45.15,7.34-154.5-16.23-286.02-83.01-426.46-33.16-163.25-102.85-322.75-283.7-350.38-10.66-16.49-29.12-17.9-55.39-4.21-189.53-21.71-293.82,33.6-390.74,201.98-55.62,132.18-120.81,259.82-195.57,382.92-11.33,22.8-13.12,74.39-13.25,101.23-.49,107.75,57.42,340.11,101.55,436.71,24.3,34.35,39.64,69.06,46.03,104.14,6.33,28.53,24.43,54.74,54.29,78.63,7.27,16.65,2.17,26.19-15.78,21.23-1.98,77.61-8.08,154.01-18.27,229.19-4.54-.77-8.94-1.8-12.86-3.79-11.19-5.67-13.58-53.96-13.64-67.56-24.3-33.85-54.78,2.23-56.35,32.16l8.98,14.57-95.99,138.38c-30.2,49.13,49.71,378.74,66.23,389.98,61.74-47.64,123.93-96.89,186.56-147.75,19.44-11.48,39.86-7.46,61.26,12.05,16.2-16.83,43.5,9.96,31.83,29.29-7.26,41.96-40.62-20.74-88.8,25.76-60.68,58.55-121.36,113.7-193.09,158.83-17.01,10.7-36.64.18-41.76-18.08l-63.35-226.11c-18.17-64.84-23.03-128.74-23.44-196.19l-304.63,121.15c-17.47-5.51-44.42-14.68-31.76-36.21,17.84-7.32,18.46-20.48,21.42-38.67,26.17-160.87,26.79-315.52,24.09-477.94-2.8-168.88,13.31-330.53,47.22-494.94l83.23-403.48c55.23-267.76,184.01-536.51,430.23-666.13,139.61-73.5,347.75-105.59,463.12,2.63,281.67-79.6,454.66,242.17,525.81,492.52,51.94,182.75,96.49,363.16,119.32,552.61l49.09,407.3c17.47,144.97,24.49,285.27,33.85,430.34l7.02,108.85Z"/>
    <path class="st5" d="M2006.05,1334.91l13.51-82.25c26.51-10.13,42.4-31.54,47.69-50.25,9.8-34.71,1.33-56.28-13.78-87.6-11.95-24.77,3.56-82.73,32.11-92.45,76.34-26.01,64.26,198.39-29.52,312-19.79-3.68-30.68-2.44-49.99.55Z"/>
    <path class="st6" d="M956.16,1332.81l-47.29.53c-39.08-50.86-66.64-113.48-73.23-179.9-4.23-42.57,26.1-76.53,62.88-98.59,18.43,28.75,9.66,61.32-3.04,93.97-15.39,39.54.86,86.28,42.48,96.12l18.21,87.88Z"/>
    <circle class="st8" cx="2033.84" cy="1403.45" r="43.04"/>
    <circle class="st8" cx="929.84" cy="1404.44" r="42.87"/>
  </g>
  <path class="st9" d="M1803.27,1736.53c3.29.44,10.94-.61,13.72,3.17,1.35,1.83-1.09,7.58-1.03,11.32l1.77,118.38c.71,47.55,10.79,96.79,17.65,141.8-31.22,120.69-107.51,220.18-197.96,302.65-38.43,31.73-63.72,70.05-67.44,120.49-43.86,46.75-70.38,96.26-98.24,160.33l-70.91-156.14c-20.11-44.28-26.88-85.01-66.05-116.95-100.79-82.16-173.22-195.34-205.95-316.75,18.13-21.63,18.59-49.23,19.81-77.81l8.3-193.73c66.8,54.76,126.12,104.65,202.46,134.18,88.72,34.31,193.98,29.64,278.95-14.2,61.99-31.99,116.13-73.12,164.92-116.74Z"/>
  <path class="st2" d="M1689.83,2320.58c4.37,3.09,9.97,5.45,13.02,5.08-18.35,13.95-56.14,27.15-54.93,54.38l2.83,63.34c-24.31,19.93-42.18,42.33-74.7,49.24l35.49-70.13c13.21-48.2,46.74-73.49,78.3-101.91Z"/>
  <g>
    <path class="st9" d="M1836.29,1649.71c-17.12,21.99-36.02,42.51-56.69,61.54,2.6,5.11,4.27,9.7,2.71,12.47-14.99,26.51-177.45,115.29-208.86,124.52-177.09,52.02-340.56-60.16-452.99-189.21-6.3-7.23-8.4-14.81-4.89-24.48-52.37-67.44-86.79-145.44-107.1-232.48l-40.49-173.58c-16.56-71-24.46-172.03-.9-242.54,52.66-86.57,103.1-166.24,139.12-261.36,48.61-128.37,135.6-278.34,265.22-320.98,102.28-33.64,193.8,7.55,226-23.3,8.32-7.97,3.06-22.43,4.28-30.52l17.93-119.2c20.92,85.24-16.35,161.15,8.41,166.57,83.49,18.27,156.46,52.67,204.22,127.71,34.31,53.91,62.59,116.28,75.66,180.72,15.24,75.19,48.82,137.61,73.42,208.89,30.87,89.41,17.63,186.65,23.72,280.3,22.42,1.88,25.97-18.92,29.79-34.43,22.34,41.43-26.06,59.69-42.33,80.57l-55.86,219.95c-18.46,72.68-60.71,130.03-100.39,188.84Z"/>
    <g>
      <path class="st10" d="M1836.29,1649.71c-10.67,15.82-16.52,34.87-39.63,49.48-6.53,4.13-17.34,15.35-13.72,21.36,4.29,7.12,12.96,14.98,20.32,15.97l-8.37,28.15c-192.63,186.85-430.26,183.54-623.71,2.28l-10.3,202.22c-2.99,29.58-13.68,41.46-32.06,35.66-1.57-14.87,3.39-29.71,6.99-41.24-3.33-20.29,8-40.98,8.02-63.34l.11-141.37c.01-15.65,5.93-27.32,16.15-35.97l-51.57-59.77c-5.79-6.71,4.03-22.94,7.06-28.61,49.13,63.28,113.8,107.76,181.53,153.69,123.38,83.67,275.55,75.3,391.62-18.28,27.33-22.04,60.27-34.31,87.49-62.23l60.08-58.02Z"/>
      <path class="st7" d="M1426.97,1492.45c106.79,14.11,223.14-19.05,241.44-8.36,4.85,2.83,8.78,19.06-.29,22.8-120.15,49.45-252.01,50.31-372.44.1-9-3.75-3.86-18.71.91-21.91,3.93-2.64,9.58-9.87,18.57-5.41,35.98,17.84,74.37,7.84,111.81,12.78Z"/>
      <path class="st10" d="M1562.04,1307.37c10.21,4.66,4.44,22.22-2.28,24.12-54.92,15.53-70.04,43.44-130.6,11.02-29.75-15.93-52.51-38-41.31-76.92,22.14-76.96,38.56-154.36,46.06-235.25,1.01-10.93,3.63-17.13,13.06-17.74,33.02-2.16-12.01,182.75-29.55,271.22,3.3,23.18,55.82,44.45,77.57,36.84,22.97-8.04,42.62-24.45,67.05-13.29Z"/>
      <path class="st3" d="M1281.3,998.44c3.8,23.2-3.3,45.66-15.74,57.43-19.8,18.72-49.72,17.23-65.44,8.46-22.84-12.75-29.39-37.57-27.05-68.16l-59.77,28.74c15.98-60.37,89.14-89.06,147.31-72.1,26.34,7.68,50.15,26.19,51.54,55.89-1.48,4.87-17.08,1.27-30.85-10.26Z"/>
      <path class="st3" d="M1792.26,995.48c-4.52,24.59-3.51,46.85-20.65,61.74-17.24,14.98-45.63,19.12-66.04,5.21-18.96-12.92-28.1-34.32-24.92-65.7-13.17,7.28-27.11,9.02-32.33.49,20.31-37.4,62.47-53.72,101.44-49.02,42.51,5.13,84.68,29.36,98.68,73.41-25.58,5.65-30.81-8.09-56.18-26.14Z"/>
      <path class="st7" d="M1901.3,902.04c-140.83-72.64-244.4-5.99-283.51-23.95-17.36-7.97-4.04-38.62,13.12-44.4,100.85-33.93,243.72-31.75,270.39,68.35Z"/>
      <path class="st0" d="M1341.56,877.64c-36.95,21.39-139.03-48.77-287.1,27.37,34-103.15,163.98-97.83,266.29-75.09,19.92,4.43,41.97,35.47,20.81,47.72Z"/>
    </g>
  </g>
</svg>