<?xml version="1.0" encoding="UTF-8"?>
<svg id="Layer_1" xmlns="http://www.w3.org/2000/svg" version="1.1" viewBox="0 0 2995.13 2990.91">
  <!-- Generator: Adobe Illustrator 30.3.0, SVG Export Plug-In . SVG Version: 2.1.3 Build 182)  -->
  <defs>
    <style>
      .st0 {
        fill: #070707;
      }

      .st1 {
        fill: #eaeaea;
      }

      .st2 {
        fill: #f6f6f6;
      }

      .st3 {
        fill: #a6a6a6;
      }

      .st4 {
        fill: #050505;
      }

      .st5 {
        fill: #969696;
      }

      .st6 {
        fill: #0b0b0b;
      }

      .st7 {
        fill: #282828;
      }

      .st8 {
        fill: #101010;
      }

      .st9 {
        fill: #080808;
      }

      .st10 {
        fill: #f7f7f7;
      }

      .st11 {
        fill: #f8f8f8;
      }

      .st12 {
        fill: #f5f5f5;
      }

      .st13 {
        fill: #f0f0f0;
      }

      .st14 {
        fill: #e2e2e2;
      }

      .st15 {
        fill: #f3f3f3;
      }

      .st16 {
        fill: #fcfcfc;
      }

      .st17 {
        fill: #dcdcdc;
      }

      .st18 {
        fill: #aeaeae;
      }

      .st19 {
        fill: #fdfdfd;
      }
    </style>
  </defs>
  <path class="st0" d="M885.23,1223.64c8.03,17.25,3.78,52.24-10.47,53.4-4.68.38-10.34-5.78-14.43-7.54-7.99-20.75-20.56-48.01-45.74-55.35l-20.3,5.32c-5.98,1.57-10.9-10.54-9.63-15.93,1.51-6.4,7.59-16.57,17.31-19.17,44.27-11.84,71.92,56.9,83.27,39.28Z"/>
  <path d="M1692.39,40.3c165.17,3.44,357.66,126.3,347.64,298.21,84.21,2.98,146.75,52.56,188.69,122.4,49.45,82.35,55.1,178.04,47.09,274.23-2.03,24.32-16.17,43.79-19.73,64.74-15.13,89.1-24.63,177.28-55.1,260.48l-9.79,2.64c21.73,24.82-38.17,60.52-58.29,63-9.51,1.17-67.97-22.56-71.95-28.07,13-50.77,4.25-113.01-12.78-162.09-39.35,6.46-52.39-56.41-58.94-89.07,8.38-128.3-24.05-194.37-130.8-262.99-6.46-14.22-19.51-18.89-39.15-14.02-92.24-14.2-185.93-11.2-281.05,8.99-33.5-7.46-65.41-7.6-95.73-.41-92-11.56-222.42-25.31-297.59,37.23-37.69,62.77-87.21,105.8-148.55,129.1,10.22,72.13-2.65,136.45-38.62,192.95l-19.91-1.27-12.36,20.44c-17.15-4.91-20.6,56.48-5.92,64.35l1.79,70.28c22.32,19.04,63.14,64.57,5.25,58.85,1.67,18.99.45,37.49-3.68,55.5,16.53,9.63,11.83,19.2-1.12,29.9,4.12,22.05,6.24,44.66,6.37,67.82-12.12,2.25-24.09-1.13-35.91-10.13-1.34,20.07-9.33,20.2-22.61,6.22-24.34,27.59-33.16,24.67-27.44-13.87-14.25-21.26-.62-33.84,18.14-16.21l11.17-9.18c-.78-17.27,3.8-29.5,13.73-36.68-19.64-23.19-36.79-50.56-51.45-82.13-17.95-4.9-36.54-7.87-55.75-8.9-19.14,12.4-36.23-18.12-19.73-32.96l26-16.64-33.83-137.58c-23.51-63.32-19.73-128.25-24.38-195.84-62.48-108.89.92-274.46,101.05-356.78-6.4-24.85.44-46.64,12.55-68.26,49.57-88.49,124.4-154.77,213.87-205C1249.73,9.41,1476.97-13.28,1692.39,40.3"/>
  <path class="st5" d="M1437.34,483.28c-52.43-51.5-113.26-66.91-191.53-60.94,65.35-34.95,151.9-7.81,191.53,60.94Z"/>
  <path class="st3" d="M1212.02,321.77c13.9-.7,17.14,3.2,5.69,12.08-59.75,9.28-117.83,66.81-150.94,66.91-5.19.02-5.24-10.81,3.61-5.74,46.27-31.27,88.3-62.35,141.64-73.24Z"/>
  <path class="st18" d="M1217.71,333.85l-5.69-12.08c51.6-10.54,106.26-13.23,153.81,5.35l-78.09-4.15-70.03,10.88Z"/>
  <path class="st0" d="M896.26,1207.22c.49,3.43-9.37-6.22-4.65-13.42-9.36-6.58-7.97-15.65-7.37-20.34.75-5.94,11.47-16.37,23.06-9.68,9.64,5.57,9.56,28.88-11.03,43.43Z"/>
  <g>
    <path class="st19" d="M2048.16,935.86c10.94,49.45,16.94,100.07,14.46,153.66-33.74,4.94-56.18-9.92-84.55-23.21-121.33-56.82-322.85-54.55-402.36,52.39-51.56-11.82-104.32-18.84-155.36,4.28-68.98-112.43-286.45-111.13-397.2-56.6-31.12,15.32-54.37,31.47-97.8,24.69-1.27-50.46-.55-104.52,12.46-154.71,59.5-59.96,34.83-123.57,47.86-200.9,54.43-19.51,93.29-54.62,124.44-101.24,60.46-90.48,132.71-70,222.68-80.67,78.01-9.25,110.47,29.53,146.18-5.89,54.98,44.52,166.8-22.3,304.68-.19,27.33,4.38,50.35,15.38,74.37-3.22,1.02,28.87,17.61,32.74,32.89,42.49,76.88,49.02,118.95,126.09,112.58,217.37-3.57,51.15,10.74,97.69,44.67,131.76Z"/>
    <path class="st9" d="M1361.35,1006.62c-12.56,51.86-140.49-30.02-308.19,28.29-9.54,3.32-20.6.9-24.69-7.91-11.92-25.71,41.92-71.92,108.46-79.38,92.05-10.33,238.5.9,224.42,59Z"/>
    <path class="st9" d="M1941.45,1033.62c-156.98-55.01-287.34,16.76-305.37-17.82-30.15-57.82,120.36-83.22,232.69-65.92,61.63,9.49,108.06,53.76,96,76.99-4.01,7.73-13.63,10.15-23.32,6.75Z"/>
  </g>
  <g>
    <path class="st0" d="M937.82,936.36c10.62,21.68,11.92,47.76,3.9,78.24-11.39,55.76-.12,74.82,33.79,57.17,134.11-72.36,339.63-92.35,450.02,31.24,46.41-13.24,101.98-16.95,145.36,2.58,117.72-139.98,327.43-95.15,474.49-30.73,3.13-38.52.43-76.8-8.08-114.84l10.86-24.16c4.79,8.47,19.92,2.59,28.08,1.92,11.97,12.45,12.48,39.8,3.36,56.26-14.14-13.84-4.66-28.76-18.44-38.23,6.19,50.29,13.72,87.1,8.72,134.43,26.63-7.68,43.15,29.53,57.85,21.41l26.92-14.87c8.23-4.54,21.64-6.05,25.11-11.72,8.88-14.55-9.42-39.38,3.05-47.62,2.48-1.64,2.42-4.74,10.85-5.62-4.9,11.41,6.58,21.29,7.32,28.54,1.02,14.27,3.96,25.49,22.22,34.52,98.25,48.61,81.41,293.87-61.18,418.93-32.77,28.74-71.23,42.44-113.41,37.21l-28.66,109.1c-19.41,73.87-59.14,135.61-113.83,190.32-1.22,91.55-7.47,184.09,9.91,270.06,8.45,41.82,55.32,21.02,76.34,21.61,62.64,2.3,113.19,46.56,167.75,68.06l412.21,162.41c271.79,107.08,386.46,317.53,406.92,602.59,1.01,14.11-19.97,17.9-27.04,14.62-35.5-16.43,8.52-335.12-272.15-515.32-59.36-38.11-122.13-64.38-188.5-90.62l-349.05-137.96c-71.6,184.41-241.76,295.91-428.85,341.77-320.68,71.33-727.34-9.73-862.42-339.02l-438.24,177.08c-241.23,97.47-333.87,300.13-357.81,549.35-1.15,11.92-13.85,13.18-19.46,13.24-5.53.06-20.64-2.49-19.84-13.43,18.36-250.38,122.7-479.63,361.31-577.1l472.57-193.05c49.25-20.12,95.96-59.37,151.55-63.95,18.73-1.54,63.2,13.66,71.1-13.83,18.08-90.13,11.88-181.16,11.18-275.27-81.4-82-121.14-184.78-142-300.78-41.1,7.49-79.72-5.91-112.19-35.01-138.97-124.51-159.73-359.56-71.1-416.26l19.73,32.96,5.76,16.48c-49.24,75.33-14.39,194.15,30.75,265.21,7,11.02,86.42,98.67,93.65,79.11,4.96-13.44-7.64-87.61-35.61-84.08-27.68-23.69-73.54-75.45-49.52-115.55,4.46-7.46,8.22-9.65,19.14-8.07,2.92,3.4-1.41,13.96,4.61,22,2.3.43,8.09-10.81,11.13-12.35,3.27-1.65,9.44,2.29,11.7,4.21,4.21,13.01,11.75,10.93,22.61-6.22,4.23-5.55,9.99-14.26.97-22.03,8.09-4.64,18.89-1.34,19.72,3.61,1.3,7.75.14,14.84,9.22,22.73l-.37-62c20.48-4.21,28.62,11.3,24.43,46.53l57.68,298.44c35.94,193.51,241.84,395.56,434.62,428.21,194.32,32.91,449.96-151.55,515.33-328.47,54.95-148.73,83.22-319.58,93.56-476.47-23.06,341.39-493.35,327.17-498.53-15.35,4.55-22.29-51.85-24.24-74.97-19.48-23.76,4.9-25.64,5.33-27.13,18.77-16.47,148.47-85.93,268.71-254.03,265.45-159.68-3.1-238.16-124.7-244.19-271.93-2.18,17.9-5.62,27.56-25.64,24.4l-.58-46.02c.27-9.98,10.63-16.6,20.8-17.4.99-13.52-20.25-21.97-25.48-30.36l-4.73-89.06c-36.61,30.19-12.68-9.97-13.82-88.1,16.81,6.44,30.51,10.19,38.73,1.53Z"/>
    <g>
      <path class="st11" d="M885.23,1223.64c1.97,22.79-11.36,19.84-27.34,6.38,10.42,14.06,17.05,25.81,2.44,39.48-5.2-1.23-15,8.94-18.14,16.21-21.65,50.08,9.75,109.58,67.03,121.12l20.84,105.04c-143.81-1.7-239.68-295.64-152.03-379.26,19.95-19.03,54.22-16.69,69.73,1.06,23.91,27.35,24.24,61.56,37.48,89.98Z"/>
      <path class="st14" d="M892.24,1293.35l12.95,78.6c-32.18-9.6-43.02-42.5-35.56-72.38,6.42-4.26,14.38-6.85,22.61-6.22Z"/>
      <path class="st19" d="M1967.49,2207.63c-39.98,72.13-99.92,122.23-174.41,157.61-181.52,86.23-393.26,89.05-577.64,8.17-79.45-34.86-148.64-89.47-188.49-165.04,8.38-17.67,33.86-24.09,50.52-22.76,21.27.46,29.28-12.92,32.71-31.14,16.04-85.1,15.21-169.24,14.78-257.87,67.62,58.83,135.85,112.15,220.33,144.7,96.21,37.07,206.84,37.91,302.88-.02,82.05-32.4,146.17-86.78,214.19-144.79l12.66,243.09c.85,16.41,7.54,31.89,19.97,42.52,25.29,2.47,44.38,3.16,72.5,25.5Z"/>
      <path class="st11" d="M2061.1,1511.29c8.04-133.58,54.19-97.86,82.99-157.84,16.7-30.44,8.36-63.27-11.39-90.03,11.65-32.96,34.95-55.92,67.81-47.86,7.52-11.01,3.11-19.72-1.12-24.17-22.91-24.12-58.57-.05-88.94,40.93-2.48-38.2,9.88-73.39,32.68-100.2,13.3-15.64,41.4-15.61,57.46-6.65,99.8,55.68,20.54,378.89-139.5,385.81Z"/>
      <path class="st15" d="M1485.66,2572.7c-41.73,1.22-83.41,1.24-128.9-9.21l22.53-100.19,106.41,8.14-.04,101.27Z"/>
      <polygon class="st2" points="1769.35 2531.3 1647.89 2562.67 1625.14 2460.02 1728.7 2436.98 1769.35 2531.3"/>
      <path class="st10" d="M1198.33,2523.03c-42.37-14.41-72.92-30.26-106.48-52.9l58.36-84.78,93.56,42.25-45.44,95.43Z"/>
      <path class="st2" d="M1787.13,2525.18l-41.44-94.68,90.86-44.58,59.69,85.97c-34.46,23.97-66.41,38.69-109.1,53.28Z"/>
      <path class="st2" d="M1339.1,2557.96c-38.52-.48-74.41-13.36-116.55-26.92,5.86-35.7,23.95-65.62,41.63-97.19l94.15,24.21-19.24,99.9Z"/>
      <polygon class="st12" points="1626.94 2565.16 1505.11 2573 1505.58 2471.55 1604.82 2463.94 1626.94 2565.16"/>
      <path class="st2" d="M1076.68,2457.65c-37.19-16.89-64.15-43.45-95.14-72.25l81.33-63.01,72,54.43-58.2,80.84Z"/>
      <path class="st11" d="M1917.68,2460.4l-64.12-80.52,70.45-53.09c32.01,17.64,55.68,40.17,80.92,65.9-25.85,28.42-51.16,45.86-87.25,67.71Z"/>
      <path class="st12" d="M2021.54,2376.11l-76.83-63.54c10.16-21.95,26.15-38.41,43.34-59.36l86.36,47.23-52.87,75.67Z"/>
      <path class="st12" d="M968.92,2366.36c-23.2-18.22-37.55-40.57-55.6-67.83l88.73-46.21c19.46,15.09,30.69,34.74,44.6,53.93l-77.73,60.11Z"/>
      <path class="st13" d="M2084.79,2284.56l-86.11-53.66,14.88-46.97,93.78,44.21c-2.72,19.56-10.45,33.08-22.55,56.43Z"/>
      <path class="st1" d="M907.88,2280.01c-14.27-13.24-19.71-29.68-23.25-49.83l91.16-45.2c9.48,15,13.81,27.66,16.62,45.7l-84.52,49.33Z"/>
      <path class="st17" d="M2086.27,1371.28l12.8-81.9c22.63,9.6,23.92,27.01,19.6,44.7-3.16,12.94-11.14,32.25-32.4,37.2Z"/>
      <g>
        <path class="st16" d="M1929.75,1083.91c81.64,23.57,79.16,157.13,28.19,236.08-49.13,76.1-143.71,97.84-227.63,69.59-78.86-26.55-129.51-109.31-127.2-198.28,1.22-47.01,24.98-86.16,70.87-102.75,81.12-29.34,172.33-28.72,255.78-4.64Z"/>
        <path class="st4" d="M1819.26,1222.73c-9.29,23.97-28.34,33.62-47.12,33.73-19.51.12-36.65-10.24-45.66-30.87-12.26-28.08-6.5-53.39-.29-81.95-20.85,6.54-29.5,26.85-49.91,18.65,23.64-40.71,67.98-57.05,110.28-54.56,37.69,2.22,81.86,18.31,101.1,60.96l-68.88-26.89c8.47,29.26,11.02,53.7.48,80.92Z"/>
      </g>
      <g>
        <path class="st19" d="M1392.6,1215.3c-8.9,83.36-59.89,152.07-130.46,175.29-77.28,25.43-166.63,6.8-215.35-58.33-55.04-73.58-67.88-224.75,29.89-250.49,72.89-19.19,148.53-19.78,220.83-2.36,64.54,15.55,102.44,66.94,95.08,135.88Z"/>
        <path class="st4" d="M1265.37,1231.79c-9.92,16.82-26.8,24.85-43.91,24.88-18.83.03-35.58-11.7-44.72-32.45-11.6-26.32-6.43-54.3.12-79.41-30.84,3.75-40.82,20.61-65.98,32.06-1.08-31.46,25.32-42.18,46.35-53.32,55-29.13,122.02-19.31,156.6,38.87-12.67,7.47-22.05-1.43-39.41-12.8,4.21,29.36,6.61,55.63-9.04,82.17Z"/>
      </g>
    </g>
  </g>
  <g>
    <path class="st19" d="M921.78,1235.67c-6.38-6.45-5.38-22.62,1.12-29.9,12.78-14.31,9.98-32.39,3.88-55.43,35.26,6.07,40.22,28.5,41.57,56.75,3.95,82.86,41.13,163.84,115.02,202.52,78.69,41.2,174.47,37.54,246.31-12.56,73.39-51.17,105.51-137.57,101.19-225.13,40.25-28.93,98.01-28.15,134.19,1.15-7.58,105.36,44.24,201.54,131.98,241.73,90.41,41.41,200.19,27.37,269.82-47.4,84.09-90.28,42.12-197.01,97.05-214.89l-1.84,93.6c-15.43,136.82-39.78,268.55-79.58,400.09-19.69,65.09-53.96,122.77-100.03,171.63-70.81,75.08-146.86,142.01-243.77,183.08-86.39,36.61-190.77,38.07-278.3,1.7-173.48-72.08-335.17-229.72-371.71-418.88l-57.82-299.33c-3.39-17.54,5.2-34.32-9.09-48.74Z"/>
    <path class="st6" d="M1671.99,1657.35c35.62,46.85-274.6,68.02-352.41,17.81-5.15-3.32-2.83-21.21,6.62-19.79,109.37,16.45,216.3,23.29,324.31.34,11.41-2.42,15.47-6.28,21.48,1.63Z"/>
    <path class="st8" d="M1578.22,1484.95c12.71,22.64-63.68,55.75-130.6,25.66-17.43-7.84-48.12-26.69-39.48-52.9,20.04-60.76,32.85-120.63,37.32-185.5l7.48-41.93c5.1.22,10.81.33,10.8.43l-26.51,225.14c43.39,69.16,128.58,6.98,140.99,29.1Z"/>
    <path class="st7" d="M1551.09,1769.56c-28.79,24.14-78.16,24.41-111.13-2.04,37.16-4.7,68.13-5.4,111.13,2.04Z"/>
  </g>
</svg>