<?xml version="1.0" encoding="UTF-8"?>
<svg id="Layer_1" xmlns="http://www.w3.org/2000/svg" version="1.1" viewBox="0 0 2995.13 2990.91">
  <!-- Generator: Adobe Illustrator 30.3.0, SVG Export Plug-In . SVG Version: 2.1.3 Build 182)  -->
  <defs>
    <style>
      .st0 {
        fill: #070707;
      }

      .st1 {
        fill: #040404;
      }

      .st2 {
        fill: #cecece;
      }

      .st3 {
        fill: #a7a7a7;
      }

      .st4 {
        fill: #d2d2d2;
      }

      .st5 {
        fill: #909090;
      }

      .st6 {
        fill: #060606;
      }

      .st7 {
        fill: #d4d4d4;
      }

      .st8 {
        fill: #898989;
      }

      .st9 {
        fill: #f7f7f7;
      }

      .st10 {
        fill: #f8f8f8;
      }

      .st11 {
        fill: #0c0c0c;
      }

      .st12 {
        fill: #dbdbdb;
      }

      .st13 {
        fill: #cbcbcb;
      }

      .st14 {
        fill: #fcfcfc;
      }

      .st15 {
        fill: #a9a9a9;
      }

      .st16 {
        fill: #e0e0e0;
      }

      .st17 {
        fill: #fdfdfd;
      }

      .st18 {
        fill: #0e0e0e;
      }

      .st19 {
        fill: #161616;
      }

      .st20 {
        fill: #090909;
      }
    </style>
  </defs>
  <g>
    <path d="M2291.4,1840.99c17.03-33.9,1.75-39.36-45.85-16.38-11.49-3.67-21.94-10.14-31.36-19.39,55.32,120.25-139.19,77.39-199.95,48.95-7.87,15.57-16.58,32.64-26.13,51.2-47.63.41-94.32,4.74-140.07,13l-15-12.46c-4.42-5.09-6.71-13.15-6.85-24.18-24.3,7.46-22.97-21.78-20.38-44.78l9.56-28.92c162.86-135.23,208.91-341.02,238.2-541.93,7.67-52.58,10.54-233.56-1.48-288.33-2.84-12.93-30.03-87.98-35.28-94.78-23.6-6.72-43.63-16.63-60.07-29.73-2.46-58.17-4.7-115.86-6.74-173.06-12.22-22.74-20.34-50.38-24.34-82.92,10.36,33.54,15.49,66.58,15.39,99.13,12.41,32.36,24.59,129.58,9.18,157.58-5.21,9.47-168.92-1.38-180.57-8-10.23-5.82-16.2-9.61-17.58-22.83-.02-56.23-.05-111.92-.1-167.08-8.32-13.41-12.23-32.08-11.72-56,1.55,35.12,3.05,69.65,4.49,103.58,12.1,30.89,18.83,119-9.35,139.11-8.99,6.42-210.57,4.13-220.61-.49-10.68-4.91-16.99-8.97-19.34-21.55,2.23-60.13-2.33-54.8-13.67,15.99-63.51,8.4-128.09,11.51-193.74,9.31-21-.42-25.43-9.33-30.79-28.29-8.64-30.57,4.56-113.81,11.14-145.78,5.99-11.46,6.38-39.04-7.77-31.4.47,28.14,1.4,185.24-9.77,197.76-6.65,7.45-149.91,27.94-161.27,24.82-21.24-5.84-32.62-10.86-19.02-31.84-10.96-45.26-7.02-101.22,7.06-143.32,1.41-9.24,1.86-18.83-7.95-15.83,2.63,33.79-.16,79.64-6.74,113.73-.35,1.81-4.85,2.82-10.54,3.6,16.28,54.23,13.07,81.23-47.6,93.05-3.46,3.38-29.49,79.34-32.16,91.33-16.57,74.38-9.01,259.02,2.54,330.38,19.78,122.2,52.9,250.4,111.84,359.71l-.33,30.41,17.17,75.23,16.56-.02c25.4,28.28,50.7,54.97,75.89,80.07,18.99,13.77,23.44,30.96-1.54,28.67.54,59.52-9.21,70.17-29.25,31.93l-117.54-4.8c-8.14-15.8-13.81-31.55-17-47.24-21.42,40.7-186.06,45.9-208.45,27.17-12.62-10.56-14.89-17.94-7.66-33.55,30.14-29.15,11.6-32.01-55.63-8.58l-14.27-12.68c-21.92,5.74,9.93,28.7-.7,44.24-18.76,27.43-109.25-24.35-147.41-110.3-35.93-80.93-37.9-170.12-29.22-258.78l50.1-277.82,94.22-460.98c22.33-109.24,45.61-213.04,89.68-314.69,58.03-133.83,144.98-248.37,264.96-330.35,129.76-88.66,305.3-136.72,447.01-68.93,42.19-24.75,87.17-32.58,136.28-32.4,259.48.93,466.22,189.43,572.21,420.97,44,96.11,68.74,194.23,90.17,299.02l114.34,559.14c31.85,155.76,65.48,334.07,0,476.12-25.26,54.78-76.51,109.59-139.27,108.08-15.86-.38-9.66-38.38,4.03-42.85Z"/>
    <g>
      <path class="st10" d="M2094.69,1376.35c29.08-21.64,59.24-35.28,66.82-63.22,9.52-35.1,6.05-64.47-18.47-90.33,11.72-20.39,29.78-46.04,51.84-45.76,4.52.04,15.07,11.29,21.7,3.09,4.27-5.28,5.1-16.39-3.33-23.69-16.18-14.02-39.38-13.48-54.5,1.42l-39.59,39.03c11.38-71.23,30.87-129.47,84.42-114.92,81.17,22.05,87.62,233.24-41.01,358.35-10.17,9.89-44.22-21.49-59.46-1.14-5.71,7.63.21,19.87,7.54,31.5,4.3,14.19-39.24,17.24-39.84,4.49,5.79-30.63,10.65-72.95,23.88-98.84Z"/>
      <path class="st10" d="M878.82,1222.87c-21.81,26.37-30.58,56.14-17.87,89.68,9.64,25.44,31.44,50.65,68.91,58.15,8.11,32.31,19.9,66.91,20.83,105.55.26,10.89-40.79,4.14-37.39-6.42,7.87-14.65,10.53-31.34-2.88-38.46-8.18-4.34-23-.31-38.68,14.08-89.73-72.11-148.8-263.48-80.76-344.67,14.15-16.88,38.48-23.18,55.07-18.93,36.07,9.25,54.05,62.75,50.59,113.11-20.91-33.17-45.59-58.05-77.72-45.81-11.12,4.23-14.08,18.9-10.83,26.59,3.34,7.89,18.27,2.82,25.28.4,20.73,6.04,32.5,27.76,45.46,46.73Z"/>
      <path class="st2" d="M885.45,1590.96c13.58,18.94,41.18,17.36,55.56,5.8,15.35-12.34,18.73-35.08,21.44-62.4,24.82,17.13,8.87,51.06-5.03,70.28-15.43,21.33-51.23,30.03-76.32,8.14-44.56-38.89-43.5-129.02,18.71-157.66-23.77,42.11-47.26,89.98-14.37,135.84Z"/>
      <path class="st4" d="M646.17,1753.34c-50.42-97.65-40.58-205.71-16.19-305.44,5.43,107.6-2.16,205.27,16.19,305.44Z"/>
      <path class="st12" d="M2057.57,1529.77l12.9,46.89c7.07,18.15,20.78,27.21,35.7,28.57,16.3,1.48,32.58-6.48,40.7-22.92,17.69-43.6,1.53-84.33-21.28-126.11,59.71,32.07,63.87,124.08,10.82,161.65-24.58,17.41-55.54,2.98-69.8-15.87-14.33-18.94-24.26-45.93-9.04-72.22Z"/>
      <path class="st13" d="M2417.78,1574c3.04,42.6-.71,83.19-20.76,116.1,4.56-67.21,15.5-127.87-2.35-195.59-4.29-16.29,16.13-18.35,17.46.32l5.64,79.17Z"/>
      <path class="st16" d="M1077.62,687.96l-7.06,143.32-18.17-41.83,17.27-117.33c12.57-15.43,10.43.5,7.95,15.83Z"/>
      <path class="st4" d="M924.4,1338c-14.25-6.72-26.77-20.2-32.21-32.04-8.38-18.22-7.09-40.01,13.93-56.01,9.58,28.82,13.99,50.36,18.28,88.06Z"/>
      <path class="st7" d="M2102.24,1338.66c-.53-30.81,2.98-59.06,18.25-89.4,26.73,27.72,15.33,70.24-18.25,89.4Z"/>
      <path class="st8" d="M1077.62,687.96c.29-6.64-.77-13.55-7.95-15.83,4.41-29.96,12.61-61.1,30.23-85.75-.82,42.72-13.06,71.76-22.29,101.58Z"/>
      <path class="st3" d="M1950,680.2c-4.87,2.63-7.42,9.19-8.94,16.2l-20.1-103.61c1.32.04,5.02,2.48,8.25,3.53l20.79,83.88Z"/>
      <path class="st5" d="M1268.4,671.94c-.23-10.86,3.44-24.86-7.77-31.4,2.66-25.16,5.77-49.87,22.03-73.17l-6.33,81.59c-.8,10.37-.6,20.59-7.94,22.98Z"/>
    </g>
  </g>
  <path class="st17" d="M1227.23,1891.77c49.02,40.34,104.32,71.34,165.17,92.96,160.74,57.12,299.67-7.11,430.97-107l5.38,149.66c9.62,50.06,1.57,124.08,40.99,161.89,58.96,40.31,133.55,52.67,201.31,82.22-49.06,71.58-123.24,121.91-204.81,158.04-231.84,102.7-565.93,94.76-784.43-37.78-50.54-30.66-93.12-64.72-127.21-119.76l200.47-76.08c44.73-88.86,41.81-212.46,42.22-317.32,12.77.31,21.61,6.32,29.94,13.18Z"/>
  <g>
    <path class="st1" d="M1125.04,1755.47c38.5,38.84,76.46,77.14,113.86,114.89l-9.9,8.31c21.02,1.94,19.12,9.67-1.76,13.1l-10.19,5.4c4.04,109.47-12.93,212.45-50.92,308.93-60.71,26.04-122.18,50.24-184.42,72.61,106.85,148.59,332.13,201.53,509.72,204.94,197.51,3.8,423.72-49.17,554.85-205.1l-138.24-49.98c-65.11-31.17-72.16-47.35-85.67-113.41-4.71-23.02-14.72-77.73,6.41-87.75-2.27-41.92-.84-82.42,4.28-121.49,68.18-20.03,136.69-1.74,150.23-15.28,9.35-9.35,1.06-43.78,21.45-50.6,28.25-9.46,47.23,25.05,121.05,26.53,19.71.39,46.61,20.01,67.07,7.96,9.3-5.48,22.71-25.38,19.44-32.01l-16.8-34.1c-6.65-13.5,19.95-23.6,27.61-17.11l22.69,19.21,58.25-21.68c1.24,12.98,1.89,47.44-12.63,52.18-.1-5.32,4.98-14.65-2.15-28.72-12.7,29.41-32.99,53.16-58.52,69.41-14.16,3.4-16.36,2.45-6.61-2.84-16.08,10.88-35.32,16.54-54.27,19.93-41.99,7.51-42.72-7.29-6.7.31,1.96.41,3.4,3.3,4.7,6.89-27.16,5.15-64.91,14.94-94.98,3.94-23.52-8.61-33.7-3.19-55.12,3.12-49.26,14.53-97.64,6.19-146.16,10.44,3.8,78.68-9.2,165.08,26.11,231.91,50.61,39.75,126.05,54.04,189.32,72.65,173.71,51.09,340.6,105.02,506.6,174.83,244.09,102.65,344.52,306.64,366.04,564.2,1.19,14.28-19.5,16.53-27.79,13.88-25.4-8.13-9.53-47.84-27.43-83.84-94.13,29.65-186.03,40.07-282.64,45.18-.87,16.62-14.07,32.59-25.15,29.2-10.02-3.07-10.93-23.07-13.19-36.1l-2133.66.24c1.26,17.6-1.43,26.75-3.9,31.27-3.12,5.71-18.62,4.8-21.73.43s-6.66-12.19-9.28-25.47c-97.6-3.35-192.8-20.06-286.05-42.48l-7.62,56.68c-1.99,14.77-7.8,21.21-17.91,24.48-7.42,2.4-27.91.33-26.84-13.49,17.97-230.34,102.86-431.03,311.24-539.25l201.47-84.09,344.76-114.31c68.26-22.63,135.25-40.15,196.79-72.6,19.72-79.49,25.75-155.47,23.64-234.03-54.54-2.24-107.92,3.44-158.7-10.1-24.85-6.63-35.95-6.49-62.17-1.49-60.68,11.58-166.23-17.89-188.48-80.67l79.43-20.78c10.1-2.64,20.81,11.86,21.16,18.97.72,14.61-17.57,23.39-19.3,38.51-2.46,21.6,36.84.24,80.71,10.62,71.72,16.97,95.58-33.46,142.38-43.83l4.68,60.45,87.06,1.4c17.52.28,28.32-8.85,39.9-22.06.58,25.56-3.31,36.51,6.78,51.38,1.5-26.17-1.77-39.87,9.76-58.6.88-7.77-18.8-8.61-27.81-7.74-8.59-29.23-18.9-65.4-51.73-73.93l-24.99,2.53c.1-.01-22.97-58.83-6.34-93.11,22.91-10.7,63.63,46.88,38.34,61.14Z"/>
    <g>
      <path d="M2230.73,1881.68c-20.29,12.91-39.21,19.82-62.89,24.3-9.08-2.61-21.88,1.66-34.76-7.98,28.85-5.51,57.66-6.42,86.48-21.87,4-7.67,12.91-2.76,11.17,5.55Z"/>
      <path class="st14" d="M2634.8,2786.28c-23.9,8.65-26.37,31.25-29.61,61.8l-2169.55.45c-11.51-21.05-5.29-42.19-27.51-64.1-16.85,15.42-12.79,40.52-6.26,67.72-85.31.16-166.05-19.89-253.78-39.13l47.53-137.43c69.36,18.11,128.23,30.68,200.93,30.66l2275.63-.66,163.91-29.45c27.72,40.9,41.47,89.8,52.59,136.51l-254.98,42.53c1.21-22.71,10.57-38.02,1.09-68.9Z"/>
      <path class="st14" d="M2660.68,2490.29c51.14,27.83,88.12,58.37,122.69,105.97l-111.28,21.72-2314.93-.12c-40.36,0-70.35-14.91-107.15-23.83l114.11-103.77,832.24-.33c194.08,69.36,433.66,66.94,627.9-.65l836.42,1.02Z"/>
      <path class="st9" d="M2469.29,2401.96l-466.99-.64c44.7-41.47,79.66-71.3,107.65-115.11l72.06,12.18,287.28,103.57Z"/>
      <path class="st9" d="M1016.22,2402.1l-464.59-.1,276.41-98.14c29.46-10.46,57.11-15.19,89.24-10.61,24.85,42.83,61.46,67.53,98.94,108.86Z"/>
      <path d="M1859.2,1917.79c7.42,79.98,18.34,141.79-26.25,128.83,24.05-43.32,22.46-81.94,26.25-128.83Z"/>
    </g>
  </g>
  <g>
    <path class="st17" d="M1744.76,703.65c-6.67-13.99-9.06-46.36,7.23-47.58l6.26,49.52,10.41,125.17,171.86,15.32c9.26-53.47,9.61-102.95.55-149.66-1.84-13.65,1.14-19.05,8.94-16.2l20.74,169.96,57.16,17.02,39.65,107.62,9.11,197.87c-2.95,118.34-29.94,229.56-59.89,342.82-34.78,131.57-108.83,238.01-210.98,321.47-1.47,9.93-3.27,20.97-10.41,28.59-51.77,55.24-179.4,108.12-255.47,113.48-77.8,5.48-206.83-30.09-265.14-81.62-7.84-6.93-10.6-17.84-12.96-27.6-9,2.75-18.79,3.11-25.59-3.38-37.77-36-75.65-72.71-111.18-110.95-7.23-24.52-25.43-40.52-38.34-61.14-48.96-78.15-78.44-164.64-99.4-257.85-21.32-94.84-44.88-186.98-39.73-284.33l9.61-181.48,36.24-103.76c17.17-4.57,37.81-4.27,47.95-17.01,12.69-15.94,8.55-43.66,11.02-60.44l9.94-3.68,8.22,45.51c2.09,5.61,11.27,17.64,22.91,16.21l147.21-18.14,19.94-188.8c16.81-3.62,13.39,18.03,7.77,31.4,1.08,51.62-6.05,103.81,7.89,158.35l196.02-2.63,12.77-155.13,10.77-80.48,15.95,234.74,221.58,2.75c12.9-44.8,11.33-85.76,11.39-125.89Z"/>
    <g>
      <path class="st11" d="M1805.8,1836.95c6.41,12.89,19.61.8,23.26,3.87,7.62,6.43-1.74,20.99-11.73,22.99,13.57,14.77,16,26.63,15.71,42.1l-4.28,121.49-16.12-6.32-4.2-112.52c-172.3,136.77-393.67,157.05-570.77,11.58-3.29-2.7-5.2-7.16-6.99-12.01-1.9-5.17-2.82-10.71-3.45-16.35l1.76-13.1c3.35-17.2,19.51-12.76,32.82-8.87,202.54,138.23,354.76,121.74,543.99-32.85Z"/>
      <path class="st15" d="M1751.98,656.07c-11.92,12.08-7.2,31.68-7.23,47.58-5.34-.69-8.56-6.55-8.2-15.16l3.71-88.42c7.25,20.95,9.65,39.63,11.72,56Z"/>
      <path d="M1261.81,1869.79c-8.53,10.92-22.19,10.5-32.82,8.87,5.6-24.12-87.02-80.16-103.96-123.2,45.42,37.7,87,80.36,136.77,114.33Z"/>
      <path class="st0" d="M1369.65,984.84c-13.22,36.72-173.78-40.83-320.68,27.93-6.07-41.35,30.05-62.56,64.03-77.02,103.75-44.15,277.24-8.1,256.66,49.09Z"/>
      <path class="st6" d="M1962.51,1008.31c-164.98-63.48-288.69,15.91-304.63-23.5-29.36-72.63,269.67-111.6,321.31,8.49,1.51,3.51-6.14,19.07-16.68,15.02Z"/>
      <path class="st6" d="M1286.81,1113.45c9.86,61.38-9.7,114.06-54.3,113.41-17.93-.26-35.31-10.22-46.08-28.71-16-27.46-12.9-57.78-2.09-90.8l-78.82,34c18.8-46.24,64.3-63.99,105.95-69.61,45.78-6.18,92.65,11.58,122.5,54.53-14.12,12.22-27.49-1.02-47.15-12.82Z"/>
      <path class="st6" d="M1840.8,1193.35c-9.81,21.64-28.18,31.55-45.24,32.44-17.85.94-36.6-7.76-47-25.63-16.7-28.66-12.42-58.56-3.54-90.89-20.53,8.33-29.49,29.85-56.51,27.4,21.32-43.84,68.37-65.62,108.87-64.83,48.79.96,99.83,22.56,119.55,68.82l-77.17-32.93c12.43,28.56,14.18,56.66,1.05,85.62Z"/>
      <path class="st20" d="M1609.57,1603.01c33.71,10.27,69.89-12.03,76.89,3.25,15.43,33.65-215.85,92.61-348.49,9.23,21.24-29.94,45.28-4.93,60.16-8.86,43.82-11.55,76.11-3.74,116.85-2.01,30.26,1.28,61.35-11.74,94.59-1.61Z"/>
      <path class="st18" d="M1589.2,1434.52c11.33,26.17-70.35,53.24-134.13,18.37-23.77-13-35.09-41.99-23-69.5,29.04-66.1,30.15-134.62,46.64-207.12,28,78.76-19.49,151.29-16.78,225.38,2.24,61.07,120.81,17.94,127.27,32.87Z"/>
      <path class="st19" d="M1567.92,1708.81c-27.82,31.06-79.15,31.06-106.94,0h106.94Z"/>
    </g>
  </g>
</svg>