<?xml version="1.0" encoding="UTF-8"?>
<svg id="Layer_1" xmlns="http://www.w3.org/2000/svg" version="1.1" viewBox="0 0 2995.13 2990.91">
  <!-- Generator: Adobe Illustrator 30.3.0, SVG Export Plug-In . SVG Version: 2.1.3 Build 182)  -->
  <defs>
    <style>
      .st0 {
        fill: #3c3c3c;
      }

      .st1 {
        fill: #070707;
      }

      .st2 {
        fill: #a2a2a2;
      }

      .st3 {
        fill: #0a0a0a;
      }

      .st4 {
        fill: #f6f6f6;
      }

      .st5 {
        fill: #d8d8d8;
      }

      .st6 {
        fill: #060606;
      }

      .st7 {
        fill: #bebebe;
      }

      .st8 {
        fill: #0d0d0d;
      }

      .st9 {
        fill: #d4d4d4;
      }

      .st10 {
        fill: #050505;
      }

      .st11 {
        fill: #b3b3b3;
      }

      .st12 {
        fill: #3d3d3d;
      }

      .st13 {
        fill: #cacaca;
      }

      .st14 {
        fill: #565656;
      }

      .st15 {
        fill: #c5c5c5;
      }

      .st16 {
        fill: #f5f5f5;
      }

      .st17 {
        fill: #6b6b6b;
      }

      .st18 {
        fill: #222;
      }

      .st19 {
        fill: #cbcbcb;
      }

      .st20 {
        fill: #888;
      }

      .st21 {
        fill: #dcdcdc;
      }

      .st22 {
        fill: #313131;
      }

      .st23 {
        fill: #333;
      }

      .st24 {
        fill: #fdfdfd;
      }

      .st25 {
        fill: #e8e8e8;
      }
    </style>
  </defs>
  <path d="M2133.51,495.19c-3.03,8.48.31,19.12-8.62,28.13-2.88-19.48-12.41-12.18-15.66-10.82-6.52,2.73-11.49-9.23-12.94-12.6-15,12.13-32.41,4.66-52.22-22.4-14.6,8.73-20.39,24.66-17.35,47.79,14.6,13.9,13.63,30.62-2.89,50.17,9.06,13.63,6.57,28.45-6.75,36.38,6.7,37.23-.95,56.69-22.95,58.37l-16.62-7.93-14.74-178.81c-7.19-36.84-34.66-55.36-72.21-57.42-274.67-32.19-549.98-18.33-823.75,3.5-66.13,5.27-71.54,74.96-75.02,130.05l-15.92,14.58c-6.22,5.33-14.56.08-25.01-15.75-8.54-5.93-4.19-10.4,6.51-8.1,5.59-2.96,7.29-7.7,4.51-13.29-26.77-.53-15.33-27.33,5.86-34.67-4.15-5.42-8.46-12.67-12.92-21.74-16.36,6.34-21.04-43.25-5.01-31.88,9.37,6.64-22.62,36.09-36.21,21.04-3.58,45.76-47.99,32.14-24.17-15.93.49-19.3-5.42-36.8-12.9-54.17-5.09,21.43-21.39,12.92-15.2-5.54,28.03-78.55,76.46-143.73,139.48-200.44,238.16-214.31,607.81-235.79,878.14-70.56,137.01,83.74,230.98,213.15,254.55,372.03Z"/>
  <path class="st2" d="M2065.68,556.9c18.77-19.33,33.02-10.71,34.28,17.54l-.21,173.24c-12.17,12.41-25.48,18.55-39.95,18.41-10-1.49-17.58-10.97-15.48-20.24l4.75-20.98c-12.67-6.53-14.02-13.34-3.87-22.25-9.25-5.11-21.9-10.15-37.97-15.11-3.5-4.4-15.74-10.94-13.1-17.3,12.09-17.18,5.42-39.53,8.11-62.81.7-6.11,17.27-15.24,13.42-18.4-3.35-2.75-12.93-9.75-15.18-15.73,13.28-11.48,27.27-28.95,26.25-47.98l8.07-4.41,30.88,36.01Z"/>
  <path class="st0" d="M2096.3,499.91c4.99,7.21-.64,18.22-7.59,19.01,1.87,15.49-5.81,28.16-23.02,37.99l-38.95-31.61-25.95-26.4c8.9-4.93,14.99-14.11,11.45-23.57,15.8-1.97,26.34-8.9,32.39-32.75,8.19,24.81,29.76,45.75,51.68,57.33Z"/>
  <path class="st22" d="M967.74,502.39c-4.82,22.34-10.86,22.85-18.13,1.55l-3.72-5.73-59.95,51.27-5.93-6.66c-5.43-1.72-5.06-5.98-3.17-7.59,3.04-2.59,8.26-7.74,10.78-8.52-2.81-11.92,3.32-23.03,18.39-33.33-8.36-7.37-5.82-15.23,7.6-23.57l33.74-32.09c5.69,11.86,8.49,16.79,23.37,20.97l-17.2,17.5c10.19,4.91,18.11,18.34,14.22,26.2Z"/>
  <path class="st23" d="M967.74,502.39c-14.76,29.82,8.27,41.9-10.37,47.96l-3.21-7.31c-7.59,32.19-19.55,40.21-35.88,24.08l-9.38-2.26c-14.93,24.3-30.08,35.83-45.44,34.57,2.36-3.54,1.91-13.79-3.08-19.13,22.98-28.89,58.02-64.12,89.22-76.35,6.5.85,13.25-.36,18.13-1.55Z"/>
  <path class="st15" d="M918.28,567.11c10.59,16.28-7.35,36.79-24.26,30.63l-22.72,24.78c-9.09-.73-19.96-4.92-15.54-11.55l7.7-11.55,48.98-49.36c5-.91,9.94,10.81,5.84,17.05Z"/>
  <path class="st11" d="M949.61,503.94l-89.22,76.35,19.62-37.47c6.24-.58,14.46-2.94,21.29-9.71l50.92-50.49c10.6,10,1.56,16.66-2.61,21.32Z"/>
  <g>
    <path class="st6" d="M889.44,453.88c-6.55,17.42-5.67,35.97,2.63,55.67l-4.45,17.16c.71,5.68-1.83,11.05-7.6,16.11,3.71,9.73-2.83,22.22-19.62,37.47,15.26-4.73,16.29,1.65,3.08,19.13,5.74,6.28,8.36,13.98,7.83,23.1,13.21,14.38,11.58,35.93-4.92,64.65,5.97.63,11.01,1.8,12.81,4.87,4.87,8.3,17.16,167.31,18.65,189.15.3,4.4-5.12,8.02-9.56,10.62,7.27,17.88,11.84,36.84,13.73,56.89,19.4,44.41,29.39,92.89,29.94,145.46,13.77,116.09,39.63,229.9,66.57,343.5,35.29,148.82,150.99,268.57,280.97,342.76,152.87,87.26,294.29,78,440.89-19.64,163.8-109.1,233.78-217.77,270.11-408.03,25.13-131.63,44.17-263.95,58.67-397.22,9.39-28,23.59-51.49,41.79-72.59-16.17-12.37-19.95-35.92-11.35-70.65-4.07-33.28,2.64-54.82,20.15-64.61l-15.89-22.23c-3.7-13.92-.14-140.09,5.48-145.85,2.59-2.65,6.42-4.08,10.62-5.17-9.9-10.34-14.85-15.51-14.85-15.51,1.35-14.15,2.54-27.48,3.59-40.01-8.77-9.01-4.25-15.16,7.59-19.01,22.31-7.69,29.58-9.65,30.89,16.24.1,1.9-27.19-16.54,6.32-20.97,19.96,134.55,11.26,267.26-8.78,409.83,55.77-5.7,99.71,30.3,113.02,87.48,34.06,146.35-44.21,363.15-193.18,386.75-19.36,62.67-24.69,139.64-63.29,192.43l-84.79,115.96c149.81,23.84,321.84,59.16,439.88,142.73,64.29,45.52,84.13,119.84,64.05,195.2,94.01,44.94,144.58,141.32,111.59,237.31,306.56,127.29,403.94,390.78,418.28,705.56.5,11.08-13.09,13.94-19.06,14.17-6.77.26-18.35-1.88-19.27-13.92-25.8-338.9-110.81-556.31-438.23-689.98-208.31,109.7-425.97,187.95-660.01,236.97l.86,429.48c.02,12.38-6.11,21.12-12.83,23.62-9.4,3.5-22.3-1.75-22.28-15.43l.88-540.72c.01-8.44,2.47-16-1-19.37-3.01-2.92-20.06-.57-20.07,5.03l-1.08,546.77c-.03,15.62-5.99,23.62-19.4,23.31-6.01-.14-16.38-6.24-16.35-18.22l.87-417.07-115.56,23.17c-10.07,2.02-20.55-5.54-21.89-12.16-.84-4.15,4.93-12.54,11.75-14.37l125.22-33.59c8.24-28.95,2.49-56.24-1.77-84.66-5.07-33.84,21.83-55.33,49.99-55.91,24.49-.5,55.34,16.7,51.06,48.52-3.14,23.33-17.58,46.12-6.37,73.62,221.34-49.17,430.96-124.53,631.46-228.01,15.41-7.95,33.13-4.22,48.6-5.02,34.23-84.62-60.74-184.17-99.15-179.36-8.78,1.1-17.85,2.3-22.64-.84-3.31-2.16-10.82-11.01-7.24-16.42,43.72-66.08,24.09-148.65-44.45-193.13-75.01-48.68-160.72-80.58-249.91-97.71l-155-29.77-.53,168.29c62.04,14.72,119.14,34.6,151.04,87.52,18.99-25.78,6.06-45.42-4.49-61.66-.26-6.13,12.47-14.04,17-10.24l15.6,13.11c55.95,47.02-29.06,139.82-104.82,195.3l-234.26,171.56c-97.27,71.23-194,136-281.17,219.77-8.03,7.71-16.29,8.31-22.64,3.78-16.71-11.93,1.15-28.54,24.3-57.26l-384.55-278.05c-84.02-60.75-226.51-164.21-195.37-233.73,6.76-15.09,20.97-38.71,47.95-31.01-14.6,26.4-22.89,48.21-6.6,71.95,36.48-57.61,95.5-78.17,158.47-91.95l-.12-167.17c-140.99,21.2-277.84,53.09-400.05,122.78-80.16,45.72-103.78,127.67-54.67,214.1-42.16-3.74-61.23,7.94-84.18,30.33-43.13,42.06-65.83,99.17-39.73,157.31,15.7-8.05,33.47-12.33,50.34-3.01,195.82,108.29,403.7,181.03,623.49,226.11,12.77-23.27,1.49-42.82-3.58-63.73-7.96-32.82,21.46-56.1,48.54-56.04,24.37.06,52.25,17.92,49.09,48.94-3.08,30.3-11.81,60.18-.92,90.86l72.32,15.66c8.71,1.89,17.33,10.65,16.44,16.66-1.14,7.75-11.52,12.88-21.46,11.73l-70.4-8.12-.19,421.31c0,11.77-14.17,18.39-20.38,16.16-8.53-3.07-12.32-11.17-12.32-23.7l.04-540.54c0-10.9-11.47-14.73-19.32-9.46-7.34,4.94-1.45,12.82-1.34,20.23l2.67,172.18.61,230.58-2.13,132.26c-.19,11.6-9.78,18.83-16.49,19.1-7.3.3-19.24-4.94-19.27-17.14l-.96-439.23c-231.24-43.19-441.94-119.93-645.4-230.53-322.36,114.88-414.93,367.35-440,692.07-.73,9.4-17.82,10.43-23.6,8.57-6.15-1.98-17.04-9.07-15.82-21.72,29.96-311.38,106.4-559.02,410.64-694.1-34.39-98.88,12.51-196.36,106.75-241.1-19.04-63.47-6.18-119.2,33.9-164.77,106.66-105.53,313.25-144.84,474.76-172.72-85.84-87.88-128.94-192.19-146.4-310.91-42.35-2-72.9-16.74-100.85-44.81-82.83-89.1-122.34-215.79-99.85-336.1,11.04-59.03,58.28-98.75,117.58-91.76-24.34-174.16-42.29-346.9,16.27-510.98,3.84,1.28,7.27,2.86,9.24,5.52,4.68,6.33-6.72,1.99-1.42-2.96,22.77-21.25,52.89,49.05,20.28,57.15Z"/>
    <g>
      <path class="st24" d="M1131,2173.21l-104.62-78.16c17.39-21.78,39.03-25.17,62.82-29.35,16.7-29.99,23.21-62.27,24.02-95.8l5.74-237.59c159.88,138.7,301.33,198.73,509.68,141.64,84.27-34.9,153.71-83.16,225.13-148.92l2.45,185.91c.68,52,5.88,102.23,27.58,148.73,20.74,10.88,40.51,15.01,58.38,34.25l-131.08,96.98-323.22,238.51-356.88-256.19Z"/>
      <path class="st16" d="M2128.69,1174.37c26.08-77.89-48.26-66.99-1.04-127.14,9.7-12.36,28.1-8.23,41.85-8.45,11.22-5.79,4.96-20.79.28-24.72-8.09-6.81-19.05-13.36-32.38-9.25-21.63,6.66-30.92,24.97-47.23,40.64.08-29.69,1.89-53.36,8.97-80.43,4.04-15.43,28.4-23.14,41.02-23.05,94.26.68,85.67,234.9-16.58,350.46-7.07-15.37-14.85-26.77-23.12-28.22-12.69-2.22-23.12,2.35-34.53,11.61-3.85-21.14-1.09-35.01,4.52-52.14,28.96-7.44,50.52-26.24,58.25-49.32Z"/>
      <path class="st4" d="M896.71,1233.39c1.51,12.49.8,23.29-2.14,32.4-20.3-2.34-35.06,7.68-42.54,34.88-99.94-103.99-130.22-343.43-27.59-358.57,19.52-2.88,37.79,12.97,51.98,23l-4.81,73.17c-15.55-14.62-22.33-27.87-41.81-33.13-16.66-4.5-39.65,5.78-34.21,29.37,22.96-4.92,64.03,15.74,61.12,45.95-1.98,20.48-32.37,41.3-23.98,70.32,20.28,70.1,61.56,71.24,63.97,82.61Z"/>
      <path class="st13" d="M916.76,608.54l6.38,9.8-42.79,64.5,6.53,2.28c10.42-10.17,14.36-11.57,11.82-4.22,13.15-21.49,27.5-41.23,45.04-59.86.9-.96,4.43.56,8.7,2.78l12.21-1.14c.34,25.7-9.38,52.07-29.18,79.1,6.3,27.62-21.13,53.28-30.8,77.94,17.59,20.3,17.36,70.31-.66,87.08,10.4,1.74,15.87,10.49,13.17,13.78-3.23,3.94-14.01,7.49-26.4,8.13,9.49,8.26,25.1,20.61,21.47,30.9l-10.25,29.08c-2.2.29-7.8.36-10.07-1.44-2.98-2.36-6.05-7.12-6.46-13.23l-4.39-64.56c-12.66-73.54-27.63-227.5-9.8-246.94-10.88-12.08,9.36-33.38,22.72-24.78,14.09-18.66,25.97-11.61,22.74,10.79Z"/>
      <path class="st9" d="M2099.76,747.68l-8.8,135.27c-14.08-1.4-22.47,10.71-27.46,24.57-4.51,2.12-12.79-6.43-12-10.47.71-3.63,11.06-11.72,10.9-15.55l-2.11-52.39c-.99-24.57-13.16-40.02-.48-63.01l19.8-35.9,20.15,17.49Z"/>
      <path class="st14" d="M913.61,469.81c-.58,2-.52,7.95.78,9.69,1.83,2.44,6.72,4.49,19.41.97-9.73,17.31-26.04,39.95-46.19,46.24-24.39-16.26-12.99-51.44,1.82-72.83-.17,6.78,2.4,13.07-3.8,30.98l27.97-15.05Z"/>
      <path class="st21" d="M894.58,1265.79c-2.27-10.75-1.5-22.18,2.14-32.4l21.48,101.5c-24.6.1-39.1-9.99-49.12-25.75,22.88-11.02,29.07-26.46,25.5-43.35Z"/>
      <path class="st19" d="M2073.66,1193.69l11.31-82.21c22.07,11.91,21.51,28.35,18.27,45.26-2.49,13.01-11.66,28.71-29.58,36.95Z"/>
      <path class="st20" d="M2088.7,518.92c19.6,17.04,11.28,36.93,11.26,55.52-6.9-15.67-24.57-9.66-34.28-17.54-1.49-15.28-17.95-21.56-26.09-43.99l43.01,27.54c-5.75-10.51-7.88-18.66-5.06-20.86,2.54-1.98,8.85-.41,11.16-.68Z"/>
      <path class="st25" d="M891.82,1188.33c-16.64-2.08-23.83-17.2-26.64-31.28-3.19-15.96-3.65-32.43,13.47-43.61l13.17,74.89Z"/>
      <path class="st5" d="M2097.42,1318.4c-11.14,7.15-22.23,12.35-44.76,14.4l8.95-60.37c7.2,23.09,5.64,35.56,35.8,45.97Z"/>
    </g>
  </g>
  <path class="st7" d="M957.38,550.34c-2.99.97-5.69,5.07-6.51,8.1,8.57,9.39,8.98,22.78.21,31.91-4.42,9.84-23.49,22.29-34.32,18.19l-22.74-10.79c7.39-8.06,15.16-24.41,24.26-30.63,9.83-6.72,23.97-11.31,31.13-29.75,11.01-6.91,16.7,5.4,7.96,12.98Z"/>
  <g>
    <path class="st24" d="M1994.14,670.22c19.38-3.67,20.6-2.13,13.1,17.3,21.83-7.82,42.5,15.09,41.85,37.36l10.32,2.48c-.84,12.21-.7,25.12.41,38.74,14.57,28.92,20.28,62.41,17.14,100.47l14.02,16.38c-1.96,30.18-18.77,53.29-26.31,75.86-19.69,166.32-38.72,328-79.8,489.52-14.81,58.24-36.94,110.58-75.04,157.22-74.61,91.33-162.72,170.52-273.01,219.5-98.3,43.65-219.09,39.97-316.08-5.17-138.07-64.26-292.11-203.14-331.34-353.84-44.54-171.11-76.77-346.17-87.37-517.34-8.31-5.25-9.5-15.88-3.57-31.89-11.96-24.42-10.84-54.67,3.37-90.74-16.67-49.79-2.69-88.85,33.68-124.28,13.52-22.88,24.12-45.76,31.8-68.67-5.56-27.54-2.69-47.18,8.6-58.93-.77-37.05,4.28-76.67,19.67-114.48,12.98-31.88,46.27-43.95,81.73-47.61,271.44-28.05,543.76-28.09,814.96-1.86,48.34,4.68,83.29,30.3,86.82,76.08l15.08,183.89Z"/>
    <g>
      <path class="st12" d="M975.88,574.19l1.84,88.71-42.24,38.88c-11.04-48.43,37.98-55.9,16.96-77.95-7.83-3.58-5.67-12.78,6.47-27.59-9.48,7-13.41,4.6-7.83-5.89-12.32-12.15-12.42-19.8-.21-31.91,10.96-.19,19.63,6.55,25.01,15.75Z"/>
      <path class="st1" d="M1346.24,839.12c-10.75,54.4-137.42-29.4-302.56,27.27-9.6,3.29-19.99.74-23.9-7.54-12.86-27.21,49.4-88.65,138.02-86.72,88.7,1.93,200.25,7.3,188.45,67Z"/>
      <path class="st1" d="M1914.67,866.98c-156.45-57.39-279.27,22.21-299.59-21.36-26.82-57.5,92.9-72.55,187.35-73.6,97.07-1.08,153.49,66.49,132.52,89.16-3.34,3.6-11.43,9.04-20.27,5.8Z"/>
      <path class="st10" d="M1801.72,1046.66c-10.32,20.73-27.77,28.68-43.26,29.7-21.04,1.38-37.32-8.56-47.8-29.07-13.83-27.07-11.02-52.12-2.81-83.93-18.84,7.08-27.92,22.37-51.53,21.55,23.13-47.62,80.08-69.61,133.23-55.32,34.59,9.3,68.94,24.54,86.84,59.69l-73.92-26.14c11.87,28.07,13,55.93-.73,83.52Z"/>
      <path class="st10" d="M1255.73,1041.77c-10.9,26.04-31.52,36.78-53.91,34.96-20.89-1.69-38.02-16.74-45.25-40.51-7.72-25.4-6.5-45.75,5.09-75.53l-73.76,28.44c11.86-28.91,41-44.35,70.83-55.74,53.24-20.33,112.95-4.1,145.81,45.57-19.78,10-29.08-4.73-43.72-15.7-.73,28.89,6.22,51.49-5.09,78.52Z"/>
      <path class="st3" d="M1649.7,1496.34c-110.69,25.09-221.03,23.5-331.95.31-11.55-2.41-14.72-10.36-13.85-17.88,1.06-9.16,8.51-13.32,19.62-11.56,107.91,17.06,213.63,19.95,321.34-.41,11.15-2.11,18.74,2.24,20.14,11.58,1.16,7.74-3.79,15.36-15.29,17.97Z"/>
      <path class="st8" d="M1574.52,1305.4c-78.4,36.53-102.93,38.61-171.98,3.13-25.12-12.91-26.24-44.4-15.15-66.57,34.81-69.58,32.84-141.44,48.38-221.47,34.04,93.28-37.76,225.42-20.01,253.74,4.5,7.18,18.89,10.1,28.48,15.2,68.22,36.3,109.57-34.62,130.27,15.96Z"/>
      <path class="st18" d="M1536.64,1580.5c35.5-1.93-42.06,59.59-113.8,6.18l113.8-6.18Z"/>
      <path class="st13" d="M2049.08,724.88c-17.1-5.91-32.39-25.48-41.85-37.36,14.71-2.73,25.84-10.53,37.06-17.96l18.3,30.32c4.01,6.65-11.84,17.6-13.51,25Z"/>
    </g>
  </g>
  <path class="st21" d="M952.44,623.83c-40.7,37.52-42.97,85.51-65.57,61.3,8.35-29.63,36.02-86.64,72.04-88.89.31,9.45-3.55,18.92-6.47,27.59Z"/>
  <path class="st17" d="M951.08,590.35c3.3.8,7.7,1.7,7.83,5.89-29.13,25.23-55.99,53.73-72.04,88.89-2.77,6.97-15.57,8.72-17.9,1.26,22.79-26.59,38.59-49.85,47.78-77.85,3.99-12.16,22.92-20.94,34.32-18.19Z"/>
</svg>