<?xml version="1.0" encoding="UTF-8"?>
<svg id="Layer_1" xmlns="http://www.w3.org/2000/svg" version="1.1" viewBox="0 0 2995.13 2990.91">
  <!-- Generator: Adobe Illustrator 30.3.0, SVG Export Plug-In . SVG Version: 2.1.3 Build 182)  -->
  <defs>
    <style>
      .st0 {
        fill: #0f0f0f;
      }

      .st1 {
        fill: #070707;
      }

      .st2 {
        fill: #474747;
      }

      .st3 {
        fill: #adadad;
      }

      .st4 {
        fill: #595959;
      }

      .st5 {
        fill: #a7a7a7;
      }

      .st6 {
        fill: #8e8e8e;
      }

      .st7 {
        fill: #7a7a7a;
      }

      .st8 {
        fill: #111;
      }

      .st9 {
        fill: #8a8a8a;
      }

      .st10 {
        fill: #bbb;
      }

      .st11 {
        fill: #979797;
      }

      .st12 {
        fill: #ccc;
      }

      .st13 {
        fill: #c4c4c4;
      }

      .st14 {
        fill: #696969;
      }

      .st15 {
        fill: #060606;
      }

      .st16 {
        fill: #797979;
      }

      .st17 {
        fill: #b3b3b3;
      }

      .st18 {
        fill: #212121;
      }

      .st19 {
        fill: #b7b7b7;
      }

      .st20 {
        fill: #0b0b0b;
      }

      .st21 {
        fill: #646464;
      }

      .st22 {
        fill: silver;
      }

      .st23 {
        fill: #e9e9e9;
      }

      .st24 {
        fill: #b8b8b8;
      }

      .st25 {
        fill: #f7f7f7;
      }

      .st26 {
        fill: #1f1f1f;
      }

      .st27 {
        fill: #747474;
      }

      .st28 {
        fill: #f0f0f0;
      }

      .st29 {
        fill: #222;
      }

      .st30 {
        fill: #949494;
      }

      .st31 {
        fill: #b9b9b9;
      }

      .st32 {
        fill: #ededed;
      }

      .st33 {
        fill: #ececec;
      }

      .st34 {
        fill: #bfbfbf;
      }

      .st35 {
        fill: #fdfdfd;
      }

      .st36 {
        fill: #090909;
      }
    </style>
  </defs>
  <path class="st36" d="M2558.09,2140.07c-2.38-9.03,4.28-16.64-4.31-32.44l-12.06,30.96c-14.68-6.9-11.62-18.07-17.99-25.58l-12.33-18.4c12.4-74.09-6.75-147.47-41.55-212.95-5.12-21.08,11-46.61,28.4-55.7,71.69,88.79,98.41,206.13,59.85,314.13Z"/>
  <g>
    <path d="M2498.24,1825.94c6.9,17.05-14.18,45.6-28.4,55.7,40.28,71.82,55.43,156.24,37.19,236.78l16.7-5.43c21.08-10.8,33.98-12.67,38.69-5.63l-4.33,32.7-26.77,55.68c-10.93,22.73,3.46,54.28,11.18,79.06,139.92,66.99,241.15,183.29,292,330.67,42.57,123.38,67.27,252.89,66.46,383.53l-2806.79-.22c12.24-307.49,100.22-604.53,399.23-726.22-47.16-35.95-30.21-91.62-31.24-130.93-44.79-88.5-65.7-185.66-24.4-280.47,17.63-40.47,39.21-82.29,68.94-116.57,79.77-92,106.71-213.43,67.66-330.58-50.3-150.87-19.32-299.6,59.25-436.62,48.02-83.75,71.16-169.38,84.81-265.51,25.39-178.86,89.82-346.37,210.56-480.17,140.54-155.74,373.41-259.77,562.16-163.72,77.86-42.04,165.15-45.87,253.37-23.5,268.95,68.2,429.17,309.05,475.06,579.39,19.31,113.76,63.78,208.35,119.36,307.27,67.22,119.66,86.45,253.5,56.84,385.3-9.23,41.07-4.09,76.98,13.05,114.3,43.76,95.3,43.51,198.53-.77,293.45l90.19,111.71Z"/>
    <g>
      <path class="st25" d="M892.09,1147.37c-14.88,29.27-26.62,52.27-16.05,82.37,8.74,24.9,27.73,46.63,59.45,56.17l24.32,94.73c-26.17,12.56-40.46,5.63-58.07-9.61-77.69-67.26-123.12-176.19-105.71-278.7,6.42-37.81,47.25-65.33,77.84-53.86,12.24,23.9,18.58,43.27,23.61,65.92-20.45-13.2-32.16-20.17-46.51-17.24-13.65,2.79-27.64,23.05-17.3,34.85l29.99-4.41c7.22-1.06,24.58,17.48,28.41,29.79Z"/>
      <path class="st25" d="M2036.26,1291.48c19.52-20.77,47.64-27.43,55.23-53.99,8.61-30.14,6.31-58.41-13.82-83.64-.85-11.23,14.29-26.7,21.61-32.99,9.32-8.02,27.84-1.59,38.79,2.7,7.3-21.95-4.58-31.84-14.86-35.45-9.07-3.18-21.21-.2-37.76,7.49-3-12.43-.66-44.08,16.03-54.28,25.72-15.71,61.19,13.97,67.78,44.93,24.11,113.18-25.79,233.19-120.12,299.46-10.53,3.01-24.7-1.9-36.11-8.6,8.62-21.14,3.47-64.62,23.22-85.64Z"/>
      <path class="st28" d="M527.79,1833.02c-68.32,133.25,1.85,230.93-42.3,251.5-43.45-92.49-32.52-198.69,27.76-281.08l64-87.48,7.86,5.25-57.32,111.8Z"/>
      <path class="st32" d="M2393.17,1687.42c-31.22-33.13-43.04-80.55-36.28-124.58l18.65-121.43c40.04,76.84,42.61,159.17,17.64,246.01Z"/>
      <path class="st23" d="M2523.72,2113c-2.6,12.04-6.42,24.51-16.64,39.57-6.66-6.77-18.01-26.41-15.06-39.44,18.96-83.67-4.07-156.92-22.18-231.48,57.15,62.61,71.53,149.52,53.89,231.35Z"/>
      <path class="st10" d="M712.85,1981.44c-9.38.94-12.35-7.29-8.9-24.7,8.49-35.82,28.34-72.18,52.9-103.64,73.38-94.01,70.03-201.14,29.38-312.65,75.64,99.29,50.13,230.36-20.32,321.22-28.47,36.72-46.34,76.71-53.06,119.78Z"/>
      <path class="st19" d="M2169.59,1592.23c-27.03,69.7,6.31,174.34,58.64,235.31,44.4,51.73,78.19,112.79,78.52,183.7l-8.02,47.08c-10.33,6.49-12.62-1.24-6.87-23.2,7.85-79.41-29.87-151.06-81.62-212.91-44.55-53.24-65.85-115.22-58.7-183.54l6.59-62.94c9.45-9.63,13.28-4.13,11.47,16.5Z"/>
      <path class="st33" d="M555.05,2225.75c-.03,10.33-27,23.75-37.35,21.01-36.43-39.01-36.77-102.24,1.43-146.34,17.01,41.79,36.08,77.79,35.92,125.33Z"/>
      <path class="st13" d="M1041.65,493.51l-77.62,192.4c-2.27,2.13-6.94,5.74-13.78,3.42l60.98-160.17c38.11-100.09,110-195.67,220.97-227.89-79.64,44.14-144.56,102.87-190.55,192.23Z"/>
      <path class="st3" d="M2250.44,2253.65c-1.82-16.75,2.04-22.3,11.58-16.64,3.08,45.6,35.85,76.98,65,111.8,57.02,68.1,65.5,174.55-11.76,225.5,112.98-173.19-44.54-232.98-64.82-320.66Z"/>
      <path class="st5" d="M936.33,2119.99c-33.54-37.94-22.69-101.1,3.2-146.94,38.62-68.39,54.93-137.9,56.65-218.99,16.85,73.81-.27,147.15-38.85,213.55-29.71,44.85-31.4,92.27-21.01,152.38Z"/>
      <path class="st17" d="M1981.73,1739.37c-15.87,139.39,76.67,191.58,95.05,279.91,2.63,17.15-.51,25.24-9.41,24.29-18.76-120.76-134.42-181.49-93.31-334.82,10.45-3.21,13,7,7.67,30.62Z"/>
      <path class="st31" d="M2006.85,636.2c4.5,16.61,1.5,21.39-9.03,14.36-29.8-95.99-80.61-236.04-156.22-287.94-7.63-12.24-2.8-14.31,9.56-6.76,98.47,75.51,119.55,196.61,155.69,280.35Z"/>
      <path class="st22" d="M2355.27,1238.26c-20.15-65.27-31.26-124.57-37.15-191.57,34.16,58.56,47.19,123.38,37.15,191.57Z"/>
      <path class="st6" d="M2298.73,2058.32l-34.48,103.75c-8.21,24.71-3.73,52.84-2.23,74.94-6.87,3.05-9.36,9.47-11.58,16.64-10.9-47.14-7.26-95.29,17.35-141.97l24.07-76.56c-.85,8.56-.56,19.05,6.87,23.2Z"/>
      <path class="st34" d="M1500.47,425.35c-4.47-4.3-15.6-11.2-15.43-17.76.69-27.53-1.16-51.76-28.82-77.81,9.31-5.67,16.2-.79,24.79,11.17l4.27-95.66c12.82,16.3,16.59,33.29,11.02,56.15l5.76,53.37c2.63,24.33-10.48,47.78-1.6,70.55Z"/>
      <path class="st30" d="M2067.37,2043.57c1.17-6.25,11.23-15.05,9.41-24.29,6.15,29.57,11.46,70.67-.42,103.08l-41.58,113.43c-9.5-60.57,44.56-106.45,32.59-192.23Z"/>
      <path class="st23" d="M619.5,1328.36c3.74,13.12,3.44,31.31-4.04,46.71-18.56-59.48-32.36-126.9,1.49-190.04-1.72,49.79-11.63,93.59,2.55,143.33Z"/>
      <path class="st11" d="M2120.78,2587.85c20.93-62.48,22.05-113.37-8.42-173.69,47.83,44.67,58.65,123.89,8.42,173.69Z"/>
      <path class="st4" d="M775.27,1519.57c-12.17-44.36-14.17-88.45,4.96-131.42,2.87,41.85,11.59,81.62-4.96,131.42Z"/>
      <path class="st7" d="M2169.59,1592.23c-1.15-6.75-3.65-13.17-11.47-16.5,3.9-37.23,18.46-73.6,18.03-116.73,21.56,9.25,14.28,25.19,10.97,42.33l-17.54,90.89Z"/>
      <path class="st24" d="M930.5,1256.07c-29.76-14.28-41.22-49.28-18.3-77.9,13.74,25.46,12.58,50.82,18.3,77.9Z"/>
      <path class="st12" d="M2037.29,1254.78c6.31-31.47,5.38-55.42,16.53-75.78,18.07,10.97,17.31,32.87,11.96,46.57-4.49,11.5-13.61,24.74-28.49,29.22Z"/>
      <path class="st9" d="M712.85,1981.44c.54,26.98,4.16,64.22-2.98,93.36-18.72-39.12-15.8-82.38-5.92-118.07-1.74,9.23,7.03,18.31,8.9,24.7Z"/>
      <path class="st21" d="M2043.35,961.94c4.77.56,7.96-3.32,7.19-8.09l92.73,32.63c-39.64,12.94-71.04-10.97-99.92-24.54Z"/>
      <path class="st6" d="M969.97,937.51c-4.58,6.01-8.91,13.26-15.11,17.33-26.64,17.52-56.9,37.08-94.55,27.27,24.56-10.53,53.57-12.87,74.69-31.89l34.97-12.72Z"/>
      <path class="st14" d="M1981.73,1739.37c1.17-10.27,1.24-24.68-7.67-30.62,7.19-26.82,7.63-55.33,30.39-78.83l-22.72,109.46Z"/>
      <path class="st27" d="M1997.82,650.56c4.81-2.44,7.31-8.87,9.03-14.36l37.87,87.74-6.61,5.29-40.28-78.67Z"/>
      <path class="st2" d="M1357.88,290.21c-26.73,3.91-53.65,10.85-78.8-8.23,26.53-8.38,52.53-9.17,78.8,8.23Z"/>
      <path class="st16" d="M1851.16,355.85l-9.56,6.76-63.55-43.62c32.21-2.26,51.53,20.31,73.11,36.86Z"/>
      <g>
        <path class="st35" d="M1500.47,425.35c14.11,13.58,39.6,5.79,61.33,6.69,101.34,4.21,177.96,76.85,209.45,172.82,35.42,107.95,86.04,202.12,172.92,277.54,33.87,29.41,65.38,57.02,106.37,71.44,12.15,11.25,7.9,14.58-7.19,8.09-5.48-3.93-13.03-10.34-24.83-8.42l-1.66,193.07-63.13,292.6c-30.45,103.37-92.93,185.07-168.19,259.96l-31.12,30.97-5.84,22.81c-186.01,150.56-353.7,138.28-534.39-4.94l-.48-18.98c-93.4-75.41-169.5-170.84-197.68-291.61l-60.15-257.86-1.04-224.68c-2.27-5.57,2.77-11.34,15.11-17.33,103.09-61.43,174.03-165.67,213.7-282.27,20.5-60.25,41.72-116.59,88.88-161.64,102.93-98.32,199.29-30.99,212.48-86.02,6.15-.25,11.3,5.67,15.43,17.76Z"/>
        <g>
          <path class="st15" d="M1272.87,1029.7c3.81,52.1.41,95.47-38.51,107.54-15.8,4.9-35.03,2.44-47.26-11.04-23.42-25.82-27.09-60.51-12.44-99.22l-84.63,29.1c26.87-49.79,84.21-67.92,136.56-64.51,38.29,2.5,68.23,23.36,88.93,58.45-18.86,7.11-26.56-6.53-42.66-20.33Z"/>
          <path class="st36" d="M1351.33,895.99c-.85,53.56-127.25-28.86-288.17,27.75-7.74,2.72-16.28-2.61-19.49-7.52-10.95-16.71,46.64-64.32,120.78-71.64,79.78-7.88,187.66,2.49,186.88,51.41Z"/>
          <path class="st15" d="M1781.99,1128.39c-11.62,11.14-27.87,14.3-43.3,10.18-36.02-9.61-46.17-55.42-36-108.14-19.1,9.03-28.64,24.34-51.25,22.15,32.05-64.58,111.84-78.46,174.35-43.99,20.09,11.08,42.4,20.64,47.27,47.72l-69.58-27.87c5.18,36.38,6.72,72.88-21.49,99.94Z"/>
          <path class="st1" d="M1923.61,928.7c-94.08-32.25-179.18-31.71-268.71-11.47-14.18,3.21-31.91-3.9-35.59-15.14-15.82-48.41,153.03-89.22,261.17-35.4,24.75,12.32,52.68,27.5,43.13,62.02Z"/>
          <path class="st20" d="M1606.76,1503.96c11.71,1.24,39.09-22.05,49.55,8.5-102.58,52.44-224.46,52.77-330.78,4.1-9.37-40.2,34.74-2.9,81.99-16.13l76.11,4.04c42.18,2.24,71.59-5.98,123.13-.5Z"/>
          <path class="st0" d="M1553.97,1343.19c-25.22,33.55-73.95,32.93-109.86,16.78-75.55-33.99-10-87.1-1.3-235.25.81-13.76,5.05-26.09,15.31-31.08,11.21,73.7-17.85,138.98-20.89,212.82-1.3,31.46,68.2,42.59,88.57,26.06,12.47-10.12,32.36,5.08,28.16,10.66Z"/>
          <path class="st29" d="M1534.02,1600.64c-20.07,31.37-66.79,33.78-93.85,2.37,33.26,6.92,57.9,4.51,93.85-2.37Z"/>
        </g>
      </g>
      <g>
        <path class="st35" d="M1791.44,1982.43c12.42,57.46,18.44,86.28,63.5,115.61,4.31,7.38,10.57,22.24,10.09,30.07-1.65,26.64-26.74,39.32-2.29,6.43,2.14-2.89,6.41-4.2,11.28-5.06-2.33-5.93,6.76-12.32,12.17-9.94l131.88,58.09c-34.56,35.59-3.84,85.35-14.16,119.18-64.37,210.92-317.91,443.02-511.14,557.73-240.4-147.45-497.09-399.87-553.03-675.04,57.94-18.52,107.14-33.89,156.6-67.64,8.11,11.03,9.3,21.7,13.46,31.99l11.36,7.66c57.89,108.88,136.05,202.54,234.47,280.99l2.59,13.09c11.46,6.65,12.81.78,4.04-17.63-3.49,2.72-6.36,4.71-7.06,4.12-94.24-79.45-203.31-184.37-237.69-304.76-4.21-16.98,2.9-31.86,18.1-43.48,26.18-20.02,30.39-51.29,39.39-77.39,8.7-78.42,12.19-156.9,10.47-235.42,4.21-13.41,9.05-20.18,25.31-15.74,175.55,151.63,374.6,146.64,551.81,1.03l16.48,1.69,4.68,116.65,11.69,10.39c-4.07,32.54-5.39,65-3.97,97.38Z"/>
        <g>
          <path class="st20" d="M1754.44,1730.1c18.35,8.61,31.5,25.86,31.89,47.87l1.8,102.31c2.3.06,5.17-1.25,6.39-4.63l2.88-111.07c1.44,1.34,5.51,5.26,11.5,6.34-2.54,42.95,10.62,92.23-1.64,137.63-6.91,25.6-20.54,46.97-15.81,73.88-15.22-70.43-12.26-142.85-13.74-221.06-207.48,163.05-373.33,167.76-585.48-1.32l-3.82,150.47c-.91,35.82-3.06,65.87-13.42,95.93-8.17-18.23,4.09-37.49,4.08-56.95l-.09-180.75,34.78-39.75,98.33,65.24c78.19,51.87,173.59,66.3,263.87,37.87,68.47-21.56,122.16-64.04,178.5-102Z"/>
          <path class="st26" d="M1362.24,2427.95c10.72,13.89,9.37,19.76-4.04,17.63l-99.6-92.44c-64.53-59.89-116.89-130.27-148.81-209.31,6.65-2.54,9.1-10.88,7.7-16.52,35.04,71.77,76.22,141.6,137.31,199.25l107.45,101.4Z"/>
          <path class="st18" d="M1874.01,2129.48c-32.03,73.25-73.87,149.99-142.87,206.08l94.6-145.33c18.09-27.8,38.05-58.79,29.19-92.19,10.39,6.76,11.34,18.82,19.08,31.44Z"/>
          <path class="st35" d="M1765.84,2527.16c-11.17-1.41-31.95,15.24-49.16,2.34-24.41-18.31-40.54-68.05-40.13-68.98,3.7-8.29,22.6-29.99,32.58-18.42,4.07,8.41-4.56,29.67,6.2,40.77,8.64,8.92,17.7,22.85,41.24,16.36-3.8-25.59,4.03-48.61,23.92-71.19-14.63-8.01-25.83-16.71-29.71-27.59-7.23-20.26,3.34-30.8,15.93-40.33,17.76-13.44,29.98-.14,45.8,4.3,34.78,9.75,43.34,28.87,51.72,60.49,9.7,36.62-2.99,55.24-26.86,79.73-23.49,24.11-29.39,27.86-71.53,22.53Z"/>
          <path class="st35" d="M1295.32,2639.04c-21.53,14.03-43.09-21.05-55.61-30.21l-23.05-16.86c-8.78-6.42-4.13-62.12,38.75-70.76l32.24-43.26c7.55-10.13,16.77-11.65,29.23-12.05,8.54-.27,13.15,18.13,23.15,25.66,33.88,25.5,50.97,85.14,10.47,111.53l-55.17,35.94Z"/>
          <path class="st35" d="M1124.49,2463.26l-43.79-51.37c-5.61-6.59-6.44-16.75-5.92-23.05.73-8.81,8.26-16.12,19.92-19.52,26.35-7.68,8.42-39.34,23.71-66.04,5.34-9.32,26.91-23.58,34.49-13.72l62.22,80.97c-18.4,40.27-50.91,68.01-90.63,92.73Z"/>
          <path class="st35" d="M1683.1,2570.69c9.11,2.9,31.56,97.24-10.96,95.76-36.42-6.51-54.54-22.19-50.5-61.15-24.25-12.17-44.82-63.14-24.62-75.95,26.99-17.11,41.13,20.19,51.66,30.36l34.42,10.97Z"/>
          <path class="st35" d="M1901.53,2337.56c-9.29-33.77-28.22-48.12-56.76-60.49-7.1-17.52,17.46-38.89,37.86-44.91l66.39-19.58-7.66,62.92c-2.93,24.03-6.4,43.12-39.83,62.06Z"/>
          <path class="st35" d="M1554.67,2771.2c-15.15,16.32-31.74,13.77-43.77,3.2-27.8-24.45,16.45-52.48,19.73-92.84.98-11.99,11.24-25.67,19.44-26.72,11.75-1.5,23.57,1.89,40.17,14.2-27.81,25.38-6.01,70.32-35.58,102.17Z"/>
          <path class="st35" d="M1439,2749.88c-10.77,24.37-33.61,5.13-42.04-3.26-13.8-13.73-11.57-30.88-7.26-51.84,2.43-11.81-8.73-29.46-3.2-36.27,7.34-9.05,19.97-19.98,30.96-18.32,30.22,4.57,33.78,81.98,21.54,109.68Z"/>
          <path class="st35" d="M1055.19,2222.12c10.6,2.93,11.93,34.54,3.19,40.22-14.37,9.35-38.06,6.89-47.61-.56-13.17-10.26-23.2-28.43-8.47-54.27l52.89,14.61Z"/>
          <path class="st18" d="M1724.61,2338.01c-16.79,40.77-52.02,74.57-99.47,94.74,24.64-35.6,54.02-68.84,99.47-94.74Z"/>
          <g>
            <path class="st8" d="M1358.2,2445.58l4.04-17.63c26.04,24.58,64.09,47.28,101.44,60.56l58.17,2.61,96.7-56.97c-20,40.9-58.88,50.29-94.48,75.62,33.09,25.2,41.81,66.6,17.76,99.77-18.72,25.81-71.16,37.55-96.58,7.71-24.59-28.87-30.24-69.54,5.28-100.85-26.17-33.09-64.34-44.87-92.32-70.84Z"/>
            <circle class="st28" cx="1491.27" cy="2567.21" r="41.65"/>
          </g>
        </g>
      </g>
    </g>
  </g>
</svg>