<?xml version="1.0" encoding="UTF-8"?>
<svg id="Layer_1" data-name="Layer 1" xmlns="http://www.w3.org/2000/svg" viewBox="0 0 2847.67 2980.38">
  <defs>
    <style>
      .cls-1 {
        fill: #0f0f0f;
      }

      .cls-2 {
        fill: #070707;
      }

      .cls-3 {
        fill: #cecece;
      }

      .cls-4 {
        fill: #010101;
      }

      .cls-5 {
        fill: #030303;
      }

      .cls-6 {
        fill: #171717;
      }

      .cls-7 {
        fill: #e6e6e6;
      }

      .cls-8 {
        fill: #060606;
      }

      .cls-9 {
        fill: #0d0d0d;
      }

      .cls-10 {
        fill: #f9f9f9;
      }

      .cls-11 {
        fill: #242424;
      }

      .cls-12 {
        fill: #dedede;
      }

      .cls-13 {
        fill: #151515;
      }

      .cls-14 {
        fill: #080808;
      }

      .cls-15 {
        fill: #f8f8f8;
      }

      .cls-16 {
        fill: #333;
      }

      .cls-17 {
        fill: #fdfdfd;
      }
    </style>
  </defs>
  <path class="cls-2" d="M2114.72,1016.16c-.04,16.28,7.66,22.54,25.22,32.67,88.06,50.79,69.67,287.46-66.76,408.88-35.61,31.69-74.82,45.52-119.81,37.07-19.22,97.88-52.1,183.58-120.08,261.28,94.49,17.45,179.83,30.46,265.98,61.3,142.45,51,266.23,113.73,234.34,272.63,87.71,53.54,139.28,131.23,107.27,232.09,281.77,126.63,376.51,333.61,406.67,632.21,1.55,15.34-10.95,23.93-21.32,23.48-12.49-.55-18.49-7.97-19.72-23.53-23.75-299.25-137.54-503.16-424.47-613.63-203.24,104.7-413,181.23-639.42,225.67l1.34,385.03c.04,11.41-17.31,17.48-23.96,13.26-4.2-2.67-10.29-9.11-10.28-19.45l.69-475.47c.01-7.79,7.71-19.47.59-25.15-7.47-5.96-18.4-.49-22.45,6.88-2,3.65-.09,9.92,1.85,17.99l.4,475.91c.01,13.75-9.77,20.43-17.87,20.59-5.02.1-16.36-5.51-16.37-14.31l-.33-367.15-138.51,20.21c-7.04,1.03-10.8-19.29-5.74-22.51,2.92-1.86,6.61-4.77,13.99-6.57l129.64-31.65c7.13-30.19-.87-56.44-4.16-84.01-3.92-32.85,22.9-52.47,51.23-51.9,23.42.47,54.67,19.9,47.82,50.68-5.12,23.03-15.73,44.71-7.86,71.19,215.62-47.86,423.21-120.62,621.2-221.85,11.79-6.03,27.5-.16,37.62-1.02,34.52-75.71-35.73-184.83-126.23-181.62,40.95-71.72,30.45-142.86-27.73-189.47-100.12-80.21-284.15-119.32-421.19-142.21l-.37,170.29c62.02,10.67,114.11,37.8,154.47,82.25,18.41-22.02,7.14-43.44-5.91-65.77,40.16-2.85,56.83,43.01,45.17,77.12-15.99,46.75-51.26,78.44-89.7,106.7l-266.77,196.13-266.95,203.93c-13.31,10.17-19.03,13.29-29.57,3.5-9.55-8.87-4.45-20.6,4.08-28.88l23.57-22.87-151.82-108.64-279.71-196.23c-19.66-18.2-10.25-40.8,16.58-34.73l14.88-8.76,430.09,302.37c140.37-106.88,283.1-211.22,428.18-313.02-50.21-22.32-75.62-57.15-76.24-104.51l-6.29-210.19c-123.77,114.93-273.51,186.47-443.94,142.63-57.59-14.81-226-95.93-242.36-148.28-1.7-5.43-2.39-11.18-2.8-17.01-2.96-10.79-8.19-18.98-19.55-12.44-23.27-50.5,28.7-27.52,50.92-4.1,6.17-7.22,12.56-13.77,19.75-8.43,267.49,260.77,592.53,91.84,738.13-201.3,32.86-130.23,61.51-261.44,85.94-393.63l2.88-65.75,16.15-9.77c16.12-2.89,20.09,2.54,11.9,16.3-3.7,29.66-1.41,56.01,6.87,79.06-9.09,18.32-7.12,37.42,5.92,57.32,13.34,9.54,18.77-.47,16.28-30.02l7.08-9.83c-3.72-8.97-15.21-11.46-34.48-7.49-2.65-4.64-7.45-100.88-6.33-106.1,4.05-18.87,45.91-27.68,56.22-3.63l9.08,6.26c73.58-35.51,121.65,40.32,29.15,57.82l-21.61,21.96c49.31,55.18,15.75,138.52-52.42,159.43-6.03,7.11-18.69,72.3-10.71,74.44,56.1,15.02,133.07-160.49,142.03-207.66,9.34-49.2,10.15-152.89-60-147.46-4.62,13.88-13.37,19.73-26.24,17.54-37.77,35.93-60.1-25.93-20.45-49.42l30.5-3.54c5.02-39.26,49.29-93.13,56.85-33.11Z"/>
  <path class="cls-14" d="M1003.28,1760.73c-10.76,6.46-22.97,10.31-43.65,9.34,10.37,11.14,20.05,7.6,34.94,9.72l-26.89,11.45c14.24,6.35,20.62,2.96,27.74,3.3-137.58,26.78-379.74,72.67-447.77,187.22-25.88,43.58-14.83,92.73,9.26,143.05-89.97,2.8-160.73,106-125.79,185.27l42.75-4.67c196.5,104.39,402.81,177.76,619.5,223.41,7.91-24.42-2.11-45.65-6.61-69.83-6.27-33.69,28.18-55.31,57.64-51.2,24.51,3.42,49.22,27.91,42.24,57.68-6.32,26.95-10.59,51.9-2.98,80.23l80.2,20.22c10.12,2.55,14.19,8.46,15.05,15.75.48,4.03-3.01,12.71-10.15,11.94l-86.8-9.28-.51,368.55c-.01,8.75-14.02,15.8-19.61,14.63-6.63-1.39-14.23-9.69-14.23-21.29l.14-502.29c-12.55-4.12-21.72,2.96-24.43,7.09-2.33,3.55,1.68,11.37,3.34,18.31l.49,476.9c.01,13.82-9.99,21.39-19.7,21.21-6.67-.12-14.64-11.03-14.64-21.03l.28-379.64c-224.26-43.09-432.47-118.75-631.48-225.2-300.5,121.97-390.49,318.99-424.71,628.72-1.66,15.01-37.74,12.55-36.89-2.42,16.18-282.34,126.9-522.62,393.98-638.79-37.36-100.79,17.01-184.83,107.49-239.04-33.85-136.91,63.12-206.36,189.17-255.17,102.1-39.53,206.57-62.94,312.62-74.12Z"/>
  <path class="cls-17" d="M1080.86,1819.72c55.25,53.01,118.75,97.87,193.06,134.19,214.19,71.6,353.12.24,510.84-146.16l6.97,238.74c.59,20.26,2.67,54.94,20.67,65.52l71.37,41.96-298.9,214.11-162.03,122.82-143.19-105.27-300.3-209.15-25.12-26.52,53.14-29.05,26.21-3.61c31.49-4.34,33.3-211.22,30.73-307.71,8.13.75,13.09,5.32,16.55,10.13Z"/>
  <path class="cls-15" d="M2038.55,1119.9l9.27-17.68c6.9-13.16,10.51-27.94,19.98-31.66,11.56-4.53,32.1-3.44,44.47,5.05,72.99,50.06,48.15,234.07-51.98,339.07-25.97,27.23-54.95,46.37-94.1,41.12l22.37-102.63c34.34-8.34,60.99-32.82,68.29-55.31,11.98-35.07,4.8-63.26-16.07-88.95,2.26-29.11,37.67-49.43,63.99-46.76,9.68.98,8.81-25.07-.17-27.19-39.95-9.45-46,4.15-81.72,39.09l15.67-54.14Z"/>
  <path class="cls-17" d="M2053.32,818.18c-107.68-66.46-230.28-102.91-361.03-123.75l-3.21-112.41c-1.04-36.48,1.21-66.78-8.61-99.7l-19.28-7.93c-29.26-74.12-104.04-107.88-178.78-118.24-93.3-12.93-197.39,11.32-270.76,63.16l-35.84,53.26-9.91,33.59c-9.76-5.11-15.35,1.73-16.78,20.52-20.3,26.97-39.35,59.86,11.64,46.68,6.59,44.87,3.24,86.05-10.03,123.55-125.23,23.24-250.36,57.14-355.02,130.2-13.72-255.88-2.77-522.41,254.42-649.46,161.49-79.78,342.49-104.77,520.85-77.16,252.93,39.15,465.83,180.15,485.18,442.79l9.1,123.51,3.31,151.54c-4.59,3.09-13.71,2.08-15.25-.14Z"/>
  <path class="cls-4" d="M1680.47,482.32c-19.26,19.55-15.63,43.7-40.84,47.64-31.21,4.88-25.73-33.51-68.73-32.45-11.94.29-17.69,21.91-31.58,27.3-54.31,21.04-128.24-31.7-196.23-11.9l-23.87,15.16c-7.17,4.56-19.47-12.9-32.48-17.26-20.28-6.81-59.72-8.82-66.67-37.96-6.5-27.25,25.05-53.17,52.06-68.43-28.81-27.62-47.24,33.51-60.49,14.88,73.19-108.76,411.14-130.23,468.82,63.01Z"/>
  <g>
    <path class="cls-5" d="M1680.47,482.32l18.3,8.11c4.13,64.95,8.36,128.78,12.69,191.48,70.1,12.24,301.77,65.96,334.6,119.67,3.12,5.11,5.32,10.77,7.26,16.6,4.73,6.4,17.43,10.05,19.55-.18-.86-85.62-3.82-171.26-8.89-256.93,7.07-29.48,17.21-37.28,30.4-23.39,13.39,106.32,17.15,214.52,11.17,325.37-1.99,36.94,36.67,52.07,62.04,69.06,10.89,15.54-19.39,45.32-37.55,40.12-10.88,18.29-9.7,29.69-15.33,43.93-2.05-5.94-12.71-14.17-18.99-10.57-17.95,10.28-15.43,44.68-27.4,55.24-8.63,7.61-26.4,4.57-39.61,7.42-11.68,2.52-5.52,41.41,6.96,42.19-3.29-19.96,10.27-29.15,12.15-8.2,18.01,12.74,11.92,22.17-9.27,17.68-15.42-5.12-43.98.94-46.42,20.73-3.34,27.08-6.35,58.21,5.58,78.01l25.45,3.04c4.8.57,5.93,9.29-.01,15.44-2.46,20.51-10.25,33.79-23.36,39.86-6.72-8.93-22.5-9.85-28.48-23.94,8.1-44.39,22.54-92.19,3.79-128.73l-15.36,6.29c-18.18-33.61-23.41-73.46-15.71-119.57-29.25-15.26-46.6-34.44-57.55-66.53-3.14-9.21-9.1-138.29-7.38-147.74,1.07-5.91-85-27.06-108.25-31.97-227.98-48.11-460.35-47.02-688.28,1.84-26.41,5.66-116.02,28.85-116.04,35.93-.07,23.4-7.38,126.75-13.17,145.56-9.35,30.43-24.22,48.09-46.14,70.86-18.69,255.65,14.04,572.93,206.77,761.51l-1.74,22.7-51.49-18.1c9.59,11.8,28.14,18.9,20.12,34.64-3.88,2.97-7.43,5.07-9.81,4.15-7.42-2.88,4.39-14.97,9.47,10.38,7.27,36.26-3.25,251.68-22.46,279.38-12.97,18.71-24.62,21.37-45.96,22.06-22.94,7.8-33.86,21.39-32.75,40.8-10.71,9.95-13.08,21.43-16.58,34.73-70.1-49.18-174.13-131.94-151.88-196.13,5.74-16.57,16.2-43.88,46.77-36.89-16.95,28.51-24.99,52.89-5.3,76.9,42.95-56.95,103.28-82.69,172.86-91.58l-.08-167.53-29.7-1.45c-24.14,5.06-46.82,3.06-40.23-25.85l48.08-7.96,10.82-6.49c4.2-2.52-3.28-8.86-6.85-13.2-58.47-71.16-91.14-153.24-108.75-244.21-45.65,5.03-86.14-7.63-119.18-39.56-85.8-82.89-127.64-205.92-109.38-324.14,6.48-41.96,28.19-75.76,64.24-93.86-3.7-22.57-2.05-43.15-12.1-61.62-14.93-.11-26.2-7.13-32.87-13.24-5.35-4.91-11.07-20.81-1.69-29.23,20.12-2.74,61.02-27.71,60.92-53.01,16.07-6.85,27.3-20.95,33.69-42.31-.97-1.98-2.86-4.04-6.61-4.25l-1.53-207.52c1.49-3.09,4.4-4.38,6.76-4.36l2,208.18,3.27,3.93c-7.81-12.06-2.74-16.08,9.69-8.72,1.12-5.55,2.51-10.97,4.84-15.95,24.16-51.62,257.52-113.59,322.09-124.84l28.09,10.59c12.93-32.78,16.85-70.7,11.74-113.78-11.91-14.56-.93-16.52,32.95-5.87l6.71,98.53c149.06-19.19,301.63-21.08,450.56-.11l-.62-93.18,15.62-11.21c-16.32-23.2-52.9-23.35-77.83-13.47l-41,12.51c-120.45-8.39-241.48-3.94-360.92,14.06-41.88,17.47-45.65-65.75-33.28-83.57,12.03-.88,19.08-10.29,21.14-28.24-21.76-10.74,14.43-62.88,35.84-53.26,60.93-56.69,104.21-30.26,30.27,29.27-16.06,25.35,1.64,41.58,53.11,48.68,13.98,14.45,30.35,14.18,49.11-.8,58.55-.35,117.17,5.34,175.84,17.09,0,0,18.18-10.54,54.54-31.62l28.39,7.2c26.66,34.6,45.7,32.49,57.12-6.32l20.43-.49Z"/>
    <path class="cls-12" d="M2023.14,1237.12c14.67,29.86,7.17,65.73-30.42,82.5l7.06-42.64c2.03-12.29,2.62-23.48-.29-40.41l23.65.56Z"/>
    <path class="cls-15" d="M813.05,1210.77c-28.59,28.42-28.03,59.7-15.94,91.32,9.32,24.39,35.57,46.62,69.86,53.26l20.86,103.71c-41.43,1.35-71.8-17.21-96.09-44.93-71.67-81.8-116.88-227.62-64.17-319.49,13.54-23.59,56.82-36.29,71.15-10.31,16.7,30.27,29.72,59.71,35.27,93.36-23.61-19.79-32.37-42.2-60.11-44.49-16.88-1.4-33.86,11.73-28.66,31.35,33.9-9.14,61.93,13.54,67.82,46.22Z"/>
    <path class="cls-3" d="M858.08,1321.05c-14.01-7.06-26.93-20.3-31.67-31.65-7.99-19.14-6.83-40.29,13.44-57.72l18.23,89.37Z"/>
  </g>
  <g>
    <path class="cls-14" d="M2094.39,537.67c-4.68-.72-9.41,2.09-9.44,7.96l-.35,58.77c-1.03,3.05-3.75,4.23-6.08,3.79-3.34-13.25,3.16-29.58-6.4-47.61-9.81,38.34,2.89,76.93,3.39,118.13l1.71,141.72c.1,8.28-7.8,8.55-11.95,8.45-7.79-.19-10.39-3.29-11.95-10.71.71-105.25-6.7-218.32-22.23-339.21-84.65-347.98-528-426.91-829.75-342.45-354.61,99.25-410.51,335.31-391.01,669.07l-14.62,21.51c-1.73,4.07-6.26,6.89-9.69,8.72-1.63.87-2.99,2.29-3.89,4.02l16.13,7.47-31.6,50.53c-10.03-5.04-11.75-10.36-18.23-15.68-.53-123.1-2.12-247.77,18.4-374.37,47.08-290.55,292.31-421.75,570.4-451.07,17.53-34.81,45.41-55.28,88.08-56.64,45.63-1.46,76.49,19.54,96.9,56.96,304.34,30.19,532.81,168.03,572.18,480.64Z"/>
    <path class="cls-7" d="M1482.11,51.88c-33.87,4.86-62.68-1.63-97.84-3.58,25.69-20.76,66.24-21.27,97.84,3.58Z"/>
  </g>
  <g>
    <path class="cls-17" d="M1975.08,1124.3l-3.5,77.53-70.5,344.63c-29.64,144.91-197.1,305.5-331.55,366.24-130.31,58.87-275.26,25.34-384.66-57.92-25.8-19.63-47.27-43.06-72.64-51.6-49.01-61.71-111.54-115.27-138.75-194.09-47.64-137.99-80.2-281.25-90.19-425.9l8.79-176.04c82.68-59.16,31.59-128.63,62.6-219.42,158.4-56.02,322.11-74.98,490.74-73.53,153.87,1.33,301.8,18.28,446.77,69.7,23.87,90.83-32.74,172.61,67.67,216.79l-1.38,93.42c-.26,17.5,11.79,23.25,16.61,30.18Z"/>
    <g>
      <path class="cls-2" d="M1859.57,998.05c-160.55-57.2-278.38,17.49-296.82-20.85-29.13-60.59,117.41-84.03,225.3-65.52,55.11,9.45,105.96,54.98,94.82,79.08-3.62,7.83-13.96,10.62-23.31,7.28Z"/>
      <path class="cls-8" d="M1155.47,976.99c-105.99-9.13-170.27,36.02-179.99,13.86-2.33-5.31-3.57-12.72,2.7-22.06,53.01-78.98,180.84-69.16,281.79-46.66,16.39,3.65,26.13,13.13,30.75,22.3,6.24,12.39,4.82,44.63-10.79,43.29l-124.46-10.72Z"/>
      <path class="cls-8" d="M1208.66,1092.4c14.32,55.62-2.88,107.51-46.96,112.06-19.24,1.99-36.03-7.36-47.86-26.34-16.79-26.95-14.7-59.99-1.21-90.7l-75.96,29.5c15.46-41.4,60.54-57.07,103.52-64.65,45.9-8.09,93.94,14.62,115.3,56.39-19.12,6.59-27.91-6.39-46.84-16.27Z"/>
      <path class="cls-8" d="M1738.99,1180.79c-9.93,16.74-25.99,23.33-42.76,23.25-16.2-.08-30.57-8.84-40.79-25.51-16.71-27.25-14.49-56.05-4.2-86.3l-48.43,17.75c14.72-37.5,52.31-56.61,91.82-57.82,48.07-1.47,99.8,18.46,124.82,62.39-31.98,2.65-46.01-21.65-72.37-27.83,9.92,33.82,9.18,64.95-8.1,94.08Z"/>
      <path class="cls-1" d="M1602.96,1592.51c-124.54,47.45-377.05,21.8-346.83-18.64,6.68-8.94,11.01-3.25,21.68-1.49,163.46,26.88,313.5-2.08,312.94-2.38,5.12,2.84,14.76,8.29,12.21,22.51Z"/>
      <path class="cls-9" d="M1502.13,1406.04c10.19,19.26-51.36,52.24-116.2,26.78-32.03-12.58-52.51-40.93-36.52-76.97,27.62-62.25,23.52-128.74,44.24-198.75,24.6,76.89-15.95,147.1-18.61,220.32,33.7,62.44,117.46,10.39,127.1,28.61Z"/>
      <path class="cls-13" d="M1482.72,1686.99c-28.4,18.98-72.05,19.13-107.19,1.15,34.96-8.42,68.54-7,107.19-1.15Z"/>
    </g>
  </g>
  <g>
    <path class="cls-10" d="M1175.8,472.57c-4.99,31.14-14.17,60.8-9.07,99.57,143.24-24.01,283.41-26.81,423.12-14.34,22.11-10.23,65.68-9.31,77.83,13.47l.8,120.35c-159.66-20.13-317.05-20.13-481.22.79l-5.8-114.19h-13.29s-2.51,109.22-2.51,109.22c-.18,8.03-10.97,10.58-14.94,9.47,6-40.98,10.42-78.18,5.79-117.41-4.8,14.59-11.86,18.87-15.91,19.85-1.54.37-27.57-17.89-29.08-33.97-2.16-22.94,33.28-33.05,26.03-75.57-1.39-8.15,4.39-16.73,9.6-18.71,7.48-2.84,10.83,2.53,10.24,7.79-.47,4.23-1.73,11.72,5.97,20.09l12.43-26.41Z"/>
    <path class="cls-4" d="M1667.68,571.27c-23.74-11.43-51.37-11.11-77.83-13.47,1.38-16.92,46.62-17.16,69.2-6.82,8.58,3.93,8.57,10.67,8.63,20.29Z"/>
    <circle class="cls-11" cx="1429.77" cy="617.03" r="21.44"/>
    <circle class="cls-16" cx="1575.48" cy="620.39" r="20.83"/>
    <circle class="cls-6" cx="1273.04" cy="620.69" r="20.71"/>
  </g>
</svg>