<?xml version="1.0" encoding="UTF-8"?>
<svg id="Layer_1" xmlns="http://www.w3.org/2000/svg" version="1.1" viewBox="0 0 2995.13 2990.91">
  <!-- Generator: Adobe Illustrator 30.3.0, SVG Export Plug-In . SVG Version: 2.1.3 Build 182)  -->
  <defs>
    <style>
      .st0 {
        fill: #070707;
      }

      .st1 {
        fill: #bdbdbd;
      }

      .st2 {
        fill: #393939;
      }

      .st3 {
        fill: #454545;
      }

      .st4 {
        fill: #0a0a0a;
      }

      .st5 {
        fill: #f6f6f6;
      }

      .st6 {
        fill: #b5b5b5;
      }

      .st7 {
        fill: #f4f4f4;
      }

      .st8 {
        fill: #d8d8d8;
      }

      .st9 {
        fill: #ccc;
      }

      .st10 {
        fill: #060606;
      }

      .st11 {
        fill: #c7c7c7;
      }

      .st12 {
        fill: #bcbcbc;
      }

      .st13 {
        fill: #e9e9e9;
      }

      .st14 {
        fill: #e1e1e1;
      }

      .st15 {
        fill: #080808;
      }

      .st16 {
        fill: #f5f5f5;
      }

      .st17 {
        fill: #0c0c0c;
      }

      .st18 {
        fill: #eee;
      }

      .st19 {
        fill: #c8c8c8;
      }

      .st20 {
        fill: #fdfdfd;
      }

      .st21 {
        fill: #cfcfcf;
      }
    </style>
  </defs>
  <path class="st0" d="M1152.97,1757.45c-1.65,78.1-3.36,157.56-5.11,238.37-7.58,36.99-22.27,71.33-44.09,103.03-8.33,110.34-6.67,220.72,4.97,331.13,245.17,88.7,502.74,89.76,747.43-1.09,12.48-112.65,13.15-225.03,2.02-337.15l-22.15-45.46c-13.65-25.16-12.07-41.79,4.73-49.9l9.59,34.38c15.79-29.23,29.79-55.69,60.42-69.07-11.1-6.39-21.23-9.9-26.77-21.98,8.56-9.56,29.69-10.79,42.9-5.58-6.15,6.34-12.16,5.99-28.95,12.25,71.53,35.71,150.92,139.37,212.34,161.61l384.09,139.08c187.72,67.97,299.99,177.82,350.34,374.55,28.79,112.49,46.16,225.59,47.39,341.13-4.33,10.51-43,10.66-43.64.31-20.57-276.67-56.99-557.6-341.47-659.89l-366.39-131.74,119.06,224.32c5.69,10.71,10.26,20.5,5.42,31.06-2.64,5.76-9.68,12.86-18.24,16.98l-110.26,53.1,126.19,75.77c11.86,7.12,21.62,25.4,15.11,40.92l-145.82,347.85c-6.69,15.95-47.9,7.92-44.31-4.06l145.33-351.56-153.41-92.11c-9.11-5.47-12.81-12.87-12.75-20.84.06-7.45,4.41-15.86,13.91-20.12l138.57-62.01-150.48-275.01-171.05-136.08,20.67,76.24c13.36,101.93,8.56,200.76.04,302.51-.74,8.79,17.61,15.39,23.12,18.85,4.14,11.05-1.53,13.07-17.02,6.04-13.68,3.2-11.01,16.76-13.3,31.22l-78.96,499.22c-2.61,16.47-4.15,26.24-13.47,33.08-7.66,5.62-38.73,1.6-36.84-9.93l77.59-472.25c-248.51,92.67-510.36,93.94-756.2.9l77.98,470.21c1.98,11.95-34.54,21.07-44.46,7.73l-85.95-553.86c-20.03-4.8-18.18-10.22-3.99-22.01,2.47-19.7,1.37-37.99-3.31-54.87-9.89-103.1-9.07-204.51,10.74-317.71l-158.49,124.67-147.91,272.94,138.75,61.87c7.82,3.49,13.99,12.81,14.18,18.25.23,6.37-4.18,15.87-11.71,20.42l-156.32,94.47,144.04,347.32c-.47,13.39-37.26,21.53-45.1,3.08l-144.07-338.96c-8.33-19.59,2.53-37.53,18.26-46.86l125.64-74.5-112.4-50.71c-17.22-7.18-25.4-24.22-16.64-41.11l119.02-229.48-329.29,118.93c-179.18,64.72-259.02,148.3-321.98,326.4-39.16,110.79-55.04,224.31-72.97,340.72-2.59,9.87-37.4,10.6-44.72-.19,20.73-192.54,66.95-447.8,203.62-582.71,59.24-58.48,130.8-97.62,209.75-125.89l390.07-139.68,171.31-140.53c16.77-8.03,32.19-16.7,40.08-32.2,6.76-5.01,19.94-6.21,33.29,3.68,17.5-29.4-.53-59.49,2.17-91.89l7.76-93.3c5.09-.05,8.04-3.41,9.37-4.21l1.78,191.32c.03,3.41,2.67,7.14,6.9,7.73l.49-191.36c.03-11.22,1.47-15.53,12.04-15.73,7.91-.15,9.65,1.66,11.55,9.96Z"/>
  <path class="st2" d="M1051.05,2409.59c-27.18-13.24-61.07,47.16-109.99,48.45,27.79-34.92,64.99-51.73,102.27-70.72l.43-54.62c2.72.12,7.92,2.06,7.87,8.46l-.58,68.43Z"/>
  <path class="st3" d="M1924.67,2403.27c5.34-1.25,11.21-2.1,17.02-6.04l75.76,47.58c-.1,5.1-2.16,9.45-2.73,10.28-34.08-8.45-60.92-33.49-90.05-51.82Z"/>
  <path class="st20" d="M1840.76,1996.38c.21,35.06,20.05,64.18,32.31,91.11,20.76,115.43,5.14,232.78-6,350.24-246.8,100.46-519.23,100.44-769.29,1.07-12.98-114.51-24.12-229.27-8.87-344.04,16.99-33.59,43.5-68.35,44.21-111.91l3.7-225.06c7.37-3.32,12.75-.94,16.15-.35,1.53,6.64,10.29,12.46,15.56,16.63l25.78.36c153.43,124.83,294.22,151.05,470.72,61.01l144.11-101.37,11.93,4.71c3.14,86.13,9.71,171.99,19.69,257.59Z"/>
  <g>
    <path d="M2337.87,1613.09c-10.34-8.99-5.99-21.15,13.03-36.49-15.17,15.07-24.72,33.95-28.65,56.63-6.66,2.03-24.43,10.73-20.39,18.71,26.23,51.77,21.87,105.67-14.64,144.04-36.91,38.79-90.52,51.56-140.43,29.54-7.88,45.38-35.1,74.47-66.61,90.34-36.25,18.25-74.45,8.08-110.46-1.67-12.39,10.98-28.33,25.66-42.83,19.93-29.2,1.66-42.44,11.27-10.04,27.32-1.74,14.2-11.08,24.99-28.01,32.35-20.16,43.66-40.46,67.09-48.09,2.57-10.74-83.83-16.65-168.06-17.74-252.69-14.48.06-22.56-11.45-24.26-34.52l3.48-25.79c117.94-110.21,149.74-260.16,178.48-412.44,54.66-38.03,61.65-56.55,20.97-55.57-5.08-72.89-10.97-146.19-17.68-219.91l-30.6-108.98c-38.18-54.96-43.41-107.33-30.19-173.55-59.37-32.91-92.03-88.16-97.98-165.75l-13.39-27.17c-36.04-24.49-74.26-46.6-114.65-66.32-14.12-13.32-21.53-23.41-5.07-38.29-.42-6.49-3.57-9.73-9.81-9.33,10.85,22.82-11.44,28.46-32.61,32.43-71.68-1.96-142.15-3.45-211.41-4.47l-14.7,16.03c-25.68,109.13-89.84,133.88-192.45,125.41-7.41-.61-10.67,4.74-12.7,19.29,11.47,122.46-72.56,193.31-187.37,178.65,4.36,68.98,7.39,137.56-61,176.15-28.66,161.21-12.09,299.71,29.89,460.54,33.44,128.08,85.67,233.79,193.2,316.65l7.79,26.3c12.78,20.3-14.28,33.45-32.43,21.05-20.61,11.7-28.02,3.15-15.56-16.63-7.19-7.08-17.16-8.99-19.84,2.17,1.83,69.39-.66,137.26-7.46,203.61-24.79-1.66-44.14-8.99-58.05-21.97-28.29,20.98-60.52-19.15-82.92-18.34-42.91,1.54-74.97,19.4-118.57-6.22-23.01-13.53-49.35-37.78-59.44-76.77-53.39,27.63-101.14,3.91-135.81-27.28-39.03-35.11-23.65-89.77-15.89-131.61-49.34-6.94-104.3-23.54-129.14-69.66-53.02-98.44,51.2-136.05,3.57-191.91-8.13-2.11-13.31,6.87-15.54,26.95-32.76-2.66-59.31-28.48-75.38-60.18-36.17-71.35-.63-151.22,73.07-189.96-42.27-52.41-64.34-106.77-46.63-169.57,27.12-96.16,120.56-102.67,117.26-132.7-.57-5.17-13.09-9.78-16.94-16.85-48.38-88.7.5-199.11,96.51-228.2,14.69-4.45,18.09-16.31,14.57-29.24-29.05-106.72,37.42-209.31,152.82-218.94,3.34-133.01,88.32-199.42,219.13-200.86,50.35-121.02,155.2-148.63,282.69-123.2,83.2-43.36,168.42-61.33,263-32.03,78.11,24.2,152.1,64.52,181.66,148.72,103.03-41.21,204.03-10.8,281.73,57.75,42.2,37.23,58.48,95.5,66.61,144.82,56.64,25.46,114.21,51.76,142.77,115.11,59.91,132.87-11.71,205.87,35.19,229.14,108.42,53.78,147.24,181.77,88.5,287.98-4.72,8.54-6.88,19.87-3.56,26.99,5.88,12.61,122.51,63.59,105.48,192.41-5.5,41.6-34.21,80.8-66.67,102.91-33.1-25.19,42.93-85.45-4.92-145.81,5.82,55.01-6.67,94.37-43.64,137.54l34.85,8.62c-18.86,26.89-11.2,42.06,4.58,61.52,31.64,39.03,41.65,91.55,24.05,142.76-11.95,34.77-46.95,72.83-92.82,81-6.06-.03-11.06-19.09-9.9-23.08Z"/>
    <g>
      <path class="st21" d="M2337.87,1613.09c-2.46,6.06-9.37,18.23-15.61,20.14-.07-11.32-6.97-21.81-13.34-34.37,41.42-23.28,58.52-57.75,56.85-101.51,38.07,52.32-16.28,87.11-27.89,115.74Z"/>
      <path class="st8" d="M529.42,1419.46c-6.29,8.34-7.19,20.46-15.54,26.95,2.15-15.8-4.6-28.16-15.53-41.04-28.74-33.89-25.86-79.72,9.95-110.64-16.54,48.68-9.19,89.2,21.12,124.73Z"/>
      <path class="st5" d="M2011.93,1364.57c8.76-23.79,3.66-59.67,20.19-79.12,16.92-19.92,39.71-31.96,44.92-54.1,7.37-31.34-.11-52.72-14.08-83.5-11.73-25.85,6-80.56,33.86-91.08,68.65-25.91,58.36,189.85-31.73,307.72l-53.16.09Z"/>
      <path class="st16" d="M914.77,1276.02l21.16,89.25c-20.06,1.41-33.89.41-51.52-3.86-51.22-83.99-97.34-200.92-60.6-285.34,4.14-9.51,14.39-16.51,21.42-16.29,28.55.89,48.98,68.61,39.19,90.96-19.9,45.46-21.17,96.95,30.34,125.29Z"/>
      <circle class="st18" cx="909.32" cy="1437.19" r="43.43"/>
      <circle class="st7" cx="2042.49" cy="1436.45" r="43.22"/>
      <path class="st11" d="M1036.36,724.87c35.39-28.16,69.02-21.7,94.26-88.55,10.45,27.75-3.5,51.71-22.2,68.26-22.69,8.14-38.52,25.39-72.06,20.29Z"/>
      <path class="st12" d="M640.76,1634.01c-25.37,8.15-45.92-13.83-54.46-32.62-10.2-22.45-12.01-49.37,12.46-64.56-9.94,39.88,1.66,70.25,42,97.18Z"/>
      <path class="st9" d="M2155.53,1797.15c41.54-15.96,69.33-34.21,72.58-77.93,22.94,22.5,7.65,48.06-6.77,63.16-15.4,16.13-41.96,27.11-65.81,14.77Z"/>
      <path class="st1" d="M1321.88,468.85c-5.63,68.06-104.15,73.15-94.62,62.7,17.88-19.59,56.75-11.14,94.62-62.7Z"/>
      <path class="st14" d="M797.89,1804.51c-19.5,16.52-42.26,9.94-58.32-4.98-13.55-12.58-21.67-35-9.81-55.92,17.44,34.19,31.5,51.74,68.13,60.9Z"/>
      <path class="st19" d="M1692.13,415.38c-.72-3.21-5.24-6.62-9.81-9.33l48.36-94.87c-1.26,40.79-21.71,73.89-38.55,104.2Z"/>
      <path class="st13" d="M597.04,803.41c2.99,58.79,31.72,87.88,3.48,84.65-16.65-24.57-20.59-59.38-3.48-84.65Z"/>
      <path class="st6" d="M1925.09,653.67c-21.66-8.27-36.55-32.76-29.04-61.09,13.38,17.34,22.1,33.77,29.04,61.09Z"/>
    </g>
  </g>
  <g>
    <path class="st20" d="M1692.13,415.38c3.15,14.13,11.29,26.61,27,34.45l78.19,39c83.24,41.51,14.33,165.01,143.82,214.71-7.42,40.67-10.76,76.15-6.54,115.81l32.34,57.83,25.26,86.45c23.11,79.1,15.88,163.07,18.6,243.67,14.05,1.08,23.06-6.46,32.69-17.18,19.22,44.84-22.56,68.15-49.77,87.77-37.6,195.4-55.64,292.48-194.97,431.27,2.9,5.4,6.57,14.06,3.29,16.74-83.81,68.38-196.22,141.12-306.34,149.26-101.69,7.52-215.75-40.73-293.81-103.37l-.93-18.76c-167.28-131.26-204.34-255.2-242.11-465.51-9.71-54.09-26.89-105.65-21.63-159.91l18.14-187.08c107.49-62.13,35.29-159.43,69.08-182.87,20.45-14.19,69.49,29.5,141.51-38.19,65.18-61.27,9.56-129.75,58.83-162.25,77.12,26.73,165.67-16.75,180.65-100.55,5.63-31.48,35.76-49.41,67.14-40.61,33.54,9.41,59.66,4.27,91.86,3.4,38.57-1.04,88.8,17.61,117.88-13.42,12.74-10.41,17.63-5.62,9.81,9.33Z"/>
    <g>
      <path class="st4" d="M1840.76,1996.38l-15.04-70.63-5.5-181.05-146.82,103.9c-97.72,60.16-223.44,74.94-332.92,31.85-64.82-25.51-121.02-66.07-171.96-106.36l32.43-21.05,79.31,47.66c120.79,86.4,280.07,75.54,399.82-8.38l118.67-83.16c6.61,5.9,12.95,5.93,28.49,1.07-15.45,19.27,1.91,30.41,2.3,45.57l4.03,155.55,7.19,85.03Z"/>
      <path class="st17" d="M1653.67,1491.79c8.02-3.65,15.45,3.47,18.7,6.71,5.31,5.3,6.29,20.08-4.47,24.29-122.02,47.73-255.85,49.12-378.92,4.37-8.97-3.26-16.22-11.24-17.59-16.43s11.59-19.04,16.7-17.09c62.74,24.01,309.7,23.63,365.59-1.85Z"/>
      <path class="st15" d="M1327.39,904.87l-143.24-13.8c-50.91-4.91-90.88,19.06-144.52,39.71,26.44-128.77,270.04-109.25,299.12-57.64,3.89,6.9,2.92,33.12-11.36,31.74Z"/>
      <path class="st15" d="M1898.79,922.17c-13.29,14.7-65.19-44.04-153.3-31.69l-109.18,15.3c-15.48,2.17-29.93-.6-34.7-14.61-14.87-43.7,59.61-50.56,120.61-57.47,117.75-13.34,190.45,73.13,176.58,88.47Z"/>
      <path class="st10" d="M1783.76,1016.7c2.79,25.19-2.98,49.75-22.72,63.85-17.56,12.54-43.97,11.78-61.37-.11-21.18-14.47-23.89-37.1-24.01-67.96-15.66,14.35-24.42,27.23-44.13,20.9,10.69-33.74,34.35-51.94,64.46-60.99,87.33-26.24,169.24,56.03,144.66,70.73-15.8,9.45-26.28-20.72-56.89-26.41Z"/>
      <path class="st10" d="M1160.4,1015.22l-55.28,33.72c-11.19-26.51,11.77-39.19,29-52.83,54.49-43.12,138.98-40.02,171.09,26.06,3.32,6.84-17.42,12.99-19.55,5.02-1.05-3.92-6.3-10.61-16.92-12.33,1.93,25.62-.23,47.4-17.5,62.56-15.79,13.86-42.11,18.1-61.85,6.79-20.89-11.97-30.82-31.43-28.99-69Z"/>
      <path class="st4" d="M1430.92,1321.89c62.86,36.16,117.24-27.94,127.51,3.08,9.02,27.26-23.96,23.35-35.05,29.95-33.27,19.81-66.82,19.09-102.42,1.73-31.67-15.45-58.55-32.76-47.4-75.67,19.82-76.21,39.57-153.79,45.45-234.26.85-11.67,2.86-18.09,11.3-18.9,49.31-4.72-40.16,262.46-22.36,282.28,4.07,4.53,14.6,6.99,22.96,11.8Z"/>
    </g>
  </g>
</svg>