<?xml version="1.0" encoding="UTF-8"?>
<svg id="Layer_1" xmlns="http://www.w3.org/2000/svg" version="1.1" viewBox="0 0 2995.13 2990.91">
  <!-- Generator: Adobe Illustrator 30.3.0, SVG Export Plug-In . SVG Version: 2.1.3 Build 182)  -->
  <defs>
    <style>
      .st0 {
        fill: #070707;
      }

      .st1 {
        fill: #0a0a0a;
      }

      .st2 {
        fill: #e6e6e6;
      }

      .st3 {
        fill: #c3c3c3;
      }

      .st4 {
        fill: #bababa;
      }

      .st5 {
        fill: #060606;
      }

      .st6 {
        fill: #282828;
      }

      .st7 {
        fill: #bcbcbc;
      }

      .st8 {
        fill: #e9e9e9;
      }

      .st9 {
        fill: #080808;
      }

      .st10 {
        fill: #c5c5c5;
      }

      .st11 {
        fill: #f7f7f7;
      }

      .st12 {
        fill: #f8f8f8;
      }

      .st13 {
        fill: #f5f5f5;
      }

      .st14 {
        fill: #f0f0f0;
      }

      .st15 {
        fill: #dcdcdc;
      }

      .st16 {
        fill: #d3d3d3;
      }

      .st17 {
        fill: #fdfdfd;
      }

      .st18 {
        fill: #b2b2b2;
      }

      .st19 {
        fill: #090909;
      }
    </style>
  </defs>
  <path class="st9" d="M1951.17,2032.36c-8.99,4.97-21.61,4.47-30.16,16.05,47.88,37.22,101.58,53.74,154.04,79.56,20.16,9.93,42.12,5.33,61.12,12.27l375.21,137.16c285.37,104.32,349.4,393.45,368.31,677.4-1.15,10.7-39.19,11.19-45.44,1.08-23.83-257.24-72.65-533.06-336.73-632.22l-351.17-131.86c-40.43,112.38-161.27,219.46-270.24,270.94-343.9,162.45-850.58,95.02-1024.77-265.46l-354.78,131.75c-132.93,49.37-224.02,154.86-265.98,290.76-40.94,108.72-52.46,220.49-70.05,335.51-1.63,10.64-37.19,11.14-45.08.37,27.69-272.74,85.15-570.34,368.31-671.82l390.13-139.81c73.3-26.27,143.1-51.74,206.12-89.29,4.29,8.63,18.36,14.36,19.8,9.74l7.03-22.52c11.08-10,21.85,5.94,25.23,13.73,5.89,4.72,11.29,12.18,8.15,18.27-25.78,49.88-180.91,109.58-237.04,119.64l14.27,8.69c238.45,389.96,935.08,382.57,1169.82-9.19-66.17-20.86-133-48.67-190.83-87.51-20.96-14.08-50.24-34.65-29.21-57.59,2.29.3,6.65,4.85,8.79,4.92,3.18.1,7.13-6.34,13.11-9.8,8.78-5.08,20.01,6.96,22.61,14.77l10.67-24.71c5.09-11.78,22.33.23,28.8-.84Z"/>
  <path class="st17" d="M1867.19,2048.02c7.01,13.38,11.32,26.42,27.54,37.41,65.55,44.44,134.52,72.49,213.28,99.9-53.22,98.45-132.38,181.17-236.06,232.58-238.77,118.39-527.62,117.31-761.68-7.58-96.22-51.34-167.35-123.12-218.3-221.6,75.02-26.49,138.49-56.86,204.74-93.96,18.09-10.13,27.43-22.92,35.34-39.07,12.61-25.73,22.86-52.95,23.77-85.24l5.43-193.58,28.93,19.43,25.84,1.2c188.66,175.86,412.87,139.64,593.81-25.73l13.5-.84c12.22-2.24,15.29,6.13,15.28,14.17-.19,90.41-3.91,200.84,28.6,262.9Z"/>
  <g>
    <path d="M2179.36,1985.76c-3.69-14.01-9.62-20.43-17.79-19.29-34.68,31.61-80.91,68.16-135.14,65.55-23.17-1.11-56.55-9.25-75.26.33-15.35-1.92-25.8,2.56-31.34,13.44,20.69,31.61-41.12,20.5-52.63,2.22l-20.01-5.27c-23.81-88.58-31.76-179.18-23.87-271.8,5.51-19.47-.74-17.4-18.77,6.19-18.02,18.79-35.61,21.04-33.01-7.49l8.58-27.75c115.82-92.67,160.76-222.59,204.61-355.96l18,2.12c8.81-13.66,22.22-19.11,40.23-16.35,2.41-14.25,13.47-18.98,33.2-14.2,37.11-43.68,109.84-214.46,51.59-269.58-42.28-40.01-37.53,89.48-15.65,112.4,12.2,40.64-31.79,127.8-69.34,84.72-10.56,1.58-11-3.93-1.34-16.53l-2.45-18.87c12.41-7.06,4.86-16.47-22.63-28.24-1.01-90.25-8.58-179.79-22.71-268.63-51.17-95.69-90.08-197.15-116.73-304.36-27.74-70.87-72.88-137.78-148.13-162.39l-10.24-19.49-56.48-18.81-6.83,15.94c-107.05-4.89-205.55-5.73-265.35,99.09-54.48,91.33-108.62,182.83-162.4,274.5,42.31-1.33,161.47,12.98,146.23,73.54-4.58,18.22-22.85,26.7-40.56,26.67-63.2-13.9-124.69-16.29-184.47-7.17-52.62,54.26-110,102-172.15,143.22-1.12,34.65-8.15,66.34-21.06,95.07-24.7,17.89-43.87,6.86-57.48-33.09-68.54,45.52-42.99,115.16-8.22,176.32,49.43,86.95,57.6,37.04,35.89-30.82,5.03-35.72,32.38-44.96,57.09-19.37,21.72,141.73,67.73,271.05,138.03,387.95l37.84,45.48c25.43,18.62,40.51,40.24,45.24,64.86,21.51,20.46,17.19,44.39-13.67,36.41l-13.97,13.99c4.37,83.77-3.88,164.29-24.78,241.56l-19.39,3.84-16.35,2.91c-11.61,30.91-48.38,29.33-35.7-3.87,7.31-23.39-72.06.38-149.18-55.93-11.7,20.36-27.63,24.21-47.96,19.84-71.29-15.34-132.44-53.27-159.28-123.19-38.36,1.73-72.15,8.56-104.72-27.07,59.57-18.64,91.23-79.51,66.64-127.66-141.18-148.85-130.71-355.21-62.91-540.2,37.37-101.98,63.63-201.06,81.76-308.34,41.4-244.99,120.03-486.03,305.78-656.02,153.17-140.17,359.97-208.73,564.33-176.6,65.46,10.29,120.54,37.16,161.9,89.91,192.6-49.58,331.77,96.47,410.97,269.11l77.06,216.21c43.22,166.18,94.93,323.34,147.52,486.1,47.08,145.7,44.04,292.63-13.39,431.53-37.03,89.55-23.19,208.56,72.83,230.51-27.78,38.05-64.69,30.57-105.09,16.98-4.72,90.8-63.85,166.47-146.9,185.82Z"/>
    <g>
      <path class="st4" d="M2179.36,1985.76c-6.33-.52-13.94-13.66-17.79-19.29l51.13-71.57c3.75,38.27-28.8,58.39-33.34,90.85Z"/>
      <path class="st11" d="M2042.97,1371.71c-28.68,13.86-34.3-9.38-16.87-69.73,1.96-11.74,7.52-17.38,16.68-16.92,14.05,2.59,28.89-5.05,37.78-16.92,28.75-38.38,16.92-75.16-1.37-115.4-9.31-20.48,3.79-72.97,23.37-86.48,20.42-10.35,56.22,22.32,58.6,44.41,10.43,96.7-21.18,187.71-76.18,263.21l-42.01-2.17Z"/>
      <path class="st8" d="M1502.61,336.51c26.23-3.29,33.15.84,20.76,12.38-218.86,39.48-284.49,326.73-436.25,493.23-15.11,7.94-14.68,1.5-6.38-12.37,137.48-154.33,203.6-441.82,421.87-493.24Z"/>
      <circle class="st14" cx="2060.83" cy="1445.61" r="43.84"/>
      <circle class="st13" cx="929.99" cy="1444.47" r="43.86"/>
      <path class="st2" d="M887.74,1055.21l-155.72,90.32c3.48-22.88,23.14-34.23,38.55-43.69l212.34-130.41c-14.46,41.06-56.28,61.22-95.18,83.78Z"/>
      <path class="st15" d="M2229.24,1037.8l12.34,13.54c2.12,2.32.43,11.97-3.94,11.72-4.33-.25-11.16-7.8-17.24-10.78-83.55-41.01-163.49-97.47-192.9-190,54.53,76.02,113.6,136.27,201.73,175.51Z"/>
      <path class="st16" d="M710.95,1834.04c17.36-39.38,40.1-80.32,28.53-127.44l-27.16-110.64c31.17,35.88,35.88,75.77,45.22,118.03-1.35,42.33,2.29,92.36-46.59,120.05Z"/>
      <path class="st7" d="M2313.05,1518.44c-20.07,62.06-8.89,113.2-7.08,176-41.67-50.74-12.92-178.56-5.18-186.99,2.43-2.65,15.19-.49,12.26,10.99Z"/>
      <path class="st18" d="M1668.31,265.7c-43.15-24.26-87.35-40.61-143.12-49.08,49.03-6.02,110.32-6.79,143.12,49.08Z"/>
      <path class="st12" d="M1718.54,466.54c-29.34-7.37-48.95,7.33-56.48-18.81,37.03-30.76,18.71-70.67,30.36-89.47,3.16-5.09,8.27-5.53,11.21.71,1.35,2.85,5.59,7.6,4,13.71l-18.24,70.23c9.17,12.41,19.57,17.44,29.15,23.63Z"/>
      <path class="st3" d="M1523.37,348.89c-1.13-10.19-12.6-12.1-20.76-12.38,38.37-9.04,84.84-14.81,112.77,17.46-32.91-5.22-61.04-10.67-92.01-5.08Z"/>
      <path class="st10" d="M1087.12,842.12c-16.13,17.7-25.89,41.23-59.86,47.67l53.48-60.04,6.38,12.37Z"/>
    </g>
  </g>
  <g>
    <path class="st17" d="M1662.06,447.73c18.49-.87,37.32,5.4,56.48,18.81,114.28,28.72,166.38,136.8,198.74,253.26,17.98,81.54,47.91,155.49,91.16,227.66,17.25,90.06,22.35,178.53,20.88,268.4,5.47,6.36,18.93,5.35,20.66.39,1.69-4.84,4.25-12.03,13.93-18.41,8.58,20.64-1.55,56.98-22.48,70.68-16.19,33.02-29.88,71.8-20.33,107.98l-18.36,11.56c-9.06,11.93-16.53,25.45-20.47,43.51-29.74,136.37-104.46,253.57-210.72,338.08,4.04,5.08,7.65,13.6,4.02,16.15-88.9,62.36-178.68,120.27-292.98,117.08-99.69-2.77-197.08-58.05-273.98-118.82l-4.76-24.15c-166.79-141.32-186.18-281.72-231.6-484.39-2.43-10.85-14.43-14.52-20.76-11.99-4.48,1.79-11.83,7.74-10.16,15.82l19.28,93.25-54.55-2.01c-31.77-52.66-70.96-112.81-67.21-177.81,2.09-36.28,42.98-62.01,64.55-83.83l25.38,52.39c3.79,7.82,20.35-4.82,21.65-14.35l11.49-83.99c72.37-34.35,118.71-99.08,179.1-146.43,89.46-32.48,197.28,27.98,215.52-5.32,21.81-39.82-77.95-65-167.99-56.46,36.7-44.52,61.91-88.04,90.03-135.51l94.56-159.61c35.2-59.41,96.82-110.61,168.33-111.11l120.58-.84Z"/>
    <g>
      <path class="st19" d="M1823.32,1770.95c-53.79,59.02-128.91,109.35-211.03,139.97-75.75,28.25-166.16,26.37-241.6-.89-69.66-25.17-129.25-68.93-180.52-113.71,10.16-11.26,18.93-22.66,13.67-36.41,32.88,27.86,70.61,47.92,108.9,73.31,120.56,79.95,278.41,69.47,389.47-21.6l69.34-41.97c34.31,27.74,41.64-48.69,96.73-60.07-14.74,23.24-30.77,45.81-44.96,61.38Z"/>
      <path class="st6" d="M2042.78,1285.06l-22.47,83.89c5.69,4.47,14.6,4.38,22.66,2.76-10.69,10.68-25.5,15.05-40.23,16.35,25.87-34.05-18.21-82.29,38.7-119.54,2,6.42,2.42,12.51,1.34,16.53Z"/>
      <path class="st1" d="M1301.87,1543.34c-42.81-35.64,139.06.15,248.51-12.61,42.13-4.91,83.96,3.18,124.11-12.96,5.25.46,13.72,13.52,12.74,18.16-1.04,4.94-4.25,12.72-13.3,15.9-117.46,41.25-242.21,44.5-358.94.7-7.5-2.81-10.37-6.9-13.12-9.19Z"/>
      <path class="st0" d="M1178.12,1031.09l-41.7,31.38c-7.22,5.44-18.68-5.04-17.75-11.68.98-6.93,5.85-11.21,11.84-18,47.37-53.71,127.6-68.9,178.01-15.35,4.4,4.68,7.68,12.85,9.21,16.86,1.23,3.22-4.08,11.23-9.75,10.04-4.84-1.02-10.4-9.78-20.42-13.94,1.93,27.38.63,50.22-16.88,66.23-16.36,14.95-45.67,20.26-67.07,7.02-20.52-12.7-29.68-33.92-25.49-72.56Z"/>
      <path class="st5" d="M1804.26,1032.46c4.61,24.72-.25,46.51-17.25,63.69-15.25,15.4-43.53,20.49-65.71,6.39-19.31-12.28-28.71-34.24-25.33-66.64-13.22,7.24-28.31,9.45-33.61.58,15.7-33.24,56.42-52.63,90.72-53.02,64.72-.74,113.97,59.01,113.61,67.43-.32,7.32-13.26,16.66-20.09,10.31-12.26-11.38-19.57-23.24-42.34-28.73Z"/>
      <path class="st1" d="M1920.27,940.54c-146.94-73.58-252.31-4.07-287.93-24.58-19.43-11.18-1.12-41.97,18.31-47.67,104.36-30.6,238.72-29.86,269.62,72.24Z"/>
      <path class="st19" d="M1561.07,1343.49c13.89-3.51,17.19,18.23,11.89,24.23-4.2,4.76-19.55,5.46-25.18,8.52-40.73,22.16-69.07,24.01-107.73,3.34-27.77-14.85-54.09-35.12-43.28-72.89,23.17-80.92,38.16-163.25,46.75-246.69.7-6.79,16.88-7.34,19.85-1.8,17.08,31.87-19.68,183.61-38.09,267.86,17.79,19,48.76,39.39,72,33.52l63.79-16.1Z"/>
    </g>
  </g>
</svg>