<?xml version="1.0" encoding="UTF-8"?>
<svg id="Layer_1" data-name="Layer 1" xmlns="http://www.w3.org/2000/svg" viewBox="0 0 2905.56 2939.88">
  <defs>
    <style>
      .cls-1 {
        fill: #070707;
      }

      .cls-2 {
        fill: #bdbdbd;
      }

      .cls-3 {
        fill: #0a0a0a;
      }

      .cls-4 {
        fill: #b4b4b4;
      }

      .cls-5 {
        fill: #060606;
      }

      .cls-6 {
        fill: #0d0d0d;
      }

      .cls-7 {
        fill: #050505;
      }

      .cls-8 {
        fill: #f7f7f7;
      }

      .cls-9 {
        fill: #f8f8f8;
      }

      .cls-10 {
        fill: #0c0c0c;
      }

      .cls-11 {
        fill: #afafaf;
      }

      .cls-12 {
        fill: #fcfcfc;
      }

      .cls-13 {
        fill: #fdfdfd;
      }
    </style>
  </defs>
  <circle class="cls-6" cx="1471.72" cy="2647.4" r="38.83"/>
  <g>
    <path d="M2124.72,649.52c-25.01-7.96-36.9-11.35-17.05,15.41-14.62,34.92-17.11,74.45-10.61,112.32-17.46,44.68-22,93.75-13.6,147.22-7.6,46.7-60.88,58.82-85.17,18.57l-12.93,3.68c-3.71-33.45-8.31-66.69-13.8-99.7l-18.15-3.18c-15.34-29.17-27.98-59.44-37.91-90.8l-6.64-180.41c-5.17-73.69-52.85-134.4-107.41-180.55l-.92-21.31c-2.7-16.95-7.7-25.11-14.98-24.47-.16,19.24-17.2,25.76-51.12,19.54l-109.61,30.79c-157.59,25.2-316.6,27.82-477.05,7.85-161.94.95-183.85,172.46-172.08,302.46-3.25,40.93-11.2,118.47-56.47,124.55l-6.32,21.57c2.63,20.87-2.39,31.2-15.06,30.98l-6.52,92.81c-18.55,36.26-70.9,45.38-55.03-8.73-57.7-8.63-71.25-23.92-40.65-45.89-1.73-6.36-1.53-15.65.59-27.87l-36.93-268.35c-22.62-164.36,49.47-403.32,230.19-428.11,39.01-58.95,90.82-102.43,156.64-131.78,167.35-74.61,356.37-85.47,532.68-35.58,89.72,25.39,175.2,83.27,191.7,174.87,57.21-9.11,105.65,8.3,148.75,42.79,108.68,86.98,129.13,264.68,105.46,401.33Z"/>
    <path class="cls-2" d="M838.78,734.54c-13.88-31.42,1.63-52.63,23.05-70.18,14.36-11.77,19.08-34.44,43.76-38.14-23.96,37.88-47.04,64.46-66.8,108.32Z"/>
    <path class="cls-4" d="M2045.14,716.62c-16.74-30.39-47.03-52.38-61.06-93.58,24.63,23.49,55.77,44.13,61.06,93.58Z"/>
    <path class="cls-11" d="M1800.54,370.75l-14.98-24.47,51.24-79.51c4.55,43.49-45.62,64.01-36.26,103.98Z"/>
  </g>
  <g>
    <path class="cls-1" d="M2124.72,649.52c5.51,20.72,4.37,47.38-6.09,65.86-10.94-5.43-11.68,44.14-6.14,61.12-5.42,43.61-10.18,86.2-18.71,132.88,50.49,6.32,78.12,46.19,83.35,95.17,12.96,121.25-21.34,244.14-87.69,346.5-23.08,35.6-58.45,54.68-101.42,60.07-14.02,105.95-41.21,204.09-107.05,288.05l3.18,139.45c75.74,47.53,98.12,147.03,162.77,224.94l423.13,179.37c193.71,82.12,310.45,160.49,374.7,372.63,32.05,105.83,49.4,210.85,60.81,319.98-18.61,4.82-30.93,4.32-46.8.11-36.34-265.62-68.93-500.09-333.25-614.2l-472.08-203.8c-9.54,122.94-19.95,239.42-38.47,358.74-2.76,17.78-30.07,20.07-42.51,10.45-71.09-48.19-133.33-103.1-199.4-157.71-69.13-57.13-100.24,32.98-137.74-8.91l-39.9,39.21c-57.28,105.65-165.12,159.68-189.67,270.24-27.96,125.86,2.36,295.83-24.01,308.44-7.03,3.36-29.06,2.55-29.01-7.68l1.2-231.01c.35-66.79,21.26-127.02,57.32-181.59l-88.62-103.7c-21.25-42.94-39.76-90.42-87.91-109.47-30.82,30.53-51.12-19.15-110.95,28.7-69.97,55.95-190.75,171.41-221.93,155.84-9.63-4.81-14.15-14.79-15.95-28.55-14.91-113.95-29.65-223.64-34.85-338.04l-471.14,204.43c-116.45,50.53-204.18,132.82-250.6,251.56-44.7,114.34-65.46,231.2-84.02,352.91-1.98,12.96-45.95,9.8-45.28-2.09,28.09-244.55,87.38-525.18,327.99-629.85l496.93-216.19c16.6-7.22,34.62-13.43,43.87-28.83l89.34-148.65c14.49-24.11,39.5-43.9,58.61-60.12,10.39-46.13,1.66-95.72.95-143.4-66.73-83.71-99.76-179.95-111.17-289.14-49.56-4.48-83.8-31.17-109.61-72.52-88.24-141.35-127.19-393.23-18.97-424.33,14.52-4.17,20.65-9.65,18.3-22.02,4.56,10.35,20.91,22.17,18.34,38.45-10.98.11-19.46-.34-25.94,11.08,28.1.3,43.99,3.11,69.62,17.57-4.12,11.53-14.86,21.72-8.59,38.82.06-12.41,16.11-16.5,25.71-20.65l7.9-115.41c.98-14.31,16.21-15.35,17.71-6.01.63,3.9-1.22,11,9.28,17.53-3.6-25.52.68-32.51,8.97-44.25l13.1,21.92c-1.6,86.77-6.43,173.11-14.48,259.03,11.58,112.78,31.27,233.67,54.88,345.83,38.28,181.84,160.64,316.18,320.28,401.55,97.36,52.07,296,41.28,372.23-50.68,148.74-72.93,238.13-221.66,260.75-384.8l41.33-240.28s7.42-10.5,22.25-31.49c4.08,1.65,7.26,2.85,7.33,2.47,4.83-25.44,6.8-71.59-1.21-90.45-.34-108.78-.33-110.09.03-3.92,9.45,5.39,7.33,8.91-4.53,10.87-6.76,17.31-22.4,11.21-24.92-5.95-5.16-35.24-13.23-176.67-4.29-200.2,2.44-6.41,5.87-12.44,9.58-18.36,23,15.37,4.23,54.18,13.35,91.22,12.98-16.4-1.58-46.24,11.6-71.96,27.79,23.74-3.82,82.63,37.92,84.87,14.84.8,33.52-9.17,33.18-27.25l-2.11-113.33c18.36-30.29,27.11-62.45,15.58-99.13-3.06-9.75,17.91-30.53,12.52-39.93-5.98-10.43-13.82-17.18-24.51-27.85,21.47-10.35,35.87-19.85,46.05-37.32.7,21.51,6.41,31.32,9.57,43.2Z"/>
    <g>
      <path d="M2118.62,715.37c2.12,21.22-3.66,41.18-6.14,61.12-23.68-13.13-1.45-58.28-.07-112.41,10.27,16.86,4.57,34.84,6.21,51.29Z"/>
      <path class="cls-13" d="M1840.99,1997.8c-51.14,111.1-122.74,206.7-219.42,276.36-41.27,29.74-66.18,65.01-93.05,107l-90.21,100.61-78.75-89.13c-23.77-26.91-22.51-64.89-54.11-90.87-97.82-80.42-201.62-178.51-236.7-303.28l-6.1-240.11c63.68,56.5,174.2,149.94,224.02,167.1,93.36,32.15,192.96,31.05,289.24,11.34,46.45-15.54,85.28-39.4,121.82-70.59,49.74-30.21,91.84-63.68,136.47-110.24l6.81,241.82Z"/>
      <path class="cls-13" d="M1790.25,2284.3c-34.27-27.4-64.02-18.43-105.38-6.73,96.21-80.04,165.13-175.55,205.46-290.55,11.94-34.04-1.8-57.23-6.94-93.23,43.67,63.33,90.31,133.47,120.42,202.16,8.96,112.19-18.87,221.26-28.02,336.68l-185.54-148.32Z"/>
      <path class="cls-12" d="M1115.96,2282.28l-187.39,151.27c-17.15-112.85-31.91-223.75-31.21-338.39l51.25-79.57c24.73-38.39,36.74-80.54,71.09-112.11-37.72,119.64,88.01,273.05,178.79,366.38-31.28-5-56.42-6.3-82.54,12.42Z"/>
      <path class="cls-8" d="M835.82,1088.8c10.94,5.66,18.25,17.64,21.95,35.93,19.62-.97,23.28,13.82,10.97,44.36l26.37,193.95c-22.1-1.79-40-12.51-50.79-29.2-64.92-100.37-99.64-219.34-82.27-337.79,2.51-17.12,15.38-29.53,24.36-37.53,8.51-7.57,32.26-10.19,41.34,3.4,16.19,24.21,18.38,54.51,25.87,86.26-19.24-11.61-32.97-25.74-54.79-32.06-11.7-3.39-19.91,9.24-16.23,17.17,1.65,3.56,5.5,5.06,14.21,7.98,16.75,7.48,32.97,28.78,39,47.55Z"/>
      <path class="cls-9" d="M2038.89,1117.27c3.89-20.8,10.89-42.42,21.03-64.88l-13.81,4.58c-14.49-37.63,9.41-105.52,44.04-105.75,67.94-.45,66.22,222.39-43.02,381.66-11.81,17.21-26.06,29.03-49.11,30.24l25.66-189.04c3.06-22.53,4.95-39.98,15.23-56.81Z"/>
      <path d="M1989.57,1152.55l1.62-81.03,1.37-96.67c1.69,0,4.51.99,5.94,4.15l1.7,86.92c10.18-10.83,19.71-16.89,25.47-40.62,21.63,28.73-5.62,47.97-14.45,69.53-12.83,31.34,1.39,68.62-17.31,95.41-5.72-13.45-4.57-26.23-4.34-37.7Z"/>
      <path d="M2038.89,1117.27c-23.35-1.09,5.9-16.12,7.22-60.29.7-23.5,28.58-49.17,54.67-50.16,10.26-.39,13.03,13.89,9.36,19.34-2.64,3.92-9.89,7.57-16.5,12.02-29.35,19.78-38.79,52.96-54.75,79.09Z"/>
      <path d="M868.74,1169.09c-3.92-28.86-23.56-51.11-32.92-80.29,4.49-14.21,9.61-8.7,11.57-5.9,4.15,5.96,9.53,16.78,10.92,23.05l3.63,16.32c.85,3.82,12.18.91,18.37-6.9-11.64-23.87,9.63-41.41,10.18-61.6l3.55-130.18c1.12-3.1,3.8-4.46,6.2-4.26l.26,119.51c.09,43.41-12.37,81.68-3.83,128.37-13.92-5.05-13.1-15.49-14.54-22.32-6.66,14.81-9.6,18.22-13.39,24.21Z"/>
    </g>
  </g>
  <g>
    <path class="cls-13" d="M1785.56,346.28c7.24-10.31,12.24-2.15,14.98,24.47,63.7,50.82,122.59,122.39,124.49,208.39l3.3,149.27c.95,42.96,30.94,82.39,43.23,118.6,3.85,71.05,9.44,141.09,9.63,215.02.01,5.33,8.14,9.8,10,9.49,6.56-.95,15.4,1,15.09,5.23-1.51,20.47-9.18,61.04-16.71,75.8-25.46,126.09-36.96,252.02-72.46,377.91-31.13,110.39-107.15,203.81-198.64,268.41-19.15,13.52-39.29,15.56-55.81,32.95-78.49,82.67-203.74,80.62-320.01,63.21-53.67-8.04-83.01-42.28-124.81-67.68-146.85-89.24-244.32-229.51-266.65-402.65-10.79-83.69-30.1-164.45-44.98-247.04-8.67-48.13-3.11-91.72,2.54-138.93,8.47-70.83-.37-140.16,10.47-207.26,33.65-47.64,44.88-103.38,39.65-167.82-7.68-94.46,16.68-205.01,103.71-257.72,95.96-58.12,339.67,57.86,663.86-54.37,18.13-6.28,44.06,5,59.12-5.29Z"/>
    <g>
      <path class="cls-5" d="M1878.57,904.43c-133.99-63.63-236.03-18.51-296.1-29.46-15.59-2.84-15.96-26.24-10.47-35.51,23.07-38.99,133.82-41.1,204.24-32.24,48.95,6.16,96.2,42.27,102.33,97.21Z"/>
      <path class="cls-1" d="M1311.86,858.55c-7.38,39.21-98.32,0-216.37,16.6l-88.6,25.1c13.65-65.87,73.85-95.22,133.24-95.3,81.24-.12,181.27,2.91,171.73,53.61Z"/>
      <path class="cls-3" d="M1454.82,1336.88c39.39-15.98,80.4-37.83,89.08-14.91,10.51,27.73-28.73,23.34-72.56,46.34-31.3,16.42-56.46-1.99-82.68-12.04-41.24-15.81-65.39-43.9-51.36-88.97,25.38-81.54,41.68-165.24,52.45-250.91,1.17-9.32,3.32-14.74,9.56-16.48,40.04-11.19-7.15,186.09-29.59,277.48-6.16,25.09,7.23,36.43,29.77,43.66,16.68,5.35,35.12,24.05,55.34,15.85Z"/>
      <path class="cls-10" d="M1635.86,1536.27c-129.28,34.45-265.29,33.15-394.46-2.09-11.49-3.14-10.69-21.5-2.95-27.23,7.69-5.69,12.25-6.27,25.98-3.45,206.7,42.54,376.45-7.08,384.98-.87,3.98,2.9,9.9,9.26,8.52,16.64-1.59,8.53-10.01,13.78-22.08,17Z"/>
      <path class="cls-1" d="M1243.7,990.67c-2.16,28.85-7.22,47.85-23.53,61.45-17.64,14.71-44.2,15.72-63.29,5.22-21.14-11.63-26.21-38.25-24.09-68.14-23.93,8.93-35,29.49-64.18,31.64,12.07-42.07,48.09-60.9,86.39-71.38,46.05-12.59,105.01-1.34,122.48,50.82-1.2,7.95-23.77,6.02-33.78-9.6Z"/>
      <path class="cls-7" d="M1755.97,988.27c-.52,31.7-6.17,53-23.95,66.43-18.03,13.61-46.12,11.68-63.63-.09-18.64-12.54-25.9-38.46-18.81-62.19-16.45-7.48-22.33,12.39-29.08,11.36-30.63-23.09,41.78-74.6,112.87-55.35,30.36,8.22,74.94,27.56,82.27,71.4-27.03.12-35.58-20.08-59.67-31.55Z"/>
    </g>
  </g>
</svg>