<?xml version="1.0" encoding="UTF-8"?>
<svg id="Layer_1" data-name="Layer 1" xmlns="http://www.w3.org/2000/svg" viewBox="0 0 2964.52 2958.76">
  <defs>
    <style>
      .cls-1 {
        fill: #070707;
      }

      .cls-2 {
        fill: #c3c3c3;
      }

      .cls-3 {
        fill: #c9c9c9;
      }

      .cls-4 {
        fill: #060606;
      }

      .cls-5 {
        fill: #bebebe;
      }

      .cls-6 {
        fill: #050505;
      }

      .cls-7 {
        fill: #b3b3b3;
      }

      .cls-8 {
        fill: #cacaca;
      }

      .cls-9 {
        fill: #fafafa;
      }

      .cls-10 {
        fill: #101010;
      }

      .cls-11 {
        fill: #f7f7f7;
      }

      .cls-12 {
        fill: #f8f8f8;
      }

      .cls-13 {
        fill: #0c0c0c;
      }

      .cls-14 {
        fill: #c2c2c2;
      }

      .cls-15 {
        fill: #fcfcfc;
      }

      .cls-16 {
        fill: #e0e0e0;
      }

      .cls-17 {
        fill: #fdfdfd;
      }

      .cls-18 {
        fill: #161616;
      }

      .cls-19 {
        fill: #090909;
      }
    </style>
  </defs>
  <circle class="cls-10" cx="1479.45" cy="2674.25" r="40.28"/>
  <path class="cls-18" d="M1282.13,2343.8c6.8,16.98-1.96,28.19-10.77,36.16-7.33,6.63-18.59,13.25-30.81,4.53-12.23-8.72-20.42-19.59-23.55-30.09-4.08-13.68.75-32.88,18.52-38.58,16.3-5.23,39.63,10.55,46.61,27.98Z"/>
  <path class="cls-17" d="M1811.57,358.28c-2.84,5.37-5.19,11.92-2.81,15.91,18.36,30.69,164.37,107.27,145.36,317.34-4.29,47.45,4.46,89.28,21.82,127.32,28.58-.99,38.17,57.07,21.72,72.4,13.57,58.66-20.09,72.49-100.96,41.49l-16.97-7.17c-33.07-114.14-220.97-103.5-298.35-53.63,0,0-2.52,8.72-7.57,26.15,20.32,1.2,33.62,6.29,39.91,15.26l-9.27,18.11c-38.79,11.97-75.52,28.04-110.21,48.19-44.26,9.77-177.03-6.17-192.04-58.18-12.6,3.75-34.29,5.63-38.61-7.47-1.18-9.05,9.6-14.15,32.32-15.32-.04-18.01-5.1-32.29-15.19-42.86-81.41-18.99-188.18-36.97-253.98,26.27-7.36-.89-15.62,1.71-24.78,7.8,4.25,44.03-58.78,75.64-87.69,43.51-6.49,4.08-13.18,5.84-24.17,3.87-7.79-89.75,45.12-148.53,33.52-237.87-13.12-101.01,23.65-193.72,93.33-262.06-.43-14.58,2.79-22.66,9.66-24.26,90.62,62.15,248.19,35.56,355.26-23.88,39.91-22.16,75.29-22.88,120.04-13.72,48.92,10.02,99.93-12.16,147.66-12.13l130.15.09c13.03,0,19.57-7.62,23.37-13.55,15.56-17.91,20.66-11.4,8.47,8.41Z"/>
  <g>
    <path d="M2141.53,466.78c4.58,22.62-.04,38.63-13.88,48.04,1.61,43.41,2.53,85.81,2.77,127.21-11.93,15.02-27.75,25.28-47.46,30.78,4.17,17.25.38,25.36-17.26,20.23l-11.66,6.23c7.53,11.59,8.77,21.55,3.72,29.89,17.54,18.66,25.61,43.33,24.21,74.01l19.17,12.56c-6.98,32.57-10.44,65.15-10.36,97.75,19.05,35.09,3.58,57.59-46.42,67.48,10.33,26.09,7.94,53.35-7.17,81.79,36.27,30.7,21.87,67.49-23.97,74.59-9.47-39.17-15.11-80.04-16.91-122.61l-18.55,2.79c5.61,19.46-2.13,42.42-22.47,49.11-20.12,3.29-55.64-66.33-53.04-81.47,4.41-25.72,14.96-33.03,38.78-20.04,20.16-10.9,38.98-20.48,56.48-28.76-3.62-25.84-.25-44.91,10.11-57.2,2.21-44.97-8.35-65.07-31.67-60.32-20.71-4.3-32.01-22.08-33.92-53.34l-4.7-40.83c22.57-146.64-37.22-251.88-142.49-343.86-5.49-15.88.5-19.76,16.74-22.54,1.78-8.26-.9-11.22-8.47-8.41,4.53,23.25-1.29,25.35-22.18,29.36-84.08-3-166.3.89-249.25,14.69-44.98-10.51-87.47-9.85-127.48,1.98-82.51,44.76-177.79,75.77-272.97,67.42-34.12-2.99-103.5-11.72-104.6-50.26-3.01,2.91-5.7,5.03-7.25,4.4-39.76-16.33-5.82-18.01,1.06,1.01,2.27,6.3.1,13.3-3.47,18.85l-.61,23.46c-66.7,70.88-90.29,164.14-75.21,259.38-11.38,67.7-23.34,135.2-35.88,202.5l9.03,10.72c8.92-.91,17.41,4.11,25.49,15.08,19.71-8.88,43.83-13.33,47.13,11.64,11.1,17.08-7.82,38.78-23.65,47.96-5.95,36.16-7.16,42.36-41.67,17.94-17.31,13.6-23.73,36.78-19.27,69.53l-16.28,10.29c-22.1,3.87-32.48-15.91-31.12-59.35-4.91-31.26-26.98-50.64-50.18-69.65-1.83-31.89-7.39-44.52-16.66-37.88l-49.24-278.67c-12.96-80.54.53-155.1,20.38-230.56-11.27-88.16,84.48-178.12,164.78-226.38-68.04-67.63,15.97-31.87,139.43-100.89C1235.12,6.44,1433.28-24.64,1625.06,20.07c111.71,26.04,228.55,89.02,251.06,202.43,141.23-22.92,247.59,113.05,265.41,244.29Z"/>
    <g>
      <path class="cls-16" d="M1636.48,296.52c-61.57-94.83-173.24-132.5-282.58-118.47-30.55,3.92-58.46,20.2-91.12,9.6,90.65-37.28,195.16-40.32,286.16,4.03,42.94,20.92,85.88,53.28,87.55,104.84Z"/>
      <path class="cls-3" d="M2065.69,693.03l9.43,55.06c-15.16-1.72-3.52-13.56-17.38-18.94l-62.98-99.04,70.93,62.91Z"/>
      <path class="cls-7" d="M1705.63,287.99c-22.81-50.62-46.59-86.49-85.84-121.19,54.53,16.72,84.04,69.46,85.84,121.19Z"/>
      <path class="cls-14" d="M887.87,636.11c-16.01,39.17-43.17,71.59-82.56,97.58,15.26-39.17,45.96-67,82.56-97.58Z"/>
      <path class="cls-5" d="M1026.62,413.06c1.12,11.68-3.08,17.8-9.66,24.26,7.28-27.31-46.06-31.49-60.6-72.45l70.26,48.19Z"/>
      <path class="cls-2" d="M1811.57,358.28c1.81-3.41-4.23-10.5-8.47-8.41l44.07-68.84c6.99,33.33-19.99,55.9-35.6,77.25Z"/>
    </g>
  </g>
  <g>
    <path class="cls-1" d="M2141.53,466.78l5.75,42.38c-5.54,32.28-2.88,71.17,1.19,103.87-6.63,22.31,3.47,52.12-9.95,73-11.38,8.36-12.64,43.42-6.19,61.5l-17.48,106.1c-3.31-.02-5.89.03-5.93.38-2.85,25.26-4.2,50.91-2.73,76.46,1.31,5.77-3.38,20.23,5.38,22.94l21.7,6.72c93.77,29.04,71.57,282.91-32.76,431.55-23.58,33.6-56.55,52.05-97.12,55.4-13.09,99.24-36.06,190.96-95.65,268.95l3.5,122.42c25.41,9.5,46.62,23.04,59.78,45.13l103.91,174.49,507.44,214.53c166.04,70.19,271.6,168.16,325.63,341.95,33.79,108.7,48.69,219.05,56.51,335.05.69,10.3-40.25,11.67-44.33,1.79-29.59-260.52-60.28-506.7-325.41-619.82l-511.26-218.12c-17.82,97.76-51.66,185.55-95.42,271.39l-75.22,147.54c-18.17,9.05-36.04,4.05-47.61-10.75-76.43-97.76-117.56-225.79-145.59-230.67-11.54-2.01-23.7,7.61-42.35,13.22l14.42-43.17c-34.15,29.12-72.12,55.17-89.85,95.34-18.43,41.75-37.09,74.29-68,108.29-56.15,61.75-107.74,135.14-121.36,219.18l-9.11,263.03c-.48,13.94-38.71,14.85-38.69,4.17l.34-216.95c.11-69.71,22.22-132.03,57.92-191.11l-76.47-114.37c-31.58-47.23-24.71-111.81-88.02-135.18-22.33-8.24-39.82-19.71-55.93-36.97-4.09,37.68-35.96,15.3-66.92,87.38-36.78,85.63-126.44,242.52-151.67,184.67l-101.19-232.04c-23.26-53.35-34.05-107.24-41.94-169.94l-477.23,215.27c-255.38,115.19-291.57,351.32-315.18,612.25-18.2,6.03-31.32,6.42-48.44.46,16.24-194.32,47.74-419.77,189.68-555,52.67-50.18,114.42-84.21,181.19-114.03l477.71-213.36,85.58-151.68c16.49-29.24,33.48-55.08,63.96-72.45l-3.71-116.46c-63.28-82.61-90.89-178.61-104.65-282.62-39.98-3-71.28-20.63-93.99-52.54-107.8-151.54-134.24-409.28-34.85-435.17,18.63-4.85,22.34-8.75,27.15-22.25,3.43-9.62,4.92-23.11,14.2-37.73,17.7,23.07,8.44,46.14,14.71,66.68,80.5,55.81,41.25,111.74,69.04,137.94,12.7,7.97,17.05,22.63,13.04,43.98l67.78,389.7c34.68,124.03,124.37,245.79,242.97,297.85,104.97,117.95,352.5,118.53,462.35,7.9,117.1-58.25,207.76-161.14,247.37-286.64l62.27-341.49c6.15-63.37,5.73-126.47-1.25-189.29,7.35,10.26,6.41,6.82-2.82-10.32,4.9-3.71,5.24-7.78,22.57-7.15l9.21,111.48c26.92,4.54,42.11-35.66,30.2-36.8-23.1-2.22-25.53-36.22-1.06-63.44l-13.34-50.32,67.45-26.49c-39.76-84.62,39.74-119.71-31.85-130.07,4.87-32.33,2.43-57.26-3.2-85.58l4.96-5.99c-9.73-15.57-8.74-25.62,2.98-30.14,3.1-1.78,7.12-8.52,4.34-10.25s-14.83-10.93-11.24-16.93l54.83-23.44c20.43-58.32-12.08-125.44,13.35-176.14.24,16.15-1.48,23.83,11.47,32.88l3.08-32.37Z"/>
    <g>
      <path d="M2148.47,613.03c-5.13.25-10.55-2.81-10.55-8.85l.04-87.21c0-5.91,5.06-8.96,9.32-7.8,4.82,35.49,11.72,68.44,1.19,103.87Z"/>
      <path d="M2114.85,853.63c-.95,25.9,1.98,52.35-8.66,76.84-8.32-10.87-10.51-28.88-7.71-47.36l9.92-65.43c9.63,11.15,6.87,24.66,6.45,35.95Z"/>
      <path d="M2138.52,686.03c1.55,21.31-3.31,41.15-6.19,61.5-11.46-3.35-13.16-18.55-11.01-31.65l11.94-72.76c8.94,16.37,4.39,30.86,5.26,42.9Z"/>
      <path class="cls-17" d="M1374.85,2400.2c-22.36-29.6-12.48-125.75-106.01-148.45-94.35-66.16-173.75-149.25-223.2-254.4l-3.7-211.9c43.05,50.68,94.83,80.6,145.13,119.05,48.13,36.79,94.25,65.85,157.32,75.38,93.44,11.49,195.76,13.61,283.46-26.16l141.75-95.55,92.75-83.15,6.02,219.95c-53.39,95.55-127.3,173.08-213.62,240.16-38.34,29.79-73.67,59.14-94.42,104.54l-41.52,77.12-69.59,81.91-74.39-98.5Z"/>
      <path class="cls-17" d="M1819.97,2364.21l-53.33-93.21c-6.99-12.21-22.49-22.01-32.42-19.6l-44.64,10.82c92.31-73.39,173.51-155.7,221.5-262.88,18.33-40.94,13.61-70.85,2.83-113.95l123.91,213.08c-3.02,76.23-35.23,153.87-67.88,220.57l-79.83,163.12-70.14-117.96Z"/>
      <path class="cls-15" d="M1114.47,2288.51c-33.64,65.45-59.27,128.99-105.19,188.85-47.78-95.02-143.78-328.06-120.81-373.18l90.78-178.32c3.79-7.44,13.2-15.49,21.55-17.63-40.27,115.52,102.06,265.68,200.29,347.38-37.14-13.72-67.13-3.67-86.62,32.91Z"/>
      <path class="cls-12" d="M2035.24,1236.06c6.58-61.27,24.77-117.14,70.45-155.87,5.89-4.56,15.45-7.13,17.41-12.44,2.79-7.56-1.62-16.04-6.28-18.45-6.4-3.3-17.38-3.77-23.88,2.33l-40.92,38.45c.78-30.73,5.93-57.68,21.36-81.72,8.65-13.47,28.39-14.69,38.73-9.53,74.13,37.02,26.22,348.34-94.4,400.54l17.54-163.32Z"/>
      <path class="cls-11" d="M842.51,1179.9l37.68,221.72c-30.73-4.36-43.95-21-56.47-40.67-105.12-165.1-93.28-381.73-31.68-363.73,37.02,10.81,55.54,56.77,41.83,94.22-14.72-14.87-22.47-31.7-41.48-40.88-9.41-4.55-19.41-3.93-25.75,6.07-9.65,15.23,62.96,47.34,75.87,123.27Z"/>
      <path d="M2102.19,779.08c-.34,5.86-12.08,8.25-16.16,6.07-4.98-2.66-8.01-13.39-7.14-21.64l4.84-45.91c11.99,18.8,19.93,36.18,18.46,61.48Z"/>
    </g>
  </g>
  <g>
    <path class="cls-17" d="M921.58,1025.99c8.57-1.33,15.1,3.75,19.59,15.24,18.59,133.29,37.17,171.54,175.57,178.38,128.84,6.37,216.11-4.07,262.1-136.75-2.73-82.84,74.75-109.85,124.39-49.33,34.48,119.5,67.83,198.39,211.99,184.34,123.45-.39,210.76-1.98,222.99-141l17.08-10.23c1.88-19.99,5.79-36.49,22.47-49.11,3.13.44,10.17-.84,17.32,2.62l7.36,100.76c4.65,63.63-9.03,124.1-20.41,185.88l-47.16,255.99c-35.14,113.39-111.71,208.72-211.31,272.36-19.51,12.47-37.51,15.68-54.15,33.51-68.59,73.53-191.82,76.49-298.03,67.16-67.74-5.95-125.58-33.83-170.38-85.58-50.14-17.35-89.08-50.73-123.4-90.67-73.48-71.33-118.92-160.52-136-261.91l-58.27-345.83c-2.92-17.34,2.21-32.31,2.71-46.02l3.19-88.05,32.36,8.23Z"/>
    <path class="cls-19" d="M1661.9,1558.08c-141.12,47.88-292.48,48.89-433.17,3.77-11.59-3.72-9.63-20.74-2.11-27.4,8.95-7.93,14.9-3.91,29.91-.45,223.43,51.55,391.52-13.64,403.75-4.14,4.74,3.68,9.54,13.14,1.62,28.22Z"/>
    <path class="cls-13" d="M1521.23,1341.02c15.32-4.47,24.62,5.21,26.16,15.2,3.45,22.46-33.13,14.97-72.68,38.57-33.16,19.78-63.16,4.85-94.39-9.18-21.41-9.62-45.44-12.15-54.21-30.72-14.41-30.52-4.43-73.59,13.47-82.14,25.43-12.15,7.24,27.45,13.43,60.89,24.97,11.28,56.2,30.08,85.42,31.55l82.81-24.16Z"/>
  </g>
  <path d="M1295.91,898.67l-32.22,7.39c-67.44-8.61-134.68-9.16-201.7-1.63,3.61,8.17,17.87,13.14,24.9,10.77,29.01-9.8,44.23,7.87,66.7,12.91,37.57,8.44,79.31-10.48,111.8,19.08-86.61-10.29-163.62-16.9-253.29,2.25l14.52-64.09c-15.46,1.45-18.57,12.66-19.06,33.53-14.46-7.83-7.89-19.92-5.6-29.02,45.3-81.33,179.3-76.23,280.08-50.25,15.66,4.04,23.99,18.89,26.61,32.2,2.15,10.9-.75,21.39-12.74,26.84Z"/>
  <g>
    <path class="cls-9" d="M963.25,1008.05c-1.24-20.75,6-33.07,23.65-47.96,98.87-16.94,209.87-19.1,312.11,4.56,29.83,6.9,47.99,31.51,46.3,60.48-4.46,76.5-31.08,155.97-99.14,164.61-86.33,10.97-223.75,14.16-252.23-37.35-25.38-45.9-27.84-96.5-30.7-144.35Z"/>
    <path class="cls-6" d="M1231.54,1018.03c2.75,26.23.67,47.76-19.11,63.19-15.48,12.07-47.43,14.56-68.85-.8-14.64-10.5-25.94-37.27-16.75-63.61l-67.05,30.52c27.52-77.24,128.08-99.58,192.05-50.75,12.48,9.53,18.98,20.17,19.03,37.09-14.81.31-20.92-6.76-39.31-15.64Z"/>
  </g>
  <g>
    <path class="cls-4" d="M1955.29,1066.63c-7.11,75.54-31.44,142.03-105.86,156.25-71.12,13.58-143.78,13.95-215.45,4.8-44.48-5.67-77.51-30.29-100.61-66.94l-45.7-123.51c-9.03-24.39-73.93-24.71-85.45-2.53-1.52,45.33-15.16,83.38-42.11,118.7-25.49,33.41-43.89,62.09-90.94,70.67-113.85,20.76-298.79,24.6-320.64-74.38l-26.95-123.7c9.59,2.44,12.87-17.11,16.58-32.96l12.36,43.23c4.47-15.33,6.3-22.49,12.73-28.21l16.65,12.12c7.31,127.78,26.13,155.97,150.07,160.15,39.99,1.35,123.32,2.42,152.74-24.05,32.04-28.82,73.43-154.41,23.73-172.31-86.19-31.04-202.09-21.24-292.34-12.06l-27.21-11.81c-11.18,1.92-33.92-11.51-43.32,8.98-2.72,5.93-.13,9.38-10.17,9.26-4.71-.05-9.39-.13-11.26-4.79-.98-2.46,4.09-9.78,6.35-14.05,2.86-5.41-5.87-10.09-10.32-5.56l-10.09,10.27c-4.28,4.36-7.8,5.57-11.86,2.87-17.84-11.88,34.41-18.45,18.05-33.71,38.51-1.27,68.7-9.43,87.69-43.51,7.86.55,2.87,7.98,3.1,7.51,11.75-23.69,24.32-32.31,35.98-3.76-16.73,39.68,4.64,52.91,20.94,10.81,22.36-6.46,146.87-9.91,157.06-.57,1.1,1.01-.77,5.27-3.49,10.45,19.26,5.41,58.68,10.79,86.63,7.16,29.72,5.75,51.84,35.87,82.27,37.26l117.25,5.35c34.47-30.02,71.26-43.13,112-50.73l6.59-7.51-46.49-7.74c-8.2-8.13-10.27-23.74-6.74-33.59,14.66-40.87,142.63-46.31,220.48-37.03,49.74,5.93,89.7,41.23,101.97,87.47l105.12,22.48c-2.99-41.46-2.71-83.55-18.7-118.58,9.35-10.6,6.83-26.54,27.71-30.56,17.33,45.54,26.2,87.69,14.69,140.18l-14.47-40.61c-2.55,24.88,2.02,62.42-16.86,71.92l-49.78,25.05c-6.88-6.67-12.33-13.76-19.33-12.82-2.62,43.17,28.02,51.89,37.39,94.62Z"/>
    <path class="cls-8" d="M1613.72,913.35c-12.55-4.58-30.08-5.51-39.91-15.26l77.33-2.05c58.15-1.08,116.02-11.15,169.91,6.93l-144.06,4.3c-21.38.64-44.74,12.84-63.27,6.08Z"/>
    <path class="cls-14" d="M1295.91,898.67l-32.32,15.32c-4.7,11.81-35.54,4.9-48.03.32-.64-5.54-6.5-8.36-15.09-8.44l-138.49-1.44c54.73-24.77,117.16-6.86,177.43-6.71l56.49.95Z"/>
    <path d="M1215.57,914.31l48.03-.32,38.61,7.47c-14.98,20.75-59.71-5.67-119.54.03,9.55-12.8,22.77-7.13,32.91-7.19Z"/>
    <g>
      <path class="cls-9" d="M1883.78,1157.3c-30.19,44.71-218.01,53.2-283.16,13.75-48.78-29.54-62.12-104.85-63.49-157-2.04-77.36,227.06-76.14,341.82-56.38,56.28,9.69,49,134.21,4.82,199.64Z"/>
      <path class="cls-6" d="M1760.68,1014.45c1.77,29.62-5.1,49.07-16.68,60.71-20.42,20.52-49.87,18.8-67.24,8.99-24.52-13.86-30.02-37.16-24.82-68.84-15.21,5-21.91,18.62-44.7,18.38,7.09-34.37,41.33-57.41,79.02-62.16,55.88-7.05,114.14,18.62,139.1,71.31-31.04,10.5-38.4-18.45-64.68-28.38Z"/>
    </g>
  </g>
</svg>