<?xml version="1.0" encoding="UTF-8"?>
<svg id="Layer_1" xmlns="http://www.w3.org/2000/svg" version="1.1" viewBox="0 0 2995.13 2990.91">
  <!-- Generator: Adobe Illustrator 30.3.0, SVG Export Plug-In . SVG Version: 2.1.3 Build 182)  -->
  <defs>
    <style>
      .st0 {
        fill: #070707;
      }

      .st1 {
        fill: #727272;
      }

      .st2 {
        fill: #0a0a0a;
      }

      .st3 {
        fill: #030303;
      }

      .st4 {
        fill: #f6f6f6;
      }

      .st5 {
        fill: #f4f4f4;
      }

      .st6 {
        fill: #060606;
      }

      .st7 {
        fill: #dadada;
      }

      .st8 {
        fill: #0b0b0b;
      }

      .st9 {
        fill: #080808;
      }

      .st10 {
        fill: #fbfbfb;
      }

      .st11 {
        fill: #fdfdfd;
      }
    </style>
  </defs>
  <path class="st3" d="M2107.89,2071.42c-35.63,270.07-345.28,402.62-602.87,411.06-271.83,8.91-586.61-119.2-632.75-400l-432.49,195.79c-76.63,34.69-146.81,76.34-200.08,141.76-107.2,131.65-146.24,365.5-164.53,541.78-2.02,19.46-44.8,16.72-44.1,2.27,5.99-123.04,27.66-243.83,64.44-362.6,65.82-212.57,162.74-295.42,357.1-382.5l449.2-201.28,82.12-156.3c11.36-21.62,35.2-38.48,51.67-54.53l.66-140.91c-62.01-78.67-89.3-170.58-103.6-273.7-42.71-6.08-75.54-27.03-99.98-64.89-67.16-104.04-98.77-231.02-77.72-353.59,7.26-42.31,39.16-70.98,81.49-71.79l-38.69-316.12c-15.08-123.18,52.98-305.51,189.38-330.9,11.2-69.74,52.68-123.35,114.15-161.13,229.82-141.26,569.18-87.05,808.67,36.26,34.07,17.54,55.83,42.4,45.39,84.89,98.05,21.93,163.37,102.28,183.35,197.25,11.66,55.41,25.67,105.78,18.99,165.64l-35.81,321.24c48.22,4.32,78.31,39.93,85.32,89.41,17.62,124.5-21.39,252.37-95.68,353.82-21.6,29.49-53.19,42.92-88.62,46.38-14.84,98.57-36.89,191.28-96.13,268.34l2.53,139.69c32.73,9.83,52.76,31.5,68.12,60.04l80.86,150.25,275.31,121.04,299.85,136.87c238.83,109.02,295.68,453.98,310.65,701.47-1.85,10.45-42.46,12.57-43.56,1.53-13.77-137.93-33.81-269.97-76.68-399.78-45.38-137.42-138.08-230.93-269.28-289.27l-466.67-207.49Z"/>
  <g>
    <path class="st11" d="M1360.67,2186.8l-155.24-110.08c-48.85-34.64-86.11-77.46-120.56-127.77l-.88-228.76c39.67,49.38,89.72,79.68,137.76,117.36,68.92,54.06,145.54,83.09,235.97,79.06,58.38-3.14,124.05,3.75,178.47-23.73,92.56-46.73,173.76-108.62,248.14-179.86l3.15,230.68c-42.47,60.98-94.9,107.2-155.23,149.2l-124.62,89.54c-35.04,25.17-39.03,76.78-64.26,110.89l-63.67,86.05-64.68-84.81c-22.38-29.35-18.75-82.53-54.34-107.77Z"/>
    <path class="st11" d="M1823.97,2358.78c-45.16-90.14-16.74-193.43-108.16-202.45,108.53-73.59,217.6-153.86,239.45-280.16,22.78,69.57,77.91,118.89,90.81,182.43,14.25,70.2-42.34,154.16-86.35,203.19-39.15,43.61-84.63,64.69-135.75,96.99Z"/>
    <path class="st11" d="M1175.61,2216.2l-35.11,141.61c-56.07-36.05-114.26-68.77-153.69-128.07-27.43-41.25-63.77-112.84-51.72-164.7l86.98-188.5c9.05,120.63,110.72,202.42,214.51,277.76-31.15,7.15-52.36,27.2-60.96,61.89Z"/>
    <path class="st10" d="M1782.22,2376.27c-93.44,39.92-186.68,60.78-281.45,59.07,17.88-54.7,54.12-80.87,80.29-120.47,21.35-32.31,26.16-77.42,57.44-101.3l72.57-55.42-15.84,33c70.88,1.15,46.51,93.01,86.99,185.13Z"/>
    <path class="st10" d="M1453.88,2433.26c-92.99,5.06-180.4-19.19-269.64-53.74l34.31-157.31,34.66-52.84,74.67,46.87c31.1,19.52,33.49,67.93,48.47,102,26.54,35.08,58.75,56.87,77.53,115.02Z"/>
    <path class="st4" d="M2045.95,1226.09c56.82-28.31,63.12-77.27,43.06-129.55-16.95-44.15,83.36-89.69,43.58-102.03-5.43-1.69-14.16-2.23-22.11,5.59l-40.31,39.6c5.15-56.83,17.83-101.02,57.33-96.31,62.91,7.5,54.74,210.95-36.05,355.56-13.1,20.87-28.87,37.49-57.54,41.97l12.05-114.82Z"/>
    <path class="st5" d="M870.22,1089.98c-27.14,51.07-15,109.07,33.54,137.24l16.47,117.57c-124.19-58.54-165.17-379.81-93.4-400.09,14.95-4.22,35.98,4.65,42.3,21.32,9,23.74,11.93,45.92,13.39,73.16l-43.78-42.49c-5.3-5.15-14.18-3.1-18.47-2.24-32.63,6.5,35.91,36.49,49.95,95.54Z"/>
    <path class="st7" d="M1838.1,340.89c.48-1.88-2.48-4.26-4.61-2.97,3.38-5.47,20.75-27.12,13.87-37.4-57.12-85.49-172.08,25.86-262.58,12.47l160.68-56.46c74.89-26.31,118.51,39.26,116.38,38.21,5.72,2.81,13.77-.21,24.26-2.8-12.75,22.39-27.84,37.65-48,48.95Z"/>
    <path class="st1" d="M895.72,1181.18c-15.35-14.18-18.7-44.08-3.05-69.13,12.42,21.98,10.61,40.07,3.05,69.13Z"/>
    <g>
      <path class="st11" d="M1833.49,337.92c5.11-7.09,6.58-5.93,4.61,2.97-5.15,20.18,6.06,26.07,17.29,36.71,106.62,101.06,120.06,175.02,114.92,310.87-1.78,47.1,20.02,86.1,32.58,129.14l15.83,199.85c2.36,29.79,9.7,53.98,4.95,85.25l-46.29,304.27c-26,170.92-123.42,307.27-270.92,390.85-44.78,25.37-74.64,65.61-133.6,66.87l-171.9,3.67c-63.2,1.35-103.02-34.14-152.2-65.95-111.73-72.26-209.17-167.81-247.7-300.48l-59.23-306.59c-10.84-56.11-14.95-108.83-10.84-166.14l15.5-216.02c14.97-53.07,32.56-99.27,26.57-156.76-9.64-92.65,23.65-180.13,81.65-249.92,45.47-54.72,110.23-71.28,178.18-50.6,176.87,53.83,360.03,47.74,533.36-14.34,21.38,1.14,49.74,14.69,67.24-3.65Z"/>
      <g>
        <path class="st2" d="M1334.76,852.25c-59.04,18.73-160.79-32.73-277.9,25.19-5.24,2.59-12.35.45-14.87-1.26-22.45-15.25,33.02-80.09,83.86-87.79,71.26-10.79,192.49-8.4,214.66,28.3,4.89,8.09,6.69,31.63-5.74,35.57Z"/>
        <path class="st9" d="M1909.24,881.13c-92.64-35.31-176.73-42.64-268.1-22.35-15.79,3.51-34.86-.78-40.53-10.28-9.41-15.77-.53-39.91,17.26-47.58,46.77-20.16,96.93-16.08,148.67-17.82,62.24-2.1,128.68,21.89,142.7,98.03Z"/>
        <path class="st8" d="M1548.14,1276.47c14.63-4.74,23.15,4.77,24.81,13.47,4.45,23.38-29.92,18.92-74.93,42.87-31.15,16.57-56.17-2.46-84.8-11.2-35.18-10.75-63.12-34.33-53.79-77.51l57.67-266.92c.8-3.71,17.43-4.63,19.25-1.69,20.2,32.48-27.54,198.05-47.86,286.12,24.06,20.71,60.73,46.94,90,37.45l69.64-22.58Z"/>
        <path class="st2" d="M1686.9,1479.93c16.91,64.85-486.5,54.12-417.59-4.5,7.14-6.07,12.86-6.18,25.42-3.74,125.21,24.32,250.84,20.41,375.64-4.64,8.38-1.68,15.38,8.47,16.54,12.88Z"/>
        <path class="st0" d="M1790.45,965.47c-3.47,29.21-8.09,49.7-23.71,62.41-18.82,15.31-45.3,15.08-63.22,5.34-23.3-12.67-29.29-37.32-25.58-68.55-16.4,10.51-28.39,24.45-43.59,10.22,25.34-42.07,71.03-59.99,116.86-52.67,36.62,5.85,85.24,28.51,95.52,72.04-24.87,4.93-34.83-13.59-56.27-28.79Z"/>
        <path class="st6" d="M1268.69,973.18c4.07,21.29-5.74,41.71-15.22,51.16-22.77,21.79-49.78,16.29-67.27,9.22-24.01-15.05-29.11-36.93-26.54-69.1-22.27,7.54-32.66,31.59-63.2,32.02,8.72-41.51,50.77-61.21,86.74-70.16,39.7-9.88,81.85-3.8,109.61,29.39l8.85,10.58c2.74,3.27,2.89,14.74-1.05,16.45-4.27,1.86-16.19-1.15-31.93-9.55Z"/>
      </g>
    </g>
  </g>
</svg>