<?xml version="1.0" encoding="UTF-8"?>
<svg id="Layer_1" data-name="Layer 1" xmlns="http://www.w3.org/2000/svg" viewBox="0 0 2928.44 2933.2">
  <defs>
    <style>
      .cls-1 {
        fill: #070707;
      }

      .cls-2 {
        fill: #f6f6f6;
      }

      .cls-3 {
        fill: #060606;
      }

      .cls-4 {
        fill: #0b0b0b;
      }

      .cls-5 {
        fill: #fafafa;
      }

      .cls-6 {
        fill: #fdfdfd;
      }

      .cls-7 {
        fill: #090909;
      }
    </style>
  </defs>
  <path d="M2144.36,935.03c23.32,12.12,11.38,45.86-13.76,33.66-18.3,18.92-34.33,40.03-48.08,63.32l-11.43.14c-26.2,15.24-41.13-19.62-44.73-43.67,10.49-76.37,5.33-148.16-15.48-215.36-13.42,7.04-21.88,5.98-25.39-3.19-3.01-69.68-1.77-139,3.74-207.95-3.05-19.61-5.67-30.69-26.76-27.14l-14.74-17.07-21.61-8.49c-48.59-98.59-88.79-123.68-193.33-120.85l-263.76,21.67-220-22.19c-219.16-1.47-249.43,159.19-248.76,348.59l-15.78,10.2c-6.51,12.21-11.09,26.02-13.75,41.45-40.88-7.24-35.78,47.29-30.7,79.47-8.39,29.22-5.51,43.27,8.64,42.16,5.42,6.85-1.87,170.95-10.2,173.57-7.16,2.25-14.33-6.27-17.4-14.01-3.32-51-13.07-65.77-29.24-44.29-23.16,1.51-41.52-37.95-27.76-55.4-34.68-4.44-45.36-13.45-32.04-27.02,22.59-6.63,24.39-16.33,5.39-29.11l-25.17-249.03c-7.37-72.95-3.9-145.84,26.24-212.51-4.77-5.03-15.26-15.73-13.35-22.64,28.12-101.3,97.69-175.92,190.06-224.11-14.11-5.62-39.19-16.64-36.17-27.11,61.7-57.36,137.78-81.66,222.95-93.28-13.75-20-28.17-35.79-22.72-61.39l216.4,12.3-10.97-25.71c-1.48-3.46,3.32-11.19,10.76-9.88l296.63,52.37c69.82,12.33,130.93,44.14,186.63,88.04,1.84-21.01-6.48-37.08,2.44-60.54,46.2,26.83,68.03,75.71,76.86,131.16,32.17-7.51,64.21-12.99,87.01,10.2l-50.82,31.64c75.08,25.6,117.3,90.71,148.54,162.11,7.8,17.81,3.64,30.67-4.99,43.73,16.2,64.52,25.59,125.55,19.18,191.49l-26.22,269.52c-.97,9.95,8.36,13.94,13.64,15.16Z"/>
  <g>
    <path class="cls-3" d="M2928.44,2929.54c-9.35-120.8-33.55-237.56-73.03-352.98-51.03-149.19-161.16-248.45-307-304.53l-432.49-166.31c-32.35,149.03-169.46,268.57-305.18,324.34-198.5,81.56-417.48,84.4-619.86,15.52-152.87-59.96-296.5-170.31-332.12-337.86l-471.43,186.02c-256.88,101.36-310.8,378.41-344,632.39-1.52,11.64-43.74,7.7-43.33-3.14,24.8-261.41,94.44-562.77,356.13-666.91l323.46-128.73c102.28-40.71,198.29-76.59,298.57-124.38,14.51-6.92,59.58,2.75,60.05-25.21l4.97-297.45c-61.08-80.35-84.79-171.23-99.5-269.12-42.23-5.57-74.25-26.5-96.39-62.04-81.97-131.57-128.87-370.89-31.1-413.08,13.99-6.04,22.83-9.66,21.22-22.55,7.22-2.52,23.48-2.33,27.35,3.1,5.51,7.73,1.85,24.47-4.4,27.24l-28.71,12.73c13.79,3.64,24.63,2.4,32.42,13.06-4.43,9.81-13.37,15.59-26.82,17.36-19.8,14.79-11.81,22.03,23.98,21.72,13.55,17.37,23.75,22.81,30.6,16.33l1.97-40.04c9.24-2.39,17.72-2,21.17.16,14.35,25.46,16.67,60.44,23.61,91.77l4.87-157.19c-14.21,4.12-20.82,3.86-29.16-8.05,15.3-33.58,11.15-64.71,1.85-99.75,27.06-26.96,31.26-57.23,43.75-88.81l8.86,57.48c10.24-8.01,5.15-19.34,5.2-26.21.02-3.38,4.3-7.9,10.54-7.71l13.13,12.23-24.47,101.51c-2.62,94.56-8.59,188.81-17.91,282.77l56.99,325.81c30.65,133.7,109.88,253.92,232.9,318.59,117.56,116.5,348.71,118.33,467.76,3.4,121.94-62.75,202.89-178.69,237.39-309.7l60.1-349.93c-8.32-84.09-14-168.46-17.05-253.11-25.88-105.84-40.51-213.21-43.9-322.11-12.68-15.77-13.24-28.57-1.69-38.39,7.4,5.59,24.93-.61,33.92,1.99,30.26,8.75,31.57,86.99,9.31,145.34l-4.84,103.23c11.15-5.48,12.46-13.26,15.98-21.38,44.05,15.25,47.17,107.55,41.61,174.07l-6.42,76.79,33.81,34.33,9.96,4.12c11.39-26.16,33.66-34.84,60.69-26.44-13.2-15.81-16.91-29.52-11.14-41.15,10.61-6.8,10.8-21.61,13.76-33.66,34.17,7.9,53.94,46.28,58.18,85.04,12.67,115.82-22.79,228.78-82.49,327.24-23.14,38.17-58.93,53.75-97.34,64.53-16.35,94.75-38.75,190.64-97.08,266.26l3.94,283.79c.5,35.72,30.04,38.98,56.71,41.34,41.09,3.63,76.13,32.81,113.82,47.14l248.83,94.57,284.45,114.28c125.26,60.62,216.41,160.25,263.12,291.57"/>
    <g>
      <path class="cls-2" d="M2130.6,968.68c8.4,9.95,24.3,22.29,26.73,40.28,14.89,110.34-13.61,218.52-71.28,312.81-12.75,20.85-29.65,37.64-56.15,41.81l18.18-123.99c45.82-27.47,44.83-72.59,37.12-119.17-6.09-36.77,33.87-63.81,60.15-89.73-32.56-24.06-54.14,6.91-69.64,34.5-8.12-9.13-7.62-26.17-4.61-33.06l15.96-36.53c8.98-20.57,24.66-31.32,43.56-26.94Z"/>
      <path class="cls-2" d="M864.07,969.65c11.82,16.18,20.6,37.61,27.76,55.4,3.12,7.74,2.04,22.56,1.51,36.86l-34.32-36.24c-5.53-5.84-15.84-5.81-21.86-5.19-4.62.48-13.54,9.73-9.19,15.81,19.61,19.67,59.46,50.06,52.7,83.08-9.71,47.38-10.58,94.94,36.27,123.66l16.96,121.56c-37.63-11.54-55.98-42.24-71.92-75.61-42.17-88.35-68.02-183.68-52.75-281.31,2.27-14.52,11.22-27.34,19.01-33.27,10.17-7.74,23.79-6.74,35.83-4.75Z"/>
      <path class="cls-6" d="M1905.59,2046.49l30.61-7c7.21-1.65,27.36,10.29,24.07,21.61-80.68,278.12-609.41,362.88-864.07,134.74-80.1-71.76-97.29-158.61-68.15-154.69l30.3,4.07c21.55-8.97,23.26-41.3,23.91-62.39l7.59-245.55c41.42,48.67,90.29,78.55,138.22,114.92,46.93,35.61,93.71,63.7,154.39,72.46,64.55,9.56,131.75,9.87,196.36-.05,61.74-5.31,107.51-36.74,154.7-71.58,50.42-37.22,101.45-66.9,146.22-117.24l6.2,207.68c1.05,35.01,2.37,68.52,19.64,103.03Z"/>
      <path class="cls-5" d="M2084.61,2092.65c-36.53,166.15-191.78,280.47-351.57,329.87-167.28,51.72-342.63,50.38-509.92-2.92-151.43-48.25-305.44-168.17-332.13-325.55l77.28-35.91c17.84,121.11,130.12,216.47,246.35,261.73,193.44,75.33,413.61,67.4,597.27-28.35,95.58-49.83,165.76-126.68,194.11-232.97l78.63,34.08Z"/>
      <path d="M2058.58,1076.1c-46.44,50.34,22.49,92.01-10.03,113.37-14.56-31.87-10.88-62.98-15.64-95.54-4.19-28.64-11.52-55.24-1.33-81l9.22,49.77c3.52,1.28,9.24-2.59,11.48-3.99,3.72-2.32,11.64,11.6,6.29,17.39Z"/>
    </g>
  </g>
  <g>
    <path class="cls-6" d="M1947.72,517.77l16.73,34.93,16.84,203.14,27.47,120.36,10.28,191.35c1.55,28.87,10.48,54.23,5.4,84.19l-47.46,280.02c-26.31,155.2-112.75,298.67-255.01,371.87-66.22,66.76-148.47,85.88-241.41,85.97-94.88.09-177.94-21.45-244.63-89.45-136.58-71.75-219.49-210.32-245.33-359.36l-49.6-285.97c-6.09-35.11,5.85-61.39,7.36-94.17l9.38-202.45,26.75-111.47,1.31-84.62c1.36-88.24,27.65-171.03,87.43-235.7,50.29-54.41,124.25-59.22,196.43-52.57l143.15,13.2c50.55,14.58,91.79,4.03,142.13-.04l117.31-9.49c131.35-10.63,196.86-23.92,275.5,140.29Z"/>
    <g>
      <path class="cls-1" d="M1356.08,861.18c-3.77,50.34-92.23,8.32-210.12,21.07l-99.1,24.9c12.55-68.2,74.21-101.15,136.76-97.82,82.01,4.36,176.74-5.35,172.46,51.85Z"/>
      <path class="cls-3" d="M1825.2,883.64c-124.4-19.19-214.75,28.52-221.4-22.64-2.17-16.7,7.62-35.98,28.57-40.2,62.29-12.55,126.17-15.73,190.68-6.73,43.43,6.06,82.64,47.96,89.43,89.53-32.04,5.02-56.88-15.27-87.28-19.96Z"/>
      <path class="cls-4" d="M1559.27,1303.02c12.51-4.07,21.77,1.12,24.96,11.52,7.5,24.42-30.69,16.79-79.25,43.33-29.87,16.33-54.6-3.09-82.21-12.72-31.89-11.12-64.1-34-52.47-73.96,25.92-89.05,46.37-178.2,57.33-270.55,3.3-9.9,11.83-9.39,15.29-6.79,29.22,21.89-22.78,201.71-42.97,295.05,22.06,19.08,58.74,46.83,87.81,37.38l71.5-23.24Z"/>
      <path class="cls-7" d="M1678.36,1524.97c-130.23,30.98-264.01,31.1-394.02-1.06-8.8-2.18-15.7-9.15-15.98-14.16-.32-5.64,3.26-13.03,12.77-21.2,127.3,26.9,258.01,29.76,387.54,2.09,14.08-3.01,22.4-1.62,26.21,11.32,2.51,8.53-3.12,19.82-16.52,23.01Z"/>
      <path class="cls-3" d="M1786.69,991.52c3.37,25.11-4.37,49.09-21.1,61.34-17.66,12.94-45.67,11.54-62.3-.09-19.38-13.55-23.64-35.3-19.93-63.74-15.76,8.7-23.21,23.12-45.43,21.68,6.14-37.25,38.46-57.47,74.55-63.3,51.14-8.26,105.17,15.68,135.35,57.68,4.33,6.03-9.4,17.98-13.56,14.76-14.34-11.12-23.11-23.68-47.57-28.35Z"/>
      <path class="cls-1" d="M1285.4,1000.05c-4.76,20.53-13.17,45.31-27.69,53.61-21.18,12.12-46.8,10.71-62.22-1.24-18.23-14.13-21.86-36.71-20.25-63.46-22.5,9.7-32.38,32.74-62.61,30.73,13.4-41.6,50.72-62.84,83.7-69.67,42.32-8.76,83.84.1,112.8,31.58l7.34,13.14c2.08,3.73-.91,10.89-3.82,12.07-4.27,1.73-18.7-4.63-27.25-6.76Z"/>
    </g>
  </g>
</svg>