<?xml version="1.0" encoding="UTF-8"?>
<svg id="Layer_1" data-name="Layer 1" xmlns="http://www.w3.org/2000/svg" viewBox="0 0 2960.5 2978.38">
  <defs>
    <style>
      .cls-1 {
        fill: #040404;
      }

      .cls-2 {
        fill: #1c1c1c;
      }

      .cls-3 {
        fill: #919191;
      }

      .cls-4 {
        fill: #929292;
      }

      .cls-5 {
        fill: #c3c3c3;
      }

      .cls-6 {
        fill: #060606;
      }

      .cls-7 {
        fill: #bebebe;
      }

      .cls-8 {
        fill: #050505;
      }

      .cls-9 {
        fill: #cdcdcd;
      }

      .cls-10 {
        fill: #f9f9f9;
      }

      .cls-11 {
        fill: #bcbcbc;
      }

      .cls-12 {
        fill: #dedede;
      }

      .cls-13 {
        fill: #101010;
      }

      .cls-14 {
        fill: #1f1f1f;
      }

      .cls-15 {
        fill: #747474;
      }

      .cls-16 {
        fill: #f8f8f8;
      }

      .cls-17 {
        fill: #0c0c0c;
      }

      .cls-18 {
        fill: #dcdcdc;
      }

      .cls-19 {
        fill: #fdfdfd;
      }
    </style>
  </defs>
  <path d="M2668.84,2400.16c216.25,128.53,280.03,325.17,291.66,577.84L0,2978.38c-1-226.13,78.32-441.46,274.21-559.69,71.44-43.12,145.05-70.36,222.32-101.87l380.5-155.16c38.31-15.62,70.64-43.09,111.48-52.28,32.11-7.22,62.48-16.93,88.75-38.74,13.71-93.72,11.19-184.14,10.94-282.29-80.34-78.71-123.4-177.08-141.67-292.16-57.92,4.41-101.02-18.65-138-58.69-77.56-83.99-115.43-200.52-96.56-314.4,8.4-50.71,39.18-86.07,88.99-103.15-26.88-64.39-29.94-127.54-46.91-188.43-57.52-51.15-50.86-131.82-17.96-206.53-63.39-9.1-104.59-62.1-86.88-81.28,6.65-7.2,83.59,1.49,90.27-38.9,13.58-82.02,52.94-147.59,131.69-193.23-60.38-41.06-64.64-109.53-38.75-112.16,15.21-1.55,36.16,52.69,132.55,35.33,2.08-87.11,72.29-124.61,139.49-157.46,46.29-22.63,132.97-138.75,276.27-34.47,103.51-57.76,226.61-47.14,321.19,21.61,58,42.16,148.41,48.93,206.89-8.58,23.85,38.28,7.5,72.45-19.92,104.48,104.31-2.16,195.67,43.07,237.87,133.35,8.49,18.15,10.97,33.52-5.92,49.85,98.06,88.7,58.59,196.64,178.89,187.26-7.11,49.66-42.84,68.69-87.34,78.65,31.6,64.16,37.22,135.28,7.62,200.22-5.19,5.09-23.81,11.82-24.5,20.57-5.27,67.2-19.74,128.12-36.59,192.7,47.25,9.63,78.53,43.65,87.93,89.88,23.34,114.81-12.46,238.98-91.35,324.29-36.91,39.91-80.02,64.72-134.64,55.75l-31.09,110.9c-19.83,70.73-57.94,130.06-110.52,181.53-2.98,94.17-1.32,183.27,8.52,277.34,26.77,29.53,64.97,37.92,102.39,46.65l86.38,40.81,419.05,170.08c60.73,24.65,117.06,46.59,173.25,79.99Z"/>
  <g>
    <path class="cls-19" d="M1952.98,2152.55c-34.72,77.39-94.78,135.82-169.91,175.84-183.61,97.79-406.91,100.53-592.01,5.7-79.41-40.68-142.05-100.9-177.31-180.21,25.09-23.2,54.27-24.16,80.53-34.23,37.79-14.48,31.93-196.33,37.43-286.83,42.75,40.04,80.78,67.39,124.66,96.55,149.3,99.21,344.04,88.55,484.36-21.79l95.06-74.75c.55,91.65,1.66,171.54,16.13,256.19,8.27,48.36,52.5,19.35,101.04,63.54Z"/>
    <path class="cls-16" d="M2049.73,1357.17c23.12-18.13,55.64-29.89,64.7-52.19,15.79-38.85,7.88-60.83-6.26-96.3-9.66-24.22,36-60.67,58.53-43.89,10.78-16.88,4.41-22.13,1.12-26.58-21.54-29.15-57.82,3.22-93.28,45.85,5.96-40.71,15.78-78.2,39.74-109.54,11.18-14.62,37.3-14.64,52.73-7.59,72.7,33.24,72.2,241.85-60.5,361.28-22.09,19.88-47.79,29.96-78.67,25.81l21.9-96.84Z"/>
    <path class="cls-10" d="M786.12,1152.47c36.36,10.92,46.78,6.75,73.75,53.73-23.77,26.94-25.94,57.79-15.17,88.78,9.49,27.32,33.28,50.62,70.45,55.92l21.2,104.5c-166.99-3.56-245.03-328.5-146.29-386.74,16.48-9.72,46.14-9.92,58.27,6.72,21.1,28.95,32.28,62.66,35.22,102.01-20.42-16.8-30.71-33.89-52.64-45.8-17.19-9.33-44.16.56-44.77,20.88Z"/>
    <path class="cls-5" d="M1953.84,2358.1c-222.59,219.37-641.47,231.94-882.49,52.7-8.07-12.23-3.91-12.8,9.06-7.06,213.64,140.82,479.74,153.54,711.2,51.2,61.73-27.29,115.7-60.25,157.5-107.12,14-4.95,12.42-1.69,4.73,10.27Z"/>
    <path class="cls-12" d="M1319.04,50.36c-61.12,8.98-109.68,33.28-161.95,69.65,24.44-64.58,95.89-95.14,161.95-69.65Z"/>
    <path class="cls-11" d="M1408.98,473.13c84.38-24.28,149.85-64.43,173.47-150.3-2.37,85.84-84.08,157.01-173.47,150.3Z"/>
    <path class="cls-3" d="M1080.41,2403.75l-9.06,7.06c-45.12-33.55-90.24-71.88-118.62-125.27,45.25,41.1,77.69,85.26,127.69,118.21Z"/>
    <path class="cls-9" d="M2058.93,1314.77c-3.79-25.13,2.8-51.8,13.07-82.1,19.11,7.49,22.27,24.46,20.37,37.85-2.13,15.03-8.3,29.57-33.45,44.25Z"/>
    <path class="cls-18" d="M907.57,1314.24c-15.93-2.34-26.48-18.04-30.99-29.1-7.44-18.26-6.89-44.66,14.12-55.56l16.87,84.66Z"/>
    <path class="cls-7" d="M1353.9,616.7c-30.59,34.39-79.11,40.95-117.95,16.26,42.15,1.17,73.54-3.96,117.95-16.26Z"/>
    <path class="cls-4" d="M1953.84,2358.1l-4.73-10.27,77.02-86.36c-15.19,39.21-43.05,67.81-72.3,96.63Z"/>
    <path class="cls-15" d="M2095.86,786.28c-26.72-.49-53.79-17.67-70.71-45.6,26.05,10.19,45.67,18.84,70.71,45.6Z"/>
    <g>
      <path class="cls-19" d="M1478.09,576.63c24.56,8.39,18.19,17.58,4.05,34.37-36.38,21.88-41.02,38.44.76,11.49,8.83-27.66,22.86-40.02,42.08-37.07,45.63,8.56,86.01-15.59,124.82-38.62,2.47-1.46,97.24,16.25,129.02,70.34,52.96,90.17-7.15,140.33-3.35,151.61,12.02,35.68,93.43,3.13,135.36-73.45,2.53,53.72,55.36,70.11,77.75,98.61,10.75,37.65,24.45,77.89,38.62,116.26,16.87,45.69-2.11,106.07-.43,153.25l4.27,119.7c-8.7,128.75-39.78,251.49-69.55,376.42-16.26,68.25-49.19,129.35-95.73,180.82-136.38,150.8-304.24,268.55-505.8,194.75-86.49-31.67-154.04-89.44-219.89-150.07-72.19-66.47-120.85-147.8-142.87-244.45-27.08-118.86-56.6-235.07-65.98-357.51l4.26-109.99c-5.87-61.73-6.43-122.53-1.61-184.03,29.73-36.5,46.29-74.65,43.44-122.87,83.3-37.79,86.33-106.07,131.7-151.18,45.08,49.74,100.48,73.82,163.68,73.06,120.31-1.44,157.01-120.53,205.4-111.46Z"/>
      <g>
        <path class="cls-2" d="M1524.98,585.43c-15.51,3.48-14.34,10.01-16.86,22.38-7.07,34.66-54.06,58.8-83.73,32.21,21.03-32.82,66.99-39.4,53.7-63.39l46.89,8.79Z"/>
        <path class="cls-6" d="M1348.38,980.09c-15.86,50.49-131.46-34.06-314.03,26.69-23.88,7.94-8.81-73.8,80.58-88.47,99.05-16.25,252.64.69,233.45,61.77Z"/>
        <path class="cls-8" d="M1927.74,1003.69c-176.89-51.49-290.19,18.56-308.92-17.83-30.61-59.5,108.1-82.79,217.03-70.52,95.72,10.78,126.67,98.48,91.89,88.36Z"/>
        <path class="cls-1" d="M1264.15,1101.5c10.35,59.89-10.81,111.83-54.09,110.48-16.88-.52-34.92-10.61-43.62-28.96-13.22-27.88-11.92-56.86.02-88.32-28.41,5.49-44.23,23.23-73.96,32.17,17.2-42.1,59.32-60.99,99.24-65.53,43.26-4.92,89.43,8.76,115.98,51.9-17.24,9.29-25.67-3.37-43.58-11.75Z"/>
        <path class="cls-6" d="M1791.4,1192.45c-10.05,12.93-24.48,19.13-37.64,19.3-15.17.19-31.63-7.99-40.85-23.2-16.43-27.09-18.01-52.38-9.11-89.61-20.3,8.27-29.08,21.74-49.47,19.56,22.1-41.13,65.78-59.26,106.63-57.56,43.53,1.81,90.63,16.68,113.79,62.93-30.15,3.88-39.66-25.86-75.84-29.56,13.18,32.47,14.79,69.46-7.51,98.13Z"/>
        <path class="cls-17" d="M1660.48,1595.9c-20.95,50.69-347.9,43.13-350.29.61-.23-4.02,7.45-13.71,14.53-12.49,111.33,19.26,219.16,17.94,330.16-2.39,4.12-.75,6.6,11.84,5.6,14.26Z"/>
        <path class="cls-13" d="M1559.32,1416.34c12.27,24.69-62.54,53.25-124.37,25.98-31.6-13.93-47.22-44.88-31.56-78.55,29.62-63.7,26.79-132.44,44.88-203.72,25.32,79.18-18.93,152.1-16.92,227.65,1.05,39.37,79.01,41.24,103.29,23.9,8.54-6.1,22.47.3,24.68,4.73Z"/>
        <path class="cls-14" d="M1538.7,1698.29c-32.04,26-72.74,22.94-105.9.67l105.9-.67Z"/>
      </g>
    </g>
  </g>
</svg>