<?xml version="1.0" encoding="UTF-8"?>
<svg id="Layer_1" data-name="Layer 1" xmlns="http://www.w3.org/2000/svg" viewBox="0 0 2833.02 2978.38">
  <defs>
    <style>
      .cls-1 {
        fill: #070707;
      }

      .cls-2 {
        fill: #040404;
      }

      .cls-3 {
        fill: #7c7c7c;
      }

      .cls-4 {
        fill: #0a0a0a;
      }

      .cls-5 {
        fill: #efefef;
      }

      .cls-6 {
        fill: #c1c1c1;
      }

      .cls-7 {
        fill: #a5a5a5;
      }

      .cls-8 {
        fill: #c9c9c9;
      }

      .cls-9 {
        fill: #b3b3b3;
      }

      .cls-10 {
        fill: #0b0b0b;
      }

      .cls-11 {
        fill: #121212;
      }

      .cls-12 {
        fill: #646464;
      }

      .cls-13 {
        fill: #151515;
      }

      .cls-14 {
        fill: #b8b8b8;
      }

      .cls-15 {
        fill: #080808;
      }

      .cls-16 {
        fill: #d5d5d5;
      }

      .cls-17 {
        fill: #f2f2f2;
      }

      .cls-18 {
        fill: #f8f8f8;
      }

      .cls-19 {
        fill: #0c0c0c;
      }

      .cls-20 {
        fill: #dbdbdb;
      }

      .cls-21 {
        fill: #8c8c8c;
      }

      .cls-22 {
        fill: #9f9f9f;
      }

      .cls-23 {
        fill: #fdfdfd;
      }

      .cls-24 {
        fill: #090909;
      }

      .cls-25 {
        fill: #686868;
      }

      .cls-26 {
        fill: #7b7b7b;
      }
    </style>
  </defs>
  <path class="cls-23" d="M1256.44,2480.03l-8.3,7.09c-13.47,4.72-31.68,2.48-54.62-6.73-73.32,61.68-143.4,128.45-210.25,200.31-18.06,9.91-24.83,10.39-38.3-5.68-25.91-30.9-63.08-142.23-77.15-186.43-16.77-52.67-43.41-140.4-41.78-193.68.14-4.63,4.15-9.15,9.26-13.63-3.58-34.6-1.49-67.56,6.25-98.86l93.58-121.53c-15.94-9.47-5.12-21.87,10.65-13.23,7.85-31.18,50.6-56.76,83.85-58.89,9.23-26.46,37.57-22.32,43.69,7.55,5.18,25.3-6.33,70.29-36.03,67.97-28.47-34.67-18.46,40.72-11.87,58.64,50.87,138.19,132.87,237.7,235.96,338.74l-4.95,18.37Z"/>
  <path class="cls-23" d="M1892.88,2062.6l87.45,111.75c21.95,38.81,24.5,86.23,7.65,142.27,5.19,6.42,9.22,12.82,9.14,19.18-.74,61.95-72.92,284.48-108.66,334.58-13.11,18.37-19.27,21.79-39.41,12.94l-198.15-196.59c-19.27-5.2-39.43-7.8-60.48-7.79-4.39-4.1-7.6-8.34-8.86-13.17l11.03-31.27c97.3-98.75,223.2-237.61,213.2-381.03-28.91,9.42-43.82,2.65-44.73-20.3,11.98-3.8,14.71-13.5,8.18-29.1.08-6.73,5.1-15.83,5.44-21.62,8.74-19.39,42.72-5.7,58.07,2,25.9,12.99,69.98,49.25,60.13,78.15Z"/>
  <path class="cls-1" d="M1502.82,2516.7c18.38-33.05,47.74-27.3,36.42,10.05-41.99,112.08-84.99,223.68-105.3,345.6-2.6,15.62-8.52,26.91-22.78,25.03-12.7-1.67-13.31-12.75-15.22-25.18-17.79-115.72-56.3-223.01-99.09-331.01-10.31-26.02-24.25-43.38-40.42-61.17l-39.9-43.9c-84.83-80.2-154.13-173.7-197.57-282.48-26.83-67.17-18.12-121.94,7.59-116.38,7.06,1.53,13.6,9.62,18.43,18.94,11.65-25.35,9.39-42.11,13.53-70.31-10.17-1.08-20.68.18-28.9,2.84-32.45,2.11-76.05,27.03-83.85,58.89l-10.65,13.23-19.35-14.68c16.64-45.35,50.57-68.39,95.85-77.56,15.06-3.05,28.73-15.86,48.77-5.5l10.95-139.59c3.75-4.49,9.73-9.41,15.33-9.65l2.14,171.11,7.29-7.3-1.14-163.93c-.04-6.11,4.55-9.59,8.02-8.69,26.12,45.19,20.07,126.13,14.09,179.99-5.73,51.65-14.99,107.28-46.8,149.5,49.89,117.4,132.82,216.94,224.93,301.93,54.69,82.97,95.86,171.81,123.5,266.52l59.04-169.93,25.09-16.4Z"/>
  <path class="cls-10" d="M1248.14,2487.12c8.25,6.08,20.13,31.29,3.93,35.12-16.21,3.6-34.28-18.86-53.22-21.37l-205.98,203.23c-17.31,17.08-51.39,20.39-64.01-4.38-69.97-137.28-116.72-283.13-133.45-437.56-.76-7.06,2.54-19.5-1.76-23.09-2.34-1.95-10.21-1.12-12.27.35,12.41-5.23,21.87-17.38,39.38-18.26.7,26.42-3.34,48.69,6.54,73.57,11.75-48.56-9.84-102.57,14.26-112.32-15.55,160.33,45.41,342.81,122.09,495.26l193.23-193.16c35.36-35.35,63.01-18.19,91.26,2.61Z"/>
  <path class="cls-15" d="M2026.17,2311.79c-22.88,133.93-62.42,268.91-128.68,392.35-15.67,29.19-56.67,7.1-73.19-9.7l-171.08-173.95c-9.21-9.36-21.02-18.23-32.43-16.35-15.76,2.59-29.13,25.28-48.23,20.23-4.14-1.09-11.09-7.28-5.89-14.13l23.75-31.29c23.49-19.7,54.57-21.74,78.79,2.41l197.76,197.21c66.38-137.87,113.07-280.37,124.98-431.81,2.17-27.57.82-51.89-11.61-72.4,36.39,4.78,16.39,82.94,10.4,155.72l20.3-39.04,15.15,20.75Z"/>
  <path class="cls-4" d="M2398.16,2384.37c6.58-.94,15.44,2.26,19.85-10.05-17.94-3.11-33-9.43-34.82-20.08-2.7-15.76-1.08-31.29,16.94-36.41-2.45,13.2-6.06,26.86,11.08,33.83-5.86-19.91-4.41-33.84,8.31-43.33l-.86,40.46,108.03,50.99c217.83,102.82,298.39,332.07,306.33,567.36.44,13.06-36.33,14.67-38-2.47-30.43-313.54-105.74-461.22-396.86-580.31Z"/>
  <path class="cls-24" d="M381.91,2366.67c8.43,3.43,19.59,10.91,30.54,9.34-25.13,7.44-10.11,22.28,4.74,16.89l-81.27,38.96c-213.23,102.22-277.18,295.64-293.84,523.96-1.13,15.55-10.6,23.94-24.34,22.37-11.77-1.34-19.04-11.51-17.54-26.86,28.09-286.84,107.29-476.96,381.71-584.65Z"/>
  <path class="cls-1" d="M1753.98,2027.79c5.92,5.04,14.97,1.29,15.02-3.05l.23-20.66c7.61,11.21,8.04,23.65,8.09,43.37,10.4-7.66,22.47-12.14,33.15-8.92,28.31,8.53,13.86,86.79-14.76,148.14-51,109.33-125.47,202.57-214.16,279.1-4.01,3.46-11.15,5.41-14.65,11.65-11.02,20.72-36.13,10.13-33.63-12.86l-7.78-15.37c94.86-92.16,178.32-191.05,234.64-313.45-24.76-15.98-59.52-89.03-23.16-105.22-12.09-20.13-6.15-72.27,13.01-41.62l4,38.88Z"/>
  <path class="cls-15" d="M1566.91,2477.43l-27.67,49.32c-3.87-7.6-8.45-14.51-16.66-17.74-6.55-2.57-14.51,1.56-19.76,7.69-20.17-16.68,5.54-63.16,30.46-52.13l33.63,12.86Z"/>
  <path class="cls-23" d="M1119.1,1815.59l27.86,2.89c179.43,155.08,385.8,130.85,558.24-17.06,16.17.05,27.3,25.06,31.66,39.96,2.5,8.53,7.19,130.86,5.72,142.33-17.06,7.84-13.19,31.93-5.6,46.81-4.06,38.02,11.3,73.21,37.54,104.69-47.92,114.85-120.51,213.32-212.6,297.05l-28.64,32.29c-14.38,16.21-21.45,33.51-30.46,52.13-36.41,75.27-53.72,156.49-87.6,242.58-32.92-98.15-55.73-189.2-103.47-273.89-24-42.58-63.53-68.53-95.84-104.51-65.51-72.94-128.41-154.2-160.6-247.27,60.85-98.11,47.41-215.85,47.68-328.52,6.79,1.99,11.54,6.35,16.12,10.5Z"/>
  <g>
    <path d="M2419.52,2308.35c-7.39,17.07-7.93,35.03-1.63,53.86,25.37,18.1,6.35,30.93-19.74,22.17l-364.75-149.21-7.24,76.63c-12.66,11.73-25.46,20.09-38.38,25.06,8.14-51.24,9.35-101.19,3.61-149.85l-11.07-12.64c-5.79,4.03-11.61,4.16-18.19,2.75-5.94-1.27-69.06-85.82-74.93-95.75l5.66-18.76c-5.54-50.4-62.56-114.75-118.2-80.15,20.37,11.2,16.51,17.99-5.44,21.62,9.82,25.4-3.84,59.63-15.25,23.71-13.83-58.78-17.12-117.02-16.93-179.81-.58-2.73-12.8-39.14-14.9-39.16-24.37-.17-30.02-14.57-20.16-37.54l9.53-29.03c98.58-81.75,141.07-185.69,184.07-301.38,59.8-160.89,79.53-345.47,54.05-517.28-106.87-89.92-196.59-197.83-269.17-323.73-59.44-80.62-133.03-154.78-237.77-160.46-20.94-8.18-25.68-30.18-14.24-65.98-4.78-8.62-3.27-14.52,4.53-17.7-5.31-5.83-10.95-9.74-19.69-8.4,23.79,26.56,24.54,72.94-10.42,88.14-106.68,15.68-192.83,74.04-256.7,162.13-72.61,119.44-157.02,226.4-253.26,320.86l-22.69-4.22c-5.88,8.54-6.17,14.76-.88,18.66l14.45,19.68c-33.83,164.11-8.18,344.67,50.78,499.38,45.6,119.65,95.88,225.01,199.02,307.2l11.12,29.51c4.84,18.02-8.33,37.06-25.63,26.94-7.09,9.11-12.47,5.61-16.12-10.5-3.91,47.05-5.03,94.92-3.35,143.61,1.8,27.07-2.9,64.41-26.92,29.4-5.59-8.15,9.74-30.15,1.13-14.5-1.95,3.55-4.61,6.72-7.46,9.78-39.32-2.13-76.95,6.04-108.95,30.17-24.36,18.37-32.8,31.93-22.29,57.33l7.14,16.98c-27.02,35.09-54.05,70.19-81.09,105.32l-19.62-.77c-7.53,36.12-9.55,73.92-6.06,113.39-21.73,8.73-30.87-8.74-27.43-52.43-11.45-5.24-20.35-6.56-26.69-3.94l-364.19,153.48c-26.64,12.96-37.15,1.97-35.28-26.23,21.13-7.91,13.95-24.23,11.53-42.51-15.27-115.27,7.25-225.93,44.17-335.6,43.55-129.36,80.24-254.81,96.78-391.43,15.58-128.74,21.03-250.8,27.91-380.13,12.53-235.5,43.43-465.96,119.98-688.83C771.79,267.53,962.65,23.92,1246.29,1.39c63.66-5.05,122.8,3,179.45,34.74,205.86-95.03,431.6,23.73,568.32,197.51,94.36,119.94,151.2,254.99,189.35,403.77,43.86,171.03,70.44,341.87,78.17,519.09l14.78,338.44c7.45,170.62,39.81,330,95.57,491.06,36.98,106.81,55.81,214.91,47.58,322.35Z"/>
    <g>
      <path class="cls-18" d="M2050.86,1182.66c-4.09-9.56-15.7-16.86-15.62-21.92.05-3.43,20.14-35.82,34.65-43.75,9.92-5.42,23.82,4.06,31.04,3.63,10.7-5.5,9.64-20.94,4.24-26.42-7.24-7.35-20.19-14.8-33.1-11.33-24.91,6.7-35.31,27.83-55.03,43.1l29.22-91.14c5.46-17.03,30.51-20.48,42.09-18.19,104.34,20.64,69.4,282.55-48.73,363.79-20.81-1.51-52.76-18.8-70.57,10.71l17.29-89.18c52.41-12.63,87.31-66.08,64.54-119.3Z"/>
      <path class="cls-18" d="M787.24,1158.01c-15.78,33.3-29.16,56.53-13.52,90.78,9.91,21.7,31.52,46.35,65.13,53.19l16.06,88.94c-19.81-23.32-43.03-18.27-68.76-8.44-106.55-81.62-151.74-309.38-62.43-361.53,14.13-8.25,45.96-9.5,55.66,9.6,14.85,29.25,27.73,60.23,26.91,97.05-16.74-29.9-44.25-55.23-76.66-42.18-7.49,3.02-9.24,9.58-11.43,11.94-3.94,4.25-1.99,18.46,4.05,19.96,4.98,1.24,14.65-3.86,23.64-4.86,15.28-1.7,42.98,29.45,41.35,45.55Z"/>
      <path class="cls-9" d="M2167.92,1724.97c-5.82-12.63-9-43.19,7.18-39.41,8.88,142.89,51.07,281.03,78.75,425.86l3.23,143.01c.14,6.36-11.34,15.28-15.44,14.9l-3.14-150.92-62.51-312.73c-5.82-29.14-9.86-54.44-8.08-80.71Z"/>
      <path class="cls-14" d="M662.69,1709.03l-7.63,72.86-64.92,287.72c-11.45,8.97-14.71.8-9.79-24.5,32.52-123.72,63.73-248.26,73.71-375.81,15.38-11.7,16.64,26.81,8.64,39.73Z"/>
      <circle class="cls-5" cx="2006.99" cy="1453.07" r="41.77"/>
      <circle class="cls-17" cx="817.68" cy="1453.15" r="40.84"/>
      <path class="cls-1" d="M1892.88,2062.6l-31.7-39.44c-20.82-25.9-58.45-30.46-86.5-40.71l1.19-20.1c.25-4.27,71.15-20.48,99.59,32.05,10.13,18.71,23.83,33.63,40.74,50.36-8.39,10.12-15.38,12.33-23.32,17.84Z"/>
      <path class="cls-12" d="M2175.1,1685.56c-11.61,9.76-6.31,26.45-7.18,39.41-11.19-4.73-7.03-18.8-7.62-31.28-4.87-102.92-15.03-199.43-4.21-297.5l9.54,136.85,9.48,152.51Z"/>
      <path class="cls-6" d="M1045.92,461.21c-48.15,54.94-86.68,113.99-125.84,176.3-9.25,14.72-14.82,34.39-39.87,38.81l56.5-86.42c32.49-49.69,63.12-97.42,104.8-139.19,14.24-6.12,12.07-2.44,4.4,10.49Z"/>
      <path class="cls-7" d="M1848.98,545.15c-58.33-68.95-114.75-136.08-194.3-189.06,83.91,34.9,149.1,105.3,194.3,189.06Z"/>
      <path class="cls-16" d="M1986.58,1282.01c-9.27-43.29,2.85-71.99,31.13-93.44,21.3,42.14-2.59,76.76-31.13,93.44Z"/>
      <path class="cls-8" d="M834.64,1276.66c-37.36-19.39-50.97-71.09-17.88-91.91l17.88,91.91Z"/>
      <path class="cls-22" d="M1045.92,461.21c-1.19-6.83-3.48-7.96-4.4-10.49,34.45-34.51,68.79-72.64,118.9-87.04-39.17,34.74-80.56,58.81-114.5,97.53Z"/>
      <path class="cls-25" d="M662.69,1709.03c1.37-13.11,4.09-30.45-8.64-39.73,2.52-32.2.54-64.83,13.57-97.18l3.13,121.72c.22,8.49-3.06,14.6-8.07,15.19Z"/>
      <path class="cls-20" d="M1433,355.72l-19.69-8.4c17.42-43.54,3.62-89.85,14.26-136.29l5.42,144.68Z"/>
      <path class="cls-21" d="M2030.12,922.35c-33.79-7.75-71.74-30.83-87.8-70.44l87.8,70.44Z"/>
      <path class="cls-26" d="M590.14,2069.61l-20.58,81.41c-10.49-40.02,2.18-73.17,10.78-105.9.14,9.37,1.36,20.12,9.79,24.5Z"/>
      <path class="cls-3" d="M870.24,914.23l-.88,18.66-82.23,40.46c-.7-1.26-3.45-4.25-4.97-5.58l88.09-53.53Z"/>
    </g>
  </g>
  <path d="M1029.63,1988.76c-34.46,11.17-61.18,30.71-83.85,58.89-2.44,1.63-11.31-3.23-10.52-5.87,2.36-7.84,59.54-68.23,94.37-53.02Z"/>
  <g>
    <path class="cls-23" d="M1433,355.72c.25,6.79,9.94,14.6,2.74,28.99-5.39,10.77-3.62,25.2,1.91,32.45,7.67,10.04,19.95,8.77,33.65,10.34,126.11,14.46,217.86,151.63,287.22,257.76,57.6,88.14,117.13,167.96,204.21,230.79,9.77,109.38,29.47,219.57,1.58,326.48l-46.05,176.57c-36.92,141.54-106.31,263.37-216.27,352.18l1.95,18.22c-135.21,108.33-269.87,169.91-440.83,90.87-40.66-18.8-106.23-50.19-118.4-91.72-120.55-92.77-197.32-221.03-237.21-372.63l-46.28-175.92c-26.74-101.64,1.01-207.44,8.12-307.22-13.96,2.12-13.66-4.1.88-18.66,115.15-69.98,206.28-276.46,312.17-383.07,123.24-124.08,215.97-92.91,233.81-123.03,15.77-26.6-8.94-45.76-2.91-60.81,9.08-22.99,14.15-10.55,19.69,8.4Z"/>
    <g>
      <path class="cls-24" d="M1144.73,1788.65c45.49,31.3,91.13,63.78,145.1,86.05,107.98,44.55,223.44,29.54,317.77-36.91l94.4-66.5c19.88,14.38,8.27,39.64,49.1,65.25l3.22,110.4c.87,29.76,11.15,54.94-.32,80.86-9.84-8.38-10.44-21.71-13.46-43.13-11.63,14.75-1.98,31.2-3.54,45.87-2.93-.1-8.64-3.29-8.83-9.28l-6.71-212.64c-131.82,104.44-273.98,171.07-428.59,111.49-65.69-25.31-124.82-60.15-173.75-104.52,9.72-1.44,8.29-9.64,2.42-11.34l-67.35-62.26c-15.41-14.25-33.09-29.95-40.47-55.59l108.55,100.8c2.26,2.1,6.37,8.3,10.19,8.53,3.57.22,8.77-1.41,12.29-7.08Z"/>
      <path class="cls-15" d="M1238.57,936.82c-97.74-24.26-190.08-22.86-287.63,11.93,3.76-44.3,43.38-69,81.42-80.08,99.56-28.99,255.28-4.47,244.45,49.71-2.48,12.42-17.72,23.53-38.25,18.44Z"/>
      <path class="cls-2" d="M1186.28,1135.95c-12.71,29.99-50.63,45.21-77.33,22.65-30.23-25.54-34.89-70.79-14.12-107.02l-87.33,28.63c27.86-54.57,88.08-74.59,143.56-68.47,38.25,4.22,75.07,26.31,84,63.91l-43.25-16.83c8.26,29.12,5.21,51.83-5.52,77.14Z"/>
      <path class="cls-15" d="M1876.16,947.22c-96.36-28.52-185.37-36.23-281.4-10.46-15,4.02-33.41-.67-38.56-12.66-23.05-53.63,133.99-83.47,236.93-58.99,34.11,17.57,73.83,23.96,83.03,82.11Z"/>
      <path class="cls-2" d="M1738.29,1138.57c-12.29,23.09-32.5,32.24-54.43,29.37-39.68-5.19-57.77-55.49-43.16-113.64-17.1,3.78-26.87,24.37-52.22,20.63,20.38-44.95,67.23-63.42,111.29-63.89,47.03-.5,98.05,20.65,122.2,66.89-33.63,8.71-43.85-20.04-75.54-28.51-.97,30.42,8.42,58.03-8.14,89.14Z"/>
      <path class="cls-19" d="M1266.37,1538.73c35.15,17.83,69.07,1.03,98.77,6.08,39.48,6.72,68.36,6.03,108.11,0,26.82-4.06,58.54,9.93,85.42-4.78,7.21-3.94,13.22-4.73,17.2-3.14,6.38,2.55,10.07,19.16,1.81,22.88-103.06,46.49-216.13,47.31-320.49,3.66-6.86-2.87-10.21-7.48-11.3-10.85-2.14-6.63,7.66-20.35,20.46-13.86Z"/>
      <path class="cls-11" d="M1485.41,1383.81c-5.34,17.44-95.21,45.95-142.67-10.13-17.92-21.17-3.44-47.48,4.67-68.05,23-58.29,17.03-116.94,35.84-179.69,22.57,75.51-17.63,142.88-17.86,214.59-.17,51.87,107.47,25.95,114.45,28.5,4.73,1.73,7.13,9.68,5.57,14.78Z"/>
      <path class="cls-13" d="M1466.11,1650.03c-23.53,26.65-71.26,28.76-102.61,1.21l102.61-1.21Z"/>
    </g>
  </g>
</svg>