<?xml version="1.0" encoding="UTF-8"?>
<svg id="Layer_1" data-name="Layer 1" xmlns="http://www.w3.org/2000/svg" viewBox="0 0 9470.91 9480.27">
  <defs>
    <style>
      .cls-1 {
        fill: #070707;
      }

      .cls-2 {
        fill: #bdbdbd;
      }

      .cls-3 {
        fill: #393939;
      }

      .cls-4 {
        fill: #727272;
      }

      .cls-5 {
        fill: #454545;
      }

      .cls-6 {
        fill: #0a0a0a;
      }

      .cls-7 {
        fill: #030303;
      }

      .cls-8 {
        fill: #f6f6f6;
      }

      .cls-9 {
        fill: #b5b5b5;
      }

      .cls-10 {
        fill: #f4f4f4;
      }

      .cls-11 {
        fill: #e6e6e6;
      }

      .cls-12 {
        fill: #d8d8d8;
      }

      .cls-13 {
        fill: #ccc;
      }

      .cls-14 {
        fill: #c3c3c3;
      }

      .cls-15 {
        fill: #bababa;
      }

      .cls-16 {
        fill: #060606;
      }

      .cls-17 {
        fill: #c7c7c7;
      }

      .cls-18 {
        fill: #e7e7e7;
      }

      .cls-19 {
        fill: #050505;
      }

      .cls-20 {
        fill: #dadada;
      }

      .cls-21 {
        fill: #0b0b0b;
      }

      .cls-22 {
        fill: #282828;
      }

      .cls-23 {
        fill: #bcbcbc;
      }

      .cls-24 {
        fill: #fafafa;
      }

      .cls-25 {
        fill: #e9e9e9;
      }

      .cls-26 {
        fill: #e1e1e1;
      }

      .cls-27 {
        fill: #080808;
      }

      .cls-28 {
        fill: #c5c5c5;
      }

      .cls-29 {
        fill: #f7f7f7;
      }

      .cls-30 {
        fill: #f8f8f8;
      }

      .cls-31 {
        fill: #f5f5f5;
      }

      .cls-32 {
        fill: #f0f0f0;
      }

      .cls-33 {
        fill: #0c0c0c;
      }

      .cls-34 {
        fill: #dcdcdc;
      }

      .cls-35 {
        fill: #d3d3d3;
      }

      .cls-36 {
        fill: #eee;
      }

      .cls-37 {
        fill: #fbfbfb;
      }

      .cls-38 {
        fill: #c8c8c8;
      }

      .cls-39 {
        fill: #fdfdfd;
      }

      .cls-40 {
        fill: #b2b2b2;
      }

      .cls-41 {
        fill: #cfcfcf;
      }

      .cls-42 {
        fill: #090909;
      }
    </style>
  </defs>
  <g>
    <g>
      <g>
        <path class="cls-16" d="M5197.25,8369.44c-7.34,10.28-1.06,25.62,18.84,46.04,13.53,121.35-92.12,319.01-183.68,389.61l-29.37,5.74-.2,7.55c-39.76,24.75-35.3,23.95,13.39-2.4,12.66-23.26,31.35-14.59,51.26-2.57,61,51.56,121.67,100.14,182,145.76,31.96-105.84,57.29-213.42,75.97-322.74-5.15-29.12-1.89-52.57,9.8-70.33,9.95-2.92,13.45,1.66,13.43,8.75l-.15,76.62c1.73,2.77,4.25,3.99,6.06,4.31l5.62-89.41c13.96,11.06,23.34,21.8,37.25,27.43-6.25-4.08-14.14-1.84-14.28,3.75l-.47,18.19c-2.91,113.73-74.47,409.53-105.31,425.19-31.61,16.05-166.41-110.8-226.14-166.79-15.63-14.65-30.7-19.1-41.55-13.37-21.79,11.5-24.12,26.67-17.31,46.97,25.92,77.24-76.64,80.39-133.88,138.84-53.68,54.8-49.3,131.57-48.49,202.5l2.45,214.14c.12,10.7-17.32,17.37-24.36,16.12-7.05-1.25-14.53-10.19-14.66-21.09l-2.32-200.71c-1.85-160.28-96.83-260.3-113.86-347.19-5.13-26.15-21-43.53-37.4-58.62l-32.26-29.69c-23.68-8.54-35.53-12.81-35.53-12.81-91.94-107.01-197.02-249.62-176.04-397.43l-18.55-2.52c-3.09-3.86-13.62-17.8-10.84-23.06,14.85-28.12,39.76-39.42,68.28-54.59,8.07-7.07,11.08-27.8,24.7-30.62,5.9,18.5,4.2,35.04-.37,44.19-5.03,10.06-21.71,10.95-36.71,9.6,13.74,11.64,16.21,19.25,17.45,43.87l14.64-32.82c2.37,34.24-4.41,61.3,6.84,83.15,2.79,12.64.43,26.57-7.09,41.79l21.86,18.22c38.04,136.61,131.94,231.44,228.94,326.5l96.35,213.72c23.74-45.97,48.21-93.28,86.07-129.64.76-41.41,22.99-79.27,51.02-108.43,78.63-70.51,203.8-207.23,216.31-314.99-19.59-91.18-22.45-189.04-16.95-277.32,12-10.73,16.4-8.16,27.77.42,11.24,8.48,16.03,15.68,16.91,30.32l5.79,96.58c13.61-6.49,25.91-8.06,29.7-3.52,4.66,5.58-.18,21.77-.94,26.78Z"/>
        <path class="cls-27" d="M5691.83,8590.44c10.66,20.09,8.49,44.67,7.95,73.04,80.55,32.22,158.57,62.17,232,108.72,228.48,144.84,262.17,441.6,274.99,699.42-3.41,12.87-43.95,11.32-45.17-7.12-13.28-200.41-40.43-450.42-180.61-590.14-54.66-54.47-119.15-92.49-189.45-121.03l-158.26-64.24c2.03-.54,8.8.57,11.92-.36,3.37-1,2.95-10.33,3.71-14.2l23.35-12.9c-6.64-26.9-9.18-54.09-2.34-79.29,22.16,19.55,9.95,42.44,15.62,67.08,10.09-17.85,7.52-39.72,6.28-58.99Z"/>
        <path class="cls-27" d="M3862.95,8678.53c11.95,16.14,31.31,10.14,32.19,36.71l-131.88,55.19c-132.47,55.43-221.27,161.88-266.81,297.72-44.05,131.39-62.13,264.66-74.14,404.28-.91,10.58-39.69,10.46-45.06-.42,19.07-288.35,73.42-624.27,361.07-742.33l124.63-51.15Z"/>
        <path class="cls-39" d="M5197.25,8369.44l53.85,66.52c23.16,47.05,72.55,83.08,84.16,130.13,13.65,55.33,3.39,119.15-11.4,174.87l-66.67,251.17-163.1-137.85c-24.47-20.68-46.85-42.03-77.86-38.3-8.64,3.99-12.95,5.22-13.19-5.15,77.44-69.75,139.5-160.02,175.91-261.16,16.38-45.49,34.97-94.94,18.55-141.19-4.47-12.59-34.06-21.89-19.59-46.12,4.62,4.47,13.1,6.24,19.33,7.08Z"/>
        <path class="cls-39" d="M4587.65,8822.03c-28.78-13.27-54.1-2.57-79.02,18.51l-178.2,150.72c-38.82-110.05-112.36-380.74-74.74-435.03l101.83-146.95c8.15-11.77,31.32-31.33,44.78-39.82,25.54,10.21-3.89,28.4-7.63,38.23-40.89,107.39,92.81,322.17,192.97,414.35Z"/>
        <g>
          <path d="M5691.83,8590.44c15.11,46.23-8.1,110.02-58.54,98.65l-235.83-95.29c-24.29-2.46-34.37,17.75-30.24,60.62-9.51,16.87-18.35,18.37-22.97-.84,5.43-34.4,2.43-63.57-9-87.48l-17.97-4.49c-41.02-60.95-82.74-121.5-125.15-181.64l5.11-10.52c-10.43-13.35-21.53-17.63-33.3-12.85-13.78-33.34-19.76-71.12-17.94-113.34-6.74-22.14-16.07-30.27-28-24.4-17.99,13.99-25.55,8.14-34.93-11.18l68.4-76.82-3.05-23.81,52.58-82.2c40.56-102.37,72.25-207.56,95.08-315.57,23.52-16.69,27.13-31.94,10.82-45.77,7.44-156.6-16.46-289.9-84.13-432.24-33.61-165.46-104.25-327.13-287.55-355.13-10.81-16.72-29.52-18.14-56.14-4.26-192.1-22-297.8,34.06-396.04,204.72-56.38,133.97-122.45,263.34-198.22,388.12-11.48,23.11-13.3,75.4-13.43,102.6-.49,109.21,58.19,344.72,102.93,442.63,24.63,34.81,40.18,70,46.65,105.55,6.42,28.92,24.76,55.49,55.03,79.7,7.37,16.88,2.19,26.55-15.99,21.52-2.01,78.66-8.18,156.09-18.52,232.3-4.6-.78-9.06-1.83-13.04-3.84-11.34-5.75-13.77-54.69-13.82-68.48-24.63-34.31-55.53,2.26-57.11,32.59l9.1,14.77-97.29,140.26c-30.61,49.8,50.38,383.88,67.12,395.27,62.58-48.29,125.61-98.21,189.09-149.76,19.7-11.64,40.4-7.56,62.09,12.21,16.42-17.05,44.09,10.09,32.26,29.69-7.36,42.53-41.17-21.02-90.01,26.11-61.5,59.34-123,115.24-195.71,160.98-17.24,10.85-37.14.19-42.33-18.33l-64.2-229.18c-18.41-65.72-23.35-130.49-23.76-198.86l-308.76,122.79c-17.7-5.58-45.02-14.87-32.19-36.71,18.09-7.42,18.71-20.76,21.71-39.2,26.52-163.06,27.15-319.8,24.42-484.42-2.84-171.17,13.49-335.01,47.86-501.65l84.36-408.95c55.98-271.39,186.51-543.79,436.07-675.17,141.5-74.49,352.47-107.03,469.4,2.67,285.49-80.68,460.83,245.46,532.95,499.2,52.65,185.23,97.8,368.09,120.94,560.11l49.75,412.82c17.71,146.94,24.82,289.14,34.31,436.17l7.11,110.32Z"/>
          <path class="cls-29" d="M5323.55,7811.79l13.69-83.37c26.87-10.27,42.98-31.97,48.33-50.93,9.94-35.18,1.34-57.05-13.97-88.79-12.11-25.1,3.61-83.85,32.54-93.71,77.37-26.37,65.13,201.08-29.92,316.23-20.06-3.73-31.09-2.47-50.67.56Z"/>
          <path class="cls-31" d="M4259.41,7809.66l-47.93.53c-39.61-51.55-67.54-115.01-74.23-182.34-4.28-43.14,26.46-77.57,63.73-99.93,18.68,29.14,9.79,62.16-3.09,95.25-15.6,40.08.87,87.45,43.06,97.42l18.45,89.07Z"/>
          <circle class="cls-36" cx="5351.72" cy="7881.26" r="43.63"/>
          <circle class="cls-36" cx="4232.73" cy="7882.26" r="43.45"/>
        </g>
        <path class="cls-39" d="M5118.01,8218.86c3.33.45,11.09-.62,13.91,3.21,1.37,1.86-1.1,7.68-1.04,11.48l1.79,119.99c.72,48.19,10.93,98.1,17.89,143.72-31.64,122.33-108.97,223.17-200.65,306.75-38.95,32.16-64.58,71-68.36,122.12-44.46,47.38-71.33,97.57-99.58,162.51l-71.88-158.25c-20.39-44.88-27.25-86.17-66.95-118.53-102.15-83.28-175.57-197.99-208.74-321.05,18.37-21.93,18.84-49.9,20.08-78.87l8.41-196.36c67.71,55.5,127.83,106.07,205.21,136,89.92,34.78,196.61,30.04,282.73-14.39,62.84-32.42,117.71-74.12,167.16-118.33Z"/>
        <path class="cls-18" d="M5003.04,8810.83c4.43,3.13,10.11,5.52,13.19,5.15-18.59,14.14-56.9,27.51-55.67,55.11l2.87,64.2c-24.63,20.2-42.76,42.91-75.71,49.9l35.97-71.08c13.39-48.85,47.37-74.48,79.36-103.29Z"/>
        <g>
          <path class="cls-39" d="M5151.48,8130.86c-17.35,22.29-36.51,43.08-57.46,62.38,2.63,5.18,4.33,9.84,2.74,12.64-15.19,26.87-179.85,116.85-211.69,126.21-179.49,52.73-345.18-60.97-459.13-191.77-6.39-7.33-8.52-15.01-4.95-24.81-53.08-68.36-87.97-147.41-108.55-235.64l-41.03-175.94c-16.78-71.96-24.8-174.36-.91-245.83,53.38-87.74,104.5-168.49,141.01-264.91,49.27-130.11,137.44-282.12,268.82-325.33,103.67-34.1,196.43,7.66,229.07-23.62,8.43-8.08,3.1-22.74,4.34-30.94l18.17-120.82c21.21,86.39-16.57,163.34,8.53,168.83,84.62,18.52,158.59,53.38,206.99,129.45,34.77,54.64,63.44,117.85,76.68,183.18,15.44,76.21,49.48,139.48,74.42,211.72,31.29,90.63,17.87,189.18,24.04,284.1,22.72,1.91,26.33-19.17,30.2-34.89,22.65,41.99-26.41,60.5-42.9,81.67l-56.62,222.93c-18.71,73.66-61.53,131.79-101.75,191.4Z"/>
          <g>
            <path class="cls-42" d="M5151.48,8130.86c-10.82,16.03-16.75,35.34-40.17,50.16-6.62,4.19-17.57,15.56-13.9,21.65,4.34,7.22,13.14,15.18,20.6,16.19l-8.48,28.53c-195.24,189.38-436.09,186.03-632.17,2.31l-10.44,204.97c-3.03,29.98-13.86,42.03-32.5,36.14-1.59-15.07,3.43-30.11,7.09-41.79-3.37-20.56,8.11-41.53,8.13-64.2l.11-143.28c.01-15.87,6.01-27.7,16.36-36.45l-52.27-60.58c-5.87-6.8,4.08-23.25,7.15-29,49.8,64.13,115.35,109.22,183.99,155.77,125.06,84.8,279.29,76.32,396.93-18.53,27.7-22.33,61.08-34.78,88.67-63.08l60.9-58.81Z"/>
            <path class="cls-33" d="M4736.61,7971.47c108.24,14.3,226.17-19.31,244.72-8.48,4.92,2.87,8.9,19.32-.3,23.11-121.78,50.12-255.43,50.99-377.49.11-9.13-3.8-3.92-18.96.92-22.21,3.98-2.67,9.71-10,18.82-5.48,36.47,18.08,75.38,7.95,113.33,12.96Z"/>
            <path class="cls-42" d="M4873.51,7783.87c10.34,4.72,4.5,22.52-2.31,24.45-55.66,15.75-70.99,44.03-132.37,11.17-30.15-16.14-53.22-38.51-41.87-77.96,22.44-78.01,39.08-156.46,46.68-238.44,1.03-11.08,3.68-17.36,13.23-17.98,33.47-2.19-12.18,185.23-29.95,274.89,3.34,23.49,56.58,45.05,78.62,37.34,23.28-8.15,43.2-24.78,67.96-13.47Z"/>
            <path class="cls-19" d="M4588.97,7470.76c3.85,23.51-3.34,46.28-15.95,58.21-20.06,18.98-50.4,17.47-66.33,8.57-23.15-12.93-29.79-38.08-27.41-69.08l-60.58,29.13c16.2-61.19,90.35-90.27,149.31-73.08,26.7,7.78,50.83,26.55,52.24,56.65-1.5,4.94-17.31,1.29-31.27-10.4Z"/>
            <path class="cls-19" d="M5106.86,7467.76c-4.59,24.92-3.55,47.48-20.93,62.58-17.48,15.19-46.25,19.38-66.94,5.28-19.22-13.1-28.48-34.79-25.26-66.59-13.35,7.38-27.48,9.15-32.77.5,20.59-37.9,63.32-54.45,102.82-49.69,43.09,5.2,85.83,29.76,100.02,74.4-25.92,5.73-31.23-8.2-56.95-26.49Z"/>
            <path class="cls-33" d="M5217.38,7373.04c-142.74-73.63-247.71-6.07-287.35-24.28-17.59-8.08-4.1-39.15,13.29-45,102.22-34.39,247.03-32.18,274.06,69.27Z"/>
            <path class="cls-6" d="M4650.05,7348.31c-37.45,21.68-140.91-49.43-290.99,27.74,34.46-104.55,166.2-99.15,269.9-76.11,20.19,4.49,42.54,35.95,21.09,48.37Z"/>
          </g>
        </g>
      </g>
      <g>
        <path class="cls-7" d="M8614.72,8575.98c-35.63,270.07-345.28,402.62-602.87,411.06-271.83,8.91-586.61-119.2-632.75-400l-432.49,195.79c-76.63,34.69-146.81,76.34-200.08,141.76-107.2,131.65-146.24,365.5-164.53,541.78-2.02,19.46-44.8,16.72-44.1,2.27,5.99-123.04,27.66-243.83,64.44-362.6,65.82-212.57,162.74-295.42,357.1-382.5l449.2-201.28,82.12-156.3c11.36-21.62,35.2-38.48,51.67-54.53l.66-140.91c-62.01-78.67-89.3-170.58-103.6-273.7-42.71-6.08-75.54-27.03-99.98-64.89-67.16-104.04-98.77-231.02-77.72-353.59,7.26-42.31,39.16-70.98,81.49-71.79l-38.69-316.12c-15.08-123.18,52.98-305.51,189.38-330.9,11.2-69.74,52.68-123.35,114.15-161.13,229.82-141.26,569.18-87.05,808.67,36.26,34.07,17.54,55.83,42.4,45.39,84.89,98.05,21.93,163.37,102.28,183.35,197.25,11.66,55.41,25.67,105.78,18.99,165.64l-35.81,321.24c48.22,4.32,78.31,39.93,85.32,89.41,17.62,124.5-21.39,252.37-95.68,353.82-21.6,29.49-53.19,42.92-88.62,46.38-14.84,98.57-36.89,191.28-96.13,268.34l2.53,139.69c32.73,9.83,52.76,31.5,68.12,60.04l80.86,150.25,275.31,121.04,299.85,136.87c238.83,109.02,295.68,453.98,310.65,701.47-1.85,10.45-42.46,12.57-43.56,1.53-13.77-137.93-33.81-269.97-76.68-399.78-45.38-137.42-138.08-230.93-269.28-289.27l-466.67-207.49Z"/>
        <g>
          <path class="cls-39" d="M7867.5,8691.36l-155.24-110.08c-48.85-34.64-86.11-77.46-120.56-127.77l-.88-228.76c39.67,49.38,89.72,79.68,137.76,117.36,68.92,54.06,145.54,83.09,235.97,79.06,58.38-3.14,124.05,3.75,178.47-23.73,92.56-46.73,173.76-108.62,248.14-179.86l3.15,230.68c-42.47,60.98-94.9,107.2-155.23,149.2l-124.62,89.54c-35.04,25.17-39.03,76.78-64.26,110.89l-63.67,86.05-64.68-84.81c-22.38-29.35-18.75-82.53-54.34-107.77Z"/>
          <path class="cls-39" d="M8330.81,8863.34c-45.16-90.14-16.74-193.43-108.16-202.45,108.53-73.59,217.6-153.86,239.45-280.16,22.78,69.57,77.91,118.89,90.81,182.43,14.25,70.2-42.34,154.16-86.35,203.19-39.15,43.61-84.63,64.69-135.75,96.99Z"/>
          <path class="cls-39" d="M7682.44,8720.76l-35.11,141.61c-56.07-36.05-114.26-68.77-153.69-128.07-27.43-41.25-63.77-112.84-51.72-164.7l86.98-188.5c9.05,120.63,110.72,202.42,214.51,277.76-31.15,7.15-52.36,27.2-60.96,61.89Z"/>
          <path class="cls-37" d="M8289.05,8880.83c-93.44,39.92-186.68,60.78-281.45,59.07,17.88-54.7,54.12-80.87,80.29-120.47,21.35-32.31,26.16-77.42,57.44-101.3l72.57-55.42-15.84,33c70.88,1.15,46.51,93.01,86.99,185.13Z"/>
          <path class="cls-37" d="M7960.72,8937.82c-92.99,5.06-180.4-19.19-269.64-53.74l34.31-157.31,34.66-52.84,74.67,46.87c31.1,19.52,33.49,67.93,48.47,102,26.54,35.08,58.75,56.87,77.53,115.02Z"/>
          <path class="cls-8" d="M8552.78,7730.65c56.82-28.31,63.12-77.27,43.06-129.55-16.95-44.15,83.36-89.69,43.58-102.03-5.43-1.69-14.16-2.23-22.11,5.59l-40.31,39.6c5.15-56.83,17.83-101.02,57.33-96.31,62.91,7.5,54.74,210.95-36.05,355.56-13.1,20.87-28.87,37.49-57.54,41.97l12.05-114.82Z"/>
          <path class="cls-10" d="M7377.05,7594.54c-27.14,51.07-15,109.07,33.54,137.24l16.47,117.57c-124.19-58.54-165.17-379.81-93.4-400.09,14.95-4.22,35.98,4.65,42.3,21.32,9,23.74,11.93,45.92,13.39,73.16l-43.78-42.49c-5.3-5.15-14.18-3.1-18.47-2.24-32.63,6.5,35.91,36.49,49.95,95.54Z"/>
          <path class="cls-20" d="M8344.94,6845.45c.48-1.88-2.48-4.26-4.61-2.97,3.38-5.47,20.75-27.12,13.87-37.4-57.12-85.49-172.08,25.86-262.58,12.47l160.68-56.46c74.89-26.31,118.51,39.26,116.38,38.21,5.72,2.81,13.77-.21,24.26-2.8-12.75,22.39-27.84,37.65-48,48.95Z"/>
          <path class="cls-4" d="M7402.56,7685.75c-15.35-14.18-18.7-44.08-3.05-69.13,12.42,21.98,10.61,40.07,3.05,69.13Z"/>
          <g>
            <path class="cls-39" d="M8340.32,6842.48c5.11-7.09,6.58-5.93,4.61,2.97-5.15,20.18,6.06,26.07,17.29,36.71,106.62,101.06,120.06,175.02,114.92,310.87-1.78,47.1,20.02,86.1,32.58,129.14l15.83,199.85c2.36,29.79,9.7,53.98,4.95,85.25l-46.29,304.27c-26,170.92-123.42,307.27-270.92,390.85-44.78,25.37-74.64,65.61-133.6,66.87l-171.9,3.67c-63.2,1.35-103.02-34.14-152.2-65.95-111.73-72.26-209.17-167.81-247.7-300.48l-59.23-306.59c-10.84-56.11-14.95-108.83-10.84-166.14l15.5-216.02c14.97-53.07,32.56-99.27,26.57-156.76-9.64-92.65,23.65-180.13,81.65-249.92,45.47-54.72,110.23-71.28,178.18-50.6,176.87,53.83,360.03,47.74,533.36-14.34,21.38,1.14,49.74,14.69,67.24-3.65Z"/>
            <g>
              <path class="cls-6" d="M7841.6,7356.81c-59.04,18.73-160.79-32.73-277.9,25.19-5.24,2.59-12.35.45-14.87-1.26-22.45-15.25,33.02-80.09,83.86-87.79,71.26-10.79,192.49-8.4,214.66,28.3,4.89,8.09,6.69,31.63-5.74,35.57Z"/>
              <path class="cls-27" d="M8416.07,7385.69c-92.64-35.31-176.73-42.64-268.1-22.35-15.79,3.51-34.86-.78-40.53-10.28-9.41-15.77-.53-39.91,17.26-47.58,46.77-20.16,96.93-16.08,148.67-17.82,62.24-2.1,128.68,21.89,142.7,98.03Z"/>
              <path class="cls-21" d="M8054.97,7781.03c14.63-4.74,23.15,4.77,24.81,13.47,4.45,23.38-29.92,18.92-74.93,42.87-31.15,16.57-56.17-2.46-84.8-11.2-35.18-10.75-63.12-34.33-53.79-77.51l57.67-266.92c.8-3.71,17.43-4.63,19.25-1.69,20.2,32.48-27.54,198.05-47.86,286.12,24.06,20.71,60.73,46.94,90,37.45l69.64-22.58Z"/>
              <path class="cls-6" d="M8193.74,7984.5c16.91,64.85-486.5,54.12-417.59-4.5,7.14-6.07,12.86-6.18,25.42-3.74,125.21,24.32,250.84,20.41,375.64-4.64,8.38-1.68,15.38,8.47,16.54,12.88Z"/>
              <path class="cls-1" d="M8297.29,7470.03c-3.47,29.21-8.09,49.7-23.71,62.41-18.82,15.31-45.3,15.08-63.22,5.34-23.3-12.67-29.29-37.32-25.58-68.55-16.4,10.51-28.39,24.45-43.59,10.22,25.34-42.07,71.03-59.99,116.86-52.67,36.62,5.85,85.24,28.51,95.52,72.04-24.87,4.93-34.83-13.59-56.27-28.79Z"/>
              <path class="cls-16" d="M7775.52,7477.74c4.07,21.29-5.74,41.71-15.22,51.16-22.77,21.79-49.78,16.29-67.27,9.22-24.01-15.05-29.11-36.93-26.54-69.1-22.27,7.54-32.66,31.59-63.2,32.02,8.72-41.51,50.77-61.21,86.74-70.16,39.7-9.88,81.85-3.8,109.61,29.39l8.85,10.58c2.74,3.27,2.89,14.74-1.05,16.45-4.27,1.86-16.19-1.15-31.93-9.55Z"/>
            </g>
          </g>
        </g>
      </g>
    </g>
    <g>
      <g>
        <path class="cls-1" d="M7661.19,4969.63c-1.69,79.59-3.42,160.56-5.21,242.92-7.72,37.69-22.7,72.69-44.93,104.99-8.49,112.45-6.8,224.93,5.06,337.46,249.85,90.39,512.34,91.48,761.71-1.11,12.72-114.8,13.4-229.33,2.05-343.59l-22.57-46.33c-13.91-25.64-12.31-42.59,4.82-50.85l9.77,35.04c16.09-29.79,30.35-56.75,61.57-70.39-11.31-6.51-21.64-10.08-27.28-22.4,8.73-9.74,30.26-11,43.72-5.68-6.27,6.46-12.4,6.11-29.5,12.48,72.9,36.39,153.8,142.03,216.39,164.69l391.43,141.74c191.3,69.27,305.72,181.22,357.03,381.71,29.34,114.64,47.04,229.9,48.3,347.65-4.41,10.71-43.82,10.87-44.47.32-20.96-281.95-58.08-568.25-347.99-672.5l-373.39-134.26,121.33,228.6c5.79,10.92,10.46,20.89,5.52,31.65-2.69,5.87-9.87,13.11-18.59,17.31l-112.36,54.12,128.6,77.22c12.09,7.26,22.03,25.88,15.4,41.7l-148.61,354.49c-6.82,16.26-48.81,8.07-45.15-4.13l148.1-358.27-156.34-93.87c-9.29-5.58-13.06-13.12-13-21.24.06-7.6,4.49-16.17,14.18-20.5l141.22-63.2-153.36-280.26-174.32-138.68,21.06,77.69c13.62,103.88,8.73,204.59.04,308.28-.75,8.96,17.94,15.68,23.56,19.21,4.22,11.26-1.56,13.32-17.35,6.16-13.94,3.26-11.22,17.08-13.55,31.81l-80.47,508.75c-2.65,16.79-4.23,26.74-13.73,33.71-7.8,5.73-39.47,1.63-37.55-10.12l79.07-481.27c-253.26,94.44-520.11,95.74-770.65.92l79.47,479.2c2.02,12.18-35.2,21.47-45.31,7.88l-87.59-564.44c-20.41-4.89-18.53-10.42-4.06-22.43,2.52-20.07,1.39-38.71-3.37-55.92-10.08-105.07-9.24-208.41,10.95-323.78l-161.52,127.05-150.73,278.15,141.4,63.05c7.97,3.55,14.26,13.05,14.45,18.6.23,6.5-4.26,16.17-11.94,20.81l-159.31,96.27,146.8,353.96c-.48,13.65-37.97,21.94-45.96,3.14l-146.82-345.44c-8.48-19.96,2.57-38.25,18.6-47.76l128.04-75.93-114.54-51.68c-17.55-7.32-25.89-24.68-16.96-41.89l121.3-233.86-335.58,121.21c-182.6,65.95-263.97,151.13-328.13,332.63-39.91,112.91-56.09,228.59-74.37,347.23-2.64,10.05-38.12,10.8-45.58-.19,21.13-196.22,68.22-456.36,207.51-593.84,60.38-59.6,133.3-99.48,213.75-128.29l397.52-142.35,174.58-143.22c17.09-8.18,32.8-17.02,40.85-32.81,6.88-5.11,20.33-6.32,33.93,3.75,17.83-29.96-.54-60.62,2.21-93.64l7.9-95.08c5.19-.05,8.19-3.47,9.55-4.29l1.82,194.97c.03,3.47,2.72,7.28,7.03,7.88l.5-195.02c.03-11.43,1.5-15.83,12.27-16.03,8.07-.15,9.83,1.69,11.78,10.15Z"/>
        <path class="cls-3" d="M7557.33,5634.23c-27.7-13.5-62.23,48.06-112.09,49.37,28.32-35.58,66.23-52.71,104.22-72.07l.44-55.66c2.77.12,8.08,2.09,8.02,8.62l-.59,69.73Z"/>
        <path class="cls-5" d="M8447.63,5627.79c5.44-1.27,11.43-2.14,17.35-6.16l77.2,48.49c-.11,5.2-2.2,9.63-2.78,10.48-34.73-8.62-62.09-34.13-91.77-52.81Z"/>
        <path class="cls-39" d="M8362.11,5213.12c.21,35.73,20.44,65.41,32.92,92.85,21.15,117.63,5.24,237.22-6.11,356.93-251.51,102.38-529.14,102.36-783.98,1.09-13.23-116.69-24.58-233.65-9.04-350.61,17.31-34.23,44.33-69.65,45.06-114.04l3.77-229.35c7.51-3.39,12.99-.96,16.46-.35,1.55,6.77,10.49,12.7,15.85,16.94l26.28.37c156.36,127.21,299.84,153.94,479.71,62.17l146.86-103.31,12.15,4.8c3.2,87.77,9.89,175.28,20.06,262.51Z"/>
        <g>
          <path d="M8868.72,4822.51c-10.53-9.16-6.11-21.55,13.28-37.19-15.46,15.36-25.19,34.6-29.19,57.72-6.79,2.07-24.9,10.94-20.78,19.07,26.73,52.76,22.28,107.69-14.92,146.79-37.61,39.53-92.25,52.54-143.12,30.11-8.03,46.25-35.77,75.9-67.88,92.06-36.94,18.6-75.87,8.23-112.57-1.7-12.63,11.19-28.87,26.15-43.65,20.31-29.76,1.69-43.25,11.49-10.23,27.85-1.77,14.48-11.29,25.46-28.55,32.97-20.55,44.49-41.23,68.37-49.01,2.62-10.95-85.43-16.97-171.27-18.08-257.52-14.75.06-23-11.67-24.73-35.18l3.55-26.28c120.19-112.31,152.6-265.13,181.89-420.32,55.7-38.76,62.83-57.63,21.38-56.63-5.17-74.28-11.18-148.99-18.02-224.11l-31.19-111.07c-38.91-56.01-44.24-109.38-30.77-176.87-60.5-33.54-93.79-89.84-99.85-168.92l-13.64-27.69c-36.73-24.96-75.68-47.49-116.84-67.59-14.39-13.58-21.94-23.85-5.17-39.02-.42-6.61-3.64-9.92-10-9.51,11.05,23.26-11.66,29-33.23,33.05-73.04-1.99-144.86-3.51-215.45-4.56l-14.98,16.34c-26.17,111.22-91.56,136.43-196.12,127.8-7.55-.62-10.88,4.83-12.95,19.65,11.69,124.8-73.95,197-190.95,182.06,4.44,70.3,7.53,140.19-62.17,179.52-29.21,164.29-12.33,305.44,30.47,469.34,34.08,130.53,87.3,238.26,196.89,322.69l7.94,26.81c13.02,20.69-14.55,34.08-33.04,21.45-21.01,11.92-28.55,3.21-15.85-16.94-7.33-7.22-17.49-9.17-20.22,2.21,1.86,70.71-.67,139.88-7.6,207.49-25.26-1.69-44.98-9.16-59.16-22.39-28.83,21.38-61.68-19.51-84.5-18.69-43.73,1.57-76.4,19.77-120.83-6.34-23.45-13.78-50.3-38.5-60.58-78.24-54.41,28.16-103.08,3.98-138.4-27.8-39.77-35.78-24.1-91.48-16.2-134.12-50.28-7.07-106.29-23.98-131.61-70.99-54.04-100.32,52.18-138.65,3.63-195.57-8.29-2.15-13.56,7-15.83,27.47-33.39-2.71-60.44-29.03-76.82-61.33-36.86-72.71-.64-154.11,74.46-193.59-43.08-53.41-65.57-108.81-47.52-172.81,27.63-98,122.87-104.63,119.5-135.23-.58-5.27-13.34-9.97-17.27-17.17-49.3-90.4.51-202.91,98.35-232.56,14.97-4.54,18.43-16.62,14.85-29.8-29.61-108.76,38.14-213.31,155.73-223.12,3.41-135.56,90.01-203.23,223.31-204.69,51.31-123.33,158.16-151.47,288.09-125.55,84.79-44.19,171.64-62.5,268.02-32.64,79.61,24.66,155.01,65.75,185.13,151.56,104.99-42,207.92-11.01,287.11,58.85,43.01,37.94,59.59,97.33,67.88,147.59,57.72,25.94,116.4,52.75,145.5,117.3,61.05,135.41-11.94,209.8,35.87,233.52,110.49,54.81,150.05,185.24,90.19,293.48-4.81,8.7-7.01,20.25-3.63,27.5,5.99,12.85,124.85,64.81,107.49,196.09-5.6,42.39-34.87,82.34-67.95,104.88-33.73-25.67,43.75-87.08-5.02-148.59,5.93,56.06-6.8,96.17-44.47,140.17l35.51,8.79c-19.22,27.4-11.42,42.86,4.67,62.7,32.25,39.78,42.45,93.3,24.51,145.49-12.18,35.44-47.85,74.22-94.59,82.55-6.17-.04-11.27-19.46-10.09-23.52Z"/>
          <g>
            <path class="cls-41" d="M8868.72,4822.51c-2.51,6.18-9.55,18.58-15.91,20.53-.07-11.54-7.1-22.23-13.6-35.03,42.21-23.72,59.64-58.85,57.93-103.45,38.79,53.32-16.6,88.77-28.42,117.95Z"/>
            <path class="cls-12" d="M7025.73,4625.18c-6.41,8.5-7.33,20.85-15.83,27.47,2.2-16.1-4.69-28.69-15.83-41.83-29.29-34.54-26.36-81.25,10.14-112.76-16.86,49.61-9.37,90.91,21.52,127.12Z"/>
            <path class="cls-8" d="M8536.55,4569.25c8.93-24.24,3.73-60.81,20.58-80.63,17.24-20.3,40.47-32.57,45.78-55.14,7.52-31.94-.11-53.73-14.35-85.1-11.95-26.34,6.11-82.1,34.5-92.82,69.96-26.4,59.47,193.48-32.34,313.59l-54.18.09Z"/>
            <path class="cls-31" d="M7418.45,4479.01l21.57,90.95c-20.44,1.44-34.54.42-52.5-3.94-52.2-85.6-99.2-204.76-61.76-290.79,4.22-9.69,14.67-16.83,21.83-16.6,29.1.9,49.91,69.92,39.94,92.7-20.28,46.33-21.57,98.8,30.92,127.68Z"/>
            <circle class="cls-36" cx="7412.88" cy="4643.25" r="44.26"/>
            <circle class="cls-10" cx="8567.7" cy="4642.51" r="44.05"/>
            <path class="cls-17" d="M7542.36,3917.33c36.07-28.7,70.34-22.11,96.06-90.24,10.65,28.28-3.56,52.69-22.62,69.57-23.12,8.29-39.25,25.88-73.44,20.67Z"/>
            <path class="cls-23" d="M7139.2,4843.83c-25.85,8.3-46.8-14.1-55.5-33.25-10.4-22.88-12.23-50.31,12.7-65.79-10.13,40.64,1.69,71.59,42.8,99.04Z"/>
            <path class="cls-13" d="M8682.9,5010.09c42.34-16.27,70.65-34.87,73.96-79.42,23.38,22.93,7.8,48.98-6.9,64.36-15.7,16.43-42.76,27.62-67.06,15.06Z"/>
            <path class="cls-2" d="M7833.32,3656.42c-5.74,69.36-106.14,74.55-96.43,63.9,18.22-19.97,57.84-11.36,96.43-63.9Z"/>
            <path class="cls-26" d="M7299.33,5017.59c-19.87,16.83-43.06,10.13-59.43-5.08-13.8-12.83-22.08-35.67-10-56.99,17.77,34.84,32.1,52.72,69.43,62.07Z"/>
            <path class="cls-38" d="M8210.64,3601.93c-.73-3.27-5.34-6.75-10-9.51l49.29-96.68c-1.29,41.57-22.13,75.3-39.29,106.19Z"/>
            <path class="cls-25" d="M7094.65,3997.37c3.04,59.92,32.33,89.55,3.54,86.27-16.97-25.04-20.99-60.51-3.54-86.27Z"/>
            <path class="cls-9" d="M8448.06,3844.77c-22.07-8.43-37.25-33.39-29.6-62.26,13.64,17.67,22.52,34.41,29.6,62.26Z"/>
          </g>
        </g>
        <g>
          <path class="cls-39" d="M8210.64,3601.93c3.21,14.4,11.5,27.12,27.51,35.11l79.68,39.74c84.83,42.31,14.6,168.16,146.57,218.81-7.57,41.45-10.97,77.6-6.66,118.02l32.96,58.94,25.74,88.11c23.55,80.61,16.19,166.18,18.95,248.32,14.32,1.1,23.5-6.58,33.32-17.5,19.58,45.69-22.99,69.45-50.72,89.44-38.31,199.13-56.71,298.07-198.69,439.5,2.96,5.5,6.69,14.33,3.35,17.06-85.41,69.69-199.96,143.82-312.19,152.11-103.63,7.66-219.87-41.5-299.42-105.34l-.95-19.12c-170.48-133.77-208.25-260.07-246.73-474.4-9.9-55.12-27.41-107.66-22.04-162.97l18.49-190.65c109.54-63.31,35.97-162.48,70.4-186.37,20.85-14.46,70.82,30.07,144.21-38.92,66.43-62.44,9.74-132.22,59.95-165.34,78.59,27.24,168.84-17.07,184.1-102.47,5.73-32.08,36.44-50.36,68.42-41.38,34.18,9.59,60.8,4.35,93.61,3.47,39.3-1.06,90.5,17.95,120.13-13.68,12.98-10.61,17.97-5.72,10,9.51Z"/>
          <g>
            <path class="cls-6" d="M8362.11,5213.12l-15.32-71.98-5.6-184.51-149.62,105.89c-99.59,61.31-227.7,76.37-339.28,32.46-66.06-26-123.33-67.33-175.25-108.39l33.04-21.45,80.82,48.57c123.1,88.05,285.41,76.98,407.46-8.54l120.93-84.74c6.74,6.01,13.2,6.04,29.03,1.09-15.75,19.64,1.94,30.99,2.34,46.44l4.11,158.52,7.32,86.65Z"/>
            <path class="cls-33" d="M8171.45,4698.89c8.17-3.72,15.75,3.54,19.05,6.83,5.41,5.4,6.41,20.46-4.55,24.75-124.35,48.65-260.73,50.06-386.16,4.46-9.14-3.32-16.53-11.46-17.93-16.75s11.81-19.4,17.01-17.41c63.94,24.47,315.61,24.08,372.58-1.88Z"/>
            <path class="cls-27" d="M7838.94,4100.77l-145.98-14.07c-51.88-5-92.62,19.42-147.28,40.46,26.94-131.23,275.2-111.34,304.84-58.74,3.96,7.04,2.98,33.75-11.58,32.35Z"/>
            <path class="cls-27" d="M8421.26,4118.4c-13.55,14.98-66.44-44.88-156.23-32.29l-111.27,15.59c-15.77,2.21-30.51-.61-35.37-14.89-15.15-44.53,60.74-51.52,122.91-58.56,120-13.59,194.09,74.52,179.95,90.16Z"/>
            <path class="cls-16" d="M8304.03,4214.73c2.85,25.67-3.04,50.7-23.16,65.07-17.9,12.78-44.81,12-62.54-.11-21.59-14.75-24.34-37.81-24.46-69.26-15.96,14.62-24.89,27.75-44.97,21.3,10.89-34.38,35-52.93,65.7-62.16,89-26.74,172.47,57.1,147.42,72.08-16.11,9.63-26.79-21.11-57.98-26.92Z"/>
            <path class="cls-16" d="M7668.76,4213.22l-56.34,34.36c-11.41-27.01,11.99-39.94,29.56-53.84,55.53-43.94,141.64-40.78,174.36,26.56,3.39,6.97-17.76,13.23-19.92,5.12-1.07-4-6.42-10.81-17.25-12.57,1.97,26.1-.23,48.31-17.84,63.76-16.1,14.12-42.92,18.44-63.03,6.92-21.29-12.2-31.41-32.03-29.54-70.32Z"/>
            <path class="cls-6" d="M7944.45,4525.75c64.06,36.85,119.48-28.48,129.95,3.14,9.19,27.78-24.42,23.79-35.72,30.52-33.91,20.19-68.09,19.46-104.38,1.76-32.27-15.74-59.67-33.39-48.3-77.11,20.2-77.67,40.32-156.73,46.32-238.74.87-11.9,2.91-18.44,11.52-19.26,50.25-4.81-40.93,267.47-22.79,287.67,4.15,4.62,14.88,7.12,23.4,12.02Z"/>
          </g>
        </g>
      </g>
      <g>
        <path d="M2144.36,935.03c23.32,12.12,11.38,45.86-13.76,33.66-18.3,18.92-34.33,40.03-48.08,63.32l-11.43.14c-26.2,15.24-41.13-19.62-44.73-43.67,10.49-76.37,5.33-148.16-15.48-215.36-13.42,7.04-21.88,5.98-25.39-3.19-3.01-69.68-1.77-139,3.74-207.95-3.05-19.61-5.67-30.69-26.76-27.14l-14.74-17.07-21.61-8.49c-48.59-98.59-88.79-123.68-193.33-120.85l-263.76,21.67-220-22.19c-219.16-1.47-249.43,159.19-248.76,348.59l-15.78,10.2c-6.51,12.21-11.09,26.02-13.75,41.45-40.88-7.24-35.78,47.29-30.7,79.47-8.39,29.22-5.51,43.27,8.64,42.16,5.42,6.85-1.87,170.95-10.2,173.57-7.16,2.25-14.33-6.27-17.4-14.01-3.32-51-13.07-65.77-29.24-44.29-23.16,1.51-41.52-37.95-27.76-55.4-34.68-4.44-45.36-13.45-32.04-27.02,22.59-6.63,24.39-16.33,5.39-29.11l-25.17-249.03c-7.37-72.95-3.9-145.84,26.24-212.51-4.77-5.03-15.26-15.73-13.35-22.64,28.12-101.3,97.69-175.92,190.06-224.11-14.11-5.62-39.19-16.64-36.17-27.11,61.7-57.36,137.78-81.66,222.95-93.28-13.75-20-28.17-35.79-22.72-61.39l216.4,12.3-10.97-25.71c-1.48-3.46,3.32-11.19,10.76-9.88l296.63,52.37c69.82,12.33,130.93,44.14,186.63,88.04,1.84-21.01-6.48-37.08,2.44-60.54,46.2,26.83,68.03,75.71,76.86,131.16,32.17-7.51,64.21-12.99,87.01,10.2l-50.82,31.64c75.08,25.6,117.3,90.71,148.54,162.11,7.8,17.81,3.64,30.67-4.99,43.73,16.2,64.52,25.59,125.55,19.18,191.49l-26.22,269.52c-.97,9.95,8.36,13.94,13.64,15.16Z"/>
        <g>
          <path class="cls-16" d="M2071.09,1032.15l9.96,4.12c11.39-26.16,33.66-34.84,60.69-26.44-13.2-15.81-16.91-29.52-11.14-41.15,10.61-6.8,10.8-21.61,13.76-33.66,34.17,7.9,53.94,46.28,58.18,85.04,12.67,115.82-22.79,228.78-82.49,327.24-23.14,38.17-58.93,53.75-97.34,64.53-16.35,94.75-38.75,190.64-97.08,266.26l3.94,283.79c.5,35.72,30.04,38.98,56.71,41.34,41.09,3.63,76.13,32.81,113.82,47.14l248.83,94.57,284.45,114.28c125.26,60.62,216.41,160.25,263.12,291.57,43.05,121.06,68.49,247.34,79.11,374.53-14.84,10.02-31.03,9.27-47.16,4.21-9.35-120.8-33.55-237.56-73.03-352.98-51.03-149.19-161.16-248.45-307-304.53l-432.49-166.31c-32.35,149.03-169.46,268.57-305.18,324.34-198.5,81.56-417.48,84.4-619.86,15.52-152.87-59.96-296.5-170.31-332.12-337.86l-471.43,186.02c-256.88,101.36-310.8,378.41-344,632.39-1.52,11.64-43.74,7.7-43.33-3.14,24.8-261.41,94.44-562.77,356.13-666.91l323.46-128.73c102.28-40.71,198.29-76.59,298.57-124.38,14.51-6.92,59.58,2.75,60.05-25.21l4.97-297.45c-61.08-80.35-84.79-171.23-99.5-269.12-42.23-5.57-74.25-26.5-96.39-62.04-81.97-131.57-128.87-370.89-31.1-413.08,13.99-6.04,22.83-9.66,21.22-22.55,7.22-2.52,23.48-2.33,27.35,3.1,5.51,7.73,1.85,24.47-4.4,27.24l-28.71,12.73c13.79,3.64,24.63,2.4,32.42,13.06-4.43,9.81-13.37,15.59-26.82,17.36-19.8,14.79-11.81,22.03,23.98,21.72,13.55,17.37,23.75,22.81,30.6,16.33l1.97-40.04c9.24-2.39,17.72-2,21.17.16,14.35,25.46,16.67,60.44,23.61,91.77l4.87-157.19c-14.21,4.12-20.82,3.86-29.16-8.05,15.3-33.58,11.15-64.71,1.85-99.75,27.06-26.96,31.26-57.23,43.75-88.81l8.86,57.48c10.24-8.01,5.15-19.34,5.2-26.21.02-3.38,4.3-7.9,10.54-7.71l13.13,12.23-24.47,101.51c-2.62,94.56-8.59,188.81-17.91,282.77l56.99,325.81c30.65,133.7,109.88,253.92,232.9,318.59,117.56,116.5,348.71,118.33,467.76,3.4,121.94-62.75,202.89-178.69,237.39-309.7l60.1-349.93c-8.32-84.09-14-168.46-17.05-253.11-25.88-105.84-40.51-213.21-43.9-322.11-12.68-15.77-13.24-28.57-1.69-38.39,7.4,5.59,24.93-.61,33.92,1.99,30.26,8.75,31.57,86.99,9.31,145.34l-4.84,103.23c11.15-5.48,12.46-13.26,15.98-21.38,44.05,15.25,47.17,107.55,41.61,174.07l-6.42,76.79,33.81,34.33Z"/>
          <g>
            <path class="cls-8" d="M2130.6,968.68c8.4,9.95,24.3,22.29,26.73,40.28,14.89,110.34-13.61,218.52-71.28,312.81-12.75,20.85-29.65,37.64-56.15,41.81l18.18-123.99c45.82-27.47,44.83-72.59,37.12-119.17-6.09-36.77,33.87-63.81,60.15-89.73-32.56-24.06-54.14,6.91-69.64,34.5-8.12-9.13-7.62-26.17-4.61-33.06l15.96-36.53c8.98-20.57,24.66-31.32,43.56-26.94Z"/>
            <path class="cls-8" d="M864.07,969.65c11.82,16.18,20.6,37.61,27.76,55.4,3.12,7.74,2.04,22.56,1.51,36.86l-34.32-36.24c-5.53-5.84-15.84-5.81-21.86-5.19-4.62.48-13.54,9.73-9.19,15.81,19.61,19.67,59.46,50.06,52.7,83.08-9.71,47.38-10.58,94.94,36.27,123.66l16.96,121.56c-37.63-11.54-55.98-42.24-71.92-75.61-42.17-88.35-68.02-183.68-52.75-281.31,2.27-14.52,11.22-27.34,19.01-33.27,10.17-7.74,23.79-6.74,35.83-4.75Z"/>
            <path class="cls-39" d="M1905.59,2046.49l30.61-7c7.21-1.65,27.36,10.29,24.07,21.61-80.68,278.12-609.41,362.88-864.07,134.74-80.1-71.76-97.29-158.61-68.15-154.69l30.3,4.07c21.55-8.97,23.26-41.3,23.91-62.39l7.59-245.55c41.42,48.67,90.29,78.55,138.22,114.92,46.93,35.61,93.71,63.7,154.39,72.46,64.55,9.56,131.75,9.87,196.36-.05,61.74-5.31,107.51-36.74,154.7-71.58,50.42-37.22,101.45-66.9,146.22-117.24l6.2,207.68c1.05,35.01,2.37,68.52,19.64,103.03Z"/>
            <path class="cls-24" d="M2084.61,2092.65c-36.53,166.15-191.78,280.47-351.57,329.87-167.28,51.72-342.63,50.38-509.92-2.92-151.43-48.25-305.44-168.17-332.13-325.55l77.28-35.91c17.84,121.11,130.12,216.47,246.35,261.73,193.44,75.33,413.61,67.4,597.27-28.35,95.58-49.83,165.76-126.68,194.11-232.97l78.63,34.08Z"/>
            <path d="M2058.58,1076.1c-46.44,50.34,22.49,92.01-10.03,113.37-14.56-31.87-10.88-62.98-15.64-95.54-4.19-28.64-11.52-55.24-1.33-81l9.22,49.77c3.52,1.28,9.24-2.59,11.48-3.99,3.72-2.32,11.64,11.6,6.29,17.39Z"/>
          </g>
        </g>
        <g>
          <path class="cls-39" d="M1947.72,517.77l16.73,34.93,16.84,203.14,27.47,120.36,10.28,191.35c1.55,28.87,10.48,54.23,5.4,84.19l-47.46,280.02c-26.31,155.2-112.75,298.67-255.01,371.87-66.22,66.76-148.47,85.88-241.41,85.97-94.88.09-177.94-21.45-244.63-89.45-136.58-71.75-219.49-210.32-245.33-359.36l-49.6-285.97c-6.09-35.11,5.85-61.39,7.36-94.17l9.38-202.45,26.75-111.47,1.31-84.62c1.36-88.24,27.65-171.03,87.43-235.7,50.29-54.41,124.25-59.22,196.43-52.57l143.15,13.2c50.55,14.58,91.79,4.03,142.13-.04l117.31-9.49c131.35-10.63,196.86-23.92,275.5,140.29Z"/>
          <g>
            <path class="cls-1" d="M1356.08,861.18c-3.77,50.34-92.23,8.32-210.12,21.07l-99.1,24.9c12.55-68.2,74.21-101.15,136.76-97.82,82.01,4.36,176.74-5.35,172.46,51.85Z"/>
            <path class="cls-16" d="M1825.2,883.64c-124.4-19.19-214.75,28.52-221.4-22.64-2.17-16.7,7.62-35.98,28.57-40.2,62.29-12.55,126.17-15.73,190.68-6.73,43.43,6.06,82.64,47.96,89.43,89.53-32.04,5.02-56.88-15.27-87.28-19.96Z"/>
            <path class="cls-21" d="M1559.27,1303.02c12.51-4.07,21.77,1.12,24.96,11.52,7.5,24.42-30.69,16.79-79.25,43.33-29.87,16.33-54.6-3.09-82.21-12.72-31.89-11.12-64.1-34-52.47-73.96,25.92-89.05,46.37-178.2,57.33-270.55,3.3-9.9,11.83-9.39,15.29-6.79,29.22,21.89-22.78,201.71-42.97,295.05,22.06,19.08,58.74,46.83,87.81,37.38l71.5-23.24Z"/>
            <path class="cls-42" d="M1678.36,1524.97c-130.23,30.98-264.01,31.1-394.02-1.06-8.8-2.18-15.7-9.15-15.98-14.16-.32-5.64,3.26-13.03,12.77-21.2,127.3,26.9,258.01,29.76,387.54,2.09,14.08-3.01,22.4-1.62,26.21,11.32,2.51,8.53-3.12,19.82-16.52,23.01Z"/>
            <path class="cls-16" d="M1786.69,991.52c3.37,25.11-4.37,49.09-21.1,61.34-17.66,12.94-45.67,11.54-62.3-.09-19.38-13.55-23.64-35.3-19.93-63.74-15.76,8.7-23.21,23.12-45.43,21.68,6.14-37.25,38.46-57.47,74.55-63.3,51.14-8.26,105.17,15.68,135.35,57.68,4.33,6.03-9.4,17.98-13.56,14.76-14.34-11.12-23.11-23.68-47.57-28.35Z"/>
            <path class="cls-1" d="M1285.4,1000.05c-4.76,20.53-13.17,45.31-27.69,53.61-21.18,12.12-46.8,10.71-62.22-1.24-18.23-14.13-21.86-36.71-20.25-63.46-22.5,9.7-32.38,32.74-62.61,30.73,13.4-41.6,50.72-62.84,83.7-69.67,42.32-8.76,83.84.1,112.8,31.58l7.34,13.14c2.08,3.73-.91,10.89-3.82,12.07-4.27,1.73-18.7-4.63-27.25-6.76Z"/>
          </g>
        </g>
      </g>
    </g>
  </g>
  <g>
    <path class="cls-27" d="M5249.22,2012.03c-8.99,4.97-21.61,4.47-30.16,16.05,47.88,37.22,101.58,53.74,154.04,79.56,20.16,9.93,42.12,5.33,61.12,12.27l375.21,137.16c285.37,104.32,349.4,393.45,368.31,677.4-1.15,10.7-39.19,11.19-45.44,1.08-23.83-257.24-72.65-533.06-336.73-632.22l-351.17-131.86c-40.43,112.38-161.27,219.46-270.24,270.94-343.9,162.45-850.58,95.02-1024.77-265.46l-354.78,131.75c-132.93,49.37-224.02,154.86-265.98,290.76-40.94,108.72-52.46,220.49-70.05,335.51-1.63,10.64-37.19,11.14-45.08.37,27.69-272.74,85.15-570.34,368.31-671.82l390.13-139.81c73.3-26.27,143.1-51.74,206.12-89.29,4.29,8.63,18.36,14.36,19.8,9.74l7.03-22.52c11.08-10,21.85,5.94,25.23,13.73,5.89,4.72,11.29,12.18,8.15,18.27-25.78,49.88-180.91,109.58-237.04,119.64l14.27,8.69c238.45,389.96,935.08,382.57,1169.82-9.19-66.17-20.86-133-48.67-190.83-87.51-20.96-14.08-50.24-34.65-29.21-57.59,2.29.3,6.65,4.85,8.79,4.92,3.18.1,7.13-6.34,13.11-9.8,8.78-5.08,20.01,6.96,22.61,14.77l10.67-24.71c5.09-11.78,22.33.23,28.8-.84Z"/>
    <path class="cls-39" d="M5165.25,2027.69c7.01,13.38,11.32,26.42,27.54,37.41,65.55,44.44,134.52,72.49,213.28,99.9-53.22,98.45-132.38,181.17-236.06,232.58-238.77,118.39-527.62,117.31-761.68-7.58-96.22-51.34-167.35-123.12-218.3-221.6,75.02-26.49,138.49-56.86,204.74-93.96,18.09-10.13,27.43-22.92,35.34-39.07,12.61-25.73,22.86-52.95,23.77-85.24l5.43-193.58,28.93,19.43,25.84,1.2c188.66,175.86,412.87,139.64,593.81-25.73l13.5-.84c12.22-2.24,15.29,6.13,15.28,14.17-.19,90.41-3.91,200.84,28.6,262.9Z"/>
    <g>
      <path d="M5477.42,1965.43c-3.69-14.01-9.62-20.43-17.79-19.29-34.68,31.61-80.91,68.16-135.14,65.55-23.17-1.11-56.55-9.25-75.26.33-15.35-1.92-25.8,2.56-31.34,13.44,20.69,31.61-41.12,20.5-52.63,2.22l-20.01-5.27c-23.81-88.58-31.76-179.18-23.87-271.8,5.51-19.47-.74-17.4-18.77,6.19-18.02,18.79-35.61,21.04-33.01-7.49l8.58-27.75c115.82-92.67,160.76-222.59,204.61-355.96l18,2.12c8.81-13.66,22.22-19.11,40.23-16.35,2.41-14.25,13.47-18.98,33.2-14.2,37.11-43.68,109.84-214.46,51.59-269.58-42.28-40.01-37.53,89.48-15.65,112.4,12.2,40.64-31.79,127.8-69.34,84.72-10.56,1.58-11-3.93-1.34-16.53l-2.45-18.87c12.41-7.06,4.86-16.47-22.63-28.24-1.01-90.25-8.58-179.79-22.71-268.63-51.17-95.69-90.08-197.15-116.73-304.36-27.74-70.87-72.88-137.78-148.13-162.39l-10.24-19.49-56.48-18.81-6.83,15.94c-107.05-4.89-205.55-5.73-265.35,99.09-54.48,91.33-108.62,182.83-162.4,274.5,42.31-1.33,161.47,12.98,146.23,73.54-4.58,18.22-22.85,26.7-40.56,26.67-63.2-13.9-124.69-16.29-184.47-7.17-52.62,54.26-110,102-172.15,143.22-1.12,34.65-8.15,66.34-21.06,95.07-24.7,17.89-43.87,6.86-57.48-33.09-68.54,45.52-42.99,115.16-8.22,176.32,49.43,86.95,57.6,37.04,35.89-30.82,5.03-35.72,32.38-44.96,57.09-19.37,21.72,141.73,67.73,271.05,138.03,387.95l37.84,45.48c25.43,18.62,40.51,40.24,45.24,64.86,21.51,20.46,17.19,44.39-13.67,36.41l-13.97,13.99c4.37,83.77-3.88,164.29-24.78,241.56l-19.39,3.84-16.35,2.91c-11.61,30.91-48.38,29.33-35.7-3.87,7.31-23.39-72.06.38-149.18-55.93-11.7,20.36-27.63,24.21-47.96,19.84-71.29-15.34-132.44-53.27-159.28-123.19-38.36,1.73-72.15,8.56-104.72-27.07,59.57-18.64,91.23-79.51,66.64-127.66-141.18-148.85-130.71-355.21-62.91-540.2,37.37-101.98,63.63-201.06,81.76-308.34,41.4-244.99,120.03-486.03,305.78-656.02,153.17-140.17,359.97-208.73,564.33-176.6,65.46,10.29,120.54,37.16,161.9,89.91,192.6-49.58,331.77,96.47,410.97,269.11l77.06,216.21c43.22,166.18,94.93,323.34,147.52,486.1,47.08,145.7,44.04,292.63-13.39,431.53-37.03,89.55-23.19,208.56,72.83,230.51-27.78,38.05-64.69,30.57-105.09,16.98-4.72,90.8-63.85,166.47-146.9,185.82Z"/>
      <g>
        <path class="cls-15" d="M5477.42,1965.43c-6.33-.52-13.94-13.66-17.79-19.29l51.13-71.57c3.75,38.27-28.8,58.39-33.34,90.85Z"/>
        <path class="cls-29" d="M5341.02,1351.38c-28.68,13.86-34.3-9.38-16.87-69.73,1.96-11.74,7.52-17.38,16.68-16.92,14.05,2.59,28.89-5.05,37.78-16.92,28.75-38.38,16.92-75.16-1.37-115.4-9.31-20.48,3.79-72.97,23.37-86.48,20.42-10.35,56.22,22.32,58.6,44.41,10.43,96.7-21.18,187.71-76.18,263.21l-42.01-2.17Z"/>
        <path class="cls-25" d="M4800.67,316.18c26.23-3.29,33.15.84,20.76,12.38-218.86,39.48-284.49,326.73-436.25,493.23-15.11,7.94-14.68,1.5-6.38-12.37,137.48-154.33,203.6-441.82,421.87-493.24Z"/>
        <circle class="cls-32" cx="5358.89" cy="1425.28" r="43.84"/>
        <circle class="cls-31" cx="4228.04" cy="1424.14" r="43.86"/>
        <path class="cls-11" d="M4185.8,1034.88l-155.72,90.32c3.48-22.88,23.14-34.23,38.55-43.69l212.34-130.41c-14.46,41.06-56.28,61.22-95.18,83.78Z"/>
        <path class="cls-34" d="M5527.29,1017.47l12.34,13.54c2.12,2.32.43,11.97-3.94,11.72-4.33-.25-11.16-7.8-17.24-10.78-83.55-41.01-163.49-97.47-192.9-190,54.53,76.02,113.6,136.27,201.73,175.51Z"/>
        <path class="cls-35" d="M4009.01,1813.71c17.36-39.38,40.1-80.32,28.53-127.44l-27.16-110.64c31.17,35.88,35.88,75.77,45.22,118.03-1.35,42.33,2.29,92.36-46.59,120.05Z"/>
        <path class="cls-23" d="M5611.11,1498.11c-20.07,62.06-8.89,113.2-7.08,176-41.67-50.74-12.92-178.56-5.18-186.99,2.43-2.65,15.19-.49,12.26,10.99Z"/>
        <path class="cls-40" d="M4966.37,245.36c-43.15-24.26-87.35-40.61-143.12-49.08,49.03-6.02,110.32-6.79,143.12,49.08Z"/>
        <path class="cls-30" d="M5016.6,446.21c-29.34-7.37-48.95,7.33-56.48-18.81,37.03-30.76,18.71-70.67,30.36-89.47,3.16-5.09,8.27-5.53,11.21.71,1.35,2.85,5.59,7.6,4,13.71l-18.24,70.23c9.17,12.41,19.57,17.44,29.15,23.63Z"/>
        <path class="cls-14" d="M4821.43,328.56c-1.13-10.19-12.6-12.1-20.76-12.38,38.37-9.04,84.84-14.81,112.77,17.46-32.91-5.22-61.04-10.67-92.01-5.08Z"/>
        <path class="cls-28" d="M4385.18,821.79c-16.13,17.7-25.89,41.23-59.86,47.67l53.48-60.04,6.38,12.37Z"/>
      </g>
    </g>
    <g>
      <path class="cls-39" d="M4960.11,427.4c18.49-.87,37.32,5.4,56.48,18.81,114.28,28.72,166.38,136.8,198.74,253.26,17.98,81.54,47.91,155.49,91.16,227.66,17.25,90.06,22.35,178.53,20.88,268.4,5.47,6.36,18.93,5.35,20.66.39,1.69-4.84,4.25-12.03,13.93-18.41,8.58,20.64-1.55,56.98-22.48,70.68-16.19,33.02-29.88,71.8-20.33,107.98l-18.36,11.56c-9.06,11.93-16.53,25.45-20.47,43.51-29.74,136.37-104.46,253.57-210.72,338.08,4.04,5.08,7.65,13.6,4.02,16.15-88.9,62.36-178.68,120.27-292.98,117.08-99.69-2.77-197.08-58.05-273.98-118.82l-4.76-24.15c-166.79-141.32-186.18-281.72-231.6-484.39-2.43-10.85-14.43-14.52-20.76-11.99-4.48,1.79-11.83,7.74-10.16,15.82l19.28,93.25-54.55-2.01c-31.77-52.66-70.96-112.81-67.21-177.81,2.09-36.28,42.98-62.01,64.55-83.83l25.38,52.39c3.79,7.82,20.35-4.82,21.65-14.35l11.49-83.99c72.37-34.35,118.71-99.08,179.1-146.43,89.46-32.48,197.28,27.98,215.52-5.32,21.81-39.82-77.95-65-167.99-56.46,36.7-44.52,61.91-88.04,90.03-135.51l94.56-159.61c35.2-59.41,96.82-110.61,168.33-111.11l120.58-.84Z"/>
      <g>
        <path class="cls-42" d="M5121.37,1750.62c-53.79,59.02-128.91,109.35-211.03,139.97-75.75,28.25-166.16,26.37-241.6-.89-69.66-25.17-129.25-68.93-180.52-113.71,10.16-11.26,18.93-22.66,13.67-36.41,32.88,27.86,70.61,47.92,108.9,73.31,120.56,79.95,278.41,69.47,389.47-21.6l69.34-41.97c34.31,27.74,41.64-48.69,96.73-60.07-14.74,23.24-30.77,45.81-44.96,61.38Z"/>
        <path class="cls-22" d="M5340.83,1264.73l-22.47,83.89c5.69,4.47,14.6,4.38,22.66,2.76-10.69,10.68-25.5,15.05-40.23,16.35,25.87-34.05-18.21-82.29,38.7-119.54,2,6.42,2.42,12.51,1.34,16.53Z"/>
        <path class="cls-6" d="M4599.92,1523.01c-42.81-35.64,139.06.15,248.51-12.61,42.13-4.91,83.96,3.18,124.11-12.96,5.25.46,13.72,13.52,12.74,18.16-1.04,4.94-4.25,12.72-13.3,15.9-117.46,41.25-242.21,44.5-358.94.7-7.5-2.81-10.37-6.9-13.12-9.19Z"/>
        <path class="cls-1" d="M4476.18,1010.76l-41.7,31.38c-7.22,5.44-18.68-5.04-17.75-11.68.98-6.93,5.85-11.21,11.84-18,47.37-53.71,127.6-68.9,178.01-15.35,4.4,4.68,7.68,12.85,9.21,16.86,1.23,3.22-4.08,11.23-9.75,10.04-4.84-1.02-10.4-9.78-20.42-13.94,1.93,27.38.63,50.22-16.88,66.23-16.36,14.95-45.67,20.26-67.07,7.02-20.52-12.7-29.68-33.92-25.49-72.56Z"/>
        <path class="cls-16" d="M5102.32,1012.13c4.61,24.72-.25,46.51-17.25,63.69-15.25,15.4-43.53,20.49-65.71,6.39-19.31-12.28-28.71-34.24-25.33-66.64-13.22,7.24-28.31,9.45-33.61.58,15.7-33.24,56.42-52.63,90.72-53.02,64.72-.74,113.97,59.01,113.61,67.43-.32,7.32-13.26,16.66-20.09,10.31-12.26-11.38-19.57-23.24-42.34-28.73Z"/>
        <path class="cls-6" d="M5218.32,920.21c-146.94-73.58-252.31-4.07-287.93-24.58-19.43-11.18-1.12-41.97,18.31-47.67,104.36-30.6,238.72-29.86,269.62,72.24Z"/>
        <path class="cls-42" d="M4859.13,1323.16c13.89-3.51,17.19,18.23,11.89,24.23-4.2,4.76-19.55,5.46-25.18,8.52-40.73,22.16-69.07,24.01-107.73,3.34-27.77-14.85-54.09-35.12-43.28-72.89,23.17-80.92,38.16-163.25,46.75-246.69.7-6.79,16.88-7.34,19.85-1.8,17.08,31.87-19.68,183.61-38.09,267.86,17.79,19,48.76,39.39,72,33.52l63.79-16.1Z"/>
      </g>
    </g>
  </g>
</svg>