<?xml version="1.0" encoding="UTF-8"?>
<svg id="Layer_1" xmlns="http://www.w3.org/2000/svg" version="1.1" viewBox="0 0 2995.13 2990.91">
  <!-- Generator: Adobe Illustrator 30.3.0, SVG Export Plug-In . SVG Version: 2.1.3 Build 182)  -->
  <defs>
    <style>
      .st0 {
        fill: #262626;
      }

      .st1 {
        fill: #070707;
      }

      .st2 {
        fill: #1b1b1b;
      }

      .st3 {
        fill: #d6d6d6;
      }

      .st4 {
        fill: #d2d2d2;
      }

      .st5 {
        fill: #0a0a0a;
      }

      .st6 {
        fill: #767676;
      }

      .st7 {
        fill: #ebebeb;
      }

      .st8 {
        fill: #111;
      }

      .st9 {
        fill: #5b5b5b;
      }

      .st10 {
        fill: #e5e5e5;
      }

      .st11 {
        fill: #060606;
      }

      .st12 {
        fill: #bebebe;
      }

      .st13 {
        fill: #bcbcbc;
      }

      .st14 {
        fill: #fafafa;
      }

      .st15 {
        fill: silver;
      }

      .st16 {
        fill: #101010;
      }

      .st17 {
        fill: #f7f7f7;
      }

      .st18 {
        fill: #d5d5d5;
      }

      .st19 {
        fill: #f8f8f8;
      }

      .st20 {
        fill: #f5f5f5;
      }

      .st21 {
        fill: #dbdbdb;
      }

      .st22 {
        fill: #f3f3f3;
      }

      .st23 {
        fill: #dcdcdc;
      }

      .st24 {
        fill: #d1d1d1;
      }

      .st25 {
        fill: #e0e0e0;
      }

      .st26 {
        fill: #fdfdfd;
      }

      .st27 {
        fill: #cfcfcf;
      }

      .st28 {
        fill: #e8e8e8;
      }
    </style>
  </defs>
  <path d="M258.67,2988.64c3.5-229.57,122.77-451.01,348.48-507.05l272.88-67.75,18.94,7.74c21.02-1.57,47.37,5.96,35.48,29.6l.58,21.48c299.4,358.96,895.97,365.3,1205.95,17.41l29.66-11.79c19.67-16.3,11.34-25.96-25.02-28.97-8.64-28.9,20.15-32.05,46.08-26.24l20.07-5.56c10.02-10.36,28.64-.48,42.98,3.15l269.29,68.25c222.41,74.76,312.28,262.67,328.59,498.97"/>
  <path d="M2218.21,1329.73c-23.4,3.23-1.77-20.52-2.09-15.53-2.55,39.88-110.46,59.77-134.38,24.45-8.27-17.36-16.38-20.61-24.34-9.76-32.87,10.5-41.52-44.28-45.32-70.25,4.78-40.72,0-73.28-14.36-97.68-14.43,12.89-31.55,4.92-51.36-23.91-94.42-22.78-119.84-85.18-100.65-176.7-27.54-1.43-43.07-10.57-46.58-27.41-7.01-9.78-7.46-15.8,2.9-20.97,43.43,6.92,54.63-1.19,33.58-24.34-20.16.77-63.23-29.01-79.87-44.09-8.42-7.63-14.73-16.64-19.08-27.17-3.91,40.77-9.19,66.92-32.36,16.71-51.43-25.92-77.14-38.88-77.14-38.88-70.97,21.96-136.74,15.57-208.7.82-64.18,13.01-100.69,47.5-109.53,103.47-24.34,37.06-61.72,60.08-112.14,69.04,20.66,113.27-20.08,150.25-113.57,193.4-25.76,23.14-47.46,49.05-65.1,77.72,11.17,42.53-13,74-54.94,86.48-25.51,7.59-83.39,18.26-101.69-2.43l-16.1,5.53c-13.41-.2-11.19-22.98-15.48-30-94.36-79.41-8.7-147.03-28.55-181.25-32.08-55.29-16.29-119.15,32.29-159.24,34.11-28.15-40.06-137.41,102.54-200.56,18.09-33.43,28.16-82.94,77.1-106.01-34.2-13.34-29.3-48.96-44.67-67.55-25.51-30.87-52.97-49.1-50.11-91.39,2.2-32.59,28.81-59.5,50.92-86.44-8.17-25.42-27.29-58.49-15.12-87.27,30-70.94,81.22-44.04,91.67-95.07,13.61-66.51,82.46-100.11,149.9-88.79,47.42-67.8,123.65-90.13,201.1-68.72,76.45-63.32,180.03-59.39,250.22,9.88,54.71-27.44,114.73-26.92,159.93,12.14l71.35,61.66c40.66-11.63,74.85-.8,106.4,19.12,32.45,20.49,36.26,61.86,49.11,97.67,24.76,13.35,55.13,29.55,68.64,50.32,20.89,32.11,3.6,66.23,1.5,93.71,17.46,25.74,46.67,48.72,48.35,81.73,2.03,39.99-27.35,62.53-50.39,90.7-2.98,22.72,5.56,63.8-23.93,79.95,20.91,26.59,41.13,59,50.94,93.86,72.73,18.85,107.93,81.71,101.59,151.94l1.53,84.18c53.31,43.31,62.31,114.74,25.43,172.72,30.66,60.97,8.93,122.42-39.46,164.23Z"/>
  <path class="st22" d="M1967.32,1099.08c-35.02-8.58-69.67-24.04-76.91-56.03-5.62-24.8,3.71-48.25,6.81-78.02,67.8,32.9,70.18,62.34,70.1,134.05Z"/>
  <path class="st22" d="M1155.69,1041.15c4.04,38.05-44.32,59.49-70.87,68.43-12.41-61.91,7.86-110.29,63.86-134.47l7.01,66.03Z"/>
  <path class="st13" d="M1505.22,474.23c1.94-3.62,4.55-3.91,7.79-1.15,12.3.13,30.2-10.12,40.73-16.09,47.19-26.79,85.53,16.65,123.47,19.58,55.75,4.3,109.6-6.18,141.74,52.77,49.69-13.5,99.2,11.01,115.13,57.23-35.66-35.86-75.81-53.34-126.5-54.11-32.02-43.43-85.93-53.41-135.62-34.65-39.29-38.23-92.92-42.55-139.45-19.17-10.68,5.37-22.1.51-27.28-4.41Z"/>
  <path class="st12" d="M1513,473.08l-7.79,1.15c-48.5-17.06-98.49-10.23-140.43,25.09-53.65-15.47-98.08-.82-135.93,35.28,21.46-57.42,85.67-62.92,137.33-47.2,39.9-42.7,106.84-51.25,146.81-14.33Z"/>
  <path class="st7" d="M1835.63,887.63c3.63,13.28,10.91,19.94,3.64,21.53-8.4,1.84-16.66-5.49-21.06-5.96-47.22-5-79.71-40.76-81.53-86.82,38.21,19.27,74.31,41.09,98.95,71.26Z"/>
  <path class="st28" d="M1275.06,847.94c-5.77,46.19-41.66,67.12-82.58,72.6,12-42.47,40.75-60.43,74.15-78.94,5.6-7.43,15.05,1.04,8.43,6.33Z"/>
  <path class="st28" d="M2082.73,385.87c-4.97,12.86-16.35,5.93-20.81.81-13.15-15.09-1.3-44.31-24.71-87.49,39.29,8.94,60.57,47.74,45.52,86.68Z"/>
  <path class="st21" d="M1114.7,231.37c-4.26,7.51-26.86,10.68-37.49,7.92,6.7-36.57,29.31-66.52,71.12-69.22-15.29,23.63-26.48,35.35-33.62,61.3Z"/>
  <path class="st25" d="M1776.36,109.22c-28.85-2.84-52.04,6.41-77.42,15.7-7.56,1.97-21.18-15.85-20.45-28.21,33.13-10.37,74.21-14.78,97.87,12.51Z"/>
  <path class="st23" d="M2077.66,552.06c14.69-35.75,19.84-65.08,5.1-106.76,22.19,5.89,30.48,31.29,30.9,47.69.62,24.38-5.6,50.17-36,59.07Z"/>
  <path class="st24" d="M1037.36,288.47c-30.62,28.24-38.56,52.74-45.22,88.2-11.37-15.86-10.13-44.9,1.07-63.09,7.68-12.49,24.33-26.12,44.15-25.11Z"/>
  <path class="st10" d="M2196.1,871.04c-27.88-16.02-44.85-39.85-44.2-75.38,23.64,18.65,45.3,34.74,44.2,75.38Z"/>
  <path class="st15" d="M870.95,879.94c-1.1-33.95,13.24-55.65,36.51-77.33.5,29.74-8.24,56.14-36.51,77.33Z"/>
  <path class="st12" d="M1226.31,538.41c-39.43,1.6-73.15,15.1-104.54,48.7,13.03-43.5,54.2-66.47,104.54-48.7Z"/>
  <path class="st27" d="M2030.82,627.76l30.75-33.69c14.84-1.2,14.42,23,5.48,31.28-8.85,8.2-21.22,16.6-36.22,2.4Z"/>
  <path class="st4" d="M1972.43,213.95c-20.85-7.72-45.36-13.6-71.32-30.23,23.45-8.85,53.38-4.97,71.32,30.23Z"/>
  <rect class="st0" x="795.78" y="1201.77" width="43.53" height="15.78" transform="translate(-405.91 2006.43) rotate(-89.02)"/>
  <path class="st6" d="M977.47,450.31c-11.34,23.21-14.1,39-14.27,62.25-20.8-3.43-15.9-20.58-12.14-33.65,3.61-12.55,8.31-28.25,26.41-28.59Z"/>
  <path class="st9" d="M1565.97,64.57c-26.31,3.69-47.62,8.34-74.39-4.22"/>
  <path class="st26" d="M2170.64,2478.28c-309.19,380.22-958.78,381.57-1265.42-18.9l29.22-8.21c91.67-25.76,186.46-46.39,277.26-85.11,48.7-73.18,37.22-198.76,41.93-296.5,206.91,161.2,375.64,155.8,574.69-4.17.37,101.3-5.74,214.96,38.8,299.2,88.39,46.16,300.91,89.36,307.84,96.29,5.12,5.12,2,13.43-4.33,17.4Z"/>
  <g>
    <path class="st11" d="M1034.72,1315.38c-9.85,27.99-20.88,36.34-33.1,25.06-11.27,31.42-26.3,58.46-45.09,81.1-8.52,2.3-17.51-2.48-26.95-14.33-11.63-30.31-35.51-50.37-55.99-13.91-38.86,69.2,24.84,220.03,77.79,274,15.86-12.46,27.63-11.87,35.29,1.78,20.36,6.26,22.85-6.79,17.17-25.02-10.79.04-18.2-5.76-22.25-17.39-64.68-29.46-95.17-108.87-41.7-161.4,40.5-8.26,56.46-40.16,47.86-95.72,6.84-35.14,35.9-49.57,37.66-9.39,1.69,38.56-19.5-5.17,8.86-1.92l14.17,9.33c.39,39.15-7.73,75.12-24.35,107.91l62.79,267.69c82.36,240,351.89,486.75,610.33,345.01,199.09-109.19,308.24-290.4,323.39-515.04-8.73-28.31-14.08-57.03-16.03-86.14,23.64-47.12,36.38-95.73,38.22-145.84l14.62-12.27c-.66-11.63-1.04-25.6-12.01-35.2,31.86-17.64,33.64,38.19,67.93,49.96,14.53,4.99,31.05-8.11,45.25-7.85,27.7.51,41.31-7.29,56.91-29.96l2.72,23.89c3.17,27.77,65.5,74.36,27.45,215.96,14.93,21.97,35.28,46.55,34.4,73.41-1.82,55.11-50.67,72.55-44.65,95.79,5.39,20.83,43.37,39.63,44.05,76.96.98,53.8-88.8,92.68-25.66,148.88,18.57,16.53,24.18,41.68,18.38,67.22-9.17,40.36-102.32,66.12-51.56,131.97,17.92,23.24,21.91,62.65-17.73,76.75,22.22-36.89,18.66-54.48-2.27-79.05-27.28-32.02-12.84-78.68,22.34-97.35,16.63-8.83,25.94-26.97,29.44-41.86,9.35-39.86-50.22-59.24-44.94-107.4,4.93-44.96,47.39-65.05,47.87-99.32.43-30.51-40.87-43.11-42.71-75.91-1.95-34.66,81.33-68.31,23.6-139.69-23.07,57.49-51.59,102.94-94.37,143.38,53.19,107.64,40.96,282.56-47.05,294.4-60.19,8.1-88.86-72.33-95.12-154.27-32.83,63.94-74.06,118.22-129.37,167.37l1.24,196.75c.24,37.54,9.41,72.46,22.23,108.6,77.98,36.68,159.58,57.58,243.78,78.11,25.96,6.33,49.83,10.73,74.21,7.07-11.09,11.47-25.46,12.89-46.67,5.69,4.25,13.66,13.52,12.73,19.56,15.9-18.56.69-26.9-.43-36.58,8.36l27.36,3.29c5.48.66,12.22,4.03,10.87,13.16-1.34,9.01-12.28,10.17-15.68,14.36-8.32-13.75-10-15.68-5.05-5.81-106.59-22-209.61-54.67-309.06-98.01-37.27-85.06-51.7-176.38-43.28-273.97-173.86,131.28-371.37,136.64-545.61-.52.61,53.85-.84,249.42-47.03,277.51-52.31,31.82-190.61,68.23-254.65,80.59l-31.52-6.9c-7.13-12.41-21.23-10.57-40.38-10.54l27.35-14.29c-19.96,2.53-32.31.46-41.39-12.5,25.13,7.01,48.95,1.34,73.76-5.18,83.1-21.85,160.2-39.65,238.84-77.38,16.99-99.25,34.05-207.19,10.16-301.57-37.28-53.65-100.33-96.41-120.89-164.51-13.13,82-29.83,157.09-98.07,148.22-82.3-10.69-95.43-178.84-49.02-287.55-46.6-42.06-80.88-89.94-104.23-152.98-50.25,71.65,29.18,98.44,35.15,136.9,5.04,32.49-39.17,44.68-38.43,81.73.77,38.45,91.99,88.9,23.28,153.16-13.21,12.35-20.74,31.89-18.25,46.58,7.33,43.27,65.06,50.4,71.65,87.33,10.72,60.05-44.4,69.87-13.42,133.28-37.07-15.92-29.67-55.28-11.93-80.71,44.43-63.67-55.72-83.66-65.94-130.52-5.59-25.61,2.22-48.81,19.47-66.84,56.4-58.94-30.78-93.02-31.22-142.81-.35-40.34,42.63-59.92,43.28-82.01.69-23.87-48.65-33.29-53.03-90.64-1.89-24.72,18.15-50.4,29.75-70.98-41.25-144.25,19.18-187.44,24.5-219.08,1.48-8.81-.05-17.56,7.72-30.66l34.85,26.24c54.07-18.96,87.49.21,116.21-44.12,9.05-13.96,17.22-25.8,13.95-41.05,27.61-5.05,38.54,66.13,16.57,76.72Z"/>
    <g>
      <path class="st17" d="M956.54,1421.54c31.18-.37,14.3,43.63-13.52,30.22l-3.11,13.51c2.99,13.58-2.78,26.47-8.25,42.07-14.19,40.48,10.9,81.35,47.55,99.78,19.34,9.72,20.79,20.5,24.64,36.94,10.5,36.04,4.78,44.37-17.17,25.02-11.42.39-23.27,9.73-37.47,17.54-68.74-67.12-119.87-202.14-94.72-287.52,7.54-25.61,41.09-53.23,66.24-33.67l35.81,56.11Z"/>
      <path class="st20" d="M2176.03,1411.94c-25.98-4.49-33.78-12.27-23.4-23.34-9.83.59-10.59-3.3-10.9-10.26-.33-7.51,2.06-14.69,12.73-17.12,54.58-12.41,82.7,90.14,51.02,167.71-8.74-3.96-18.24-2.21-16.99.47l9.68,20.73c-8.38,49.36-39.91,99.33-76.81,136.64-18.98-14.12-32.03-20.99-57.32-9.51-5.89-75.2,51.45-70.27,69.76-115.34,13.15-32.35.92-53.57-8.71-80.69,19.62-58.79,91.68-28.67,50.93-69.3Z"/>
      <path class="st19" d="M2114.93,1736.94c39.04,89.29,32.79,229-22.5,242.8-49.85,12.44-78.89-140.41-42.79-230.57,27.46,9.38,43.61,4.52,65.29-12.24Z"/>
      <path class="st14" d="M1025.18,1751.18c32.56,87.51,17.43,229.91-34.42,228.98-51.19-.92-67.96-144.16-29.68-235.93,21.9,6.83,38.8,9.45,64.1,6.95Z"/>
      <path d="M1034.72,1315.38c3.19,14.71,1.02,28.06-.44,42.88-8.27,4.08-8.86,12.86-13.89,25.35-4.28-14.8-.88-31.51-17.22-38.93l-3.28,101.55-50.61,43.03c-2.8-14.87-4.29-18.21-9.37-23.98-15.57-17.71-34.33-28.88-64.51-25.7,1.55-22.36,19.14-27.57,32.83-26.16,16.05,1.65,31.53,11.82,44.45,33.08,6.56-4.94,5.47-18.56,3.86-24.95-5.3-21.12,7.49-33.9,16.79-52.72,9.2-18.64,12.68-35.32,41.07-35.12l5.35-50.17c9.46,6.46,6.34,16.06,5.33,19.53-1.3,4.49-.47,15.16,9.65,12.32Z"/>
      <path class="st18" d="M2152.63,1388.6l23.4,23.34c-27.4-7.91-48.31,10.38-67.66,32.34-.48-21.94,4.25-37.32,10.73-54.14,14.93,8.78,26.49,6.79,33.53-1.54Z"/>
      <path class="st24" d="M991.91,1578.64c-24.28-9.07-44.77-43.3-19.15-67.13l19.15,67.13Z"/>
      <path class="st3" d="M986.68,1669.08c4.72-.16,14.98,1.16,17.99-5.42,2.1-4.58-1.53-15.2-.82-19.6,4.39,18.77,18.55,43.96,10.95,66.24-2.87,8.43-26.73,6.79-27.95-2.6,10.62-5.99,17.13-17.88,14.14-26.49-1.69-4.87-8.74-9.3-14.31-12.14Z"/>
      <path class="st28" d="M2083.96,1577.55l11.49-68.29c23.05,21.65,12.24,53.03-11.49,68.29Z"/>
    </g>
  </g>
  <g>
    <path class="st26" d="M1704.33,833.08c11.74,12.96,22.22,27.14,31.44,42.55,0,0,11.12,11.08,33.37,33.24,17.16,3.55,27.16,11.57,30.01,24.07l33.32,8.92c11.15,2.98,21.93,4.83,25.3,10.51,13.31,22.47-41.63,127.97,67.87,160.33,24.94,7.37,43.72,15.29,53.68,45.96,13.71-18.17,23.7-12.48,31.91-6.89,36.78,25.05-12.61,115.96,46.18,177.13,2.35,41.37-5.12,94.65-27.74,132.32-27.06,45.06,4.94,73.43,5.91,111.23,2.18,84.33-34.12,173.68-64.38,252.89-47.28,123.77-185.11,239.88-305.65,295.83-144.25,66.95-276.68,5.21-396.22-89.94-93.34-74.3-162.09-168.29-196.91-283.95l-64.13-273.31c6.81-15.51,17.28-28.05,18.83-43.69l7.14-72.01c-22.36-6.35-12.66-33.85.44-42.88-5.52-25.42-4.83-54-16.57-76.72-6.61-30.76,11.88-45.44,30.52-64.86,22.4-23.35,39.2-39.92,70.25-50.76,107.46-37.53,47.66-147.72,67.11-168.17,8.54-8.98,103.71-12.93,115.98-83.25,6.05-34.7,23.43-55.68,59.39-69.63l55.62-21.58,117.77,15.99,93.22-16.97c30.92,5.46,71.04,26.02,76.32,53.66Z"/>
    <g>
      <path class="st16" d="M1835.63,887.63c5.28,6.46,23.66,13.6,12.91,31.88-13.61.91-39.1-.65-49.39,13.43-53.77-4.44-85.1-48.98-94.83-99.86,6.99,5.85,8.71,13.73,17.02,19.02,3.45-19.62,8.39-30.38,15.33-35.73,20.27,40.14,48.59,64.54,84.97,73.19,9.27,13.73,13.93,13.08,13.98-1.93Z"/>
      <path class="st11" d="M1406.76,1243.36c-5.49,52.35-153.92-33.82-310.84,31,21.12-103.82,189-105.19,289.16-66.59,17.02,6.56,22.8,24.9,21.68,35.59Z"/>
      <path class="st1" d="M1868.89,1247.97c-105.5-11.45-192.21,34.65-204.07,1.39-3.58-10.03,0-32.43,15.95-39.11,98.6-41.35,258.98-43.26,290.88,56.11-38.53,6.03-66.75-14.48-102.75-18.39Z"/>
      <path class="st11" d="M1832.73,1457.74c-20.01,26.31-55.83,24.65-73.53,1.48-19.49-25.5-20.76-52.42-13.27-87.25-15.74,5.17-21.87,20.83-44.6,18.48,15.87-40.4,60.7-61,101.25-59.87,44.68,1.25,92.84,21.81,111.47,64.61l-71.41-28.48c11.43,31,10.65,63.99-9.91,91.03Z"/>
      <path class="st11" d="M1305.76,1465.34c-19.39,19.16-50.34,12.72-65.37-6.02-22.79-28.41-22.63-62.29-7.22-93.75l-77.52,30.19c12.56-34.71,48.3-52,83.6-61.46,52.41-14.06,109.58,8.49,130.16,55.67-20.36,3.7-25.93-10.15-41.72-17.5,5.03,32.66,6.08,65.22-21.92,92.88Z"/>
      <path class="st5" d="M1614.69,1808.92c56.06,17.21,95.83-24.09,90.7,16.09-147.96,86.13-365.04,12.06-332.01-14.77,14.03-11.39,39.53,14.39,78.61.86,33.58-11.62,59.14.73,90.63,2.41,21.27,1.13,42.69-13.61,72.06-4.59Z"/>
      <path class="st8" d="M1607.17,1659.78c7.8,15.14-48,50.36-115.33,20.35-20.04-8.93-44.24-29.98-32.17-57.4,26.4-60,28.37-121.23,42.78-187.96,25.44,68.8-15.62,130.88-13.44,196.27,1.67,50.12,111.62,16.02,118.17,28.74Z"/>
      <path class="st2" d="M1592.9,1910.91c-31.25,30.59-77.29,31.32-107.84,2.56,39.6.86,66.47,3.08,107.84-2.56Z"/>
    </g>
  </g>
</svg>