<?xml version="1.0" encoding="UTF-8"?>
<svg id="Layer_1" xmlns="http://www.w3.org/2000/svg" version="1.1" viewBox="0 0 2995.13 2990.91">
  <!-- Generator: Adobe Illustrator 30.3.0, SVG Export Plug-In . SVG Version: 2.1.3 Build 182)  -->
  <defs>
    <style>
      .st0 {
        fill: #0f0f0f;
      }

      .st1 {
        fill: #070707;
      }

      .st2 {
        fill: #1b1b1b;
      }

      .st3 {
        fill: #bdbdbd;
      }

      .st4 {
        fill: #d6d6d6;
      }

      .st5 {
        fill: #d2d2d2;
      }

      .st6 {
        fill: #7a7a7a;
      }

      .st7 {
        fill: #2c2c2c;
      }

      .st8 {
        fill: #1e1e1e;
      }

      .st9 {
        fill: #5c5c5c;
      }

      .st10 {
        fill: #757575;
      }

      .st11 {
        fill: #d8d8d8;
      }

      .st12 {
        fill: #9d9d9d;
      }

      .st13 {
        fill: #b1b1b1;
      }

      .st14 {
        fill: #373737;
      }

      .st15 {
        fill: #060606;
      }

      .st16 {
        fill: #bebebe;
      }

      .st17 {
        fill: #a6a6a6;
      }

      .st18 {
        fill: #0d0d0d;
      }

      .st19 {
        fill: #050505;
      }

      .st20 {
        fill: #b3b3b3;
      }

      .st21 {
        fill: #7d7d7d;
      }

      .st22 {
        fill: #868686;
      }

      .st23 {
        fill: #242424;
      }

      .st24 {
        fill: #f7f7f7;
      }

      .st25 {
        fill: #989898;
      }

      .st26 {
        fill: #9e9e9e;
      }

      .st27 {
        fill: #fdfdfd;
      }
    </style>
  </defs>
  <path class="st2" d="M2676.58,2947.45c-.83,6.04-10.98,14.38-14.9,13.04-5.83-2-12.24-11.16-13.84-22.27l68.03-276.06-39.29,285.29Z"/>
  <path class="st8" d="M341.4,2952.79c-4.07,7.95-20.01,8.96-22.32,4.03-2.54-5.41-7.2-18.32-8.17-25.68l-36.28-273.51c36.76,96.84,45.78,195.34,66.77,295.16Z"/>
  <circle class="st23" cx="982.56" cy="2614.75" r="23.66"/>
  <path class="st23" d="M2020.58,2630.06c-9.96,10.11-21.91.84-27.27-3.44-8.44-6.75-19.1-19.68-11.34-32.48,8.64-14.24,24.07-6.86,31.73-2.02,11.24,7.11,20.82,23.8,6.88,37.95Z"/>
  <g>
    <path d="M2170.82,1016.12c-28.64,3.69-8.94,24.34,4.75,37.48,2.33,19.15-6.69,23.1-27.08,11.85-7.56,10.78-19.26,18.04-35.09,21.78-.12,13.44-5.93,20.77-17.45,21.98l-9.83,3.3c-22.36-28.05-32.83-28.87-31.43-2.46l-23.19,12.62c-.86-65.31.25-129.89,3.31-193.73l-10.34-14.84c-12.51,10.6-20.78,6.02-27.2-8.1-6.2-27.3-13.3-53.87-21.31-79.71-95.7-30.99-118.5-108.24-118.8-200.12-10.08-35.12-38.01-51.96-71.98-60.53-55.34-13.95-157.94-15.03-216.25-13.56-2.39,152.74-137.41,298.79-289.07,214.07-57.18,37.26-132.08,48.48-189.11,4.88l-66.56,16.94c-9.41,24.14-15.85,50.93-19.34,80.38-19.65,26.74-35.34,53.49-47.07,80.23,5.91,22.24,1.62,36.25-12.88,42.02,3.62,21.25,4.37,42.64,2.23,64.15-17.16,19-37.27,35.73-60.34,50.17-11.82,1.71-21.83-6.96-30.03-26.02-16.82,2.94-32.29,3.2-46.4.77-21.88,11.87-32.87-4.05-22.09-26.39,5.28-3.45,10.51-14.63,21.13-17.34-5.25-38.37-30.05-60.63-51.69-89.12-32.34-42.58-29.66-101.88-22.83-152.46-42.97-8.74-85.06-39.7-87.69-82.28-.92-14.92,32.65-10.43,40.8-5.49l49.59-81.35c-70.48-12.24-126.24-62.5-107.46-89.31,10.96-15.66,68.16,10.41,72.48-14.92,8.49-49.85,29.26-86.74,67.06-119.58-48.38-31.95-75.5-89.75-52.17-136.33,8.06-16.09,24.77,6.58,30.7,12.56,21.64,21.83,68.62,19.83,94.72,3.98l22.02-31.43,105.88-47.71c-35.1-41.37-36.13-107.06,5.38-140.83,9.36-7.61,21.84,4.06,21.03,9.76-6.53,45.72,70.24,81.5,141.14,54.73,2.55-6.74-.28-9.28-7.84-8.12-3.97.53-8.46-.57-10.08-3.2-12.12-19.73,68.12-72.7,144.61-90.73,94.98-22.39,190.86-18.37,282.15,20.83,147.01-20.77,313.32,48.96,343.8,193.69,96.5-9.56,93.31-67.06,103.75-76.42,5.16-4.62,19.62-6.43,24.59,1.92,18.03,30.28,8.53,64-13.13,93.6,152.88,13.68,219.53,174.84,190.24,191.33l-15.96,8.99,43.3,79.84c31.83,58.69,99.32,21.95,106.31,37.57,11.31,25.26-34.04,68.33-91.4,77.14,34.4,79.67,36.58,157.74-23.72,209.75.43,56.1-12.71,110.32-44.09,153.77Z"/>
    <g>
      <path class="st4" d="M1138.31,126.17l-7.84-8.12c26.56-21.83,60.23-35.43,99.98-35.63-30.21,20.48-59.97,31.6-92.14,43.74Z"/>
      <path class="st21" d="M1711.53,488.92c-8.22-44.59-37.9-93.19-79.01-104.24-58.15-15.62-103.04,9.6-137.89,61.23,1.91-39.87,41.74-64.36,70.03-73.96,43.79-14.86,81.56-2.46,111.12,27.44,22.36,22.62,49.01,48.68,35.74,89.53Z"/>
      <path class="st11" d="M1354.06,735.57c53.3-21.77,92.88-59.01,127.24-116.19-5.25,60.52-54,122.44-127.24,116.19Z"/>
      <path class="st16" d="M1945.02,751.21c-25.11-23.38-29.15-58.96-23.33-93.21,19.59,29.02,17.13,56.87,23.33,93.21Z"/>
      <path class="st22" d="M1963.05,505.31c-36.59-32.09-70.42-48.8-116.13-48.61,44.55-15.76,102.48,2.37,116.13,48.61Z"/>
      <path class="st25" d="M1029,740.83c-27.85,28.66-69.31,20.87-108.38.01,20.62-8.78,52,10.78,108.38-.01Z"/>
      <path class="st12" d="M1243.15,699.01l61.29-94.3c-1.24,38.8-25.61,72.45-61.29,94.3Z"/>
      <path class="st17" d="M1232.05,293.61c-38.14,13.34-51.6,38.41-79.27,61.81,5.63-47.29,98.93-90.74,79.27-61.81Z"/>
      <path class="st13" d="M2169.7,440.37c-25.85-25.24-33.54-49.31-51.72-75.37,29.55,12.04,49.94,40.81,51.72,75.37Z"/>
      <path class="st10" d="M2087.6,818.39c-31.21,12.58-63.16-13.42-75.96-44.21,27.67,19.04,43.85,28.04,75.96,44.21Z"/>
      <path class="st26" d="M1110.9,402.44c-23.02,12.1-47.48,28.12-77.08,24.46,11.1-24.6,43.21-13.05,56.98-25.95l11.28-10.56c1.72-1.61,10.33,9.73,8.82,12.06Z"/>
      <path class="st6" d="M767.43,567.56c-21.46,11.84-37.11,19.5-56.41,13.31,11.66-15.08,28.57-15.42,47.45-24.34,10.79-14.62,24.81,6.7,8.96,11.03Z"/>
    </g>
  </g>
  <path class="st27" d="M1901.39,2217.74c11.2,17.22-4.84,38.5-24.87,26.86-19.09,20.62-37.7,42.37-59.24,59.62-217.04,173.78-562.63,143.83-723.93-84.63-16.32-35.5-10.59-75.97-6.06-117.21,26.75-2.47,35.62-19.58,36.5-42.08l10.26-261.95c69.36,69.21,137.03,122.33,222.36,156.93,92.84,29.36,191.6,29,284.12-2.15,79.01-38.13,143.61-89.03,208.42-153.61l12.16,267.77c1.08,23.71,17.48,33.15,41.04,33.56,8.78,33.75,11.96,84.13-.75,116.88Z"/>
  <g>
    <path d="M1093.34,2219.6l25.62,8.55c161.18,201.41,465.98,224.86,671.35,77.24l26.96-1.15c28.82,9.51,52.83,37.71,65.96,65.94,11.33-22.37,27.18-18.76,43.41-2.05,3.2,3.29,7.04,46.63,7.72,56.96,1.16,17.46,1.49,34.83,1.45,52.29l-56.59,503.05-771.37-.04-58.85-534.49-6.37-239c9.7-34.1,11.52-72.27,5.44-114.51l3.61-10.48c-.75-19.35,2.69-36.32,6-53.21,26.75-22.44,31.48,21.89,19.91,45.86,8.22,15.91,9.08,28.23,2.57,36.95-7.84,43.6-3.45,79.63,13.18,108.09Z"/>
    <path class="st1" d="M1042.63,2206.88l1.12-110.32c.08-8.23,3.12-13.91,7.93-14.66l2.68,69.43c.83-.02,3.69-.88,5.25-3.99l.11-38.64c1.32-3.01,4.03-3.94,5.33-3.93,5.31,44.07,8.96,77.7-22.42,102.11Z"/>
    <path class="st20" d="M1160.48,2444.04c-10.88-13.07-4.28-13.78,10.57-7.35,107.92,73.35,235.59,94.65,367.99,84.66,112.87.92,209.71-48.64,310.29-99.73-180.53,155.12-494.99,151.03-688.85,22.42Z"/>
    <path class="st9" d="M1171.04,2436.7l-10.57,7.35c-18.46-12.24-37.95-26.22-53.92-51.17l64.48,43.83Z"/>
  </g>
  <g>
    <path class="st1" d="M2095.95,1109.21l9.39,6.73c69.7-28.68,107.76,54.31,21.47,61.02-15.66,13.87-15.59,36.38.2,67.55,4.43,44.91-17.09,82.51-64.55,112.81-13.64,43.55-25.16,83.12,28.98,37.62,72.33-60.78,130.03-236.72,56.13-312.64l.93-16.84c1.65-2.79,9.71,2.64,18.43-7.3-16.24-4.92-26.52-12.94-24.72-35.73.48-6.07-1.13-15.13,4.15-18.38,3.49-2.15,13.26-7.51,16.81-1.3l7.65,13.38c-1.21,29.12,46.3,31.5,58.96,97.53,21.57,112.56-14.98,230.72-91.9,314.82-31.92,34.9-69,52.28-117.54,52.34-14.01,105.3-53.35,195.99-126.15,270.3l-2.77,116.62c128.94,21.75,228.14,143.92,292.35,254.72l429.65,204.31c158.73,75.48,268.33,206.28,311.49,377.62,21.36,84.8,36.68,168.4,40.27,256.76.47,11.64-15.9,16.08-22.39,13.45-6.03-2.45-15.66-9.01-16.46-19.73-13.83-186.56-57.09-385.29-201.33-506.86-56.83-47.9-119.98-82.62-187.37-114.29l-321.21-150.97,118.22,286.1c5.25,12.7.53,27.35-6.17,35.39-5.75,6.89-19.17,13.73-32.88,10.68l-184.72-41.08c-27.16-6.04-50.26-1.33-66.06,24.95l58.56,60.33c20.95,21.58,19.98,45.79,8.85,72.99l-107.44,262.49c-3.93,9.6-15.81,13.16-21.5,12.01-6.5-1.31-17.21-10.9-13-21.65l112.98-287.9-89.03-103.21c17.57-34.61,61.22-69.77,103.06-60.66l199.41,43.43-105.81-250.98c-51.12-121.24-165.54-289.61-301.22-318.02l6.14,86.32c27.08-3.51,38.52,22.42,41.54,46.27,18.6,146.61,11.02,293.07-1.55,437.18-3.58-24.39-.86-47.71-18.29-72.18,7.8-17.54-4.86-39.85-22.64-35.55,2.89,8.64,9.86,25.86-11.44,32.38-13.49-19.37-20.8-45.87-39.46-62.08-12.7-11.03-27.64-16.06-26.71-35.71-3.04-26.29,32.58-64.05,59.24-59.62,19.73.13,36.41-8.64,24.87-26.86-10.87-11.37-13.2-28.88-6.99-52.52,5.08-32.88-5.58-53.35-31.97-61.41-10.43-17.98-15.65-26.96-15.65-26.96l-11.6-239.81c-202.9,209.64-484.42,203.82-687.14-1.15-.9,84.7-5.89,169.01-14.97,252.93-31.18,27.74-39.14,38.21-34.96,82.05,6.5,20.93,4.91,37.18-4.77,48.74-35.96-3.71-7.6-66.79-21.08-113.61-5.04-17.51-16.72-26.64-4.89-49.51,4.11-7.95.38-25.6-9.69-27.8,6.53-33.34,50.02-25.12,33.82-117.18-138.24,37.22-240.67,202.35-295.2,332.15l-97.17,231.31,213.46-41.1c31.85-6.13,66.08,33.6,86.77,56.83l-90.71,106.68,56.14,135.52c29.57,71.38,73.8,174.89,36.06,174.66-6.56-.04-15.54-4.65-19.46-14.56l-102.86-259.83c-27.25-68.84,23.79-74.91,66.29-137.32.59-19.7-36.61-28.07-56.46-23.58l-184.34,41.73c-12.97,2.94-26.48-.86-35.21-6.51-6.73-4.36-16.87-19.18-11.59-31.72l124.15-294.28-385.06,178.83c-360.52,167.44-312.34,594.21-345.34,609.54-2.83,1.31-15.57.06-17.59-2.84-11.32-89.26,6.89-176.74,32.2-264.91,61.23-213.21,175.89-315.97,373.56-407.33l369.74-170.9c67.25-111.84,157.08-227.53,284-254.52l-3.12-117.57c-74.59-74.85-115.17-167.22-131.07-271.92-191.58.53-269.95-361.68-170.44-426.62,6.1,9.82,12.45,18.81,22.09,26.39l7.92,16.31c-54.43,78.09,17.54,298.78,103.97,320.03,8,1.97.57-54.8-4.67-63.66-65.06-27.11-93.96-117.02-35.66-163.09-10.68-19.37-1.74-29.25,19.62-29.15,28.63.13,53.07,56.88,16.6,71.8-11.84,27.29-11.35,32.87,1.47,16.74,7.87-18.26,13.07-36.76,15.59-55.49-4.18-13.48-14.1-23.95-29.79-31.42,2.03-15.82-.66-25.51-8.07-29.04-18.44,9.91-36.57-18.35-10.55-27.79-1.19-26.1,27.43-36.45,53.54-62.36,9-14,3.7-36.92,4.57-51.96,7.46,3.2,14.62,7.57,18.67,14.85,20.21,36.35,11.96,160.04,1.8,203.68,17.32,113.54,39.59,226.07,66.81,337.57,44.23-.02,51.76,31.52,18.76,55.62l41.97,65.62c39.16-32.91,49.05,9.83,35.45,45.97,20.1,14.3,28.15,28.79,24.17,43.48,19.23-11.64,19.06-4.84,14.02,14.6,11.24-3.16,16.86-4.73,16.86-4.73,28.56-35.95,55.86-4.48,35.63,30.75,28.12-68.56,68.23-22.54,35.94,31.83,31.39-69.46,68.52-30.58,42.04,28.97,26.32-29.5,42.75-28.75,49.28,2.27-6.33,17.96-2.69,28.93,10.91,32.89,4.15-99.06,68.75-67.5,44.17,12.23,1.68,3.16,6.45,3.71,8.21.21,23.72-47.03,40.15-38.07,49.58,10.89,0,0,3.45.17,10.35.52l2.15-109.12c14.87-24.38,32.1-24.14,43.89,3.12l3.27,104.82c30.25,2.01,51.65,2.29,67.43-25.53,15.76,8.99,27.58,11.07,35.45,6.24-6.63-41.06,23.56-65.27,44.47-21.56-12.73-34.74-10.84-74.63,33.22-44.96-10.54-45.36,29.52-59.71,44.82-13.59-7.41-42.97,2.02-62.34,28.29-58.12,10.74,18.5,21.49,19.92,32.27,4.26-27.89-42.14-25.2-63.52,8.06-64.13,15.15,20.86,26.82,29.37,35,25.52-20.37-34.03-7.49-66.84,33.61-41.5,0,0,5.48-8.01,16.44-24.04-18.21-28.15-10.12-50.01,26.25-45.08,20.57-55.62,30.86-83.44,30.86-83.44l57.85-308.98c-5.33-86.93-7.88-176.09,5.33-262.43-5.02-19.9-2.92-34.96,6.32-45.19,11.92,8.02,19.09,12.67,17.33,31.86l-7.16,78.12c-2.95,32.2-2.11,63.39.85,92.52,9.3-16.55,5-29.52,4.5-48.7l43.01,13.84,12.95,27.46Z"/>
    <g>
      <path class="st24" d="M886.77,1104.93c2.66,8.93-.97,21.93,10.55,27.79,13.51-1.51,15.77,28.5-2.08,32.85-7.77-7.26-12.22.64-13.33,23.71,12.49,17.1-32.83,41.9-8.61,100.07,8.02,19.25,27.47,41.22,57.74,49.93l17.01,101.31c-133.17-24.64-206.31-262.84-137.7-360.9,9.3-13.29,32.31-20.26,50.01-15.65,12.97,3.38,21.58,24.65,26.42,40.9Z"/>
      <path class="st24" d="M2148.49,1065.45c97.5,41.79,41.19,348.93-116.5,374.27,7.34-30.07,2.02-76.82,23.49-98.36,21.11-21.18,47.51-32.75,53.33-55.01,9.15-35.03.12-57.89-12.49-87.44,18.67-63.21,62.2-28.53,65.07-49.72.86-6.33-2.61-15.96-10.75-20.61-21.84-12.45-45.55,1.71-60.77,20.21-5.95-17.44,5.29-28.89,6.09-39.58,1.07-14.31-2.95-29.2,12.96-36.79,10.07-4.8,25.87-12.85,39.58-6.97Z"/>
      <path d="M919.58,1248.67c-15.17,1.33-12.79-9.43-1.47-16.74-4.48-7.18-2.34-13.75,4.57-21.95,10.31-12.23-.95-23.41-14.01-31.52-9.06-5.62-17.95-6.24-26.78,10.82-20.54-47.91-81.95-28.96-59.91-53.68,17.38-19.49,47.61-9.16,72.01,20.38,7.17-10.62,3.3-17.58,3.31-23.26.03-11.35,10-24.22,25.14-34.01,4.48-2.9,15.68,12.64,10.08,17.52l-15.43,13.46c-14.04,12.25,7.53,35.76,26.23,41.72l2.74-109.67c1.11.21,3.98,1.07,6.64,4.18l-2.38,95.82c-.66,26.42-9.03,49.06-5.45,75.17-13.87-1.11-20.81,4.17-25.31,11.76Z"/>
      <path d="M1876.51,2244.61l24.87-26.86c6.92-4.13,14.14-5.06,16.64-.77,5.98,10.26-5.73,21.16-5.18,26.35,1.25,11.69,8.94,28.24.66,38.21-7.39,8.9-14.75,19.38-34.23,10.89,16.96-21.43,10.94-34.95-2.77-47.81Z"/>
      <path class="st3" d="M918.11,1231.93l1.47,16.74,7.74,50.15c-14.98-3.33-25.86-19.18-28.64-33.23-3.4-17.15,1.72-31.97,19.43-33.66Z"/>
      <path class="st5" d="M2056.81,1302.33l12.76-74.71c21.9,27.63,12.78,58.87-12.76,74.71Z"/>
    </g>
  </g>
  <g>
    <path class="st27" d="M2024.47,914.1c16.7,32.81,6.21,66.06,2.74,102.27-11.06,115.58,5.14,184.97.6,209.28l-56.02,299.83c-8.08,43.22-24.55,79.46-46.23,119.01-8.05-11.57-11.39-18.54-23.82-18.48,2.25,14.79,7.06,21.13,14.19,32.86-12,20.86-22.73,39.3-44.1,53.18,1.65-16.25-15.97-30.93-21.14-23.1l11.51,33.51c3.26,9.48-10.22,19.98-26.31,29.74l-32.09-44.75c-14.81,21.12,20.55,35.5,15.17,60.73-1.62,7.59-38.04,35.19-37.01,35.09-3.85.36-10.96-11.02-9.72-19.1,2.77-18.11-21.75-15.85-16.11.25,5.25,13.3,10,30.69,2.48,39.91-5.24,6.43-16.62,15.89-27.15,15.22-.77-19.16-3.9-31.5-17.67-40.53-6.51,25.91,18.88,60.45-10.14,66.12-14.24,2.79-8.4-21.11-22.25-31.63-5.99-4.55-9.56-.1-8.22,5.63l3.03,12.91c2.64,11.24,7.32,19.97,4.48,28.49-3.29,9.88-20.26,19.66-27.17,9.76-2.99-4.29-2.34-28.41-11.42-24.53-5.17,2.21-7.4,15.53-5.54,22.12,4.28,15.17-4.63,22.42-14.67,26.75-11.27,4.87-19.59,2.42-30.83-16.37-3.84,37.64-34.87,34.06-87.21,34.25l-4.02-128.71c-7.4.63-15.21,8.27-15.19,14.5l.34,114.81c-18.22,1.91-30.47.44-45.48-6.04,1.59-14.41,3.72-25.72-4.22-40.28-12.3,10.16-10.57,23.73-10.88,40.3-17.7-1.23-24.61-3.7-39.24-9.92.43-26.96,10.44-51.04,3.75-76.02-21.02,17.26-11.81,43.56-18.12,65.02-6.97,10.18-27.78-.6-34.83-6.94-11.07-9.95-7.24-30.96-2.92-50.18-18.61,6.14-16.94,22.85-22.38,33.24-16.07-4.16-23.12-10.25-26.49-15.55-11.38-17.9,20.31-47.56,1.89-64.25l-22.95,49.07c-11.82-2.85-24.96-15.61-23.11-22.76,5-19.29,17.92-34.02,9.95-57.55l-25.53,50.16c-12.37-4.6-17.97-11.86-22.03-17.58-2.99-4.21-.02-14.37,6.5-22.67,9.88-9.65.1-23.58-11.28-12.28.7,12.85-10.73,24.39-16.61,18.24l-14.5-15.13c-2.12-11.18-6.79-16.04-14.02-14.6-11.03-11.49-31.36-21.04-39-41.51l7.42-50.64c-15.3,7.23-14.02,19.61-22.41,34.75-27.8-33.45-45.32-60.97-61.65-98.54,7.89-12.75,19.98-22.09,19.9-37l-9.89-2.41c-5.56,6.95-5.94,20.13-18.97,26.38-37.42-125.74-55.72-250.48-77.82-379.31,18.3-75.01,9.22-147.88-5.2-218.52,1.28-21.99-10.34-53.44,7.55-74.01,24.67-28.36,47.01-53.45,44.87-94.75-.96-18.51,6.5-38.7,18.73-46.85,13.1-8.72,30.72-5.71,46.79-11.01l31.89-10.53c-.08.03,63.68,68.09,175.26.85,20.38-12.28,30.96,12.54,42.24,15.41,113.46,28.93,218.26-50.93,231.61-165.27,2.52-21.62,6.16-44.58,14.19-62.31,39.91-22.66,80.81-3.53,119.37-.49,46.29,3.65,103.64,3.93,128.03,13.3,47.35,18.19,72.88,51.98,70.83,106.91-2.46,65.77,31.02,124.27,95.2,144.57,46.39,14.67,15.08,82.15,53.03,107.67Z"/>
    <g>
      <path class="st14" d="M1166.52,1772l-14.02-14.6,33.95-44.87c2.06,1.89,7.13,1.48,9.63.11l-29.57,59.35Z"/>
      <path class="st15" d="M1362.47,964.16c-13.25,46.47-126.39-32.61-303.38,25.96-30.52,10.1-4.8-73.83,81.08-87.54,94.42-15.07,240.84-3.47,222.3,61.57Z"/>
      <path class="st1" d="M1914.42,989.49c-155.39-57.18-271.45,14.49-290.28-19.08-35.03-62.46,108.62-86.61,220.2-67.41,50.26,8.65,96.04,49.09,89.21,76.84-1.14,4.63-8.3,13.63-19.13,9.65Z"/>
      <path class="st19" d="M1800.28,1157.04c-10.18,20.1-26.88,28.83-41.7,29.81-17.73,1.18-33.7-5.89-44.73-22.46-17.64-26.48-13.03-54.96-3.99-87.93-19.04,6.8-28.04,23.51-52.3,21.62,41.28-71.59,133.42-71.7,196.27-18.39l14,11.88c5.26,4.47-1.27,16.23-6.89,14.58-18.87-9.89-33.93-27.32-59.82-29.42,10.68,26.62,12.37,54.23-.84,80.31Z"/>
      <path class="st19" d="M1271.06,1161.53c-10.69,19.1-28.39,27.27-45.13,26.42-42.07-2.14-62.22-54.71-44.84-111.46-31.84,5.47-45.84,29.26-74.15,27.59,28.33-46.3,80.18-64.6,128.27-62.2,35.28,1.76,69.1,20.15,85.82,53.44-20.76,6.64-29.13-10.99-45.08-18.37,6.39,30.36,11.09,56-4.9,84.58Z"/>
      <path class="st18" d="M1648.97,1571.19c11.9-1.06,18.04-5.77,21.58-3.81,4.94,2.75,9.24,11.87,7.06,15.79-2.01,3.6-7.97,11.35-15.05,13.03-112.5,26.63-227.44,28.28-339.89-.14-7.69-1.94-15.21-7.38-18.02-12.62-2.21-4.13,1.75-12.34,9.05-15.83,3.98-1.91,10.24,1.63,17.69,4.47l161.1,13,156.49-13.88Z"/>
      <path class="st0" d="M1566.17,1401.33c17.83,38.4-125.82,53.4-152.56-2.42-9.19-19.19-6.09-38.11,3.3-57.22,31.26-63.63,21.2-132.51,42.51-203.17,24.7,81.67-16.36,155.64-18.63,232.15,25.78,63.37,116.91,12.43,125.38,30.66Z"/>
      <path class="st7" d="M1554.19,1687.51c-31.68,30.57-88.24,27-128.04,1.16,42.1-11.8,79.07-11.43,128.04-1.16Z"/>
    </g>
  </g>
</svg>