<?xml version="1.0" encoding="UTF-8"?>
<svg id="_x2014_ÎÓÈ_x5F_1" xmlns="http://www.w3.org/2000/svg" version="1.1" viewBox="0 0 186.39 238.01">
  <!-- Generator: Adobe Illustrator 30.1.0, SVG Export Plug-In . SVG Version: 2.1.1 Build 136)  -->
  <defs>
    <style>
      .st0 {
        fill: #1d1d1b;
      }
    </style>
  </defs>
  <path class="st0" d="M97.8,147.2h-.05c-2.05-.02-3.85-1.37-4.44-3.34l-4.5-14.88c-6.72-22.22-23.91-39.8-45.98-47.01l-14.55-4.75c-1.95-.64-3.26-2.47-3.24-4.52.02-2.05,1.37-3.85,3.34-4.44l14.88-4.5c22.23-6.72,39.8-23.91,47.01-45.98l4.76-14.55C95.66,1.3,97.46,0,99.5,0h.05c2.05.02,3.85,1.37,4.44,3.34l4.5,14.88c6.72,22.22,23.91,39.8,45.98,47.01l14.55,4.75c1.95.64,3.26,2.47,3.24,4.52-.02,2.05-1.37,3.85-3.34,4.44l-14.88,4.5c-22.23,6.72-39.8,23.91-47.01,45.98l-4.75,14.55c-.63,1.93-2.43,3.24-4.46,3.24ZM45.4,72.93c25.96,8.5,44.9,28.47,52.58,53.92,8.33-25.21,27.67-44.7,53.92-52.58-24.71-8.09-44.53-27.23-52.58-53.92-8.71,26.51-29.05,45.11-53.92,52.58Z"/>
  <path class="st0" d="M44.87,238.01c-2.05-.02-3.85-1.37-4.44-3.34l-2.66-8.79c-3.79-12.54-13.49-22.45-25.93-26.52l-8.6-2.81C1.29,195.92-.02,194.09,0,192.04c.02-2.05,1.37-3.85,3.34-4.44l8.79-2.66c12.54-3.79,22.45-13.48,26.52-25.93l2.81-8.6c.6-1.85,2.32-3.24,4.52-3.24,2.05.02,3.85,1.37,4.44,3.34l2.66,8.8c3.79,12.53,13.48,22.45,25.93,26.52l8.6,2.81c1.95.64,3.26,2.47,3.24,4.52-.02,2.05-1.37,3.85-3.34,4.44l-8.79,2.66c-12.54,3.79-22.45,13.48-26.52,25.93l-2.81,8.6c-.61,1.86-2.34,3.24-4.52,3.24ZM19.5,192.26c11.56,5.15,20.74,14.56,25.59,26.25,5.15-11.56,14.56-20.74,26.25-25.6-11.56-5.15-20.74-14.56-25.59-26.25-5.15,11.57-14.56,20.74-26.25,25.6Z"/>
  <path class="st0" d="M153.09,186.23c-1.49-.02-2.79-1-3.22-2.42l-1.93-6.37c-2.75-9.08-9.77-16.26-18.78-19.21l-6.23-2.04c-1.41-.46-2.36-1.79-2.34-3.27.02-1.49.99-2.79,2.42-3.22l6.37-1.93c9.08-2.75,16.26-9.77,19.21-18.78l2.04-6.23c.44-1.34,1.68-2.35,3.27-2.35,1.49.02,2.79,1,3.22,2.42l1.93,6.37c2.75,9.08,9.77,16.26,18.78,19.21l6.23,2.04c1.41.46,2.36,1.79,2.34,3.27-.02,1.49-.99,2.79-2.42,3.22l-6.37,1.93c-9.08,2.75-16.26,9.77-19.21,18.78l-2.04,6.23c-.44,1.35-1.69,2.35-3.27,2.35ZM134.72,153.09c8.37,3.73,15.02,10.54,18.54,19.01,3.73-8.38,10.54-15.02,19.01-18.54-8.37-3.73-15.02-10.54-18.54-19.01-3.73,8.38-10.54,15.02-19.01,18.54Z"/>
</svg>