<?xml version="1.0" encoding="UTF-8"?>
<svg id="_Слой_1" data-name="Слой 1" xmlns="http://www.w3.org/2000/svg" viewBox="0 0 485.98 399.53">
  <defs>
    <style>
      .cls-1 {
        stroke-width: 9px;
      }

      .cls-1, .cls-2 {
        fill: none;
        stroke: #000;
        stroke-miterlimit: 10;
      }

      .cls-2 {
        stroke-width: 5px;
      }
    </style>
  </defs>
  <path d="M294.41,318.89c2.54,14.51,5.02,28.6,7.61,43.19h5.07c13.19,0,26.39.32,39.55-.14,10.65-.37,24.6,9.26,24.72,24.58v7.27c-.17,3.57-1.73,5.26-5.23,5.63-1.36.11-2.73.14-4.09.09H123.83c-5.75,0-7.18-1.52-7.27-7.27s-.38-11.85,2.74-17.27c4.65-8.08,11.3-12.88,20.9-12.91h44.89c2.56-14.28,5.02-28.11,7.61-42.26-1.22-.2-2.46-.33-3.7-.4-11.8,0-23.62,0-35.43-.14-7.88,0-15.76-.32-23.64-.33H23.11c-10.18.18-19.25-6.41-22.22-16.15-.58-2.35-.85-4.76-.79-7.18,0-83.82,0-167.64,0-251.47,0-6.81.23-13.69-.08-20.46C-.5,12.11,10.16,0,23.73,0c146.13.09,292.25.09,438.38,0,13.13,0,23.88,11.15,23.87,24.69v269.65c0,11.55-6.53,20.83-16.81,23.73-1.59.5-3.25.78-4.91.84h-27.24c-14.85.08-29.69.24-44.54.29-6.81,0-13.69-.26-20.44-.27h-52.74l-24.87-.03ZM472.89,260V26.42c.06-1.06.06-2.12,0-3.18-.36-5.72-5.08-10.19-10.82-10.24H25.04c-1.21-.04-2.43,0-3.64.15-4.51.67-7.98,4.32-8.43,8.85-.11,1.36-.15,2.73-.11,4.09v230.11c.12,3.24.38,3.5,3.73,3.71,1.06.08,2.13,0,3.18,0h447.03l6.08.08ZM472.89,272.52c-10.07-1.1-456.17-.65-459.9.5v4.41c0,6.51-.2,13.04,0,19.55.14,4.72,2.59,7.53,7.18,8.75,1.75.43,3.55.63,5.35.59h432.4c2.12.04,4.24-.1,6.33-.44,5.17-.94,8.31-3.89,8.55-9.13.29-7.93.09-15.94.09-24.23ZM289.35,361.83c-2.8-14.33-5.1-28.43-8.35-42.59h-12.75c-19.7-.09-39.4-.23-59.1-.3-3.32,0-3.42.23-4.03,3.53-1.38,7.61-2.83,15.21-4.24,22.73-1.02,5.46-2.02,10.92-3.04,16.66l91.51-.02ZM358.17,386.47c-.14-7.23-4.64-11.74-11.93-11.83-10.13-.14-20.26.09-30.42.09h-171.44c-2.27-.07-4.54.04-6.78.35-4.91.65-8.36,5.15-7.71,10.05.06.44.15.88.27,1.31l228.01.03Z"/>
  <rect class="cls-1" x="44.01" y="40.77" width="51.74" height="70.15" rx="17.69" ry="17.69"/>
  <rect class="cls-1" x="215" y="41.49" width="51.74" height="70.15" rx="17.69" ry="17.69"/>
  <rect class="cls-1" x="386.84" y="41.49" width="51.74" height="70.15" rx="17.69" ry="17.69"/>
  <rect class="cls-1" x="43.16" y="160.63" width="51.74" height="70.15" rx="17.69" ry="17.69"/>
  <rect class="cls-1" x="214.16" y="161.35" width="51.74" height="70.15" rx="17.69" ry="17.69"/>
  <rect class="cls-1" x="386" y="161.35" width="51.74" height="70.15" rx="17.69" ry="17.69"/>
  <line class="cls-2" x1="261.12" y1="166.96" x2="391.16" y2="105.53"/>
  <line class="cls-2" x1="90.76" y1="105.53" x2="386.84" y2="166.96"/>
  <line class="cls-2" x1="85.54" y1="162.72" x2="219.32" y2="105.53"/>
</svg>