<?xml version="1.0" encoding="UTF-8"?>
<svg id="Layer_1" xmlns="http://www.w3.org/2000/svg" version="1.1" viewBox="0 0 491.52 491.52">
  <!-- Generator: Adobe Illustrator 30.1.0, SVG Export Plug-In . SVG Version: 2.1.1 Build 136)  -->
  <defs>
    <style>
      .st0, .st1 {
        fill-rule: evenodd;
      }

      .st2, .st1 {
        stroke: #000;
        stroke-miterlimit: 10;
        stroke-width: 15px;
      }
    </style>
  </defs>
  <g id="Layer_x5F_1">
    <g id="_173222496">
      <polygon id="_173221464" class="st2" points="113.12 279.15 378.4 279.15 378.4 298.7 113.12 298.7 113.12 279.15"/>
      <polygon id="_173221656" class="st2" points="144.87 71.83 144.87 291.11 133.14 291.11 133.14 71.83 144.87 71.83"/>
      <polygon id="_173219856" class="st2" points="358.38 71.83 358.38 291.11 346.65 291.11 346.65 71.83 358.38 71.83"/>
      <path id="_173220840" class="st2" d="M356.75,297.24c3.63-2.33,4.68-7.16,2.35-10.78-2.33-3.63-7.16-4.68-10.78-2.35l-226.87,145.72h28.86l206.43-132.58h0Z"/>
      <path id="_173222544" class="st2" d="M362.37,430.08l-216.71-149.19c-3.54-2.45-8.4-1.56-10.84,1.99-2.45,3.54,12.44,17.94,15.99,20.39l184.08,126.82h27.48,0Z"/>
      <path id="_173220624" class="st1" d="M139,61.44c5.74,0,10.39,4.65,10.39,10.39s-4.65,10.39-10.39,10.39-10.39-4.65-10.39-10.39,4.65-10.39,10.39-10.39Z"/>
      <path id="_173221584" class="st1" d="M352.52,61.44c5.74,0,10.39,4.65,10.39,10.39s-4.65,10.39-10.39,10.39-10.39-4.65-10.39-10.39,4.65-10.39,10.39-10.39Z"/>
      <path id="_173223552" class="st1" d="M113.12,274.82c7.79,0,14.11,6.32,14.11,14.11s-6.32,14.11-14.11,14.11-14.11-6.32-14.11-14.11,6.32-14.11,14.11-14.11Z"/>
      <path id="_173219688" class="st1" d="M378.4,274.82c7.79,0,14.11,6.32,14.11,14.11s-6.32,14.11-14.11,14.11-14.11-6.32-14.11-14.11,6.32-14.11,14.11-14.11Z"/>
      <path id="_173220240" class="st0" d="M236.71,159l10.33-32,10.33,32,33.63-.06-27.24,19.71,10.45,31.96-27.17-19.82-27.17,19.82,10.45-31.96-27.24-19.71,33.63.06h0ZM352.52,98.21h-213.51v138.75h213.51V98.21Z"/>
    </g>
  </g>
</svg>