<?xml version="1.0" encoding="UTF-8"?>
<svg id="_ÎÓÈ_1" data-name="—ÎÓÈ_1" xmlns="http://www.w3.org/2000/svg" viewBox="0 0 240.11 205.19">
  <defs>
    <style>
      .cls-1 {
        fill: #1d1e1c;
      }
    </style>
  </defs>
  <g>
    <g>
      <path class="cls-1" d="M110.54,100.52c-2.62,0-4.74-2.12-4.74-4.74v-17.31c-1.23-1.8-7.92-5.48-19.29-9.44-6.36-2.22-9.63-1.76-15.88,0-12.11,3.43-19.15,7.68-20.65,9.44v17.31c0,2.62-2.12,4.74-4.74,4.74s-4.74-2.12-4.74-4.74v-17.76c-.04-2.32-.17-10.18,27.55-18.02,8.13-2.3,13.37-2.85,21.58,0,17.14,5.97,25.76,11.66,25.65,18.02v17.76c0,2.62-2.12,4.74-4.74,4.74Z"/>
      <path class="cls-1" d="M77.89,53c-14.61,0-26.5-11.89-26.5-26.5S63.28,0,77.89,0s26.5,11.89,26.5,26.5-11.89,26.5-26.5,26.5ZM77.89,9c-9.65,0-17.5,7.85-17.5,17.5s7.85,17.5,17.5,17.5,17.5-7.85,17.5-17.5-7.85-17.5-17.5-17.5Z"/>
    </g>
    <g>
      <path class="cls-1" d="M194.87,100.52c-2.62,0-4.74-2.12-4.74-4.74v-17.31c-1.23-1.8-7.92-5.48-19.29-9.44-6.36-2.22-9.63-1.76-15.88,0-12.11,3.43-19.15,7.68-20.65,9.44v17.31c0,2.62-2.12,4.74-4.74,4.74s-4.74-2.12-4.74-4.74v-17.76c-.04-2.32-.17-10.18,27.55-18.02,8.13-2.3,13.37-2.85,21.58,0,17.13,5.97,25.76,11.66,25.65,18.02v17.76c0,2.62-2.12,4.74-4.74,4.74Z"/>
      <path class="cls-1" d="M162.22,53c-14.61,0-26.5-11.89-26.5-26.5S147.61,0,162.22,0s26.5,11.89,26.5,26.5-11.89,26.5-26.5,26.5ZM162.22,9c-9.65,0-17.5,7.85-17.5,17.5s7.85,17.5,17.5,17.5,17.5-7.85,17.5-17.5-7.85-17.5-17.5-17.5Z"/>
    </g>
  </g>
  <g>
    <g>
      <path class="cls-1" d="M152.71,205.19c-2.62,0-4.74-2.12-4.74-4.74v-17.31c-1.23-1.8-7.92-5.48-19.29-9.44-6.36-2.22-9.63-1.76-15.88,0-12.11,3.43-19.15,7.68-20.65,9.44v17.31c0,2.62-2.12,4.74-4.74,4.74s-4.74-2.12-4.74-4.74v-17.76c-.04-2.32-.17-10.18,27.55-18.02,8.13-2.3,13.37-2.85,21.58,0,17.14,5.97,25.76,11.66,25.65,18.02v17.76c0,2.62-2.12,4.74-4.74,4.74Z"/>
      <path class="cls-1" d="M120.06,157.67c-14.61,0-26.5-11.89-26.5-26.5s11.89-26.5,26.5-26.5,26.5,11.89,26.5,26.5-11.89,26.5-26.5,26.5ZM120.06,113.67c-9.65,0-17.5,7.85-17.5,17.5s7.85,17.5,17.5,17.5,17.5-7.85,17.5-17.5-7.85-17.5-17.5-17.5Z"/>
    </g>
    <g>
      <g>
        <path class="cls-1" d="M70.04,205.19c-2.62,0-4.74-2.12-4.74-4.74v-17.31c-1.23-1.8-7.92-5.48-19.29-9.44-6.36-2.22-9.63-1.76-15.88,0-12.11,3.43-19.15,7.68-20.65,9.44v17.31c0,2.62-2.12,4.74-4.74,4.74S0,203.07,0,200.45v-17.76c-.04-2.32-.17-10.18,27.55-18.02,8.13-2.3,13.37-2.85,21.58,0,17.14,5.97,25.76,11.66,25.65,18.02v17.76c0,2.62-2.12,4.74-4.74,4.74Z"/>
        <path class="cls-1" d="M37.39,157.67c-14.61,0-26.5-11.89-26.5-26.5s11.89-26.5,26.5-26.5,26.5,11.89,26.5,26.5-11.89,26.5-26.5,26.5ZM37.39,113.67c-9.65,0-17.5,7.85-17.5,17.5s7.85,17.5,17.5,17.5,17.5-7.85,17.5-17.5-7.85-17.5-17.5-17.5Z"/>
      </g>
      <g>
        <path class="cls-1" d="M235.37,205.19c-2.62,0-4.74-2.12-4.74-4.74v-17.31c-1.23-1.8-7.92-5.48-19.29-9.44-6.36-2.22-9.63-1.76-15.88,0-12.11,3.43-19.15,7.68-20.65,9.44v17.31c0,2.62-2.12,4.74-4.74,4.74s-4.74-2.12-4.74-4.74v-17.76c-.04-2.32-.17-10.18,27.55-18.02,8.13-2.3,13.37-2.85,21.58,0,17.13,5.97,25.76,11.66,25.65,18.02v17.76c0,2.62-2.12,4.74-4.74,4.74Z"/>
        <path class="cls-1" d="M202.72,157.67c-14.61,0-26.5-11.89-26.5-26.5s11.89-26.5,26.5-26.5,26.5,11.89,26.5,26.5-11.89,26.5-26.5,26.5ZM202.72,113.67c-9.65,0-17.5,7.85-17.5,17.5s7.85,17.5,17.5,17.5,17.5-7.85,17.5-17.5-7.85-17.5-17.5-17.5Z"/>
      </g>
    </g>
  </g>
</svg>