<?xml version="1.0" encoding="UTF-8"?>
<svg id="Layer_1" xmlns="http://www.w3.org/2000/svg" version="1.1" viewBox="0 0 2200 2200">
  <!-- Generator: Adobe Illustrator 30.1.0, SVG Export Plug-In . SVG Version: 2.1.1 Build 136)  -->
  <defs>
    <style>
      .st0 {
        fill: #231f20;
        stroke: #000;
        stroke-miterlimit: 10;
        stroke-width: 33px;
      }
    </style>
  </defs>
  <path class="st0" d="M1223.77,2183.44c-88.3-244.59-389.29-1246.38-490.07-1486.29-.95-2.26-2.06-4.32-3.26-6.28,137.06-78.01,205.93-243.87,164.8-397.95C851.35,128.5,694.69,18.67,525.16,31.03c-178.88,13.04-343.13,183.08-311.3,368.98,0,.04.02.07.03.11,1.99,60.99,19.6,122.17,49.44,171.26,81.39,133.86,246.26,193.37,393.69,150.53,84.09,245.7,185.81,484.51,282.23,725.45,47.9,119.69,94.72,239.81,141.94,359.77,23.62,60.01,119.34,316.15,142.58,376.31M721.22,616.95c-107.85,79.19-267.9,69.83-364.77-22.82-74.06-70.83-107.24-183.23-84.11-280.38,14.84-42.38,36.1-81.5,64.43-114.36,7.92-7.61,16.46-14.82,25.78-21.49,4.13-2.95,5.98-6.66,6.25-10.29,29.51-24.92,64.74-44.11,106.22-55.42,129.26-35.25,269.94,24.28,330.42,144.34,62.36,123.8,28.04,277.99-84.23,360.42h.01Z"/>
  <path class="st0" d="M673.73,270.95c-65.85-63.46-170.66-72.15-241.38-11.04-12.8,11.06,2.9,29.83,16.52,20.18,59.95-42.45,145.65-40.31,199.52,11.6,14.99,14.44,40.53-6.11,25.34-20.75h0Z"/>
  <path class="st0" d="M747.59,370.66c-36.33,0-43.01,56.66-6.37,56.66s43.01-56.66,6.37-56.66Z"/>
</svg>