<svg id="Слой_1" data-name="Слой 1" xmlns="http://www.w3.org/2000/svg" viewBox="0 0 500 500"><path d="M225.74,251.6v-6c0-3.73,0-7.45,0-11.18,0-2.8,0-2.8,1.91-5.57-2.91-3.08-2.74-7-2.66-11,.08-4.45-.06-8.9,0-13.35a8.92,8.92,0,0,0-1.31-4.74Q204,165.3,184.37,130.85,161.18,90.14,138.06,49.4c-.89-1.57-1.77-3.15-2.53-4.78-1.18-2.5-.64-4.94,1.24-6.1a4.82,4.82,0,0,1,6.54,1.88c3.56,6,7,12.05,10.44,18.11q20.67,36.33,41.33,72.69,15.06,26.46,30.14,52.92c1.71,3,3.28,6.08,5.08,9.44a15.34,15.34,0,0,1,12.34-2.9c-2.59-4.72-4.73-8.74-7-12.69Q220.34,151,205,124.1,183.06,85.58,161.17,47c-.35-.62-.74-1.24-1.06-1.88-1.42-2.85-.92-5.48,1.25-6.65,2.42-1.31,5.15-.41,6.71,2.26,1.7,2.91,3.36,5.83,5,8.75Q201.58,99.66,230,149.81q9.69,17.08,19.34,34.19c.22.4.52.75,1,1.44.6-1,1.1-1.73,1.55-2.52q14.43-25.38,28.84-50.76,12.8-22.57,25.55-45.17,13-22.87,26.07-45.71a10.75,10.75,0,0,1,.91-1.54,4.66,4.66,0,0,1,5.85-1.15A4.1,4.1,0,0,1,341,43.87a50.4,50.4,0,0,1-2.93,5.77q-14.32,25.23-28.7,50.44-21.89,38.55-43.73,77.12c-2.36,4.17-4.68,8.36-7.21,12.87a37.27,37.27,0,0,1,6.12.89,39.6,39.6,0,0,1,5.6,2.86c2.07-3.68,4.14-7.42,6.26-11.14q13.64-24,27.3-47.91,16.44-29,32.8-58.05c6.75-11.92,13.56-23.8,20.3-35.72.74-1.31,1.49-2.5,3-2.84a4.56,4.56,0,0,1,4.62,1.32,4.46,4.46,0,0,1,.6,4.77,39.35,39.35,0,0,1-2.74,5.47q-12.45,21.94-24.92,43.87c-11.13,19.65-22.18,39.35-33.34,59q-13.46,23.66-27.13,47.18a9.78,9.78,0,0,0-1.38,5.08c-.05,5.77-.07,11.55-.4,17.3-.14,2.31-1.07,4.57-1.77,7.34,1.53,1.77,1.66,4.49,1.63,7.3-.06,4.78,0,9.57,0,14.83h4.53q58.08,0,116.15,0a18.86,18.86,0,0,1,12.06,3.93,19.51,19.51,0,0,1,7.95,16.19c0,56.75-.08,113.5.08,170.26,0,9.54-6.89,20.51-20.4,20.49q-72.15-.12-144.29,0h-145A21.13,21.13,0,0,1,95,459.82c-6.27-3.71-9.84-9.19-9.85-16.51-.07-57.35,0-114.71-.1-172.06a20,20,0,0,1,20-19.75c38.72.25,77.44.1,116.15.1Zm0,9h-4.36l-114.7,0c-.72,0-1.44,0-2.16,0-5.95.43-9.71,3.87-10.42,9.55A21.15,21.15,0,0,0,94,272.7l0,166.64c0,1.08,0,2.16,0,3.24.33,6.81,5,11,11.81,10.66,1.44-.08,2.89-.07,4.33-.06,12.62.1,25.24.24,37.86.31,3.12,0,6.24-.28,9.36-.26,10.69,0,21.38.24,32.07.26,20.43,0,40.86,0,61.29,0q38.94,0,77.89,0c4.32,0,8.65-.24,13-.23,10.33,0,20.66.18,31,.18,7.33,0,14.66-.47,22-.13,6.48.3,12.2-3.79,12.19-11.9q-.09-84.41-.08-168.81c0-7.36-4.6-12-11.88-12q-58.26,0-116.51,0c-1,0-2.06.14-3.28.23,0,2.11.05,3.91,0,5.71-.09,2.94-2.28,5.33-4.77,5.28s-4.52-2.31-4.61-5.42c-.05-1.87-.14-3.73-.23-5.83-10.45.05-20.47-.18-30.67.17,0,2.35.06,4.27,0,6.18-.1,2.72-2.05,4.88-4.31,4.89a5,5,0,0,1-4.69-4.93C225.67,265,225.71,263.11,225.71,260.63Zm25-34.22v0h4.33c1.56,0,3.12,0,4.68,0a6.07,6.07,0,0,0,6.39-6.24c.06-4.68,0-9.36,0-14a5.88,5.88,0,0,0-1.49-3.91c-1.93-2.44-4.61-2.92-7.41-2.89-5.16,0-10.32.28-15.47.4s-7.51,2.37-7.7,7.45c-.14,3.84-.1,7.69-.06,11.53a7.61,7.61,0,0,0,7.71,7.69C244.75,226.45,247.75,226.41,250.75,226.41Zm-15.85,25h31.18c-.2-5.46-.39-10.65-.59-15.94-10.47-.22-20.49.45-30.59-.44Z"/><path d="M182.59,427q-24.69,0-49.38,0a19.43,19.43,0,0,1-3.24-.12c-2.19-.36-3.82-1.72-3.79-3.73.13-7.77-1-15.6,1.26-23.28,5-17.48,21.16-30.64,39.22-31.67a18.83,18.83,0,0,1,7,1.08,25.93,25.93,0,0,0,18,.16c3.86-1.41,7.87-1.18,11.75-.53,18.36,3.09,33.52,17.36,35.85,36.78.65,5.45.34,11,.21,16.55-.07,2.81-2.11,4.5-5,4.73-.95.07-1.92,0-2.88,0l-24.51,0H182.59Zm47.89-9.41c0-3.78.42-7.31-.08-10.7-1.66-11.16-7.72-19.49-17.35-25.2a33.32,33.32,0,0,0-12.53-4.28c-2.83-.39-5.45.44-8.1,1.24-7.22,2.18-14.41,2.48-21.5-.54-2.69-1.15-5.4-.8-8.14-.26-8.92,1.74-15.88,6.56-21.28,13.73-5.8,7.68-7.61,16.34-6.14,26Z"/><path d="M218.83,332.58c.29,17.24-13.58,35.49-36.29,35.45a35.74,35.74,0,0,1-35.41-35.7c0-19.12,16.29-35.1,35.63-35.19C205.47,297,219,316.28,218.83,332.58Zm-35.34,26.56c13.34-.06,26.17-10.89,26.2-26.26,0-14.85-11.36-26.72-26.49-26.67-15.94.05-26.9,12.07-27,26.22A26.65,26.65,0,0,0,183.49,359.14Z"/><path d="M319.74,363H271.48c-.85,0-1.69.06-2.52,0A4,4,0,0,1,265,359a4.32,4.32,0,0,1,3.45-4.77,14.43,14.43,0,0,1,2.87-.13H369a14,14,0,0,1,2.51.11,4.53,4.53,0,0,1,3.69,4.65,4.31,4.31,0,0,1-3.91,4,21.08,21.08,0,0,1-2.87.07H319.74Z"/><path d="M320.28,326.64h47.93a27.64,27.64,0,0,1,2.88,0,4.14,4.14,0,0,1,4,3.92,4.22,4.22,0,0,1-3.21,4.6,10.75,10.75,0,0,1-2.84.28H271c-4.11,0-6-1.79-5.66-5.15a3.74,3.74,0,0,1,3.4-3.6,21.85,21.85,0,0,1,3.24-.09h48.29Z"/><path d="M250,285.66c-9.61,0-19.21,0-28.82,0a11,11,0,0,1-7.36-2.4,8.17,8.17,0,0,1-3.36-6.49c0-2.4-.08-4.81,0-7.2.13-2.7,2.26-4.86,4.47-4.73a4.9,4.9,0,0,1,4.48,4.81c.1,1.44.06,2.88,0,4.32,0,1.67.89,2.38,2.47,2.41.6,0,1.2,0,1.8,0h53.33c4-.06,4-.08,4.1-4,0-1.08,0-2.17.09-3.24a4.57,4.57,0,0,1,3.89-4.11c1.77-.29,4.53,1.13,4.71,3.07.4,4.34,1.39,8.85-1.15,13-2,3.27-5.09,4.54-8.83,4.54q-15,0-29.91,0Z"/><path d="M302.74,390.41H271.41a16.26,16.26,0,0,1-2.52-.06,4.17,4.17,0,0,1-3.75-4.15,4.29,4.29,0,0,1,3.39-4.48,13.58,13.58,0,0,1,2.86-.16h63a11.75,11.75,0,0,1,3.2.3,4.39,4.39,0,0,1-.67,8.53,21.1,21.1,0,0,1-2.87.05H302.74Z"/><path d="M250.59,207.58c3,0,5.82,3.19,5.73,6.29-.08,2.87-3,6.18-5.55,6.18-2.66,0-5.72-3.48-5.66-6.42C245.17,210.48,247.84,207.54,250.59,207.58Z"/></svg>