<?xml version="1.0" encoding="UTF-8"?>
<svg id="Layer_1" xmlns="http://www.w3.org/2000/svg" version="1.1" viewBox="0 0 2100 2100">
  <!-- Generator: Adobe Illustrator 30.1.0, SVG Export Plug-In . SVG Version: 2.1.1 Build 136)  -->
  <defs>
    <style>
      .st0 {
        fill: #1a323d;
      }
    </style>
  </defs>
  <path class="st0" d="M85.16,1313.05c-17.94,0-32.49-14.54-32.49-32.49v-520.13c0-17.94,14.55-32.49,32.49-32.49s32.49,14.54,32.49,32.49v520.13c0,17.94-14.55,32.49-32.49,32.49Z"/>
  <path class="st0" d="M192.34,1374.52c-17.94,0-32.49-14.55-32.49-32.49v-643.06c0-17.94,14.55-32.49,32.49-32.49s32.49,14.55,32.49,32.49v643.06c0,17.94-14.55,32.49-32.49,32.49Z"/>
  <path class="st0" d="M299.51,1428.14c-17.94,0-32.49-14.55-32.49-32.49v-750.3c0-17.94,14.55-32.49,32.49-32.49s32.49,14.55,32.49,32.49v750.3c0,17.94-14.55,32.49-32.49,32.49Z"/>
  <path class="st0" d="M406.69,1336.69c-17.94,0-32.49-14.55-32.49-32.49v-567.41c0-17.94,14.54-32.49,32.49-32.49s32.49,14.55,32.49,32.49v567.41c0,17.94-14.54,32.49-32.49,32.49Z"/>
  <path class="st0" d="M513.87,1292.78c-17.94,0-32.49-14.55-32.49-32.49v-479.59c0-17.94,14.55-32.49,32.49-32.49s32.49,14.55,32.49,32.49v479.59c0,17.94-14.55,32.49-32.49,32.49Z"/>
  <path class="st0" d="M621.04,1190.68c-17.94,0-32.49-14.55-32.49-32.49v-275.4c0-17.94,14.55-32.49,32.49-32.49s32.49,14.55,32.49,32.49v275.4c0,17.94-14.55,32.49-32.49,32.49Z"/>
  <path class="st0" d="M728.22,1168.62c-17.94,0-32.49-14.55-32.49-32.49v-231.27c0-17.94,14.55-32.49,32.49-32.49s32.49,14.55,32.49,32.49v231.27c0,17.94-14.55,32.49-32.49,32.49Z"/>
  <path class="st0" d="M835.4,1146.54c-17.94,0-32.49-14.55-32.49-32.49v-187.12c0-17.94,14.55-32.49,32.49-32.49s32.49,14.55,32.49,32.49v187.12c0,17.94-14.55,32.49-32.49,32.49Z"/>
  <path class="st0" d="M942.58,1267.12c-17.94,0-32.49-14.55-32.49-32.49v-428.27c0-17.94,14.55-32.49,32.49-32.49s32.49,14.55,32.49,32.49v428.27c0,17.94-14.55,32.49-32.49,32.49Z"/>
  <path class="st0" d="M1049.75,1350.99c-17.94,0-32.49-14.55-32.49-32.49v-596c0-17.94,14.54-32.49,32.49-32.49s32.49,14.55,32.49,32.49v596c0,17.94-14.54,32.49-32.49,32.49Z"/>
  <path class="st0" d="M1156.93,1467.51c-17.94,0-32.49-14.55-32.49-32.49v-829.05c0-17.94,14.55-32.49,32.49-32.49s32.49,14.55,32.49,32.49v829.05c0,17.94-14.55,32.49-32.49,32.49Z"/>
  <path class="st0" d="M1264.11,1478.54c-17.94,0-32.49-14.55-32.49-32.49v-851.11c0-17.94,14.55-32.49,32.49-32.49s32.49,14.55,32.49,32.49v851.11c0,17.94-14.55,32.49-32.49,32.49Z"/>
  <path class="st0" d="M1371.29,1488c-17.94,0-32.49-14.55-32.49-32.49v-870.03c0-17.94,14.55-32.49,32.49-32.49s32.49,14.55,32.49,32.49v870.03c0,17.94-14.55,32.49-32.49,32.49Z"/>
  <path class="st0" d="M1478.46,1467.51c-17.94,0-32.49-14.55-32.49-32.49v-829.05c0-17.94,14.55-32.49,32.49-32.49s32.49,14.55,32.49,32.49v829.05c0,17.94-14.55,32.49-32.49,32.49Z"/>
  <path class="st0" d="M1585.64,1334.89c-17.94,0-32.49-14.55-32.49-32.49v-563.82c0-17.94,14.54-32.49,32.49-32.49s32.49,14.55,32.49,32.49v563.82c0,17.94-14.54,32.49-32.49,32.49Z"/>
  <path class="st0" d="M1692.82,1251.58c-17.94,0-32.49-14.55-32.49-32.49v-397.19c0-17.94,14.55-32.49,32.49-32.49s32.49,14.55,32.49,32.49v397.19c0,17.94-14.55,32.49-32.49,32.49Z"/>
  <path class="st0" d="M1799.99,1184.65c-17.94,0-32.49-14.55-32.49-32.49v-263.33c0-17.94,14.55-32.49,32.49-32.49s32.49,14.55,32.49,32.49v263.33c0,17.94-14.55,32.49-32.49,32.49Z"/>
  <path class="st0" d="M1907.17,1132.36c-17.94,0-32.49-14.55-32.49-32.49v-158.75c0-17.94,14.55-32.49,32.49-32.49s32.49,14.55,32.49,32.49v158.75c0,17.94-14.55,32.49-32.49,32.49Z"/>
  <path class="st0" d="M2014.35,1159.16c-17.94,0-32.49-14.55-32.49-32.49v-212.34c0-17.94,14.55-32.49,32.49-32.49s32.49,14.55,32.49,32.49v212.34c0,17.94-14.55,32.49-32.49,32.49Z"/>
</svg>