<?xml version="1.0" encoding="UTF-8"?>
<svg id="Design" xmlns="http://www.w3.org/2000/svg" viewBox="0 0 3284.11 3876.44">
  <defs>
    <style>
      .cls-1 {
        stroke-width: 13.78px;
      }

      .cls-1, .cls-2, .cls-3, .cls-4, .cls-5, .cls-6, .cls-7, .cls-8, .cls-9, .cls-10, .cls-11, .cls-12 {
        fill: none;
        stroke: #221f1f;
        stroke-linecap: round;
        stroke-linejoin: round;
      }

      .cls-2 {
        stroke-width: 23.21px;
      }

      .cls-3 {
        stroke-width: 15.09px;
      }

      .cls-4 {
        stroke-width: 20.89px;
      }

      .cls-5 {
        stroke-width: 21.47px;
      }

      .cls-6 {
        stroke-width: 44.1px;
      }

      .cls-7 {
        stroke-width: 49.9px;
      }

      .cls-8 {
        stroke-width: 29.01px;
      }

      .cls-9 {
        stroke-width: 42.94px;
      }

      .cls-10 {
        stroke-width: 46.84px;
      }

      .cls-11 {
        stroke-width: 46.42px;
      }

      .cls-13 {
        fill: #221f1f;
      }

      .cls-12 {
        stroke-dasharray: 29.63 47.66;
        stroke-width: 14.67px;
      }
    </style>
  </defs>
  <g id="Revenue_Streams_-_Cash_Register" data-name="Revenue Streams - Cash Register">
    <g id="Bottom_Parts" data-name="Bottom Parts">
      <rect id="Cash_Drawer" data-name="Cash Drawer" class="cls-7" x="24.95" y="3073.4" width="3234.21" height="778.09"/>
      <rect id="Cash_Drawer_Line" data-name="Cash Drawer Line" class="cls-2" x="186.65" y="3225.31" width="2910.78" height="474.37"/>
      <path id="Circle" class="cls-2" d="M1755.66,3462.42c0-62.74-50.85-113.6-113.62-113.6s-113.63,50.86-113.63,113.6,50.91,113.66,113.63,113.66,113.62-50.88,113.62-113.66Z"/>
      <line id="Lock_Line" data-name="Lock Line" class="cls-8" x1="1642.04" y1="3423.64" x2="1642.04" y2="3501.24"/>
    </g>
    <g id="Central_Parts" data-name="Central Parts">
      <path id="Left_Line" data-name="Left Line" class="cls-7" d="M484.01,1697.39c-132.65,81.42-251.49,291.58-251.49,674.71v701.3"/>
      <path id="Right_Line" data-name="Right Line" class="cls-7" d="M2830.02,1697.39c132.52,81.42,251.47,291.58,251.47,674.71v701.3"/>
      <path id="Reflex_R" data-name="Reflex R" class="cls-4" d="M482.36,2038.65c-33.87,92.69-53.23,204.81-53.23,350.76v141.56"/>
      <path id="Reflex_R-2" data-name="Reflex R" class="cls-4" d="M594.48,1847.95c-23.84,25.96-40.84,50.28-57.79,77.14"/>
      <line id="Reflex_L" data-name="Reflex L" class="cls-4" x1="2885.43" y1="2793.83" x2="2885.43" y2="2925.12"/>
      <path id="Reflex_L-2" data-name="Reflex L" class="cls-4" d="M2830.09,2065.3c38.79,81.05,55.34,215.22,55.34,361.22v188.65"/>
      <g id="Buttons_Group" data-name="Buttons Group">
        <path id="Dot" class="cls-13" d="M1351.4,2076.91c0-37.65-30.57-68.08-68.12-68.08s-67.88,30.43-67.88,68.08,30.42,67.99,67.88,67.99,68.12-30.43,68.12-67.99Z"/>
        <path id="Dot-2" data-name="Dot" class="cls-13" d="M1239.01,2755.04c0-37.53-30.44-67.96-67.86-67.96s-68.04,30.43-68.04,67.96,30.37,68.13,68.04,68.13,67.86-30.46,67.86-68.13Z"/>
        <path id="Dot-3" data-name="Dot" class="cls-13" d="M1280.24,2416.09c0-37.71-30.35-68.04-68.04-68.04s-67.97,30.33-67.97,68.04,30.49,67.85,67.97,67.85,68.04-30.37,68.04-67.85Z"/>
        <path id="Dot-4" data-name="Dot" class="cls-13" d="M936.64,2076.91c0-37.65-30.42-68.08-68.01-68.08s-67.93,30.43-67.93,68.08,30.34,67.99,67.93,67.99,68.01-30.43,68.01-67.99Z"/>
        <path id="Dot-5" data-name="Dot" class="cls-13" d="M824.35,2755.04c0-37.53-30.42-67.96-67.95-67.96s-68.06,30.43-68.06,67.96,30.39,68.13,68.06,68.13,67.95-30.46,67.95-68.13Z"/>
        <path id="Dot-6" data-name="Dot" class="cls-13" d="M865.58,2416.09c0-37.65-30.5-68.09-68.04-68.09s-67.99,30.44-67.99,68.09,30.4,67.85,67.99,67.85,68.04-30.37,68.04-67.85Z"/>
        <path id="Dot-7" data-name="Dot" class="cls-13" d="M1932.68,2076.91c0-37.65,30.57-68.08,68.14-68.08s67.86,30.43,67.86,68.08-30.39,67.99-67.86,67.99-68.14-30.43-68.14-67.99Z"/>
        <path id="Dot-8" data-name="Dot" class="cls-13" d="M2045.08,2755.04c0-37.53,30.42-67.96,67.84-67.96s68.04,30.43,68.04,67.96-30.35,68.13-68.04,68.13-67.84-30.46-67.84-68.13Z"/>
        <path id="Dot-9" data-name="Dot" class="cls-13" d="M2003.83,2416.09c0-37.71,30.36-68.04,68.04-68.04s67.96,30.33,67.96,68.04-30.47,67.85-67.96,67.85-68.04-30.37-68.04-67.85Z"/>
        <path id="Dot-10" data-name="Dot" class="cls-13" d="M2347.44,2076.91c0-37.65,30.42-68.08,68.01-68.08s67.91,30.43,67.91,68.08-30.32,67.99-67.91,67.99-68.01-30.43-68.01-67.99Z"/>
        <path id="Dot-11" data-name="Dot" class="cls-13" d="M2459.73,2755.04c0-37.53,30.42-67.96,67.96-67.96s68.06,30.43,68.06,67.96-30.35,68.13-68.06,68.13-67.96-30.46-67.96-68.13Z"/>
        <path id="Dot-12" data-name="Dot" class="cls-13" d="M2418.51,2416.09c0-37.65,30.52-68.09,68.01-68.09s68.01,30.44,68.01,68.09-30.39,67.85-68.01,67.85-68.01-30.37-68.01-67.85Z"/>
        <path id="Dot-13" data-name="Dot" class="cls-13" d="M1710.05,2076.91c0-37.65-30.42-68.08-67.97-68.08s-68.03,30.43-68.03,68.08,30.37,68.08,68.03,68.08,67.97-30.51,67.97-68.08Z"/>
        <path id="Dot-14" data-name="Dot" class="cls-13" d="M1710.05,2755.04c0-37.6-30.42-67.96-67.97-67.96s-68.03,30.35-68.03,67.96,30.47,68.13,68.03,68.13,67.97-30.46,67.97-68.13Z"/>
        <path id="Dot-15" data-name="Dot" class="cls-13" d="M1710.05,2416.09c0-37.71-30.39-68.04-67.97-68.04s-68.03,30.33-68.03,68.04,30.37,67.87,68.03,67.87,67.97-30.39,67.97-67.87Z"/>
      </g>
    </g>
    <g id="Top_Parts" data-name="Top Parts">
      <polyline id="Background_Lines" data-name="Background Lines" class="cls-7" points="1413.49 937.98 2830.02 937.98 2830.02 1704.99 484.01 1704.99 484.01 937.98 727.48 937.98"/>
      <line id="Ticket_Bottom_Line" data-name="Ticket Bottom Line" class="cls-10" x1="1435.05" y1="1506.77" x2="705.96" y2="1506.77"/>
      <g id="Ticket_Group" data-name="Ticket Group">
        <g id="Ticket_Lines" data-name="Ticket Lines">
          <line id="Line" class="cls-3" x1="1250.38" y1="1396.94" x2="890.59" y2="1396.94"/>
          <line id="Line-2" data-name="Line" class="cls-3" x1="1250.38" y1="1253.14" x2="890.59" y2="1253.14"/>
          <line id="Line_Bold" data-name="Line Bold" class="cls-5" x1="1249.6" y1="1084.42" x2="891.34" y2="1084.42"/>
          <line id="Line_Dotted" data-name="Line Dotted" class="cls-12" x1="876.41" y1="891.72" x2="1264.55" y2="891.72"/>
          <line id="Line-3" data-name="Line" class="cls-3" x1="1250.38" y1="738" x2="890.59" y2="738"/>
          <line id="Line-4" data-name="Line" class="cls-3" x1="1250.38" y1="594.16" x2="890.59" y2="594.16"/>
          <line id="Line-5" data-name="Line" class="cls-3" x1="1250.38" y1="450.37" x2="890.59" y2="450.37"/>
          <line id="Line_Bold-2" data-name="Line Bold" class="cls-5" x1="1249.6" y1="281.61" x2="891.34" y2="281.61"/>
        </g>
        <polyline id="Ticket" class="cls-9" points="770.65 1506.77 770.65 109.25 770.65 106.77 870.73 21.47 970.82 106.77 1070.75 21.47 1170.68 106.77 1270.55 21.47 1370.35 106.77 1370.35 109.25 1370.35 1506.77"/>
      </g>
      <g id="Inner_Display" data-name="Inner Display">
        <rect id="Display_Screen" data-name="Display Screen" class="cls-6" x="1845.59" y="1137.7" width="795.86" height="369.07"/>
        <line id="Reflex" class="cls-1" x1="2515.74" y1="1300.31" x2="2515.74" y2="1314.57"/>
        <polyline id="Reflex-2" data-name="Reflex" class="cls-1" points="2515.74 1359.48 2515.74 1410.19 2331.31 1410.19"/>
        <line id="Reflex-3" data-name="Reflex" class="cls-1" x1="1978.31" y1="1355.69" x2="1978.31" y2="1340.16"/>
        <polyline id="Reflex-4" data-name="Reflex" class="cls-1" points="1978.31 1297.66 1978.31 1248.21 2155.23 1248.21"/>
      </g>
      <g id="Top_Display_Rotable" data-name="Top Display Rotable">
        <line id="Line_Vertical" data-name="Line Vertical" class="cls-6" x1="2121.3" y1="937.98" x2="2121.3" y2="667.85"/>
        <line id="Line_Vertical-2" data-name="Line Vertical" class="cls-6" x1="2365.7" y1="667.85" x2="2365.7" y2="937.98"/>
        <rect id="Display" class="cls-11" x="1744" y="257.6" width="999.06" height="410.24"/>
        <g id="Reflexes_Group" data-name="Reflexes Group">
          <line id="Line-6" data-name="Line" class="cls-3" x1="2329.78" y1="667.85" x2="2596.27" y2="401.48"/>
          <line id="Line-7" data-name="Line" class="cls-3" x1="2323.23" y1="341.98" x2="2407.35" y2="257.6"/>
          <line id="Line-8" data-name="Line" class="cls-3" x1="2241.14" y1="423.74" x2="2277" y2="387.81"/>
          <line id="Line-9" data-name="Line" class="cls-3" x1="1999.17" y1="665.88" x2="2195.01" y2="469.79"/>
          <line id="Line-10" data-name="Line" class="cls-3" x1="1892.52" y1="485.64" x2="2105.91" y2="272.36"/>
        </g>
      </g>
    </g>
  </g>
</svg>