<?xml version="1.0" encoding="UTF-8"?>
<svg id="_Слой_1" data-name="Слой_1" xmlns="http://www.w3.org/2000/svg" version="1.1" viewBox="0 0 500 500">
  <!-- Generator: Adobe Illustrator 30.1.0, SVG Export Plug-In . SVG Version: 2.1.1 Build 136)  -->
  <defs>
    <style>
      .st0 {
        stroke: #000;
        stroke-miterlimit: 10;
        stroke-width: 9px;
      }
    </style>
  </defs>
  <path class="st0" d="M285.51,120.32h174.33c6.29-.18,12.44,1.83,17.42,5.68,7.42,5.45,11.71,14.18,11.48,23.39,0,81.98-.12,163.96.12,245.96,0,13.78-9.95,29.63-29.47,29.6-69.49-.12-138.97-.12-208.44,0H41.49c-5.58.2-11.1-1.13-15.98-3.86-9.06-5.36-14.21-13.28-14.23-23.85-.1-82.85,0-165.71-.14-248.56.2-15.82,13.08-28.53,28.89-28.53,55.93.36,111.87.14,167.79.14h6.56l71.13.03ZM208.08,133.29H39.26c-8.6.62-14.03,5.59-15.05,13.8-.12,1.22-.17,2.45-.14,3.68v245.41c.48,9.84,7.22,15.89,17.06,15.4,2.08-.12,4.17-.1,6.26-.09,18.23.14,36.46.35,54.69.45,4.51,0,9.01-.4,13.52-.38,15.44,0,30.89.35,46.33.38h201.06c6.24,0,12.5-.35,18.78-.33,14.92,0,29.85.26,44.78.26,10.59,0,21.18-.68,31.78-.19,9.36.43,17.62-5.48,17.61-17.19-.09-81.29-.13-162.58-.12-243.86,0-10.63-6.65-17.34-17.16-17.34h-250.58ZM214.33,133.33"/>
  <path class="st0" d="M152.04,373.67h-71.33c-1.56.07-3.13.01-4.68-.17-3.16-.52-5.52-2.48-5.48-5.39.19-11.22-1.44-22.54,1.82-33.63,7.22-25.25,30.57-44.26,56.66-45.75,3.44-.12,6.87.41,10.11,1.56,8.36,3.18,17.59,3.26,26,.23,5.58-2.04,11.37-1.7,16.97-.77,26.52,4.46,48.42,25.08,51.79,53.13.94,7.87.49,15.89.3,23.91-.1,4.06-3.05,6.5-7.22,6.83-1.37.1-2.77,0-4.16,0h-70.79v.04ZM221.22,360.08c0-5.46.61-10.56-.12-15.46-2.4-16.12-11.15-28.16-25.06-36.4-5.56-3.25-11.71-5.35-18.1-6.18-4.09-.56-7.87.64-11.7,1.79-10.43,3.15-20.82,3.58-31.06-.78-3.89-1.66-7.8-1.16-11.76-.38-12.89,2.51-22.94,9.48-30.74,19.83-8.38,11.09-10.99,23.6-8.87,37.56h137.41Z"/>
  <path class="st0" d="M204.39,237.27c.42,24.9-19.62,51.27-52.42,51.21-28.31-.26-51.12-23.27-51.15-51.57,0-27.62,23.53-50.71,51.47-50.84,32.81-.2,52.35,27.65,52.11,51.2ZM153.34,275.64c19.27-.09,37.81-15.73,37.85-37.94,0-21.45-16.41-38.6-38.27-38.53-23.03.07-38.86,17.44-39,37.88-.05,21.26,17.14,38.54,38.4,38.6.34,0,.68,0,1.02-.01h0Z"/>
  <path class="st0" d="M350.17,281.22h-69.72c-1.23,0-2.44.09-3.64,0-3.17-.03-5.72-2.61-5.72-5.78-.4-3.25,1.77-6.26,4.98-6.89,1.37-.2,2.76-.26,4.15-.19h141.11c1.21-.06,2.42,0,3.63.16,3.2.6,5.47,3.46,5.33,6.72-.21,3.05-2.6,5.5-5.65,5.78-1.38.13-2.76.16-4.15.1h-70.32v.1Z"/>
  <path class="st0" d="M350.95,228.69h69.24c1.39-.07,2.77-.07,4.16,0,3.1.1,5.61,2.56,5.78,5.66.36,3.07-1.63,5.93-4.64,6.65-1.34.32-2.72.45-4.1.4h-141.63c-5.94,0-8.67-2.59-8.18-7.44.09-2.72,2.2-4.95,4.91-5.2,1.55-.16,3.12-.2,4.68-.13h69.76v.06Z"/>
  <path class="st0" d="M325.61,320.81h-45.26c-1.21.07-2.43.04-3.64-.09-3.08-.31-5.42-2.9-5.42-6-.2-3.07,1.88-5.83,4.9-6.47,1.37-.22,2.75-.3,4.13-.23h91.01c1.55-.07,3.11.08,4.62.43,3.34,1.05,5.2,4.61,4.15,7.95-.73,2.32-2.71,4.01-5.12,4.37-1.38.12-2.76.14-4.15.07h-45.23v-.04Z"/>
</svg>