<?xml version="1.0" encoding="utf-8"?>
<!-- Generator: Adobe Illustrator 24.2.3, SVG Export Plug-In . SVG Version: 6.00 Build 0)  -->
<svg version="1.1" id="Layer_1" xmlns="http://www.w3.org/2000/svg" xmlns:xlink="http://www.w3.org/1999/xlink" x="0px" y="0px"
	 viewBox="0 0 512 512" style="enable-background:new 0 0 512 512;" xml:space="preserve">
<style type="text/css">
	.st0{fill:#454D66;}
</style>
<g>
	<path class="st0" d="M32,139.66h55.98c6,19.55,24.22,33.8,45.7,33.8s39.7-14.25,45.7-33.8H480c7.73,0,14-6.27,14-14s-6.27-14-14-14
		H179.38c-6-19.55-24.22-33.8-45.7-33.8s-39.7,14.25-45.7,33.8H32c-7.73,0-14,6.27-14,14S24.27,139.66,32,139.66z M133.68,105.87
		c10.92,0,19.8,8.88,19.8,19.8s-8.88,19.8-19.8,19.8s-19.8-8.88-19.8-19.8S122.76,105.87,133.68,105.87z"/>
	<path class="st0" d="M480,372.34H179.38c-6-19.55-24.22-33.8-45.7-33.8s-39.7,14.25-45.7,33.8H32c-7.73,0-14,6.27-14,14
		s6.27,14,14,14h55.98c6,19.55,24.22,33.8,45.7,33.8s39.7-14.25,45.7-33.8H480c7.73,0,14-6.27,14-14S487.73,372.34,480,372.34z
		 M133.68,406.13c-10.91,0-19.79-8.88-19.8-19.79c0,0,0-0.01,0-0.01s0-0.01,0-0.01c0.01-10.91,8.88-19.79,19.8-19.79
		c10.92,0,19.8,8.88,19.8,19.8S144.6,406.13,133.68,406.13z"/>
	<path class="st0" d="M480,242H298.32c-6-19.55-24.22-33.8-45.7-33.8s-39.7,14.25-45.7,33.8H32c-7.73,0-14,6.27-14,14
		c0,7.73,6.27,14,14,14h174.92c6,19.55,24.22,33.8,45.7,33.8s39.7-14.25,45.7-33.8H480c7.73,0,14-6.27,14-14
		C494,248.27,487.73,242,480,242z M252.62,275.8c-10.91,0-19.78-8.87-19.8-19.77c0-0.01,0-0.02,0-0.03s0-0.02,0-0.03
		c0.02-10.9,8.89-19.77,19.8-19.77c10.92,0,19.8,8.88,19.8,19.8C272.42,266.92,263.54,275.8,252.62,275.8z"/>
</g>
</svg>
