<?xml version="1.0" encoding="UTF-8"?>
<svg id="bookmark1" xmlns="http://www.w3.org/2000/svg" version="1.1" viewBox="0 0 939.27 1520.96">
  <!-- Generator: Adobe Illustrator 30.1.0, SVG Export Plug-In . SVG Version: 2.1.1 Build 136)  -->
  <defs>
    <style>
      .st0 {
        fill: #020202;
      }

      .st0, .st1 {
        stroke: #000;
        stroke-miterlimit: 10;
        stroke-width: 30px;
      }
    </style>
  </defs>
  <path class="st1" d="M900.91,37.97c-12.03-10.87-27.97-16.85-44.89-16.85H86.08c-16.91,0-32.85,5.98-44.89,16.85-12.02,10.86-18.65,25.25-18.65,40.52v1239.91c0,5.08,3.29,9.75,8.4,11.91l5.66,2.4,434.34-354.1,434.26,354.04,5.56-2.17c5.34-2.09,8.79-6.83,8.79-12.07V78.49c0-15.27-.2-23.23-12.23-34.1l-6.41-6.42ZM900.73,1306.07l-429.78-350.38L41.39,1305.9V78.49c0-10.73,4.67-20.85,13.14-28.5s19.68-11.87,31.56-11.87h769.94c11.88,0,23.09,4.22,31.56,11.87,8.47,7.65,13.14,17.77,13.14,28.5v1227.58h0Z"/>
  <path class="st0" d="M558.08,392.69l-82.9-176.89-89.98,173.39-193.84,24.17,137.1,139.16-36.91,191.82,174.71-87.38,171.03,94.37-29.12-193.16,142.61-133.5-162.59-26.99-15.86-2.63-14.25-2.36ZM625.14,733.87l-158.66-87.55-162.07,81.06,34.24-177.95-127.18-129.09,179.82-22.42,83.47-160.84,76.9,164.09,178.77,29.68-132.3,123.84,27.02,179.19h-.01Z"/>
</svg>