<?xml version="1.0" encoding="UTF-8"?>
<svg id="Layer_1" xmlns="http://www.w3.org/2000/svg" version="1.1" viewBox="0 0 714 714">
  <!-- Generator: Adobe Illustrator 30.1.0, SVG Export Plug-In . SVG Version: 2.1.1 Build 136)  -->
  <defs>
    <style>
      .st0 {
        fill: #231f20;
      }
    </style>
  </defs>
  <path class="st0" d="M490.26,317.94h0c3.54-4.72,6.79-9.68,11.8-13.18,3.18-2.21,3.64-5.5,1.85-8.4-1.55-2.51-4.55-3.41-7.85-2.34-3.17.99-5.5,3.17-7.76,5.44-6.62,6.64-12.42,13.96-17.88,21.57-13.17,18.37-25.24,37.46-36.83,56.85-15.81,26.45-30.93,53.27-44.22,81.09-2.95,6.18-5.79,12.41-8.03,18.89-.59,1.72-1.16,3.48-1.42,5.26-.45,3.09.98,5.52,3.64,6.65,2.43,1.04,5.67.33,7.4-1.95,1.23-1.62,2.16-3.49,3.04-5.33,3.55-7.41,6.96-14.88,10.55-22.26,13.08-26.9,27.88-52.86,43.28-78.49,13.16-21.91,27.08-43.33,42.41-63.8Z"/>
  <path class="st0" d="M334.88,346.08h0c2.09-2.31,4.42-3.06,7.29-1.46.99.55,2.09.9,3.15,1.34,16.27,6.65,32.54,13.3,48.81,19.95,1.69.69,3.36,1.47,5.11,1.95,3.66,1,6.93-1.4,7.07-5.24.06-1.57-.22-3.2-.63-4.72-.53-1.98-1.32-3.89-2.03-5.81-4.31-11.79-8.68-23.56-12.94-35.37-2.26-6.27-2.67-5.28,2.17-10.77.3-.34.58-.7.88-1.05,9.14-10.5,18.28-20.99,27.4-31.5,1.19-1.37,2.41-2.76,3.38-4.29,2.02-3.16,1.18-8.18-3.68-9.01-2.47-.42-4.93-.96-7.4-1.37-12.16-2.01-24.31-3.99-36.47-5.98-6.6-1.08-5.74-.76-7.84-6.8-3.07-8.84-6.11-17.69-9.16-26.54l.47-.16c-3.05-8.85-6.1-17.69-9.16-26.54-.52-1.51-1-3.04-1.64-4.5-.77-1.76-1.99-3.11-4.07-3.2-2.25-.1-4.01.9-5.05,2.88-1.16,2.22-2.18,4.52-3.2,6.82-7.79,17.52-15.56,35.05-23.34,52.57-.65,1.46-1.35,2.9-1.95,4.37-.67,1.64-1.88,2.52-3.59,2.79-1.13.18-2.25.37-3.38.5-13.13,1.56-26.27,3.1-39.4,4.69-1.81.22-3.64.45-5.37.98-3.75,1.16-5.27,4.39-3.91,8.12,1.03,2.83,2.87,5.16,4.81,7.42,10.96,12.84,21.87,25.72,32.87,38.53,1.91,2.22,2.95,4.37,2.08,7.41-.81,2.84-1.15,5.81-1.7,8.73-2.57,13.68-5.15,27.36-7.71,41.04-.42,2.24-1,4.46-.67,6.78.63,4.4,4.25,6.24,7.97,3.91,1.53-.96,2.87-2.24,4.22-3.46,11.36-10.22,22.7-20.46,34.05-30.69.85-.76,1.76-1.47,2.53-2.31Z"/>
  <path class="st0" d="M346.07,370.68h0c-1.21-3.91-2.81-7.74-3.14-11.66-1.12-4.04-4.05-6.22-7.52-5.79-3.38.42-5.84,3.48-5.6,7.44.12,2.02.76,4.02,1.29,6,2.52,9.26,4.45,18.64,6.07,28.09,2.99,17.38,3.93,34.92,3.41,52.5-1.31,43.89-5.9,87.4-15.45,130.31-.54,2.45-1.12,4.91-1.39,7.39-.39,3.48,1.24,6.16,4,7.13,3.08,1.08,6.19-.17,7.92-3.62,1.32-2.64,2.46-5.44,3.18-8.29,1.61-6.41,3.1-12.87,4.31-19.37,4.19-22.45,6.86-45.11,8.99-67.84,1.99-21.14,3.26-42.31,2.54-63.56-.67-19.9-2.7-39.6-8.61-58.74Z"/>
  <path class="st0" d="M262.91,390.84h0c-4.67-20.48-9.78-40.84-17.17-61.81-3.9-11.9-8.89-24.66-14.65-37.1-6.62-14.3-13.68-28.37-22.49-41.49-.76-1.13-1.44-2.35-2.38-3.32-2.31-2.39-5.3-2.77-8.12-1.21-2.64,1.46-3.92,4.49-2.93,7.65.54,1.71,1.47,3.33,2.37,4.9,10.57,18.43,20.19,37.31,28.16,57.05,7.2,17.84,12.77,36.17,17.66,54.72,3.84,14.56,7.12,29.27,10.11,44.04,4.16,20.59,7.78,41.25,10.18,62.13,1.38,12.03,1.88,24.11,2.67,36.17.14,2.07.25,4.11,1.14,6.01,1.07,2.29,2.88,3.46,5.42,3.46,2.53,0,4.43-1.17,5.47-3.41.56-1.2.83-2.62.91-3.96.23-3.87.43-7.75.41-11.62-.08-15.1-1.92-30.04-4.06-44.96-3.25-22.6-7.6-44.99-12.68-67.26Z"/>
  <path class="st0" d="M616.16,283.83h0c-.88-1.59-1.97-3.07-3.02-4.56-6.34-8.93-12.51-17.98-19.13-26.69-2.75-3.61-2.92-6.6-1.03-10.6,3.71-7.83,6.92-15.9,10.33-23.87,2.43-5.66,4.82-11.34,7.28-16.99,1.04-2.37,1.99-4.76.07-7.06-1.99-2.39-4.47-1.64-6.91-.75-.86.31-1.73.59-2.59.89-6.9,2.38-13.81,4.76-20.71,7.14l.21.61c-6.26,2.16-12.52,4.31-18.77,6.48-1.72.6-3.47,1.16-5.14,1.89-2.41,1.04-4.39.53-6.24-1.22-1.16-1.09-2.45-2.05-3.67-3.08-7.85-6.61-15.69-13.25-23.57-19.84-1.39-1.16-2.83-2.33-4.43-3.17-2.11-1.11-4.76,0-5.72,2.17-.93,2.13-1.13,4.41-1.18,6.7-.09,4.56-.14,9.12-.23,13.68-.19,9.81-.45,19.61-.57,29.42-.03,2.49-.67,4.4-2.97,5.68-1.58.88-3.02,2.04-4.51,3.09-9.17,6.39-18.32,12.79-27.5,19.16-1.51,1.05-3.02,2.05-3.95,3.7-1.32,2.32-.42,5.42,2.08,6.28,1.7.59,3.55.79,5.35.99,12.69,1.41,25.39,2.85,38.1,4.1,3.27.32,5.7,1.28,6.6,4.7.11.43.37.83.56,1.25,5.95,13.33,11.89,26.68,17.86,40,1.03,2.29,2.01,4.62,3.32,6.75,2.17,3.54,6.01,3.43,8.16-.22,1.04-1.76,1.77-3.7,2.53-5.6,3.79-9.55,7.68-19.06,11.23-28.69,1.24-3.37,3.22-4.42,6.58-4.44,10.94-.06,21.89-.34,32.83-.53,1.6-.03,3.2.02,4.79-.13,4.25-.42,5.99-3.57,3.97-7.23Z"/>
  <path class="st0" d="M268.14,668.64h0c-6.34-30.88-14.03-61.42-25.43-97.19-7.94-25.34-20.72-55.02-37.76-82.84-8.62-14.08-18.85-26.89-29.51-39.4-1.61-1.89-3.7-2.61-6.15-1.92-2.72.76-4.13,2.66-4.58,5.38-.41,2.45.5,4.42,1.96,6.32,3.48,4.52,6.92,9.06,10.31,13.66,13.99,18.99,25.92,39.2,35.75,60.64,7.24,15.79,13.37,32.03,18.51,48.63,6.97,22.47,13.05,45.18,18.3,68.11,3.82,16.7,7.53,33.4,8.71,50.55.11,1.56.56,3.17,1.21,4.6,1.02,2.28,3.01,3.45,5.5,3.34,2.39-.1,4.52-1.05,5.51-3.41.61-1.45,1.15-3.04,1.21-4.59.13-3.41.24-6.87-.18-10.24-.91-7.24-1.88-14.5-3.34-21.64Z"/>
  <path class="st0" d="M485.28,470.41h0c-.63.41-1.8,1.11-2.89,1.91-4.11,3-7.25,6.91-10.12,11.06-4.17,6.04-7.46,12.56-10.49,19.22-5.48,12.07-10.33,24.39-14.87,36.84-10.8,29.62-20.77,59.5-28.78,90.01-1.8,6.84-3.21,13.78-4.63,20.71-.69,3.35-.97,6.79-.6,10.22.32,3,2.28,5.09,5.09,5.68,2.87.6,5.47-.53,6.72-3.44.98-2.28,1.55-4.77,2.03-7.22,2.83-14.59,6.64-28.93,10.9-43.15,7.92-26.48,16.73-52.67,26.57-78.5,4.72-12.39,9.89-24.57,15.86-36.42,2.99-5.94,6.15-11.75,11.36-16.11.52-.43.99-.96,1.38-1.51,1.6-2.24,1.72-5.05.33-7.05-1.63-2.34-4.53-3.32-7.85-2.25Z"/>
  <path class="st0" d="M597.97,457.38h0c-6.07-9.39-12.03-18.85-18.31-28.11-1.82-2.69-1.99-4.88-.4-7.51.71-1.17,1.21-2.46,1.8-3.69,6.43-13.38,12.87-26.76,19.3-40.14.69-1.44,1.45-2.86,2.02-4.35.68-1.76.88-3.58-.46-5.18-1.45-1.74-3.27-2.4-5.5-1.69-.65.21-1.31.39-1.97.59-10.7,3.27-21.41,6.52-32.1,9.81-6.33,1.95-12.69,3.82-18.93,6.02-3.47,1.23-5.96.52-8.6-1.98-9.12-8.63-18.42-17.07-27.67-25.56-1.34-1.23-2.72-2.44-4.2-3.5-1.15-.82-2.55-.92-4.06-.63-1.46.61-2.55,1.74-3.1,3.32-.84,2.38-1.11,4.86-1.27,7.39-.91,14.81-1.99,29.61-2.79,44.42-.2,3.74-1.32,6.2-4.72,8.26-11.52,6.97-22.8,14.32-34.16,21.53-1.34.85-2.76,1.66-3.89,2.74-3.44,3.31-2.39,7.65,2.15,8.95,1.53.43,3.14.57,4.72.82,13.08,2.02,26.17,4.04,39.25,6.05,1.58.24,3.16.47,4.73.77,1.44.27,2.47,1.08,3.02,2.48.84,2.13,1.71,4.24,2.54,6.36,5.74,14.68,11.44,29.36,17.22,44.03.83,2.11,1.73,4.26,2.99,6.13,1.88,2.78,5.5,2.85,7.53.18,1.23-1.61,2.16-3.48,3.01-5.34,2.86-6.23,5.61-12.5,8.41-18.76,2.33-5.21,4.69-10.41,7-15.63.73-1.64,1.84-2.47,3.71-2.4,3.88.15,7.76.19,11.63.29,10.04.25,20.07.6,30.11.75,7.13.1,8.98-3.23,5.4-9.5-1.36-2.38-2.92-4.63-4.41-6.93Z"/>
  <path class="st0" d="M273.35,66.74h0c1.32,1.85,2.88,3.53,4.36,5.26,8.16,9.52,16.3,19.07,24.53,28.54,1.48,1.71,2.2,3.35,1.47,5.58-.5,1.51-.76,3.1-1.13,4.66-2.49,10.43-5,20.85-7.46,31.29-.42,1.77-.83,3.58-.86,5.37-.06,3.48,2.88,5.49,6.03,4.15,1.45-.62,2.8-1.53,4.09-2.45,4.1-2.89,8.15-5.85,12.22-8.77,6.49-4.64,13.01-9.24,19.46-13.94,1.64-1.19,3.2-1.58,5.06-.67,1.43.7,2.91,1.31,4.37,1.97,13.11,5.9,26.22,11.81,39.34,17.69,1.66.75,3.32,1.6,5.06,2.01,3.29.77,5.99-1.73,5.46-5.08-.32-2-1.04-3.97-1.74-5.89-3.54-9.64-7.05-19.29-10.76-28.87-1.07-2.77-.6-4.65,1.57-6.62,7.94-7.19,15.76-14.52,23.62-21.81,1.34-1.24,2.72-2.45,3.9-3.83,2.55-2.98,1.71-6.3-1.94-7.54-2.15-.73-4.4-1.18-6.63-1.68-10.45-2.38-20.9-4.8-31.38-7.06-2.74-.59-4.34-1.83-5.22-4.6-2.28-7.18-4.85-14.26-7.31-21.38l.17-.06c-1.34-3.88-2.68-7.77-4.02-11.65s-2.67-7.77-3.99-11.66c-.63-1.85-1.72-3.33-3.75-3.54-2.28-.24-3.86.98-4.92,2.98-1.18,2.22-2.45,4.38-3.65,6.58-6.53,12.03-13.12,24.04-19.54,36.13-1.55,2.91-3.38,4.29-6.9,4.31-11.16.08-22.33.56-33.49.92-1.81.06-3.66.13-5.41.55-2.05.49-3.38,2.87-2.75,4.84.48,1.49,1.21,2.97,2.11,4.25Z"/>
  <path class="st0" d="M330.54,156.34c-.13,1.1.09,2.24.11,2.76.9,3.17,2.88,4.94,5.45,5.22,2.52.27,4.45-.79,5.7-2.9.68-1.15,1.18-2.46,1.48-3.76,1.01-4.43,1.45-8.95,1.38-13.48-.05-3.82-2.12-6.12-5.53-6.57-3.29-.44-5.97,1.45-6.7,5.29h0c-.85,4.44-1.33,8.95-1.88,13.44Z"/>
  <path class="st0" d="M430.68,227.41c2.4-.15,4.64-1.93,5.21-4.7.5-2.46.93-4.9,1.94-7.23,10.41-24.11,21.13-48.04,36.21-69.73,1.04-1.5,2.04-3.03,2.9-4.64.64-1.19,1.19-2.47,1.5-3.78.59-2.48-.32-4.5-2.39-5.94-2.03-1.43-4.28-1.72-6.45-.5-1.36.77-2.64,1.86-3.64,3.06-2.62,3.15-5.35,6.26-7.55,9.7-13.72,21.4-25.02,44-33.19,68.12-.73,2.16-1.27,4.37-1.87,6.57-.43,1.58-.34,3.16.27,4.7,1.05,2.76,3.96,4.56,7.07,4.37Z"/>
  <path class="st0" d="M76.04,211.95h0c2.2,1.28,4.63,1.9,7.06,2.55,12.58,3.32,25.13,6.79,37.76,9.92,3.73.92,5.77,2.66,7.09,6.33,4.02,11.17,8.46,22.19,12.75,33.27.74,1.91,1.27,3.9,2.8,5.43,2.13,2.13,5.54,2.02,7.09-.51.94-1.54,1.51-3.31,2.13-5.03,3.67-10.09,7.31-20.19,10.96-30.28.86-2.36,1.75-4.71,2.57-7.08.5-1.43,1.47-2.26,2.89-2.63,1.11-.28,2.21-.59,3.33-.79,13.03-2.34,26.06-4.66,39.09-7,3.59-.64,7.22-1.15,10.76-2.05,3.99-1.01,5.11-4.95,2.34-7.95-1.23-1.32-2.77-2.37-4.25-3.43-7.82-5.56-15.68-11.06-23.49-16.62-6.59-4.68-6.08-3.35-4.39-11.02,2.4-10.93,4.97-21.82,7.28-32.76,1.26-5.99-1.42-8.37-7.11-6.29-7.5,2.74-14.9,5.79-22.34,8.71-4.89,1.92-9.78,3.83-14.66,5.76-1.63.65-3.07.5-4.46-.64-1.23-1.02-2.56-1.91-3.84-2.87-10.78-8.08-21.56-16.17-32.35-24.24-1.46-1.09-2.9-2.26-4.51-3.09-2.97-1.55-6.3.35-6.42,3.68-.07,2.04.21,4.1.42,6.14,1.5,14.3,2.87,28.62,4.65,42.88.57,4.57-.33,7.56-4.35,10.28-8.87,6.01-17.37,12.57-26.01,18.92-1.47,1.08-2.94,2.17-4.23,3.45-1.23,1.21-1.42,2.81-1.28,3.18.92,2.38,1.69,3.16,2.72,3.76Z"/>
  <path class="st0" d="M66.43,265.28c20.53,12.86,39.38,27.9,57.37,44.05.84.76,1.69,1.53,2.61,2.19,2.02,1.45,4.23,1.5,6.5.67,4.34-1.6,5.55-6.53,2.37-9.92-1.55-1.66-3.32-3.11-4.92-4.73-15.85-16.22-33.91-29.67-52.85-41.98-2.28-1.48-4.8-2.61-7.27-3.77-1.22-.57-2.57-.96-3.9-1.21-3.11-.58-5.53.61-6.85,3.21-1.31,2.57-.9,5.28,1.47,7.42,1.68,1.52,3.55,2.86,5.47,4.06Z"/>
  <path class="st0" d="M223.98,136.92h0c4.9,7.41,9.75,14.85,14.04,22.65,9.12,16.58,17.54,33.51,24.97,50.92.81,1.91,1.75,3.72,3.29,5.14,1.65,1.53,3.69,1.9,5.74,1.27,2.32-.71,3.82-2.4,4.23-4.89.3-1.86-.16-3.61-.77-5.35-1.28-3.66-2.53-7.32-3.8-10.98-5.54-13.55-12.23-26.52-19.19-39.34-4.68-8.61-9.54-17.13-15.4-25-2.17-2.92-4.49-5.76-7.03-8.35-3.05-3.1-6.43-3.33-9.12-1.06-2.47,2.07-2.9,5.26-1,8.65,1.22,2.18,2.66,4.24,4.05,6.33Z"/>
  <path class="st0" d="M223.07,427.56h0c3.95-1.52,4.91-5.74,1.97-8.87-1.54-1.65-3.44-2.99-5.3-4.31-10.98-7.81-21.95-15.63-33.02-23.3-2.41-1.67-3.19-3.28-2.49-6.24,3.29-14,6.35-28.06,9.48-42.1.4-1.78.9-3.57.98-5.37.2-4.35-2.87-6.84-7.08-5.87-1.33.31-2.61.83-3.88,1.33-6.79,2.7-13.57,5.43-20.35,8.15l-.02-.04c-6.78,2.73-13.64,5.27-20.31,8.24-3.98,1.77-7.37,2.06-10.5-1.38-.45-.5-1.08-.84-1.63-1.25-13.7-10.28-27.4-20.55-41.1-30.83-1.46-1.09-2.86-2.31-4.44-3.2-4.22-2.38-8.59.17-8.55,5.01.01,2.27.36,4.54.6,6.81,1.92,18.16,3.84,36.31,5.76,54.46.14,1.36.3,2.72.38,4.09.09,1.47-.45,2.63-1.73,3.47-1.14.75-2.19,1.64-3.29,2.45-11.03,8.1-22.07,16.19-33.11,24.28-1.29.95-2.64,1.82-3.82,2.89-3.48,3.16-3.06,7.22.92,9.59,2.38,1.41,5.02,2.14,7.68,2.84,16.34,4.3,32.65,8.69,49.02,12.9,3.19.82,5,2.39,6.14,5.53,3.36,9.22,7.05,18.33,10.59,27.48,2.06,5.33,4.04,10.68,6.16,15.98.76,1.9,1.6,3.84,2.81,5.46,2.52,3.37,6.98,3.09,9.1-.52.91-1.55,1.48-3.33,2.1-5.04,5.45-15.03,10.98-30.03,16.23-45.13,1.23-3.54,3.26-5,6.78-5.6,19.11-3.31,38.19-6.78,57.28-10.24,2.24-.41,4.51-.88,6.63-1.69Z"/>
</svg>