<?xml version="1.0" encoding="UTF-8"?>
<svg id="Layer_1" xmlns="http://www.w3.org/2000/svg" version="1.1" viewBox="0 0 216 144">
  <!-- Generator: Adobe Illustrator 30.3.0, SVG Export Plug-In . SVG Version: 2.1.3 Build 182)  -->
  <defs>
    <style>
      .st0 {
        fill: none;
      }

      .st1 {
        stroke: #000;
        stroke-miterlimit: 10;
        stroke-width: 4px;
      }
    </style>
  </defs>
  <g id="Layer_1-2">
    <path class="st1" d="M61.98,35.47h21.87c.8,0,1.44.64,1.44,1.44v5.23h45.43v-5.23c0-.8.64-1.44,1.44-1.44h21.86c.8,0,1.44.64,1.44,1.44v95.09c0,.8-.64,1.44-1.44,1.44H61.98c-.8,0-1.44-.64-1.44-1.44V36.91c0-.8.64-1.44,1.44-1.44h0ZM82.41,38.35h-18.99v92.21h89.16V38.35h-18.98v5.23c0,.8-.64,1.44-1.44,1.44h-48.31c-.8,0-1.44-.64-1.44-1.44v-5.23h0Z"/>
    <path class="st1" d="M82.41,37.03c0,.8.64,1.44,1.44,1.44s1.44-.64,1.44-1.44v-5.62h8.98c.8,0,1.44-.64,1.44-1.44,0-3.39,1.38-6.47,3.6-8.69,2.22-2.22,5.3-3.6,8.69-3.6s6.47,1.38,8.69,3.6c2.22,2.22,3.6,5.3,3.6,8.69,0,.8.64,1.44,1.44,1.44h8.98v5.62c0,.8.64,1.44,1.44,1.44s1.44-.64,1.44-1.44v-7.06c0-.8-.64-1.44-1.44-1.44h-9.05c-.34-3.61-1.95-6.86-4.37-9.29-2.74-2.74-6.54-4.44-10.73-4.44s-7.98,1.7-10.73,4.44c-2.43,2.43-4.03,5.67-4.37,9.29h-9.05c-.8,0-1.44.64-1.44,1.44v7.06h0Z"/>
    <path class="st1" d="M108,23.94c4.22-.06,4.22,6.01,0,5.95-4.23.06-4.22-6.01,0-5.95Z"/>
  </g>
  <rect class="st0" width="216" height="144"/>
  <path class="st1" d="M107.58,113.72h-14.96c-3.42,0-6.32-1.21-8.39-4.06-1.16-1.55-1.8-3.44-1.8-5.38,0-9.26-.05-18.52,0-27.8.05-5.63,3.97-9.51,9.67-9.56,9.53-.07,4.58-.02,14.12,0,2.19,0,3.47,1.07,3.38,2.74-.07,1.37-1.82,3.01-3.72,2.99-8.92-.14-3.4-.11-12.29-.16h-1.05c-2.78.21-4.26,1.69-4.52,4.49-.05.43,0,.87,0,1.32v23.63c-.02.87.05,1.73.23,2.6.39,2.08,2.23,3.53,4.36,3.44,2.44.07,4.9.05,7.34.05h22.05c3.85,0,5.59.14,5.59-3.76,0-4.54-.16-2.1-.21-6.66,0-1.14.09-2.26.3-3.38.43-1.35,1.55-2.35,2.92-2.65,1.09-.11,2.1.59,2.35,1.66.11.59.14,1.21.11,1.82,0,5.77.05,2.74,0,8.51,0,4.1-1.76,7.34-5.47,9.14-1.69.68-3.49,1.05-5.29,1.03-4.88.14-9.78.05-14.69.05v-.07h-.02Z"/>
  <path class="st1" d="M110.78,90.81c2.69-3.17,4.97-5.95,7.27-8.6,4.4-5.09,8.83-10.17,13.23-15.21,1.05-1.19,2.08-2.37,3.15-3.51.57-.66,1.21-1.25,1.89-1.78,1.23-.93,3.01-.71,3.95.52.82,1.07.75,2.6-.16,3.6-.62.73-1.32,1.39-1.96,2.12-7.09,8.28-14.18,16.53-21.3,24.83-1.07,1.25-2.08,2.58-3.15,3.85-1.48,1.73-3.4,1.89-4.97.23-3.22-3.31-6.34-6.75-9.46-10.17-1.12-1.07-1.14-2.85-.05-3.97.07-.07.16-.16.25-.23,1.25-1.14,2.6-1.19,3.97.16,2.1,2.1,4.08,4.31,6.09,6.5.39.43.21.25.73.96l.52.68Z"/>
</svg>