<?xml version="1.0" encoding="UTF-8"?>
<svg id="Layer_1" xmlns="http://www.w3.org/2000/svg" version="1.1" viewBox="0 0 407 324.72">
  <!-- Generator: Adobe Illustrator 30.1.0, SVG Export Plug-In . SVG Version: 2.1.1 Build 136)  -->
  <defs>
    <style>
      .st0 {
        stroke-linecap: round;
        stroke-linejoin: round;
      }

      .st0, .st1 {
        fill: none;
        stroke: #000;
        stroke-width: 15px;
      }

      .st1 {
        stroke-miterlimit: 10;
      }
    </style>
  </defs>
  <g id="Layer_2">
    <g id="Layer_1-2">
      <path class="st0" d="M220.77,43.54c22.21,98.7-4.71,188.82-60.21,201.31S42.12,187.4,19.92,88.73c-1.88-8.46-3.43-16.84-4.64-25.15-1.12-7.8,5.12-14.02,12-11.94,27.06,8.19,58.39,9.57,90.34,2.38s59.68-21.86,80.62-40.85c5.31-4.83,13.63-1.88,15.95,5.65,2.48,8.01,4.67,16.24,6.58,24.71h0Z"/>
      <path class="st1" d="M162.52,208.9c23.82-8.3,22.93-25.19,25.18-38.77.42-2.53-1.29-4.93-3.82-5.35-1.29-.21-2.61.12-3.63.93-9.98,7.77-21.64,13.08-34.04,15.53-12.23,3.1-25.03,3.28-37.34.52-2.51-.56-5,1.01-5.56,3.52-.29,1.27-.03,2.61.72,3.68,7.85,11.3,23.69,27.08,48.63,21.46l.3-.04,9.56-1.48Z"/>
      <path class="st1" d="M156.88,105.51v-.08c-2.61-11.22,5.48-22.56,18.01-25.39h0c12.51-2.83,24.7,4.01,27.23,15.24v.08"/>
      <path class="st1" d="M98.56,120.77"/>
      <path class="st1" d="M58.06,127.75v-.08c-2.56-11.22,5.53-22.61,18.04-25.43h0c12.52-2.83,24.7,4.01,27.23,15.25v.08"/>
      <path class="st0" d="M227.23,83.98c18.38,17.01,40.07,30.05,63.72,38.3,30.85,10.95,62.16,13.33,89.98,8.42,7.07-1.25,12.53,5.65,10.49,13.29-2.17,8.09-4.71,16.23-7.61,24.41-33.87,95.34-104.7,157.22-158.27,138.2-25.18-8.94-42.07-33.55-49.38-67.67"/>
      <path class="st1" d="M252.24,230.99c-22.13-7.85-38.01,3.96-46.2,12.84-2.53,2.75-.14,7.13,3.71,6.83,11.54-.9,23.14.8,33.95,4.95,10.98,3.56,21.01,9.54,29.37,17.5,2.83,2.67,7.43.78,7.19-2.95-.77-12.06-5.65-31.24-27.77-39.09l-.24-.08h0Z"/>
      <path class="st1" d="M250.37,153.28v.08c-3.85,10.85-16.77,16.18-28.87,11.89"/>
      <path class="st1" d="M321.36,225.65s-17.02,17.59-10.25,23.91,12.46-9.18,10.25-23.91Z"/>
    </g>
  </g>
  <path class="st1" d="M335.82,180.53l-.04.07c-3.84,10.86-16.77,16.06-28.85,11.69h0c-12.06-4.35-18.65-16.68-14.73-27.51l.04-.07"/>
</svg>