<?xml version="1.0" encoding="UTF-8"?>
<svg id="_Слой_1" xmlns="http://www.w3.org/2000/svg" version="1.1" viewBox="0 0 500 500">
  <!-- Generator: Adobe Illustrator 30.1.0, SVG Export Plug-In . SVG Version: 2.1.1 Build 136)  -->
  <defs>
    <style>
      .st0 {
        stroke: #000;
        stroke-miterlimit: 10;
        stroke-width: 6px;
      }
    </style>
  </defs>
  <path class="st0" d="M78.9,245.29V75.1c0-17.25,12.74-30.22,30.06-30.29,16.54-.06,33.09,0,49.64,0,54.36,0,108.73-.02,163.1-.07,9.82,0,18,2.83,25.05,9.93,17.94,18.16,36.26,35.93,54.11,54.18,7.23,7.22,11.2,17.08,11,27.3-.11,92.34-.11,184.67,0,277,0,7.05-1.12,13.81-5.21,19.77-6.25,9.08-14.79,14.08-25.87,14.08-17,.09-34,0-51.06,0H111.31c-3.14.14-6.29-.1-9.38-.72-13.61-3.49-23.1-15.81-23-29.86v-171.13h-.03ZM325.19,57.29H109.84c-3.64-.1-7.23.82-10.37,2.66-6.24,3.76-8,9.57-8,16.5.06,112.18.06,224.36,0,336.55,0,1.1-.07,2.21,0,3.3.46,5,1.74,9.55,5.51,13.19,3.87,3.78,9.12,5.81,14.52,5.61,86-.04,172.03-.04,258.09,0,3,0,6,.07,9,0,11.37-.34,18.67-6.67,20.41-17.71.19-1.56.26-3.14.2-4.71V137.58c0-2-.15-4-.26-6.42h-5.54c-15.13,0-30.26.08-45.38,0-3.14,0-6.26-.42-9.29-1.25-11.14-3.23-18-13.48-16.76-24.29.76-6.72,1.26-13.47,1.69-20.21.59-9.17,1-18.28,1.53-28.11h0ZM392.06,118.72c-8.32-10.53-50.5-52.54-54.33-54.2-1.06,13.9-2.18,27.85-3.18,41.81-.47,6.7,3.68,11.45,10.44,12.18,1.73.16,3.46.22,5.19.2,13.95.03,27.91.03,41.88.02h0Z"/>
  <path class="st0" d="M163.82,370.02c8.1-7.93,16.11-15.71,24.05-23.55,8.19-8.08,16.32-16.22,24.48-24.34.54-.57,1.12-1.11,1.73-1.6,2.88-2.13,6.25-1.92,8.56.48,2.31,2.4,2.45,5.73-.12,8.48-4.09,4.37-8.41,8.51-12.65,12.73-12.06,12-24.13,24-36.2,36-1.62,1.72-3.35,3.34-5.16,4.85-2.92,2.31-7,2.35-9.53-.09-8.18-8.09-16.28-16.25-24.3-24.5-2.35-2.07-2.58-5.66-.5-8.02.13-.14.26-.28.4-.41,2.29-2.39,6.05-2.57,8.55-.41.84.71,1.63,1.48,2.38,2.29l15.05,15c.99,1.01,2.04,1.94,3.26,3.09h0Z"/>
  <path class="st0" d="M295.47,351.94h-54.79c-2.9,0-5.28-.52-6.68-3.35-1.51-2.86-.41-6.41,2.45-7.92.47-.25.97-.43,1.49-.54,1.25-.18,2.51-.24,3.77-.16h107.69c1.1-.05,2.2-.02,3.3.07,3.1.39,5.39,3.08,5.3,6.2-.17,2.94-2.46,5.33-5.39,5.62-1.1.08-2.2.09-3.3.05h-53.84v.03h0Z"/>
  <path class="st0" d="M255.22,391.19h-13.69c-1.1.06-2.2.02-3.29-.12-2.89-.54-4.99-3.06-5-6,.13-2.6,2.28-5.41,5-5.46,11.17-.18,22.34-.18,33.51,0,2.85.06,5,3.24,5,6-.09,3.08-2.42,5.38-5.9,5.45-5.19.12-10.39,0-15.58,0l-.05.13h0Z"/>
  <path class="st0" d="M168.44,220.1c8.1-7.93,16.11-15.71,24.05-23.55,8.19-8.08,16.32-16.22,24.48-24.34.54-.57,1.12-1.11,1.73-1.6,2.88-2.13,6.25-1.92,8.56.48s2.45,5.73-.12,8.48c-4.09,4.37-8.41,8.51-12.65,12.73-12.06,12-24.13,24-36.2,36-1.62,1.72-3.35,3.34-5.16,4.85-2.92,2.31-7,2.35-9.53-.09-8.18-8.09-16.28-16.25-24.3-24.5-2.35-2.07-2.58-5.66-.5-8.02.13-.14.26-.28.4-.41,2.29-2.39,6.05-2.57,8.55-.41.84.71,1.63,1.48,2.38,2.29l15.05,15c.99,1.01,2.04,1.94,3.26,3.09h0Z"/>
  <path class="st0" d="M300.09,202.01h-54.79c-2.9,0-5.28-.52-6.68-3.35-1.51-2.86-.41-6.41,2.45-7.92.47-.25.97-.43,1.49-.54,1.25-.18,2.51-.24,3.77-.16h107.69c1.1-.05,2.2-.02,3.3.07,3.1.39,5.39,3.08,5.3,6.2-.17,2.94-2.46,5.33-5.39,5.62-1.1.08-2.2.09-3.3.05h-53.84v.03h0Z"/>
  <path class="st0" d="M259.84,241.27h-13.69c-1.1.06-2.2.02-3.29-.12-2.89-.54-4.99-3.06-5-6,.13-2.6,2.28-5.41,5-5.46,11.17-.18,22.34-.18,33.51,0,2.85.06,5,3.24,5,6-.09,3.08-2.42,5.38-5.9,5.45-5.19.12-10.39,0-15.58,0l-.05.13h0Z"/>
</svg>