<?xml version="1.0" encoding="UTF-8"?>
<svg id="Layer_1" data-name="Layer 1" xmlns="http://www.w3.org/2000/svg" viewBox="0 0 1199.14 1448.89">
  <path d="M713.78,1434.13l-272.51-249.56-244.7,165.33c-29.44,19.89-64.48,21.79-89.88-4.99-20.74-28.14-11.2-62.47,17.31-81.55l232.26-155.35-254.14-233.74c-26.83-6.63-78.21-2.18-85.26-33.3-4.45-19.66-3.86-39.94-.57-59.68,4.75-28.59,34.63-28.32,55.78-42.37l-2.07-131.28c-13.21-4.72-25.66-4.59-38.73-7.33-21.42-4.5-34.35-21.69-30.63-44.22,3.18-17.58,16.39-30.73,34.27-38.1,112.89-46.45,227.5-84.21,346.07-121.75l14.68-343.69c.72-16.9,8.02-31.59,17.19-39.82,13.57-12.18,30.52-14.28,47.7-11.76,26.22,3.86,42.1,22.59,44.8,49.44l585.62,37.44c3.12-32.29,25.17-48.52,53.67-48.28,32.37.27,57.96,24.31,54.1,59.91l-59.34,549.5c34.03,13.3,26.62,73.92,16.24,99.06l-297.23,210.31,225.4,201.06c20.73,18.49,19.9,50.85,5.24,70.17-16.11,21.21-49.98,28.93-71.79,10.65l-74.32-62.32-197.94,136.8c23.94,28.77,62.71,44.98,61.95,81.81-.33,16.48-6.48,31.83-21.81,42.94-20.83,12.66-50.04,14.26-71.37-5.28ZM455.2,408l18.04-346.48c.84-16.09-4.35-27.88-18.64-29.11-13.57-1.17-27.19,2.73-27.84,19.29l-13.45,345.4,41.89,10.9ZM1086.31,442.86c20.16,3,29.11,6.1,43.47,10.78l37.78-354.58c1.58-14.79-5.58-25.65-18.45-27.66-9.49-1.48-22.29.63-25.68,13.39-5.97,22.5-8.22,44.71-10.41,68.37l-26.71,289.69ZM1062.49,393.75l27.6-274.24-589.46-36.73-14.52,263.36,576.38,47.61ZM713.29,650.05c-13.44-10.89-15.72-27.57-12.01-41.61,3.46-13.12,12.3-23.92,27-30.09l313.61-131.52c6.12-2.56,12.9-2.85,13.36-7.93.29-3.13,2.31-13.71-2.25-14.1l-564.54-46.57-14.68,210.18c14.38,8.64,27.94,17.59,29.82,37.2,86.55,19.96,172.54,36.3,261.73,42.42-15-17.14-36-5-52.03-17.97ZM122.66,568.45l301.46-127.98c4.74-2.01,8.01-4.62,9.24-10.36-10.9-.88-23.8-9.63-36.64-5.76-116.07,34.92-228.79,74.16-341.33,118.33-11.83,4.65-22.45,10.63-24.09,23.47,30.64,7.8,60.61,15.36,91.36,2.29ZM440.91,600.94l10.39-139.81c-16.59,5.83-27.96,11.19-40.98,18.69.76,42.21-4.38,81.42.03,123.04,1.03,9.82,29.7,9.61,30.55-1.92ZM817.05,629.35c103.17-44.05,198.18-94.8,294.65-151.54-14.35-7.29-31.65-12.57-45.57-6.78l-313.91,130.42c-10.77,4.47-21.58,8.52-20.44,22.98,25.65.55,57.57,16.74,85.27,4.92ZM164.13,697.21l211.9-95.35,1.53-106.99-217.53,92.14,4.1,110.2ZM1074.52,658.36c.69,12.39,29.89,12.06,31.32.06l18.27-153.78-43.14,26.62c-.6,42.69-8.92,82.56-6.45,127.09ZM1002.76,671.7c14.82-2,24.73-15.57,38.01-18.94l6.87-101.52-192.7,96.76c-6,3.24-4.45,20.19.35,25.05,47.11.76,98.61,5.22,147.48-1.35ZM131.66,740.79c1.76-48.93-.4-93.79-1.73-141.76-12.07,1.26-19.26,3.91-28.36,7.99l2.08,132.36c.11,7.12,9.06,9.32,13.32,9.61,3.94.3,14.41-.57,14.68-8.2ZM438.52,634.66c-16.47,1.58-32.2-.28-50.01-5.85l-224.76,102.72c-7.27,5.34-4.5,18.7-9.73,26.23-27.55,39.63-71.89-2.74-83.11,17.04,18.31,6.1,32.77,9.78,51.1,11.32l316.79-147.16c8.58-3.99,19.51-4.23,25.68-14.58-10.57.3-16.45,7.2-25.96,10.27ZM764.76,811.69l-1.23-112.54c-79.17-7.62-155.53-14.79-230.8-34.92l-57.76-15.45-326.09,153.84c36.79,14.76,69,24.19,105.4,32.37,149.16,33.43,299.84,48.58,453.44,42.49-2.46-46.18,29.34-46.15,57.04-65.79ZM824.13,798.94l-1.56-137.58c-8.98-.03-17.01.15-28.21,3.34l1.33,147.13c.08,8.23,13.29,9.49,18.42,8.44,7.83-1.62,10.14-10.56,10.02-21.34ZM899.94,802.51l186.49-107.01c-12.75-2.72-23.34-7.52-35.73-14.91l-199.24,111.07c-.12,16.5-3.07,28.18-7.23,41.47,21-8.07,36.07-19.36,55.71-30.63ZM826.59,905.77l298.13-174.84c9.76-5.73,7.8-23.58,5.97-32.44l-186.22,107.68-118.93,67.92c-2.25,10.53-6.48,20.92,1.05,31.68ZM953.39,705.18l-100.72-.87c-1.23,19.5-1.55,36.37.46,56.61l100.26-55.74ZM102.81,842.23c1.55-11.55,3.86-25.18-1.21-31.57-16.3-7.74-33.72-8.58-53.26-13.75-4.69,12.1-4.71,25.41.66,37.27,18.69,4.1,34.98,6.96,53.82,8.05ZM827.43,845.18c-36.52,6.16-52.05-19.75-68.74,1.62,29.92,5.82,46.21,14.37,68.74-1.62ZM420.97,1063.23l-228.25-209.85c-18.87-17.14-35.19-2.89-57.25,8.89l248.14,227.52c14.25-9.19,29.07-13.69,37.36-26.56ZM640.36,917.89c-4.44-7.92-9.02-7.69-14.62-8.49-125.43-.18-246.22-15.06-372.59-42.79l196.09,179.7,191.13-128.41ZM797.07,914.26c1-14.22,1.02-23.89-1.09-35.04-20.83-3.91-39.67-7.23-61.12-8.85-1.48,12.16-1.97,23.98,2.46,35.59,20.23,5.44,39.36,7.86,59.76,8.29ZM177.24,1324.47l572.16-386.39c-21.07-6.46-34.06-11.23-43.42-26.23l-567.09,379.37c-11.7,7.81-16.54,23.55-7.77,33.03,12.72,13.72,29.5,11.44,46.12.23ZM533.47,1120.94c2.32,6.34,12.75,18.03,19.3,13.41l281.21-198.27-38.8,8.43-261.71,176.43ZM970.32,1155.95c16.57,23.58,43.32,39.84,63.25,56.95,10.05,8.64,25.44,3.84,31.08-4.33,5.97-8.65,4.38-20.74-4.74-28.89l-227.94-203.46c-14.16,7.29-25.27,15.46-36.6,26.73l108.48,97.42c20.22-14.7,40.72-9.52,56.19,1.18,18.96,13.18,7.98,37.09,10.28,54.39ZM673.87,1250.77l200.53-134.65-106.96-94.71-195.16,136.92,101.59,92.44ZM721.19,1292.98l217.89-149.67c7.12-4.9,8.01-13.54,5.46-18.81-2.44-5.08-11.73-11.07-19.03-6.18l-227.43,152.25c6.54,10.41,12.48,17.2,23.11,22.41ZM753.8,1416.93c12.51-.03,18.73-6.63,21.09-15.76,1.35-5.25.12-14.1-6.46-20.13l-262.76-240.61c-15.99,9.12-27.04,15.58-37.45,26.64l262.78,240.69c6.03,5.52,13.12,9.21,22.81,9.18Z"/>
  <path d="M438.82,638.98l-.3-4.31c9.51-3.07,15.37-9.99,25.98-10.26-6.16,10.33-17.1,10.57-25.68,14.56Z"/>
  <circle cx="441.03" cy="1118.48" r="14.8"/>
</svg>