<?xml version="1.0" encoding="UTF-8"?>
<svg id="Layer_1" xmlns="http://www.w3.org/2000/svg" version="1.1" viewBox="0 0 491.52 491.52">
  <!-- Generator: Adobe Illustrator 30.1.0, SVG Export Plug-In . SVG Version: 2.1.1 Build 136)  -->
  <defs>
    <style>
      .st0 {
        fill-rule: evenodd;
      }
    </style>
  </defs>
  <g id="Layer_x5F_1">
    <g id="_173222496">
      <polygon id="_173221464" points="113.12 279.15 378.4 279.15 378.4 298.7 113.12 298.7 113.12 279.15"/>
      <polygon id="_173221656" points="144.87 71.83 144.87 291.11 133.14 291.11 133.14 71.83 144.87 71.83"/>
      <polygon id="_173219856" points="358.38 71.83 358.38 291.11 346.65 291.11 346.65 71.83 358.38 71.83"/>
      <path id="_173220840" d="M356.75,297.24c3.63-2.33,4.68-7.16,2.35-10.78-2.33-3.63-7.16-4.68-10.78-2.35l-226.87,145.72h28.86l206.43-132.58h.01Z"/>
      <path id="_173222544" d="M362.37,430.08l-216.71-149.19c-3.54-2.45-8.4-1.56-10.84,1.99-2.45,3.54,12.44,17.94,15.99,20.39l184.08,126.82h27.48,0Z"/>
      <path id="_173220624" class="st0" d="M139,61.44c5.74,0,10.39,4.65,10.39,10.39s-4.65,10.39-10.39,10.39-10.39-4.65-10.39-10.39,4.65-10.39,10.39-10.39Z"/>
      <path id="_173221584" class="st0" d="M352.52,61.44c5.74,0,10.39,4.65,10.39,10.39s-4.65,10.39-10.39,10.39-10.39-4.65-10.39-10.39,4.65-10.39,10.39-10.39Z"/>
      <path id="_173223552" class="st0" d="M113.12,274.82c7.79,0,14.11,6.32,14.11,14.11s-6.32,14.11-14.11,14.11-14.11-6.32-14.11-14.11,6.32-14.11,14.11-14.11Z"/>
      <path id="_173219688" class="st0" d="M378.4,274.82c7.79,0,14.11,6.32,14.11,14.11s-6.32,14.11-14.11,14.11-14.11-6.32-14.11-14.11,6.32-14.11,14.11-14.11Z"/>
      <path id="_173220240" class="st0" d="M222.66,143.28l13.17-22.25c3.05-5.23,6.12-11.92,11.26-10.11,2.87,1.01,5.13,3.25,6.48,5.98l13.56,25.97,32.71,4.8c4.25,1.25,5.74,6.51,2.77,9.8l-22.74,24,5.64,33.58c.05,5.67-5.95,9.35-10.98,6.73-9.72-5.08-27.93-14.42-29.86-13.23-32.3,19.9-38.32,12.9-38.32,12.9l4.41-36.62-25.31-29.63,5.06-7.54M352.52,98.21h-213.51v138.75h213.51V98.21Z"/>
    </g>
  </g>
  <path d="M272.38,225.19l-26.9-14.14c-.27-.14-.61-.14-.88,0l-26.9,14.14c-7.59,3.99-16.09-2.69-14.72-10.69l5.14-29.96c.05-.31-.05-.62-.27-.84l-21.77-21.22c-2.78-2.71-3.77-6.7-2.57-10.4,1.2-3.7,4.34-6.34,8.19-6.9l30.08-4.37c.31-.04.57-.24.71-.52l13.45-27.26c1.72-3.49,5.21-5.65,9.1-5.65s7.37,2.17,9.1,5.65l13.45,27.26c.14.28.4.47.71.52l30.08,4.37c3.85.56,6.99,3.2,8.19,6.9,1.2,3.7.22,7.68-2.57,10.4l-21.77,21.22c-.22.22-.32.53-.27.84,0,0,5.13,29.92,5.14,29.96,1.37,8.01-7.14,14.68-14.72,10.69ZM245.04,205.95c.98,0,1.96.22,2.78.65,0,0,26.9,14.14,26.9,14.14,3.59,1.89,8.13-1.25,7.42-5.39l-5.14-29.96c-.46-3.03.31-3.91,1.72-5.28,0,0,21.7-21.15,21.77-21.22,2.99-2.92,1.28-8.13-2.84-8.73l-30.08-4.37c-1.94-.28-3.62-1.5-4.49-3.27l-13.45-27.26c-.88-1.79-2.6-2.85-4.59-2.85s-3.71,1.07-4.59,2.85l-13.45,27.26c-.87,1.76-2.55,2.98-4.5,3.27,0,0-26.96,3.92-30.08,4.37-4.03.59-5.82,5.82-2.84,8.73l21.77,21.22c1.41,1.37,2.05,3.35,1.72,5.28,0,0-5.13,29.89-5.14,29.96-.7,4.09,3.75,7.33,7.42,5.39,0,0,26.79-14.08,26.9-14.14.82-.43,1.8-.65,2.78-.65Z"/>
</svg>