<?xml version="1.0" encoding="UTF-8"?>
<svg id="_Слой_1" data-name="Слой_1" xmlns="http://www.w3.org/2000/svg" version="1.1" viewBox="0 0 500 500">
  <!-- Generator: Adobe Illustrator 30.1.0, SVG Export Plug-In . SVG Version: 2.1.1 Build 136)  -->
  <defs>
    <style>
      .st0 {
        stroke: #000;
        stroke-miterlimit: 10;
        stroke-width: 7px;
      }
    </style>
  </defs>
  <path class="st0" d="M423.17,179.4c0,20.88.45,41.77-.14,62.63-.52,16.61-3.51,33.04-8.87,48.77-4.44,12.85-10.28,25.18-17.42,36.75-7.27,11.81-15.49,23.02-24.58,33.5-16.4,19.06-34.53,36.56-54.16,52.27-19,15.41-39.05,29.48-60,42.1-5.59,3.36-10.86,3.18-16.26-.11-18.61-11.41-36.55-23.87-53.74-37.31-15.41-11.96-29.98-24.97-43.59-38.94-18.86-19.36-35.69-40.29-48.29-64.35-8.36-15.95-14.06-33.15-16.87-50.93-1.83-11.94-2.7-24.02-2.59-36.1.06-37.23.06-74.45,0-111.68v-1.65c.14-7.92,4.32-12.34,12.3-13.17,4.5-.46,9-1.07,13.48-1.63,12.81-1.6,25.36-4.48,37.88-7.58,20.4-5.03,40.17-12.38,58.9-21.9,14.37-7.2,27.97-15.85,40.57-25.83,3-2.42,6.12-4.6,10.35-4.38,2.75.08,5.41.96,7.65,2.55,8.53,6,17,12.17,25.78,17.72,24.37,15.26,51.14,26.29,79.19,32.62,12,2.78,24.15,4.92,36.28,7.16,3.89.72,7.91.8,11.87,1.21,6.14.63,10.93,4.3,12.11,9.51.32,1.75.45,3.54.38,5.32v63.46h-.23ZM413.7,182.35h.09v-66.34c-.06-3.56-1.1-4.43-4.56-4.94-11.39-1.68-22.86-3-34.13-5.33-20.73-4.14-40.99-10.35-60.48-18.52-12.95-5.38-25.4-11.89-37.22-19.44-7.94-5.15-15.6-10.72-23.4-16.09-3.53-2.42-4.61-2.4-8.1.12-4.45,3.21-8.81,6.56-13.33,9.67-17.08,11.8-35.5,21.53-54.87,29-27.89,10.48-57.01,17.38-86.64,20.52-4.16.46-4.9,1.16-4.87,5.4.35,41.88-.9,83.76.76,125.63.2,6.85.82,13.68,1.86,20.46,3.52,20.89,11.05,40.91,22.19,58.93,10.13,16.36,21.95,31.61,35.25,45.51,15.66,16.58,32.64,31.86,50.75,45.72,14.92,11.48,30.31,22.28,46.28,32.23,6.51,4.06,7.23,4.09,13.71-.16,7.92-5.19,15.84-10.38,23.64-15.76,23.93-16.36,46.28-34.92,66.75-55.45,17.06-17.24,32.38-35.85,44.39-57,9.19-16.13,15.61-33.68,19-51.93,2.24-12.08,2.62-24.28,2.87-36.47.29-15.27.06-30.52.06-45.76h0Z"/>
  <path class="st0" d="M105.1,189v-56.01c.2-3.78,1.31-4.88,5.12-5.67,14.22-3,28.59-5.4,42.61-9.14,25.95-6.92,50.76-16.85,73.77-30.91,6.44-3.93,12.89-7.86,19.14-12.08,2.94-2,5.45-2.06,8.32-.17,5.73,3.77,11.45,7.56,17.3,11.15,18.55,11.41,38.39,20,59,27.06,18.09,6.02,36.66,10.47,55.51,13.32l4.46.73c3,.5,4.32,1.76,4.51,4.89.18,2.87,0,5.77,0,8.65-.04,6.58-.09,13.16-.14,19.74,0,4.52-.11,9.05-.13,13.57-.07,21.57.07,43.13-.26,64.69-.39,25.52-7.58,49.19-20.49,71.15-7.02,11.65-15,22.69-23.88,33-13.77,16.06-28.92,30.9-45.27,44.33-16,13.42-32.86,25.78-50.47,37-2.86,1.81-5.35,2-8.34.09-16.06-10.58-31.9-21.47-46.57-33.92-10-8.52-20-17.2-29.41-26.4-17.65-17.22-33.65-35.88-45.7-57.54-8.71-15.48-14.49-32.43-17.05-50-1.18-8.57-1.74-17.21-1.69-25.86v-41.67h-.34ZM115,136.11v90.44c-.12,9.18.4,18.35,1.56,27.45,2.24,16.23,7.48,31.91,15.44,46.23,13.19,23.95,31,44.19,50.82,62.82,13.9,13.09,28.64,25.25,44.14,36.39,6.8,4.88,13.76,9.54,20.6,14.36,1.79,1.26,3.2,1.5,5.12,0,3.24-2.51,6.87-4.54,10.16-7,12.28-9.24,24.7-18.3,36.67-27.94,12.8-10.39,24.77-21.76,35.82-34,11.59-12.48,21.84-26.14,30.59-40.75,12.92-22,18.8-45.82,19-71.11.24-31,.09-62.07.1-93.11,0-1.2-.12-2.4-.17-3.39-.39-.26-.49-.39-.61-.4-24.54-3.79-48.61-10.16-71.81-19-21-8-40.52-18.86-59.38-30.94-1.9-1.22-3.29-1.9-5.49-.42-5,3.38-10.21,6.45-15.38,9.57-19.82,11.82-40.93,21.31-62.93,28.28-17.73,5.58-35.87,9.76-54.25,12.52Z"/>
</svg>