<svg id="Слой_1" data-name="Слой 1" xmlns="http://www.w3.org/2000/svg" viewBox="0 0 500 500"><path d="M453.51,136.7c.07-1.28.17-2.29.17-3.3,0-13.58.07-27.16-.08-40.73A29.76,29.76,0,0,0,452.23,84c-3.26-10.2-12.32-16.54-23.61-16.66-9.45-.11-18.89,0-28.34,0-1,0-2.07.08-3.1,0-2.77-.25-4.55-2.08-4.49-4.5a5,5,0,0,1,4.46-4.7,21.28,21.28,0,0,1,2.65,0c9.74,0,19.48,0,29.23,0,19.33.05,34,14.58,34,33.87q0,101.84,0,203.68a24.08,24.08,0,0,1-.19,4.42,4.42,4.42,0,0,1-5.1,3.8c-2.47-.28-3.71-1.65-3.88-4.5-.1-1.77-.06-3.54-.06-5.31q0-70.85-.08-141.69v-4.72c-3.68-1-387.22-1.36-395-.43,0,5.93,0,11.92,0,17.92,0,3.68-.19,7.36-.16,11,0,8,.27,15.93.28,23.89,0,5.75-.3,11.5-.29,17.26q.15,94.74.35,189.49A33.17,33.17,0,0,0,65.42,427c6.16,8.26,14.6,12,24.87,12q83.69,0,167.37,0,14.18,0,28.34,0a14.26,14.26,0,0,1,3.93.36,4.54,4.54,0,0,1,3.22,4.75,4.49,4.49,0,0,1-4,4,21.19,21.19,0,0,1-3.09.08q-98.3,0-196.6,0c-8,0-15.44-1.71-22.17-6.32C57.57,435.29,52,426.14,50,414.71a61.1,61.1,0,0,1-.77-10.12q0-155.41-.06-310.83a36.78,36.78,0,0,1,4.46-18.24c5.91-10.65,15.12-16.6,27.07-17.33,10.88-.67,21.83-.2,32.76-.15,3.33,0,5.16,1.87,5.1,4.75s-1.78,4.45-5.36,4.47c-9.74.06-19.48-.14-29.22.07-11.25.24-20.91,6.56-24.12,17.35a24.79,24.79,0,0,0-1,6.51q-.33,15.7-.38,31.42c0,4.56.34,9.12.53,13.6C62.59,137.27,444.21,137.73,453.51,136.7Z"/><path d="M468.36,373.94c.46,51.77-41.22,89.91-88.08,91.42C328,467,285.87,426.05,285.73,374.52c-.13-52.11,41.59-90.42,89.75-91.32C426.63,282.25,469.11,324.26,468.36,373.94Zm-91.84-81.08c-43.95-.1-81.45,36.95-81.24,81.5.21,46.07,38.75,81.25,80.46,81.49,45.43.27,83.31-35.17,83.27-81.76C459,328.29,420.79,292.42,376.52,292.86Z"/><path d="M343.85,68.43c0-8.11.07-16.23,0-24.34-.11-9.87,4.82-16.78,13.35-20.62,14.39-6.5,31.24,3.79,31.51,19,.28,16.22.5,32.44.47,48.67,0,12.88-8.39,22.46-21.07,23.64S344,105.43,343.9,93.65c-.09-8.4,0-16.81,0-25.22Zm9.32-.44h0c0,8-.09,15.93,0,23.89.11,6.72,5.26,12.46,11.49,13.13a13.12,13.12,0,0,0,14.73-12.92q.19-24.11,0-48.22c-.05-5.74-3.31-9.72-8.38-12-8.19-3.66-17.64,2.59-17.83,11.77C353,51.77,353.17,59.88,353.17,68Z"/><path d="M123.41,68.43c0-8,.14-15.94,0-23.9-.27-12.87,10.69-25.89,28.2-22.33,9.07,1.85,16.44,11.11,16.58,20.53.17,12.1.05,24.2.1,36.3q0,6,.34,11.93c.6,12.35-9.69,23.75-22.32,23.8-14.57,0-23-11.14-22.9-22,.08-8.11,0-16.23,0-24.34Zm35.51,0h0c0-8,.06-15.92,0-23.88-.05-5.6-3.79-11-8.67-12.73-8.47-3.07-17.26,3-17.42,12.52-.25,15.77-.19,31.54,0,47.31a12.88,12.88,0,0,0,8.38,12.44c8.57,3.54,17.51-2.39,17.76-11.79C159.09,84.36,158.92,76.39,158.92,68.44Z"/><path d="M225,248.62c-5.3,0-10.6,0-15.91,0-9.19-.08-15.36-6-15.48-15.12-.14-10.61-.1-21.22,0-31.82.11-8.71,6-14.83,14.7-15,11.34-.2,22.69-.16,34,0a14.08,14.08,0,0,1,14.18,13.58c.26,11.63.28,23.28,0,34.91-.19,7.56-6.6,13.28-14.3,13.51-2.94.09-5.89,0-8.84.06H225Zm.19-9.62h0c4.87,0,9.74,0,14.61,0,6,0,7.61-1.69,7.62-7.62,0-8.27-.22-16.54,0-24.8.25-9.76-2.58-10.69-10.9-10.68-9,0-18,.17-27,.36-4.82.09-6.2,1.61-6.22,6.54q-.07,14.61-.1,29.22c0,5,1.85,6.93,6.92,7S220.18,239,225.2,239Z"/><path d="M311.85,248.62c-5.3,0-10.61,0-15.91,0-9.51-.11-15.68-6.37-15.69-15.88,0-10.31,0-20.63,0-30.94,0-8.91,6-15.08,14.86-15.17q16.8-.18,33.6,0A14.78,14.78,0,0,1,343.32,201c.23,11.19.22,22.4,0,33.6a14.64,14.64,0,0,1-14.7,14.13c-5.6,0-11.2,0-16.8,0Zm-.18-9.6V239c5,0,10,0,15.05,0,5.44-.06,7.35-2,7.38-7.55q.07-13.72,0-27.45c0-5.4-2-7.54-7.38-7.71-7.07-.21-14.15-.33-21.23-.4-3.24,0-6.49,0-9.73.21-4.42.25-6,2.15-5.82,6.48.09,1.76.15,3.54.14,5.3,0,7.83-.11,15.65-.12,23.47,0,6,1.69,7.71,7.54,7.71Z"/><path d="M106.7,217.2c0-5.16,0-10.32,0-15.48.07-8.69,6-14.95,14.6-15.07q17-.26,34.07,0c8.7.15,14.48,6.34,14.51,15.09q0,15.93,0,31.86c0,8.34-6,14.73-14.31,14.91q-17,.39-34.06,0c-8.78-.18-14.79-6.69-14.83-15.44,0-5.31,0-10.62,0-15.93ZM138.46,239V239c5,0,10,0,15,0s6.93-1.71,7.05-6.8c.09-3.83,0-7.66,0-11.49,0-5.74.08-11.49,0-17.23-.07-5.57-2.29-7.64-7.91-7.6-.59,0-1.18,0-1.77.06-3.38,0-6.76,0-10.14,0-6,0-12.07-.14-18.11-.05-4.14.07-6.43,2.09-6.52,5.69-.12,4.4,0,8.81,0,13.22,0,5.59.25,11.19.12,16.78-.13,5.41,1.42,7.31,6.76,7.36C128.15,239,133.3,239,138.46,239Z"/><path d="M225.1,273.23c5.74,0,11.49-.06,17.24,0,8.41.11,14.2,5.79,14.28,14.17.1,10.91.06,21.82,0,32.72,0,7.3-5.46,14.87-14.89,14.67-10.75-.22-21.51,0-32.27,0-9.28,0-15.52-5.63-15.75-14.84-.29-10.89-.24-21.81,0-32.71.23-8.62,6.24-14,15-14H225.1ZM225,282.5v0c-5,0-10,0-15,0s-6.63,1.65-6.65,6.62q-.06,14.6,0,29.19c0,4.89,2.39,7.22,7.4,7.25q14.82.09,29.63,0c4.82,0,7-2.16,7-7q.09-14.37,0-28.75c0-5.24-2.06-7.18-7.27-7.23C235.06,282.46,230.05,282.5,225,282.5Z"/><path d="M138.16,273.23c5.6,0,11.21-.06,16.81,0,9.18.11,14.86,5.83,14.89,15q.06,15.7,0,31.4c0,8.82-6.15,15-15,15.1q-16.37.15-32.73,0c-9-.05-15.38-6.35-15.47-15.29q-.15-15.92,0-31.84c.1-8.4,6.23-14.35,14.65-14.42,5.6,0,11.2,0,16.8,0Zm.17,9.22c-4.71,0-9.45.28-14.13-.07-5.7-.43-8.58,2.65-8.17,9,.55,8.5.35,17.07.15,25.6-.14,6,1.88,8.51,7.79,8.54q14.58.08,29.16,0c5.13,0,7.35-2.07,7.39-7.11.09-9.57.08-19.14,0-28.71,0-5.25-2-7.23-7.2-7.28C148.34,282.42,143.33,282.45,138.33,282.45Z"/><path d="M255.7,67.29H179.59c-.73,0-1.47,0-2.21,0-2.86-.23-4.43-1.82-4.44-4.44a4.63,4.63,0,0,1,4.28-4.76,21.24,21.24,0,0,1,2.65,0l150.89,0a29.84,29.84,0,0,1,3.54.06,5.09,5.09,0,0,1,4.54,5.1c-.17,2.41-2,4-4.81,4.16-.74,0-1.48,0-2.22,0H255.7Z"/><path d="M376.69,444.66c-35.38.2-70.45-28.88-70.28-71.11a69.88,69.88,0,0,1,69.28-69.72c41.52-.48,71.79,32,72.33,69.49C448.57,411.09,418,444.6,376.69,444.66Zm.11-133c-33.91.19-62.69,27-62.71,62.28a62.88,62.88,0,0,0,63,63.05c34.69-.33,63.37-26.65,63.13-63.32C440,337.48,411.13,311.87,376.8,311.64Z"/><path d="M373.1,337.39c0-1.93-.1-3.68,0-5.41.18-2.51,1.72-4.24,3.62-4.32s3.8,1.77,4,4.44c.12,1.73,0,3.48,0,4.69,4.62,1.67,8.84,2.9,12.78,4.73a23.47,23.47,0,0,1,6.31,4.72c2.15,2.13,2.09,4.56.33,6.27s-4,1.68-6.26-.36a18.72,18.72,0,0,0-11.76-5.21c-1.18,3.33-1.41,14.52-.57,21.81,4.21,1.54,8.38,2.86,12.39,4.57a18.57,18.57,0,0,1,8.76,7.84c4.45,7.58,2.8,16.37-4.16,22.24-4.3,3.62-9.39,5.41-14.82,6.43-.85.16-1.71.25-3,.44,0,2.29.08,4.47,0,6.65-.13,2.79-1.65,4.53-3.79,4.56a4.74,4.74,0,0,1-4.33-4.28c-.14-1.16,0-2.35,0-3.53,0-1-.1-2-.16-3.15-3.6-1-7.14-2-10.6-3.12a24.38,24.38,0,0,1-11.53-7.87c-1-1.27-1.91-2.62-1.27-4.44a4.34,4.34,0,0,1,7.45-1.62c4.14,4.65,9.32,7,15.83,8.14.79-4.24.26-8.45.35-12.6s0-8.21,0-12.41c-2.65-.72-5.22-1.3-7.72-2.11A21.09,21.09,0,0,1,354,366.64a16,16,0,0,1,.29-19c3.44-4.52,8.13-7.17,13.44-8.84C369.25,338.33,370.83,338,373.1,337.39Zm8.33,64.18a21.22,21.22,0,0,0,11-4,9.28,9.28,0,0,0-.44-15.4,22.82,22.82,0,0,0-10.59-3.9Zm-8.69-54.45c-4.54.09-7.34,1.06-9.8,3.17-4.06,3.46-5.36,11.06,1.1,14.43a89.06,89.06,0,0,0,8.7,3.47Z"/></svg>