<?xml version="1.0" encoding="UTF-8"?>
<svg id="_Слой_1" data-name="Слой_1" xmlns="http://www.w3.org/2000/svg" version="1.1" viewBox="0 0 500 500">
  <!-- Generator: Adobe Illustrator 30.1.0, SVG Export Plug-In . SVG Version: 2.1.1 Build 136)  -->
  <defs>
    <style>
      .st0 {
        stroke: #000;
        stroke-miterlimit: 10;
        stroke-width: 13px;
      }
    </style>
  </defs>
  <path class="st0" d="M72.83,251.66c-3.61,3.02-7.94,5.05-12.56,5.92-14.25,2.57-27.88-6.9-30.45-21.14-.23-1.27-.36-2.56-.4-3.86-.25-9.17,3.55-16.21,10.48-21.87,15.03-12.27,30.03-24.56,45-36.87,16.28-13.33,32.55-26.7,48.8-40.1,13.57-11.2,27-22.5,40.63-33.7,15.66-12.92,31.35-25.8,47.06-38.65,3.84-3.15,7.67-6.3,11.53-9.41,10-8.31,24.54-8.18,34.39.32,16.46,13.84,33.13,27.44,49.7,41.14,1.71,1.42,3.38,2.9,5.61,4.82.12-1.71.27-2.82.27-3.92v-24.38c0-9.44,5.06-14.41,14.57-14.42h41.07c5.3,0,9.39,2,11.89,6.7.95,1.7,1.49,3.6,1.58,5.55.16,8.87,0,17.74.11,26.6.08,10.68.28,21.36.36,32,.07,8.58.13,17.16,0,25.73-.13,2.11.83,4.13,2.53,5.38,17.69,14.48,35.35,29,53,43.56,3.84,3.15,7.76,6.2,11.54,9.41,8.72,7.41,12.94,16.61,10,28.05-2.54,9.87-9.18,16-19,18.53-8.36,2.12-16.09.58-23.38-5.23v4.45c0,54-.09,108,.1,162.05.05,13.55-9.73,25.2-21.42,27.8-2.5.5-5.04.72-7.59.67H112.97c-3.61,0-7.24-.23-10.83.05-18.22,1.4-29.67-15.42-29.52-29.37.53-48.59.22-97.2.23-145.8l-.02-20.01ZM302.58,432.84h95.49c8.84,0,14.3-5.12,15-14,.11-1.35,0-2.71,0-4.07v-166.13c0-5.94-1.86-10.42-6.74-14.3-15.78-12.53-31.22-25.49-46.79-38.28l-90.29-74.21c-5.57-4.58-11.1-9.23-16.72-13.76-2.55-2-2.9-2-5.48,0-.48.36-.91.79-1.37,1.18-9.79,8.13-19.6,16.28-29.44,24.45-15.89,13.11-31.8,26.21-47.73,39.28-16.14,13.28-32.28,26.56-48.43,39.84-9.29,7.65-18.52,15.37-27.87,22.95-3.51,2.7-5.51,6.92-5.38,11.35v169.28c0,1.05-.06,2.11,0,3.16.73,8,6.36,13.32,14.32,13.32,30.84,0,61.69-.02,92.54-.06,1.14,0,2.28-.21,3.51-.33.06-1.33.15-2.37.15-3.41v-88.48c0-20.91.07-41.83-.08-62.74,0-4.57,1.88-7.54,5.84-9.18,1.83-.66,3.77-.97,5.71-.9,27.38-.04,54.76-.04,82.15,0,.91,0,1.82-.05,2.71,0,4.68.41,8.4,4.11,8.82,8.79.14,1.64.05,3.31.05,5v143.55l.03,7.7ZM455.83,231.32c.18-4.33-2.58-7.41-5.93-10.17l-42.13-34.69c-12.67-10.41-25.33-20.81-38-31.2-16.37-13.46-32.74-26.93-49.09-40.42-13.12-10.8-26.22-21.62-39.31-32.45-7.65-6.32-15.27-12.67-22.87-19.06-3.48-2.92-7.5-4.14-11.76-2.81-2.51.97-4.82,2.39-6.81,4.21-26.36,21.67-52.69,43.38-79,65.12-25.17,20.77-50.35,41.52-75.52,62.27-12.42,10.22-24.86,20.42-37.32,30.59-3.53,2.9-5.13,6.66-4.18,11.18.79,4.75,4.43,8.53,9.15,9.5,4.68,1.18,8.46-.56,12-3.48,19.45-16.12,38.91-32.21,58.4-48.28,20.76-17.12,41.54-34.22,62.33-51.31,10.33-8.51,20.61-17.08,30.95-25.57,7.79-6.39,15.59-12.76,23.47-19,6.92-5.5,13.17-5.28,20,.38,6,5,12.07,9.94,18.11,14.91,32.51,26.73,65.02,53.47,97.55,80.21,11.72,9.66,23.33,19.44,35,29.11,8.46,6.99,16.97,13.91,25.53,20.78,3.55,3.03,8.58,3.6,12.71,1.43,4.43-2.15,6.89-5.77,6.72-11.25ZM211.66,282.46v149.92c5.94.91,73.46.63,76.55-.27.74-8.06.36-144.63-.44-149.65h-76.11ZM336.86,69.66v4.51c0,10.23.18,20.45-.06,30.67-.09,3.72,1.2,6.08,4,8.33,8.37,6.62,16.52,13.51,24.79,20.26,3.92,3.21,7.92,6.31,12.2,9.71v-73.48h-40.93Z"/>
</svg>