<?xml version="1.0" encoding="UTF-8"?>
<svg id="Page_25" xmlns="http://www.w3.org/2000/svg" version="1.1" viewBox="0 0 436.8 290.64">
  <!-- Generator: Adobe Illustrator 30.1.0, SVG Export Plug-In . SVG Version: 2.1.1 Build 136)  -->
  <defs>
    <style>
      .st0 {
        fill: #231f20;
        fill-rule: evenodd;
        stroke: #231f20;
        stroke-miterlimit: 10;
        stroke-width: 6px;
      }
    </style>
  </defs>
  <g id="Page_251" data-name="Page_25">
    <path class="st0" d="M229.64,60.44c-1.24.47-2.19,1.14-3.14,2-1.71,1.81-2.76,4.28-2.76,6.76s1.05,4.94,2.76,6.76c1.81,1.71,4.28,2.76,6.76,2.76.57,0,1.23-.1,1.9-.19.57-.1,1.14-.29,1.71-.57.57-.19,1.14-.47,1.71-.86.48-.38.95-.76,1.43-1.14.86-.96,1.52-2,2-3.14.47-1.14.76-2.38.76-3.61,0-2.48-1.05-4.95-2.76-6.76-2.66-2.57-6.85-3.52-10.37-2"/>
    <path class="st0" d="M233.26,107.26c-5.25,0-9.52,4.26-9.52,9.52v104.67c0,5.26,4.26,9.52,9.52,9.52s9.52-4.25,9.52-9.52v-104.67c0-5.25-4.26-9.51-9.52-9.51"/>
    <path class="st0" d="M233.26,12.1c-73.46,0-133.22,59.75-133.22,133.22s59.76,133.22,133.22,133.22,133.22-59.76,133.22-133.22S306.72,12.1,233.26,12.1M233.26,259.5c-62.96,0-114.19-51.22-114.19-114.18S170.29,31.13,233.26,31.13c62.96,0,114.18,51.22,114.18,114.19,0,62.96-51.22,114.18-114.18,114.18Z"/>
  </g>
</svg>