<?xml version="1.0" encoding="UTF-8"?>
<svg id="Layer_1" xmlns="http://www.w3.org/2000/svg" version="1.1" viewBox="0 0 580 386">
  <!-- Generator: Adobe Illustrator 30.1.0, SVG Export Plug-In . SVG Version: 2.1.1 Build 136)  -->
  <defs>
    <style>
      .st0 {
        fill: #231f20;
      }

      .st0, .st1 {
        stroke: #000;
        stroke-miterlimit: 10;
        stroke-width: 6px;
      }
    </style>
  </defs>
  <path class="st1" d="M424.67,19.6l5.19-1.56c9.18-2.76,18.88,2.46,21.63,11.65l69.04,230.06c2.76,9.18-2.46,18.88-11.65,21.63l-18.2,5.46c-9.18,2.76-18.88-2.46-21.63-11.65l-65.14-217.04c-4.91-16.37,4.39-33.64,20.75-38.55Z"/>
  <path class="st0" d="M502.74,288.42l-3.04.91c-15.98,4.8-32.89-4.3-37.68-20.29l-64.49-214.9c-4.8-15.98,4.3-32.89,20.29-37.68l3.04-.91c15.98-4.8,32.89,4.3,37.68,20.29l64.49,214.9c4.8,15.98-4.3,32.89-20.29,37.68ZM420.67,25.99c-10.72,3.22-16.83,14.56-13.61,25.3l64.49,214.9c3.22,10.72,14.56,16.83,25.29,13.61l3.04-.91c10.72-3.22,16.83-14.56,13.61-25.29l-64.49-214.9c-3.22-10.73-14.57-16.84-25.29-13.62,0,0-3.04.91-3.04.91Z"/>
  <path class="st0" d="M466.82,267.73c-.33.1-.69.17-1.05.2l-296.7,23.07c-.19,0-.38.02-.56,0l-33.97,10.2c-2.63.79-5.4-.7-6.19-3.33s.7-5.4,3.33-6.19l35.5-10.66c.89-.27,1.79-.27,2.64-.07l295.17-22.96c2.74-.21,5.13,1.84,5.35,4.57.18,2.38-1.33,4.49-3.53,5.15h0Z"/>
  <path class="st0" d="M146.65,212.61l-35.45,10.64c-2.63.79-5.4-.7-6.19-3.33s.7-5.4,3.33-6.19l33.68-10.11c.19-.15.39-.3.61-.43L401.34,53.56c2.36-1.38,5.42-.57,6.8,1.82,1.38,2.37.57,5.42-1.82,6.8L148.92,211.04c-.58.73-1.35,1.3-2.28,1.58h0Z"/>
  <rect class="st1" x="82.59" y="197.41" width="38.77" height="125.14" rx="12" ry="12" transform="translate(-70.42 40.29) rotate(-16.71)"/>
  <path class="st0" d="M122.49,324.33l-2.2.66c-12.26,3.68-25.22-3.3-28.9-15.56l-25.48-84.91c-3.68-12.26,3.3-25.23,15.56-28.9l2.2-.66c12.26-3.68,25.23,3.3,28.9,15.56l25.48,84.91c3.68,12.26-3.3,25.23-15.56,28.9ZM84.32,205.13c-7.01,2.1-10.99,9.51-8.89,16.52l25.48,84.91c2.1,7.01,9.51,10.99,16.52,8.89l2.2-.66c7.01-2.1,10.99-9.51,8.89-16.52l-25.48-84.91c-2.1-7.01-9.51-10.99-16.52-8.89l-2.2.66h0Z"/>
  <path class="st0" d="M344.05,341.56l-86.09,25.84c-18.68,5.61-38.45-5.03-44.05-23.72l-17.63-58.75c-.79-2.63.7-5.4,3.33-6.19s5.4.7,6.19,3.33l17.63,58.75c4.03,13.43,18.23,21.08,31.67,17.05l86.09-25.84c13.43-4.03,21.08-18.23,17.05-31.67l-8.21-27.35c-.79-2.63.7-5.4,3.33-6.19s5.4.7,6.19,3.33l8.21,27.35c5.61,18.68-5.03,38.45-23.72,44.05Z"/>
</svg>