<?xml version="1.0" encoding="UTF-8"?>
<svg id="Layer_1" xmlns="http://www.w3.org/2000/svg" version="1.1" viewBox="0 0 3000 2000">
  <!-- Generator: Adobe Illustrator 30.1.0, SVG Export Plug-In . SVG Version: 2.1.1 Build 136)  -->
  <defs>
    <style>
      .st0 {
        stroke: #231f20;
        stroke-miterlimit: 10;
        stroke-width: 11px;
      }
    </style>
  </defs>
  <path class="st0" d="M2911.01,1324.73h-1110.45v-589.22c0-25.58-9.64-49.91-27.11-68.52l-87.74-93.54,62.11-57.5c38.97-36.11,41.3-97.22,5.19-136.22l-229.33-247.63c-36.11-39-97.27-41.28-136.24-5.22l-64.51,59.77-52.14-55.59c-18.9-20.07-45.49-31.59-73.02-31.59h-587.92c-255.97,0-464.17,208.23-464.17,464.2v605.1c0,255.97,208.21,464.2,464.17,464.2h2274.06v76.3c0,14.99,12.13,27.11,27.11,27.11s27.11-12.13,27.11-27.11v-357.45c0-14.99-12.13-27.11-27.11-27.11ZM1424.29,166.68c17.05-15.73,43.84-14.75,59.57,2.28l229.33,247.63c15.83,17.08,14.83,43.79-2.22,59.6l-60.42,55.94-286.68-309.53,60.42-55.92ZM199.89,1168.79v-605.1c0-226.05,183.9-409.98,409.95-409.98h587.92c12.6,0,24.83,5.3,33.52,14.51l502.67,535.9c8,8.53,12.39,19.67,12.39,31.4v843.25H609.84c-226.05,0-409.95-183.93-409.95-409.98ZM1800.56,1578.76v-199.81h90.23v80.8c0,14.99,12.13,27.11,27.11,27.11s27.11-12.13,27.11-27.11v-80.8h149.8v104.39c0,14.99,12.13,27.11,27.11,27.11s27.11-12.13,27.11-27.11v-104.39h149.8v80.8c0,14.99,12.13,27.11,27.11,27.11s27.11-12.13,27.11-27.11v-80.8h149.8v104.39c0,14.99,12.13,27.11,27.11,27.11s27.11-12.13,27.11-27.11v-104.39h149.8v80.8c0,14.99,12.13,27.11,27.11,27.11s27.11-12.13,27.11-27.11v-80.8h122.79v199.81h-1083.34Z"/>
  <path class="st0" d="M911.29,434.46c-243.63,0-441.88,198.25-441.88,441.91s198.25,441.88,441.88,441.88,441.88-198.22,441.88-441.88-198.25-441.91-441.88-441.91ZM911.29,1264.02c-213.77,0-387.66-173.89-387.66-387.66s173.89-387.68,387.66-387.68,387.66,173.92,387.66,387.68-173.89,387.66-387.66,387.66Z"/>
  <path class="st0" d="M1526.7,1277.52c-56.76,0-102.94,46.2-102.94,102.96s46.17,102.99,102.94,102.99,102.99-46.2,102.99-102.99-46.23-102.96-102.99-102.96ZM1526.7,1429.26c-26.85,0-48.72-21.87-48.72-48.77s21.87-48.74,48.72-48.74,48.77,21.87,48.77,48.74-21.87,48.77-48.77,48.77Z"/>
</svg>