<?xml version="1.0" encoding="UTF-8"?>
<svg id="Design" xmlns="http://www.w3.org/2000/svg" version="1.1" viewBox="0 0 3284.11 3876.44">
  <!-- Generator: Adobe Illustrator 30.1.0, SVG Export Plug-In . SVG Version: 2.1.1 Build 136)  -->
  <defs>
    <style>
      .st0 {
        stroke-dasharray: 29.63 47.66;
      }

      .st0, .st1 {
        fill: none;
        stroke: #221f1f;
        stroke-linecap: round;
        stroke-linejoin: round;
        stroke-width: 50px;
      }

      .st2 {
        fill: #221f1f;
      }
    </style>
  </defs>
  <g id="Revenue_Streams_-_Cash_Register">
    <g id="Bottom_Parts">
      <rect id="Cash_Drawer" class="st1" x="199.37" y="2859.71" width="2771.52" height="666.78"/>
      <rect id="Cash_Drawer_Line" class="st1" x="337.93" y="2989.89" width="2494.36" height="406.51"/>
      <path id="Circle" class="st1" d="M1682.48,3193.08c0-53.76-43.58-97.35-97.37-97.35s-97.37,43.58-97.37,97.35,43.63,97.4,97.37,97.4,97.37-43.6,97.37-97.4Z"/>
      <line id="Lock_Line" class="st1" x1="1585.11" y1="3159.85" x2="1585.11" y2="3226.34"/>
    </g>
    <g id="Central_Parts">
      <path id="Left_Line" class="st1" d="M592.75,1680.56c-113.67,69.77-215.51,249.87-215.51,578.19v600.97"/>
      <path id="Right_Line" class="st1" d="M2603.14,1680.56c113.56,69.77,215.49,249.87,215.49,578.19v600.97"/>
      <path id="Reflex_R" class="st1" d="M591.34,1972.99c-29.02,79.43-45.61,175.51-45.61,300.58v121.31"/>
      <path id="Reflex_R-2" class="st1" d="M687.42,1809.58c-20.43,22.25-35,43.09-49.52,66.1"/>
      <line id="Reflex_L" class="st1" x1="2650.62" y1="2620.14" x2="2650.62" y2="2732.64"/>
      <path id="Reflex_L-2" class="st1" d="M2603.2,1995.83c33.24,69.45,47.42,184.43,47.42,309.54v161.66"/>
      <g id="Buttons_Group">
        <path id="Dot" class="st2" d="M1336.05,2005.78c0-32.26-26.2-58.34-58.37-58.34s-58.17,26.08-58.17,58.34,26.07,58.26,58.17,58.26,58.37-26.08,58.37-58.26Z"/>
        <path id="Dot-2" class="st2" d="M1239.74,2586.9c0-32.16-26.09-58.24-58.15-58.24s-58.31,26.08-58.31,58.24,26.03,58.38,58.31,58.38,58.15-26.1,58.15-58.38Z"/>
        <path id="Dot-3" class="st2" d="M1275.07,2296.44c0-32.32-26.01-58.31-58.31-58.31s-58.25,25.99-58.25,58.31,26.13,58.14,58.25,58.14,58.31-26.03,58.31-58.14Z"/>
        <path id="Dot-4" class="st2" d="M980.63,2005.78c0-32.26-26.07-58.34-58.28-58.34s-58.21,26.08-58.21,58.34,26,58.26,58.21,58.26,58.28-26.08,58.28-58.26Z"/>
        <path id="Dot-5" class="st2" d="M884.4,2586.9c0-32.16-26.07-58.24-58.23-58.24s-58.32,26.08-58.32,58.24,26.04,58.38,58.32,58.38,58.23-26.1,58.23-58.38Z"/>
        <path id="Dot-6" class="st2" d="M919.74,2296.44c0-32.26-26.14-58.35-58.31-58.35s-58.26,26.09-58.26,58.35,26.05,58.14,58.26,58.14,58.31-26.03,58.31-58.14Z"/>
        <path id="Dot-7" class="st2" d="M1834.18,2005.78c0-32.26,26.2-58.34,58.39-58.34s58.15,26.08,58.15,58.34-26.04,58.26-58.15,58.26-58.39-26.08-58.39-58.26h0Z"/>
        <path id="Dot-8" class="st2" d="M1930.5,2586.9c0-32.16,26.07-58.24,58.13-58.24s58.31,26.08,58.31,58.24-26.01,58.38-58.31,58.38-58.13-26.1-58.13-58.38Z"/>
        <path id="Dot-9" class="st2" d="M1895.15,2296.44c0-32.32,26.02-58.31,58.31-58.31s58.24,25.99,58.24,58.31-26.11,58.14-58.24,58.14-58.31-26.03-58.31-58.14h0Z"/>
        <path id="Dot-10" class="st2" d="M2189.6,2005.78c0-32.26,26.07-58.34,58.28-58.34s58.19,26.08,58.19,58.34-25.98,58.26-58.19,58.26-58.28-26.08-58.28-58.26Z"/>
        <path id="Dot-11" class="st2" d="M2285.82,2586.9c0-32.16,26.07-58.24,58.24-58.24s58.32,26.08,58.32,58.24-26.01,58.38-58.32,58.38-58.24-26.1-58.24-58.38Z"/>
        <path id="Dot-12" class="st2" d="M2250.5,2296.44c0-32.26,26.15-58.35,58.28-58.35s58.28,26.09,58.28,58.35-26.04,58.14-58.28,58.14-58.28-26.03-58.28-58.14Z"/>
        <path id="Dot-13" class="st2" d="M1643.39,2005.78c0-32.26-26.07-58.34-58.25-58.34s-58.3,26.08-58.3,58.34,26.03,58.34,58.3,58.34,58.25-26.15,58.25-58.34Z"/>
        <path id="Dot-14" class="st2" d="M1643.39,2586.9c0-32.22-26.07-58.24-58.25-58.24s-58.3,26.01-58.3,58.24,26.11,58.38,58.3,58.38,58.25-26.1,58.25-58.38Z"/>
        <path id="Dot-15" class="st2" d="M1643.39,2296.44c0-32.32-26.04-58.31-58.25-58.31s-58.3,25.99-58.3,58.31,26.03,58.16,58.3,58.16,58.25-26.04,58.25-58.16Z"/>
      </g>
    </g>
    <g id="Top_Parts">
      <polyline id="Background_Lines" class="st1" points="1389.26 1029.79 2603.14 1029.79 2603.14 1687.07 592.75 1687.07 592.75 1029.79 801.39 1029.79"/>
      <line id="Ticket_Bottom_Line" class="st1" x1="1407.74" y1="1517.21" x2="782.95" y2="1517.21"/>
      <g id="Ticket_Group">
        <g id="Ticket_Lines">
          <line id="Line" class="st1" x1="1249.49" y1="1423.09" x2="941.17" y2="1423.09"/>
          <line id="Line-2" class="st1" x1="1249.49" y1="1299.86" x2="941.17" y2="1299.86"/>
          <line id="Line_Bold" class="st1" x1="1248.82" y1="1155.28" x2="941.81" y2="1155.28"/>
          <line id="Line_Dotted" class="st0" x1="929.02" y1="990.15" x2="1261.63" y2="990.15"/>
          <line id="Line-3" class="st1" x1="1249.49" y1="858.42" x2="941.17" y2="858.42"/>
          <line id="Line-4" class="st1" x1="1249.49" y1="735.15" x2="941.17" y2="735.15"/>
          <line id="Line-5" class="st1" x1="1249.49" y1="611.94" x2="941.17" y2="611.94"/>
          <line id="Line_Bold-2" class="st1" x1="1248.82" y1="467.32" x2="941.81" y2="467.32"/>
        </g>
        <polyline id="Ticket" class="st1" points="838.39 1517.21 838.39 319.62 838.39 317.49 924.15 244.39 1009.92 317.49 1095.55 244.39 1181.19 317.49 1266.77 244.39 1352.29 317.49 1352.29 319.62 1352.29 1517.21"/>
      </g>
      <g id="Inner_Display">
        <rect id="Display_Screen" class="st1" x="1759.54" y="1200.93" width="682" height="316.27"/>
        <line id="Reflex" class="st1" x1="2333.82" y1="1340.28" x2="2333.82" y2="1352.5"/>
        <polyline id="Reflex-2" class="st1" points="2333.82 1390.99 2333.82 1434.44 2175.78 1434.44"/>
        <line id="Reflex-3" class="st1" x1="1873.28" y1="1387.74" x2="1873.28" y2="1374.43"/>
        <polyline id="Reflex-4" class="st1" points="1873.28 1338.01 1873.28 1295.64 2024.89 1295.64"/>
      </g>
      <g id="Top_Display_Rotable">
        <line id="Line_Vertical" class="st1" x1="1995.81" y1="1029.79" x2="1995.81" y2="798.3"/>
        <line id="Line_Vertical-2" class="st1" x1="2205.25" y1="798.3" x2="2205.25" y2="1029.79"/>
        <rect id="Display" class="st1" x="1672.49" y="446.74" width="856.13" height="351.55"/>
        <g id="Reflexes_Group">
          <line id="Line-6" class="st1" x1="2174.47" y1="798.3" x2="2402.83" y2="570.04"/>
          <line id="Line-7" class="st1" x1="2168.85" y1="519.05" x2="2240.94" y2="446.74"/>
          <line id="Line-8" class="st1" x1="2098.51" y1="589.11" x2="2129.24" y2="558.33"/>
          <line id="Line-9" class="st1" x1="1891.15" y1="796.61" x2="2058.98" y2="628.58"/>
          <line id="Line-10" class="st1" x1="1799.76" y1="642.16" x2="1982.62" y2="459.39"/>
        </g>
      </g>
    </g>
  </g>
</svg>