<?xml version="1.0" encoding="UTF-8"?>
<svg id="_x2014_ÎÓÈ_x5F_1" xmlns="http://www.w3.org/2000/svg" version="1.1" viewBox="0 0 646.71 919.96">
  <!-- Generator: Adobe Illustrator 30.1.0, SVG Export Plug-In . SVG Version: 2.1.1 Build 136)  -->
  <defs>
    <style>
      .st0 {
        stroke: #000;
        stroke-miterlimit: 10;
        stroke-width: 20px;
      }
    </style>
  </defs>
  <g>
    <path d="M628.91,230.49v611.54c0,16.37-11.07,39.03-31.83,39.03H34.87c-9.42,0-17.07-7.64-17.07-17.07V211.1c0-21.97,34.14-22.12,34.14,0v635.81h541.48c.72-1.53,1.33-3.63,1.33-4.89V237.07H42.61c-26.17,0-32.47-37.29-7.09-45.03,0,0,472.82-178.46,473.59-178.74,15.86-5.99,33.23,6.05,33.23,22.95v63.33c0,20.22-34.49,21.32-33.95,0v-49.46c-88.49,33.37-176.98,66.75-265.47,100.12,0,0,273.02-54.49,299.38-60.2,23.08-5,50.81,11.19,50.81,36.24v83.34c0,17.26-24.53,23.75-32,7.62-2.7-5.83-2.6-12.52-2.45-18.94.18-7.54.36-58.35.54-65.89.19-8.01-4.52-10.03-11.82-8.57-129.5,26.04-259,50.29-388.49,76.33h437.25c18.44,0,32.77,12.31,32.77,30.31Z"/>
    <path d="M498.87,338.18H145.48c-21.88,0-22.2-34.15,0-34.15h353.39c21.98,0,22.13,34.15,0,34.15Z"/>
    <path d="M601.37,392.26c21.59,0,22.19,34.15,0,34.15H44c-22,0-22.1-34.15,0-34.15"/>
  </g>
  <path class="st0" d="M399.02,817.23l-75.61-39.75c-.76-.4-1.71-.4-2.47,0l-75.61,39.75c-21.32,11.21-45.21-7.55-41.36-30.05l14.44-84.19c.15-.86-.14-1.74-.76-2.35l-61.17-59.62c-7.83-7.63-10.59-18.82-7.21-29.22,3.38-10.39,12.19-17.83,23.01-19.4l84.53-12.28c.86-.13,1.61-.67,2-1.45l37.8-76.6c4.84-9.8,14.63-15.89,25.56-15.89s20.72,6.09,25.56,15.89l37.8,76.6c.39.78,1.13,1.33,2,1.45l84.53,12.28c10.82,1.57,19.63,9,23.01,19.4,3.38,10.39.61,21.59-7.21,29.22l-61.17,59.62c-.63.61-.91,1.49-.76,2.35,0,0,14.42,84.09,14.44,84.19,3.86,22.51-20.05,41.25-41.36,30.05ZM322.18,763.16c2.75,0,5.5.61,7.81,1.82,0,0,75.59,39.74,75.61,39.75,10.1,5.31,22.86-3.5,20.86-15.16l-14.44-84.19c-1.31-8.53.87-10.99,4.82-14.85,0,0,60.98-59.44,61.17-59.62,8.41-8.2,3.59-22.85-7.97-24.53l-84.53-12.28c-5.46-.79-10.19-4.22-12.63-9.18l-37.8-76.6c-2.48-5.02-7.3-8.01-12.89-8.01s-10.42,3-12.89,8.02l-37.8,76.6c-2.44,4.95-7.17,8.38-12.63,9.18,0,0-75.76,11.01-84.53,12.28-11.33,1.65-16.35,16.35-7.97,24.53l61.17,59.62c3.95,3.86,5.76,9.41,4.82,14.85,0,0-14.41,84.01-14.44,84.19-1.97,11.51,10.54,20.59,20.86,15.16,0,0,75.28-39.58,75.61-39.75,2.31-1.22,5.06-1.82,7.81-1.82Z"/>
</svg>