<?xml version="1.0" encoding="UTF-8"?>
<svg id="_ÎÓÈ_1" data-name=" ÎÓÈ 1" xmlns="http://www.w3.org/2000/svg" viewBox="0 0 1283.44 1602.81">
  <defs>
    <style>
      .cls-1 {
        fill: #231f20;
      }

      .cls-2 {
        fill: #fff;
      }
    </style>
  </defs>
  <g>
    <g>
      <path d="M1216.78,1541.68l-974.82,1.94c-36.83.07-66.85-29.83-66.92-66.66l-2.82-1408.09c-.07-36.83,29.83-66.85,66.66-66.92L1213.7,0c36.83-.07,66.85,29.83,66.92,66.66l2.81,1408.08c.07,36.83-29.83,66.85-66.66,66.92h0ZM238.93,27.21c-22.89.05-41.48,18.71-41.44,41.61l2.81,1408.08c.05,22.89,18.71,41.48,41.61,41.44l974.82-1.94c22.89-.05,41.49-18.72,41.44-41.61l-2.81-1408.07c-.05-22.89-18.71-41.48-41.6-41.44l-974.83,1.93Z"/>
      <path d="M1162.28,1379.31l-216.63.43c-6.98.02-12.64-5.63-12.66-12.61s5.63-12.64,12.61-12.66l216.63-.43c6.98-.02,12.64,5.63,12.66,12.61s-5.63,12.64-12.61,12.66Z"/>
      <path d="M837.35,1379.96l-541.57,1.08c-6.98.02-12.64-5.63-12.66-12.61s5.63-12.64,12.61-12.66l541.57-1.08c6.98-.02,12.64,5.63,12.66,12.61.02,6.98-5.63,12.64-12.61,12.66Z"/>
      <path d="M1161.97,1216.83l-487.41.97c-6.98.02-12.64-5.63-12.66-12.61s5.63-12.64,12.61-12.66l487.41-.97c6.98-.02,12.64,5.63,12.66,12.61.02,6.98-5.63,12.64-12.61,12.66Z"/>
      <path d="M566.24,1218.03l-270.78.54c-6.98.02-12.64-5.63-12.66-12.61-.02-6.98,5.63-12.64,12.61-12.66l270.78-.54c6.98-.02,12.64,5.63,12.66,12.61s-5.63,12.64-12.61,12.66Z"/>
    </g>
    <path d="M1161.71,1086.06l-216.63.43c-6.98.02-12.64-5.63-12.66-12.61s5.63-12.64,12.61-12.66l216.63-.43c6.98-.02,12.64,5.63,12.66,12.61.02,6.98-5.63,12.64-12.61,12.66Z"/>
    <path d="M836.76,1086.71l-541.57,1.08c-6.98.02-12.64-5.63-12.66-12.61s5.63-12.64,12.61-12.66l541.57-1.08c6.98-.02,12.64,5.63,12.66,12.61.02,6.98-5.63,12.64-12.61,12.66Z"/>
    <path d="M1161.38,923.6l-487.41.97c-6.98.02-12.64-5.63-12.66-12.61s5.63-12.64,12.61-12.66l487.41-.97c6.98-.02,12.64,5.63,12.66,12.61.02,6.98-5.63,12.64-12.61,12.66Z"/>
    <path d="M565.65,924.78l-270.78.54c-6.98.02-12.64-5.63-12.66-12.61s5.63-12.64,12.61-12.66l270.78-.54c6.98-.02,12.64,5.63,12.66,12.61s-5.63,12.64-12.61,12.66h0Z"/>
    <path d="M1161.07,767.85l-216.63.43c-6.98.02-12.64-5.63-12.66-12.61-.02-6.98,5.63-12.64,12.61-12.66l216.63-.43c6.98-.02,12.64,5.63,12.66,12.61.02,6.98-5.63,12.64-12.61,12.66h0Z"/>
    <path d="M836.13,768.5l-541.57,1.08c-6.98.02-12.64-5.63-12.66-12.61s5.63-12.64,12.61-12.66l541.57-1.08c6.98-.02,12.64,5.63,12.66,12.61s-5.63,12.64-12.61,12.66Z"/>
    <path d="M1160.75,605.37l-487.41.97c-6.98.02-12.64-5.63-12.66-12.61s5.63-12.64,12.61-12.66l487.41-.97c6.98-.02,12.64,5.63,12.66,12.61.02,6.98-5.63,12.64-12.61,12.66h0Z"/>
    <path d="M565.02,606.56l-270.78.54c-6.98.02-12.64-5.63-12.66-12.61s5.63-12.64,12.61-12.66l270.78-.54c6.98-.02,12.64,5.63,12.66,12.61s-5.63,12.64-12.61,12.66h0Z"/>
    <path d="M1159.57,456.49l-216.63.43c-6.98.02-12.64-5.63-12.66-12.61s5.63-12.64,12.61-12.66l216.63-.43c6.98-.02,12.64,5.63,12.66,12.61s-5.63,12.64-12.61,12.66Z"/>
    <path d="M834.63,457.14l-541.57,1.08c-6.98.02-12.64-5.63-12.66-12.61s5.63-12.64,12.61-12.66l541.57-1.08c6.98-.02,12.64,5.63,12.66,12.61.02,6.98-5.63,12.64-12.61,12.66Z"/>
    <path d="M1159.25,294.01l-487.41.97c-6.98.02-12.64-5.63-12.66-12.61s5.63-12.64,12.61-12.66l487.41-.97c6.98-.02,12.64,5.63,12.66,12.61.02,6.98-5.63,12.64-12.61,12.66Z"/>
    <path d="M563.52,295.2l-270.78.54c-6.98.02-12.64-5.63-12.66-12.61s5.63-12.64,12.61-12.66l270.78-.54c6.98-.02,12.64,5.63,12.66,12.61s-5.63,12.64-12.61,12.66Z"/>
    <path d="M1159.83,145.28l-216.63.43c-6.98.02-12.64-5.63-12.66-12.61s5.63-12.64,12.61-12.66l216.63-.43c6.98-.02,12.64,5.63,12.66,12.61s-5.63,12.64-12.61,12.66Z"/>
    <path d="M834.89,145.93l-541.57,1.08c-6.98.02-12.64-5.63-12.66-12.61s5.63-12.64,12.61-12.66l541.57-1.08c6.98-.02,12.64,5.63,12.66,12.61.02,6.98-5.63,12.64-12.61,12.66h0Z"/>
  </g>
  <ellipse class="cls-2" cx="255.21" cy="1372.93" rx="159.65" ry="178.74"/>
  <path class="cls-1" d="M229.88,1143.04c-126.97,0-229.88,102.91-229.88,229.88s102.91,229.88,229.88,229.88,229.88-102.91,229.88-229.88-102.91-229.88-229.88-229.88ZM346.69,1366.38c-2.99,6.83-9.76,11.26-17.23,11.26h-61.91v137.19h-75.35v-137.19h-61.91c-7.47,0-14.18-4.42-17.23-11.26-2.99-6.83-1.67-14.76,3.33-20.27l99.58-108.94c3.56-3.91,8.61-6.14,13.9-6.14s10.34,2.24,13.9,6.14l99.58,108.94c5.05,5.51,6.32,13.44,3.33,20.27Z"/>
</svg>