<?xml version="1.0" encoding="UTF-8"?>
<svg id="Layer_1" xmlns="http://www.w3.org/2000/svg" version="1.1" viewBox="0 0 3000 2000">
  <!-- Generator: Adobe Illustrator 30.3.0, SVG Export Plug-In . SVG Version: 2.1.3 Build 182)  -->
  <defs>
    <style>
      .st0 {
        fill: #010101;
        stroke-width: 4px;
      }

      .st0, .st1 {
        stroke: #010101;
        stroke-miterlimit: 10;
      }

      .st1 {
        fill: none;
        stroke-width: 60px;
      }
    </style>
  </defs>
  <rect class="st1" x="32.64" y="35.8" width="2934.72" height="1928.4" rx="98.14" ry="98.14"/>
  <path class="st0" d="M490.69,1373.21h-206.23c-47.15,0-87.13-16.68-115.66-55.97-15.99-21.37-24.81-47.42-24.81-74.17,0-127.66-.69-255.31,0-383.24.69-77.61,54.73-131.1,133.31-131.79,131.38-.96,63.14-.28,194.65,0,30.19,0,47.84,14.75,46.6,37.77-.96,18.89-25.09,41.49-51.28,41.22-122.97-1.93-46.87-1.52-169.43-2.21h-14.48c-38.32,2.89-58.73,23.3-62.31,61.9-.69,5.93,0,11.99,0,18.2v325.76c-.28,11.99.69,23.85,3.17,35.84,5.38,28.67,30.74,48.66,60.11,47.42,33.64.96,67.55.69,101.19.69h303.97c53.07,0,77.06,1.93,77.06-51.83,0-62.59-2.21-28.95-2.89-91.81,0-15.72,1.24-31.16,4.14-46.6,5.93-18.61,21.37-32.4,40.25-36.53,15.03-1.52,28.95,8.13,32.4,22.88,1.52,8.13,1.93,16.68,1.52,25.09,0,79.54.69,37.77,0,117.32,0,56.52-24.26,101.19-75.41,126-23.3,9.37-48.11,14.48-72.93,14.2-67.27,1.93-134.82.69-202.51.69v-.96h-.28l-.14.14Z"/>
  <path class="st0" d="M534.8,1057.38c37.08-43.7,68.51-82.02,100.22-118.56,60.66-70.17,121.73-140.2,182.38-209.68,14.48-16.41,28.67-32.67,43.42-48.39,7.86-9.1,16.68-17.23,26.05-24.54,16.96-12.82,41.49-9.79,54.45,7.17,11.3,14.75,10.34,35.84-2.21,49.63-8.55,10.06-18.2,19.16-27.02,29.23-97.74,114.15-195.48,227.88-293.64,342.3-14.75,17.23-28.67,35.57-43.42,53.07-20.4,23.85-46.87,26.05-68.51,3.17-44.39-45.63-87.4-93.05-130.41-140.2-15.44-14.75-15.72-39.29-.69-54.73.96-.96,2.21-2.21,3.45-3.17,17.23-15.72,35.84-16.41,54.73,2.21,28.95,28.95,56.25,59.42,83.95,89.61,5.38,5.93,2.89,3.45,10.06,13.23l7.17,9.37v.28Z"/>
  <path class="st0" d="M1444.21,1363.92h-206.23c-47.15,0-87.13-16.68-115.66-55.97-15.99-21.37-24.81-47.42-24.81-74.17,0-127.66-.69-255.31,0-383.24.69-77.61,54.73-131.1,133.31-131.79,131.38-.96,63.14-.28,194.65,0,30.19,0,47.84,14.75,46.6,37.77-.96,18.89-25.09,41.49-51.28,41.22-122.97-1.93-46.87-1.52-169.43-2.21h-14.48c-38.32,2.89-58.73,23.3-62.31,61.9-.69,5.93,0,11.99,0,18.2v325.76c-.28,11.99.69,23.85,3.17,35.84,5.38,28.67,30.74,48.66,60.11,47.42,33.64.96,67.55.69,101.19.69h303.97c53.07,0,77.06,1.93,77.06-51.83,0-62.59-2.21-28.95-2.89-91.81,0-15.72,1.24-31.16,4.14-46.6,5.93-18.61,21.37-32.4,40.25-36.53,15.03-1.52,28.95,8.13,32.4,22.88,1.52,8.13,1.93,16.68,1.52,25.09,0,79.54.69,37.77,0,117.32,0,56.52-24.26,101.19-75.41,126-23.3,9.37-48.11,14.48-72.93,14.2-67.27,1.93-134.82.69-202.51.69v-.96h-.28l-.14.14Z"/>
  <path class="st0" d="M1488.32,1048.09c37.08-43.7,68.51-82.02,100.22-118.56,60.66-70.17,121.73-140.2,182.38-209.68,14.48-16.41,28.67-32.67,43.42-48.39,7.86-9.1,16.68-17.23,26.05-24.54,16.96-12.82,41.49-9.79,54.45,7.17,11.3,14.75,10.34,35.84-2.21,49.63-8.55,10.06-18.2,19.16-27.02,29.23-97.74,114.15-195.48,227.88-293.64,342.3-14.75,17.23-28.67,35.57-43.42,53.07-20.4,23.85-46.87,26.05-68.51,3.17-44.39-45.63-87.4-93.05-130.41-140.2-15.44-14.75-15.72-39.29-.69-54.73.96-.96,2.21-2.21,3.45-3.17,17.23-15.72,35.84-16.41,54.73,2.21,28.95,28.95,56.25,59.42,83.95,89.61,5.38,5.93,2.89,3.45,10.06,13.23l7.17,9.37v.28Z"/>
  <path class="st0" d="M2437.29,1363.92h-206.23c-47.15,0-87.13-16.68-115.66-55.97-15.99-21.37-24.81-47.42-24.81-74.17,0-127.66-.69-255.31,0-383.24.69-77.61,54.73-131.1,133.31-131.79,131.38-.96,63.14-.28,194.65,0,30.19,0,47.84,14.75,46.6,37.77-.96,18.89-25.09,41.49-51.28,41.22-122.97-1.93-46.87-1.52-169.43-2.21h-14.48c-38.32,2.89-58.73,23.3-62.31,61.9-.69,5.93,0,11.99,0,18.2v325.76c-.28,11.99.69,23.85,3.17,35.84,5.38,28.67,30.74,48.66,60.11,47.42,33.64.96,67.55.69,101.19.69h303.97c53.07,0,77.06,1.93,77.06-51.83,0-62.59-2.21-28.95-2.89-91.81,0-15.72,1.24-31.16,4.14-46.6,5.93-18.61,21.37-32.4,40.25-36.53,15.03-1.52,28.95,8.13,32.4,22.88,1.52,8.13,1.93,16.68,1.52,25.09,0,79.54.69,37.77,0,117.32,0,56.52-24.26,101.19-75.41,126-23.3,9.37-48.11,14.48-72.93,14.2-67.27,1.93-134.82.69-202.51.69v-.96h-.28l-.14.14Z"/>
  <path class="st0" d="M2481.4,1048.09c37.08-43.7,68.51-82.02,100.22-118.56,60.66-70.17,121.73-140.2,182.38-209.68,14.48-16.41,28.67-32.67,43.42-48.39,7.86-9.1,16.68-17.23,26.05-24.54,16.96-12.82,41.49-9.79,54.45,7.17,11.3,14.75,10.34,35.84-2.21,49.63-8.55,10.06-18.2,19.16-27.02,29.23-97.74,114.15-195.48,227.88-293.64,342.3-14.75,17.23-28.67,35.57-43.42,53.07-20.4,23.85-46.87,26.05-68.51,3.17-44.39-45.63-87.4-93.05-130.41-140.2-15.44-14.75-15.72-39.29-.69-54.73.96-.96,2.21-2.21,3.45-3.17,17.23-15.72,35.84-16.41,54.73,2.21,28.95,28.95,56.25,59.42,83.95,89.61,5.38,5.93,2.89,3.45,10.06,13.23l7.17,9.37v.28Z"/>
</svg>