<?xml version="1.0" encoding="UTF-8"?>
<svg id="Layer_2" xmlns="http://www.w3.org/2000/svg" version="1.1" viewBox="0 0 2849.1 3031.74">
  <!-- Generator: Adobe Illustrator 30.3.0, SVG Export Plug-In . SVG Version: 2.1.3 Build 182)  -->
  <path d="M1828.72,2714.07l-145.37,147.14c-19.86,24.17-50.51,31.02-78.78,16.61l-185.39-115.57-157.09,153.26c-21.86,15.23-49.75,15.59-71.62.16l-176.86-111.16-151.61,145.35c-22.05,24.69-55.51,29.27-82.62,9.59l-173.94-113.52-182.19,166.67c-23.87,21.84-62.7,21.09-90.96,16.6-43.39-12.31-68.25-43.77-72.96-87.09l-99.57-914.91-46.39-423.33L0,569.63c1.28-61.34,47.36-106.38,108.41-104.97l552.59-51.74,17.65-304.65C682.2,46.99,724.9-.49,787.99,0l266.53,16.08,878.94,53.63,422.59,25.85c58.85,7.38,94.66,57.09,90.58,114.87l-15.86,224.5,357.53,107.92c43.03,12.99,69.52,65.35,58.17,107.16l-55.63,205-159.12,578.27-240.72,878.68-78.97,282.27c-16.52,59.04-49.69,80.66-111.88,78.41l7.74,71.6c6.19,57.24-39.68,104.39-96.4,104.19-26.12,6.93-49.23,2.37-71.22-12.37l-211.55-121.99ZM2217.84,2576.59l15.54-282.12,46.62-746,90.07-1349.01c1.28-19.11-11.78-26.85-28.67-27.9l-635.88-39.28-664.57-40.63-250.9-14.65c-22.52-1.82-33.59,13.23-34.93,34.13l-18.95,294.68,1084.62-101.69c55.41-5.19,113.63,24.41,120.6,85.17l179.1,1561.38,40.15,359.32,30.52,281.64c5.66,2.54,14.03,3.22,17.82,1,3.31-1.95,8.54-10.12,8.86-16.06ZM1054.07,2739.21l170.64,107.75,145.18-144.14c21.71-24.36,55.53-29.53,82.57-10.59l179.78,113.68,155.35-157.41c19.81-20.07,50.12-19.23,72.41-5.53l223.18,129.71,25.89-.95c11.4-.42,23.75-7.81,22.15-22.13l-92.23-827.79-82.64-722.92-89.51-789.89c-2-17.67-10.2-29.36-30.28-27.49L109,542.18c-12.53,1.17-21.03,2.12-27.13,10.72-5.15,7.25-5.28,15.07-4.06,25.99l83.64,750.63,53.17,486.13,46.28,423.77,40.97,376.27,35.26,325.56c1.35,12.48,20.87,14.77,28.88,13.01,13.1-2.87,18.53-7.3,27.22-15.39l173.64-161.6c17.47-10.81,43.48-18.61,62.97-5.96l184.54,119.82,151.65-145.91c23.31-25.68,59.96-28.97,88.04-6.01ZM2395.71,2009.06l263.57-968.18,111.95-404.48c2.47-14.3-5.34-24.1-19.08-26.25l-327.39-97.6-46.87,703.81-60.73,946.3-8.69,159.92,87.25-313.52Z"/>
  <path d="M1542.92,1172.48l-988.36,101c-25.21,2.58-43.54-12.95-45.22-35.25-1.88-24.87,14.64-39.93,39.77-42.5l972.52-99.41c24.09-2.46,41.53,4.23,48.69,27.59,4.5,14.69-2.04,45.98-27.4,48.57Z"/>
  <path d="M1641.35,2064.26l-993.42,110.56c-22.74,2.53-40.81-17.71-41.97-35.19-1.7-25.52,14.66-39.88,39.48-42.66l972.42-108.72c23.19-2.59,41.28,6.06,47.1,26.38,5.55,19.4-.73,40.31-23.6,49.62Z"/>
  <path d="M1585.52,1619.91l-977.33,102.45c-17.89,1.87-31.89.39-42.31-11.97-10.64-12.62-12.43-29.67-4.94-44.77,7.69-15.48,21.71-18.35,40.76-20.35l978.51-102.85c21.94-2.31,38.38,16.83,39.84,34.83,1.59,19.6-10.22,40.11-34.54,42.65Z"/>
</svg>