<?xml version="1.0" encoding="UTF-8"?>
<svg id="Layer_1" xmlns="http://www.w3.org/2000/svg" version="1.1" viewBox="0 0 2992.58 2988.7">
  <!-- Generator: Adobe Illustrator 30.3.0, SVG Export Plug-In . SVG Version: 2.1.3 Build 182)  -->
  <path d="M-193.35,2539.64l11.15,129.96"/>
  <g>
    <path d="M2726.83,1464.84l-1238.18.34c-50.78.01-83.81-37.67-83.77-86.99l.88-1296.08c.03-51.15,45.98-78.06,90.63-79.04,269.66-5.94,531.16,70.04,752.88,223.65,73.66,51.03,143.21,109.62,204.28,174.72,247.46,263.78,373.58,616.62,352.61,977.56-2.5,43-29.18,85.82-79.34,85.84ZM2368.18,558.85c-205.01-236.15-485.67-374.46-797.91-386.55l.08,1124.87,1069.89.06c-1.69-272.85-97.2-531.74-272.07-738.39Z"/>
    <path d="M1541.42,2709.96c48.89-7.04,91.39,20.3,100.92,68.09,8.62,43.23-20.76,91.56-69,97.98-439.26,58.43-885.64-116.28-1188.07-435.8C145.3,2186.69,12.58,1850.92,10.4,1501.72c-1.74-277.92,77.89-550.29,231.87-781.38,169.93-255.03,420.51-445.21,713.47-536.7,81.77-25.53,164.61-43.22,250.19-50.65,48.46-4.21,87.11,36.92,88.61,81.1,1.73,51-35.91,82.9-83.22,88.51-337.89,40.09-640.53,228.02-828.92,510.6-142.07,213.11-213.19,466.78-203.43,723.16,12.12,318.41,150.02,619.2,380.35,838.54,200.15,190.6,458.04,310.95,733.7,338.4,83.06,8.27,164.36,8.76,248.4-3.35Z"/>
    <path d="M2982.21,2281.55c0,390.55-316.6,707.15-707.15,707.15s-707.15-316.6-707.15-707.15,316.6-707.15,707.15-707.15,707.15,316.6,707.15,707.15ZM2815.97,2281.98c0-298.74-242.17-540.91-540.91-540.91s-540.91,242.17-540.91,540.91,242.17,540.91,540.91,540.91,540.91-242.17,540.91-540.91Z"/>
    <path d="M2347.22,2664.08c-8.12,37.66-39.67,61.84-75.08,60.28-34.78-1.54-65.41-26.89-70.32-63.6l-1.52-38.18c-53.73-13.05-105.88-35.1-145.69-73.84-33.32-32.42-31.94-84.8,2.2-114.51,24.97-21.73,60.99-24.14,88.15-4.09,42.95,31.7,91.75,52.78,146.25,47.83,20.35-1.85,40.13-6.79,56.91-18.06,19.33-12.98,30.5-38.25,18.74-59.6-19.11-34.69-84.83-49.71-127.69-58.8-83.22-17.64-162.65-50.1-193.92-133.78-24.59-65.81-12.7-140.18,32.01-194.71,31.55-38.48,74.51-61.14,122.5-73.26l1.72-35.02c1.76-35.77,32.71-62.2,65.17-65.55,35.59-3.67,67.47,17.81,78.63,52.51,4.61,14.35,3.86,30.25,3.63,47.14,41.04,12,79.68,29.51,114.23,55.09,20.28,15.02,32.68,37.1,33.83,60.34,1.24,25.15-9.73,50.13-30.39,65.42-28.51,21.11-64.84,18.12-92.38-3.01-84.97-65.21-194.44-31.42-193.42,21.18.65,33.59,40.56,41.47,73.77,50.58l98.84,27.11c36.56,10.03,68.73,29.32,97.97,52.95,41.39,33.46,65.26,80.04,68.89,133.39,7.68,112.69-62.44,197.02-171.07,220.83l-1.96,41.38Z"/>
  </g>
</svg>