<?xml version="1.0" encoding="UTF-8"?>
<svg id="Layer_1" xmlns="http://www.w3.org/2000/svg" version="1.1" viewBox="0 0 2702.02 2976.85">
  <!-- Generator: Adobe Illustrator 30.3.0, SVG Export Plug-In . SVG Version: 2.1.3 Build 182)  -->
  <path d="M2176.37,2454.57c30.9.1,52.26,29.28,52.07,55.68-.2,28.68-22.48,55.52-53.48,55.49l-362.95-.33c-25.9-.02-44.77-25.77-47.7-46.51-3.79-26.85,9.93-48.06,32.32-61.2,41.67-24.46,52.47-88.93,42.71-136.98l-43.82-.46c-31.36-.33-52.39-28.54-51.07-57.62,1.33-29.5,24.36-52.81,55.66-53.34l17.1-.29c-5.08-44.47-2.12-87.28,12.87-128.57,29.85-82.2,101.48-138.53,189.5-145.68,72.42-5.88,145.81,24.14,191.65,80.86,20.24,25.04,9.06,63.21-13.54,79.68-26.84,19.55-59.66,13.08-81.93-11.27-25.13-27.48-61.84-39.64-99.59-31.66-32.64,6.9-61.56,31.59-74.9,66.35-10.91,28.42-10.73,59.2-6.39,90.41l122.04.26c29.75.06,52.23,23.78,54.22,51.63,1.97,27.59-16.81,58.38-47.74,58.71l-105.68,1.13c5.77,45.29,1.5,88.82-15.92,132.94l234.58.78Z"/>
  <path d="M1800.31,1548.68c-214.22-194.15-486.05-264.4-773.36-239.52-132.99,11.52-262.38,47.25-379.41,110.9-204.81,111.39-361.92,293.74-443.52,511.78-34.49,92.15-52.95,186.89-56.46,285.53-5.68,159.51,34.37,314.47,112.86,452.8,19.63,34.59,13.37,75.24-18.62,98.54-30.92,21.81-73.15,17.15-100.28-13.3-203.47-335.56-181.2-748.33,26.18-1077.66,140.14-222.55,355.98-400.85,613.21-473.86-163.52-109.01-266.73-281.71-285.99-476.08-11.61-117.15,4.89-235.37,54.07-343.19,60.18-131.93,163.68-241.41,290.76-309.45,199.52-106.82,438.74-99.39,630.76,19.77,92.43,57.36,169.96,136.08,225.39,230.29,59.41,100.98,88.5,212.77,88.03,330.02-.38,94.09-16.24,184.73-54.83,270.51-51.19,113.81-131.3,209.94-235.82,278.28,191.15,58.33,361.21,171.53,491.36,321.27,248.03-3.18,480.77,125.83,610.22,337.29,78.82,128.75,113.49,275.08,106.24,425.99-8.87,184.61-87,359.78-217.95,486.64-264.88,256.59-679.1,269.81-959.84,30.76-150.07-127.79-241.73-314.88-252.31-514.47-18.24-344.03,194.3-653.35,529.33-742.86ZM1637.29,657.81c0-275.8-223.58-499.39-499.39-499.39s-499.39,223.58-499.39,499.39,223.58,499.39,499.39,499.39,499.39-223.58,499.39-499.39ZM2562.4,2249.89c0-318.11-257.88-575.98-575.98-575.98s-575.98,257.88-575.98,575.98,257.88,575.98,575.98,575.98,575.98-257.88,575.98-575.98Z"/>
</svg>