<?xml version="1.0" encoding="UTF-8"?>
<svg id="Layer_1" xmlns="http://www.w3.org/2000/svg" version="1.1" viewBox="0 0 2702.02 2976.85">
  <!-- Generator: Adobe Illustrator 30.3.0, SVG Export Plug-In . SVG Version: 2.1.3 Build 182)  -->
  <path d="M1800.31,1548.68c-214.22-194.15-486.05-264.4-773.36-239.52-132.99,11.52-262.38,47.25-379.41,110.9-204.81,111.39-361.92,293.74-443.52,511.78-34.49,92.15-52.95,186.89-56.46,285.53-5.68,159.51,34.37,314.47,112.86,452.8,19.63,34.59,13.37,75.24-18.62,98.54-30.92,21.81-73.15,17.15-100.28-13.3-203.47-335.56-181.2-748.33,26.18-1077.66,140.14-222.55,355.98-400.85,613.21-473.86-163.52-109.01-266.73-281.71-285.99-476.08-11.61-117.15,4.89-235.37,54.07-343.19,60.18-131.93,163.68-241.41,290.76-309.45,199.52-106.82,438.74-99.39,630.76,19.77,92.43,57.36,169.96,136.08,225.39,230.29,59.41,100.98,88.5,212.77,88.03,330.02-.38,94.09-16.24,184.73-54.83,270.51-51.19,113.81-131.3,209.94-235.82,278.28,191.15,58.33,361.21,171.53,491.36,321.27,248.03-3.18,480.77,125.83,610.22,337.29,78.82,128.75,113.49,275.08,106.24,425.99-8.87,184.61-87,359.78-217.95,486.64-264.88,256.59-679.1,269.81-959.84,30.76-150.07-127.79-241.73-314.88-252.31-514.47-18.24-344.03,194.3-653.35,529.33-742.86ZM1637.29,657.81c0-275.8-223.58-499.39-499.39-499.39s-499.39,223.58-499.39,499.39,223.58,499.39,499.39,499.39,499.39-223.58,499.39-499.39ZM2562.4,2249.89c0-318.11-257.88-575.98-575.98-575.98s-575.98,257.88-575.98,575.98,257.88,575.98,575.98,575.98,575.98-257.88,575.98-575.98Z"/>
  <path d="M1919.85,2599.77c-53.48-10.65-102.62-33.03-142.19-69.84-27.58-25.65-31.78-64.78-9.38-92.48,22.73-28.11,66.32-35.06,94.94-9.89,28.99,25.49,61.33,41.85,100.92,46.13,28.69,3.1,57.3,1.88,83.14-11.97,29.24-15.66,42.86-51.36,25.94-80.88-9.69-16.9-26.98-29.86-45.48-35.64l-78.89-24.64c-35.66-11.14-69.94-21.85-102.12-40.03-57-32.2-90.53-87.69-93.91-153.12-5.42-105.08,64.35-181.3,165.74-200.37l1.3-28.75c5.34-39.37,41.51-63.49,77.43-57.36,39.22,6.7,62.51,43.46,54.64,85.23,48.02,10.71,93.81,28.45,130.26,61.57,27.9,25.35,32.5,65.2,10.15,93.83-21.09,27.02-65.17,37.47-94.24,11.89-45.96-40.45-109.27-56.81-167.63-32.5-21.78,9.07-35.98,27.51-37.36,48.72-1.59,24.5,10.43,44.01,33.02,55.94,52.54,27.75,122.07,30.37,197.14,72.23,61.32,34.19,97.02,94.09,97.02,164.32,0,106.81-64.42,177.52-168.21,197.84,5.57,31.65-4.87,61.87-30.98,77.59-25.42,15.31-59.78,13.31-82.11-9.05-17.46-17.48-23.2-40.63-19.14-68.77Z"/>
</svg>