<?xml version="1.0" encoding="UTF-8"?>
<svg id="Layer_1" xmlns="http://www.w3.org/2000/svg" version="1.1" viewBox="0 0 2174.52 2818.91">
  <!-- Generator: Adobe Illustrator 30.3.0, SVG Export Plug-In . SVG Version: 2.1.3 Build 182)  -->
  <path d="M1516.76,676.49l-954.92-.23c-34.94,0-56.95-37.22-55.27-66.49,1.82-31.77,25.46-61.59,61.09-61.59l938.8-.17c37.46,0,63.85,23.35,67.88,59.22,3.32,29.55-19.76,69.29-57.58,69.28v-.02Z"/>
  <path d="M2042.84,2797.04c23.32,20.78,53.52,28.3,83.6,15.78,21.22-8.83,48.08-35.25,48.08-66.19l-.61-2276.58.61-249.68C2174.97,105.81,2081.11-.02,1961.8,0L210.75.23C99.23.25.64,100.57.61,212.6l-.61,2522.75c0,30.94,26.86,57.36,48.08,66.19,30.08,12.52,60.28,5,83.6-15.78l194.15-204.93,213.38,206.88c31.06,28.47,76.67,26.85,105.25-4.35l208.78-191.97,190.81,188.51c30.54,30.16,71.22,39.14,106.82,10.03.25-.21.49-.44.69-.7l154.67-193.61c1.65-2.06,4.71-2.26,6.61-.42l209.85,203.45c31.06,28.47,76.67,26.85,105.25-4.35l208.78-191.97,190.81,188.51c30.65,30.27,71.51,39.2,107.2,9.72l-32.22-66.58c22.99-19.72,33.15,12.03,20.62-12.37l-10.62-74.43-217.76-166.29c-26.93-26.32-69.42-38.46-100.3-10.07l-218.2,200.63v-.02s-219.3-211.93-219.3-211.93c-28.56-18.99-58.69-19.72-87.74-1.95l-170.72,210.62-125.59-141.08-61.62-57.14c-26.93-26.32-69.42-38.46-100.3-10.07l-218.2,200.63v-.02s-219.3-211.93-219.3-211.93c-28.56-18.99-58.69-19.72-87.74-1.95l-155.01,170.72,1.02-2403.24c.02-46.26,40.86-81.13,85.3-81.88l1750.33.48c40.74.01,76.69,41.55,76.69,81.13l-1.28,257.73,1.02,2157.07"/>
  <path d="M1516.76,1084.93l-954.92-.23c-34.94,0-56.95-37.22-55.27-66.49,1.82-31.77,25.46-61.59,61.09-61.59l938.8-.17c37.46,0,63.85,23.35,67.88,59.22,3.32,29.55-19.76,69.29-57.58,69.28v-.02Z"/>
  <path d="M1516.76,1431.46l-954.92-.23c-34.94,0-56.95-37.22-55.27-66.49,1.82-31.77,25.46-61.59,61.09-61.59l938.8-.17c37.46,0,63.85,23.35,67.88,59.22,3.32,29.55-19.76,69.29-57.58,69.28v-.02Z"/>
  <path d="M1516.76,1839.9l-954.92-.23c-34.94,0-56.95-37.22-55.27-66.49,1.82-31.77,25.46-61.59,61.09-61.59l938.8-.17c37.46,0,63.85,23.35,67.88,59.22,3.32,29.55-19.76,69.29-57.58,69.28v-.02Z"/>
  <path d="M1516.76,2248.35l-315.58-.23c-34.94,0-56.95-37.22-55.27-66.49,1.82-31.77,25.46-61.59,61.09-61.59l299.46-.17c37.46,0,63.85,23.35,67.88,59.22,3.32,29.55-19.76,69.29-57.58,69.28v-.02Z"/>
</svg>