<?xml version="1.0" encoding="UTF-8"?>
<svg id="Layer_1" xmlns="http://www.w3.org/2000/svg" version="1.1" viewBox="0 0 2641.3 2856.58">
  <!-- Generator: Adobe Illustrator 30.3.0, SVG Export Plug-In . SVG Version: 2.1.3 Build 182)  -->
  <g>
    <path d="M628.57,2660.51l218.2-200.63c30.88-28.39,73.37-16.25,100.3,10.07l195.19,190.71,145.56-125.52c29.03-25.03,58.12-.25,78.49,30.85,12.53,24.4,28.43,45.49,5.44,65.21l-184.7,158.42c-35.69,29.48-76.55,20.55-107.2-9.72l-190.81-188.51-208.78,191.97c-28.58,31.2-74.19,32.82-105.25,4.35l-213.38-206.88-229.95,204.93c-23.32,20.78-53.52,28.3-83.6,15.78C26.86,2792.71,0,2766.29,0,2735.35L.61,212.6C.64,100.57,99.23.25,210.75.23L1961.8,0c119.31-.02,213.17,105.81,212.72,220.38l-.58,146.95-.68,1125.64c0,12.02-13.89,17.34-21.98,17.31l-87.71-.26c-8.24-.02-18.6-6.79-18.66-16.14l-.63-108.71-.22-1171.35c0-39.58-35.95-81.12-76.69-81.13l-1750.33-.48c-44.44.75-85.28,35.62-85.3,81.88l-1.02,2403.24,190.81-170.72c29.05-17.77,59.18-17.04,87.74,1.95l219.31,211.93Z"/>
    <path d="M1516.76,939.53l-954.92-.23c-34.94,0-56.95-37.22-55.27-66.49,1.82-31.77,25.46-61.59,61.09-61.59l938.8-.17c37.46,0,63.85,23.35,67.88,59.22,3.32,29.55-19.76,69.29-57.58,69.28Z"/>
    <path d="M1693.56,2278.35c-12.12-11.95-17.03-31.22-16.96-45.84.14-25.51,14.7-46.14,34.62-55.5,20.85-9.79,49.76-8.62,67.5,8.92l119.97,118.66,334.29-332.5c17.71-17.62,48.55-14.12,66.47-4.91,20.31,10.44,31.72,32.96,31.06,56.44s-14.04,38.45-30.19,54.47l-360.16,357.24c-22.12,21.94-64.56,22.55-86.32,1.09l-160.3-158.08Z"/>
    <path d="M1152.12,1378.61c37.4.04,59.85,34.35,59.21,65.5-.65,31.67-25.37,62.67-60.9,62.66l-586.32-.18c-36.51-.01-59.75-37.76-57.55-67.69,2.81-38.06,31.95-60.98,69.72-60.94l575.83.64Z"/>
  </g>
  <path d="M1990.58,1673.14c71.97,0,141.72,14.07,207.32,41.82,31.54,13.34,61.97,29.86,90.44,49.1,28.23,19.07,54.79,40.98,78.92,65.12,24.14,24.14,46.05,50.69,65.12,78.92,19.24,28.47,35.75,58.9,49.09,90.44,27.75,65.6,41.82,135.35,41.82,207.32s-14.07,141.72-41.82,207.32c-13.34,31.54-29.86,61.97-49.09,90.44-19.07,28.23-40.98,54.79-65.12,78.92-24.14,24.14-50.69,46.05-78.92,65.12-28.47,19.24-58.9,35.75-90.44,49.1-65.6,27.75-135.35,41.82-207.32,41.82s-141.72-14.07-207.32-41.82c-31.54-13.34-61.97-29.86-90.44-49.1-28.23-19.07-54.79-40.98-78.92-65.12-24.14-24.14-46.05-50.69-65.12-78.92-19.24-28.47-35.75-58.9-49.09-90.44-27.75-65.6-41.82-135.35-41.82-207.32s14.07-141.72,41.82-207.32c13.34-31.54,29.86-61.97,49.09-90.44,19.07-28.23,40.98-54.79,65.12-78.92,24.14-24.14,50.69-46.05,78.92-65.12,28.47-19.24,58.9-35.75,90.44-49.1,65.6-27.75,135.35-41.82,207.32-41.82M1990.58,1555.14c-359.38,0-650.72,291.34-650.72,650.72s291.34,650.72,650.72,650.72,650.72-291.34,650.72-650.72-291.34-650.72-650.72-650.72h0Z"/>
</svg>