<?xml version="1.0" encoding="UTF-8"?>
<svg id="Layer_1" xmlns="http://www.w3.org/2000/svg" version="1.1" viewBox="0 0 2875 2925.75">
  <!-- Generator: Adobe Illustrator 30.3.0, SVG Export Plug-In . SVG Version: 2.1.3 Build 182)  -->
  <defs>
    <style>
      .st0 {
        stroke: #000;
        stroke-miterlimit: 10;
        stroke-width: 24px;
      }
    </style>
  </defs>
  <path class="st0" d="M2728.96,2848.47c-.02,37.31-28.99,65.24-64.54,65.24l-2453.26.04c-38.8,0-66.04-29.9-66.04-67.84v-547.32c-62.36-20.72-126.01-55.69-132.89-121.2l-.23-116.03c-.01-31.48,20.89-52.89,51.96-58.94l231.09-.69.14-868.73c-120.38-49.52-205.23-161.11-211.78-292.76l-1.13-101.09c2.25-16.34,6.37-30.14,13.27-45.87L374.45,57.62c10.53-24,30.72-43.68,59.14-43.75l464.27-1.15,1538.34-.73c23.55-.01,48.02,13.25,57.46,34.49l115.84,260.57,172.13,392.42c7.19,16.4,9.62,31.93,9.26,49.53l-1.82,106.12c-11.82,125-96.38,230.36-213.6,276.97l-.07,869.49,231.72.59c31.24.08,54.5,26.35,55.88,55.33l-.24,120.72c-6.92,65.68-72.32,99.17-133.56,120.67l-.24,549.57ZM740.41,686.56l53.75-281.39,55.97-289.25-388.95.11-107.97,244.49-142.81,326.06,530.02-.02ZM1394.23,686.55l-.03-570.66-440.57-.04-109.86,570.62,550.47.07ZM2028.94,686.14l-96.03-570.38-438.1-.03.11,570.7,534.02-.28ZM2663.66,686.26l-251.12-570.57-375.05.35,33.79,203.15,62.94,367.38,529.44-.31ZM451.1,1060.35c152.56-2.12,271.9-120.63,276.09-271.05l-542.09-.11c-8.05,76.45,19.13,149.01,75.03,201.16,51.6,48.56,117.66,71.03,190.97,70.01ZM1129.08,1059.98c148.57-7.46,260.51-123.82,263.9-270.8l-564.47-.67c-2.71,70.86,24.56,138.69,74.74,188.54,59.85,60.48,139.74,87.25,225.83,82.92ZM2008.74,929.76c25.5-44.38,38.54-91.69,36.03-140.68l-549.73-.32c-1.74,151.06,121.48,271.13,273.28,270.47,97.61-.43,187.61-44.26,240.42-129.47ZM2688.32,788.85l-541.22.24c3.18,133.23,100.87,246.63,234.65,265.76,54.73,7.83,108.9,2.27,159.2-19.8,100.89-44.27,157.59-136.9,147.37-246.2ZM2072.75,1517.27l21.6,130.16,27.53,1.21c34.3,4.16,54.76,32.55,50.37,66.79l-57.63,286.46,357.89-.13v-843.79c-149.3,18.55-295.14-50.02-373.21-179.89-74.03,121.59-206.38,190.72-347.65,182.59-127.84-4.26-242.95-70.79-309.46-182.12-69.32,119.95-195.41,186.85-333.68,185.65-136.42-1.19-263.89-66.94-333.7-185.74-48.26,79.04-118.8,134.46-204.41,164.52-56.3,18.27-113.68,22.39-172.87,17.41l.09,841.72,1209.7-.32-53.55-287.56c-6.54-35.14,21.9-65.04,54.39-65.86l24.75-.9,22.95-133.96c4.82-28.11,31.31-48.02,60.29-48.01l298.52.14c29.45.01,53.31,22.96,58.07,51.64ZM1991.34,1647.73l-13.78-80.74-228.28.18-14.05,81,256.11-.43ZM2009.44,2001.76l51.89-252.18-397.37.23,48.01,251.97,297.47-.02ZM2628.62,2809.17l.13-546.09c1.48-30.45,21.5-51.39,50.09-57.37,31.5-6.81,59.35-18.32,82.98-41.45l-.69-58.56-2648.37.03-.06,58.08c22.29,22.95,50.78,35.15,82.1,41.02,30.96,5.8,51.92,29.03,52.22,61.06l.42,45.91-.03,497.28,2381.22.07Z"/>
  <path class="st0" d="M2390.82,2431.98l-1904.96-.04c-28.84,0-48.2-26.99-48.17-50.84.02-24.22,19.04-50.87,48.21-50.87h1908.17c29.34,0,47.77,26.81,47.87,50.75.11,27.22-20.48,50.99-51.12,50.99Z"/>
</svg>