<?xml version="1.0" encoding="UTF-8"?>
<svg id="Layer_1" xmlns="http://www.w3.org/2000/svg" version="1.1" viewBox="0 0 2194.5 2946.75">
  <!-- Generator: Adobe Illustrator 30.3.0, SVG Export Plug-In . SVG Version: 2.1.3 Build 182)  -->
  <defs>
    <style>
      .st0 {
        stroke: #000;
        stroke-miterlimit: 10;
        stroke-width: 45px;
      }
    </style>
  </defs>
  <path class="st0" d="M1127.02,2039.15l-60.25.02-227.48,576.37-106.76,271.08c-8.5,21.59-22.4,35.92-45.33,37.48-23.89,1.63-38.79-13.52-50.19-34.83l-191.6-358.11-361.81,129.36c-17.99,6.43-37.33-3.56-47.74-13.74-13-12.71-15.54-29.55-11.76-48.89l214.9-513.27,147.46-348.89c-76.95-78.19-141.42-164.12-188.37-261.36-87.3-180.81-117.08-384.32-89.62-582.9,30.76-242.14,149.67-461.1,332.66-621.43C780.57-27.37,1292.54-63.36,1663.72,197.83c142.58,100.33,255.51,234.89,331.39,391.73,179.45,383.46,114.39,848-185.97,1150.4l138.55,322.66,222.75,532.21c3.04,19.66,2.61,36.34-10.44,50.36-9.49,10.2-30.73,22.11-49.26,15.48l-363.01-129.98-193.72,364.45c-10.6,19.94-28.14,30.88-48.99,28.89-23.12-2.21-34.07-17.06-42.48-38.29l-174.27-439.93-161.26-406.65ZM2010.37,1032.48c0-504.05-408.62-912.67-912.67-912.67S185.03,528.43,185.03,1032.48s408.62,912.67,912.67,912.67,912.67-408.62,912.67-912.67ZM679.55,2778.98l151.69-384.29,143.17-363.94c-59.02-6.92-113.86-19.62-170.31-37.46-126.73-41.88-242.22-105.76-346.75-192.94l-265.62,626.63-48.81,118.15,306.37-109.07c26.49-9.43,53.79,7.42,62.7,32.96l167.56,309.96ZM1681.76,2467.24c12.33-29.87,39.95-39.46,67.96-29.5l304.49,108.27-122.95-293.24-192.22-448.44c-148.47,124.64-325.09,202.91-518.85,227.92l235.59,593.37,59.44,153.26,166.52-311.64Z"/>
  <path class="st0" d="M1096.67,1370.07l-287.06,165.54c-21.12,12.18-45.96,5.72-61.88-8.09-19.32-16.75-20.96-37.01-15.12-62.76l71.84-316.3-241.65-215.12c-17.6-15.67-17.74-43.61-9.68-61.89,9.97-22.62,30.29-29.69,55.41-31.93l309.03-27.64,122.66-280.88c10.7-24.5,27.13-41.07,52.9-42.33,27.18-1.33,47.31,13.59,58.42,38.9l124.99,284.82,309.41,27.1c24.07,2.11,43.25,8.88,53.59,30.48,8.52,17.78,9.34,46.45-8.71,62.61l-241.8,216.49,74.13,326.22c5.31,23.36-5.81,45.13-22.62,56.68-20.19,13.88-42.24,11.86-63.65-.48l-280.2-161.42ZM1118.35,1282.4l243.91,140.46-61.74-272.94c-5.79-19.27-.1-37.51,14.96-50.62l200.74-178.83-279.86-24.43c-17.78-6.78-28.71-20.32-34.5-38.21l-105.1-240.09-103.67,237.5c-5.08,19.86-17.71,35.31-37.48,40.87l-277.55,24.48,195.91,174.78c18.22,13.51,25.8,34.15,18.59,56.04l-61.07,271.44,239.56-138.14c14.08-8.12,31.36-11.5,47.3-2.32Z"/>
</svg>