<?xml version="1.0" encoding="UTF-8"?>
<svg id="Layer_1" data-name="Layer 1" xmlns="http://www.w3.org/2000/svg" viewBox="0 0 2990.38 2000.78">
  <defs>
    <style>
      .cls-1 {
        fill: #010101;
        stroke: #010101;
        stroke-miterlimit: 10;
        stroke-width: 11px;
      }
    </style>
  </defs>
  <path class="cls-1" d="M2915.07,580.61c.72-3.41,1.2-6.86,1.49-10.36,0-72.78.58-145.57-.38-218.3-.72-52.49-32.05-92.07-81.9-105.22-10.08-2.35-20.44-3.5-30.8-3.36-41.6-.38-414.93-1.58-456.48-1.58-6.38.34-12.81.14-19.19-.53-16.5-2.69-28.45-17.22-27.88-33.92.24-17.46,13.58-33.2,31.04-33.59,54.36-.38,440.94-2.64,494.86,3.17,85.69,9.26,157.03,72.88,158.09,177.52,1.1,108.72.58,217.49.62,326.25,0,375.82.1,751.68.34,1127.5,0,47.98-11.23,91.74-44.09,128.29-32.24,37.62-79.45,59.06-129.01,58.58-149.5.48-573.41,0-722.91,0H184.74c-24.8.82-49.51-3.84-72.3-13.72-71.1-32.63-106.56-89.24-106.8-166.97-.43-158.33.29-316.66.29-474.99,0-327.02-.1-654.05-.34-981.12,0-92.31,57.57-163.7,146.72-180.83,5.47-1.2,11.04-1.82,16.6-1.97,51.19,0,586.04,3.17,637.24,3.74,24.28,0,36.66,15.11,34.21,38.77-1.92,18.66-12.81,28.45-34.54,28.79-42.37.53-568.44-3.74-610.8-3.41-8.01,0-16.02-.29-23.99.38-52.78,4.17-96.49,47.98-97.4,101.04-1.3,75.13-.38,150.32-.34,225.5.29,3.5.82,7,1.63,10.41l2840.15-.1ZM73.24,647.25v1168.62c0,61.51,44.76,113.81,110.64,111.98,79.07-2.26,589.21,0,668.28,0h1953.28c21.21,0,41.26-3.26,59.73-14.39,37.38-22.6,51.58-57.09,51.58-99.08V675.18c0-9.31-.53-18.57-.82-28.12l-2842.69.19h0Z"/>
  <path class="cls-1" d="M1055.35,214.92c0,30.32,1.34,60.74-.24,91.16-3.65,68.99-64,133.19-147.82,111.07-46.73-12.28-82.09-57.57-83.1-108.43-1.3-62.23-1.3-124.46,0-186.78,1.01-54.6,41.02-104.07,89.53-113.9,73.74-14.92,139.86,37.71,141.97,113.66.86,31.14,0,62.37,0,93.41l-.34-.19h0ZM988.18,212.86h0v-78.92c.24-8.06-.38-16.07-1.87-23.99-4.8-21.11-23.46-37.86-43.18-39.58s-37.95,9.26-46.78,30.23c-4.51,10.12-7.1,21.01-7.58,32.1-.72,53.45-1.06,106.9.34,160.3.53,14.25,4.61,28.16,11.95,40.4,13.53,22.02,40.54,32.24,67.75,9.98,13-11.04,20.1-27.54,19.19-44.57.19-28.5.24-57.24.24-85.93h-.05Z"/>
  <path class="cls-1" d="M2323.43,214.97v88.66c-.48,59.35-44.09,110.35-99.89,116.78-59.83,6.62-115-32.96-127.82-91.78-2.26-9.31-3.45-18.81-3.6-28.4-.34-56.71-.53-113.42,0-170.18,0-36.27,14.87-70.96,41.21-95.96,40.93-40.88,135.4-43.56,174.07,30.47,10.41,19,15.88,40.3,15.88,61.99-.38,29.55,0,59.11,0,88.66l.14-.24h0ZM2158.77,211.9h0v79.16c-.1,5.61.14,11.18.67,16.74,2.49,24.71,21.54,44.52,46.11,47.98,20.3,2.3,40.93-13.63,48.84-38.38,2.3-6.77,3.55-13.87,3.74-21.01.24-54.36.96-108.72-.62-163.13-.82-15.02-5.42-29.65-13.39-42.41-16.7-26.87-50.81-27.4-71.06-2.88-9.45,11.08-14.54,25.24-14.39,39.77.38,28.4.1,56.37.1,84.15h0Z"/>
  <path class="cls-1" d="M1390.81,243.13h-313.3c-7.92.43-15.83-.53-23.41-2.78-13.19-4.8-21.21-21.3-19.19-35.36,2.59-14.49,13.63-26.05,27.97-29.31,3.21-.24,6.38-.24,9.6,0l1004.06-.14c25.52,0,39.68,15.16,37.23,38.38-1.34,14.83-12.71,26.72-27.44,28.79-5.57.58-11.18.72-16.74.43l-678.76.1s0-.1,0-.1Z"/>
  <path class="cls-1" d="M1585.21,1505.85v212.5c.1,13.58-.86,27.16-2.83,40.59-1.44,14.11-12.47,25.33-26.53,27.06-15.02,1.2-28.79-8.35-32.96-22.79-2.49-9.21-3.65-18.76-3.41-28.31-.38-67.17-.38-134.34-.48-201.51v-27.64h-887.8v237.3c0,26.34-11.75,42.84-30.95,43.18-15.98.43-33.97-15.35-33.59-44.24,1.44-69.52.53-139.14.58-208.66v-28.16c-10.56-.48-19.19-1.15-27.59-1.2h-208.42c-6.38.34-12.81.14-19.19-.62-15.4-3.31-26.48-16.79-26.77-32.53,1.2-15.74,13.48-28.4,29.22-29.99,6.38-.48,12.81-.58,19.19-.29h229.58c5.09-17.9,6.53-295.5,1.63-329.09h-231.4c-5.61,0-11.23.29-16.79,0-18.47-1.34-31.28-13.39-31.81-29.55.58-15.74,11.8-29.03,27.2-32.24,7.1-1.1,14.3-1.49,21.49-1.15h232.65c.53-9.6,1.3-18.28,1.3-26.72v-184.72c-.29-7.15.29-14.35,1.78-21.35,4.56-16.7,21.83-26.58,38.53-22.02,11.9,3.26,20.82,13.19,22.74,25.43.67,6.38.86,12.81.58,19.19v205.49c18.28,5.66,843.37,7.53,886.22,2.45.38-8.01,1.2-16.46,1.25-24.9,0-59.16,0-118.32.29-177.52-.24-8.01.24-16.02,1.39-23.99,3.26-18.18,16.7-29.46,32.87-28.79,16.17.67,28.16,13.39,29.08,32.24,1.34,27.16,2.16,54.36,2.4,81.56.38,47.02,0,93.99,0,142.21h726.05v-206.31c-.24-7.96.48-15.93,2.16-23.7,2.16-17.75,18.28-30.37,35.98-28.21,16.07,1.97,28.21,15.5,28.45,31.67.77,7.15,1.01,14.35.67,21.54v204.77c10.36.48,18.14,1.15,25.91,1.15h203.86c6.38-.24,12.81-.14,19.19.38,19.19,2.45,30.8,15.98,29.99,34.02-.77,17.03-12.43,27.97-31.86,28.79-19.43.82-40.01.24-59.97.24h-185.87v329.23h230.83c7.2-.38,14.35-.1,21.49.77,16.98,3.36,28.02,19.82,24.66,36.8-2.4,12.19-11.8,21.83-23.89,24.52-7.1,1.15-14.3,1.54-21.45,1.15h-233.22v233.75c.24,9.5-1.2,18.95-4.17,27.97-4.27,12.71-16.36,21.11-29.75,20.73-14.11-.58-26.15-10.32-29.7-23.99-2.11-9.31-3.02-18.9-2.69-28.45v-223.05c-.34-1.73-.86-3.45-1.63-5.04h-724.47v.05ZM1517.75,1113.19h-884.97v326.25h884.97v-326.25ZM1586.65,1113.19c-6.33,22.65-4.17,303.27,2.49,326.02,39.25,4.8,703.55,3.02,720.2-2.06v-324.38l-722.69.43h0Z"/>
</svg>