<?xml version="1.0" encoding="UTF-8"?>
<svg id="Layer_1" data-name="Layer 1" xmlns="http://www.w3.org/2000/svg" viewBox="0 0 3005 2996.5">
  <defs>
    <style>
      .cls-1 {
        fill: #010101;
        stroke: #010101;
        stroke-miterlimit: 10;
        stroke-width: 5px;
      }
    </style>
  </defs>
  <path class="cls-1" d="M2892.81,906.19c1.13-5.35,1.88-10.78,2.34-16.28,0-114.37.9-228.73-.6-343.03-1.13-82.48-50.36-144.67-128.69-165.33-15.83-3.69-32.12-5.5-48.4-5.28-65.36-.6-220.89-2.49-286.18-2.49-10.03.53-20.13.23-30.16-.83-25.93-4.22-44.71-27.07-43.8-53.3.38-27.44,21.34-52.17,48.78-52.77,85.42-.6,261.76-4.15,346.49,4.98,134.65,14.55,246.75,114.52,248.41,278.94,1.73,170.83.9,341.74.98,512.65,0,590.53.15,1046.03.53,1636.57,0,75.39-17.64,144.15-69.28,201.59-50.66,59.11-124.85,92.81-202.72,92.05-234.92.75-469.91,0-704.82,0H284.15c-38.98,1.28-77.8-6.03-113.61-21.56-111.73-51.27-167.44-140.23-167.82-262.36-.68-248.79.45-362.47.45-611.26,0-513.86-.15-1027.72-.53-1541.66,0-145.05,90.47-257.23,230.54-284.15,8.59-1.88,17.34-2.86,26.09-3.09,80.44,0,243.81,4.98,324.25,5.88,38.15,0,57.6,23.75,53.75,60.92-3.02,29.33-20.13,44.71-54.28,45.23-66.57.83-216.14-5.88-282.71-5.35-12.59,0-25.18-.45-37.7.6-82.93,6.56-151.61,75.39-153.04,158.77-2.04,118.06-.6,236.2-.53,354.33.45,5.5,1.28,11.01,2.56,16.36l2781.23-.15ZM108.94,1010.91v1701.18c0,96.65,70.34,178.83,173.85,175.96,124.24-3.54,248.79,0,373.03,0h2064.72c33.32,0,64.84-5.13,93.86-22.62,58.73-35.51,81.04-89.71,81.04-155.68v-1654.96c0-14.63-.83-29.18-1.28-44.18l-2785.22.3h0Z"/>
  <path class="cls-1" d="M975.1,331.57c0,47.65,2.11,95.44-.38,143.24-5.73,108.41-100.57,209.28-232.28,174.53-73.43-19.3-128.99-90.47-130.58-170.38-2.04-97.78-2.04-195.56,0-293.49,1.58-85.79,64.46-163.52,140.68-178.98,115.87-23.45,219.76,59.26,223.08,178.6,1.36,48.93,0,98.01,0,146.79l-.53-.3h0ZM869.56,328.32h0v-124.02c.38-12.67-.6-25.26-2.94-37.7-7.54-33.17-36.87-59.48-67.85-62.2s-59.63,14.55-73.51,47.5c-7.09,15.91-11.16,33.02-11.91,50.44-1.13,83.98-1.66,167.97.53,251.88.83,22.39,7.24,44.25,18.77,63.48,21.26,34.6,63.7,50.66,106.45,15.68,20.43-17.34,31.59-43.27,30.16-70.04.3-44.78.38-89.94.38-135.02h-.08Z"/>
  <path class="cls-1" d="M2394.25,331.64v139.32c-.75,93.26-69.28,173.4-156.96,183.5-94.01,10.4-180.71-51.79-200.84-144.22-3.54-14.63-5.43-29.55-5.65-44.63-.53-89.11-.83-178.22,0-267.41,0-57,23.37-111.5,64.76-150.78,64.31-64.23,212.75-68.45,273.52,47.87,16.36,29.85,24.95,63.33,24.95,97.4-.6,46.44,0,92.88,0,139.32l.23-.38h0ZM2135.51,326.82h0v124.39c-.15,8.82.23,17.57,1.06,26.31,3.92,38.83,33.85,69.96,72.45,75.39,31.89,3.62,64.31-21.41,76.75-60.31,3.62-10.63,5.58-21.79,5.88-33.02.38-85.42,1.51-170.83-.98-256.33-1.28-23.6-8.52-46.59-21.03-66.65-26.24-42.22-79.84-43.05-111.65-4.52-14.85,17.42-22.84,39.66-22.62,62.5.6,44.63.15,88.58.15,132.23h0Z"/>
  <path class="cls-1" d="M1502.23,375.9h-492.3c-12.44.68-24.88-.83-36.79-4.37-20.73-7.54-33.32-33.47-30.16-55.56,4.07-22.77,21.41-40.94,43.95-46.06,5.05-.38,10.03-.38,15.08,0l1004.28-.23c40.11,0,62.35,23.82,58.5,60.31-2.11,23.3-19.98,41.99-43.12,45.23-8.75.9-17.57,1.13-26.31.68l-493.13.15s0-.15,0-.15Z"/>
  <path class="cls-1" d="M1551.46,2292.49v333.9c.15,21.34-1.36,42.67-4.45,63.78-2.26,22.16-19.6,39.81-41.69,42.52-23.6,1.88-45.23-13.12-51.79-35.81-3.92-14.48-5.73-29.48-5.35-44.48-.6-105.55-.6-211.09-.75-316.64v-43.42h-549.14v372.88c0,41.39-18.47,67.32-48.63,67.85-25.11.68-53.38-24.13-52.77-69.51,2.26-109.24.83-218.63.9-327.87v-44.25c-16.59-.75-30.16-1.81-43.35-1.88h-327.5c-10.03.53-20.13.23-30.16-.98-24.2-5.2-41.62-26.39-42.07-51.11,1.88-24.73,21.18-44.63,45.91-47.12,10.03-.75,20.13-.9,30.16-.45h360.74c7.99-28.12,10.25-464.33,2.56-517.1h-363.61c-8.82,0-17.64.45-26.39,0-29.03-2.11-49.15-21.03-49.98-46.44.9-24.73,18.55-45.61,42.75-50.66,11.16-1.73,22.47-2.34,33.77-1.81h365.57c.83-15.08,2.04-28.72,2.04-41.99v-290.25c-.45-11.23.45-22.54,2.79-33.55,7.16-26.24,34.3-41.77,60.54-34.6,18.7,5.13,32.72,20.73,35.74,39.96,1.06,10.03,1.36,20.13.9,30.16v322.9c28.72,8.9,479.33,11.84,546.66,3.84.6-12.59,1.88-25.86,1.96-39.13,0-92.96,0-185.91.45-278.94-.38-12.59.38-25.18,2.19-37.7,5.13-28.57,26.24-46.29,51.64-45.23,25.41,1.06,44.25,21.03,45.69,50.66,2.11,42.67,3.39,85.42,3.77,128.16.6,73.88,0,147.69,0,223.46h545.68v-324.18c-.38-12.51.75-25.03,3.39-37.24,3.39-27.89,28.72-47.72,56.54-44.33,25.26,3.09,44.33,24.35,44.71,49.76,1.21,11.23,1.58,22.54,1.06,33.85v321.77c16.28.75,28.5,1.81,40.71,1.81h320.33c10.03-.38,20.13-.23,30.16.6,30.16,3.84,48.4,25.1,47.12,53.45-1.21,26.76-19.53,43.95-50.06,45.23s-62.88.38-94.24.38h-292.06v517.33h362.7c11.31-.6,22.54-.15,33.77,1.21,26.69,5.28,44.03,31.14,38.75,57.82-3.77,19.15-18.55,34.3-37.54,38.52-11.16,1.81-22.47,2.41-33.7,1.81h-366.47v367.3c.38,14.93-1.88,29.78-6.56,43.95-6.71,19.98-25.71,33.17-46.74,32.57-22.16-.9-41.09-16.21-46.67-37.7-3.32-14.63-4.75-29.7-4.22-44.71v-350.49c-.53-2.71-1.36-5.43-2.56-7.92h-543.19v.08ZM1445.46,1675.5h-544.7v512.65h544.7v-512.65ZM1553.72,1675.5c-9.95,35.58-6.56,476.54,3.92,512.28,61.67,7.54,510.32,4.75,536.48-3.24v-509.71l-540.4.68h0Z"/>
</svg>