<?xml version="1.0" encoding="UTF-8"?>
<svg id="Layer_1" data-name="Layer 1" xmlns="http://www.w3.org/2000/svg" viewBox="0 0 1178.95 508.3">
  <defs>
    <style>
      .cls-1 {
        fill: none;
        stroke: #000;
        stroke-miterlimit: 10;
        stroke-width: 34px;
      }
    </style>
  </defs>
  <g>
    <rect class="cls-1" x="28.1" y="49.21" width="304.15" height="435.19" rx="35.17" ry="35.17" transform="translate(-16.22 11.7) rotate(-3.56)"/>
    <rect class="cls-1" x="164.13" y="17.73" width="5.31" height="67.64" rx="1.16" ry="1.16" transform="translate(-2.88 10.45) rotate(-3.56)"/>
    <path d="M190.18,480.85l-131.26,8.16c-2.87.31-5.75.39-8.63.22-5.88-.59-10.44-3.94-10.69-9.29-.94-20.67-5.24-41.3-.5-62.09,10.4-47.29,51.18-84.94,99.01-90.67,6.31-.62,12.69-.04,18.79,1.71,15.75,4.89,32.73,3.99,47.87-2.55,10.03-4.39,20.72-4.44,31.15-3.35,49.31,5.18,91.97,40.6,101.37,91.84,2.63,14.38,2.72,29.18,3.29,43.96.28,7.48-4.86,12.31-12.51,13.4-2.51.34-5.1.32-7.66.48l-65.15,4.05-65.1,4.05v.08ZM315.92,447.92c-.63-10.05-.09-19.5-1.98-28.43-6.26-29.39-23.74-50.53-50.28-64.12-10.6-5.35-22.17-8.51-34.01-9.3-7.59-.57-14.41,2.07-21.33,4.64-18.83,6.99-37.89,8.97-57.24,2.12-7.34-2.61-14.49-1.23-21.68.65-23.42,6.1-41.13,20.06-54.29,40.01-14.15,21.37-17.53,44.69-12.02,70.13l252.84-15.7Z"/>
    <path d="M270.26,213.68c3.62,45.78-30.23,96.58-90.6,100.23-52.11,2.76-96.73-36.96-100.03-89.04-3.16-50.82,37.5-95.99,88.89-99.43,60.34-4.13,99.49,44.88,101.74,88.24ZM180.72,290.12c35.45-2.37,67.76-33.27,65.3-74.13-2.46-39.47-34.61-69.15-74.82-66.51-42.36,2.77-69.51,36.53-67.43,74.16,2.33,39.13,35.95,68.96,75.08,66.62.63-.04,1.25-.08,1.88-.14h0Z"/>
  </g>
  <g>
    <rect class="cls-1" x="443.48" y="48.89" width="304.15" height="435.19" rx="35.17" ry="35.17"/>
    <rect class="cls-1" x="592.9" y="17" width="5.31" height="67.64" rx="1.16" ry="1.16"/>
    <path d="M592.24,480.74h-131.51c-2.88.13-5.77.03-8.63-.32-5.83-.96-10.17-4.58-10.09-9.93.35-20.69-2.66-41.55,3.36-62,13.32-46.55,56.35-81.6,104.45-84.34,6.34-.23,12.67.75,18.64,2.88,15.42,5.86,32.42,6.01,47.94.43,10.28-3.76,20.96-3.14,31.29-1.41,48.9,8.23,89.27,46.23,95.48,97.95,1.73,14.51.91,29.3.56,44.08-.19,7.48-5.62,11.98-13.32,12.6-2.53.19-5.11,0-7.67,0h-130.5v.08ZM719.79,455.68c0-10.07,1.12-19.47-.21-28.5-4.42-29.72-20.56-51.91-46.21-67.11-10.25-5.99-21.6-9.87-33.37-11.4-7.54-1.04-14.51,1.17-21.57,3.3-19.23,5.81-38.38,6.6-57.26-1.44-7.16-3.06-14.38-2.13-21.68-.69-23.76,4.63-42.29,17.47-56.67,36.57-15.45,20.45-20.27,43.52-16.35,69.24l253.33.03Z"/>
    <path d="M688.76,219.06c.77,45.91-36.17,94.52-96.65,94.41-52.18-.48-94.25-42.89-94.31-95.08,0-50.92,43.38-93.48,94.89-93.72,60.48-.37,96.52,50.97,96.06,94.39ZM594.64,289.79c35.53-.16,69.7-29,69.78-69.94,0-39.55-30.25-71.16-70.55-71.03-42.45.13-71.64,32.15-71.91,69.83-.1,39.2,31.6,71.06,70.79,71.16.63,0,1.26,0,1.89-.02h0Z"/>
  </g>
  <g>
    <rect class="cls-1" x="846.5" y="48.49" width="304.15" height="435.19" rx="35.17" ry="35.17" transform="translate(18.83 -62.62) rotate(3.63)"/>
    <rect class="cls-1" x="1009.56" y="17.03" width="5.31" height="67.64" rx="1.16" ry="1.16" transform="translate(5.24 -63.92) rotate(3.63)"/>
    <path d="M981.72,479.7c-43.75-2.77-87.5-5.55-131.25-8.32-2.88-.05-5.76-.34-8.59-.86-5.76-1.33-9.86-5.22-9.45-10.55,1.65-20.63-.03-41.63,7.27-61.66,16.23-45.62,61.4-77.87,109.58-77.57,6.34.17,12.59,1.55,18.42,4.05,15.01,6.83,31.98,8.05,47.82,3.46,10.5-3.1,21.12-1.81,31.32.57,48.28,11.31,86.17,51.79,89.09,103.8.81,14.6-.95,29.29-2.23,44.02-.66,7.46-6.37,11.61-14.09,11.73-2.54.03-5.1-.32-7.65-.49l-65.15-4.13-65.09-4.13v.08ZM1110.59,462.75c.64-10.05,2.35-19.36,1.59-28.45-2.53-29.94-17.24-53.1-41.87-69.9-9.85-6.63-20.93-11.22-32.58-13.49-7.46-1.51-14.56.25-21.74,1.93-19.56,4.58-38.72,4.16-57.05-5.06-6.96-3.51-14.22-3.04-21.59-2.06-24,3.12-43.31,14.76-58.87,32.91-16.71,19.44-22.98,42.15-20.7,68.07l252.82,16.05Z"/>
    <path d="M1094.59,224.65c-2.13,45.87-42.07,92.04-102.43,88.11-52.05-3.78-91.35-48.77-88.1-100.85,3.22-50.82,49.21-90.55,100.63-87.53,60.38,3.45,93.1,56.98,89.9,100.27ZM996.19,289.29c35.47,2.09,71.39-24.54,74.06-65.38,2.5-39.47-25.69-72.93-65.92-75.35-42.38-2.55-73.53,27.55-76.18,65.14-2.58,39.11,27.04,72.91,66.15,75.49.63.04,1.25.07,1.88.1h0Z"/>
  </g>
</svg>