<?xml version="1.0" encoding="UTF-8"?>
<svg id="Layer_1" xmlns="http://www.w3.org/2000/svg" version="1.1" viewBox="0 0 3000 2000">
  <!-- Generator: Adobe Illustrator 30.3.0, SVG Export Plug-In . SVG Version: 2.1.3 Build 182)  -->
  <defs>
    <style>
      .st0 {
        fill: #010101;
      }

      .st1 {
        stroke-miterlimit: 10;
        stroke-width: 34px;
      }

      .st1, .st2, .st3 {
        fill: none;
        stroke: #010101;
      }

      .st2 {
        stroke-miterlimit: 10;
        stroke-width: 34px;
      }

      .st3 {
        stroke-miterlimit: 10;
        stroke-width: 34px;
      }
    </style>
  </defs>
  <g>
    <path class="st2" d="M53.62,141.18l712.06-44.3c19.39-1.21,36.08,13.53,37.29,32.92l65.27,1135.59c1.21,19.39-13.53,36.08-32.92,37.29l-712.06,44.3c-19.39,1.21-36.08-13.53-37.29-32.92L20.7,178.46c-1.21-19.39,13.53-36.08,32.92-37.29Z"/>
    <rect class="st2" x="403.12" y="36.81" width="13.68" height="174.3" rx="1.16" ry="1.16" transform="translate(-6.91 25.7) rotate(-3.56)"/>
    <path class="st0" d="M470.25,1316.76l-338.25,21.03c-7.4.8-14.82,1.01-22.24.57-15.15-1.52-26.9-10.15-27.55-23.94-2.42-53.27-13.5-106.43-1.29-160,26.8-121.86,131.89-218.89,255.14-233.65,16.26-1.6,32.7-.1,48.42,4.41,40.59,12.6,84.34,10.28,123.36-6.57,25.85-11.31,53.39-11.44,80.27-8.63,127.07,13.35,237,104.62,261.22,236.67,6.78,37.06,7.01,75.2,8.48,113.28.72,19.28-12.52,31.72-32.24,34.53-6.47.88-13.14.82-19.74,1.24l-167.89,10.44-167.76,10.44v.21h.05ZM794.27,1231.9c-1.62-25.9-.23-50.25-5.1-73.26-16.13-75.74-61.18-130.21-129.57-165.23-27.32-13.79-57.13-21.93-87.64-23.97-19.56-1.47-37.13,5.33-54.97,11.96-48.52,18.01-97.64,23.12-147.5,5.46-18.91-6.73-37.34-3.17-55.87,1.67-60.35,15.72-105.99,51.69-139.9,103.1-36.46,55.07-45.17,115.16-30.97,180.72l651.55-40.46h-.03Z"/>
    <path class="st0" d="M676.61,628.28c9.33,117.97-77.9,248.88-233.47,258.29-134.28,7.11-249.27-95.24-257.77-229.45-8.14-130.96,96.64-247.36,229.06-256.23,155.49-10.64,256.38,115.65,262.18,227.39ZM445.87,825.26c91.35-6.11,174.61-85.73,168.27-191.03-6.34-101.71-89.19-178.2-192.81-171.39-109.16,7.14-179.12,94.14-173.76,191.11,6,100.84,92.64,177.71,193.48,171.68,1.62-.1,3.22-.21,4.84-.36h-.03Z"/>
  </g>
  <g>
    <rect class="st1" x="1122.99" y="117.13" width="783.78" height="1207.96" rx="35.17" ry="35.17"/>
    <rect class="st1" x="1508.04" y="34.95" width="13.68" height="174.3" rx="1.16" ry="1.16"/>
    <path class="st0" d="M1506.34,1316.48h-338.89c-7.42.34-14.87.08-22.24-.82-15.02-2.47-26.21-11.8-26-25.59.9-53.32-6.85-107.07,8.66-159.77,34.32-119.96,145.21-210.28,269.16-217.34,16.34-.59,32.65,1.93,48.03,7.42,39.74,15.1,83.54,15.49,123.54,1.11,26.49-9.69,54.01-8.09,80.63-3.63,126.01,21.21,230.04,119.13,246.05,252.41,4.46,37.39,2.34,75.5,1.44,113.59-.49,19.28-14.48,30.87-34.32,32.47-6.52.49-13.17,0-19.77,0h-336.29v.21-.05ZM1835.02,1251.9c0-25.95,2.89-50.17-.54-73.44-11.39-76.59-52.98-133.77-119.08-172.94-26.41-15.44-55.66-25.43-85.99-29.38-19.43-2.68-37.39,3.02-55.58,8.5-49.55,14.97-98.9,17.01-147.56-3.71-18.45-7.89-37.06-5.49-55.87-1.78-61.23,11.93-108.98,45.02-146.04,94.24-39.81,52.7-52.23,112.15-42.13,178.43l652.82.08h-.03Z"/>
    <path class="st0" d="M1755.06,642.14c1.98,118.31-93.21,243.57-249.06,243.29-134.46-1.24-242.88-110.52-243.03-245.02,0-131.22,111.79-240.89,244.53-241.51,155.85-.95,248.73,131.35,247.54,243.24h.03ZM1512.52,824.41c91.56-.41,179.61-74.73,179.82-180.23,0-101.92-77.95-183.38-181.8-183.04-109.39.34-184.61,82.85-185.31,179.95-.26,101.02,81.43,183.12,182.42,183.38,1.62,0,3.25,0,4.87-.05h0Z"/>
  </g>
  <g>
    <path class="st3" d="M2232.88,94.81l712.01,45.17c19.38,1.23,34.1,17.94,32.87,37.33l-66.55,1135.51c-1.23,19.38-17.94,34.1-37.33,32.87l-712.01-45.17c-19.38-1.23-34.1-17.94-32.87-37.33l66.55-1135.51c1.23-19.38,17.94-34.1,37.33-32.87Z"/>
    <rect class="st3" x="2501.41" y="115.5" width="174.3" height="13.68" rx="1.16" ry="1.16" transform="translate(2302.57 2697.96) rotate(-86.37)"/>
    <path class="st0" d="M2510,1313.8c-112.74-7.14-225.48-14.3-338.22-21.44-7.42-.13-14.84-.88-22.14-2.22-14.84-3.43-25.41-13.45-24.35-27.19,4.25-53.16-.08-107.28,18.73-158.89,41.82-117.56,158.22-200.67,282.38-199.89,16.34.44,32.44,3.99,47.47,10.44,38.68,17.6,82.41,20.74,123.23,8.92,27.06-7.99,54.43-4.66,80.71,1.47,124.41,29.15,222.06,133.46,229.58,267.49,2.09,37.62-2.45,75.48-5.75,113.44-1.7,19.22-16.42,29.92-36.31,30.23-6.55.08-13.14-.82-19.71-1.26l-167.89-10.64-167.73-10.64v.21h0ZM2842.09,1270.12c1.65-25.9,6.06-49.89,4.1-73.31-6.52-77.15-44.43-136.84-107.9-180.13-25.38-17.09-53.94-28.91-83.96-34.76-19.22-3.89-37.52.64-56.02,4.97-50.4,11.8-99.78,10.72-147.01-13.04-17.94-9.05-36.64-7.83-55.64-5.31-61.85,8.04-111.61,38.04-151.7,84.81-43.06,50.1-59.22,108.62-53.34,175.41l651.5,41.36h-.03Z"/>
    <path class="st0" d="M2800.86,656.55c-5.49,118.2-108.41,237.18-263.96,227.05-134.13-9.74-235.4-125.68-227.03-259.88,8.3-130.96,126.81-233.34,259.32-225.56,155.6,8.89,239.91,146.83,231.67,258.39ZM2547.29,823.12c91.4,5.39,183.97-63.24,190.85-168.48,6.44-101.71-66.2-187.94-169.87-194.17-109.21-6.57-189.48,70.99-196.31,167.86-6.65,100.78,69.68,187.88,170.46,194.53,1.62.1,3.22.18,4.84.26h.03Z"/>
  </g>
  <g>
    <path class="st2" d="M123.4,1511.87l712.06-44.3c19.39-1.21,36.08,13.53,37.29,32.92l10.26,371.17c1.21,19.39-13.53,36.08-32.92,37.29l-712.06,44.3c-19.39,1.21-36.08-13.53-37.29-32.92l-10.26-371.17c-1.21-19.39,13.53-36.08,32.92-37.29Z"/>
    <rect class="st2" x="472.9" y="1407.5" width="13.68" height="174.3" rx="1.16" ry="1.16" transform="translate(-91.88 32.67) rotate(-3.56)"/>
  </g>
  <g>
    <rect class="st1" x="1129.83" y="1515.59" width="783.78" height="463.82" rx="35.17" ry="35.17"/>
    <rect class="st1" x="1514.88" y="1433.41" width="13.68" height="174.3" rx="1.16" ry="1.16"/>
  </g>
  <g>
    <path class="st3" d="M2151.38,1454.18l712.01,45.17c19.38,1.23,34.1,17.94,32.87,37.33l-33.24,383.69c-1.23,19.38-17.94,34.1-37.33,32.87l-712.01-45.17c-19.38-1.23-34.1-17.94-32.87-37.33l33.24-383.69c1.23-19.38,17.94-34.1,37.33-32.87Z"/>
    <rect class="st3" x="2419.91" y="1474.87" width="174.3" height="13.68" rx="1.16" ry="1.16" transform="translate(869.59 3889.93) rotate(-86.37)"/>
  </g>
</svg>