<?xml version="1.0" encoding="UTF-8"?>
<svg id="Layer_1" data-name="Layer 1" xmlns="http://www.w3.org/2000/svg" viewBox="0 0 2999.9 3016.63">
  <defs>
    <style>
      .cls-1 {
        fill: #020202;
      }

      .cls-2 {
        fill: none;
        stroke: #020202;
        stroke-miterlimit: 10;
        stroke-width: 75px;
      }

      .cls-3 {
        stroke: #000;
        stroke-miterlimit: 10;
        stroke-width: 7px;
      }
    </style>
  </defs>
  <g>
    <path class="cls-2" d="M37.5,1331.5l1.89-1255.37c.02-21.35,17.35-38.65,38.7-38.63l1288.63,1.2c21.35.02,38.65,17.35,38.63,38.7l-1.89,1255.37c-.02,21.35-17.35,38.65-38.7,38.63l-1288.63-1.2c-21.35-.02-38.65-17.35-38.63-38.7Z"/>
    <path class="cls-1" d="M145.99,1380.42c1.82-66.49-9.16-133.48,14.28-199.29,51.91-149.81,216.88-263.16,400.42-272.76,24.19-.84,48.31,2.19,71.03,8.94,58.69,18.58,123.52,18.78,182.86.58,39.3-12.26,80.03-10.44,119.39-5.05,186.34,25.64,339.43,147.07,361.92,313.17,6.26,46.6,2.77,94.13,1.09,141.64l-1150.99,12.76ZM718.8,1410.85v.02M718.82,1410.93,1238.59,1332.79c.87-228.25-113.2-272.24-210.69-320.66-38.96-19.08-78.96-21.75-123.82-26.47-28.75-3.22-55.37,4.01-82.35,10.95-73.49,18.99-146.56,21.85-218.39-3.67-27.24-9.71-54.81-6.61-82.69-1.85-90.75,15.27-167.45,48.14-222.77,109.76-59.41,65.98-92.89,149.35-78.55,231.94"/>
    <path class="cls-1" d="M1070.02,525.22c2.69,171.31-135.31,352.54-360.97,351.91-194.7-1.99-351.52-160.37-351.55-355.12.18-189.99,162.21-348.64,354.42-349.35,225.66-1.16,359.96,190.54,358.08,352.55h.05s-.02,0-.02,0h0ZM718.57,788.79c132.57-.46,260.17-107.95,260.62-260.71.15-147.57-112.61-265.64-262.98-265.29-158.39.34-267.42,119.7-268.57,260.29-.52,146.27,117.65,265.26,263.87,265.78,2.35,0,4.71,0,7.05-.06h0v-.02h0Z"/>
  </g>
  <path class="cls-3" d="M2309.49,945.1c69.67-73.49,122.29-130.22,176.38-185.34,120.23-121.26,241.49-241.64,362.31-362.31,9.11-9.55,18.96-18.37,29.4-26.46,34.69-26.31,69.37-27.04,94.8-2.94,29.4,26.02,32.19,70.99,6.32,100.39-1.03,1.03-1.91,2.2-3.09,3.23-33.36,36.89-68.35,72.31-103.62,107.3-155.06,153.89-310.28,307.63-465.78,461.22-7.79,7.5-14.7,14.7-23.66,22.19-55.71,48.06-88.19,47.62-140.37-3.67-83.48-81.72-166.82-163.74-249.87-246.19-19.25-17.49-37.19-36.16-53.79-56-21.31-23.66-20.43-59.82,2.2-82.31,28.51-34.1,67.61-38.07,102.89-7.35,32.48,28.66,63.5,58.79,93.04,90.39,54.82,58.06,108.32,117.58,172.85,187.84h0Z"/>
  <path class="cls-3" d="M2309.49,2536.28c69.67-73.49,122.29-130.22,176.38-185.34,120.23-121.26,241.49-241.64,362.31-362.31,9.11-9.55,18.96-18.37,29.4-26.46,34.69-26.31,69.37-27.04,94.8-2.94,29.4,26.02,32.19,70.99,6.32,100.39-1.03,1.03-1.91,2.2-3.09,3.23-33.36,36.89-68.35,72.31-103.62,107.3-155.06,153.89-310.28,307.63-465.78,461.22-7.79,7.5-14.7,14.7-23.66,22.19-55.71,48.06-88.19,47.62-140.37-3.67-83.48-81.72-166.82-163.74-249.87-246.19-19.25-17.49-37.19-36.16-53.79-56-21.31-23.66-20.43-59.82,2.2-82.31,28.51-34.1,67.61-38.07,102.89-7.35,32.48,28.66,63.5,58.79,93.04,90.39,54.82,58.06,108.32,117.58,172.85,187.84h0Z"/>
  <g>
    <path class="cls-2" d="M37.5,2937.2l1.89-1255.37c.02-21.35,17.35-38.65,38.7-38.63l1288.63,1.2c21.35.02,38.65,17.35,38.63,38.7l-1.89,1255.37c-.02,21.35-17.35,38.65-38.7,38.63l-1288.63-1.2c-21.35-.02-38.65-17.35-38.63-38.7Z"/>
    <path class="cls-1" d="M145.99,2986.12c1.82-66.49-9.16-133.48,14.28-199.29,51.91-149.81,216.88-263.16,400.42-272.76,24.19-.84,48.31,2.19,71.03,8.94,58.69,18.58,123.52,18.78,182.86.58,39.3-12.26,80.03-10.44,119.39-5.05,186.34,25.64,339.43,147.07,361.92,313.17,6.26,46.6,2.77,94.13,1.09,141.64l-1150.99,12.76ZM718.8,3016.55v.02M718.82,3016.63,1238.59,2938.49c.87-228.25-113.2-272.24-210.69-320.66-38.96-19.08-78.96-21.75-123.82-26.47-28.75-3.22-55.37,4.01-82.35,10.95-73.49,18.99-146.56,21.85-218.39-3.67-27.24-9.71-54.81-6.61-82.69-1.85-90.75,15.27-167.45,48.14-222.77,109.76-59.41,65.98-92.89,149.35-78.55,231.94"/>
    <path class="cls-1" d="M1070.02,2130.92c2.69,171.31-135.31,352.54-360.97,351.91-194.7-1.99-351.52-160.37-351.55-355.12.18-189.99,162.21-348.64,354.42-349.35,225.66-1.16,359.96,190.54,358.08,352.55h.05s-.02,0-.02,0h0ZM718.57,2394.49c132.57-.46,260.17-107.95,260.62-260.71.15-147.57-112.61-265.64-262.98-265.29-158.39.34-267.42,119.7-268.57,260.29-.52,146.27,117.65,265.26,263.87,265.78,2.35,0,4.71,0,7.05-.06h0v-.02h0Z"/>
  </g>
</svg>