<?xml version="1.0" encoding="UTF-8"?>
<svg id="Layer_1" xmlns="http://www.w3.org/2000/svg" version="1.1" viewBox="0 0 2992.58 2997.86">
  <!-- Generator: Adobe Illustrator 30.3.0, SVG Export Plug-In . SVG Version: 2.1.3 Build 182)  -->
  <defs>
    <style>
      .st0 {
        fill: #020202;
      }

      .st1 {
        stroke-miterlimit: 10;
      }

      .st1, .st2 {
        fill: none;
        stroke: #020202;
        stroke-width: 75px;
      }

      .st2 {
        stroke-miterlimit: 10;
      }
    </style>
  </defs>
  <g>
    <rect class="st1" x="-270.68" y="498.45" width="1914.99" height="1242.54" rx="35.17" ry="35.17" transform="translate(-455.52 1768.24) rotate(-88.06)"/>
    <rect class="st1" x="580.8" y="159.8" width="276.32" height="21.69" rx="1.16" ry="1.16" transform="translate(524.08 883.41) rotate(-88.06)"/>
    <path class="st0" d="M651.15,2086.88l-549.02-18.63c-12.04.14-24.09-.69-35.98-2.56-24.2-4.82-41.81-20.56-40.72-42.89,4.39-86.33-5.21-173.84,22.81-258.36,62.2-192.45,246.81-332.69,448-337.31,26.5-.06,52.79,4.92,77.4,14.66,63.55,26.65,134.49,29.69,200.08,8.58,43.45-14.25,87.95-10.14,130.83-1.45,202.98,41.29,366.13,205.64,384.75,422.45,5.17,60.82-.36,122.44-3.91,184.11-1.85,31.21-25.16,49.21-57.38,50.71-10.59.43-21.34-.72-32.03-1.09l-544.81-18.48v.34-.1h-.02ZM1187.18,2000.31c1.43-42.04,7.44-81.12,3.16-119.01-14.25-124.71-78.48-219.63-183.42-286.72-41.94-26.46-88.78-44.26-137.7-52.32-31.34-5.41-60.74,2.84-90.51,10.71-81.1,21.53-161.16,22.12-238.85-14.12-29.46-13.79-59.74-10.93-90.42-5.95-99.86,15.96-179.03,66.94-241.78,144.65-67.39,83.19-90.78,178.82-78.06,286.76l1057.62,36h-.05.01Z"/>
    <path class="st0" d="M1071.55,1007.54c-3.23,187.56-160.77,380.9-407.69,372.08-212.98-9.2-378.88-188.16-371.89-401.27,7.05-207.9,190.07-375.66,400.42-369.51,246.98,6.87,387.03,221.48,379.13,398.69h.05-.02ZM677.46,1283.29c145.09,4.27,288.59-108.75,294.59-275.89,5.48-161.48-113.65-294.74-278.21-299.78-173.33-5.34-296.95,121.35-303.27,275.15-5.84,160.04,119.18,294.51,279.17,300.35,2.57.09,5.15.18,7.72.19h0v-.02h0Z"/>
  </g>
  <g>
    <rect class="st2" x="41.46" y="2357.57" width="1242.54" height="578.55" rx="35.17" ry="35.17" transform="translate(-90.14 24.22) rotate(-1.96)"/>
    <rect class="st2" x="642.25" y="2227.46" width="21.69" height="276.32" rx="1.16" ry="1.16" transform="translate(-80.53 23.72) rotate(-1.96)"/>
  </g>
  <g>
    <rect class="st2" x="1678.39" y="163.04" width="1242.54" height="1914.99" rx="35.17" ry="35.17" transform="translate(-36.98 79.31) rotate(-1.96)"/>
    <rect class="st2" x="2256.35" y="33.32" width="21.69" height="276.32" rx="1.16" ry="1.16" transform="translate(-4.54 77.64) rotate(-1.96)"/>
    <path class="st0" d="M2330.06,2087.74l-549.02,18.82c-12,.97-24.08.96-36.07-.09-24.47-3.17-43.12-17.66-43.54-40.02-1.5-86.43-17.04-173.08,5.16-259.32,48.94-196.25,223.57-348.73,423.99-367.05,26.44-1.86,53,1.31,78.22,9.35,65.22,22.26,136.2,20.45,200.21-5.06,42.38-17.17,87.05-16.1,130.42-10.36,205.32,27.37,379.29,180.23,412.63,395.26,9.3,60.32,7.98,122.19,8.64,183.94.28,31.27-21.75,50.81-53.8,54.51-10.54,1.15-21.34.73-32.03,1.1l-544.81,18.67v.34-.1.02ZM2858.96,1964.87c-1.44-42.04,1.89-81.44-4.95-118.95-22.7-123.45-93.26-213.77-202.52-273.56-43.64-23.55-91.58-38.1-140.94-42.82-31.62-3.27-60.4,6.97-89.57,16.85-79.44,27-159.28,33.05-239.26,2.18-30.33-11.76-60.34-6.84-90.61.22-98.54,22.72-174.05,78.98-231.36,160.78-61.57,87.58-78.39,184.59-58.35,291.4l1057.61-36.11h-.05,0Z"/>
    <path class="st0" d="M2675.96,982.27c9.56,187.34-134.46,390.96-381.39,398.99-213.1,5.34-390.82-161.92-398.35-375.01-7.12-207.9,164.04-387.73,374.32-395.92,246.88-9.97,401.22,194.6,405.41,371.94h.05-.03ZM2301.59,1284.23c145.05-5.62,280.51-128.15,275.11-295.32-5.54-161.48-133.46-286.31-297.97-280.14-173.29,6.48-288,141.29-283.84,295.17,5.07,160.07,138.96,285.71,298.98,280.64,2.57-.09,5.15-.18,7.72-.35h0v-.02h0Z"/>
  </g>
  <g>
    <rect class="st1" x="2033.39" y="2026.13" width="578.55" height="1242.54" rx="35.17" ry="35.17" transform="translate(-401.85 4879.11) rotate(-88.06)"/>
    <rect class="st1" x="2194.03" y="2355.31" width="276.32" height="21.69" rx="1.16" ry="1.16" transform="translate(-111.56 4616.9) rotate(-88.06)"/>
  </g>
</svg>