<?xml version="1.0" encoding="UTF-8"?>
<svg id="Layer_1" data-name="Layer 1" xmlns="http://www.w3.org/2000/svg" viewBox="0 0 2638.18 2988.7">
  <path d="M821.89,2988.7l-660.89-.44c-19.29-.01-28.3-23.25-27.37-37.36,1.03-15.71,13.18-32.75,31.97-32.76l293.58-.22-.04-997.92-271.86.08c-20.77,0-38.68-3.69-55.33-15.49-13.52-12.78-22.38-28.43-28.25-46.75-26.01-81.05-36.71-163.69-35.02-249.31,1.72-86.79,22.01-168.84,59.95-246.35l38.96-79.61c61.61-125.88,46.82-254.51-18.88-376.16l-61.76-114.35C39.95,705.09-1.48,592.85.04,494.4c.86-55.33,49.21-68.44,95.8-84.12l120.67-40.6c16.4-5.52,31.61-12.72,46.5-21.07,16.46-9.23,28.11-24.61,31.07-43.93,5.65-36.96,7.44-73.55,9.53-111.27,1.28-23.16,18.42-39.93,41.47-45.4,37.16-8.81,75.06-10.21,114.41-11.53l-.05-75.38-21.26-1.44c-15.59-1.05-24.15-15.99-24.56-29.66S424.07.44,440.36.38L543.89,0c16.11-.06,28.24,11.79,30.19,26.38s-6.05,28.66-21.28,33.49l-23.3,1.06.14,75.67c37.68,1.18,75.31,3.06,110.57,12.14,27.66,7.13,42.1,25.97,42.64,53.29.67,33.49,3.25,66.42,7.88,99.53,4.91,35.13,33.64,51.64,67.6,63l162.4,54.33c16.06,5.37,31.11,13.39,44.27,23.28,20.3,15.25,26.52,39.21,25.27,64.55-6.21,126.55-57.47,232.19-117.32,340.75-20.14,36.54-38.31,71.31-54.49,109.6-46.35,109.67-41.23,231.39,13.32,336.99l50.57,106.19c25.06,60.01,39.53,121.33,42.69,186.61,4.65,95.86-5.28,189.39-35.98,279.54-11.8,30.97-36.01,53.06-70.7,53.13l-292.07.63.03,997.79,292.1.26c17.93.02,29.92,18.31,30.9,32.48,1.21,17.52-8,32.56-27.44,38.03ZM804.92,1850.83c13.81,0,21.27-6.86,23.94-17.89,42.55-175.36,47.22-299.91-34.9-464.72l-48.35-108.44c-15.88-42.68-22.39-85.63-23.7-131.17-3.47-120.36,35.6-203.02,90.55-305.2l48.18-89.6c35.05-69.96,57.52-144.1,65.17-222.24,1.38-14.06-3.78-23.32-17.49-27.59l-146.56-45.65c-28.1-8.75-54.13-19.71-78.95-34.36-27.94-16.49-46.86-41.63-52.36-73.67-5.98-34.8-8.69-68.5-11.12-103.96-.41-6.01-3.41-13.61-9.99-14.6-77.09-11.68-153.25-12.07-230.33-.43-7.04,1.06-12.12,7.03-12.61,13.81-2.57,35.07-4.87,68.49-10.13,103.16-9.98,65.78-76.26,91.95-137.34,111.41l-140.43,44.73c-11.4,3.63-16.16,13.01-15.09,24.63,5.3,57.54,19.15,111.66,40.01,165.58,19.53,50.49,44.74,95.91,71.48,142.88,25.12,44.14,47.1,87.34,65.62,134.59,40.33,102.9,42.28,216.52,2.94,319.93l-41.55,91.1c-23.21,50.9-44.85,100.9-55.62,156.19-21.45,110.1-5.69,207.26,20.78,313.83,2.94,11.84,12,17.64,25.2,17.64l612.64.05Z"/>
</svg>