<?xml version="1.0" encoding="UTF-8"?>
<svg id="Layer_1" xmlns="http://www.w3.org/2000/svg" version="1.1" viewBox="0 0 2992.58 2988.7">
  <!-- Generator: Adobe Illustrator 30.3.0, SVG Export Plug-In . SVG Version: 2.1.3 Build 182)  -->
  <defs>
    <style>
      .st0 {
        fill: red;
      }
    </style>
  </defs>
  <path class="st0" d="M3639.25,796.7"/>
  <path d="M1373.58,2162.57l-319.53,501.43-158.25,249.35c-67.64,84.19-188.24,99.72-275.77,37.01-69.74-51.84-98.96-143.89-69.81-226.84l186.74-372.02,378.42-740.68,174.26-393.44,103.24-233.68c-27.14-152.08-39.72-304.87-33.7-459.26,2.59-66.5,9.04-130.36,22.32-195.16,9.7-45.81,22.97-87.96,43.52-129.65C1519.51,7.89,1736.33-26.71,1931.26,16.69c231.44,51.53,436.44,185.11,579.33,373.78,29.45,38.88,55.22,78.68,77.77,121.92,86.64,166.11,76.58,315.65-53.89,453.18-42.99,45.32-90.73,83.17-141.36,120.13-138.2,95.77-281.52,168.85-439.02,228.35l-280.24,393.32-114.49,160.93-185.79,294.28ZM1845.41,927.94l-140.16,214.52,56.07,29.98,169.91-171.72,117.57-117.45,92.55-91.52,47.41-44.39c2.46-2.3,10.96-2.83,11.01-.34l.21,9.84-39.03,48.25c-111.92,135.28-227.94,265.5-348.71,393l38.5,17.36c139.44-98.65,275.25-198.07,410.72-301l44.71-31.5c1.89-1.33,8-.53,9.52,1.23s.73,8.03-1.34,10.05c-106.57,103.69-219.02,198.78-335.54,291.04l-70.34,55.69,15.26,4.84c129.78-56.71,255.48-120.35,374.57-197.14,50.89-32.82,97.78-68.03,142.46-108.15,67.88-60.96,123.42-138.14,117.68-232.06-4.49-73.46-37.26-145.29-76.56-207.34-98.84-156.05-243.45-277.05-413.79-348.69-127.02-53.43-282.55-86.41-415.33-44.22-85.1,27.04-141.1,87.01-170.9,170.33-15.47,43.25-23.39,86.64-29.41,132.38-23.56,178.92-10.88,382.11,12.77,561.36,1.01,7.68,3.81,13.1,11.33,16.26l27.05-173.71c17.37-111.54,41.04-220.09,69.37-328.84,1.06-4.08,7.25-8.78,10.11-7.74,2.45.89,6.28,6.78,5.95,9.88l-6.11,57.46-46.16,395.22-10.31,86.78,35.13,24.08,81.97-192.28,147.89-310.49c2.54-5.34,9.65-14.02,14.18-12.92,7.67,1.86,5.28,12.17,2.98,18.29l-115.02,306.05-86.97,222.77,52.15,31.87,144.55-206.76,187.92-259.52,23.3-27.56c1.47-1.74,8.98-3.7,9.38-1.61l1.98,10.42c-57.63,101.03-117.04,199.94-180.49,298ZM1578.91,1695.64l161.79-226.88,113.67-160.16c-146.24-59.98-282.05-138.95-408.71-235.82l-60.76,137.81-170.05,383.14c91.82,82.89,195.78,138.84,310.75,178.04l53.32-76.13ZM826.24,2863.01l160.21-253.2,226.96-355.92,260.48-408.85c-110.06-39.96-208.18-94.09-297.06-170.28l-301.29,593.64-126.56,250.44-116.99,233.13c-5.46,10.88-7.08,25.06-7.03,36.72.22,48.02,30.82,88.71,71.92,105.09,46.2,17.73,95.98,6.94,129.36-30.76Z"/>
</svg>