<?xml version="1.0" encoding="UTF-8"?>
<svg id="Layer_1" xmlns="http://www.w3.org/2000/svg" version="1.1" viewBox="0 0 972.56 2736">
  <!-- Generator: Adobe Illustrator 30.3.0, SVG Export Plug-In . SVG Version: 2.1.3 Build 182)  -->
  <defs>
    <style>
      .st0 {
        fill: #010101;
        stroke: #010101;
        stroke-miterlimit: 10;
        stroke-width: 39px;
      }
    </style>
  </defs>
  <path class="st0" d="M762.23,2706.61c-.16,0-.33,0-.49,0l-575.4-1.22c-17.27,0-25.34-20.82-24.51-33.46.92-14.07,11.8-29.33,28.63-29.34l262.91-.2-.04-893.65-243.45.07c-18.6,0-34.64-3.3-49.55-13.87-12.11-11.45-20.04-25.46-25.3-41.87-23.29-72.58-32.88-146.59-31.36-223.26,1.54-77.73,19.71-151.2,53.69-220.61l34.89-71.3c55.17-112.73,41.93-227.91-16.91-336.86l-55.31-102.4c-42.09-77.88-79.19-178.4-77.83-266.55.77-49.55,44.07-61.29,85.79-75.33l108.06-36.36c14.68-4.94,28.31-11.39,41.64-18.87,14.74-8.26,25.17-22.04,27.82-39.34,5.06-33.09,6.67-65.86,8.54-99.64,1.15-20.74,16.5-35.76,37.13-40.65,33.28-7.89,67.22-9.15,102.46-10.32l-.05-67.5-19.04-1.29c-13.96-.94-21.62-14.32-22-26.57-.36-12.24,9.36-26.47,23.95-26.53l92.71-.34c14.43-.05,25.29,10.56,27.04,23.62,1.74,13.07-5.42,25.66-19.06,29.99l-20.87.95.13,67.77c33.74,1.06,67.44,2.74,99.02,10.87,24.77,6.38,37.7,23.25,38.18,47.72.6,29.99,2.91,59.48,7.06,89.13,4.4,31.46,30.12,46.24,60.54,56.41l145.43,48.65c14.38,4.81,27.86,11.99,39.64,20.85,18.18,13.66,23.75,35.11,22.63,57.81-5.56,113.33-51.46,207.92-105.07,305.15-18.04,32.72-34.31,63.85-48.8,98.14-41.5,98.21-36.92,207.21,11.93,301.78l45.29,95.1c22.44,53.74,35.4,108.65,38.23,167.11,4.17,85.84-4.72,169.6-32.22,250.33-10.57,27.73-32.25,47.51-63.32,47.58l-261.56.57.03,893.53,261.57.24c16.06.02,26.79,16.4,27.67,29.08,1.09,15.69-7.17,29.15-24.58,34.05l-15.92.8h.04ZM765.15,1699.91c12.47,0,19.2-6.19,21.6-16.15,38.4-158.28,42.62-270.69-31.5-419.45l-43.64-97.88c-14.34-38.52-20.21-77.29-21.39-118.39-3.13-108.63,32.13-183.25,81.73-275.47l43.49-80.87c31.64-63.14,51.92-130.06,58.82-200.59,1.25-12.69-3.41-21.05-15.79-24.91l-132.29-41.2c-25.36-7.9-48.85-17.79-71.26-31.02-25.22-14.88-42.3-37.57-47.26-66.49-5.4-31.41-7.84-61.83-10.04-93.83-.37-5.43-3.07-12.28-9.02-13.18-69.58-10.54-138.32-10.9-207.9-.39-6.36.96-10.94,6.35-11.38,12.47-2.32,31.65-4.4,61.82-9.15,93.11-9.01,59.37-68.83,83-123.96,100.56l-126.75,40.37c-10.29,3.27-14.58,11.75-13.62,22.23,4.79,51.94,17.28,100.78,36.11,149.45,17.63,45.57,40.38,86.57,64.52,128.96,22.67,39.84,42.52,78.83,59.23,121.48,36.41,92.87,38.17,195.43,2.65,288.77l-37.5,82.22c-20.95,45.94-40.48,91.07-50.2,140.98-19.36,99.38-5.13,187.07,18.76,283.26,2.65,10.69,10.83,15.92,22.74,15.92l552.96.05h.02Z"/>
</svg>