<?xml version="1.0" encoding="UTF-8"?>
<svg id="Layer_1" xmlns="http://www.w3.org/2000/svg" version="1.1" viewBox="0 0 2638.18 2988.7">
  <!-- Generator: Adobe Illustrator 30.3.0, SVG Export Plug-In . SVG Version: 2.1.3 Build 182)  -->
  <defs>
    <style>
      .st0 {
        stroke: #000;
        stroke-miterlimit: 10;
        stroke-width: 39px;
      }
    </style>
  </defs>
  <path class="st0" d="M1622.41,2958.41c-.18,0-.36.01-.54.01l-630.96-1.34c-18.94,0-27.79-22.83-26.88-36.69,1.01-15.43,12.94-32.16,31.39-32.17l288.29-.22-.04-979.93-266.96.08c-20.4,0-37.98-3.62-54.33-15.21-13.28-12.55-21.98-27.92-27.74-45.91-25.54-79.59-36.05-160.74-34.39-244.82,1.69-85.23,21.61-165.8,58.87-241.91l38.26-78.18c60.5-123.61,45.98-249.92-18.54-369.38l-60.65-112.29c-46.15-85.4-86.84-195.62-85.34-292.29.84-54.33,48.32-67.21,94.07-82.6l118.49-39.87c16.1-5.42,31.04-12.49,45.66-20.69,16.16-9.06,27.6-24.17,30.51-43.14,5.55-36.29,7.31-72.22,9.36-109.26,1.26-22.74,18.09-39.21,40.72-44.58,36.49-8.65,73.71-10.03,112.35-11.32l-.05-74.02-20.88-1.41c-15.31-1.03-23.71-15.7-24.12-29.13-.4-13.42,10.26-29.03,26.26-29.09l101.66-.37c15.82-.06,27.73,11.58,29.65,25.9,1.91,14.33-5.94,28.14-20.9,32.89l-22.88,1.04.14,74.31c37,1.16,73.95,3,108.58,11.92,27.16,7,41.34,25.5,41.87,52.33.66,32.89,3.19,65.22,7.74,97.74,4.82,34.5,33.03,50.71,66.38,61.86l159.47,53.35c15.77,5.27,30.55,13.15,43.47,22.86,19.93,14.98,26.04,38.5,24.81,63.39-6.1,124.27-56.43,228-115.21,334.61-19.78,35.88-37.62,70.02-53.51,107.62-45.51,107.69-40.49,227.22,13.08,330.92l49.66,104.28c24.61,58.93,38.82,119.14,41.92,183.25,4.57,94.13-5.18,185.98-35.33,274.5-11.59,30.41-35.36,52.1-69.43,52.17l-286.81.62.03,979.8,286.83.26c17.61.02,29.38,17.98,30.34,31.89,1.19,17.2-7.86,31.97-26.95,37.34l-17.46.88ZM1625.62,1854.51c13.67,0,21.05-6.79,23.69-17.71,42.11-173.56,46.74-296.83-34.54-459.95l-47.85-107.33c-15.72-42.24-22.16-84.75-23.46-129.82-3.43-119.12,35.23-200.94,89.62-302.07l47.69-88.68c34.69-69.24,56.93-142.62,64.5-219.96,1.37-13.92-3.74-23.08-17.31-27.31l-145.06-45.18c-27.81-8.66-53.57-19.51-78.14-34.01-27.65-16.32-46.38-41.2-51.82-72.91-5.92-34.44-8.6-67.8-11.01-102.89-.41-5.95-3.37-13.47-9.89-14.45-76.3-11.56-151.68-11.95-227.97-.43-6.97,1.05-12,6.96-12.48,13.67-2.54,34.71-4.82,67.79-10.03,102.1-9.88,65.1-75.48,91.01-135.93,110.27l-138.99,44.27c-11.28,3.59-15.99,12.88-14.94,24.38,5.25,56.95,18.95,110.51,39.6,163.88,19.33,49.97,44.28,94.93,70.75,141.41,24.86,43.69,46.62,86.44,64.95,133.21,39.92,101.84,41.85,214.3,2.91,316.65l-41.12,90.16c-22.97,50.38-44.39,99.86-55.05,154.59-21.23,108.97-5.63,205.13,20.57,310.61,2.91,11.72,11.88,17.46,24.94,17.46l606.35.05h0Z"/>
</svg>