<?xml version="1.0" encoding="UTF-8"?>
<svg id="Layer_1" xmlns="http://www.w3.org/2000/svg" version="1.1" viewBox="0 0 2992.58 2988.7">
  <!-- Generator: Adobe Illustrator 30.3.0, SVG Export Plug-In . SVG Version: 2.1.3 Build 182)  -->
  <defs>
    <style>
      .st0 {
        fill: red;
      }
    </style>
  </defs>
  <path class="st0" d="M3639.25,796.7"/>
  <g>
    <path d="M875.68,1885.12c11.31-106.48,8.26-208.97-2.3-314.08-81.16-79.33-147.49-171.81-194.6-275.34-96.05-211.06-73.38-499.82,109.83-654.72,23.09-18.88,47.02-33.91,74.15-45.53l10.34,2.23c2.08.45-1.05,7.65-2.55,9.19-101.84,104.28-155.83,242.53-155.5,388.74.15,66.17,6.2,128.26,26.66,191.33,30.7,94.61,81.31,178.43,146.47,253.48,53.65,61.8,112.02,115.94,177.62,164.52,24.11,17.86,49.85,31.52,77.46,41.75,25.93,9.6,51.71,10.49,77.66.8,47.34-17.67,88.14-44.63,125.96-78.73,83.97-75.69,168.71-190.32,193.65-301.35,3.49-15.53,6.6-35.09,1.95-50.41-13.82-45.5-35.51-86.93-66.88-122.55-41.07-46.63-89.83-83.76-145.52-111.05l-90.4-44.29c-67.07-32.86-129.84-69.68-184.14-121.49-85.59-81.66-136.62-192.31-138.34-310.6-.16-11.25,3.4-18.38,12.4-26.05l7.11,18.79c43.51,115.03,120.1,214.71,220.83,285.8,43.85,30.94,89.53,53.49,137.09,77.17l106.16,52.86c44.65,22.23,82.65,51.51,118.99,85.95,39.42,37.35,69.86,81.42,92.12,130.91l28.71,75.38c45.66,143.68,129.27,266.02,268.3,330.5l108.79,50.46c52.66,24.42,99,54.61,144.27,91.29,83.97,73.21,143.36,168.01,173.25,275.67,13.82,49.78,19.96,97.99,26,150.06,53.83-81.16,67.82-160.29,66.47-257.43-1.15-83.02-24.98-161.46-66.99-232.63-17.94-30.39-36-57.97-60.09-83.98-43.69-47.16-95.47-83.65-153.03-112.47l-114.34-57.24c-71.59-35.84-133.98-85.73-185.11-147.8-80.92-98.23-125.17-227.15-161.94-348.74-17.87-59.08-36.89-115.07-59.92-172.26-53.27-132.23-130.95-245.73-260.15-311.41-34.46-17.52-71.34-27.69-108.24-38.18l-44.2-12.57c9.96-11.56,18.62-12.19,30.95-12.06,68.09.73,134.24,16.63,195.89,46.67,47.29,23.04,88.1,54.16,126.34,90.54,66.93,63.68,113.86,141.32,149.47,226.37l67.56,183.22c61.59,167.03,121.82,300.37,282.96,395.34l100.52,52.83c70.81,37.21,137.82,78.14,194.53,135.42,88.56,89.44,139.84,207.06,149.82,332.41l.18,105.28c-11.83,119.87-55.34,238.01-151.04,314.02-7.62,109.77-47.69,212.31-122.4,292.87-29.3,32.17-63.24,56.84-103.97,71.47l-12.1-4.23c-3.03-1.06.42-9.59,2.65-11.99l31.21-33.52c41.74-52.93,72.99-111.55,91.57-177.18,32.9-116.22,31.87-237.84-2.81-353.31-42.29-140.81-140.46-248.14-273.94-306.84l-102.29-44.98c-118.37-50.46-212.72-140.5-267.62-260.15-19.65,45.15-41.07,85.48-67.93,125.25-8.39,69.18-6.12,136.84,9.5,204.41,21.5,96.9,76.08,177.25,154.54,236.82,35.31,26.8,66.84,53.84,96.68,86.97,131.14,145.61,142.89,375.1,10.05,522.11l-81.57,77.19c-58.33,53.27-82.85,129.04-66.53,206.72l-3.5,12.29c-2.57,9.04-39.16-22.66-42.24-88.41-2.13-45.55,6.98-87.68,30.7-126.63,39.45-64.78,102.17-103.75,140.38-201.58,42.26-108.17,25.05-229.39-49.15-318.56-26.11-31.37-55.58-55.9-88.33-79.99-43.85-32.26-82.31-67.16-116.1-110.09-69.57-89.86-90.62-198.65-96.24-311.42-48.86,49.4-100.46,90.1-160.81,119.45-37.85,18.41-77.31,24.59-118.53,17.73-76.7-19.08-128.7-57.89-186.42-107.48,6.83,81.8,4.98,157.17-9.01,234.31-17.74,101.16-64.67,213.4-146.85,275.13-7.51,5.64-16.21,7.86-24.92,2.35,50.12-80.82,80.53-167.94,90.81-264.7Z"/>
    <path d="M861.62,339.87c-60.97,12.66-127.39,60.32-169.43,103.94-68.08,70.65-116.94,155.07-144.28,249.9-60.69,210.48-42.45,429.35,59.61,623.77l87.4,166.5c93.52,178.17,147.86,466.64,51.57,646.09-60.95,113.59-156.07,121.14-149.53,108.17l4.4-8.71c58.29-50.21,93.68-117.2,105.85-193.94,32.61-213.89-35.37-385.9-133.52-571.07-30.49-57.52-59.49-112.39-84.31-172.5-41.78-101.17-63.42-205.06-64.97-314.68-1.69-119.64,12.68-235.32,53.3-347.5,56.3-155.5,165.53-287.71,319.13-353.94,28.81-71.56,81.33-126.36,143.17-171.56C1056.98,24.98,1194.81-8.3,1336.04,1.74c96.12,6.83,187.04,29.92,272.99,72.89,194.05,97.01,298.94,257.96,370.67,457.53l51.13,166.04c40.41,131.24,74.62,275.43,185.26,370.95,29.48,25.45,63.04,41.87,97.95,58.06l75.36,34.95c28.17,13.07,51.93,32.03,75.09,53.64,69.74,65.07,104.01,158.09,103.82,253.47-.06,27.59-2.11,52.74-11.39,78.82-16.47-2.51-23.65-16.39-24.53-30.76-2.94-47.86-12.04-92.55-32.04-135.83-29.45-63.71-76.69-113.56-142.46-139.21l-85.72-33.43c-174.66-68.11-258.93-233.17-306.13-406.07l-41.38-151.59c-27.96-102.44-69.11-200.26-124.55-289.86-120.9-195.39-340.13-301.64-568.41-277-87.94,9.49-170.79,38.25-241.63,91.42-56.88,42.69-101.12,96.1-128.44,164.12Z"/>
    <path d="M1858.75,2909.14c18.35,46.37,63.28,56.34,64.68,72.26,2.07,23.51-152.47-3.89-159.91-169.93-2.41-53.76,11.91-103.3,43.17-146.95,22.1-30.85,48.73-56.1,75.92-82.89l81.49-80.28c155.84-178.64,134.39-440.76-27.1-605.7l-92.81-78.4c-36.69-31-68.74-66.42-88.24-110.05-5.82-13.03-10.6-26.85-3.42-41.02,31.91,43.35,66.44,79.5,111.25,106.91l83.6,51.13c154.02,94.2,227.3,259.28,218.86,438.34-5.37,114.1-49.08,218.59-125.62,302.79l-70.62,67.09-64.03,61.17c-17.94,17.14-28.66,39.19-39.5,61.7-23.29,48.35-27.57,103.71-7.73,153.84Z"/>
  </g>
</svg>