<svg id="Слой_1" data-name="Слой 1" xmlns="http://www.w3.org/2000/svg" viewBox="0 0 500 500"><defs><style>.cls-1{stroke:#1d1d1b;stroke-miterlimit:10;}</style></defs><path class="cls-1" d="M249.48,379.57H43.34c-1,0-1.9,0-2.85,0-4.25-.22-5.48-1.52-5.56-5.89q-.12-7.12-.21-14.24c0-2.84.52-3.55,3.28-4.24.61-.15,1.23-.25,1.85-.39,2.68-.62,3.9-2.59,4.39-5.05.4-2-1.36-4.41-3.71-5.54l-.42-.21c-5.18-2.16-5.18-2.15-5.16-7.55,0-3.48-.05-7,0-10.45,0-3.66.21-3.82,3.79-4.75,3.41-.9,5.62-3.07,5.67-5.55s-2-4.72-5.35-5.92c-4-1.43-4-1.43-4.13-5.62,0-.63,0-1.26,0-1.9,0-5.56,0-5.51,5.28-7.21C52.7,291,60,282.19,62.5,269.65c2.93-14.76-2.24-26.75-14.32-35.58-2.6-1.9-5.91-2.92-9-4.06-3.88-1.44-4.13-1.6-4.28-5.68-.09-2.53-.35-5.05-.37-7.58,0-3.5.7-4.36,4.07-5.33a9.63,9.63,0,0,0,1.83-.48c2.2-1.19,4-3,3.88-5.53s-1.88-4.27-4.24-5.23c-5.15-2.08-5.16-2.07-5.15-7.36,0-3.95,0-7.91,0-11.87s.4-4.59,4.18-5.65c3.41-1,5.2-2.9,5.32-5.75.11-2.59-2.37-5.59-5.37-6.5-4-1.2-4-1.2-4.06-5-.06-5.39-.1-10.77-.06-16.15,0-5.15,1.6-6.64,6.92-6.65,9.34,0,18.68,0,28,0l386.17.05a26.28,26.28,0,0,1,3.32,0c2.95.38,4.6,2,4.65,5,.11,6.18,0,12.35,0,18.53,0,2.47-1.06,3.69-3.52,4.19a8,8,0,0,0-4.06,2.08c-3.56,3.74-1.88,8.92,3.14,10.16,3.93,1,4.35,1.41,4.4,5.4q.09,6.89,0,13.78c-.06,3.79-.54,4.33-4,5.28-3.66,1-5.62,3.16-5.47,6.07s2.4,5.24,5.78,6,3.67,1,3.76,4.17c.07,2.85.07,5.7,0,8.55-.11,3.31-.75,4.11-3.84,5.08-13.88,4.4-21.45,14.44-23.5,28.26-2,13.5,2.69,25,13.93,33.2a36.72,36.72,0,0,0,9.36,4.42c3.6,1.29,4,1.42,4.08,5.19a13.39,13.39,0,0,1,0,1.9c-.2,1.86.07,4.05-.84,5.45-.76,1.17-2.91,1.47-4.49,2-2.11.78-4.29,3.29-4.09,5.31.22,2.27,1.11,4.33,3.43,5.29a9.52,9.52,0,0,0,2.74.64c2.06.2,3.2,1.23,3.21,3.34,0,5.06.05,10.13,0,15.2,0,2.25-1.29,3.24-3.55,3.61-3.9.65-5.79,2.66-5.86,5.66s2.1,5.63,6,6.17c2.66.38,3.51,1.7,3.51,4.08,0,5.07.06,10.14-.07,15.2-.08,3.2-1.5,4.59-4.58,4.93a21,21,0,0,1-2.38,0H249.48ZM42.49,222c18.3,7.42,28.57,21.05,28.79,40.36s-9.72,33-28.34,40.31c5.75,2.75,7.45,4.48,8.63,8.42,2,6.62-.1,11.79-6.5,16.15-3.21,2.19-3.34,8.23,0,10.22C55.69,344,53.29,357,45,361.14a3.68,3.68,0,0,0-1.93,2.27c-.22,2.59,0,5.22,0,7.8H455.86v-9.1a22.92,22.92,0,0,1-2.34-1.1c-9.12-5.58-9.19-17.93,0-23.38,1.88-1.12,2.66-2.22,2.71-4.39.06-2.86-.5-4.74-3.19-6.57-9.09-6.19-8.47-17.17,1-22.87l1.95-1.2c-19-6.74-28.22-25.55-27.68-40.35a45.3,45.3,0,0,1,7.78-24.49,38.88,38.88,0,0,1,20.2-15.58c.42-2.26-.35-3.35-2.37-4.5-7.46-4.24-9.52-13-4.68-20,1.61-2.35,4.26-4,7-6.46,0-1-.11-2.93,0-4.81.18-2.29-.43-3.77-2.7-4.87a11.82,11.82,0,0,1-6.09-7.55c-2.06-6.7.16-13,6-17,1.12-.77,2.69-1.05,2.65-2.94-.06-3.44,0-6.89,0-10.55H43c0,2.53.17,4.74,0,6.92-.31,3.38.63,5.61,3.57,7.88,8.16,6.28,7.72,17.56-.8,22.76-2.53,1.55-3.14,3.13-3,5.64a30.83,30.83,0,0,1,0,3.33,3,3,0,0,0,2,3.27,13.19,13.19,0,0,1,6.57,7.22c2.59,6.47,0,13.47-6.39,17C43.09,218.53,41.66,219.39,42.49,222Z"/><path class="cls-1" d="M264.2,202.57c9.15,0,18,0,26.85,0,2.3,0,5-.62,6.15,2.29,1.18,3.07-1.71,4.09-3.34,5.56-6.9,6.25-13.9,12.4-21,18.68,2.34,9.08,4.66,18.07,7,27.06.19.77.75,1.55.64,2.25-.16,1.15-.43,2.65-1.22,3.25a3.91,3.91,0,0,1-3.38.19,86.53,86.53,0,0,1-7.78-4.53c-6.15-3.85-12.27-7.75-18.58-11.74l-18.85,11.87c-2.28,1.43-4.55,2.87-6.83,4.29-1.26.78-2.53,1.36-3.89.16a3.72,3.72,0,0,1-1.21-4.26c.85-2.71,1.7-5.42,2.45-8.15,1.85-6.69,3.64-13.39,5.51-20.27-7.52-6.66-14.92-13.29-22.44-19.78-1.59-1.37-2.77-2.66-1.94-4.8s2.62-2,4.39-2c8.22,0,16.45,0,24.67-.08,4,0,3.92-.08,5.36-3.79,3.12-8.09,6.33-16.16,9.48-24.25.67-1.74,1.57-3.14,3.67-3.11s2.79,1.62,3.44,3.33c3,8,6.09,15.92,9.16,23.86C263,199.74,263.5,200.88,264.2,202.57Zm19.1,6.93c-7.12,0-13.25.07-19.39,0-5.17-.08-5.63-.59-7.43-5.53-2.06-5.6-4.26-11.14-6.7-17.49-2.67,6.84-5.09,12.77-7.28,18.79-1.14,3.1-2.95,4.47-6.37,4.35-6.45-.22-12.92-.06-19.38-.06l-.72,1a6.3,6.3,0,0,1,1.78.74c4.92,4.2,9.78,8.49,14.72,12.68,1.86,1.58,2.62,3.13,1.87,5.74-1.82,6.3-3.24,12.72-5,19.63l2.45-1.53c4.81-3,9.67-6,14.42-9.13,2.26-1.48,4.3-1.6,6.54-.05,1.82,1.25,3.76,2.32,5.65,3.48,3.91,2.39,7.81,4.8,12,7.37-1.8-6.45-3.36-12.4-5.14-18.29a6.88,6.88,0,0,1,2.34-8c3.87-3.26,7.63-6.65,11.44-10Z"/><path class="cls-1" d="M96.75,257.83V157.12a28.8,28.8,0,0,1,.15-4.26,3.77,3.77,0,0,1,3.4-3.45c2.07-.26,3.3,1.08,3.85,2.84a14.33,14.33,0,0,1,.44,4.2q0,76.71,0,153.43,0,24.71,0,49.41a17.5,17.5,0,0,1-.2,3.77,3.82,3.82,0,0,1-3.63,3.21,4,4,0,0,1-3.9-3.47,20.28,20.28,0,0,1-.09-3.31V257.83Z"/><path class="cls-1" d="M402.9,257.84q0,50.07,0,100.14a28.62,28.62,0,0,1-.21,4.73,4.33,4.33,0,0,1-3.94,3.51,4.11,4.11,0,0,1-3.58-3.79,28.26,28.26,0,0,1-.05-3.32q0-101.1,0-202.19a19.28,19.28,0,0,1,.21-4.24,3.86,3.86,0,0,1,3.63-3.22,4.08,4.08,0,0,1,3.9,3.5,19.22,19.22,0,0,1,.08,3.31q0,50.79,0,101.57Z"/><path class="cls-1" d="M250,285.17h93.48c1.43,0,2.86-.08,4.27.06a3.53,3.53,0,0,1,3.56,3.65,3.5,3.5,0,0,1-2.93,3.77,16.23,16.23,0,0,1-3.76.29q-45.56,0-91.11,0l-97.76-.05a29.94,29.94,0,0,1-3.79-.08,3.82,3.82,0,0,1-3.64-3.67c-.06-2,1.48-3.65,3.92-3.9,1.41-.14,2.85-.07,4.27-.07H250Z"/><path class="cls-1" d="M250.1,322.25h94.06c1.26,0,2.54-.05,3.8.07,2.05.2,3,1.59,3.27,3.49a3.37,3.37,0,0,1-2.73,3.88,12.44,12.44,0,0,1-3.29.26q-62.71,0-125.41.05-32.31,0-64.6-.15a22.77,22.77,0,0,1-3.79-.24c-1.91-.33-3.16-1.4-3.15-3.52a3.73,3.73,0,0,1,3.51-3.78,33.71,33.71,0,0,1,4.27-.08H250.1Z"/></svg>