<svg id="Слой_1" data-name="Слой 1" xmlns="http://www.w3.org/2000/svg" viewBox="0 0 500 500"><path d="M219.59,64.72c-1-13.66,3-25,13.27-33.59a36.11,36.11,0,0,1,25.88-8.66,36.81,36.81,0,0,1,18.89,6.65c5.68,3.79,9.61,9.05,12.51,15.19,3,6.31,3.55,13,3.11,20.08,1.19.12,2.15.3,3.13.31,5.11,0,10.22.1,15.34,0A26.42,26.42,0,0,1,330.9,72a7.23,7.23,0,0,0,5.45,2c15.85-.09,31.71.17,47.56-.14,11.14-.21,21.43,9.38,21.42,21.39q-.15,96.84-.06,193.69,0,81.69,0,163.38c0,5.16-1.18,9.9-4.39,14A19.18,19.18,0,0,1,385.3,474c-17.64.06-35.28,0-52.93,0q-101.82,0-203.65,0-11.7,0-18.07-9.64a20.75,20.75,0,0,1-3.18-11.66q0-44.31,0-88.6l0-215.93q0-26.66,0-53.31A20.72,20.72,0,0,1,128.1,74q24-.11,47.94.06a8.28,8.28,0,0,0,6.39-2.51,24.56,24.56,0,0,1,17.76-6.85C206.43,64.75,212.68,64.72,219.59,64.72ZM174.9,82.35c-2.13-.14-3.75-.33-5.37-.33-12.91,0-25.83.1-38.74-.06-9.91-.13-15.55,6.1-15.33,15.51.11,4.47.31,8.94.31,13.41q0,61,0,121.94,0,74.78,0,149.55,0,32.22,0,64.44c0,2.43,0,4.86.14,7.28a11.66,11.66,0,0,0,8.58,11,20.78,20.78,0,0,0,6.4.79q100.88.07,201.75.07,25.31,0,50.63,0c7.94,0,12.66-4.09,13.79-11.93a29.58,29.58,0,0,0,.14-4.21q0-50.62,0-101.26,0-125.61,0-251.22c0-9.8-6-15.43-15.1-15.36-13.68.1-27.36,0-41,0-1,0-2,.11-3.54.2,3.63,6.11,3.18,12.68,3.25,19.32,2.81,0,5.1,0,7.38,0,2.1.07,3.21.92,3.34,2.38s-1,2.36-3.18,2.43c-2.4.08-4.81,0-7.26,0-.38,1.13-.69,2-.94,2.8a14.44,14.44,0,0,1-6.74,8.5,17.92,17.92,0,0,1-9.51,2.45q-18,0-36.06,0-49.47,0-98.95,0c-9,0-13.73-3.51-16.5-11.87-.42-1.28-1-1.92-2.42-1.87-2,.06-4.1.07-6.14,0s-3-1-2.85-2.75c.16-1.88,1.48-2.14,3-2.13,2.51,0,5,0,7.79,0C171.7,94.82,171.89,88.7,174.9,82.35Zm81.44,29.26v0h49.47c6.52,0,13,0,19.56-.05,4.12,0,7-2.41,7.29-6.36C333,100.16,333.32,95,332,90c-3-11.11-11.45-17.88-22.18-17.34-6.25.31-12.52.08-18.79,0-4.22-.06-5.65-1.61-5.7-5.88,0-2.17,0-4.34,0-6.51a29.08,29.08,0,0,0-21.46-28.42,30,30,0,0,0-9.79-1.1,26.26,26.26,0,0,0-14.72,5.93c-7.06,5.57-11.33,12.72-11.41,22,0,2.69-.11,5.37,0,8.06a5.71,5.71,0,0,1-6.25,6.08c-6.5-.26-13-.09-19.55,0A21.63,21.63,0,0,0,180.35,94c-.11,3.83,0,7.67.08,11.5a5.91,5.91,0,0,0,5.37,6,23.18,23.18,0,0,0,3.44.13Z"/><path d="M274,269H196.89a32.9,32.9,0,0,1-5-.18,4.24,4.24,0,0,1-3.67-3.87,4.16,4.16,0,0,1,3.71-4.2,26.69,26.69,0,0,1,4.2-.17H351.83a29.48,29.48,0,0,1,4.21.14,4.18,4.18,0,0,1,3.93,4.4c-.1,2.33-1.63,3.79-4.34,3.86-3.83.1-7.67,0-11.5,0H274Z"/><path d="M274,315H195.73a25.59,25.59,0,0,1-3.82-.11,4,4,0,0,1-3.53-3.53,4.23,4.23,0,0,1,3-4.4,12.5,12.5,0,0,1,3.41-.33l158.8,0a15.82,15.82,0,0,1,2.67.11A4.22,4.22,0,0,1,360,311a4.37,4.37,0,0,1-3.93,4,19.57,19.57,0,0,1-2.3,0Z"/><path d="M274.05,176.19H198.18c-1.92,0-3.85.06-5.75-.13-2.6-.27-4.23-2-4.15-4.17s1.86-3.61,4.54-3.69c5.87-.16,11.74-.35,17.61-.35q67.83,0,135.65,0c3.19,0,6.38.16,9.56.37,2.66.18,4.25,1.74,4.29,3.94s-1.74,3.83-4.26,4c-.76.06-1.53,0-2.3,0H274.05Z"/><path d="M274.06,222.41h-79a24.78,24.78,0,0,1-3.45-.07,3.8,3.8,0,0,1-3.35-3.63,4.11,4.11,0,0,1,3.19-4.22,13.18,13.18,0,0,1,2.67-.12H353.63a17.11,17.11,0,0,1,2.68.07,4.21,4.21,0,0,1,3.64,4.61c-.2,2.11-1.85,3.52-4.24,3.54-1.66,0-3.32-.15-5-.15H274.06Z"/><path d="M273.92,353.07h77.79c1.53,0,3.07-.08,4.59.06a3.95,3.95,0,0,1,.38,7.83,14,14,0,0,1-2.67.1l-156.35,0a53.14,53.14,0,0,1-5.36-.13c-2.56-.28-4-1.78-3.91-3.89.05-2.29,1.64-3.76,4.29-3.92.89-.05,1.79,0,2.68,0Z"/><path d="M163.43,269a26.16,26.16,0,0,1-3.44-.18,4,4,0,0,1-3.5-3.94,3.58,3.58,0,0,1,3-3.88,33.12,33.12,0,0,1,8,0c1.79.2,3,2.2,3,4a4.24,4.24,0,0,1-3.2,3.85,2.85,2.85,0,0,1-.76.11c-1,0-2,0-3.07,0Z"/><path d="M163.34,315a22.16,22.16,0,0,1-3.05,0,4.33,4.33,0,0,1-3.85-4.06,3.88,3.88,0,0,1,3.72-4.06,30.33,30.33,0,0,1,6.46,0,4.13,4.13,0,0,1,3.69,4.15,4.2,4.2,0,0,1-3.92,4c-1,.1-2,0-3,0Z"/><path d="M163.65,222.32a26.89,26.89,0,0,1-3.81,0,3.77,3.77,0,0,1-3.36-3.57,3.91,3.91,0,0,1,3.19-4.16,39.59,39.59,0,0,1,7.62,0c1.86.18,3.33,2.43,3.19,4.2a4,4,0,0,1-3.78,3.61c-1,.09-2,0-3,0Z"/><path d="M163.14,176.22a20.46,20.46,0,0,1-3.43-.22,4.26,4.26,0,0,1-3.25-4.2,4,4,0,0,1,4.13-3.67c1.91,0,3.84,0,5.75.11a4.1,4.1,0,0,1,3.85,4,4,4,0,0,1-3.6,3.84,24.8,24.8,0,0,1-3.45,0Z"/><path d="M163.82,353.15a26.62,26.62,0,0,1,2.68,0,4.15,4.15,0,0,1,3.72,3.71,3.75,3.75,0,0,1-3.37,4,34.29,34.29,0,0,1-6.87,0,3.93,3.93,0,0,1-3.52-4.27,3.89,3.89,0,0,1,3.92-3.46c1.14-.09,2.29,0,3.44,0Z"/><path d="M268.05,58c-.13,6.31-5.8,11.74-12,11.49-5.83-.22-11.21-6-11-11.71.29-6.85,5.45-12.12,11.59-11.84A11.73,11.73,0,0,1,268.05,58Zm-11.55-4a3.24,3.24,0,0,0-3.29,3.46,3.52,3.52,0,0,0,3.26,3.58A3.47,3.47,0,0,0,260,57.84,3.73,3.73,0,0,0,256.5,54.05Z"/></svg>