<?xml version="1.0" encoding="UTF-8"?>
<svg id="Outline_Expand" xmlns="http://www.w3.org/2000/svg" version="1.1" viewBox="0 0 64 64">
  <!-- Generator: Adobe Illustrator 30.1.0, SVG Export Plug-In . SVG Version: 2.1.1 Build 136)  -->
  <path d="M58.75,51.88V16.47c2.04-.26,3.48-2.12,3.22-4.16-.01-.08-.02-.17-.04-.25-.19-.96-.76-1.8-1.58-2.34C51.95,4.13,42.09,1.12,32,1.07c-10.09.04-19.95,3.05-28.35,8.65-.82.55-1.39,1.4-1.58,2.37-.19.97.01,1.97.56,2.79.6.89,1.55,1.48,2.62,1.6v35.4c-2.31.58-3.71,2.92-3.13,5.23.48,1.92,2.22,3.27,4.2,3.26h51.36c2.38.01,4.32-1.91,4.33-4.29,0-1.98-1.34-3.72-3.26-4.2ZM4.29,13.72c-.53-.79-.32-1.86.47-2.39,0,0,0,0,0,0C12.84,5.98,22.31,3.11,32,3.07c9.7.03,19.17,2.91,27.24,8.28.78.53.99,1.58.47,2.37-.55.77-1.6.97-2.39.47-1.5-1-3.05-1.91-4.65-2.72h-.05c-6.4-3.23-13.46-4.92-20.62-4.96h0c-7.17.03-14.23,1.74-20.62,5h0c-1.61.81-3.17,1.72-4.67,2.72-.79.53-1.87.32-2.4-.48,0-.01-.01-.02-.02-.03ZM56.75,16.15v35.57h-3.5V14.07c1,.55,2,1.14,3,1.8.16.11.33.21.5.3v-.02ZM38.4,9.01c.82,3.34,4.86,18.37,12.26,22.79-1.55,2.11-4.66,7.72-5.82,19.92h-25.68c-1.16-12.2-4.27-17.81-5.83-19.92,7.41-4.42,11.45-19.5,12.26-22.81M17.16,51.72h-4.41v-17.08c1.46,2.66,3.49,7.85,4.41,17.08ZM12.75,29.81V13.02c3.39-1.66,6.98-2.88,10.68-3.64-1.12,4.22-4.79,16.46-10.68,20.43ZM51.21,34.63v17.09h-4.37c.92-9.23,2.95-14.43,4.41-17.09h-.04ZM40.57,9.39c3.7.74,7.29,1.96,10.68,3.62v16.8c-5.89-3.96-9.56-16.2-10.68-20.42ZM10.75,14.07v37.65h-3.5V16.16c.19-.08.37-.18.54-.29.81-.55,1.81-1.15,2.96-1.8ZM57.68,58.37H6.32c-1.28,0-2.32-1.04-2.32-2.32,0-1.28,1.04-2.32,2.32-2.32h51.39c1.28,0,2.32,1.04,2.32,2.32,0,1.28-1.04,2.32-2.32,2.32h-.03Z"/>
</svg>