<?xml version="1.0" encoding="UTF-8"?>
<svg id="Layer_1" xmlns="http://www.w3.org/2000/svg" version="1.1" viewBox="0 0 2000 2000">
  <!-- Generator: Adobe Illustrator 30.1.0, SVG Export Plug-In . SVG Version: 2.1.1 Build 136)  -->
  <defs>
    <style>
      .st0 {
        fill: none;
        stroke: #000;
        stroke-linecap: round;
        stroke-linejoin: round;
        stroke-width: 78px;
      }
    </style>
  </defs>
  <g>
    <g>
      <path class="st0" d="M307.61,514.31c-30.37,8.63-57.05,29.71-71.83,60.39l-62.4,129.44c-27.44,56.93-3.54,125.32,53.38,152.76l254.09,122.5c2.42,1.17,4.87,2.21,7.32,3.19l161.52-335.03c-2.3-1.31-4.64-2.58-7.06-3.74l-193.98-94.55"/>
      <path class="st0" d="M646.44,660.42l-150.23,311.62c-26.17,54.28,29.89,135.53,125.21,181.48l244.99-508.17c-95.32-45.95-193.8-39.2-219.97,15.07Z"/>
    </g>
    <path class="st0" d="M448.65,607.65c0,38.95-31.57,70.52-70.52,70.52h0c-38.95,0-70.52-31.57-70.52-70.52v-219.85c0-38.95,31.57-70.52,70.52-70.52h0c38.95,0,70.52,31.57,70.52,70.52v219.85Z"/>
  </g>
  <line class="st0" x1="759.37" y1="1229.8" x2="1438.08" y2="1773.12"/>
  <line class="st0" x1="1005.27" y1="710.31" x2="1843.27" y2="916.33"/>
</svg>