<?xml version="1.0" encoding="UTF-8"?>
<svg id="Layer_1" data-name="Layer 1" xmlns="http://www.w3.org/2000/svg" viewBox="0 0 2992.32 2990.91">
  <path d="M1517.6,90.83c-222.88-17.48-427.13,77.62-568.74,230.41-232.82,251.22-180.42,462.08-218.75,484.61-10.99,6.46-37.22,9.19-57.13,9.08-233.27-1.2-437.98,149.78-527.41,349.82-99.55,222.69-58.38,476.09,105.5,651.2,215.18,229.93,451.86,131.16,491.68,174.25,9.27,10.03,13.91,41.28,8.94,54.01-17.31,44.36-411.67,83.14-635.64-250.25-140.73-209.49-154.54-472.12-35.56-702.99,106.86-207.35,321.69-352.89,578.93-369.84C718.12,306.17,1084.86-16.81,1510.15.68c380.16,15.63,683.22,308.58,743.88,674.6,213.81-11.49,401.27,68.12,543.36,219.23,249.43,265.27,260.82,671.46,26.51,950.08-133.73,158.48-318.45,242.21-529.8,222.08-13.16-12.24-27.09-43.29-23.15-57.87,18.95-70.14,214.4,26.81,418-156.47,174.22-156.83,249.92-382.48,191.53-623.63-46.83-193.38-205.46-378.28-421.28-441.02-90.2-26.22-183.54-22.6-282.18-31.42-34.04-350.54-298.74-637.15-659.43-665.43Z"/>
  <path d="M1538.68,1969.21c.01,19.24-22.01,49.83-35.56,53.77-16.81,4.89-51.22-12.7-61.25-30.75l-.91-860.06-269.49,258.13c-12.48,11.95-50.86,11.37-62.86,2.32-14.02-10.57-18.39-53.6-5.89-66.09l344.68-344.15c23.12-23.08,65.41-18.77,87.26,4.6l346.06,370.11c11.89,12.72,14.72,48.51,5.13,61.75-12.87,17.76-61.06,24.67-74.78,10.13l-272.99-289.47.61,829.71Z"/>
  <path d="M2002.93,2670l-483.47,314.72c-26.65,17.35-58.12-5.75-81.03-20.62l-437.59-283.92c-14.53-9.43-32.96-24.64-35.16-36.95-2.2-12.31,14.23-38.5,24.79-45.51l169.44-112.53-170.22-122.49c-11.04-7.95-28.33-26.75-31.58-38.31-3.79-13.48,13.92-41.28,26.52-49.4l265.67-171.21,244.55,165.17,237.92-163.6,271.25,173.98c9.97,6.39,24.63,25.85,25.33,36.79s-12.43,33.58-23.13,41.36l-178.86,129.98,169.83,116.65c17.58,12.08,28.88,50.84,5.75,65.9ZM1217.72,2444.57l212.88-140.17-184.09-123.96-209.61,139.49,180.82,124.64ZM1948.6,2322.05l-216.17-140.1-177.67,123.69,211.93,140.5,181.91-124.1ZM1497.41,2631.94l213.84-144.86-218.39-144.88-217.74,144.43,222.29,145.32ZM1271.53,2773.71l159.64-103.91-215.57-143.93-165.22,109.05,221.15,138.79ZM1720.3,2774.32l212.63-135.24-164.94-112.39-210.67,143.17,162.98,104.46ZM1662.84,2811.91l-170.99-107.28-165.82,107.68,171.15,113.3,165.66-113.7Z"/>
</svg>