<?xml version="1.0" encoding="UTF-8"?>
<svg id="Layer_1" data-name="Layer 1" xmlns="http://www.w3.org/2000/svg" viewBox="0 0 2996.11 1997.33">
  <defs>
    <style>
      .cls-1 {
        fill-rule: evenodd;
      }
    </style>
  </defs>
  <g id="Page_35" data-name="Page 35">
    <path class="cls-1" d="M2995.45,806.17c-.13-2.39-.92-4.68-1.57-7.07-.78-2.39-1.18-4.77-2.35-7.06-.65-1.43-1.57-2.77-2.49-4.2-.39-.67-.39-1.43-.92-2.2-1.05-1.34-2.75-2.2-3.92-3.44-1.84-1.91-3.27-3.82-5.5-5.54-1.56-1.25-3.14-2.3-4.71-3.34-2.73-1.83-5.62-3.06-8.63-4.4-1.7-.86-2.75-2.1-4.58-2.77l-485.78-182.65V47.57c0-26.37-29.18-47.57-65.03-47.57H586.27c-35.97,0-65.16,21.21-65.16,47.57l.02,535.92L35.33,766.14c-.39.2-.66.57-1.18.67-.64.28-1.56.48-2.22.77-1.7.67-2.87,1.72-4.45,2.49-1.7.86-3.14,1.82-4.71,2.77-2.21,1.34-4.31,2.77-6.15,4.29-1.17.96-1.96,1.91-3,2.97-1.83,1.72-3.79,3.34-5.37,5.34,0,.1-.13.1-.27.2-.25.38-.13.77-.38,1.15-1.17,1.72-2.09,3.44-3.01,5.26-.51.94-1.18,1.82-1.57,2.77-.92,2.19-1.31,4.39-1.7,6.68-.27,1.34-.66,2.67-.79,4.01.01.96-.52,1.91-.52,2.97v1141.28c.01,26.27,29.18,47.58,65.16,47.58h2865.8c35.97,0,65.14-21.31,65.14-47.58V808.46c.01-.86-.65-1.52-.65-2.29M2791.88,809.61l-316.88,126.1v-245.23l316.88,119.13ZM651.44,95.05h1693.38v892.53l-846.76,337.31-846.62-337.31V95.05ZM521.13,808.46v127.25l-316.88-126.1,316.88-119.13v117.98ZM130.31,1902.18v-1013.66l27.08,10.69,1309.52,521.59c9.69,3.91,20.41,5.83,31.13,5.83,10.74,0,21.46-1.91,31.27-5.83l911.8-363.29s0,0,.12,0l424.56-168.99v1013.66H130.31Z"/>
    <path class="cls-1" d="M1267.79,730.81l-16.05,207.06c-1.19,14.8,5.31,29.27,17.14,38.05,11.92,8.78,27.29,10.59,40.9,4.91l188.26-79.55,188.26,79.55c5.24,2.16,10.73,3.28,16.14,3.28,8.79,0,17.4-2.75,24.76-8.18,11.83-8.78,18.33-23.24,17.23-38.05l-16.13-207.06,132.49-157.82c9.46-11.37,12.5-26.95,8.02-41.06-4.56-14.21-15.97-25.06-30.25-28.5l-198.22-48.38-106.38-177.19c-15.3-25.41-56.54-25.4-71.83,0l-106.37,177.19-198.23,48.38c-14.2,3.44-25.69,14.29-30.17,28.5-4.56,14.11-1.52,29.7,8.03,41.06l132.41,157.82ZM1392.34,534.25c10.9-2.67,20.28-9.55,26.11-19.28l79.6-132.6,79.68,132.6c5.83,9.72,15.21,16.62,26.02,19.28l148.39,36.25-99.12,118.12c-7.26,8.61-10.82,19.89-9.97,31.26l12.08,154.98-140.93-59.58c-10.4-4.39-21.89-4.39-32.29,0l-140.85,59.58,12-154.98c.92-11.37-2.71-22.65-9.98-31.25l-99.11-118.13,148.37-36.25Z"/>
  </g>
</svg>