<?xml version="1.0" encoding="UTF-8"?>
<svg id="_Слой_1" data-name="Слой_1" xmlns="http://www.w3.org/2000/svg" version="1.1" viewBox="0 0 344.53 437.74">
  <!-- Generator: Adobe Illustrator 30.3.0, SVG Export Plug-In . SVG Version: 2.1.3 Build 182)  -->
  <path d="M.14,218.97V31.28C0,25.03,1.64,18.87,4.89,13.53,9.99,5.37,17.54,1.03,27.06.05c1.19-.06,2.38-.06,3.57,0h235.31c10.87,0,7.93-.72,15.77,6.19,9.91,8.73,19.14,18.23,28.7,27.35,7.46,7.12,15,14.17,22.47,21.26,2.31,2.18,4.66,4.32,6.81,6.65,3.11,3.12,4.85,7.34,4.84,11.74-.09,61.9-.11,123.8-.06,185.7,0,49.47.08,98.94-.05,148.41,0,12.79-6.23,22.14-17.72,27.79-3.72,1.76-7.8,2.64-11.91,2.57-72.88-.04-145.76-.06-218.64-.07-21.95,0-43.92-.34-65.86.1C15.2,438.04-.06,424.68,0,407.09c.21-62.7.08-125.39.08-188.09l.06-.03ZM267.44,8.32H31.36c-6.4,0-12.25,1.68-16.85,6.56-3.96,4.21-6.06,9.83-5.83,15.6.05,30,.05,60.02,0,90.06v287.22c-.14,4.27,1.09,8.48,3.51,12,4.73,6.62,11.27,9.68,19.37,9.68h240.41c13.89,0,27.78.06,41.66,0,10.87-.08,19.66-7.14,21.63-17.38.39-2.75.51-5.53.38-8.3V78.85c0-1.53-.09-3.06-.13-4.43-.4-.16-.82-.28-1.25-.36-11.89-.06-23.78-.06-35.67-.16-3.82.11-7.65-.08-11.44-.57-10.95-1.83-19.3-10.79-19.39-23.16-.07-11,.2-21.94.23-32.91,0-2.88-.34-5.63-.55-8.94ZM276.73,13.32c-.17.49-.29.99-.36,1.5,0,11.89-.13,23.77,0,35.66.11,7.34,4,12,11.18,14,1.91.48,3.87.72,5.84.71h34.07c.94,0,1.88-.08,3.65-.16l-54.38-51.71Z"/>
  <path d="M82.02,347.26c-7.27,0-14.57-.43-21.8.11-8.39.51-15.6-5.88-16.11-14.27-.03-.58-.04-1.15,0-1.73.57-10.67.1-21.4.1-32.11-.17-3.42-.13-6.85.1-10.27.82-6.8,5.33-11.13,12.16-12.15,1.57-.23,3.15-.36,4.73-.37h41.24c2.78.21,4.53,1.7,4.66,3.95.12,2-1.75,4.24-4.11,4.69-1.18.15-2.37.19-3.56.13h-40.45c-3.8.31-6,2.52-6.28,6.36-.06.66,0,1.32,0,2v36.49c0,6.15,2.49,8.69,8.59,8.71h38.07c2.11,0,4.23-.17,6.33-.33,3.85-.28,6-2.26,6.69-6,.13-.92.17-1.84.14-2.77-.1-6.34-.25-12.67-.31-19,.01-1.98.13-3.95.36-5.91.02-.78.31-1.53.82-2.13,1.34-1.15,2.57-2.9,4.74-2.17s2.7,2.55,2.69,4.74c0,9.12.11,18.24,0,27.36-.11,8.5-6.39,14.66-14.92,14.75-7.93.08-15.87,0-23.8,0l-.07-.08Z"/>
  <path d="M82.22,234.24h-22.6c-5.18,0-9.55-1.81-12.69-6.13-1.76-2.34-2.71-5.19-2.71-8.12,0-14-.08-28,0-42,.06-8.5,6-14.37,14.61-14.43,14.41-.09,28.82-.05,43.23,0,3.31,0,5.24,1.63,5.1,4.14-.12,2.08-2.76,4.55-5.61,4.5-13.48-.22-27-.18-40.45-.23h-1.59c-4.22.32-6.46,2.54-6.84,6.78-.06.66,0,1.32,0,2v35.7c-.05,1.32.07,2.63.35,3.92.58,3.14,3.39,5.36,6.58,5.2,3.7.11,7.4.06,11.1.06h33.32c5.82,0,8.45-2.56,8.43-8.45,0-6.87-.24-13.74-.3-20.61-.02-1.71.12-3.42.44-5.1.64-2.03,2.33-3.56,4.42-4,1.65-.16,3.17.91,3.56,2.52.16.91.22,1.84.17,2.76,0,8.72.07,17.45,0,26.17,0,6.21-2.67,11.11-8.28,13.82-2.54,1.05-5.26,1.58-8,1.55-7.39.2-14.8.07-22.21.07l-.03-.12Z"/>
  <path d="M226.68,182.62h61.47c1.05-.04,2.11-.03,3.16.05,2.37.27,3.77,1.59,4.05,3.66.33,2.2-1.1,4.28-3.27,4.77-1.29.29-2.6.41-3.92.36-21.68,0-43.35,0-65,0h-58.72c-1.05.05-2.11,0-3.15-.17-2.14-.47-3.71-2.32-3.81-4.51,0-2,1.71-3.72,4.17-4.06,1.18-.12,2.37-.15,3.56-.09h61.46Z"/>
  <path d="M226.28,304.57h-63.5c-2.88,0-5.19-1.83-5.3-4.23-.08-2,1.9-4.45,5.1-4.4,8.59.15,17.18.06,25.78.07h99.56c1.33-.06,2.67-.03,4,.1,2.2.21,3.82,2.16,3.61,4.36,0,.03,0,.06-.01.09-.12,2.12-1.49,3.51-3.81,3.82-.67.04-1.33.04-2,0-12.69.09-25.38.21-38.07.27h-25.38l.02-.08Z"/>
  <path d="M81.96,206.09c4.06-4.79,7.51-9,11-13,6.67-7.69,13.33-15.36,20-23,1.57-1.79,3.13-3.58,4.75-5.32.86-1,1.82-1.9,2.87-2.7,1.87-1.42,4.53-1.06,5.96.8,1.24,1.63,1.14,3.92-.24,5.44-.92,1.12-2,2.1-2.95,3.2-10.71,12.49-21.44,25-32.18,37.53-1.63,1.9-3.14,3.91-4.77,5.81-2.24,2.62-5.13,2.85-7.53.36-4.85-5-9.59-10.19-14.3-15.37-1.68-1.63-1.71-4.32-.08-6,.12-.12.24-.23.37-.33,1.89-1.72,3.93-1.79,6,.24,3.17,3.16,6.16,6.53,9.2,9.83.59.67,1.09,1.45,1.9,2.51Z"/>
  <path d="M202.74,333.69h-37.64c-1.19.06-2.38.01-3.56-.13-2.18-.32-3.82-2.15-3.91-4.35.09-2.34,1.89-4.25,4.22-4.49.67-.05,1.33-.05,2,0h77.27c1.05-.06,2.11-.02,3.16.11,2.18.39,3.73,2.34,3.61,4.55.07,2.07-1.46,3.85-3.52,4.1-1.18.15-2.37.2-3.56.14h-38l-.07.07Z"/>
  <path d="M81.95,319.3c7.3-8.56,14-16.55,20.86-24.42,5.28-6.08,10.71-12,16.14-18,2.61-2.86,5.19-3.23,7.14-1.3s1.45,4.57-.94,7.29c-9.4,10.72-18.76,21.49-28.07,32.3-3.44,4-6.71,8.16-10,12.27-2.85,3.52-5.78,3.68-9,.29-4.52-4.82-9-9.71-13.42-14.59-1.79-1.75-1.82-4.62-.06-6.41,0,0,0,0,0,0,1.69-1.66,4.4-1.64,6.07.05.09.09.17.18.25.28,3.21,3.33,6.32,6.75,9.46,10.16.53.58.96,1.26,1.57,2.08Z"/>
  <path d="M203.28,211.78h39.22c1.42-.06,2.82.33,4,1.13,1.73,1.47,1.94,4.07.47,5.81-.57.67-1.34,1.14-2.2,1.34-1.81.38-3.66.56-5.51.52-7.38.06-14.76,0-22.14,0-17.29,0-34.58,0-51.88,0-1.45.04-2.89-.1-4.3-.42-2.27-.61-3.83-2.78-3.6-4.62.49-2.27,2.46-3.92,4.79-4,1.58,0,3.16.15,4.74.15h36.41v.09Z"/>
  <path d="M195.46,108.86c4.08.01,6.89,3.86,6.87,7.35-.03,3.78-2.97,7.32-7.06,7.32l-47.89-.04c-3.42,0-5.91-3.4-6.29-6.14-.5-3.54,1.31-6.34,4.26-8.07,5.5-3.23,6.92-11.73,5.63-18.07l-5.78-.06c-4.14-.04-6.91-3.77-6.74-7.6.18-3.89,3.21-6.97,7.34-7.04l2.26-.04c-.67-5.87-.28-11.52,1.7-16.96,3.94-10.84,13.39-18.28,25-19.22,9.55-.78,19.24,3.18,25.28,10.67,2.67,3.3,1.2,8.34-1.79,10.51-3.54,2.58-7.87,1.73-10.81-1.49-3.32-3.63-8.16-5.23-13.14-4.18-4.31.91-8.12,4.17-9.88,8.75-1.44,3.75-1.42,7.81-.84,11.93l16.1.03c3.93,0,6.89,3.14,7.15,6.81.26,3.64-2.22,7.7-6.3,7.75l-13.94.15c.76,5.98.2,11.72-2.1,17.54l30.95.1h0Z"/>
</svg>