<?xml version="1.0" encoding="UTF-8"?>
<svg id="Layer_1" data-name="Layer 1" xmlns="http://www.w3.org/2000/svg" viewBox="0 0 2995.13 2974.03">
  <path d="M2994.12,626.6l1.01,2020.87c.1,153.61-102.14,325.63-274.67,325.69l-2441.17.87c-135.34.05-278.93-128.78-278.95-267.31L0,274.68C-.02,131.74,124.67,26.5,250.78,0l797.21.29c49.64.02,127.51,35.02,159.75,69.54l201.06,215.29c19.23,20.59,60.72,56.75,91.86,56.75l1220.33-.05c148.93,21.44,256.12,128.11,273.13,284.78ZM2876.43,624.87c-.23-121.57-115.66-167.04-209.11-167.21l-1167.28-2.03c-61.34-.11-121.2-32.46-159.35-75.55l-124.27-140.4c-40.43-45.67-94.06-119.87-165.07-120.51l-718.24-6.41c-111.09-.99-219.38,46.06-219.39,177.37l-.21,2396.47c-.01,104.92,93.73,178.15,194.85,178.1l2409.44-1.22c106.36-.05,161.78-112.22,161.61-203.73l-2.98-2034.89Z"/>
  <path d="M2081.36,2414.35l-1289.86.46-226.84-374.5c3.53-28.13,11.7-60.43,26.17-83.93l470.42-763.55,137.63-220.94,497.32.29,604.01,982.95c23.64,38.47,32.62,76.46,9.9,114.18l-155.42,258.03c-16.68,27.7-42.79,60.42-73.34,87.02ZM2231.39,2029.34l-592.6-970.12-336.24,1.98,584.09,970.83,344.74-2.68ZM953.3,1954.61l108.69-22.15,329.47-545.57-168.81-279.8-302.74,492.04-251.35,423.97,141.46,244.44,143.29-312.93ZM1721.31,1937.18l-278.96-457.72-275.24,456.96,554.2.76ZM2171.96,2121.82l-259.71-.3c-62.68-.07-111.47-16.93-132.72-91.74h-753.17s-143.87,294.19-143.87,294.19l1164.35-1.21,125.11-200.93Z"/>
</svg>