<?xml version="1.0" encoding="UTF-8"?>
<svg id="Layer_1" xmlns="http://www.w3.org/2000/svg" version="1.1" viewBox="0 0 2200 2200">
  <!-- Generator: Adobe Illustrator 30.1.0, SVG Export Plug-In . SVG Version: 2.1.1 Build 136)  -->
  <defs>
    <style>
      .st0 {
        stroke: #000;
        stroke-miterlimit: 10;
        stroke-width: 33px;
      }
    </style>
  </defs>
  <path class="st0" d="M995.17,1026.91c206.76-117.68,310.66-367.89,248.61-600.33C1177.57,178.55,941.24,12.87,685.49,31.51,415.65,51.18,167.87,307.7,215.88,588.14c0,.06.03.11.05.17,3,92.01,29.57,184.3,74.58,258.35,122.78,201.93,371.5,291.71,593.9,227.08,126.85,370.65,280.3,730.91,425.76,1094.38l-315-1141.2ZM981.26,915.4c-162.7,119.46-404.14,105.34-550.27-34.43-111.72-106.85-161.78-276.41-126.88-422.97,22.39-63.93,54.46-122.95,97.2-172.52,11.95-11.48,24.83-22.36,38.89-32.42,6.23-4.45,9.02-10.05,9.43-15.52,44.52-37.59,97.66-66.54,160.24-83.6,195-53.18,407.22,36.63,498.46,217.74,94.07,186.76,42.3,419.36-127.07,543.71h.02Z"/>
  <path class="st0" d="M909.62,393.44c-99.34-95.73-257.45-108.84-364.13-16.65-19.31,16.68,4.37,45,24.92,30.44,90.44-64.04,219.72-60.81,300.99,17.5,22.61,21.78,61.14-9.22,38.23-31.3h0v.02Z"/>
  <path class="st0" d="M1021.04,543.86c-54.81,0-64.88,85.47-9.61,85.47s64.88-85.47,9.61-85.47Z"/>
</svg>