<?xml version="1.0" encoding="UTF-8"?>
<svg id="Layer_1" xmlns="http://www.w3.org/2000/svg" version="1.1" viewBox="0 0 3000 3000">
  <!-- Generator: Adobe Illustrator 30.3.0, SVG Export Plug-In . SVG Version: 2.1.3 Build 182)  -->
  <defs>
    <style>
      .st0, .st1 {
        stroke: #ed1c24;
        stroke-miterlimit: 10;
      }

      .st1 {
        fill: none;
        stroke-width: 75px;
      }
    </style>
  </defs>
  <path d="M582.89,1535.52c-14.83,0-29.49-4.81-41.27-14.08L22.91,1113.68c-20.66-16.23-28.26-42.83-19.05-66.57,6.31-16.15,19.51-28.67,35.84-34.97l501-409.21c18.94-15.41,45.76-19.13,68.73-9.39,22.89,9.74,37.59,31.13,37.59,54.68v827.23c0,23.35-14.45,44.59-37.05,54.45-8.65,3.79-17.9,5.63-27.09,5.63h.01ZM165.45,1068.85l353.26,277.71v-566.22l-353.26,288.51h0Z"/>
  <path d="M2417.11,1535.52c-9.19,0-18.44-1.84-27.09-5.63-22.6-9.86-37.05-31.09-37.05-54.45v-827.23c0-23.55,14.7-44.94,37.59-54.68,22.95-9.86,49.81-6.06,68.73,9.39l501,409.21c16.33,6.3,29.53,18.81,35.84,34.97,9.21,23.74,1.61,50.34-19.05,66.57l-518.71,407.77c-11.78,9.27-26.44,14.08-41.27,14.08h.01ZM2481.29,780.35v566.22l353.26-277.71-353.26-288.51Z"/>
  <path class="st0" d="M4576.1,2257.8c-14.66,0-29.32-4.69-41.25-14.04l-172.88-135.8c-23.29-18.35-58.33-18.46-81.62-.04l-172.92,135.84c-23.85,18.7-58.62,18.73-82.51-.04l-662.17-520.77c-14.52-11.42-22.89-28.24-22.89-46V261.59c0-33.17,28.72-60.08,64.16-60.08h1834.26c35.44,0,64.16,26.91,64.16,60.08v1415.37c0,17.76-8.38,34.58-22.89,46l-662.17,520.77c-11.94,9.39-26.61,14.08-41.27,14.08h-.01ZM4321.12,1973.64c43.9,0,87.8,14.16,123.59,42.52l131.37,103.1,598.03-470.31V321.67h-1705.94v1327.28l598.03,470.31,131.41-103.14c35.78-28.32,79.66-42.48,123.51-42.48h0Z"/>
  <g>
    <path d="M2935.86,2985.22c-14.83,0-29.49-4.81-41.29-14.08l-1180.88-928.92c-14.51-11.42-22.89-28.24-22.89-46s8.38-34.58,22.89-46l1180.9-928.53c19.09-15.02,45.78-18.35,68.36-8.45,22.6,9.86,37.05,31.1,31.05,54.45v1857.46c6,23.35-8.45,44.59-31.05,54.45-8.67,3.79-17.92,5.63-27.09,5.63h0ZM1854.73,1996.21l1016.96,800v-1599.65l-1016.96,799.65Z"/>
    <path d="M1622.49,1952.21c-14.49,0-29.07-4.58-41.06-13.96h-.02c-47.16-36.92-115.66-36.92-162.82,0h-.02c-27.19,21.32-67.69,17.84-90.35-7.63-22.7-25.46-19.07-63.33,8.12-84.6.04-.04.1-.08.15-.12l39.97-31.29c71.57-56.68,175.54-56.68,247.11.04l39.93,31.25s.1.08.15.12c27.19,21.28,30.83,59.14,8.12,84.6-12.68,14.24-30.91,21.59-49.29,21.59h.01Z"/>
  </g>
  <path class="st1" d="M1488.03,1831.76"/>
  <polyline class="st1" points="577.59 619.26 38.85 1069.92 38.85 1091.66 38.85 3000 1249.01 2020.85 38.85 1069.92"/>
  <path class="st1" d="M1524.78,1831.76"/>
  <path class="st1" d="M2939.73,2940.08"/>
  <line class="st1" x1="165.45" y1="2962.08" x2="3000" y2="2962.08"/>
  <line class="st1" x1="2962.75" y1="1063.46" x2="2962.75" y2="2969.89"/>
  <line class="st1" x1="2416.15" y1="622.49" x2="2951.59" y2="1052.3"/>
</svg>