<?xml version="1.0" encoding="UTF-8"?>
<svg id="Layer_1" data-name="Layer 1" xmlns="http://www.w3.org/2000/svg" viewBox="0 0 2995.13 2990.91">
  <defs>
    <style>
      .cls-1 {
        fill: none;
        stroke: #000;
        stroke-miterlimit: 10;
        stroke-width: 75px;
      }
    </style>
  </defs>
  <g>
    <path class="cls-1" d="M1166.49,2772.31c-6.24-79.72-20.54-84.28-53.28-145.65-75.29-141.16-158.13-147.97-260.4-132.38-25.55,3.89-140.68,12.2-162.23,8.77-14.73-2.35-55.45-5.91-109.95-14.87-77.83-12.8-168.84-26.71-261.03,119.92-22.72,36.15-43.29,123.65-51.85,178.57"/>
    <circle class="cls-1" cx="708.12" cy="2282.79" r="670.62"/>
    <circle class="cls-1" cx="717.13" cy="2107.89" r="236.52"/>
  </g>
  <g>
    <path class="cls-1" d="M1971.89,1197.63c-6.24-79.72-20.54-84.28-53.28-145.65-75.29-141.16-158.13-147.97-260.4-132.38-25.55,3.89-140.68,12.2-162.23,8.77-14.73-2.35-55.45-5.91-109.95-14.87-77.83-12.8-168.84-26.71-261.03,119.92-22.72,36.15-43.29,123.65-51.85,178.57"/>
    <circle class="cls-1" cx="1513.51" cy="708.12" r="670.62"/>
    <circle class="cls-1" cx="1522.52" cy="533.21" r="236.52"/>
  </g>
  <g>
    <path class="cls-1" d="M2745.38,2772.31c-6.24-79.72-20.54-84.28-53.28-145.65-75.29-141.16-158.13-147.97-260.4-132.38-25.55,3.89-140.68,12.2-162.23,8.77-14.73-2.35-55.45-5.91-109.95-14.87-77.83-12.8-168.84-26.71-261.03,119.92-22.72,36.15-43.29,123.65-51.85,178.57"/>
    <circle class="cls-1" cx="2287.01" cy="2282.79" r="670.62"/>
    <circle class="cls-1" cx="2296.02" cy="2107.89" r="236.52"/>
  </g>
  <line class="cls-1" x1="1378.75" y1="2340.91" x2="1643.94" y2="2344.4"/>
  <line class="cls-1" x1="1378.75" y1="1345.13" x2="1166.49" y2="1793.29"/>
  <line class="cls-1" x1="1795.61" y1="1802.7" x2="1628.79" y2="1335.71"/>
</svg>