<?xml version="1.0" encoding="UTF-8"?>
<svg id="Layer_1" xmlns="http://www.w3.org/2000/svg" version="1.1" viewBox="0 0 2995.13 2990.91">
  <!-- Generator: Adobe Illustrator 30.3.0, SVG Export Plug-In . SVG Version: 2.1.3 Build 182)  -->
  <defs>
    <style>
      .st0 {
        fill: none;
        stroke: #000;
        stroke-miterlimit: 10;
        stroke-width: 75px;
      }
    </style>
  </defs>
  <g>
    <path class="st0" d="M1464.79,1478.72c-6.97-89.08-22.95-94.17-59.53-162.75-84.13-157.73-176.69-165.34-290.96-147.92-28.55,4.35-157.19,13.63-181.27,9.8-16.46-2.63-61.96-6.6-122.86-16.62-86.97-14.3-188.66-29.85-291.67,134-25.39,40.39-48.37,138.16-57.94,199.53"/>
    <circle class="st0" cx="952.61" cy="931.75" r="749.33"/>
    <circle class="st0" cx="962.68" cy="736.32" r="264.28"/>
  </g>
  <rect class="st0" x="39.44" y="39.69" width="2915.88" height="2915.88" rx="127.87" ry="127.87"/>
  <g>
    <line class="st0" x1="1921.58" y1="552.34" x2="2740.67" y2="552.34"/>
    <line class="st0" x1="1921.58" y1="931.75" x2="2740.67" y2="931.75"/>
    <line class="st0" x1="1921.58" y1="1311.17" x2="2740.67" y2="1311.17"/>
  </g>
  <line class="st0" x1="173.1" y1="2073.47" x2="2740.67" y2="2073.47"/>
  <line class="st0" x1="173.1" y1="2465.85" x2="2740.67" y2="2465.85"/>
</svg>