<?xml version="1.0" encoding="UTF-8"?>
<svg id="Layer_1" xmlns="http://www.w3.org/2000/svg" version="1.1" viewBox="0 0 3000 3000">
  <!-- Generator: Adobe Illustrator 30.3.0, SVG Export Plug-In . SVG Version: 2.1.3 Build 182)  -->
  <defs>
    <style>
      .st0 {
        fill: #020202;
      }
    </style>
  </defs>
  <path class="st0" d="M95.52,421.63h322.72c40.94,133.38,165.25,230.59,311.78,230.59s270.84-97.22,311.78-230.59h1862.67c52.74,0,95.52-42.78,95.52-95.52s-42.78-95.52-95.52-95.52h-1862.67C1000.85,97.21,876.55,0,730,0s-270.84,97.22-311.78,230.59H95.52c-52.74.02-95.52,42.79-95.52,95.52s42.78,95.52,95.52,95.52h0ZM730,191.1c74.5,0,135.09,60.58,135.09,135.09s-60.58,135.09-135.09,135.09-135.09-60.58-135.09-135.09,60.58-135.09,135.09-135.09h0Z"/>
  <path class="st0" d="M2904.46,2578.24h-1433.98c-40.94-133.38-165.25-230.59-311.78-230.59s-270.84,97.22-311.78,230.59H95.52c-52.74,0-95.52,42.78-95.52,95.52s42.78,95.52,95.52,95.52h751.42c40.94,133.38,165.25,230.59,311.78,230.59s270.84-97.22,311.78-230.59h1433.98c52.74,0,95.52-42.78,95.52-95.52s-42.78-95.52-95.52-95.52h-.02ZM1158.7,2808.76c-74.43,0-135.01-60.58-135.09-135.01v-.14c.07-74.43,60.58-135.01,135.09-135.01s135.09,60.58,135.09,135.09-60.58,135.09-135.09,135.09h0v-.02Z"/>
  <path class="st0" d="M2904.46,1404.48h-1051.22c-40.94-133.38-165.25-230.59-311.78-230.59s-270.84,97.22-311.78,230.59H95.52c-52.74,0-95.52,42.78-95.52,95.52s42.78,95.52,95.52,95.52h1134.16c40.94,133.38,165.25,230.59,311.78,230.59s270.84-97.22,311.78-230.59h1051.22c52.74,0,95.52-42.78,95.52-95.52s-42.78-95.52-95.52-95.52h-.02,0ZM1541.46,1635.09c-74.43,0-134.95-60.51-135.09-134.88v-.41c.14-74.37,60.65-134.88,135.09-134.88s135.09,60.58,135.09,135.09-60.58,135.09-135.09,135.09v-.02Z"/>
</svg>