<?xml version="1.0" encoding="UTF-8"?>
<svg id="Layer_1" data-name="Layer 1" xmlns="http://www.w3.org/2000/svg" viewBox="0 0 2996.11 1997.33">
  <defs>
    <style>
      .cls-1 {
        fill: #010101;
        stroke: #010101;
        stroke-miterlimit: 10;
        stroke-width: 57px;
      }
    </style>
  </defs>
  <path class="cls-1" d="M1359.66,960.43c-1.21,62.34-33.61,123.65-92.55,147.9-24.22,9.97-48.93,9.46-74.33,9.46H233.51c-88.86,0-147.98-75.15-147.98-161.96V297.44c0-64.95.71-125.72,51.41-175.03,48.06-46.73,120.75-35.91,181.66-35.91h784.56c54.83,0,125.96-10.69,176.46,15.49,51.25,26.56,80.05,85.19,80.05,142.09v716.38c0,36.41,55.72,36.41,55.72,0V328.71c0-50.99,4.25-104.6-10.52-153.94-17.32-57.93-61.06-107.84-116.42-130.62-28.56-11.75-57.81-14.14-88.13-14.14H238.56c-100.76,0-182.2,66.62-203.96,167.01-9.87,45.56-4.79,97.17-4.79,143.38v511.22c0,43.86-2.88,88.95,1.38,132.7,10.39,106.74,96.05,189.94,202.32,189.94h959.28c25.7,0,50.47-.38,75.73-6.98,57.98-15.13,104.92-62.34,128.4-116.88,12.3-28.61,17.87-58.86,18.48-89.99.7-36.44-55.01-36.36-55.72,0h0v.02Z"/>
  <path class="cls-1" d="M1359.66,1767.59c-1.44,65.01-42.17,119.39-103.7,138.02-22.12,6.71-45.96,5.1-68.82,5.1H230.89c-46.69,0-90.16-20.09-118.23-58.55-23.78-32.59-27.14-69.39-27.14-108.12v-233.66c0-90.87,64.55-152.54,153.04-152.54h961.76c41.89,0,80.08,7.7,112.79,36.87,38.5,34.35,46.57,80.9,46.57,129.81v243.04c0,36.41,55.72,36.41,55.72,0v-210.41c0-28.68,1.91-58.49-2.53-86.93-9.71-62.04-47.43-114.73-101.36-145.19-56.55-31.93-127.05-23.68-189.45-23.68H337.22c-59.23,0-127.56-8.12-183.67,14.47-57.45,23.15-99.14,72.54-116.71,132.07-9.08,30.8-7.03,64.01-7.03,95.79v222.48c0,110.87,90.02,201,199.1,201h879.09c39.36,0,78.81.71,118.18-.17,105.96-2.42,186.92-95.11,189.24-199.43.81-36.44-54.92-36.36-55.72,0h-.03v.03Z"/>
  <path class="cls-1" d="M2911.77,505.74c-1.45,65.01-42.18,119.38-103.7,138.02-22.34,6.77-46.51,5.1-69.61,5.1h-975.45c-54.23,0-100.75-29.79-126.9-77.33-16.97-30.87-15.75-65.02-15.75-98.95v-233.98c0-90.97,65.07-152.12,153.35-152.12h984.72c48.25,0,89.22,15.24,121.74,52.7,30.62,35.26,31.61,79.71,31.61,123.59v242.98c0,36.41,55.72,36.41,55.72,0v-207.84c0-25.36.39-50.77-.17-76.13-1.42-63.64-35.79-119.52-85.22-156.56-57.03-42.75-129.77-35.21-196.42-35.21h-811.26c-59.87,0-129.3-8.37-186.02,14.47-57.45,23.15-99.14,72.53-116.71,132.07-8.94,30.31-7.03,62.87-7.03,94.13v229.9c0,110.82,86,204.77,197.31,204.77h895.76c40.16,0,80.4.75,120.54-.17,105.95-2.42,186.92-95.12,189.24-199.43.81-36.44-54.92-36.36-55.72,0h-.01Z"/>
  <path class="cls-1" d="M2911.77,1767.59c-1.45,65.01-42.17,119.39-103.7,138.02-22.34,6.77-46.51,5.1-69.61,5.1h-975.45c-54.23,0-100.75-29.78-126.9-77.32-13.88-25.22-15.75-53.17-15.75-81.23v-640.12c0-87.12,64.83-149.3,149.75-149.3h984.13c33.73,0,64.23,5,93.76,23.4,41.08,25.6,63.76,74.15,63.76,122v659.44c0,36.41,55.72,36.41,55.72,0v-661.62c0-60.42-27.71-117.87-73.93-155.7-59.12-48.39-128.51-43.98-199.18-43.98h-810.1c-58.39,0-125.38-7.91-182.11,9.29-90.68,27.48-137.51,114.75-137.51,205.74v640.12c0,107.93,76.15,193.02,181.57,205.08,41.9,4.79,86.18.69,128.19.69h896.12c109.01,0,194.56-91.02,196.96-199.62.81-36.44-54.92-36.36-55.72,0h0v.02Z"/>
</svg>