<?xml version="1.0" encoding="UTF-8"?>
<svg id="Layer_1" data-name="Layer 1" xmlns="http://www.w3.org/2000/svg" viewBox="0 0 3010.43 3018.22">
  <defs>
    <style>
      .cls-1 {
        fill: #010101;
        stroke: #010101;
        stroke-miterlimit: 10;
        stroke-width: 57px;
      }
    </style>
  </defs>
  <path class="cls-1" d="M1327.92,1450.76c-1.85,95.14-51.3,188.71-141.25,225.72-36.96,15.21-74.67,14.43-113.44,14.43H341.37c-135.61,0-225.84-114.69-225.84-247.18V438.95c0-99.12,1.09-191.87,78.46-267.12,73.34-71.32,184.27-54.81,277.23-54.81h465.22c83.68,0,192.24-16.32,269.3,23.63,78.22,40.54,122.17,130.02,122.17,216.85v1093.3c0,55.57,85.04,55.57,85.04,0V486.67c0-77.83,6.49-159.63-16.06-234.94-26.43-88.41-93.19-164.57-177.68-199.34-43.59-17.93-88.23-21.59-134.5-21.59H349.08c-153.78,0-278.06,101.67-311.27,254.88-15.07,69.54-7.31,148.29-7.31,218.82v780.19c0,66.94-4.39,135.76,2.11,202.51,15.86,162.9,146.58,289.88,308.77,289.88h731.88c39.22,0,77.03-.59,115.57-10.65,88.49-23.1,160.12-95.14,195.96-178.37,18.77-43.66,27.27-89.82,28.2-137.33,1.07-55.61-83.95-55.49-85.04,0h0l-.02.03Z"/>
  <path class="cls-1" d="M1327.92,2682.61c-2.19,99.22-64.35,182.21-158.27,210.64-33.76,10.24-70.14,7.79-105.04,7.79H337.38c-71.26,0-137.59-30.66-180.44-89.35-36.3-49.74-41.42-105.9-41.42-165.01v-356.6c0-138.68,98.52-232.79,233.56-232.79h735.66c63.93,0,122.22,11.75,172.13,56.27,58.76,52.42,71.08,123.47,71.08,198.11v370.91c0,55.57,85.04,55.57,85.04,0v-321.12c0-43.77,2.91-89.27-3.87-132.67-14.82-94.68-72.38-175.09-154.69-221.58-86.31-48.73-193.9-36.13-289.13-36.13h-465.65c-90.39,0-194.68-12.39-280.31,22.09-87.68,35.34-151.3,110.71-178.11,201.55-13.86,47.01-10.73,97.69-10.73,146.19v339.54c0,169.21,137.38,306.75,303.86,306.75h545.09c60.08,0,120.28,1.09,180.36-.26,161.71-3.69,349.67-145.15,353.22-304.36,1.24-55.61-83.82-55.49-85.04,0h-.05l-.02.05Z"/>
  <path class="cls-1" d="M2896.7,756.83c-2.21,99.22-64.37,182.19-158.27,210.64-34.1,10.34-70.98,7.79-106.24,7.79h-709.61c-82.77,0-153.77-45.46-193.67-118.02-25.89-47.1-24.04-99.23-24.04-151.02v-357.09c0-138.83,99.31-232.16,234.03-232.16h723.75c73.63,0,136.16,23.26,185.79,80.43,46.73,53.82,48.24,121.65,48.24,188.61v370.83c0,55.57,85.04,55.57,85.04,0v-317.19c0-38.7.6-77.48-.26-116.19-2.16-97.12-54.61-182.41-130.05-238.94-87.04-65.24-198.04-53.74-299.76-53.74h-459.04c-91.37,0-197.33-12.78-283.9,22.09-87.68,35.34-151.3,110.69-178.11,201.55-13.64,46.26-10.73,95.95-10.73,143.66v350.87c0,169.13,131.25,312.51,301.13,312.51h587.98c61.29,0,122.7,1.14,183.97-.26,161.7-3.69,285.26-145.17,288.81-304.36,1.24-55.61-83.82-55.49-85.04,0h-.02Z"/>
  <path class="cls-1" d="M2896.7,2682.61c-2.21,99.22-64.35,182.21-158.27,210.64-34.1,10.34-70.98,7.79-106.24,7.79h-709.61c-82.77,0-153.77-45.45-193.67-118.01-21.18-38.49-24.04-81.14-24.04-123.97v-976.92c0-132.96,98.94-227.85,228.54-227.85h722.86c51.48,0,98.03,7.62,143.09,35.71,62.69,39.08,97.31,113.16,97.31,186.19v1006.4c0,55.57,85.04,55.57,85.04,0v-1009.73c0-92.21-42.29-179.89-112.82-237.62-90.23-73.84-196.12-67.11-303.97-67.11h-457.26c-89.11,0-191.35-12.08-277.93,14.17-138.39,41.94-209.86,175.12-209.86,313.98v976.92c0,164.72,116.22,294.58,277.1,312.98,63.94,7.31,131.53,1.06,195.64,1.06h588.53c166.36,0,296.93-138.91,300.59-304.65,1.24-55.61-83.82-55.49-85.04,0h0l.02.03Z"/>
</svg>