<?xml version="1.0" encoding="UTF-8"?>
<svg id="Layer_1" data-name="Layer 1" xmlns="http://www.w3.org/2000/svg" viewBox="0 0 2992.58 2988.7">
  <path d="M2875.39,2819.03c-9.56,90.46-71.3,158.88-153.45,169.67l-2449.57-1.15c-79.8-.04-154-85.81-154.05-169.21l-1.04-1643.69-65.63-.71c-18.94-.03-51.29-17.14-51.31-43.8l-.33-524.82L264.69,49.33C278.79,19.71,296.1.54,330.35.04l2333.8-.04c31,4.36,53.14,21.15,63.11,50.99l109.44,230.67,155.88,325.08-.54,522c-.03,27.88-32.76,44.8-53.4,45.16l-63.24.84-.02,1644.29ZM2873.24,572.55l-225.36-472.87H342.48s-223.8,472.82-223.8,472.82l2754.56.05ZM89.61,670.42v404.12h2812.9v-404.12H89.61ZM2710.49,2891.8c42.93-7.59,74.75-41.04,74.76-86.94l.07-1630.27-2578.17-.21-.19,1625.91c.23,55.98,42.16,96.62,94.46,91.47l2409.07.03Z"/>
  <path d="M1880.34,1897.08l-768.05.07c-60.24,0-112.66-43.05-113.05-110.27l-1.32-226.04c-.38-64.82,42.35-124.11,106.75-124.17l773.61-.71c61.18-.06,114.5,44.1,114.6,112.68l.34,229.88c.1,67.6-46.76,118.56-112.88,118.56ZM1903.32,1533.78l-815.36.04v266.15s815.37-.04,815.37-.04v-266.15Z"/>
</svg>