<?xml version="1.0" encoding="UTF-8"?>
<svg id="Layer_1" data-name="Layer 1" xmlns="http://www.w3.org/2000/svg" viewBox="0 0 2992 2997.69">
  <defs>
    <style>
      .cls-1 {
        stroke: #000;
        stroke-miterlimit: 10;
        stroke-width: 38px;
      }
    </style>
  </defs>
  <path class="cls-1" d="M1497.05,2978.69H59.98c-29.22-1.72-37.68-11.9-38.23-46.1-.55-37.15-1.03-74.29-1.44-111.44,0-22.23,3.58-27.78,22.55-33.18,4.19-1.17,8.46-1.96,12.72-3.05,18.43-4.85,26.82-20.27,30.19-39.52,2.75-15.65-9.35-34.51-25.51-43.36l-2.89-1.64q-35.62-16.9-35.48-59.09c0-27.23-.34-54.78,0-81.78,0-28.64,1.44-29.9,26.06-37.17,23.45-7.04,38.64-24.03,38.99-43.43.34-19.41-13.75-36.94-36.79-46.33q-27.51-11.19-28.4-43.98v-14.87c0-43.51,0-43.12,36.31-56.43,85.88-31.77,136.08-100.72,153.27-198.86,20.15-115.51-15.4-209.35-98.47-278.45-17.88-14.87-40.64-22.85-61.89-31.77-26.68-11.27-28.4-12.52-29.43-44.45-.62-19.8-2.41-39.52-2.54-59.32,0-27.39,4.81-34.12,27.99-41.71,4.29-.78,8.51-2.04,12.58-3.76,15.13-9.31,27.51-23.48,26.68-43.28-.83-19.8-12.93-33.42-29.16-40.93q-35.41-16.28-35.41-57.6v-92.89c0-30.99,2.75-35.92,28.74-44.22,23.45-7.83,35.76-22.7,36.58-45,.76-20.27-16.3-43.75-36.93-50.87q-27.51-9.39-27.92-39.13c-.41-42.18-.69-84.29-.41-126.39,0-40.3,11-51.96,47.58-52.04h192.54l2655.41.39c7.6-.55,15.23-.55,22.83,0,20.29,2.97,31.63,15.65,31.97,39.13.76,48.36,0,96.65,0,145.02,0,19.33-7.29,28.88-24.2,32.79-10.5,2.23-20.2,7.88-27.92,16.28-24.48,29.27-12.93,69.81,21.59,79.51,27.02,7.83,29.91,11.03,30.26,42.26.41,35.95.41,71.9,0,107.84-.41,29.66-3.71,33.89-27.51,41.32-25.17,7.83-38.64,24.73-37.61,47.5,1.03,22.77,16.5,41.01,39.74,46.96,23.24,5.95,25.24,7.83,25.85,32.63.48,22.3.48,44.61,0,66.91-.76,25.9-5.16,32.16-26.4,39.76-95.44,34.43-147.5,113.01-161.59,221.16-13.75,105.65,18.5,195.65,95.79,259.82,19.91,14.93,41.58,26.58,64.36,34.59,24.75,10.1,27.51,11.11,28.06,40.62.31,4.95.31,9.92,0,14.87-1.38,14.56.48,31.7-5.78,42.65-5.23,9.16-20.01,11.5-30.87,15.65-14.51,6.1-29.5,25.75-28.12,41.56,1.51,17.76,7.63,33.89,23.59,41.4,6.03,2.72,12.38,4.41,18.84,5.01,14.17,1.57,22,9.63,22.07,26.14,0,39.6.34,79.28,0,118.96,0,17.61-8.87,25.36-24.41,28.25-26.82,5.09-39.81,20.82-40.29,44.3-.48,23.48,14.44,44.06,41.26,48.29,18.29,2.97,24.14,13.3,24.14,31.93,0,39.68.41,79.36-.48,118.96-.55,25.04-10.31,35.92-31.49,38.58-5.45.35-10.91.35-16.37,0h-1427.51v1.02ZM73.74,1745.55c125.84,58.07,196.46,164.74,197.97,315.86,1.51,151.12-66.84,258.26-194.87,315.47,39.54,21.52,51.23,35.06,59.34,65.9,13.75,51.81-.69,92.27-44.7,126.39-22.07,17.14-22.97,64.41,0,79.98,73.03,51.18,56.52,152.92-.48,185.32-6.43,3.53-11.25,9.98-13.27,17.76-1.51,20.27,0,40.85,0,61.04h2838.46v-71.22c-5.5-2.52-10.87-5.4-16.09-8.61-62.71-43.67-63.19-140.32,0-182.97,12.93-8.77,18.29-17.37,18.63-34.36.41-22.38-3.44-37.1-21.94-51.42-62.51-48.44-58.24-134.37,6.88-178.98l13.41-9.39c-130.65-52.75-194.05-199.95-190.34-315.78,1.2-68.42,19.78-134.99,53.5-191.66,32.93-57.27,81.87-100.22,138.9-121.93,2.89-17.69-2.41-26.22-16.3-35.22-51.3-33.18-65.46-101.74-32.18-156.52,11.07-18.39,29.29-31.3,48.13-50.56,0-7.83-.76-22.93,0-37.64,1.24-17.92-2.96-29.5-18.57-38.11-20.74-11.97-35.99-33.48-41.88-59.09-14.17-52.43,1.1-101.74,41.26-133.04,7.7-6.03,18.5-8.22,18.22-23.01-.41-26.92,0-53.92,0-82.56H77.24c0,19.8,1.17,37.1,0,54.16-2.13,26.45,4.33,43.9,24.55,61.67,56.11,49.15,53.08,137.43-5.5,178.12-17.4,12.13-21.59,24.5-20.63,44.14.41,8.68.41,17.38,0,26.06-1.43,11.19,4.35,21.94,13.75,25.59,20.85,11.57,37.02,31.79,45.18,56.5,17.81,50.63,0,105.42-43.94,133.04-12.79,7.9-22.62,14.64-16.92,35.06Z"/>
  <path class="cls-1" d="M1597.5,1636.72h187.49c16.06,0,34.91-4.33,42.94,15.99,8.24,21.44-11.94,28.56-23.32,38.82-48.18,43.64-97.06,86.59-146.64,130.44,16.34,63.4,32.54,126.18,48.88,188.95,1.33,5.38,5.24,10.82,4.47,15.71-1.12,8.03-3,18.5-8.52,22.69-7.26,4-15.94,4.49-23.6,1.33-18.64-9.59-36.78-20.15-54.33-31.63-42.94-26.88-85.68-54.12-129.74-81.98l-131.62,82.88c-15.92,9.99-31.77,20.04-47.69,29.96-8.8,5.45-17.67,9.5-27.16,1.12-9.05-6.98-12.48-19.05-8.45-29.75,5.94-18.92,11.87-37.85,17.11-56.91,12.92-46.71,25.42-93.5,38.47-141.54-52.51-46.5-104.18-92.8-156.69-138.12-11.1-9.57-19.34-18.57-13.55-33.52,5.8-14.94,18.29-13.97,30.65-13.97,57.4,0,114.87,0,172.26-.56,27.93,0,27.37-.56,37.43-26.46,21.79-56.49,44.2-112.84,66.2-169.33,4.68-12.15,10.96-21.93,25.63-21.72,14.66.21,19.48,11.31,24.02,23.25,20.95,55.86,42.52,111.16,63.96,166.61,3.42,7.96,6.91,15.92,11.8,27.72ZM1730.86,1685.11c-49.72,0-92.52.49-135.39,0-36.1-.56-39.31-4.12-51.88-38.61-14.38-39.1-29.75-77.79-46.78-122.13-18.64,47.76-35.54,89.17-50.83,131.2-7.96,21.65-20.6,31.21-44.48,30.37-45.04-1.54-90.22-.42-135.32-.42l-5.03,6.98c4.38,1.07,8.58,2.82,12.43,5.17,34.35,29.33,68.29,59.28,102.79,88.54,12.99,11.03,18.29,21.86,13.06,40.08-12.71,43.99-22.62,88.82-34.91,137.07l17.11-10.68c33.59-20.95,67.52-41.9,100.69-63.75,15.78-10.33,30.03-11.17,45.67-.35,12.71,8.73,26.25,16.2,39.45,24.3,27.3,16.69,54.53,33.52,83.79,51.46-12.57-45.04-23.46-86.59-35.89-127.71-7.74-20.18-1.05-43.03,16.34-55.86,27.02-22.76,53.28-46.43,79.88-69.83l29.33-25.84Z"/>
  <path class="cls-1" d="M428.25,2022.59v-703.23c-.39-9.93-.04-19.87,1.05-29.75,1.03-12.72,11.03-22.88,23.74-24.09,14.45-1.82,23.04,7.54,26.88,19.83,2.47,9.57,3.5,19.45,3.07,29.33v1416.37c.49,8.8.02,17.63-1.4,26.32-2.02,12.56-12.63,21.94-25.35,22.41-13.82-.22-25.4-10.53-27.23-24.23-.84-7.67-1.05-15.4-.63-23.11v-709.86h-.14Z"/>
  <path class="cls-1" d="M2565.99,2022.66v699.25c.42,11.03-.07,22.08-1.47,33.03-2.56,13.46-13.85,23.52-27.51,24.51-13.58-1.73-24.04-12.81-25-26.46-.57-7.71-.69-15.45-.35-23.18v-1411.83c-.6-9.89-.11-19.82,1.47-29.61,2.09-12.53,12.65-21.9,25.35-22.48,13.8.47,25.28,10.77,27.23,24.44.85,7.67,1.04,15.41.56,23.11,0,236.43,0,472.84,0,709.23h-.28Z"/>
  <path class="cls-1" d="M1498.34,2213.49h652.74c9.99,0,19.97-.56,29.82.42,13.61-.12,24.75,10.81,24.87,24.42,0,.35,0,.71-.01,1.06,1.15,12.79-7.78,24.29-20.46,26.32-8.64,1.69-17.45,2.37-26.25,2.03h-636.19l-682.63-.35c-8.82.37-17.66.19-26.46-.56-13.84-.64-24.89-11.78-25.42-25.63-.42-13.97,10.33-25.49,27.37-27.23,9.85-.98,19.9-.49,29.82-.49h652.81Z"/>
  <path class="cls-1" d="M1499.04,2472.41h656.79c8.8,0,17.74-.35,26.53.49,14.31,1.4,20.95,11.1,22.83,24.37,2.16,12.73-6.35,24.82-19.06,27.09-7.54,1.62-15.27,2.23-22.97,1.82-291.92,0-583.82.12-875.7.35-150.41,0-300.77-.35-451.08-1.05-8.85.18-17.7-.38-26.46-1.68-13.34-2.3-22.07-9.78-22-24.58-.21-13.94,10.59-25.57,24.51-26.39,9.92-.82,19.88-1,29.82-.56h656.79v.14Z"/>
  <path class="cls-1" d="M1858.55,1779.82,409.26,1106.38c-8.06-22.39-16.13-44.84-24.21-67.29-8.08-22.45-7.37-26.74,9.3-39.52,14.95-11.78,19.99-25.76,14.77-42.13-4.73-14.88-23.2-27.44-40-27.22q-22.37.37-30.42-21.07c-11.29-30.45-22.46-60.87-33.24-91.44-10.5-29.19-5.57-40.51,20.91-50.1,46.52-16.74,93.04-33.47,139.46-50.17L2389.39,25.73c5.36-2.38,10.89-4.36,16.54-5.95,15.47-3.13,26.99,3.09,33.36,20.01,13.15,34.84,25.19,70.01,37.79,105.04,5.04,14,2.25,22.82-8.99,30.06-7.02,4.35-12.58,10.97-15.98,19.07-10.1,27.58,8.83,53.93,36.36,51.97,21.61-1.37,24.54.2,32.93,22.73,9.67,25.93,19.03,51.97,28.1,78.12,7.43,21.59,6.14,25.51-9.16,37.1-16.19,12.23-21.55,27.98-14.87,44.21,6.68,16.23,22.64,25.4,41.03,23.66,18.39-1.75,20.32-.91,27.23,16.9,6.16,16.03,11.97,32.19,17.44,48.47,6.2,18.96,4.65,24.64-8.77,35.68-60.16,49.81-77.39,120.29-59.42,202.31,17.57,80.11,64.38,136.9,137.09,163.24,18.31,5.63,37.04,8.42,55.63,8.28,20.56.86,22.82.88,30.91,22.11,1.51,3.51,2.81,7.1,3.87,10.77,2.8,10.9,8.61,22.83,6.93,32.4-1.4,7.99-11.5,13.55-18.29,19.38-8.92,8.2-14.66,26.34-9.54,37.43,5.73,12.47,14.36,22.56,27.87,23.84,5.08.4,10.11-.03,14.95-1.28,10.67-2.56,18.45,1.24,22.8,13.18l-50.4,31.45c-57.9-18.8-77.2-82.16-41.66-131.44l7.27-10.3c-108.38-4.16-192.67-94.27-220.16-179.14-16.96-49.88-20.85-102.94-11.19-152.77,8.93-50.06,33.18-93.93,68.84-124.52-2.52-13.56-8.58-18.36-20.98-21.26-45.8-10.67-73.93-56.64-64.1-104.99,3.23-16.21,13.06-30.31,21.69-49.16-2.04-5.67-6.52-16.41-9.81-27.27-3.77-13.3-9.83-20.6-23.38-22.77-18.15-3.26-34.79-14.87-45.73-31.89-23.92-34.29-25.72-73.98-4.79-107.12,4.01-6.37,11.26-10.77,7.2-21.41-7.31-19.39-14.05-39.06-21.52-59.81L348.92,812.31c5.16,14.34,10.51,26.57,14.11,39.23,5.35,19.72,14.58,30.67,33.85,38.27,53.45,20.98,74.26,85.71,42.43,130.46-9.44,13.32-9.26,23.37-3.44,37.35,2.56,6.18,4.83,12.48,6.79,18.88,1.88,8.47,8.87,14.76,16.63,14.95,18.12,2.94,35.1,13.38,47.45,29.16M465.52,1205.22,732.18,1435.43"/>
  <path class="cls-1" d="M1449.79,1097.86c-2.82-37.2-5.95-74.35-9.02-112.55-50.15-20-99.65-40.07-149.49-59.21-10.54-4.04-18.85-8.41-18.55-20.75.3-12.33,9.61-14.88,18.56-18.1,41.58-14.96,83.2-29.93,124.63-45.3,20.23-7.28,19.68-7.54,20.21-28.92,1.06-46.6,2.61-93.25,3.82-139.9.22-10.02,2.23-18.74,12.9-22.41,10.68-3.67,17.06,3.12,23.46,10.58,29.73,35,59.77,69.44,89.75,104.01,4.55,4.87,9.16,9.73,15.77,17,46.28-16.65,91.04-32.75,135.81-48.86,11.63-4.19,24.16-12.23,35.27.39,11.55,13.38-1.21,23.8-6.78,34.2-23.53,44.17-47.74,88.01-72.23,132.69,28.36,41.67,56.45,82.92,84.65,124.13,2.36,3.55,6.61,6.47,7.33,10.22,1.28,6.11,2.65,14.19-.26,18.66-4.21,4.79-10.38,7.41-16.75,7.11-16.01-2.09-31.89-5.01-47.59-8.76-38.11-8.28-76.16-16.87-115.34-25.57l-73.74,94.34M1691.07,782.61c-36.01,12.96-66.89,24.46-98.07,35.28-26.3,9-29.55,7.26-47.64-14.45-20.61-24.58-41.82-48.59-65.71-76.27-1.06,39.45-2.51,73.85-2.63,108.29-.13,17.75-6.79,27.98-24.3,33.59-33.02,10.62-65.46,23.21-98.13,34.96l-1.82,6.37c3.46-.36,6.95-.19,10.35.5,32.53,12.29,64.92,25.15,97.53,37.35,12.28,4.61,18.95,11.06,19.9,25.63,2.26,35.18,6.76,70.23,10.43,108.39l9.61-12.2c18.87-23.93,37.99-47.94,56.32-72.42,8.74-11.6,18.84-15.92,32.99-12.15,11.48,3.01,23.24,4.89,34.91,7.32,24.13,4.97,48.24,10.07,74.11,15.44-20.84-29.35-39.56-56.6-59.28-83.16-10.86-12.6-11.98-30.9-2.72-44.72,13.64-23.53,26.49-47.52,39.67-71.4l14.51-26.36Z"/>
  <path class="cls-1" d="M781.42,1082.25c2.64,6.25,4.61,12.76,5.85,19.43,1.81,9.63-3.43,19.19-12.52,22.84-10.07,3.44-21.14-1.01-26.04-10.45-2.61-5.34-4.77-10.88-6.48-16.58l-90.03-240.36c-2.87-7.09-5.2-14.38-6.99-21.82-2.57-9.48,2.03-19.45,10.92-23.64,10-5.08,18.66-.54,24.64,7.36,4.28,6.29,7.61,13.18,9.87,20.44l90.79,242.77Z"/>
  <path class="cls-1" d="M2338.03,681.81c46.59,129.51,93.19,259.02,139.78,388.54,2.51,6.02,4.37,12.28,5.54,18.73.84,8.15-5.33,16.68-15.03,20.79-10.18,2.58-19.98-.85-23.4-8.19-1.96-4.14-3.59-8.41-4.89-12.79-94.08-261.51-188.16-523-282.23-784.48-2.41-5.34-4.04-10.99-4.86-16.83-.99-7.51,4.79-15.47,13.87-19.1,10.09-3.34,20.46-.6,24.61,6.48,2.15,4.04,3.83,8.29,5.02,12.7,47.26,131.37,94.52,262.74,141.78,394.09l-.2.07Z"/>
</svg>