<?xml version="1.0" encoding="UTF-8"?>
<svg id="Layer_1" xmlns="http://www.w3.org/2000/svg" version="1.1" viewBox="0 0 2992.58 2988.7">
  <!-- Generator: Adobe Illustrator 30.3.0, SVG Export Plug-In . SVG Version: 2.1.3 Build 182)  -->
  <path d="M2830.04,2560.8V776.15c101.71-13.1,173.51-106.85,160.55-209.66-.5-4.03-1-8.57-1.99-12.6-9.47-48.38-37.89-90.72-78.78-117.94C2491,154.22,1999.39,2.52,1496.32,0,993.24,2.02,501.63,153.72,82.82,435.96c-40.88,27.72-69.3,70.56-78.78,119.45-9.47,48.89.5,99.29,27.92,140.61,29.92,44.86,77.28,74.59,130.63,80.64v1784.15c-115.17,29.23-184.98,147.17-156.06,263.59,23.93,96.77,110.69,164.81,209.41,164.3h2560.75c118.66.5,215.39-96.26,215.89-216.21,0-99.79-66.81-187.49-162.54-211.68ZM114.73,637.56c-26.43-39.82-15.95-93.74,23.43-120.46h0C541.02,247.46,1013.18,102.82,1496.32,100.8c483.63,1.51,955.79,146.66,1358.16,417.31,38.89,26.71,49.36,79.63,23.43,119.45-27.42,38.81-79.77,48.89-119.16,23.69-74.79-50.4-152.07-96.26-231.84-137.09h-2.49c-319.1-162.79-671.1-247.97-1028.09-249.98h0c-357.49,1.51-709.49,87.7-1028.09,252h0c-80.27,40.82-158.05,86.69-232.84,137.09-39.39,26.71-93.24,16.13-119.66-24.19,0-.5-.5-1.01-1-1.51ZM2730.32,760.03v1792.71h-174.51V655.19c49.86,27.72,99.72,57.46,149.58,90.72,7.98,5.54,16.45,10.58,24.93,15.12v-1.01ZM1815.41,400.17c40.88,168.33,242.31,925.84,611.27,1148.61-77.28,106.34-232.34,389.09-290.18,1003.96H856.13c-57.84-614.88-212.9-897.62-290.68-1003.96,369.45-222.77,570.88-982.79,611.27-1149.62M756.41,2552.74h-219.88v-860.83c72.79,134.06,174.01,395.64,219.88,860.83ZM536.53,1448.48v-846.21c169.02-83.66,348.01-145.15,532.49-183.45-55.84,212.69-238.82,829.58-532.49,1029.66ZM2454.1,1691.41v861.33h-217.88c45.87-465.19,147.08-727.27,219.88-861.33h-1.99ZM1923.61,419.32c184.48,37.3,363.47,98.78,532.49,182.45v846.71c-293.67-199.58-476.65-816.47-532.49-1029.16ZM436.81,655.19v1897.55h-174.51V760.53c9.47-4.03,18.45-9.07,26.92-14.62,40.39-27.72,90.24-57.96,147.58-90.72ZM2776.69,2887.9H215.94c-63.82,0-115.67-52.42-115.67-116.93s51.85-116.93,115.67-116.93h2562.25c63.82,0,115.67,52.42,115.67,116.93s-51.85,116.93-115.67,116.93h-1.5Z"/>
</svg>