<?xml version="1.0" encoding="UTF-8"?>
<svg id="Layer_1" xmlns="http://www.w3.org/2000/svg" version="1.1" viewBox="0 0 2992.58 2988.7">
  <!-- Generator: Adobe Illustrator 30.3.0, SVG Export Plug-In . SVG Version: 2.1.3 Build 182)  -->
  <defs>
    <style>
      .st0 {
        fill: red;
      }

      .st1 {
        stroke-width: 36px;
      }

      .st1, .st2, .st3 {
        stroke: #000;
        stroke-miterlimit: 10;
      }

      .st2 {
        stroke-width: 68px;
      }

      .st3 {
        stroke-width: 54px;
      }
    </style>
  </defs>
  <g>
    <path class="st1" d="M2828.67,2988.22l-2672.29.48c-84.76.02-155.77-72.73-155.85-156.26L0,2292.54c-.02-23.23,19.01-45.83,42.47-46.7,54.08-2,103.09-16.81,147.14-48.91,65.81-47.96,105.74-122.93,109.81-202.06,4.32-84.18-28.53-164.6-93.01-218.89-43.31-36.47-95.34-58.78-152.24-59.57-26.96-.37-53.9-16.32-53.84-47.12l1.13-518.68c.18-83.42,74.13-152.21,157.32-152.21l2666.27-.09c82.26,0,159.21,64.37,159.37,148.83l.97,522.53c.05,27.66-25.24,46.76-50.73,46.13-54.13-1.35-104.36,13.9-147.93,43.34-137.06,92.61-157.59,285.6-43.21,405.43,46.17,48.37,109.65,80,178.58,79.74,28.01-.11,55.6,16.69,55.57,48.1l-.53,540.42c-.08,76.2-66.38,155.39-148.49,155.4ZM2825.78,2896.85c34.27,0,59.94-37.54,59.96-66.83l.29-493.78c-101.96-12.53-190.28-69.52-246.65-151.45-127.41-185.17-56.97-439.81,147.82-532.78,33.38-14.47,69.07-24.58,107.5-26.96l-.16-465.68c-.01-31.49-25.5-67.04-59.64-67.04l-2683.37.02c-35.17,0-59.96,38.99-59.33,68.34l-.2,93.21.04,371.22c182.98,26.99,311.61,190.44,300.81,374.62-9.91,168.91-133.38,310.49-301.18,336.38l.61,493.31c.05,38.85,31.47,67.13,69.16,67.77l2664.34-.35Z"/>
    <path class="st1" d="M1494.83,2234.14l-206.82,108.7c-17.87,9.39-40.48,2.66-55.38-7.76-12.76-8.91-26.27-28.72-22.89-47.9l40.63-230.56-51.16-49.57-105.27-102.46c-17.87-17.4-27.11-39.21-19.95-63.46,6.76-22.87,26.01-38.03,51.95-41.62l221.63-30.64,97.52-202.54c10.26-21.31,33.17-31.86,54.79-30.6,23.9,1.39,39.49,17.51,50.04,39.45l93.26,193.92,219.83,30.35c24.86,3.43,45.69,17.65,52.32,41.69,8.39,28.52-6.03,49.7-25.41,68.5l-150.66,146.13,38.1,218.71c3.89,22.35-1.28,43.22-17.37,57.25-14.39,12.55-39.35,21.56-59.22,11.07l-205.95-108.67ZM1510.52,2143.44l171.64,91.25-33.27-188.95c-1.9-17.14,6.47-32.5,20.34-42.59l127.3-123.46-194.52-26.42c-15.27-4.23-23.95-14.25-30.45-27.91l-77-161.85-81.07,173.02c-9.57,11.38-22.29,17.37-37.07,18.2l-183.15,25.34,138.36,133.35c11.03,11.54,10.88,25.13,8.18,39.99l-33.06,181.87,162.58-87.11c12.89-6.91,26.23-10.48,41.2-4.72Z"/>
    <path class="st1" d="M2070.16,1291.92c25.96,0,41.71,21.41,42.23,42.23.53,21.44-15.75,44.53-40.92,44.53l-1151.6-.08c-24.93,0-40.22-24.49-39.46-43.64.97-24.23,18.62-43.04,44.43-43.04h1145.32Z"/>
    <path class="st1" d="M2045.46,2686.43l-1085.94.02c-25.16,0-43.3-15.11-46.09-39.25-2.42-20.93,13.02-47.51,39.1-47.51l1091.68-.24c25.43,0,44.41,17.41,45.74,41.11,1.32,23.72-16.89,45.89-44.5,45.89Z"/>
  </g>
  <g>
    <path class="st2" d="M2461.79,799.5,2386.5,799.68"/>
    <path class="st2" d="M1852.27,474.07c20.01-5.9,37.01,7.02,42.14,22.95,5.28,16.4-2.02,37.9-21.42,43.62l-887.58,261.62c-19.22,5.66-36.57-9.74-40.33-24.66-4.76-18.89,4.57-37.4,24.46-43.26l882.72-260.27Z"/>
  </g>
  <path class="st0" d="M3639.25,796.7"/>
  <path class="st3" d="M2377.59,826.48c0-77.97,44.33-181.78,109.15-237.81,22.44-18.73,47.65-34.64,76.73-45.21l-105.94-358.87c-7.16-24.27-34.88-45.87-61.2-38.11L328.21,756.25c-27.11,7.99-38.24,57.99-31.09,80.47l-71.33-1.48c-18.82-64.33,22.55-134.16,86.66-153.06L2367.37,76.24c63.4-18.69,137.33,13.43,156.65,78.49l119.49,402.5c6.32,21.3-8.83,41.78-28.61,47.08-42.02,11.26-77.27,34.43-104.16,67.01-31.41,38.06-47.29,83.14-48.94,128.18l-75.28.18"/>
  <path class="st0" d="M2386.51,799.68"/>
  <path class="st0" d="M967.43,803.07"/>
</svg>