<?xml version="1.0" encoding="UTF-8"?>
<svg id="Layer_1" xmlns="http://www.w3.org/2000/svg" version="1.1" viewBox="0 0 2992 2997.69">
  <!-- Generator: Adobe Illustrator 30.3.0, SVG Export Plug-In . SVG Version: 2.1.3 Build 182)  -->
  <defs>
    <style>
      .st0 {
        stroke: #000;
        stroke-miterlimit: 10;
        stroke-width: 83px;
      }
    </style>
  </defs>
  <path class="st0" d="M77.57,2951.63c-28.8-1.69-37.14-11.66-37.69-45.17-.54-36.4-1.02-72.8-1.42-109.2,0-21.78,3.53-27.22,22.23-32.51,4.13-1.15,8.34-1.92,12.54-2.99,18.17-4.75,26.44-19.86,29.76-38.73,2.71-15.34-9.22-33.82-25.15-42.49l-2.85-1.61c-23.41-11.04-35.06-30.34-34.98-57.9,0-26.68-.34-53.68,0-80.14,0-28.06,1.42-29.3,25.69-36.42,23.12-6.9,38.09-23.55,38.44-42.56.34-19.02-13.55-36.2-36.27-45.4-18.08-7.31-27.42-21.68-28-43.1v-14.57c0-42.64,0-42.25,35.79-55.3,84.66-31.13,134.15-98.7,151.09-194.86,19.86-113.19-15.18-205.14-97.07-272.85-17.63-14.57-40.06-22.39-61.01-31.13-26.3-11.04-28-12.27-29.01-43.56-.61-19.4-2.38-38.73-2.5-58.13,0-26.84,4.74-33.43,27.59-40.87,4.23-.76,8.39-2,12.4-3.68,14.92-9.12,27.12-23.01,26.3-42.41-.82-19.4-12.75-32.75-28.75-40.11-23.27-10.63-34.91-29.45-34.91-56.44v-91.02c0-30.37,2.71-35.2,28.33-43.33,23.12-7.67,35.25-22.24,36.06-44.1.75-19.86-16.07-42.87-36.41-49.85-18.08-6.13-27.26-18.91-27.52-38.34-.4-41.33-.68-82.6-.4-123.85,0-39.49,10.84-50.92,46.9-50.99h189.81l2617.69.38c7.49-.54,15.01-.54,22.51,0,20,2.91,31.18,15.34,31.52,38.34.75,47.39,0,94.71,0,142.11,0,18.94-7.19,28.3-23.86,32.13-10.35,2.19-19.91,7.72-27.52,15.95-24.13,28.68-12.75,68.41,21.28,77.91,26.64,7.67,29.49,10.81,29.83,41.41.4,35.23.4,70.46,0,105.67-.4,29.06-3.66,33.21-27.12,40.49-24.81,7.67-38.09,24.23-37.08,46.55,1.02,22.31,16.27,40.19,39.18,46.02,22.91,5.83,24.88,7.67,25.48,31.97.47,21.85.47,43.71,0,65.57-.75,25.38-5.09,31.51-26.02,38.96-94.08,33.74-145.41,110.74-159.29,216.72-13.55,103.53,18.24,191.72,94.43,254.6,19.63,14.63,40.99,26.05,63.45,33.89,24.4,9.9,27.12,10.89,27.66,39.8.31,4.85.31,9.72,0,14.57-1.36,14.27.47,31.06-5.7,41.79-5.16,8.98-19.73,11.27-30.43,15.34-14.3,5.98-29.08,25.23-27.72,40.72,1.49,17.4,7.52,33.21,23.26,40.57,5.94,2.67,12.2,4.32,18.57,4.91,13.97,1.54,21.69,9.44,21.76,25.61,0,38.8.34,77.69,0,116.57,0,17.26-8.74,24.85-24.06,27.68-26.44,4.99-39.24,20.4-39.72,43.41-.47,23.01,14.23,43.17,40.67,47.32,18.03,2.91,23.8,13.03,23.8,31.29,0,38.88.4,77.77-.47,116.57-.54,24.54-10.16,35.2-31.04,37.8-5.37.34-10.75.34-16.14,0l-2823.91.98h0ZM91.14,1743.27c124.05,56.9,193.67,161.43,195.16,309.51,1.49,148.08-65.89,253.07-192.1,309.13,38.98,21.09,50.5,34.36,58.5,64.58,13.55,50.77-.68,90.42-44.07,123.85-21.76,16.8-22.64,63.12,0,78.37,71.99,50.15,55.72,149.85-.47,181.6-6.34,3.46-11.09,9.78-13.08,17.4-1.49,19.86,0,40.03,0,59.81h2798.14v-69.79c-5.42-2.47-10.72-5.29-15.86-8.44-61.82-42.79-62.29-137.5,0-179.29,12.75-8.59,18.03-17.02,18.37-33.67.4-21.93-3.39-36.35-21.63-50.39-61.62-47.47-57.41-131.67,6.78-175.38l13.22-9.2c-128.79-51.69-191.29-195.93-187.64-309.43,1.18-67.05,19.5-132.28,52.74-187.81,32.46-56.12,80.71-98.21,136.93-119.48,2.85-17.33-2.38-25.69-16.07-34.51-50.57-32.51-64.53-99.7-31.72-153.37,10.91-18.02,28.87-30.67,47.45-49.54,0-7.67-.75-22.47,0-36.88,1.22-17.56-2.92-28.91-18.31-37.34-20.45-11.73-35.48-32.81-41.29-57.9-13.97-51.38,1.08-99.7,40.67-130.37,7.59-5.91,18.24-8.05,17.96-22.55-.4-26.38,0-52.84,0-80.9H94.59c0,19.4,1.15,36.35,0,53.07-2.1,25.92,4.27,43.02,24.2,60.43,55.31,48.16,52.33,134.67-5.42,174.54-17.15,11.89-21.28,24.01-20.34,43.25.4,8.51.4,17.03,0,25.54-1.41,10.97,4.29,21.5,13.55,25.08,20.55,11.34,36.49,31.15,44.54,55.36,17.56,49.61,0,103.3-43.32,130.37-12.61,7.74-22.3,14.35-16.68,34.36h0Z"/>
  <path class="st0" d="M440.61,1325.64c-.38-9.73-.04-19.47,1.04-29.15,1.02-12.46,10.87-22.42,23.4-23.61,14.24-1.78,22.71,7.39,26.5,19.43,2.43,9.38,3.45,19.06,3.03,28.74v1387.91c.48,8.62.02,17.28-1.38,25.79-1.99,12.31-12.45,21.5-24.99,21.96-13.62-.22-25.04-10.32-26.84-23.74-.83-7.52-1.04-15.09-.62-22.65l-.13-1384.68h0Z"/>
  <path class="st0" d="M440.6,2014.73"/>
  <path class="st0" d="M2547.99,2014.81v685.2c.41,10.81-.07,21.64-1.45,32.37-2.52,13.19-13.65,23.05-27.12,24.02-13.39-1.7-23.7-12.55-24.64-25.93-.56-7.56-.68-15.14-.35-22.71v-1383.46c-.59-9.69-.11-19.42,1.45-29.01,2.06-12.28,12.47-21.46,24.99-22.03,13.6.46,24.92,10.55,26.84,23.95.84,7.52,1.03,15.1.55,22.65v694.98h-.28Z"/>
  <path class="st0" d="M1495.5,1921.6h643.47c9.85,0,19.69-.55,29.4.41,13.42-.12,24.4,10.59,24.52,23.93,0,.34,0,.7,0,1.04,1.13,12.53-7.67,23.8-20.17,25.79-8.52,1.66-17.2,2.32-25.88,1.99h-627.15l-672.93-.34c-8.69.36-17.41.19-26.08-.55-13.64-.63-24.54-11.54-25.06-25.11-.41-13.69,10.18-24.98,26.98-26.68,9.71-.96,19.62-.48,29.4-.48h643.54"/>
  <path class="st0" d="M2143.66,2175.32c8.68,0,17.49-.34,26.15.48,14.11,1.37,20.65,10.88,22.51,23.88,2.13,12.47-6.26,24.32-18.79,26.55-7.43,1.59-15.05,2.19-22.64,1.78-287.77,0-575.53.12-863.26.34-148.27,0-296.5-.34-444.67-1.03-8.72.18-17.45-.37-26.08-1.65-13.15-2.25-21.76-9.58-21.69-24.09-.21-13.66,10.44-25.06,24.16-25.86,9.78-.8,19.6-.98,29.4-.55l1294.92.14Z"/>
  <path class="st0" d="M1496.2,2175.32"/>
  <path class="st0" d="M421.89,1116.94c-7.95-21.94-15.9-43.94-23.87-65.94-7.97-22-7.27-26.2,9.17-38.73,14.74-11.54,19.71-25.24,14.56-41.28-4.66-14.58-22.87-26.89-39.43-26.67-14.7.24-24.69-6.64-29.99-20.65-11.13-29.84-22.14-59.65-32.77-89.6-10.35-28.6-5.49-39.7,20.61-49.09,45.86-16.4,91.72-32.8,137.48-49.16L2373.9,58.01c5.28-2.33,10.74-4.27,16.31-5.83,15.25-3.07,26.61,3.03,32.89,19.61,12.96,34.14,24.83,68.6,37.25,102.93,4.97,13.72,2.22,22.36-8.86,29.46-6.92,4.26-12.4,10.75-15.75,18.69-9.96,27.03,8.7,52.85,35.84,50.93,21.3-1.34,24.19.2,32.46,22.27,9.53,25.41,18.76,50.93,27.7,76.55,7.32,21.16,6.05,25-9.03,36.35-15.96,11.98-21.24,27.42-14.66,43.32,6.59,15.9,22.32,24.89,40.45,23.18,18.13-1.71,20.03-.89,26.84,16.56,6.07,15.71,11.8,31.54,17.19,47.5,6.11,18.58,4.58,24.14-8.65,34.96-59.31,48.81-76.29,117.87-58.58,198.24,17.32,78.5,63.47,134.15,135.14,159.96,18.05,5.52,36.51,8.25,54.84,8.11,20.27.84,22.5.86,30.47,21.67,1.49,3.44,2.77,6.96,3.82,10.55,2.76,10.68,8.49,22.37,6.83,31.75-1.38,7.83-11.34,13.28-18.03,18.99-8.79,8.04-14.45,25.81-9.4,36.68,5.65,12.22,14.16,22.11,27.47,23.36,5.01.39,9.97-.03,14.74-1.25,10.52-2.51,18.19,1.22,22.48,12.92l-49.68,30.82c-57.08-18.42-76.1-80.51-41.07-128.8l7.17-10.09c-106.84-4.08-189.93-92.38-217.03-175.54-16.72-48.88-20.55-100.87-11.03-149.7,8.8-49.05,32.71-92.04,67.86-122.02-2.48-13.29-8.46-17.99-20.68-20.83-45.15-10.46-72.88-55.5-63.19-102.88,3.18-15.88,12.87-29.7,21.38-48.17-2.01-5.56-6.43-16.08-9.67-26.72-3.72-13.03-9.69-20.19-23.05-22.31-17.89-3.19-34.3-14.57-45.08-31.25-23.58-33.6-25.35-72.49-4.72-104.97,3.95-6.24,11.1-10.55,7.1-20.98-7.21-19-13.85-38.28-21.21-58.61L362.41,828.78c5.09,14.05,10.36,26.04,13.91,38.44,5.27,19.32,14.37,30.05,33.37,37.5,52.69,20.56,73.21,83.99,41.83,127.84-9.31,13.05-9.13,22.9-3.39,36.6,2.52,6.06,4.76,12.23,6.69,18.5,1.85,8.3,8.74,14.46,16.39,14.65,17.86,2.88,34.6,13.11,46.78,28.57"/>
  <path class="st0" d="M788.77,1093.3c2.6,6.12,4.54,12.5,5.77,19.04,1.78,9.44-3.38,18.8-12.34,22.38-9.93,3.37-20.84-.99-25.67-10.24-2.57-5.23-4.7-10.66-6.39-16.25l-88.75-235.53c-2.83-6.95-5.13-14.09-6.89-21.38-2.53-9.29,2-19.06,10.76-23.16,9.86-4.98,18.39-.53,24.29,7.21,4.22,6.16,7.5,12.92,9.73,20.03l89.5,237.89h0Z"/>
  <path class="st0" d="M2323.27,700.91c45.93,126.91,91.87,253.81,137.79,380.73,2.47,5.9,4.31,12.03,5.46,18.35.83,7.99-5.25,16.34-14.82,20.37-10.04,2.53-19.7-.83-23.07-8.03-1.93-4.06-3.54-8.24-4.82-12.53-92.74-256.25-185.49-512.49-278.22-768.72-2.38-5.23-3.98-10.77-4.79-16.49-.98-7.36,4.72-15.16,13.67-18.72,9.95-3.27,20.17-.59,24.26,6.35,2.12,3.96,3.78,8.12,4.95,12.44,46.59,128.73,93.18,257.46,139.77,386.17"/>
</svg>