<?xml version="1.0" encoding="UTF-8"?>
<svg id="Layer_1" xmlns="http://www.w3.org/2000/svg" version="1.1" viewBox="0 0 2992.58 2988.7">
  <!-- Generator: Adobe Illustrator 30.3.0, SVG Export Plug-In . SVG Version: 2.1.3 Build 182)  -->
  <defs>
    <style>
      .st0 {
        fill: none;
        stroke: #000;
        stroke-miterlimit: 10;
        stroke-width: 110px;
      }
    </style>
  </defs>
  <path d="M1496.29,1006.94c65.85,0,129.67,12.87,189.69,38.26,58.03,24.54,110.16,59.7,154.96,104.5s79.96,96.94,104.5,154.96c25.39,60.02,38.26,123.84,38.26,189.69s-12.87,129.67-38.26,189.69c-24.54,58.03-59.7,110.16-104.5,154.96s-96.94,79.96-154.96,104.5c-60.02,25.39-123.84,38.26-189.69,38.26s-129.67-12.87-189.69-38.26c-58.03-24.54-110.16-59.7-154.96-104.5s-79.96-96.94-104.5-154.96c-25.39-60.02-38.26-123.84-38.26-189.69s12.87-129.67,38.26-189.69c24.54-58.03,59.7-110.16,104.5-154.96s96.94-79.96,154.96-104.5c60.02-25.39,123.84-38.26,189.69-38.26M1496.29,896.94c-329.94,0-597.41,267.47-597.41,597.41s267.47,597.41,597.41,597.41,597.41-267.47,597.41-597.41-267.47-597.41-597.41-597.41h0Z"/>
  <path d="M1496.29,110c46.95,0,91.09,18.28,124.29,51.48,33.2,33.2,51.48,77.34,51.48,124.29s-18.28,91.09-51.48,124.29c-33.2,33.2-77.34,51.48-124.29,51.48s-91.09-18.28-124.29-51.48c-33.2-33.2-51.48-77.34-51.48-124.29s18.28-91.09,51.48-124.29c33.2-33.2,77.34-51.48,124.29-51.48M1496.29,0C1338.46,0,1210.52,127.94,1210.52,285.77s127.94,285.77,285.77,285.77,285.77-127.94,285.77-285.77S1654.12,0,1496.29,0h0Z"/>
  <path d="M2706.81,1318.58c46.95,0,91.09,18.28,124.29,51.48,33.2,33.2,51.48,77.34,51.48,124.29s-18.28,91.09-51.48,124.29c-33.2,33.2-77.34,51.48-124.29,51.48s-91.09-18.28-124.29-51.48c-33.2-33.2-51.48-77.34-51.48-124.29s18.28-91.09,51.48-124.29c33.2-33.2,77.34-51.48,124.29-51.48M2706.81,1208.58c-157.83,0-285.77,127.94-285.77,285.77s127.94,285.77,285.77,285.77,285.77-127.94,285.77-285.77-127.94-285.77-285.77-285.77h0Z"/>
  <path d="M285.77,1349.08c46.95,0,91.09,18.28,124.29,51.48,33.2,33.2,51.48,77.34,51.48,124.29s-18.28,91.09-51.48,124.29c-33.2,33.2-77.34,51.48-124.29,51.48s-91.09-18.28-124.29-51.48c-33.2-33.2-51.48-77.34-51.48-124.29s18.28-91.09,51.48-124.29c33.2-33.2,77.34-51.48,124.29-51.48M285.77,1239.08C127.94,1239.08,0,1367.03,0,1524.85s127.94,285.77,285.77,285.77,285.77-127.94,285.77-285.77-127.94-285.77-285.77-285.77h0Z"/>
  <path d="M1496.29,2527.16c46.95,0,91.09,18.28,124.29,51.48,33.2,33.2,51.48,77.34,51.48,124.29s-18.28,91.09-51.48,124.29c-33.2,33.2-77.34,51.48-124.29,51.48s-91.09-18.28-124.29-51.48c-33.2-33.2-51.48-77.34-51.48-124.29s18.28-91.09,51.48-124.29c33.2-33.2,77.34-51.48,124.29-51.48M1496.29,2417.16c-157.83,0-285.77,127.94-285.77,285.77s127.94,285.77,285.77,285.77,285.77-127.94,285.77-285.77-127.94-285.77-285.77-285.77h0Z"/>
  <line class="st0" x1="568.3" y1="1524.85" x2="950.83" y2="1524.85"/>
  <line class="st0" x1="1496.29" y1="562.52" x2="1496.29" y2="939.61"/>
  <line class="st0" x1="2093.7" y1="1494.35" x2="2424.31" y2="1494.35"/>
  <line class="st0" x1="1496.29" y1="2033.94" x2="1496.29" y2="2453.11"/>
</svg>