<?xml version="1.0" encoding="UTF-8"?>
<svg id="Layer_1" data-name="Layer 1" xmlns="http://www.w3.org/2000/svg" viewBox="0 0 2992.58 2985.83">
  <defs>
    <style>
      .cls-1 {
        fill: none;
        stroke: #000;
        stroke-linecap: round;
        stroke-miterlimit: 10;
        stroke-width: 200px;
      }
    </style>
  </defs>
  <g>
    <path d="M885.65,2828.5h-446.85c-9.79.46-19.59.09-29.32-1.09-19.82-3.26-34.57-15.56-34.3-33.75,1.18-70.31-9.05-141.17,11.4-210.67,45.25-158.18,191.48-277.27,354.91-286.59,21.54-.78,43.04,2.54,63.34,9.77,52.38,19.92,110.16,20.43,162.89,1.45,34.93-12.76,71.22-10.68,106.33-4.8,166.14,27.96,303.33,157.09,324.41,332.83,5.88,49.32,3.08,99.54,1.9,149.76-.63,25.43-19.09,40.72-45.25,42.8-8.6.63-17.37,0-26.06,0h-443.41v.27ZM1319.02,2743.35c0-34.21,3.8-66.15-.72-96.83-15.02-100.99-69.86-176.37-157-228.04-34.82-20.37-73.38-33.54-113.39-38.73-25.61-3.53-49.32,3.98-73.3,11.22-65.34,19.73-130.4,22.44-194.56-4.89-24.34-10.41-48.87-7.24-73.66-2.35-80.72,15.75-143.7,59.36-192.57,124.25-52.49,69.5-68.86,147.86-55.56,235.28l860.76.09Z"/>
    <path d="M1213.6,1974.07c2.62,156.01-122.89,321.16-328.4,320.8-177.31-1.64-320.24-145.74-320.43-323.06,0-173.02,147.41-317.63,322.42-318.44,205.51-1.27,327.94,173.2,326.41,320.7ZM893.8,2214.42c120.72-.54,236.82-98.55,237.09-237.63,0-134.38-102.8-241.8-239.71-241.34-144.24.45-243.42,109.22-244.33,237.27-.34,133.19,107.36,241.44,240.55,241.77,2.14,0,4.27-.02,6.41-.07h0Z"/>
  </g>
  <path d="M2162.5,2285.31h-436.72c-7.69,0-15.29.54-22.8,0-19.85-.2-35.84-16.35-35.84-36.2-2.52-20.35,11.1-39.19,31.22-43.16,8.6-1.26,17.3-1.65,25.97-1.18h883.93c7.59-.35,15.19-.02,22.71,1,20.05,3.76,34.28,21.7,33.39,42.08-1.3,19.12-16.3,34.46-35.38,36.2-8.63.8-17.31,1.01-25.97.63h-440.52v.63Z"/>
  <path d="M2167.39,1956.28h433.73c8.68-.45,17.38-.45,26.06,0,19.45.63,35.17,16.04,36.2,35.47,2.27,19.23-10.21,37.13-29.05,41.63-8.42,1.98-17.06,2.84-25.7,2.53h-887.19c-37.19,0-54.3-16.2-51.22-46.6.57-17.07,13.76-31.03,30.77-32.58,9.74-1,19.54-1.27,29.32-.81h436.99l.09.36Z"/>
  <path d="M2008.67,2533.35h-283.51c-7.6.41-15.23.23-22.8-.54-19.27-1.95-33.94-18.18-33.93-37.55-1.28-19.26,11.79-36.53,30.68-40.54,8.55-1.39,17.23-1.88,25.88-1.45h570.1c9.73-.43,19.48.49,28.96,2.71,20.93,6.58,32.56,28.88,25.98,49.81-4.56,14.51-17,25.14-32.05,27.38-8.64.74-17.31.89-25.97.45h-283.33v-.27Z"/>
  <path d="M2787.74,1571.22c34.68,0,67.29,13.51,91.81,38.03,24.52,24.52,38.03,57.13,38.03,91.81v1079.92c0,34.68-13.51,67.29-38.03,91.81s-57.13,38.03-91.81,38.03H204.84c-34.68,0-67.29-13.51-91.81-38.03s-38.03-57.13-38.03-91.81v-1079.92c0-34.68,13.51-67.29,38.03-91.81,24.52-24.52,57.13-38.03,91.81-38.03h2582.89M2787.74,1496.22H204.84c-113.13,0-204.84,91.71-204.84,204.84v1079.92c0,113.13,91.71,204.84,204.84,204.84h2582.89c113.13,0,204.84-91.71,204.84-204.84v-1079.92c0-113.13-91.71-204.84-204.84-204.84h0Z"/>
  <line class="cls-1" x1="860.66" y1="100" x2="1355.3" y2="1149.77"/>
  <path d="M1590.12,1250.03c16.36,0,29.66,13.31,29.66,29.66v160.17c0,16.36-13.31,29.66-29.66,29.66h-181.68c-16.36,0-29.66-13.31-29.66-29.66v-160.17c0-16.36,13.31-29.66,29.66-29.66h181.68M1590.12,1150.03h-181.68c-71.61,0-129.66,58.05-129.66,129.66v160.17c0,71.61,58.05,129.66,129.66,129.66h181.68c71.61,0,129.66-58.05,129.66-129.66v-160.17c0-71.61-58.05-129.66-129.66-129.66h0Z"/>
  <line class="cls-1" x1="2161.19" y1="100" x2="1646.87" y2="1160.49"/>
</svg>