<?xml version="1.0" encoding="UTF-8"?>
<svg id="Layer_1" xmlns="http://www.w3.org/2000/svg" version="1.1" viewBox="0 0 2992.58 2988.7">
  <!-- Generator: Adobe Illustrator 30.3.0, SVG Export Plug-In . SVG Version: 2.1.3 Build 182)  -->
  <defs>
    <style>
      .st0 {
        stroke: #000;
        stroke-miterlimit: 10;
        stroke-width: 20px;
      }
    </style>
  </defs>
  <path class="st0" d="M.96,1495V213.53C-.04,170.87,11.21,128.81,33.39,92.34,68.21,36.63,119.76,7,184.76.31c8.12-.41,16.25-.41,24.37,0h2246.87c74.22,0,54.14-4.92,107.67,42.26,67.66,59.6,130.68,124.47,195.95,186.73,50.93,48.61,102.41,96.75,153.42,145.15,15.77,14.88,31.82,29.5,46.5,45.4,21.22,21.27,33.1,50.11,33.05,80.16-.64,422.63-.77,845.25-.41,1267.88,0,337.76.55,675.52-.34,1013.28,0,87.32-42.54,151.16-120.98,189.74-25.4,12.02-53.22,18.02-81.32,17.55-497.59-.27-1635.46-.43-2133.06-.48-149.87,0-299.87-2.32-449.66.68C103.78,2990.71-.41,2899.5,0,2779.4c1.43-428.09.55-856.11.55-1284.2l.41-.2ZM2466.24,56.77H214.11c-43.7,0-83.64,11.47-115.04,44.79-27,28.73-41.35,67.11-39.8,106.51.32,204.83.32,409.79,0,614.89v1961.01c-.97,29.17,7.43,57.88,23.96,81.93,32.29,45.2,76.95,66.09,132.25,66.09h2281.69c94.84,0,189.67.41,284.44,0,74.22-.55,134.23-48.75,147.68-118.66,2.65-18.77,3.52-37.74,2.59-56.67V538.32c0-10.45-.61-20.89-.89-30.25-2.76-1.1-5.62-1.92-8.53-2.46-81.18-.41-162.36-.41-243.54-1.09-26.1.73-52.21-.57-78.11-3.89-74.76-12.49-131.77-73.67-132.39-158.13-.48-75.1,1.37-149.8,1.57-224.7-.07-19.66-2.32-38.44-3.76-61.04ZM2529.67,90.91c-1.13,3.33-1.95,6.76-2.46,10.24,0,81.18-.89,162.29,0,243.47.75,50.11,27.31,81.93,76.33,95.59,13.03,3.29,26.43,4.91,39.87,4.85h232.62c6.42,0,12.84-.55,24.92-1.09l-371.28-353.05Z"/>
  <path class="st0" d="M1453.89,819.41c-.55,10.79-.41,18.98-1.64,26.9-2.46,16.11-12.49,25.94-26.01,26.56-16.09.51-29.92-11.33-31.88-27.31-1.3-7.92-1.23-16.04-1.78-24.17-23.96-6.83-47.32-13.11-70.46-20-29.41-9.13-56.29-24.98-78.52-46.29-4.64-4.3-8.81-9.08-12.43-14.27-11.06-15.57-9.76-30.38,3.07-40.97,11.83-10.47,29.91-9.37,40.38,2.46.2.22.39.45.58.68,27.86,32.84,64.25,48.41,105.21,55.99,3.95.43,7.91.63,11.88.61v-172.81c-16.25-4.37-32.7-8.47-48.82-13.66-34.55-10.51-64.79-27.86-85.34-58.51-40.97-61.45-9.49-130.07,40.21-162.36,23.16-16.02,49.74-26.4,77.63-30.31,6.65-1.32,13.18-3.17,19.53-5.53.55-9.08.48-18.02,1.84-26.7,1.67-13.25,13.52-22.81,26.83-21.64,12.12-.17,22.56,8.53,24.58,20.48.53,4.53.78,9.09.75,13.66,0,3.55.48,6.83.96,13.66,8.81,2.05,18.16,4.37,27.31,6.49,38.12,8.14,73.64,25.59,103.37,50.8,20.48,17.82,17.07,42.47-6.83,51.89-11.08,4.98-24.11,2.22-32.23-6.83-20.48-20-46.84-29.97-74.08-37.48-4.78-.9-9.62-1.44-14.47-1.64v153.07c31.61,11.88,62.75,21.1,91.69,34.96,36.76,17.03,63.2,50.55,71.21,90.26,6.04,27.6.7,56.47-14.82,80.09-26.01,43.7-68.28,62.68-114.84,74.15-9.97,3.14-20.55,5.12-32.91,7.78ZM1453.41,594.1v158.19c0,2.18,1.98,4.44,4.37,9.29,19.8-6.83,39.8-12.08,58.51-20.48,33.95-13.1,50.86-51.23,37.76-85.18-6.28-16.27-18.75-29.39-34.69-36.48-19.8-9.42-41.37-15.84-65.95-25.19v-.14ZM1394.08,526.57c-.61-50.59,1.16-98.66-1.09-146.72-24.63.99-48.46,8.99-68.69,23.08-24.44,19.46-38.71,69.85,1.3,97.84,20.25,14.33,43.82,23.26,68.48,25.94v-.14Z"/>
  <path d="M763.63,2782.65c-78.61,0-157.55-4.65-235.72,1.19-90.73,5.5-168.73-63.58-174.24-154.31-.38-6.23-.4-12.47-.07-18.7,6.16-115.38,1.08-231.4,1.08-347.21-1.81-37.01-1.44-74.09,1.08-111.05,8.87-73.53,57.63-120.35,131.49-131.38,16.93-2.52,34.02-3.86,51.15-4h445.93c30.06,2.27,48.98,18.38,50.39,42.71,1.3,21.63-18.92,45.85-44.44,50.71-12.76,1.61-25.65,2.08-38.49,1.41h-437.39c-41.09,3.35-64.88,27.25-67.91,68.77-.65,7.14,0,14.27,0,21.63v394.57c0,66.5,26.92,93.97,92.88,94.18h411.65c22.82,0,45.74-1.84,68.45-3.57,41.63-3.03,64.88-24.44,72.34-64.88,1.37-9.92,1.88-19.94,1.51-29.95-1.08-68.55-2.7-137-3.35-205.45.11-21.36,1.41-42.69,3.89-63.91.23-8.47,3.36-16.6,8.87-23.03,14.49-12.43,27.79-31.36,51.25-23.46,23.46,7.89,29.2,27.57,29.09,51.25,0,98.61,1.19,197.23,0,295.84-1.19,91.91-69.1,158.52-161.33,159.49-85.75.86-171.6,0-257.35,0l-.76-.86Z"/>
  <path class="st0" d="M1881.23,2351.35h-433.55c-19.66,0-35.44-12.49-36.19-28.88-.55-13.66,12.97-30.38,34.82-30.04,58.65,1.02,117.3.41,176.01.48h679.75c9.11-.44,18.24-.21,27.31.68,15.02,1.4,26.05,14.72,24.65,29.74-.02.22-.04.43-.07.65-.82,14.47-10.17,23.96-26.01,26.08-4.55.28-9.11.28-13.66,0-86.64.61-173.28,1.43-259.93,1.84h-173.28l.14-.55Z"/>
  <path class="st0" d="M766.82,1529.09c27.72-32.7,51.28-61.45,75.1-88.76,45.52-52.53,252.07-265.91,297.59-318.07,10.72-12.22,21.37-24.44,32.43-36.32,5.88-6.8,12.45-12.98,19.6-18.43,12.75-9.71,30.95-7.25,40.67,5.49,8.49,11.14,7.81,26.75-1.61,37.11-6.28,7.65-13.66,14.34-20.14,21.85-73.15,85.3-307.42,331.75-380.75,417.28-11.13,12.97-21.44,26.7-32.57,39.67-15.29,17.89-35.03,19.46-51.41,2.46-33.11-34.14-137.71-141.81-169.87-177.17-11.45-11.16-11.68-29.49-.52-40.94.79-.81,1.62-1.57,2.5-2.28,12.9-11.74,26.83-12.22,40.97,1.64,21.64,21.58,114.29,116.82,135.05,139.35,4.03,4.57,7.44,9.9,12.97,17.14Z"/>
  <path class="st0" d="M1720.51,2540.44h-256.99c-8.11.39-16.24.09-24.31-.89-14.88-2.19-26.1-14.67-26.7-29.7.63-15.97,12.92-29.04,28.81-30.66,4.54-.35,9.11-.35,13.66,0h527.57c7.2-.4,14.42-.15,21.58.75,14.89,2.64,25.47,15.97,24.65,31.07.46,14.15-9.98,26.3-24.03,27.99-8.06,1.04-16.19,1.36-24.31.96h-259.45l-.48.48Z"/>
  <path d="M763.63,1835.54c-78.61,0-157.55-4.65-235.72,1.19-90.73,5.5-168.73-63.58-174.24-154.31-.38-6.23-.4-12.47-.07-18.7,6.16-115.38,1.08-231.4,1.08-347.21-1.81-37.01-1.44-74.09,1.08-111.05,8.87-73.53,57.63-120.35,131.49-131.38,16.93-2.52,34.02-3.86,51.15-4h445.93c30.06,2.27,48.98,18.38,50.39,42.71,1.3,21.63-18.92,45.85-44.44,50.71-12.76,1.61-25.65,2.08-38.49,1.41h-437.39c-41.09,3.35-64.88,27.25-67.91,68.77-.65,7.14,0,14.27,0,21.63v394.57c0,66.5,26.92,93.97,92.88,94.18h411.65c22.82,0,45.74-1.84,68.45-3.57,41.63-3.03,64.88-24.44,72.34-64.88,1.37-9.92,1.88-19.94,1.51-29.95-1.08-68.55-2.7-137-3.35-205.45.11-21.36,1.41-42.69,3.89-63.91.23-8.47,3.36-16.6,8.87-23.03,14.49-12.43,27.79-31.36,51.25-23.46,23.46,7.89,29.2,27.57,29.09,51.25,0,98.61,1.19,197.23,0,295.84-1.19,91.91-69.1,158.52-161.33,159.49-85.75.86-171.6,0-257.35,0l-.76-.86Z"/>
  <path class="st0" d="M1881.23,1388.4h-433.55c-19.66,0-35.44-12.49-36.19-28.88-.55-13.66,12.97-30.38,34.82-30.04,58.65,1.02,117.3.41,176.01.48h679.75c9.11-.44,18.24-.21,27.31.68,15.02,1.4,26.05,14.72,24.65,29.74-.02.22-.04.43-.07.65-.82,14.47-10.17,23.96-26.01,26.08-4.55.28-9.11.28-13.66,0-86.64.61-173.28,1.43-259.93,1.84h-173.28l.14-.55Z"/>
  <path class="st0" d="M1720.51,1577.48h-256.99c-8.11.39-16.24.09-24.31-.89-14.88-2.19-26.1-14.67-26.7-29.7.63-15.97,12.92-29.04,28.81-30.66,4.54-.35,9.11-.35,13.66,0h527.57c7.2-.4,14.42-.15,21.58.75,14.89,2.64,25.47,15.97,24.65,31.07.46,14.15-9.98,26.3-24.03,27.99-8.06,1.04-16.19,1.36-24.31.96h-259.45l-.48.48Z"/>
  <path class="st0" d="M764.63,2486.92c27.72-32.7,51.28-61.45,75.1-88.76,45.52-52.53,252.07-265.91,297.59-318.07,10.72-12.22,21.37-24.44,32.43-36.32,5.88-6.8,12.45-12.98,19.6-18.43,12.75-9.71,30.95-7.25,40.67,5.49,8.49,11.14,7.81,26.75-1.61,37.11-6.28,7.65-13.66,14.34-20.14,21.85-73.15,85.3-307.42,331.75-380.75,417.28-11.13,12.97-21.44,26.7-32.57,39.67-15.29,17.89-35.03,19.46-51.41,2.46-33.11-34.14-137.71-141.81-169.87-177.17-11.45-11.16-11.68-29.49-.52-40.94.79-.81,1.62-1.57,2.5-2.28,12.9-11.74,26.83-12.22,40.97,1.64,21.64,21.58,114.29,116.82,135.05,139.35,4.03,4.57,7.44,9.9,12.97,17.14Z"/>
</svg>