<?xml version="1.0" encoding="UTF-8"?>
<svg id="Layer_1" xmlns="http://www.w3.org/2000/svg" version="1.1" viewBox="0 0 2992.58 2988.7">
  <!-- Generator: Adobe Illustrator 30.3.0, SVG Export Plug-In . SVG Version: 2.1.3 Build 182)  -->
  <defs>
    <style>
      .st0 {
        stroke: #000;
        stroke-miterlimit: 10;
        stroke-width: 49px;
      }
    </style>
  </defs>
  <path class="st0" d="M2807.58,2541.31V786.71c100-12.88,170.59-105.05,157.85-206.13-.49-3.96-.98-8.43-1.96-12.39-9.31-47.57-37.25-89.19-77.45-115.95C2474.25,175.26,1990.92,26.11,1496.32,23.64c-494.61,1.99-977.94,151.13-1389.69,428.62-40.19,27.25-68.13,69.37-77.45,117.44-9.31,48.07.49,97.62,27.45,138.24,29.42,44.1,75.98,73.33,128.43,79.28v1754.1c-113.23,28.74-181.86,144.69-153.43,259.15,23.53,95.14,108.83,162.03,205.88,161.53h2517.62c116.66.49,211.76-94.64,212.25-212.57,0-98.11-65.68-184.33-159.8-208.11h0ZM138,650.46c-25.98-39.15-15.68-92.16,23.04-118.43h0C557.11,266.93,1021.32,124.72,1496.32,122.74c475.48,1.48,939.69,144.19,1335.28,410.28,38.23,26.26,48.53,78.29,23.04,117.44-26.96,38.16-78.43,48.07-117.15,23.29-73.53-49.55-149.51-94.64-227.94-134.78h-2.45c-313.73-160.05-659.8-243.79-1010.77-245.77h0c-351.47,1.48-697.54,86.22-1010.77,247.76h0c-78.92,40.13-155.39,85.23-228.92,134.78-38.73,26.26-91.67,15.86-117.64-23.78,0-.49-.49-.99-.98-1.48h0ZM2709.54,770.87v1762.52h-171.57V667.79c49.02,27.25,98.04,56.49,147.06,89.19,7.85,5.45,16.17,10.4,24.51,14.87v-.99h0ZM1810.04,417.07c40.19,165.49,238.23,910.25,600.97,1129.26-75.98,104.55-228.43,382.54-285.29,987.05H866.91c-56.87-604.52-209.31-882.5-285.78-987.05,363.23-219.02,561.26-966.24,600.97-1130.26M768.87,2533.38h-216.18v-846.33c71.56,131.8,171.08,388.98,216.18,846.33ZM552.7,1447.72v-831.96c166.17-82.25,342.15-142.71,523.52-180.36-54.9,209.11-234.8,815.61-523.52,1012.32ZM2437.97,1686.56v846.82h-214.21c45.1-457.35,144.6-715.02,216.18-846.82h-1.97ZM1916.41,435.89c181.37,36.67,357.35,97.12,523.52,179.38v832.45c-288.72-196.22-468.62-802.72-523.52-1011.83h0ZM454.65,667.79v1865.59h-171.57V771.36c9.31-3.96,18.14-8.92,26.47-14.37,39.71-27.25,88.72-56.98,145.09-89.19h0ZM2755.12,2862.9H237.5c-62.75,0-113.72-51.54-113.72-114.96s50.98-114.96,113.72-114.96h2519.09c62.75,0,113.72,51.54,113.72,114.96s-50.98,114.96-113.72,114.96h-1.47Z"/>
</svg>