<?xml version="1.0" encoding="UTF-8"?>
<svg id="concept" xmlns="http://www.w3.org/2000/svg" version="1.1" viewBox="0 0 348.2 334.92">
  <!-- Generator: Adobe Illustrator 30.1.0, SVG Export Plug-In . SVG Version: 2.1.1 Build 136)  -->
  <defs>
    <style>
      .st0 {
        fill: #231f20;
        stroke: #231f20;
        stroke-miterlimit: 10;
        stroke-width: 12px;
      }
    </style>
  </defs>
  <path class="st0" d="M331.78,128.48C314.06,59.6,251.95,11.5,180.74,11.5c-32.41,0-63.49,9.85-89.87,28.48-21.28,15.03-38.25,34.82-49.72,57.83l-15.54-47.24c-1.26-3.84-5.4-5.93-9.24-4.66h0c-3.72,1.23-5.74,5.23-4.52,8.95l20.96,63.69c2.08,6.33,9.11,9.56,15.27,7.02l61.49-25.32c3.9-1.6,5.76-6.06,4.16-9.96h0c-1.42-3.46-5.39-5.12-8.85-3.69l-52.82,21.77C74.96,58.65,125.43,25.9,180.74,25.9c64.64,0,121.02,43.66,137.1,106.17,2.96,11.5,4.46,23.4,4.46,35.39s-1.5,23.9-4.46,35.39c-16.09,62.51-72.46,106.17-137.1,106.17s-119.08-42.18-136.24-102.97c-.5-1.77-2.34-2.81-4.13-2.35h0c-5.99,1.54-9.4,7.85-7.43,13.7,21.2,62.97,80.43,106.02,147.8,106.02,71.21,0,133.32-48.1,151.05-116.98,3.26-12.67,4.91-25.78,4.91-38.98s-1.65-26.32-4.91-38.98h-.01Z"/>
  <path class="st0" d="M181.72,87.72v83.46c0,1.51.6,2.96,1.67,4.03l41.8,41.8c2.23,2.23,5.84,2.23,8.07,0h0c2.23-2.23,2.23-5.84,0-8.07l-38.46-38.46c-1.07-1.07-1.67-2.52-1.67-4.03v-78.73c0-3.15-2.55-5.71-5.71-5.71h0c-3.15,0-5.71,2.55-5.71,5.71h0Z"/>
</svg>