<?xml version="1.0" encoding="UTF-8"?>
<svg id="Layer_1" xmlns="http://www.w3.org/2000/svg" version="1.1" viewBox="0 0 2265 2571.54">
  <!-- Generator: Adobe Illustrator 30.3.0, SVG Export Plug-In . SVG Version: 2.1.3 Build 182)  -->
  <defs>
    <style>
      .st0 {
        stroke: #000;
        stroke-miterlimit: 10;
        stroke-width: 17px;
      }
    </style>
  </defs>
  <path class="st0" d="M479.67,2358.12c-36.25-113.75-2.74-232.97,51.04-336.79,59.51-114.89,142.55-219.18,232.92-311.71l152.83-156.49c50.93-52.15,100.65-140.24,96.03-215.8-150.01-3.07-292.3,72.15-372.32,199.3-55.72,88.54-141.7,153.31-242.27,182.12-115.08,32.97-237.4,5.01-317.37-84.29-60.12-67.13-84.04-156.81-66.34-245.13,9.68-48.32,29.53-91.42,58.15-131.59,84-117.91,231.56-186.05,376.29-163.52,53.29,8.3,100.92,29.61,142.19,63.61,59.95,49.38,135.05,40.04,201.55,4.33,32.64-18.55,63.27-37.47,93.09-60.52l113.66-87.86c39.4-76.38,80.88-150.35,125.23-224.65,66.25-111.01,134.57-219.22,206.36-326.67,46.66-69.85,95.89-136.32,150.05-200.29,78.82-93.11,168.99-173.14,271.44-238.88,23.12-14.84,50.7-21.96,69.54-4.63,10.26,9.44,18.43,27.29,12.19,43.25l-54.65,139.81-216.14,492.63-37.43,85.98,418.88-241.68c81.5-47.03,163.37-90.9,247.56-131.57,18.08-8.73,39.76-7.05,53.21,6.72,15.44,15.8,13.67,38.55,1.75,57.06-58.21,90.37-124.05,174.72-197.55,253.9-62,66.8-128.24,127.53-198.26,185.92-82.87,69.11-167.51,134.42-257.14,194.69l-305.46,205.38-84.97,197.14c-10.62,24.63-17.99,48.59-22.58,74.53-3.44,28.02,2.52,54.48,21.08,75.92,81.96,94.72,100.94,218.43,78.66,340.6-17.1,93.81-51.28,182.2-98.56,264.82-59.33,103.67-140.82,198.58-246.92,254.69-41.95,22.18-84.56,36.44-131.96,42.26-143.14,17.56-279.86-64.75-323.77-202.57ZM530.59,2284.81c7.59,86.45,60.33,160.24,140.53,193.72,82.61,34.49,175.39,18.42,251.49-27.04,46.58-27.82,86.78-62.29,122.14-103.98,75.2-88.65,129.24-192.67,159.94-304.84,26.05-95.16,29.97-196.27-13.63-285.17-9.78-19.95-21.48-37.93-35.98-54.56-56.72-65.05-44.62-142.82-11.42-219.14l171.2-393.6,157.87-352.57,188.99-425.29,82.92-201.39c-48.25,30-87.83,64.62-127.95,101.94-52.19,51.45-99.54,104.78-143.89,163.38-46.32,61.2-89.06,123.19-130.9,187.8-76.18,117.65-149.53,235.17-219.07,356.71-25.92,45.3-50.04,89.11-72.01,135.92-13.09,27.88-21.46,56.45-21.76,87.27-.24,24.78,7.54,47.58,15.73,70.4l21.51,59.9c37.62,128.63-31.84,252.41-121.46,343.29l-134.57,136.45c-124.43,126.17-295.67,348.72-279.67,530.79ZM1651.89,983.57c84.71-62.74,165.3-127.06,242.46-197.13,91.83-84.95,175.97-175.67,248.38-280.68l-225.45,122.94-440.87,257.24-137.91,312.76c107.53-69.73,210.15-140.04,313.4-215.13ZM82.56,1507.92c41.63,135.85,189.09,188.94,321.73,139.95,70.43-26.01,134.69-73.45,175.13-137.74,54.01-85.85,128.34-153.51,221.17-195.27,61.71-27.76,126.28-43.04,196.27-43.98l-17.58-47.46c-11.92-32.17-15.87-64.67-14.05-98.73l-69.91,50.11c-30.14,20.2-59.39,38.87-92.03,54.79-84.47,40.69-179.66,41.09-252.88-19.99-114.86-95.81-295.69-55.25-396.41,50.63-61.98,65.15-98.36,159.85-71.44,247.7Z"/>
  <path class="st0" d="M746.44,2422.05c-70.39-6.53-123.21-55.05-138.14-122.9-9.19-41.77-4.03-84.08,9.31-125.44,39.38-122.13,139.94-256.73,232.11-345.98,42.3-40.96,96.56-82.42,154.86-89.14,47.02-5.42,90.76,15.78,115.61,56.01,43.84,70.98,29.23,177.23,5.4,257.02-26.74,89.55-71.46,171.58-131.64,242.89-60.2,71.34-150.19,136.57-247.5,127.54ZM752.86,2357.29c68.54,6.68,135.45-43.23,180.21-92.13,56.88-62.13,98.12-135.75,125.16-215.65,21.41-63.27,38.44-150.26,12.69-210.06-11.26-26.14-35.9-40.84-64.18-35.61-49.4,9.15-101.78,57.56-137.44,95.39-77.54,82.24-170.08,208.48-196.85,317.74-5.99,24.44-6.54,48.8-.2,72.53,10.13,37.92,40.29,63.86,80.62,67.78Z"/>
  <circle class="st0" cx="1177.86" cy="1100.88" r="71.45"/>
  <path class="st0" d="M509.83,1474.4c-51.28,73.44-145.61,123.13-235.43,108.24-82.3-13.64-138.39-86.17-120.97-167.11,30.19-140.32,214.29-226.51,327.68-155.09,76.46,48.16,79.53,141.2,28.72,213.96ZM478.92,1379.06c2.08-27.83-12.05-53.2-36.56-66-20.14-10.52-42.36-14.37-65.52-12.34-56.97,5-109.12,34.65-140.84,82.04-29.92,44.7-29.57,98.96,17.27,124.19,85.11,45.84,218.93-38.31,225.64-127.89Z"/>
</svg>