<?xml version="1.0" encoding="UTF-8"?>
<svg id="Layer_1" data-name="Layer 1" xmlns="http://www.w3.org/2000/svg" viewBox="0 0 3000.58 2996.7">
  <defs>
    <style>
      .cls-1 {
        stroke: #000;
        stroke-miterlimit: 10;
        stroke-width: 8px;
      }
    </style>
  </defs>
  <g id="Layer_1-2" data-name="Layer_1">
    <g id="_653965720" data-name=" 653965720">
      <path id="_653959768" data-name=" 653959768" class="cls-1" d="M38.23,4h148.04c3.49,0,6.81.54,9.97,1.45,220.82,50.22,445.62,90.83,671.76,118.21,210.52,25.56,422.19,39.7,632.38,39.7s421.7-14.14,632.38-39.7c226.8-27.56,452.43-68.17,673.92-118.75l7.64,33.36-7.64-33.36c2.66-.54,5.48-.91,8.14-.91h147.54c18.94,0,34.23,15.41,34.23,34.27v82.13c0,16.86-12.3,31-28.58,33.72-247.73,60.73-501.12,110.05-756.33,143.41-237.43,31-475.7,48.41-711.47,48.41s-474.2-17.22-711.47-48.41c-256.04-33.54-510.26-83.03-758.65-143.95l8.14-33.18-8.14,33.18c-15.78-3.81-26.25-18.13-26.09-33.72V38.27C4,19.41,19.29,4,38.23,4h0ZM182.78,72.53h-110.33v21.21c238.1,57.65,481.01,104.43,725.09,136.34,233.44,30.46,468.55,47.5,702.66,47.5s469.38-17.04,702.66-47.5c244.08-31.91,486.99-78.68,725.09-136.34v-21.21h-110.33c-222.98,50.76-449.61,91.56-677.07,119.11-213.51,25.93-427.68,40.25-640.35,40.25s-426.85-14.32-640.35-40.25c-227.46-27.56-454.26-68.35-677.07-119.11h0Z"/>
      <path id="_653954056" data-name=" 653954056" class="cls-1" d="M574.57,2992.7H50.52c-18.94,0-34.23-15.41-34.23-34.27v-830.53c0-18.86,15.29-34.27,34.23-34.27h383.65c14.95,0,27.58,9.43,32.23,22.84,50.01,109.14,114.15,274.12,144.72,454.33,21.77,128.54,26.42,264.88-3.16,395.05l-33.4-7.43,33.4,7.61c-3.66,15.95-17.78,26.65-33.4,26.65h0ZM84.75,2924.17h462.07c21.1-112.59,15.78-230.25-3.16-342.29-27.75-163.89-84.74-315.1-131.59-419.89H84.75v762.18h0ZM1098.45,292.08c-.5-18.86-16.12-33.72-34.89-33.36s-33.73,16.14-33.4,34.81c7.48,316.55,3.16,552.23-71.94,784.11-73.94,228.62-217.16,456.33-486.16,757.83-4.15-.36-7.98-.54-11.46-.54H84.75V123.48c0-18.86-15.29-34.27-34.23-34.27s-34.23,15.41-34.23,34.27v1746.08c0,18.86,15.29,34.27,34.23,34.27h410.23c2.82,0,5.15,0,7.14.18.66,0,1.33.18,1.99.18v-1.81h.17v1.63c1.83.18,4.49.54,7.31,1.09,11.8,2.9,24.92-.73,33.56-10.33l-25.59-22.84,25.42,22.66c283.79-316,434.32-554.41,512.42-795.72,78.09-241.49,82.74-483.16,75.1-806.6h.17v-.18Z"/>
      <path id="_653971840" data-name=" 653971840" class="cls-1" d="M2949.89,2992.7h-524.05c-17.28,0-31.57-12.87-33.9-29.37-28.91-129.45-24.09-264.88-2.49-392.51,30.74-181.84,95.87-348.09,145.88-457.05l31.07,14.14-31.07-14.32c5.82-12.69,18.61-20.12,31.74-19.94h382.98c18.94,0,34.23,15.41,34.23,34.27v830.53c0,18.85-15.29,34.27-34.23,34.27h-.17ZM2453.59,2924.17h462.07v-762.18h-327.32c-46.86,104.97-103.85,255.99-131.43,419.89-18.94,111.86-24.26,229.7-3.16,342.29h-.17ZM1970.42,293.71c.5-18.86-14.46-34.45-33.4-34.81-18.78-.36-34.56,14.5-34.89,33.36-7.98,327.42-4.32,568.19,73.44,808.23,77.59,240.04,228.46,476.45,513.91,794.27l25.42-22.66-25.59,22.84c8.64,9.79,21.77,13.23,33.56,10.33,2.99-.54,5.48-.91,7.48-1.09v-1.63h0v1.81c.83,0,1.5,0,2.16-.18,1.99,0,4.32-.18,7.14-.18h410.23c18.94,0,34.23-15.41,34.23-34.27V123.48c0-18.86-15.29-34.27-34.23-34.27s-34.23,15.41-34.23,34.27v1711.82h-375.84c-3.49,0-7.31,0-11.46.54-270.66-303.31-414.05-529.03-487.66-756.19-74.6-230.43-78.09-465.21-70.12-785.75h0l-.17-.18Z"/>
      <path id="_653970472" data-name=" 653970472" class="cls-1" d="M50.52,1835.29h410.23c45.03,0,85.9,18.31,115.48,48.04l-24.09,24.11,24.26-24.29,1.99,2.18c28.41,29.37,46.02,69.44,46.02,113.31s-18.44,85.75-48.02,115.31l-24.26-24.11,24.26,24.11s-1.5,1.45-2.16,1.99c-29.41,28.46-69.45,46.05-113.48,46.05H50.52c-18.94,0-34.23-15.41-34.23-34.27v-258.35c0-18.86,15.29-34.27,34.23-34.27h0v.18ZM460.59,1903.64H84.75v190h375.84c25.42,0,48.52-9.97,65.63-26.29l1.5-1.63h0c17.28-17.22,27.91-40.97,27.91-67.08s-10.14-48.41-26.42-65.63c-.5-.54-1-.91-1.66-1.45h0c-17.28-17.22-41.04-27.92-67.29-27.92,0,0,.33,0,.33,0Z"/>
      <path id="_653970832" data-name=" 653970832" class="cls-1" d="M2539.83,1835.29h410.23c18.94,0,34.23,15.41,34.23,34.27v258.35c0,18.86-15.29,34.27-34.23,34.27h-410.23c-45.03,0-85.9-18.31-115.48-48.04l24.09-24.11-24.26,24.29s-1.33-1.45-1.99-2.18c-28.41-29.37-46.02-69.44-46.02-113.31s18.44-85.75,48.02-115.31l24.26,24.11-24.26-24.11s1.5-1.45,2.16-1.99c29.41-28.46,69.45-46.05,113.48-46.05h0v-.18ZM2915.66,1903.64h-375.84c-25.42,0-48.52,9.97-65.63,26.29l-1.5,1.63h0c-17.28,17.22-27.91,40.97-27.91,67.08s10.14,48.41,26.42,65.63c.5.54,1,.91,1.66,1.45h0c17.28,17.22,41.04,27.92,67.29,27.92h375.84v-190h-.33Z"/>
    </g>
  </g>
</svg>