<?xml version="1.0" encoding="UTF-8"?>
<svg id="Layer_1" xmlns="http://www.w3.org/2000/svg" version="1.1" viewBox="0 0 2808.14 2988.7">
  <!-- Generator: Adobe Illustrator 30.3.0, SVG Export Plug-In . SVG Version: 2.1.3 Build 182)  -->
  <path d="M2485.74,1610.89l-.04,85.69,178.87.94c81.24.43,142.04,68.03,143.58,148.63l-.69,449.88c-.11,70.8-53.49,127.01-121.74,137.86l-1.61,332.38c-.39,79.51-65.3,139.46-142.18,143.7l-88.11,1.35c-30.23,47.23-82.36,77.4-141.43,77.39l-2108.2-.32c-88.54-.01-164.59-58.84-190.11-140.7C4.69,2817.64,0,2789.86,0,2757.48L.69,176.8C.71,75.52,88.17-.05,185.12,0l1928.95,1.08c85.17.05,152.26,70.81,158.24,150.56l1.97,84.83,121.17.81c84.35.57,148.02,70.7,147.93,154.17l-.38,360.27c-.05,48.51-21.33,90.41-57.52,118.75l.28,89.71,75.42,1.08c80.18,1.15,143.92,66.28,143.83,148.18l-.37,358.36c-.07,71.9-53,129.38-122.35,140.02l-96.56,3.06ZM447.66,1542.58c-75.2,6.46-138.02-32.97-165.38-98.52-16.05-41.78-16.43-86.42-3.04-129.19,25.95-70.97,92.87-113.13,168.5-106.18v-498.2c-66.33,6.21-127.53-24.93-158.12-83.75-17.68-33.99-22.53-70.81-18.16-108.84,10.05-87.55,84.51-150.96,176.09-142.49l.27-228.15-257.03-.19c-26.68.83-46.15,19.55-45.37,47.25l-.06,2355.74c2.13,21.55,17.74,40.86,39.73,40.87l262.58.18.07-233.56c-42.58,2.3-82.46-7.14-115.61-33.24-42.99-34.7-64.54-86.6-61.73-141.9,2.78-95.42,82.29-166.16,177.37-157.66l-.1-482.16ZM754.74,2108.01c34.34,67.4,24.15,145.66-25.6,200.4-35.46,37.2-82.85,52.25-136.78,48.93l.19,233.83h1498.07c23.87-1.82,37.68-17.78,37.66-41.41l-.56-686.49,1.02-1490.59.17-184.9c.02-22.32-14.96-39.11-38.33-40.65H592.36s0,228.25,0,228.25c98.54-10.67,179.48,60.77,182.83,157.51,4.39,65.49-25.76,126.92-83.59,158.67-29.96,16.45-63,20.79-99.4,19.39l.12,497.99c68.4-6.77,128.26,23.1,160.86,80.47,35.35,64.92,27.84,144.55-20.18,200.97-35.31,40.12-85.31,57.15-140.74,52.37l.04,481.87c66.3-5.65,129.22,23,162.46,83.38ZM2407.54,727.26v-323.12c.42-14.94-11.06-29.08-26.68-29.12l-106.57-.25.04,382.08,108.51-.34c14.18-.04,25.12-14.28,24.69-29.25ZM612.28,580.83c21.49-.04,32.64-24.14,31.54-40.4-1.08-15.92-13.27-35.64-32.86-35.65l-177-.07c-21.03,0-34.79,20.28-34.58,38.24.21,17.93,13.54,38.2,34.6,38.17l178.3-.29ZM154.16,2806.47c10.81,23.61,38.15,45.24,66.99,45.24l2083.19.1c25.98,0,42.04-23,42.01-47.09l-.58-590.51-.14-1319.04-71.41.05-.59,1204.88-1.26,482.27c-.23,88.34-69.68,155.49-158.22,155.51l-1913.92.48-56.6-4.84c.73,25.57-.6,48.63,10.54,72.95ZM2574.05,1446.4l-.07-322.37c0-19.36-18.04-30.35-34.47-30.21l-53.85.46v382.22s53.77.89,53.77.89c16.28.27,34.63-10.69,34.63-31.01ZM601.55,1414.02c24.5-.02,42.1-15.2,42.21-37.54.09-17.83-13.41-39.24-35.27-39.22l-174.84.14c-22.31.02-35.59,24.36-34.1,40.75,2.18,24.02,19.31,36.01,42.59,35.99l159.4-.11ZM2676.2,2265.26l-.02-404.07c-2.22-19.35-16.05-31.06-34.81-31.05l-155.81.06.06,469.68,155.76.16c19.77.02,35.52-11.68,34.82-34.77ZM609.82,2228.52c23.45-.04,35.31-23.66,33.68-41.27-1.95-21.03-18.54-35.06-40.63-34.97l-169.56.7c-21.43.09-34.37,21.23-33.63,39.42.74,18.22,15.66,36.44,36.86,36.4l173.28-.28ZM2556.12,2736.55l-.19-300.62-70.38-.21.11,343.12,40.92-.44c22.39-.24,29.55-21.22,29.54-41.85Z"/>
  <path d="M1649.99,1963.75l-261.64-177.63-259.18,176.31c-24.33,16.55-51.49,21.43-77.32,6.15-22.84-13.51-36.88-42.42-29.08-71.68l88.2-330.99-233.37-190.35c-22.73-18.54-34.03-43.04-27.07-73.14,5.37-23.24,26.35-49.6,56.17-51.02l313.61-14.93,82.28-240.38,19.17-56.59c16.78-23.05,38.3-37.81,66.56-36.14,24.87,1.47,50.53,18.24,59.86,44.84l54.61,155.77,47.75,132.53,303.84,12.58c32.45,1.34,58.67,16.3,68.82,44.92,10.92,30.78.9,60.66-24.67,81.45l-234.08,190.4,89.78,332.87c7.5,27.81-7.06,55.64-27.73,68.89-24.23,15.52-51.5,13.11-76.5-3.86ZM1420.63,1653.03l169.43,118.24-58.53-207.11c-10.6-27.71-.53-52.15,21.43-69.94l153.59-124.49-214.39-6.23c-22.54-4.54-39.1-20.94-44.49-43.17l-60.95-167.8-64.65,178.26c-9.55,22.92-31.14,33.72-55.37,34.32l-195.25,4.83,149.85,123.25c26.51,17.17,32.15,44.75,23.82,73.43l-60.16,206.97,168.23-118.85c20.74-14.65,45.01-17.59,67.45-1.71Z"/>
</svg>