<?xml version="1.0" encoding="UTF-8"?>
<svg id="_x2014_ÎÓÈ_x5F_1" xmlns="http://www.w3.org/2000/svg" version="1.1" viewBox="0 0 646.71 919.96">
  <!-- Generator: Adobe Illustrator 30.3.0, SVG Export Plug-In . SVG Version: 2.1.3 Build 182)  -->
  <defs>
    <style>
      .st0 {
        fill: none;
        stroke: #000;
        stroke-miterlimit: 10;
        stroke-width: 40px;
      }
    </style>
  </defs>
  <path class="st0" d="M320.37,738.75c3.25-.76,6.69-.61,9.74.73.3.13.6.27.89.43,0,0,75.59,39.74,75.61,39.75,10.1,5.31,22.86-3.5,20.86-15.16l-14.44-84.19c-1.31-8.53.87-10.99,4.82-14.85,0,0,60.98-59.44,61.17-59.62,8.41-8.2,3.59-22.85-7.97-24.53l-84.53-12.28c-5.46-.79-10.19-4.22-12.63-9.18l-37.8-76.6c-2.48-5.02-7.3-8.01-12.89-8.01s-10.42,3-12.89,8.02l-37.8,76.6c-2.44,4.95-7.17,8.38-12.63,9.18,0,0-75.76,11.01-84.53,12.28-11.33,1.65-16.35,16.35-7.97,24.53l61.17,59.62c3.95,3.86,5.76,9.41,4.82,14.85,0,0-14.41,84.01-14.44,84.19-1.97,11.51,10.54,20.59,20.86,15.16,0,0,62.26-32.73,73.79-38.79,1.21-.64,2.5-1.12,3.83-1.43l2.96-.7"/>
  <rect class="st0" x="22.19" y="216.81" width="602.07" height="681.96" rx="21.74" ry="21.74"/>
  <polygon class="st0" points="115.51 330.55 531.21 330.55 531.21 330.55 115.51 330.55"/>
  <path d="M34.85,198.07S496.16,23.21,496.93,22.93c15.86-5.99,33.23,6.05,33.23,22.95v63.33c0,20.22-34.49,21.32-33.95,0v-49.46c-88.49,33.37-176.98,66.75-265.47,100.12,0,0,273.02-54.49,299.38-60.2,23.08-5,50.81,11.19,50.81,36.24v83.34c0,17.26-24.53,23.75-32,7.62-2.7-5.83-2.6-12.52-2.45-18.94.18-7.54.36-58.35.54-65.89.19-8.01-4.52-10.03-11.82-8.57-129.5,26.04-259,50.29-388.49,76.33"/>
</svg>