<?xml version="1.0" encoding="UTF-8"?>
<svg id="_ÎÓÈ_1" data-name="—ÎÓÈ_1" xmlns="http://www.w3.org/2000/svg" viewBox="0 0 592.93 918.95">
  <defs>
    <style>
      .cls-1 {
        fill: none;
        stroke: #000;
        stroke-miterlimit: 10;
        stroke-width: 40px;
      }
    </style>
  </defs>
  <path class="cls-1" d="M293.86,748.02c2.97-.69,6.11-.56,8.89.67.27.12.55.25.81.39,0,0,69.02,36.29,69.04,36.3,9.22,4.85,20.87-3.2,19.05-13.84l-13.19-76.88c-1.2-7.79.79-10.04,4.4-13.56,0,0,55.68-54.28,55.86-54.44,7.68-7.49,3.28-20.86-7.28-22.4l-77.19-11.21c-4.99-.72-9.3-3.85-11.53-8.38l-34.52-69.95c-2.26-4.58-6.67-7.31-11.77-7.31s-9.51,2.74-11.77,7.32l-34.52,69.95c-2.23,4.52-6.55,7.65-11.53,8.38,0,0-69.18,10.05-77.19,11.21-10.35,1.51-14.93,14.93-7.28,22.4l55.86,54.44c3.61,3.52,5.26,8.59,4.4,13.56,0,0-13.16,76.71-13.19,76.88-1.8,10.51,9.62,18.8,19.05,13.84,0,0,56.85-29.89,67.38-35.42,1.1-.58,2.28-1.02,3.5-1.31l2.7-.64"/>
  <polygon class="cls-1" points="106.68 297.85 486.27 297.85 486.27 297.85 106.68 297.85"/>
  <rect class="cls-1" x="20" y="178.23" width="552.93" height="720.72" rx="21.74" ry="21.74"/>
  <path d="M20,164.64S451.74,1.68,452.45,1.42c14.48-5.47,30.34,5.52,30.34,20.96v57.83c0,18.46-31.49,19.47-31,0v-45.16c-80.8,30.47-161.6,60.95-242.41,91.42,0,0,249.3-49.76,273.37-54.97,21.07-4.57,46.4,10.22,46.4,33.09v76.1c0,15.76-22.4,21.69-29.22,6.96-2.47-5.32-2.37-11.43-2.24-17.29.16-6.88.33-53.28.49-60.17.17-7.31-4.13-9.16-10.79-7.83-118.25,23.78-236.5,45.92-354.74,69.7"/>
</svg>