<?xml version="1.0" encoding="UTF-8"?>
<svg id="Layer_1" data-name="Layer 1" xmlns="http://www.w3.org/2000/svg" xmlns:xlink="http://www.w3.org/1999/xlink" viewBox="1230 495 170 123">
  <defs>
    <style>
      .cls-1 {
        fill: url(#linear-gradient-3);
      }

      .cls-2 {
        fill: url(#linear-gradient-2);
      }

      .cls-3 {
        fill: url(#linear-gradient);
      }
    </style>
    <linearGradient id="linear-gradient" x1="1235.88" y1="559.49" x2="1397.88" y2="559.49" gradientUnits="userSpaceOnUse">
      <stop offset="0" stop-color="#4a4b4c"/>
      <stop offset="1" stop-color="#231f20"/>
    </linearGradient>
    <linearGradient id="linear-gradient-2" x1="1235.88" y1="544.44" x2="1397.88" y2="544.44" gradientUnits="userSpaceOnUse">
      <stop offset="0" stop-color="#231f20"/>
      <stop offset="1" stop-color="#000"/>
    </linearGradient>
    <linearGradient id="linear-gradient-3" x1="891.83" y1="1506.97" x2="902.83" y2="659.55" gradientTransform="translate(134.86 -622.56) rotate(90) scale(1 -1)" gradientUnits="userSpaceOnUse">
      <stop offset="0" stop-color="#4a4b4c"/>
      <stop offset="1" stop-color="#5c5d60"/>
    </linearGradient>
  </defs>
  <g id="backgrond">
    <path class="cls-3" d="M1263.7,613.68c73.88,0,134.18,25.75,134.18-50.23,0-80.18-59.15-60.11-137.66-60.11h-24.35l3.32,105.67h0c0,1.16.94,2.1,2.1,2.1l22.4,2.57Z"/>
    <path class="cls-2" d="M1395.01,587.79c2.27-11.63,2.17-10.94,2.88-24.76,0-79.76-59.15-59.69-137.66-59.69h-24.35l.75,23.87-.75.02h23.93c71.79,0,135.2,11.85,135.2,60.56Z"/>
    <path class="cls-1" d="M0,502.92h575.12l664.96.42h23.93c72.2,0,130.56,3.8,133.88,59.69,3.36-18.47,1.72-14.67,1.72-36.08V209.9c0-115.86-52.05-209.9-167.92-209.9H0"/>
  </g>
</svg>