<?xml version="1.0" encoding="UTF-8"?>
<svg id="Layer_1" xmlns="http://www.w3.org/2000/svg" xmlns:xlink="http://www.w3.org/1999/xlink" version="1.1" viewBox="0 0 1400 980">
  <!-- Generator: Adobe Illustrator 30.3.0, SVG Export Plug-In . SVG Version: 2.1.3 Build 182)  -->
  <defs>
    <style>
      .st0 {
        fill: url(#linear-gradient2);
      }

      .st1 {
        fill: url(#linear-gradient1);
      }

      .st2 {
        fill: url(#linear-gradient3);
      }

      .st3 {
        fill: url(#linear-gradient6);
      }

      .st4 {
        fill: url(#linear-gradient5);
      }

      .st5 {
        fill: url(#linear-gradient4);
      }

      .st6 {
        fill: url(#linear-gradient);
      }
    </style>
    <linearGradient id="linear-gradient" x1="1659.65" y1="724.97" x2="1800.94" y2="724.97" gradientUnits="userSpaceOnUse">
      <stop offset="0" stop-color="#4a4b4c"/>
      <stop offset="1" stop-color="#231f20"/>
    </linearGradient>
    <linearGradient id="linear-gradient1" x1="1659.65" y1="711.84" x2="1800.94" y2="711.84" gradientUnits="userSpaceOnUse">
      <stop offset="0" stop-color="#231f20"/>
      <stop offset="1" stop-color="#000"/>
    </linearGradient>
    <linearGradient id="linear-gradient2" x1="678.53" y1="628.01" x2="678.53" y2="628.01" gradientTransform="translate(-46.2 -441.5) rotate(90) scale(1 -1)" gradientUnits="userSpaceOnUse">
      <stop offset="0" stop-color="#4a4b4c"/>
      <stop offset="1" stop-color="#5c5d60"/>
    </linearGradient>
    <linearGradient id="linear-gradient3" x1="2173.36" y1="721.98" x2="2819.52" y2="721.98" gradientTransform="translate(-32.09 0) rotate(-180) scale(.22 -1)" xlink:href="#linear-gradient"/>
    <linearGradient id="linear-gradient4" x1="2173.36" y1="708.85" x2="2819.52" y2="708.85" gradientTransform="translate(-32.09 0) rotate(-180) scale(.22 -1)" xlink:href="#linear-gradient1"/>
    <linearGradient id="linear-gradient5" x1="678.53" y1="-973.8" x2="678.53" y2="-973.8" gradientTransform="translate(-22 -441.5) rotate(90) scale(1 .22)" xlink:href="#linear-gradient2"/>
    <linearGradient id="linear-gradient6" x1="830.19" y1="4805.3" x2="918.28" y2="-1977.64" gradientTransform="translate(-22 -441.5) rotate(90) scale(1 .22)" xlink:href="#linear-gradient2"/>
  </defs>
  <g id="backgrond">
    <path class="st6" d="M1683.92,772.23c64.44,0,117.02,22.46,117.02-43.81,0-69.93-51.59-52.43-120.05-52.43h-21.23l2.9,92.16h0c0,1.01.82,1.83,1.83,1.83l19.54,2.24Z"/>
    <path class="st1" d="M1798.43,749.65c1.98-10.14,1.9-9.54,2.51-21.59,0-69.56-51.59-52.06-120.05-52.06h-21.23l.65,20.81-.65.02h20.87c62.61,0,117.91,10.33,117.91,52.82Z"/>
    <path class="st0" d="M581.81,237.03"/>
  </g>
  <g id="backgrond1" data-name="backgrond">
    <path class="st2" d="M-530.92,769.24c-64.35,0-116.87,22.46-116.87-43.81,0-69.93,51.52-52.43,119.89-52.43,7.31,0,21.21,0,21.21,0l-2.89,92.16h0c0,1.01-.82,1.83-1.83,1.83l-19.51,2.24Z"/>
    <path class="st5" d="M-645.28,746.66c-1.98-10.14-1.89-9.54-2.5-21.59,0-69.56,51.52-52.06,119.89-52.06,7.31,0,21.21,0,21.21,0l-.65,20.81.65.02s-13.53,0-20.84,0c-62.52,0-117.76,10.33-117.76,52.82Z"/>
    <path class="st4" d="M190.65,237.03"/>
    <path class="st3" d="M569.57,675.63h-2.56c-.37,0-1.1,0-1.46,0H70.12c-.37,0-1.1,0-1.46,0l-579.16.37h0s-13.53,0-20.84,0c-62.89,0-113.71,3.31-116.6,52.06-2.93-16.11-1.49-12.8-1.49-31.47v-276.5c0-101.05,45.34-183.06,146.25-183.06H69.76s495.79,0,495.79,0h20.29s496.45,0,496.45,0h573.7c101.05,0,146.45,82.01,146.45,183.06v276.5c0,18.67,1.43,15.36-1.5,31.47-2.9-48.75-53.79-52.06-116.76-52.06h-20.87l-579.92-.37h-513.81Z"/>
  </g>
</svg>