<?xml version="1.0" encoding="UTF-8"?>
<svg id="Layer_1" xmlns="http://www.w3.org/2000/svg" xmlns:xlink="http://www.w3.org/1999/xlink" version="1.1" viewBox="0 440 1400 240">
  <!-- Generator: Adobe Illustrator 30.3.0, SVG Export Plug-In . SVG Version: 2.1.3 Build 182)  -->
  <defs>
    <style>
      .st0 {
        fill: url(#linear-gradient2);
      }

      .st1 {
        fill: url(#linear-gradient1);
      }

      .st2 {
        fill: url(#linear-gradient3);
      }

      .st3 {
        fill: url(#linear-gradient6);
      }

      .st4 {
        fill: url(#linear-gradient5);
      }

      .st5 {
        fill: url(#linear-gradient4);
      }

      .st6 {
        fill: url(#linear-gradient);
      }
    </style>
    <linearGradient id="linear-gradient" x1="1318.3" y1="348.81" x2="1398.94" y2="348.81" gradientTransform="translate(0 980) scale(1 -1)" gradientUnits="userSpaceOnUse">
      <stop offset="0" stop-color="#4a4b4c"/>
      <stop offset="1" stop-color="#231f20"/>
    </linearGradient>
    <linearGradient id="linear-gradient1" x1="1318.3" y1="356.3" x2="1398.94" y2="356.3" gradientTransform="translate(0 980) scale(1 -1)" gradientUnits="userSpaceOnUse">
      <stop offset="0" stop-color="#231f20"/>
      <stop offset="1" stop-color="#000"/>
    </linearGradient>
    <linearGradient id="linear-gradient2" x1="1094.16" y1="530.77" x2="1094.16" y2="530.77" gradientTransform="translate(1233.8 -741.5) rotate(90)" gradientUnits="userSpaceOnUse">
      <stop offset="0" stop-color="#4a4b4c"/>
      <stop offset="1" stop-color="#5c5d60"/>
    </linearGradient>
    <linearGradient id="linear-gradient3" x1="1676.95" y1="350.51" x2="2045.79" y2="350.51" gradientTransform="translate(448.59 980) rotate(-180) scale(.22 1)" gradientUnits="userSpaceOnUse">
      <stop offset="0" stop-color="#4a4b4c"/>
      <stop offset="1" stop-color="#231f20"/>
    </linearGradient>
    <linearGradient id="linear-gradient4" x1="1676.95" y1="358.01" x2="2045.79" y2="358.01" gradientTransform="translate(448.59 980) rotate(-180) scale(.22 1)" gradientUnits="userSpaceOnUse">
      <stop offset="0" stop-color="#231f20"/>
      <stop offset="1" stop-color="#000"/>
    </linearGradient>
    <linearGradient id="linear-gradient5" x1="1094.16" y1="1375.75" x2="1094.16" y2="1375.75" gradientTransform="translate(177.08 -741.5) rotate(90) scale(1 -.22)" gradientUnits="userSpaceOnUse">
      <stop offset="0" stop-color="#4a4b4c"/>
      <stop offset="1" stop-color="#5c5d60"/>
    </linearGradient>
    <linearGradient id="linear-gradient6" x1="1180.87" y1="-1919.02" x2="1231.16" y2="1952.88" gradientTransform="translate(177.08 -741.5) rotate(90) scale(1 -.22)" gradientUnits="userSpaceOnUse">
      <stop offset="0" stop-color="#4a4b4c"/>
      <stop offset="1" stop-color="#5c5d60"/>
    </linearGradient>
  </defs>
  <g id="backgrond">
    <path class="st6" d="M1332.15,658.17c36.78,0,66.8,12.82,66.8-25.01,0-39.92-29.45-29.93-68.53-29.93h-12.12l1.66,52.61h0c0,.58.47,1.04,1.04,1.04l11.15,1.28h0Z"/>
    <path class="st1" d="M1397.51,645.28c1.13-5.79,1.08-5.45,1.43-12.32,0-39.71-29.45-29.72-68.53-29.72h-12.12l.37,11.88h-.37s11.91.01,11.91.01c35.74,0,67.31,5.9,67.31,30.15h0Z"/>
    <path class="st0" d="M703.03,352.66"/>
  </g>
  <g id="backgrond1">
    <path class="st2" d="M67.85,656.46c-36.73,0-66.71,12.82-66.71-25.01,0-39.92,29.41-29.93,68.44-29.93h12.11l-1.65,52.61h0c0,.58-.47,1.04-1.04,1.04l-11.14,1.28h0Z"/>
    <path class="st5" d="M2.57,643.57c-1.13-5.79-1.08-5.45-1.43-12.32,0-39.71,29.41-29.72,68.44-29.72h12.11l-.37,11.88h.37s-7.72.01-11.9.01c-35.69,0-67.22,5.9-67.22,30.15Z"/>
    <path class="st4" d="M479.74,352.66"/>
    <path class="st3" d="M696.04,603.03h-285.93l-330.6.21h-11.9c-35.9,0-64.91,1.89-66.56,29.72-1.67-9.2-.85-7.31-.85-17.96v-157.83c0-57.68,25.88-104.5,83.48-104.5h1232.52c57.68,0,83.6,46.81,83.6,104.5v157.83c0,10.66.82,8.77-.86,17.96-1.66-27.83-30.7-29.72-66.65-29.72h-11.91l-331.04-.21h-293.3Z"/>
  </g>
</svg>