<?xml version="1.0" encoding="UTF-8"?>
<svg id="Layer_1" xmlns="http://www.w3.org/2000/svg" xmlns:xlink="http://www.w3.org/1999/xlink" version="1.1" viewBox="0 0 1400 240">
  <!-- Generator: Adobe Illustrator 30.3.0, SVG Export Plug-In . SVG Version: 2.1.3 Build 182)  -->
  <defs>
    <style>
      .st0 {
        fill: url(#linear-gradient2);
      }

      .st1 {
        fill: url(#linear-gradient1);
      }

      .st2 {
        fill: url(#linear-gradient3);
      }

      .st3 {
        fill: url(#linear-gradient6);
      }

      .st4 {
        fill: url(#linear-gradient5);
      }

      .st5 {
        fill: url(#linear-gradient4);
      }

      .st6 {
        fill: url(#linear-gradient);
      }
    </style>
    <linearGradient id="linear-gradient" x1="1540.5" y1="-410.07" x2="1540.5" y2="-410.07" gradientTransform="translate(1110.8 -1410.5) rotate(90) scale(1 -1)" gradientUnits="userSpaceOnUse">
      <stop offset="0" stop-color="#4a4b4c"/>
      <stop offset="1" stop-color="#5c5d60"/>
    </linearGradient>
    <linearGradient id="linear-gradient1" x1="-4335.87" y1="258.43" x2="-4192.88" y2="258.43" gradientTransform="translate(1895.39 132.34) rotate(12.59) scale(.11 .7)" gradientUnits="userSpaceOnUse">
      <stop offset="0" stop-color="#4a4b4c"/>
      <stop offset="1" stop-color="#231f20"/>
    </linearGradient>
    <linearGradient id="linear-gradient2" x1="-4335.87" y1="256.73" x2="-4192.91" y2="256.73" gradientTransform="translate(1895.39 132.34) rotate(12.59) scale(.11 .7)" gradientUnits="userSpaceOnUse">
      <stop offset="0" stop-color="#231f20"/>
      <stop offset="1" stop-color="#000"/>
    </linearGradient>
    <linearGradient id="linear-gradient3" x1="4065.94" y1="14.37" x2="4208.92" y2="14.37" gradientTransform="translate(541.98 82.07) rotate(168.13) scale(.13 -.7)" gradientUnits="userSpaceOnUse">
      <stop offset="0" stop-color="#4a4b4c"/>
      <stop offset="1" stop-color="#231f20"/>
    </linearGradient>
    <linearGradient id="linear-gradient4" x1="4065.94" y1="12.67" x2="4208.89" y2="12.67" gradientTransform="translate(541.98 82.07) rotate(168.13) scale(.13 -.7)" gradientUnits="userSpaceOnUse">
      <stop offset="0" stop-color="#231f20"/>
      <stop offset="1" stop-color="#000"/>
    </linearGradient>
    <linearGradient id="linear-gradient5" x1="1547.44" y1="928.57" x2="1547.44" y2="928.57" gradientTransform="translate(684.82 -1410.5) rotate(90) scale(1 .22)" gradientUnits="userSpaceOnUse">
      <stop offset="0" stop-color="#4a4b4c"/>
      <stop offset="1" stop-color="#5c5d60"/>
    </linearGradient>
    <linearGradient id="linear-gradient6" x1="1521.39" y1="4216.92" x2="1571.5" y2="358.63" gradientTransform="translate(684.82 -1410.5) rotate(90) scale(1 .22)" gradientUnits="userSpaceOnUse">
      <stop offset="0" stop-color="#4a4b4c"/>
      <stop offset="1" stop-color="#5c5d60"/>
    </linearGradient>
  </defs>
  <g id="backgrond">
    <path class="st6" d="M700.73,130"/>
  </g>
  <path class="st1" d="M1384.46,210.21c6.36,1.01,9.89,2.81,10.95-2.56,1.46-7.33-5.84-7.76-9.25-8.68l-4.96-.83-1.96,10.68h0c-.03.12.07.23.2.27"/>
  <path class="st0" d="M1387.96,202.18c5.26,1.18,7.65,2.96,6.56,7.84h0c.53-1.1.5-1.04.9-2.4,1.31-5.88-3.83-7.61-8.73-8.47l-5.49-.99-.5,2.74,7.26,1.29Z"/>
  <g id="backgrond1">
    <path class="st2" d="M14.91,208.97c-7.46,1.16-11.65,3.05-12.63-2.34-1.34-7.35,7.18-7.95,11.2-8.95l5.81-.95,1.76,10.72h0c.02.12-.09.24-.25.27"/>
    <path class="st5" d="M11.23,200.95c-6.18,1.31-9.05,3.15-8.03,8.04h0c-.57-1.1-.54-1.04-.93-2.4-1.23-5.89,4.83-7.76,10.58-8.73l6.45-1.12.45,2.75-8.52,1.46Z"/>
    <path class="st4" d="M480.54,136.94"/>
    <path class="st3" d="M695.03,196.69h-284.99l-329.52.06h-11.86c-35.78,0-64.7.55-66.34,8.72-.67-2.95-.67-2.18-.85-5.27v-46.31c0-16.93,25.8-30.66,83.21-30.66h1228.48c57.49,0,83.33,13.74,83.33,30.66v46.31c0,3.13.82,2.57-.86,5.27-1.65-8.17-30.6-8.72-66.43-8.72h-11.87l-329.96-.06h-292.34,0Z"/>
  </g>
</svg>