<?xml version="1.0" encoding="UTF-8"?>
<svg id="Layer_1" data-name="Layer 1" xmlns="http://www.w3.org/2000/svg" xmlns:xlink="http://www.w3.org/1999/xlink" viewBox="0 0 1400 90.26">
  <defs>
    <style>
      .cls-1 {
        fill: url(#linear-gradient-5);
      }

      .cls-2 {
        fill: url(#linear-gradient-4);
      }

      .cls-3 {
        fill: url(#linear-gradient-3);
      }

      .cls-4 {
        fill: url(#linear-gradient-2);
      }

      .cls-5 {
        fill: url(#linear-gradient);
      }
    </style>
    <linearGradient id="linear-gradient" x1="1318.3" y1="-106.27" x2="1398.95" y2="-106.27" gradientTransform="translate(0 188)" gradientUnits="userSpaceOnUse">
      <stop offset="0" stop-color="#4a4b4c"/>
      <stop offset="1" stop-color="#231f20"/>
    </linearGradient>
    <linearGradient id="linear-gradient-2" x1="1318.29" y1="-108.47" x2="1398.94" y2="-108.47" gradientTransform="translate(0 188)" gradientUnits="userSpaceOnUse">
      <stop offset="0" stop-color="#231f20"/>
      <stop offset="1" stop-color="#000"/>
    </linearGradient>
    <linearGradient id="linear-gradient-3" x1="3861.86" y1="-106.77" x2="4230.7" y2="-106.77" gradientTransform="translate(929.27 188) rotate(-180) scale(.22 -1)" gradientUnits="userSpaceOnUse">
      <stop offset="0" stop-color="#4a4b4c"/>
      <stop offset="1" stop-color="#231f20"/>
    </linearGradient>
    <linearGradient id="linear-gradient-4" x1="3861.86" y1="-108.97" x2="4230.7" y2="-108.97" gradientTransform="translate(929.27 188) rotate(-180) scale(.22 -1)" gradientUnits="userSpaceOnUse">
      <stop offset="0" stop-color="#231f20"/>
      <stop offset="1" stop-color="#000"/>
    </linearGradient>
    <linearGradient id="linear-gradient-5" x1="1527.99" y1="4096.65" x2="1578.27" y2="225.52" gradientTransform="translate(656.22 -1540.5) rotate(90) scale(1 .22)" gradientUnits="userSpaceOnUse">
      <stop offset="0" stop-color="#4a4b4c"/>
      <stop offset="1" stop-color="#5c5d60"/>
    </linearGradient>
  </defs>
  <g id="backgrond">
    <path class="cls-5" d="M1332.15,89.65c36.78,0,66.8,3.76,66.8-7.34,0-11.71-29.45-8.78-68.53-8.78h-12.12l1.66,15.44h0c0,.17.47.31,1.04.31l11.15.38h0Z"/>
    <path class="cls-4" d="M1397.51,85.87c1.13-1.7,1.08-1.6,1.43-3.62,0-11.65-29.45-8.72-68.53-8.72h-12.12l.37,3.49h-.37,11.91c35.74,0,67.31,1.73,67.31,8.85h0Z"/>
  </g>
  <g id="backgrond1">
    <path class="cls-3" d="M67.85,89.15c-36.73,0-66.71,3.76-66.71-7.34,0-11.71,29.41-8.78,68.44-8.78h12.11l-1.65,15.44h0c0,.17-.47.31-1.04.31l-11.14.38h-.01Z"/>
    <path class="cls-2" d="M2.57,85.36c-1.13-1.7-1.08-1.6-1.43-3.62,0-11.65,29.41-8.72,68.44-8.72h12.11l-.37,3.49h.37s-7.72,0-11.9,0c-35.69,0-67.22,1.73-67.22,8.85h0Z"/>
    <path class="cls-1" d="M696.04,73.47h-285.93l-330.6.06h-11.9c-35.9,0-64.91.55-66.56,8.72-1.67-2.7-.85-2.15-.85-5.27V30.67C.2,13.74,26.08,0,83.68,0h1232.52c57.68,0,83.6,13.74,83.6,30.66v46.31c0,3.13.82,2.57-.86,5.27-1.66-8.17-30.7-8.72-66.65-8.72h-11.91l-331.04-.06h-293.3,0Z"/>
  </g>
</svg>