<?xml version="1.0" encoding="UTF-8"?>
<svg id="Layer_1" data-name="Layer 1" xmlns="http://www.w3.org/2000/svg" xmlns:xlink="http://www.w3.org/1999/xlink" viewBox="0 495 170 123">
  <defs>
    <style>
      .cls-1 {
        fill: url(#linear-gradient-3);
      }

      .cls-2 {
        fill: url(#linear-gradient-2);
      }

      .cls-3 {
        fill: url(#linear-gradient);
      }
    </style>
    <linearGradient id="linear-gradient" x1="509.9" y1="559.49" x2="576.74" y2="559.49" gradientTransform="translate(1400 0) rotate(-180) scale(2.42 -1)" gradientUnits="userSpaceOnUse">
      <stop offset="0" stop-color="#4a4b4c"/>
      <stop offset="1" stop-color="#231f20"/>
    </linearGradient>
    <linearGradient id="linear-gradient-2" x1="509.9" y1="544.44" x2="576.74" y2="544.44" gradientTransform="translate(1400 0) rotate(-180) scale(2.42 -1)" gradientUnits="userSpaceOnUse">
      <stop offset="0" stop-color="#231f20"/>
      <stop offset="1" stop-color="#000"/>
    </linearGradient>
    <linearGradient id="linear-gradient-3" x1="899.01" y1="543.54" x2="903.57" y2="192.52" gradientTransform="translate(1073.14 -622.56) rotate(90) scale(1 2.42)" gradientUnits="userSpaceOnUse">
      <stop offset="0" stop-color="#4a4b4c"/>
      <stop offset="1" stop-color="#5c5d60"/>
    </linearGradient>
  </defs>
  <g id="backgrond">
    <path class="cls-3" d="M136.3,613.68c-73.88,0-134.18,25.75-134.18-50.23,0-80.18,59.15-60.11,137.66-60.11,8.4,0,24.35,0,24.35,0l-3.32,105.67h0c0,1.16-.94,2.1-2.1,2.1l-22.4,2.57Z"/>
    <path class="cls-2" d="M4.99,587.79c-2.27-11.63-2.17-10.94-2.88-24.76,0-79.76,59.15-59.69,137.66-59.69,8.4,0,24.35,0,24.35,0l-.75,23.87.75.02s-15.53,0-23.93,0c-71.79,0-135.2,11.85-135.2,60.56Z"/>
    <path class="cls-1" d="M1400,502.92h-2.94c-.42,0-1.26,0-1.68,0h-568.82c-.42,0-1.26,0-1.68,0l-664.96.42h0s-15.53,0-23.93,0c-72.2,0-130.56,3.8-133.88,59.69-3.36-18.47-1.72-14.67-1.72-36.08V209.9C.4,94.04,52.46,0,168.32,0h657.82S1395.38,0,1395.38,0h4.62"/>
  </g>
</svg>