<?xml version="1.0" encoding="UTF-8"?>
<svg id="Layer_1" data-name="Layer 1" xmlns="http://www.w3.org/2000/svg" viewBox="0 0 2933.22 2577.11">
  <defs>
    <style>
      .cls-1 {
        stroke: #000;
        stroke-miterlimit: 10;
        stroke-width: 60px;
      }
    </style>
  </defs>
  <path class="cls-1" d="M568.11,600.99c390.4,78.54,662.65-8.22,1016.98-152.13,32.55-13.22,77.45-9.79,104.28,9.81,24.87,18.17,38.06,56.32,39.72,94.14,13.77,313.16,15.39,618.1-19.84,929.36,315.38-37.91,492.2,297.23,399.2,316.39-23.43,4.82-39.3-11-47.93-35.76-52.05-149.41-209.93-232.08-364.27-205.83-27.84,179.18-64.6,350.83-148.53,517.63,218.44,124.58,482.36,33.68,675.97-137.55,302.33-267.37,447.88-750.7,544.48-1145.43l61.81-252.56c2.06-8.42,1.65-25.73-1.07-32.19-3.63-8.62-29.69-15.38-40.23-14.37-561.2,53.81-906.89-39.56-1348.9-383.2-9.62-7.48-44.43-11.32-47.78-.18l-93.39,310.55c-3.96,13.17-36.57,24.71-48.04,18.78-11.47-5.93-23.02-36.21-19.32-48.66l83.53-280.55c8.71-29.25,34.11-63.02,56.9-71.73,34.02-13.01,76.57-9.05,105.29,11.61,277.25,199.39,509.21,343.12,858.86,375.47,148.77,13.77,291.69,10.72,442.25-2.75,36.86-3.3,75.86,7.39,97.09,29.02,29.35,29.91,33.03,70.34,23.07,112.44-87.56,370.32-179.67,762.76-361.56,1094.82-94.51,172.54-221.6,322.16-387.75,428.19-191.59,122.27-435.99,167.14-634.81,54.93-56.67,85.11-109.61,163.05-181.93,227.61-270.61,241.57-581.24,235.78-845.88-6.12-153.48-140.29-252.34-316.43-312.06-517.1C59.46,1459.89,40.89,998.55,30.02,586.61c-.71-26.95,15.36-64.89,30.56-79.18,18.04-16.96,68.23-30.73,94.88-22.41,140.22,43.75,270.1,87.29,412.64,115.97ZM590.68,2353.27c259.08,197.86,528.13,141.03,738.73-87.96,244.58-265.94,294.43-641.58,325.4-995.93,11.65-244.57,7.68-480.48,2.24-725.71l-21.15-29.04c-4.49-6.16-24.91,2.5-33.37,5.86-357.89,141.84-610.4,227.37-1013.52,160.61-151.32-29.49-293.07-70.67-437.45-124.05l-31.37.44c-6.97.1-13.28,19.6-16.58,29.5l34.77,652.91c43.73,403.35,114.45,855.34,452.3,1113.35Z"/>
  <path class="cls-1" d="M2264.9,1074.07c105.75,38.31,148.45-59.72,204.19-39.62,57.65,20.79-63.57,148.81-200.99,115.12-139.1-34.1-195.67-171.05-144.75-195.31,52.4-24.97,48.83,86.22,141.54,119.81Z"/>
  <path class="cls-1" d="M933.05,2080.44c-257.99,14.3-410.33-206.93-334.49-227.84,13.73-3.79,42.31,7.81,50.85,21.36,60.74,96.37,163.22,135.56,270.81,132.68,104.88-5.74,204.55-59.3,257.06-163.56l43.2-7.31c12.36-2.09,24.28,36.14,17.05,50.15-58.04,112.39-183.93,187.85-304.47,194.53Z"/>
  <path class="cls-1" d="M748.89,1357.75c-48.4,50.27-67.19-89.11-186.45-92.11-134.8-3.39-125.17,115.42-186.44,105.85-17.78-2.78-31.46-36.32-21.54-55.23,40.67-77.56,111.45-118.88,188.42-123.41,147.6-8.68,246.17,123.22,206.02,164.91Z"/>
  <path class="cls-1" d="M1433.58,1333.48c-51.5,42.85-64.66-98.42-193.87-92.02-123.2,6.1-125.49,134.6-180.07,107.82-55.39-27.17,25.5-172.09,177.77-181.51,137.47-8.5,243.7,126.16,196.18,165.7Z"/>
</svg>