<?xml version="1.0" encoding="UTF-8"?>
<svg id="Layer_1" xmlns="http://www.w3.org/2000/svg" version="1.1" viewBox="0 0 3413.6 2704.31">
  <!-- Generator: Adobe Illustrator 30.3.0, SVG Export Plug-In . SVG Version: 2.1.3 Build 182)  -->
  <defs>
    <style>
      .st0 {
        fill: #fff;
      }

      .st0, .st1 {
        stroke: #000;
        stroke-miterlimit: 10;
        stroke-width: 23px;
      }
    </style>
  </defs>
  <path class="st1" d="M3402.07,2458.53c-7.49,49.37-47.53,93.84-98.72,93.85l-1343.5.55c-25.22,49.82-66.69,86.75-117.07,111.33-80.3,37.26-171.51,37.86-252.97,2.99-53.2-23.81-96.44-62.77-122.73-114.4l-1343.49.05c-56.54,2.63-104.62-36.9-111.83-92.84V603.25c-3.4-43.73,28.58-80.53,72.7-80.9l109.11-.93.17-164.41c6.7-39.78,39.21-61.05,77.51-60.97l121.09.28-.2-194.89c-.02-24.1,15.51-44.76,39.3-50.51,92.71-22.39,185.48-32.57,281.53-36.68,187.07-8.01,372.15,13.18,552.51,63.06,165.53,47.74,320.4,119.11,450.03,232.96,130.53-114.26,284.73-185.17,449.44-232.27,216.8-60.28,441.12-79.86,664.95-57.58,55.18,5.5,106.72,14.12,159.86,27.2,24.26,5.97,40.72,29.23,40.75,53.9l.16,194.92,110.03.36c39.26-1.99,71.57,26.54,74.52,65.67l.21,112.39,109.2.16c40.04.06,73.61,28.59,77.48,69.08l-.02,1914.43h-.01ZM1680.92,2389.61l.08-2016.93c-61.96-55.97-130.44-100.83-204.08-138.59-97.84-49.2-199.78-83.72-306.58-109.2-234.46-53.22-474.67-58.19-711.98-10.49l.02,2015.19c252.46-31.3,499-17.25,742.13,39.28,95.65,23.62,187.51,53.35,276.39,94.49,74.13,34.73,139.74,75.01,204.01,126.26h0ZM1942.96,2264.17c84.73-40.57,170.01-69.08,259.85-92.02,248.93-61.96,504.85-76.91,759.38-45.91l-.02-2015.52c-199.31-39.41-401.43-39.46-600.92-5.26-106.13,18.03-207.44,45.41-307.48,84.32-111.98,43.39-216.61,104.33-305.76,183.24l.08,2014.37c61.71-49.42,123.69-89.49,194.88-123.24v.02ZM707.77,2181.25c-92.06-.5-179.46,5.9-269.99,18.72-21.68,2.96-45.21-9.41-45.21-33.92l.1-1802.68-124.29-.77c-6.11,2.47-9.18,7.1-8.98,15.67l.33,1930.57,1150.27-.06c-70.13-31.96-140.18-53.92-214.44-72.28-160.18-39.61-322.59-56.81-487.78-55.26h0ZM2225.61,2234.88c-74.03,21.04-143.69,39.27-214.62,73.99l1138.21.05.15-1945.01-118.75-1.24-.22,1802.63c0,28.36-30.52,36.48-51.16,32.88-89.08-15.57-175.39-18.95-266.1-19.76-164.86-1.48-325.85,17.05-487.51,56.47h0ZM3215.3,541.7l-.29,1778.74c0,28.89-33.11,54.27-59.88,54.27l-1272.38.12c-41.18,25.71-77.86,54.77-114.25,87.6-28.43,25.64-72.1,30.2-104.53,4.46-39.9-31.66-77.79-65.54-124.06-92l-1279.98.06c-33.18,0-66.01-24.96-66.01-60.45l-.16-1725.83c-37.92-.74-75.57-1.07-114.52.89l.03,1861.09c0,16.37,14.7,36.61,34.14,36.61l1379.26.23c16.45,0,24.68,15.59,29.93,27.2,47.01,103.93,182.41,136.99,285.52,91.36,47.46-21.01,81.97-55.86,102.13-103.01,3.61-8.45,16.22-15.66,26.61-15.66l1354.47-.02c28.11,0,43.56-18.23,43.56-45.54"/>
  <path class="st0" d="M3334.88,2441.84c0,27.3-15.45,45.54-43.56,45.54l-1354.47.02c-10.4,0-23.01,7.2-26.61,15.66-20.16,47.14-54.67,82.01-102.13,103.01-103.11,45.62-238.5,12.56-285.52-91.36-5.25-11.61-13.47-27.2-29.93-27.2l-1379.26-.23c-19.44,0-34.14-20.24-34.14-36.61l-.03-1861.09c38.95-1.96,76.59-1.64,114.52-.89l.16,1725.83c0,35.48,32.82,60.45,66.01,60.45l1279.98-.06c46.27,26.46,84.16,60.34,124.06,92,32.44,25.74,76.11,21.18,104.53-4.46,36.38-32.82,73.07-61.88,114.25-87.6l1272.38-.12c26.77,0,59.88-25.39,59.88-54.27l.29-1778.74,123.82-1.15c5.33-.05-4.28,5.72-4.28,12.78"/>
  <path class="st1" d="M1458.22,1813.73c-178.96-67.84-366.29-105.59-557.6-110.58-72.26-1.88-141.31,1.37-211.4,14.59-19.14,3.61-35.73-1.53-42.51-20.11-5.76-15.77,1.28-38.17,21.01-42.47,112.81-24.6,264.02-20.88,381.15-7.42,145.75,16.75,287.03,49.07,423.97,100.02,19.75,7.34,32.02,21.91,27.64,41.76-3.89,17.63-23.21,31.42-42.24,24.2h-.02Z"/>
  <path class="st1" d="M1452.63,783.26c-190.9-71.75-410.73-109.07-614.14-105.25-55.59,1.05-107.1,7.17-160.85,15.98-16.15,2.65-29.27-12.83-31.86-25.2-2.93-14,2.53-33.81,18.36-37.68,50.17-12.27,99.83-15.69,151.44-17.9,80.66-3.46,158.44,1.2,239.4,10.04,144.07,15.73,283.4,47.31,419,96.67,20.38,7.41,31.48,23.21,25.25,43.89-5.84,19.4-26.9,26.85-46.59,19.45h0Z"/>
  <path class="st1" d="M1452.67,1466.44c-183.4-68.22-374.63-104.99-569.65-107.45-65.59-.82-127.73,3.21-190.9,14.98-19.75,3.68-37.95.63-45.09-18.74-6.3-17.05,1.02-39.56,21.33-43.73,164.91-33.88,375.1-16.29,541.32,17.39,93.17,18.88,182.06,43.08,270.06,77.3,18.23,7.09,25.14,25.75,19.92,41.14-6.89,20.32-25.69,27.04-46.98,19.11h-.01Z"/>
  <path class="st1" d="M1450.85,1123.31c-222.46-86.32-532.69-132.52-767.14-90.29-17.8,3.21-32.95-7.41-37.62-23.11-4.58-15.42,3.09-36.48,21.58-40.32,49.86-10.33,97.98-15.51,150.14-16.98,225.07-6.33,447.94,31.58,658.79,108.88,20.21,7.4,29.34,26.14,21.83,45.41-7.46,19.14-27.64,24.13-47.57,16.41h-.01Z"/>
  <path class="st1" d="M2749.05,1718.46c-233.75-44.92-537.66,10.76-759.16,97.81-20.37,8.01-38.84,9.06-49.59-11.89-8.71-17-1.36-39.1,19.86-47.37,171.5-66.81,351.67-107.02,536.02-117.98l97.88-1.78c58.26-1.06,115.09,4.3,172.1,16.78,18.2,3.99,26.83,23.31,23.37,38.47-4.28,18.76-20.69,29.74-40.48,25.95h0Z"/>
  <path class="st1" d="M2744.65,1374.5c-73.61-14.18-144.38-17.72-218.6-14.81-184.76,7.23-365.64,44.5-537.25,111.31-20.14,7.83-37.91,8.62-48.99-12.84-8.18-15.86-.87-37.65,20.29-45.97,206.01-80.97,426.65-122.57,648.82-118.47,55.84,1.03,107.73,5.59,160.63,18.39,18.33,4.44,24.71,27.96,18.53,42.41-7.47,17.46-23.24,23.87-43.44,19.97h.01Z"/>
  <path class="st1" d="M2749.2,1032.83c-163.47-32.42-366.97-11.75-530.55,24.55-80.8,17.93-157.32,41.07-233.33,72.39-19.29,7.95-39.5,1.53-46.63-17.77-6.99-18.95,3.68-36.52,23.88-44.35,201.77-78.29,416.66-118.58,633.41-116.14,58.53.66,113.46,5.21,170.17,17.16,18.1,3.82,26.46,23.19,23.44,38.51-3.71,18.75-20.95,29.5-40.39,25.64h0Z"/>
  <path class="st1" d="M2752.81,693.9c-176.96-33.22-380.13-12.6-555.31,27.93-72.12,16.68-140.28,36.93-207.92,65.22-18.78,7.85-36.7,8.39-48.23-10.45-9.04-14.78-5.07-39.81,14.4-46.79l118.33-42.46c157.88-47.38,319.46-73.62,484.63-75.52,70.89-.82,137.73,3.29,206.36,16.78,17.51,3.44,27.08,21.65,24.77,37.69-2.35,16.32-18.99,30.99-37.03,27.61h.01Z"/>
</svg>