<?xml version="1.0" encoding="UTF-8"?>
<svg id="Layer_1" data-name="Layer 1" xmlns="http://www.w3.org/2000/svg" viewBox="0 0 3402.09 3018.37">
  <defs>
    <style>
      .cls-1 {
        fill: #fff;
      }

      .cls-1, .cls-2 {
        stroke: #000;
        stroke-miterlimit: 10;
        stroke-width: 23px;
      }
    </style>
  </defs>
  <path class="cls-2" d="M2929.59,2117.54c-6.45,42.49-40.91,80.76-84.96,80.77l-1156.29.47c-21.71,42.88-57.4,74.66-100.76,95.82-69.11,32.07-147.61,32.58-217.72,2.57-45.79-20.49-83-54.02-105.63-98.46l-1156.28.04c-48.66,2.26-90.04-31.76-96.25-79.9V520.79c-2.93-37.64,24.6-69.31,62.57-69.63l93.91-.8.15-141.5c5.77-34.24,33.75-52.54,66.71-52.47l104.22.24-.17-167.73c-.02-20.74,13.35-38.52,33.82-43.47,79.79-19.27,159.63-28.03,242.3-31.57,161-6.89,320.29,11.34,475.52,54.27,142.46,41.09,275.75,102.51,387.32,200.5,112.34-98.34,245.05-159.37,386.81-199.9C2051.45,16.85,2244.51,0,2437.15,19.17c47.49,4.73,91.85,12.15,137.58,23.41,20.88,5.14,35.05,25.16,35.07,46.39l.14,167.76,94.7.31c33.79-1.71,61.6,22.84,64.14,56.52l.18,96.73,93.98.14c34.46.05,63.35,24.61,66.68,59.45l-.02,1647.66ZM1448.28,2058.23l.07-1735.88c-53.33-48.17-112.26-86.78-175.64-119.28-84.21-42.34-171.94-72.05-263.86-93.98-201.79-45.8-408.53-50.08-612.77-9.03l.02,1734.38c217.28-26.94,429.47-14.85,638.72,33.81,82.32,20.33,161.38,45.92,237.88,81.32,63.8,29.89,120.27,64.56,175.58,108.67ZM1673.8,1950.27c72.92-34.92,146.32-59.45,223.64-79.2,214.24-53.33,434.5-66.19,653.56-39.51l-.02-1734.66c-171.54-33.92-345.49-33.96-517.18-4.53-91.34,15.52-178.53,39.08-264.63,72.57-96.38,37.34-186.43,89.79-263.15,157.71l.07,1733.67c53.11-42.53,106.45-77.02,167.72-106.07ZM610.73,1878.9c-79.23-.43-154.45,5.08-232.37,16.11-18.66,2.55-38.91-8.1-38.91-29.19l.09-1551.48-106.97-.66c-5.26,2.13-7.9,6.11-7.73,13.49l.28,1661.55,989.98-.05c-60.36-27.51-120.65-46.41-184.56-62.21-137.86-34.09-277.64-48.89-419.81-47.56ZM1917.07,1925.06c-63.71,18.11-123.67,33.8-184.71,63.68l979.6.04.13-1673.98-102.2-1.07-.19,1551.44c0,24.41-26.27,31.4-44.03,28.3-76.67-13.4-150.95-16.31-229.02-17.01-141.89-1.27-280.44,14.67-419.58,48.6ZM2768.85,467.82l-.25,1530.88c0,24.86-28.5,46.71-51.54,46.71l-1095.08.1c-35.44,22.13-67.01,47.14-98.33,75.39-24.47,22.07-62.05,25.99-89.96,3.84-34.34-27.25-66.95-56.41-106.77-79.18l-1101.62.05c-28.56,0-56.81-21.48-56.81-52.03l-.14-1485.34c-32.64-.64-65.04-.92-98.56.77l.03,1601.75c0,14.09,12.65,31.51,29.38,31.51l1187.06.2c14.16,0,21.24,13.42,25.76,23.41,40.46,89.45,156.99,117.9,245.73,78.63,40.85-18.08,70.55-48.08,87.9-88.66,3.11-7.27,13.96-13.48,22.9-13.48l1165.73-.02c24.19,0,37.49-15.69,37.49-39.19"/>
  <path class="cls-1" d="M2871.76,2103.18c0,23.5-13.3,39.19-37.49,39.19l-1165.73.02c-8.95,0-19.8,6.2-22.9,13.48-17.35,40.57-47.05,70.58-87.9,88.66-88.74,39.26-205.27,10.81-245.73-78.63-4.52-9.99-11.59-23.41-25.76-23.41l-1187.06-.2c-16.73,0-29.38-17.42-29.38-31.51l-.03-1601.75c33.52-1.69,65.92-1.41,98.56-.77l.14,1485.34c0,30.54,28.25,52.03,56.81,52.03l1101.62-.05c39.82,22.77,72.43,51.93,106.77,79.18,27.92,22.15,65.5,18.23,89.96-3.84,31.31-28.25,62.89-53.26,98.33-75.39l1095.08-.1c23.04,0,51.54-21.85,51.54-46.71l.25-1530.88,106.57-.99c4.59-.04-3.68,4.92-3.68,11"/>
  <path class="cls-2" d="M1256.61,1562.59c-154.02-58.39-315.25-90.88-479.9-95.17-62.19-1.62-121.62,1.18-181.94,12.56-16.47,3.11-30.75-1.32-36.59-17.31-4.96-13.57,1.1-32.85,18.08-36.55,97.09-21.17,227.23-17.97,328.04-6.39,125.44,14.42,247.03,42.23,364.89,86.08,17,6.32,27.56,18.86,23.79,35.94-3.35,15.17-19.98,27.04-36.35,20.83Z"/>
  <path class="cls-2" d="M1251.8,675.72c-164.3-61.75-353.5-93.87-528.56-90.58-47.84.9-92.18,6.17-138.44,13.75-13.9,2.28-25.19-11.04-27.42-21.69-2.52-12.05,2.18-29.1,15.8-32.43,43.18-10.56,85.92-13.5,130.34-15.41,69.42-2.98,136.36,1.03,206.04,8.64,123.99,13.54,243.91,40.72,360.61,83.2,17.54,6.38,27.09,19.98,21.73,37.77-5.03,16.7-23.15,23.11-40.1,16.74Z"/>
  <path class="cls-2" d="M1251.83,1263.7c-157.84-58.71-322.43-90.36-490.27-92.48-56.45-.71-109.93,2.76-164.3,12.89-17,3.17-32.66.54-38.81-16.13-5.42-14.67.88-34.05,18.36-37.64,141.93-29.16,322.83-14.02,465.89,14.97,80.19,16.25,156.69,37.08,232.43,66.53,15.69,6.1,21.64,22.16,17.14,35.41-5.93,17.49-22.11,23.27-40.43,16.45Z"/>
  <path class="cls-2" d="M1250.27,968.38c-191.46-74.29-458.46-114.05-660.24-77.71-15.32,2.76-28.36-6.38-32.38-19.89-3.94-13.27,2.66-31.4,18.57-34.7,42.91-8.89,84.33-13.35,129.22-14.61,193.71-5.45,385.52,27.18,566.99,93.71,17.39,6.37,25.25,22.5,18.79,39.08-6.42,16.47-23.79,20.77-40.94,14.12Z"/>
  <path class="cls-2" d="M2367.57,1480.6c-201.18-38.66-462.74,9.26-653.37,84.18-17.53,6.89-33.43,7.8-42.68-10.23-7.5-14.63-1.17-33.65,17.09-40.77,147.6-57.5,302.67-92.11,461.33-101.54l84.24-1.53c50.14-.91,99.05,3.7,148.12,14.44,15.66,3.43,23.09,20.06,20.11,33.11-3.68,16.15-17.81,25.6-34.84,22.33Z"/>
  <path class="cls-2" d="M2363.78,1184.57c-63.35-12.2-124.26-15.25-188.14-12.75-159.01,6.22-314.69,38.3-462.39,95.8-17.33,6.74-32.63,7.42-42.16-11.05-7.04-13.65-.75-32.4,17.46-39.56,177.3-69.69,367.2-105.49,558.41-101.96,48.06.89,92.72,4.81,138.25,15.83,15.78,3.82,21.27,24.06,15.95,36.5-6.43,15.03-20,20.54-37.39,17.19Z"/>
  <path class="cls-2" d="M2367.7,890.51c-140.69-27.9-315.83-10.11-456.62,21.13-69.54,15.43-135.4,35.35-200.82,62.3-16.6,6.84-34,1.32-40.13-15.29-6.02-16.31,3.17-31.43,20.55-38.17,173.65-67.38,358.6-102.06,545.15-99.96,50.37.57,97.65,4.48,146.46,14.77,15.58,3.29,22.77,19.96,20.17,33.14-3.19,16.14-18.03,25.39-34.76,22.07Z"/>
  <path class="cls-2" d="M2370.8,598.81c-152.3-28.59-327.16-10.84-477.93,24.04-62.07,14.36-120.73,31.78-178.95,56.13-16.16,6.76-31.59,7.22-41.51-8.99-7.78-12.72-4.36-34.26,12.39-40.27l101.84-36.54c135.88-40.78,274.94-63.36,417.1-65,61.01-.71,118.54,2.83,177.6,14.44,15.07,2.96,23.31,18.63,21.32,32.44-2.02,14.05-16.34,26.67-31.87,23.76Z"/>
</svg>