<?xml version="1.0" encoding="UTF-8"?>
<svg id="Layer_1" data-name="Layer 1" xmlns="http://www.w3.org/2000/svg" viewBox="0 0 2734.94 2987.82">
  <defs>
    <style>
      .cls-1 {
        stroke: #000;
        stroke-miterlimit: 10;
        stroke-width: 47px;
      }
    </style>
  </defs>
  <path class="cls-1" d="M1022.34,1096.81l-2.36,1432.3c-.42,255.61-365.83,540.05-739.95,396.67-118.04-45.24-201.58-141.59-235.29-239.3-46.2-133.92-13.86-265.42,66.58-372.31,188.97-251.1,551.13-297.18,799.55-96.44l.99-1658.84c.04-68.31,48.5-126.31,112.04-142.68L2528.51,28.6c91.35-23.53,183.02,36.55,182.93,134.28l-1.8,2002.72c-.21,233.18-370.91,531.29-750.18,374.89-226.17-93.27-312.85-348.42-191.55-559.08,176.43-287.55,564.82-360.38,832.22-147.77l.92-1140.93-1578.7,404.08ZM2602.71,576.38l-5.95-449.81-1575.1,405.19.04,451.38,1581.01-406.76ZM2561.07,2263.83c88.56-146,36.37-317.18-108.25-394.03-192.13-102.11-440.52-42.86-567.26,133.28-54.82,76.19-77.97,159.81-51.58,255.87,15.6,56.81,71.24,132.15,143.63,168.54,204.37,102.76,460.64,38.82,583.46-163.66ZM864.17,2657.24c53.33-77.49,67.63-175.14,28.61-270.18-27.01-65.8-98.32-131.32-185.9-162.15-191.22-67.32-412.74,6.42-523.78,176.57-51.15,78.37-64.36,166.06-32.25,260.07,21.5,62.94,87.65,128.28,169.8,161.21,196.3,78.68,422.73,10,543.52-165.53Z"/>
</svg>