<?xml version="1.0" encoding="UTF-8"?>
<svg id="Layer_1" xmlns="http://www.w3.org/2000/svg" version="1.1" viewBox="0 0 3413.6 2704.31">
  <!-- Generator: Adobe Illustrator 30.3.0, SVG Export Plug-In . SVG Version: 2.1.3 Build 182)  -->
  <path d="M3390.83,2461.26c-7.47,49.23-47.4,93.57-98.44,93.59l-1339.8.54c-25.16,49.68-66.51,86.51-116.75,111.03-80.08,37.16-171.04,37.75-252.27,2.98-53.05-23.74-96.18-62.6-122.39-114.09l-1339.79.05c-56.38,2.62-104.33-36.81-111.52-92.58V611.08c-3.39-43.61,28.5-80.3,72.5-80.68l108.81-.93.17-163.95c6.68-39.67,39.11-60.88,77.3-60.8l120.76.28-.19-194.35c-.02-24.03,15.47-44.64,39.19-50.37,92.45-22.33,184.97-32.48,280.75-36.58,186.55-7.98,371.12,13.14,550.99,62.89,165.07,47.61,319.51,118.78,448.79,232.32,130.17-113.95,283.95-184.66,448.21-231.63,216.17-60.13,439.87-79.65,663.08-57.44,55.03,5.48,106.42,14.08,159.41,27.13,24.2,5.96,40.61,29.15,40.64,53.75l.16,194.39,109.73.36c39.15-1.98,71.37,26.47,74.32,65.49l.21,112.09,108.89.16c39.93.06,73.41,28.52,77.26,68.88l-.03,1909.16ZM1674.41,2392.53l.08-2011.38c-61.79-55.81-130.08-100.56-203.51-138.21-97.58-49.06-199.22-83.49-305.74-108.9-233.81-53.07-473.36-58.03-710.02-10.47l.02,2009.64c251.77-31.22,497.63-17.21,740.09,39.17,95.38,23.56,186.99,53.21,275.63,94.22,73.93,34.63,139.35,74.8,203.45,125.91ZM1935.73,2267.43c84.5-40.46,169.55-68.89,259.13-91.76,248.25-61.8,503.46-76.69,757.28-45.78l-.02-2009.96c-198.76-39.31-400.33-39.35-599.26-5.25-105.84,17.98-206.86,45.28-306.63,84.09-111.68,43.26-216.02,104.04-304.91,182.74l.08,2008.82c61.54-49.28,123.34-89.24,194.33-122.9ZM703.94,2184.74c-91.81-.5-178.96,5.88-269.24,18.67-21.62,2.96-45.09-9.39-45.08-33.82l.1-1797.71-123.95-.76c-6.1,2.47-9.15,7.08-8.96,15.63l.32,1925.25,1147.1-.06c-69.94-31.87-139.8-53.78-213.85-72.09-159.74-39.5-321.7-56.65-486.44-55.11ZM2217.61,2238.22c-73.82,20.99-143.3,39.17-214.03,73.79l1135.07.05.15-1939.65-118.42-1.24-.22,1797.66c0,28.28-30.44,36.38-51.02,32.79-88.84-15.53-174.9-18.9-265.37-19.71-164.41-1.47-324.95,17-486.17,56.31ZM111.22,2489.92l1375.45.23c16.41,0,24.61,15.55,29.84,27.13,46.88,103.64,181.91,136.61,284.73,91.11,47.34-20.94,81.75-55.71,101.85-102.73,3.6-8.42,16.17-15.61,26.54-15.61l1350.74-.03c28.02,0,43.44-18.18,43.44-45.41l-.03-1883.31c0-7.05-7.69-12.64-13.01-12.59l-106.21.98-.29,1773.84c0,28.8-33.02,54.12-59.72,54.12l-1268.88.12c-41.07,25.64-77.65,54.62-113.93,87.35-28.35,25.58-71.89,30.11-104.24,4.45-39.8-31.57-77.58-65.36-123.72-91.74l-1276.46.06c-33.09,0-65.82-24.89-65.83-60.28l-.17-1721.07c-37.82-.74-75.36-1.07-114.2.9l.04,1855.96c0,16.33,14.66,36.51,34.05,36.51Z"/>
  <path d="M1452.33,1818.23c-178.47-67.65-365.28-105.31-556.07-110.27-72.06-1.88-140.92,1.37-210.82,14.56-19.08,3.6-35.63-1.54-42.4-20.05-5.74-15.72,1.27-38.06,20.95-42.35,112.5-24.53,263.29-20.83,380.1-7.4,145.35,16.71,286.23,48.93,422.8,99.74,19.69,7.33,31.93,21.85,27.56,41.65-3.88,17.58-23.15,31.33-42.12,24.14Z"/>
  <path d="M1446.76,790.61c-190.37-71.55-409.61-108.77-612.45-104.95-55.43,1.04-106.81,7.15-160.41,15.93-16.11,2.64-29.19-12.79-31.77-25.13-2.91-13.96,2.52-33.72,18.31-37.58,50.04-12.24,99.56-15.64,151.03-17.85,80.44-3.46,158,1.19,238.74,10.01,143.67,15.69,282.62,47.18,417.84,96.41,20.32,7.4,31.39,23.15,25.18,43.77-5.83,19.35-26.82,26.78-46.47,19.4Z"/>
  <path d="M1446.79,1471.9c-182.89-68.02-373.6-104.7-568.08-107.16-65.4-.83-127.38,3.2-190.38,14.94-19.69,3.67-37.84.62-44.97-18.68-6.28-17,1.02-39.45,21.27-43.61,164.46-33.78,374.06-16.25,539.83,17.34,92.92,18.83,181.55,42.96,269.31,77.09,18.19,7.07,25.07,25.68,19.86,41.03-6.88,20.26-25.62,26.96-46.85,19.07Z"/>
  <path d="M1444.99,1129.71c-221.85-86.08-531.22-132.14-765.03-90.04-17.75,3.2-32.87-7.39-37.52-23.05-4.57-15.37,3.09-36.39,21.52-40.21,49.72-10.31,97.71-15.47,149.72-16.93,224.45-6.31,446.7,31.49,656.98,108.58,20.15,7.39,29.26,26.07,21.77,45.29-7.44,19.09-27.56,24.07-47.44,16.36Z"/>
  <path d="M2739.6,1723.22c-233.11-44.79-536.19,10.73-757.06,97.54-20.31,7.98-38.74,9.03-49.45-11.85-8.69-16.95-1.36-39,19.8-47.24,171.02-66.62,350.7-106.73,534.55-117.65l97.61-1.77c58.1-1.05,114.77,4.29,171.63,16.73,18.15,3.97,26.75,23.24,23.3,38.37-4.26,18.71-20.64,29.66-40.38,25.87Z"/>
  <path d="M2735.21,1380.21c-73.41-14.14-143.98-17.67-217.99-14.78-184.25,7.21-364.63,44.38-535.78,111-20.08,7.82-37.81,8.6-48.85-12.81-8.16-15.81-.87-37.54,20.23-45.83,205.44-80.75,425.47-122.23,647.04-118.15,55.69,1.03,107.43,5.58,160.2,18.34,18.29,4.43,24.65,27.88,18.48,42.3-7.45,17.41-23.17,23.8-43.32,19.92Z"/>
  <path d="M2739.76,1039.48c-163.02-32.33-365.95-11.72-529.09,24.48-80.58,17.88-156.89,40.96-232.69,72.19-19.23,7.92-39.4,1.53-46.49-17.71-6.97-18.9,3.67-36.42,23.81-44.23,201.21-78.07,415.51-118.26,631.66-115.82,58.36.66,113.14,5.19,169.71,17.12,18.06,3.81,26.39,23.12,23.37,38.4-3.69,18.7-20.89,29.42-40.28,25.57Z"/>
  <path d="M2743.35,701.48c-176.48-33.12-379.08-12.56-553.78,27.85-71.92,16.64-139.89,36.83-207.35,65.04-18.73,7.83-36.6,8.37-48.1-10.42-9.02-14.74-5.06-39.7,14.36-46.66l118.01-42.33c157.44-47.25,318.57-73.41,483.29-75.32,70.69-.82,137.35,3.28,205.79,16.73,17.46,3.43,27.01,21.59,24.7,37.59-2.34,16.29-18.94,30.9-36.93,27.53Z"/>
</svg>