<?xml version="1.0" encoding="UTF-8"?>
<svg id="Layer_1" xmlns="http://www.w3.org/2000/svg" version="1.1" viewBox="0 0 2995.13 2990.91">
  <!-- Generator: Adobe Illustrator 30.3.0, SVG Export Plug-In . SVG Version: 2.1.3 Build 182)  -->
  <path d="M1503.44,1665.38h-215.22c-407.33,0-734.49,391.96-734.49,653.83v139.36h1683.47v-139.36c0-261.87-327.16-653.55-734.13-653.55h.36v-.28Z"/>
  <path d="M1832.05,1145.03c0-239.41-191.39-431.16-431.16-431.16s-431.16,191.39-431.16,431.16,191.39,431.16,431.16,431.16,431.16-199.33,431.16-431.16Z"/>
  <path d="M2995.13,2341.19V649.72c0-66.85-65.46-117.38-137.92-117.38H140.82c-78.55,0-137.92,55.71-137.92,117.38v1691.48c0,66.85,65.46,117.38,137.92,117.38h2716.39c72.47,0,137.92-50.53,137.92-117.38ZM2929.67,1372.3v240.73c0,33.82-32.73,55.71-65.46,55.71-32.73,0-65.46-27.85-65.46-55.71v-240.73c0-33.82,32.73-55.71,65.46-55.71s65.46,27.85,65.46,55.71ZM2929.67,1047.62v83.96c0,33.82-32.73,55.71-65.46,55.71s-65.46-27.85-65.46-55.71v-83.96c0-33.82,32.73-55.71,65.46-55.71s65.46,22.68,65.46,55.71ZM265.65,2342.79c-39.74,0-65.46-27.85-65.46-55.71V724.12c0-33.82,32.73-55.71,65.46-55.71h2400.8c39.74,0,65.46,27.85,65.46,55.71v1562.56c0,33.82-32.73,55.71-65.46,55.71H265.65s0,.4,0,.4Z"/>
</svg>