<?xml version="1.0" encoding="UTF-8"?>
<svg id="Layer_1" xmlns="http://www.w3.org/2000/svg" version="1.1" viewBox="0 0 3000 2000">
  <!-- Generator: Adobe Illustrator 30.3.0, SVG Export Plug-In . SVG Version: 2.1.3 Build 182)  -->
  <defs>
    <style>
      .st0 {
        fill: #010101;
      }
    </style>
  </defs>
  <path class="st0" d="M77.95,354.47h311.67c33.41,108.85,134.85,188.18,254.44,188.18s221.03-79.34,254.44-188.18h2023.56c43.04,0,77.95-34.91,77.95-77.95s-34.91-77.95-77.95-77.95H898.49c-33.41-108.85-134.85-188.18-254.44-188.18s-221.03,79.34-254.44,188.18H77.95C34.91,198.58,0,233.49,0,276.52s34.91,77.95,77.95,77.95ZM644.05,166.34c60.8,0,110.24,49.44,110.24,110.24s-49.44,110.24-110.24,110.24-110.24-49.44-110.24-110.24,49.44-110.24,110.24-110.24Z"/>
  <path class="st0" d="M2922.05,1649.93h-1673.72c-33.41-108.85-134.85-188.18-254.44-188.18s-221.03,79.34-254.44,188.18H77.95c-43.04,0-77.95,34.91-77.95,77.95s34.91,77.95,77.95,77.95h661.52c33.41,108.85,134.85,188.18,254.44,188.18s221.03-79.34,254.44-188.18h1673.72c43.04,0,77.95-34.91,77.95-77.95s-34.91-77.95-77.95-77.95ZM993.9,1838.05c-60.74,0-110.18-49.44-110.24-110.18v-.11c.06-60.74,49.44-110.18,110.24-110.18s110.24,49.44,110.24,110.24-49.44,110.24-110.24,110.24Z"/>
  <path class="st0" d="M2922.05,924.25h-1361.36c-33.41-108.85-134.85-188.18-254.44-188.18s-221.03,79.34-254.44,188.18H77.95c-43.04,0-77.95,34.91-77.95,77.95s34.91,77.95,77.95,77.95h973.87c33.41,108.85,134.85,188.18,254.44,188.18s221.03-79.34,254.44-188.18h1361.36c43.04,0,77.95-34.91,77.95-77.95s-34.91-77.95-77.95-77.95ZM1306.26,1112.44c-60.74,0-110.13-49.38-110.24-110.07v-.33c.11-60.69,49.5-110.07,110.24-110.07s110.24,49.44,110.24,110.24c0,60.8-49.44,110.24-110.24,110.24Z"/>
</svg>