<?xml version="1.0" encoding="UTF-8"?>
<svg id="grid" xmlns="http://www.w3.org/2000/svg" viewBox="0 0 48.41 64">
  <path d="M27.12,34.47h-5.96C9.88,34.47.82,48.42.82,57.74v4.96h46.62v-4.96c0-9.32-9.06-23.26-20.33-23.26h.01Z"/>
  <path d="M36.22,20.06c0-6.63-5.3-11.94-11.94-11.94s-11.94,5.3-11.94,11.94,5.3,11.94,11.94,11.94,11.94-5.52,11.94-11.94Z"/>
  <path d="M45.46,0H2.95C1.27,0,0,1.4,0,2.95v58.1c0,1.68,1.4,2.95,2.95,2.95h42.51c1.68,0,2.95-1.4,2.95-2.95V2.95c0-1.55-1.27-2.95-2.95-2.95ZM21.11,1.4h6.05c.85,0,1.4.7,1.4,1.4s-.7,1.4-1.4,1.4h-6.05c-.85,0-1.4-.7-1.4-1.4s.7-1.4,1.4-1.4ZM12.95,1.4h2.11c.85,0,1.4.7,1.4,1.4s-.7,1.4-1.4,1.4h-2.11c-.85,0-1.4-.7-1.4-1.4s.57-1.4,1.4-1.4ZM45.5,58.38c0,.85-.7,1.4-1.4,1.4H4.82c-.85,0-1.4-.7-1.4-1.4V7.03c0-.85.7-1.4,1.4-1.4h39.27c.85,0,1.4.7,1.4,1.4v51.35Z"/>
</svg>