<?xml version="1.0" encoding="UTF-8"?>
<svg id="grid" xmlns="http://www.w3.org/2000/svg" viewBox="0 0 39.38 64">
  <path d="M22.06,33.84h-4.85C8.04,33.84.67,47.56.67,56.72v4.88h37.92v-4.88c0-9.17-7.37-22.88-16.54-22.88Z"/>
  <path d="M29.43,20.54c0-5.39-4.31-9.71-9.71-9.71s-9.71,4.31-9.71,9.71,4.31,9.71,9.71,9.71,9.71-4.49,9.71-9.71Z"/>
  <path d="M36.98,0H2.4C1.03,0,0,1.14,0,2.4v59.19c0,1.37,1.14,2.4,2.4,2.4h34.58c1.37,0,2.4-1.14,2.4-2.4V2.4c0-1.26-1.03-2.4-2.4-2.4ZM17.17,1.14h4.92c.69,0,1.14.57,1.14,1.14s-.57,1.14-1.14,1.14h-4.92c-.69,0-1.14-.57-1.14-1.14s.57-1.14,1.14-1.14ZM10.53,1.14h1.72c.69,0,1.14.57,1.14,1.14s-.57,1.14-1.14,1.14h-1.72c-.69,0-1.14-.57-1.14-1.14s.46-1.14,1.14-1.14ZM37.9,22.21v37.21c0,.69-.57,1.14-1.14,1.14H2.75c-.69,0-1.14-.57-1.14-1.14V5.72c0-.69.57-1.14,1.14-1.14h34c.69,0,1.14.57,1.14,1.14v16.49Z"/>
</svg>