<?xml version="1.0" encoding="UTF-8"?>
<svg id="Layer_1" data-name="Layer 1" xmlns="http://www.w3.org/2000/svg" viewBox="0 0 2954.01 2954.01">
  <path d="M2954.01,1477c0,815.73-661.28,1477-1477,1477S0,2292.73,0,1477,661.28,0,1477,0s1477,661.28,1477,1477ZM2833.82,1477.34c0-749.18-607.33-1356.51-1356.51-1356.51S120.8,728.16,120.8,1477.34s607.33,1356.51,1356.51,1356.51,1356.51-607.33,1356.51-1356.51Z"/>
  <path d="M2010.11,839.06c78.25-24.7,141.86,35.46,161.31,101.26,30,101.47,14.81,207.35-36.2,301.86l-265.42,491.81-280.97,492.86c-22.76,39.92-101,61.78-138.58,53.18-49.45-11.32-89.66-56.48-105.99-113.66l-323.2-1131.96c-9.85-34.51-53.89-63.81-89.01-49.68-111.48,44.86-132.3,130.32-185.94,123.83-17.21-2.08-46.85-25.02-52.89-41.28-7.06-18.98,10.87-64.33,29.63-78.05l173.7-127c33.71-24.65,104.51-27.99,147.4-11.22,35.31,13.82,73.64,65.19,95.32,109.61l106.08,371.61,236.32,814.45,388.92-662.05,136.06-282.2c24.47-79.99,48.89-144.59,26.71-231.69l-126.61,30.51c-22.92,5.52-68.66-4.05-80.12-22.01-13.37-20.94,2.5-83.07,27.43-90.94l156.06-49.25Z"/>
</svg>