<?xml version="1.0" encoding="UTF-8"?>
<svg id="Layer_1" xmlns="http://www.w3.org/2000/svg" version="1.1" viewBox="0 0 2000 2000">
  <!-- Generator: Adobe Illustrator 30.1.0, SVG Export Plug-In . SVG Version: 2.1.1 Build 136)  -->
  <defs>
    <style>
      .st0 {
        fill: none;
        stroke: #000;
        stroke-linecap: round;
        stroke-linejoin: round;
        stroke-width: 70px;
      }
    </style>
  </defs>
  <polygon class="st0" points="1474.28 799.02 986.3 916.15 986.3 290.78 1474.28 200 1474.28 799.02"/>
  <path class="st0" d="M1352.68,580.23c-11.59,119.18-75.78,210.46-143.37,203.88-67.59-6.57-112.99-108.52-101.4-227.69,11.59-119.18,75.78-210.46,143.37-203.89,67.59,6.57,112.99,108.52,101.4,227.69Z"/>
  <path class="st0" d="M983.87,784.45h-266.03c-106.1,0-192.12-95.02-192.12-212.23h0c0-117.21,86.01-212.23,192.12-212.23h266.03"/>
  <line class="st0" x1="833.12" y1="784.45" x2="833.12" y2="1703.39"/>
  <line class="st0" x1="833.12" y1="1243.92" x2="525.72" y2="1800"/>
  <line class="st0" x1="833.12" y1="1243.92" x2="1140.53" y2="1800"/>
</svg>