<?xml version="1.0" encoding="UTF-8"?>
<svg id="Layer_1" xmlns="http://www.w3.org/2000/svg" version="1.1" viewBox="0 0 2992.58 2988.7">
  <!-- Generator: Adobe Illustrator 30.3.0, SVG Export Plug-In . SVG Version: 2.1.3 Build 182)  -->
  <defs>
    <style>
      .st0 {
        stroke: #000;
        stroke-miterlimit: 10;
        stroke-width: 30px;
      }
    </style>
  </defs>
  <path class="st0" d="M2452.09,2913.23c-.22,34.68-30.09,56.69-62.57,56.69l-1927.28-.24c-32.77,0-56.29-33.33-56.24-62.27l.18-114.31c.06-35.06,26.96-63.16,62.21-63.37l77.36-.46,94.46-365.05-462.38-.53c-88.6-.19-156.52-73.98-159.72-161.87l-.15-2015.23C17.96,95.29,87.94,17.07,181.66,17.1l2643.43.61c86.46.03,149.53,81.07,149.52,162.53l-.19,2027.4c-5.19,84.02-69.53,155.24-155.1,155.6l-601.16,1.11,94.27,365.07,87.4,1.08c30.14.38,53.18,31.55,53.01,60.37l-.77,122.36h0ZM2814.34,2312.38c61.85-2.89,108.52-52.56,108.52-113.67l.11-2029.32c-8.26-56.93-49.29-98.56-107.12-100.24l-2631.16.05c-70.94.29-120.32,59.48-114.65,129.73l-.5,1984.66c-.02,62.8,36.44,128.24,106.1,128.26l2638.7.54h0ZM2260.94,2729.55l-94.19-365.35H691.94l-95.18,365.39,1664.18-.03h0ZM2402.34,2780.64H456.68v138.43h1945.66v-138.43Z"/>
  <path class="st0" d="M2731.89,2193.56l-2467.71.04c-25.27,0-44.58-5.99-60.49-21.69-18.15-17.91-20.38-38.53-20.38-64.86l.41-1856.45c0-33.66,34.33-64.71,67.93-64.72l2478.83-.31c36.75,0,78.63,24.89,78.64,65.73l.08,1873.94c0,40.8-37.36,68.31-77.34,68.32h0ZM2762.89,234.12l-2533.27.03.03,1910.94,2533.27-.03-.03-1910.94h0Z"/>
  <path class="st0" d="M1522.09,2668.15l-183.85.3c-17.85.03-35.3-16.08-35.36-33.78l-.6-172.88c-.08-22.12,15.37-40.5,38.96-40.47l179.65.26c20.29.03,35.05,18.29,35.05,36.9v171.33c0,17.9-12.14,38.29-33.86,38.33h0ZM1510.03,2468.86l-162.48.03.03,151.94,162.48-.03-.03-151.94Z"/>
  <path class="st0" d="M951.93,836.75l-263.62.28c-12.05,0-23.67-11.11-25.42-22.32l-43.44-277.74c-14.88-19.59-18.78-45.24-10.21-68.79,9.65-27.05,29.47-38.16,54.3-46.94,5.99-41.87,42.15-63.49,81.96-62.61,17.22-25.08,43.37-44.63,75.5-44.61,32.61.02,59.48,18.66,76.63,45.98,42.19-6.82,79.18,19.81,86.7,60.8,20.27,7.92,39.68,21.43,47.34,37.98,10.68,23.06,12.06,47.44-.18,67.41l-9.8,12.06-45.1,268.76c-1.91,11.37-7.66,29.71-24.67,29.73h0ZM997,501.81c3.69-24.72-9.76-37.88-27.94-41.32-10.01,8.46-21.13,8.34-28.33-1.07-6.24-8.16-5.02-17.45-.18-28.51,4.16-9.49-6.51-21.68-14.83-26.37-28.49-16.05-35.19,22.58-55.81,10.36-9.21-5.79-12.02-16.15-6.75-27.84-5.75-17.96-24.18-28.9-42.28-29.01-16.37-.1-37.12,11.04-39.73,29.75-1.42,10.26-3.84,20.63-12.75,24.16-16.86,6.68-28.08-24.22-52.38-4.25-24.3,19.97-.2,51.22-36.86,52.94-21.38,1-36.79,19.39-31.54,41.41l349.36-.25h0ZM751.68,792.52l-13.45-246.39-72.99,1.04,37.19,245.84,49.24-.49h0ZM840.47,793.01l19.24-246.76-77.84.52,12.57,246.48,46.03-.24h0ZM934.5,793.47l41.94-247.23-73.64.54-18.69,246.21,50.39.47Z"/>
  <path class="st0" d="M884.39,1478.72l-180.46.23c-17.2.02-25.78-11.44-27.56-27.48l-32.24-290.51c-9.29-4-20.61-13.21-20.72-22.58l-.7-65.2c-.17-15.89,10.82-34.97,29.57-35.04l145.63-.59,17.63-77.56c2.27-10.01,8.04-17.91,17.69-21.99l72.21-22.45c11.5-3.58,22.27,5.03,25.47,14.68,3.2,9.65-1.5,21.98-12.68,25.57l-62.48,20.07-13.87,61.91,87.59-.53c21.56-.13,39.11,13.5,39.03,36.76l-.24,60.38c-.05,12.65-10.92,22.28-22.82,26.08l-34.36,285.24c-1.84,15.23-6.51,32.98-26.7,33.01h0ZM665.42,1081.18v37.86l260.39.1v-37.86l-260.39-.1ZM868.06,1433.79l32.68-271.18-212.19.36,29.34,271.08,150.18-.27h0Z"/>
  <path class="st0" d="M941.54,1698.02c.77,30.08,30.81,49.37,57.78,40.65,8.7-2.82,18.21-4.39,25.47.61,6.88,4.74,7.49,14.67,9.25,23.7,15.22,77.9-1.11,155.59-53.68,216.09-48.11,55.36-119.8,90.2-197.64,85.12-134.68-8.8-237.82-126.22-228.33-261.55,4.09-58.34,28.38-111.99,67.48-154.29,64.74-70.03,162.12-94.7,252.1-64.96,6.11,2.02,12.89,8.13,14.49,12.66,1.76,4.97.07,15.14-1.91,20.5-10.33,27.94,9,56,37.7,60.26,10.01,1.48,16.97,9.33,17.28,21.22h0ZM902.59,1712.32c-40.99-14.23-62.79-50.47-60.73-92.54-103.91-22.56-204.37,38.84-235.17,138.33-25.13,81.15.96,168.73,67.03,219.62,66.47,51.21,157.3,57.01,228.97,11.73,68.83-43.5,106.68-124.45,90.04-207.88-43.01,1.22-81.01-25.57-90.13-69.26Z"/>
  <path class="st0" d="M1840.85,1837.59l-606.11-.02c-16.26,0-26.34-10.15-26.84-23.94-.52-14.43,9.96-25.93,26.87-25.93l606.11.02c17.38,0,27.97,8.11,28.68,22.91.82,17.15-9.71,26.97-28.71,26.97h0Z"/>
  <path class="st0" d="M1851.1,1241.93l-622.32-.09c-14.56,0-21.52-15.45-20.86-25.46.77-11.68,9.4-23.71,23.89-23.7l617.74.13c12.78,0,19.98,14.69,20.05,22.82.1,10.79-3.86,20.99-18.52,26.3h0Z"/>
  <path class="st0" d="M1839.22,647.77l-601.29.02c-16.72,0-27.23-6.28-29.42-21.13-1.86-12.59,6.35-28.64,23.32-28.64h615c15.97,0,23.4,14.35,22.71,25.63-.95,15.7-10.95,24.12-30.32,24.12h0Z"/>
  <path class="st0" d="M2014.54,1817.38c-10.16-11.74-14.09-25.93-2.62-37.38,8.15-8.12,24.67-9.92,34.15,1.19l48.17,56.52,134.54-165.83c8.51-10.48,22.91-10.95,32.43-3.78,9.68,7.29,13.1,22.67,3.8,34.01l-153.67,187.4c-9,10.97-27.05,8.51-35.19-.91l-61.61-71.22h0Z"/>
  <path class="st0" d="M2013.38,625.74c-9.68-11.21-12.19-24.81-1.37-35.63,6.8-6.8,23.88-10.7,32.73-.34l49.62,58.03,135.96-167.12c9.34-11.47,26.48-7.56,33.74.54,10.25,11.42,7.72,23.02-1.76,34.57l-150.88,183.88c-8.04,9.8-25.88,9.69-33.74.57l-64.3-74.5h0Z"/>
  <path class="st0" d="M2009.33,1215.63c-9.12-10.54-4.03-26.79,5.62-33.35,8.25-5.6,22.76-5.65,31.13,4.08l48.29,56.11,132.98-163.7c9.28-11.42,23.43-13.74,33.64-5.48,11.33,9.16,12.87,23.33,2.69,35.69l-152.66,185.27c-7.79,9.46-25.43,9.61-33.22.6l-68.5-79.22h.01Z"/>
  <circle class="st0" cx="747.69" cy="1713.68" r="25.87"/>
  <circle class="st0" cx="770.23" cy="1926.16" r="25.88"/>
  <circle class="st0" cx="902.15" cy="1872.77" r="25.96"/>
  <circle class="st0" cx="809.92" cy="1811.25" r="25.8"/>
  <circle class="st0" cx="682.66" cy="1826.73" r="25.73"/>
</svg>