<?xml version="1.0" encoding="UTF-8"?>
<svg id="Layer_1" xmlns="http://www.w3.org/2000/svg" version="1.1" viewBox="0 0 2992.58 2988.7">
  <!-- Generator: Adobe Illustrator 30.3.0, SVG Export Plug-In . SVG Version: 2.1.3 Build 182)  -->
  <defs>
    <style>
      .st0 {
        stroke: #000;
        stroke-miterlimit: 10;
        stroke-width: 5px;
      }
    </style>
  </defs>
  <path class="st0" d="M2789.34,2531.71V801.52c98.61-12.7,168.22-103.59,155.65-203.26-.48-3.9-.97-8.31-1.93-12.22-9.18-46.91-36.73-87.95-76.37-114.34C2460.64,198.57,1984.04,51.49,1496.32,49.06c-487.73,1.96-964.34,149.03-1370.36,422.66-39.63,26.87-67.18,68.41-76.37,115.81-9.18,47.4.48,96.26,27.07,136.32,29.01,43.49,74.92,72.31,126.64,78.18v1729.7c-111.66,28.34-179.33,142.68-151.3,255.55,23.2,93.82,107.32,159.78,203.02,159.28h2482.61c115.04.48,208.81-93.32,209.3-209.61,0-96.75-64.77-181.77-157.58-205.22h0ZM156.89,667.16c-25.62-38.61-15.46-90.88,22.72-116.78h0c390.56-261.41,848.32-401.65,1316.71-403.6,468.87,1.46,926.62,142.18,1316.71,404.57,37.7,25.89,47.86,77.2,22.72,115.81-26.59,37.63-77.34,47.4-115.52,22.97-72.51-48.86-147.43-93.32-224.77-132.91h-2.42c-309.37-157.82-650.62-240.4-996.71-242.35h0c-346.58,1.46-687.84,85.02-996.71,244.31h0c-77.82,39.57-153.23,84.04-225.74,132.91-38.19,25.89-90.4,15.64-116-23.45,0-.48-.48-.98-.97-1.46h0l-.02-.02ZM2692.66,785.9v1738.01h-169.18V684.25c48.34,26.87,96.68,55.7,145.01,87.95,7.74,5.37,15.95,10.26,24.17,14.66v-.98h0ZM1805.67,437.02c39.63,163.19,234.92,897.59,592.61,1113.55-74.92,103.1-225.25,377.22-281.32,973.32H875.66c-56.08-596.11-206.4-870.23-281.81-973.32,358.18-215.97,553.45-952.8,592.61-1114.54M778.98,2523.89h-213.17v-834.56c70.56,129.97,168.7,383.57,213.17,834.56ZM565.82,1453.33v-820.39c163.86-81.11,337.39-140.73,516.24-177.85-54.14,206.2-231.53,804.27-516.24,998.24h0ZM2424.87,1688.85v835.04h-211.23c44.47-450.99,142.59-705.08,213.17-835.04h-1.94ZM1910.56,455.58c178.85,36.16,352.38,95.77,516.24,176.89v820.87c-284.7-193.49-462.1-791.56-516.24-997.76h0ZM469.13,684.25v1839.64h-169.18V786.38c9.18-3.9,17.89-8.8,26.1-14.17,39.16-26.87,87.49-56.19,143.07-87.95h0ZM2737.61,2848.83H255c-61.88,0-112.14-50.82-112.14-113.36s50.27-113.36,112.14-113.36h2484.06c61.88,0,112.14,50.82,112.14,113.36s-50.27,113.36-112.14,113.36h-1.45Z"/>
</svg>