<?xml version="1.0" encoding="UTF-8"?>
<svg id="Layer_1" xmlns="http://www.w3.org/2000/svg" version="1.1" viewBox="0 0 2992.58 2988.7">
  <!-- Generator: Adobe Illustrator 30.3.0, SVG Export Plug-In . SVG Version: 2.1.3 Build 182)  -->
  <path d="M2463.7,2931.32c-.22,35.1-30.46,57.38-63.33,57.38l-1950.7-.24c-33.17,0-56.97-33.73-56.92-63.03l.18-115.7c.06-35.49,27.29-63.93,62.97-64.14l78.3-.47,95.61-369.49-468-.54c-89.68-.19-158.42-74.88-161.66-163.84L0,171.54C0,79.14,70.83-.03,165.69,0l2675.55.62c87.51.03,151.35,82.06,151.34,164.5l-.19,2052.03c-5.25,85.04-70.37,157.13-156.98,157.49l-608.46,1.12,95.42,369.51,88.46,1.09c30.51.38,53.83,31.93,53.65,61.1l-.78,123.85ZM2830.35,2323.17c62.6-2.93,109.84-53.2,109.84-115.05l.11-2053.98c-8.36-57.62-49.89-99.76-108.42-101.46l-2663.13.05c-71.8.29-121.78,60.2-116.04,131.31l-.51,2008.77c-.02,63.56,36.88,129.8,107.39,129.82l2670.76.55ZM2270.23,2745.41l-95.33-369.79H682.17s-96.34,369.83-96.34,369.83l1684.4-.03ZM2413.35,2797.12H444.05v140.11h1969.3v-140.11Z"/>
  <path d="M2746.9,2202.91l-2497.69.04c-25.58,0-45.12-6.06-61.22-21.95-18.37-18.13-20.63-39-20.63-65.65l.42-1879c0-34.07,34.75-65.5,68.76-65.51l2508.95-.31c37.2,0,79.59,25.19,79.6,66.53l.08,1896.71c0,41.3-37.81,69.14-78.28,69.15ZM2778.28,219.66l-2564.05.03.03,1934.16,2564.05-.03-.03-1934.16Z"/>
  <path d="M1522.4,2683.26l-186.08.3c-18.07.03-35.73-16.28-35.79-34.19l-.61-174.98c-.08-22.39,15.56-40.99,39.43-40.96l181.83.26c20.54.03,35.48,18.51,35.48,37.35v173.41c0,18.12-12.29,38.76-34.27,38.8ZM1510.2,2481.55l-164.45.03.03,153.79,164.45-.03-.03-153.79Z"/>
  <path d="M945.32,829.61l-266.82.28c-12.2.01-23.96-11.25-25.73-22.59l-43.97-281.11c-15.06-19.83-19.01-45.79-10.33-69.63,9.77-27.38,29.83-38.62,54.96-47.51,6.06-42.38,42.66-64.26,82.96-63.37,17.43-25.38,43.9-45.17,76.42-45.15,33.01.02,60.2,18.89,77.56,46.54,42.7-6.9,80.14,20.05,87.75,61.54,20.52,8.02,40.16,21.69,47.92,38.44,10.81,23.34,12.21,48.02-.18,68.23l-9.92,12.21-45.65,272.03c-1.93,11.51-7.75,30.07-24.97,30.09ZM990.93,490.6c3.73-25.02-9.88-38.34-28.28-41.82-10.13,8.56-21.39,8.44-28.67-1.08-6.32-8.26-5.08-17.66-.18-28.86,4.21-9.61-6.59-21.94-15.01-26.69-28.84-16.24-35.62,22.85-56.49,10.49-9.32-5.86-12.17-16.35-6.83-28.18-5.82-18.18-24.47-29.25-42.79-29.36-16.57-.1-37.57,11.17-40.21,30.11-1.44,10.38-3.89,20.88-12.9,24.45-17.06,6.76-28.42-24.51-53.02-4.3s-.2,51.84-37.31,53.58c-21.64,1.01-37.24,19.63-31.92,41.91l353.6-.25ZM742.63,784.85l-13.61-249.38-73.88,1.05,37.64,248.83,49.84-.5ZM832.5,785.34l19.47-249.76-78.79.53,12.72,249.47,46.59-.24ZM927.67,785.81l42.45-250.23-74.53.55-18.92,249.2,51,.48Z"/>
  <path d="M876.96,1479.38l-182.65.23c-17.41.02-26.09-11.58-27.89-27.81l-32.63-294.04c-9.4-4.05-20.86-13.37-20.97-22.85l-.71-65.99c-.17-16.08,10.95-35.39,29.93-35.47l147.4-.6,17.84-78.5c2.3-10.13,8.14-18.13,17.9-22.26l73.09-22.72c11.64-3.62,22.54,5.09,25.78,14.86s-1.52,22.25-12.83,25.88l-63.24,20.31-14.04,62.66,88.65-.54c21.82-.13,39.59,13.66,39.5,37.21l-.24,61.11c-.05,12.8-11.05,22.55-23.1,26.4l-34.78,288.71c-1.86,15.41-6.59,33.38-27.02,33.41ZM655.33,1077.01v38.32s263.55.1,263.55.1v-38.32s-263.55-.1-263.55-.1ZM860.43,1433.91l33.08-274.47-214.77.36,29.7,274.37,152-.27Z"/>
  <path d="M934.8,1701.35c.78,30.45,31.18,49.97,58.48,41.14,8.81-2.85,18.43-4.44,25.78.62,6.96,4.8,7.58,14.85,9.36,23.99,15.4,78.85-1.12,157.48-54.33,218.72-48.69,56.03-121.26,91.3-200.04,86.15-136.32-8.91-240.71-127.75-231.1-264.73,4.14-59.05,28.72-113.35,68.3-156.16,65.53-70.88,164.09-95.85,255.16-65.75,6.18,2.04,13.05,8.23,14.67,12.81,1.78,5.03.07,15.32-1.93,20.75-10.46,28.28,9.11,56.68,38.16,60.99,10.13,1.5,17.18,9.44,17.49,21.48ZM895.38,1715.82c-41.49-14.4-63.55-51.08-61.47-93.66-105.17-22.83-206.85,39.31-238.03,140.01-25.44,82.14.97,170.78,67.84,222.29,67.28,51.83,159.21,57.7,231.75,11.87,69.67-44.03,107.98-125.96,91.13-210.41-43.53,1.23-81.99-25.88-91.22-70.1Z"/>
  <path d="M1845.04,1842.61l-613.47-.02c-16.46,0-26.66-10.27-27.17-24.23-.53-14.61,10.08-26.25,27.2-26.25l613.47.02c17.59,0,28.31,8.21,29.03,23.19.83,17.36-9.83,27.3-29.06,27.3Z"/>
  <path d="M1855.41,1239.72l-629.88-.09c-14.74,0-21.78-15.64-21.11-25.77.78-11.82,9.51-24,24.18-23.99l625.25.13c12.94,0,20.22,14.87,20.29,23.1.1,10.92-3.91,21.24-18.74,26.62Z"/>
  <path d="M1843.39,638.34l-608.6.02c-16.92,0-27.56-6.36-29.78-21.39-1.88-12.74,6.43-28.99,23.6-28.99h622.47c16.16,0,23.68,14.52,22.99,25.94-.96,15.89-11.08,24.41-30.69,24.41Z"/>
  <path d="M2020.84,1822.16c-10.28-11.88-14.26-26.24-2.65-37.83,8.25-8.22,24.97-10.04,34.56,1.2l48.76,57.21,136.17-167.84c8.61-10.61,23.19-11.08,32.82-3.83,9.8,7.38,13.26,22.95,3.85,34.42l-155.54,189.68c-9.11,11.1-27.38,8.61-35.62-.92l-62.36-72.09Z"/>
  <path d="M2019.66,616.04c-9.8-11.35-12.34-25.11-1.39-36.06,6.88-6.88,24.17-10.83,33.13-.34l50.22,58.74,137.61-169.15c9.45-11.61,26.8-7.65,34.15.55,10.37,11.56,7.81,23.3-1.78,34.99l-152.71,186.11c-8.14,9.92-26.19,9.81-34.15.58l-65.08-75.41Z"/>
  <path d="M2015.56,1213.1c-9.23-10.67-4.08-27.12,5.69-33.76,8.35-5.67,23.04-5.72,31.51,4.13l48.88,56.79,134.6-165.69c9.39-11.56,23.71-13.91,34.05-5.55,11.47,9.27,13.03,23.61,2.72,36.12l-154.51,187.52c-7.88,9.57-25.74,9.73-33.62.61l-69.33-80.18Z"/>
  <circle cx="738.6" cy="1717.2" r="26.18"/>
  <circle cx="761.41" cy="1932.26" r="26.19"/>
  <circle cx="894.93" cy="1878.22" r="26.28"/>
  <circle cx="801.58" cy="1815.95" r="26.11"/>
  <circle cx="672.77" cy="1831.62" r="26.04"/>
</svg>