<?xml version="1.0" encoding="UTF-8"?>
<svg id="Layer_1" data-name="Layer 1" xmlns="http://www.w3.org/2000/svg" viewBox="0 0 2992.58 2988.7">
  <defs>
    <style>
      .cls-1 {
        fill: #fff;
      }
    </style>
  </defs>
  <path d="M2800.25,2975.65c-33.38,10.85-59.08,13.06-91.55,13.05l-2439.96-.37c-101.86-.02-194.25-64.2-237.93-153.25C11.65,2796.02-.02,2756.55,0,2712.47L.99,272.55C1.05,128.07,124.49,1.09,267.86,1.03L2734.63,0c137.92,11.42,257.63,128.3,257.64,272.05l.31,2447.02c.01,118.04-85.49,221.84-192.33,256.58ZM2903.31,2704.91l.02-2413.78c0-111.8-80.8-198.38-188.05-198.34l-2450.73.86c-90.27.03-174.01,86.79-174.04,177.95l-.76,2438.14c-.03,93.86,78.36,185.53,174.29,185.53l2463.89.07c99.32,0,175.38-92.86,175.38-190.43Z"/>
  <path d="M1398.39,2562.56c-.06,26.62-27.95,41.36-48.26,39.98-24.32-1.65-43.56-21.86-43.52-48l.35-215.39-81.5-.7c-32.27-.28-56.02-28.34-56.92-60.28l-.03-364.8c0-40.64,31.66-63.63,69.43-63.62l68.84.03.34-692.04c.01-25.42,22.81-41.47,42.9-42.8,20.89-1.38,48.38,13.41,48.4,39.72l.37,695.41,63.15-.33c36.28-.19,66.74,24.91,66.73,63.56l-.05,361.72c.64,33.25-23.9,62.84-57.54,63.28l-72.19.96-.49,223.31ZM1450.42,1928.8l-204.17.12.07,127.56,204.17-.12-.07-127.56ZM1450.37,2131.86h-204.06v128.16h204.06v-128.16Z"/>
  <path d="M952.81,2549.1c0,30.31-14.18,50.7-41.65,53.41-22.51,2.22-50.22-14.37-50.23-42.75l-.26-692.04-76.38-.61c-31.92-.26-58.8-25.84-58.82-59.49l-.17-364.02c-.02-36.52,30.94-60.62,64.94-60.3l70.47.66.04-223.3c0-26.51,20.75-45.19,44.98-45.9,23.27-.68,46.97,17.31,46.99,43.71l.16,225.67,61.79-.82c33.08-.44,65.09,23.69,65.09,60.43l.06,363.78c0,33.93-28.38,59.28-59.62,59.51l-67.57.48.18,681.59ZM1001.54,1462.39l-199.32.68.42,125.98,199.32-.68-.42-125.98ZM1001.46,1663.04l-198.96.18.11,126.12,198.96-.18-.11-126.12Z"/>
  <path d="M1831.56,2559.07c-.01,27.4-22.5,41.96-43.85,43.3-19.75,1.25-47.28-13.78-47.3-39.34l-.42-492.38-76.54-.46c-32.15-.19-61.67-25.21-61.69-59.67l-.23-372.18c4.95-29.57,25.86-53.98,56.34-54.31l82.08-.9.14-425.39c0-27.44,25.49-44.37,47.67-42.99,26.83,1.66,43.97,20.98,43.97,49.13l-.03,419.29,67.86.67c32.6.32,58.5,27.41,58.49,60.79l-.11,364.6c-.01,33.09-26.43,59.35-57.74,59.97l-68.39,1.36-.23,488.49ZM1879.85,1662.38l-200.55.03.02,126.52,200.55-.03-.02-126.52ZM1879.86,1863.49l-200.19.04.03,127.89,200.19-.04-.03-127.89Z"/>
  <path d="M514.45,2559.12c-.01,28.34-24.51,43.24-46.87,43.35-20.58.1-45.41-16.05-45.42-41.93l-.22-488.98-81.75-.99c-33.18-.4-58-29.33-56.99-62.31l-.32-358.64c-.03-36.48,23.11-65.22,60.84-65.47l78.25-.52.14-426.15c0-25.99,24.56-42.84,45.48-42.71,22.79.14,46.81,15.83,46.83,42.67l.22,426.37,66.95.69c28.87.3,57.55,24.22,57.58,55.4l.35,368.32c.03,33.41-23.65,61.84-57.52,62.2l-67.31.72-.23,487.99ZM561.89,1663.15l-201.93.1.06,126.01,201.93-.1-.06-126.01ZM561.86,1863.85l-201.95.11.07,128.44,201.95-.11-.07-128.44Z"/>
  <path d="M2263.02,2558.93c0,29.67-26.13,44.95-49.22,43.4-24.4-1.64-42.43-21.06-42.43-48.26v-686.34s-76.15-.79-76.15-.79c-26.42-.28-54.85-25.05-54.96-53.68l-1.41-357.3c-.16-41.17,22.97-73.13,66.25-73.02l66.23.16v-219.54c-.01-25.63,16.2-44.83,39.63-48.35,22.25-3.34,51.39,11.9,51.48,38.84l.8,230.09,73.99-.28c30.67-.11,57.01,26.91,56.98,59.51l-.3,367.28c-.03,33.08-29.85,56.25-59.04,56.56l-71.73.77-.11,690.95ZM2116.66,1462.36l-.05,126.38,199.92.08.05-126.38-199.92-.08ZM2316.52,1663.11l-199.91.1.06,126.16,199.91-.1-.06-126.16Z"/>
  <path d="M2593.19,2555.41c0,31.08-24.33,48.38-48.69,47-27.88-1.58-42.95-23.11-42.95-51.75l.18-1392.71c0-27.4,23.37-43.32,45.61-43.21,22.1.11,45.8,16.28,45.8,43.14l.05,1397.53Z"/>
  <path d="M1073.94,491.74c0,90.81-73.04,164.42-163.15,164.42s-163.15-73.61-163.15-164.42,73.04-164.42,163.15-164.42,163.15,73.61,163.15,164.42ZM1004.3,492.21c0-52-41.83-94.15-93.42-94.15s-93.42,42.15-93.42,94.15,41.83,94.15,93.42,94.15,93.42-42.15,93.42-94.15Z"/>
  <path d="M1514.2,491.63c0,89.95-72.35,162.86-161.6,162.86s-161.6-72.92-161.6-162.86,72.35-162.86,161.6-162.86,161.6,72.92,161.6,162.86ZM1445.23,492.02c0-51.26-41.24-92.82-92.1-92.82s-92.1,41.56-92.1,92.82,41.24,92.82,92.1,92.82,92.1-41.56,92.1-92.82Z"/>
  <path d="M1950.57,491.55c0,89.9-72.31,162.78-161.52,162.78s-161.52-72.88-161.52-162.78,72.31-162.78,161.52-162.78,161.52,72.88,161.52,162.78ZM1881.18,491.87c0-51.29-41.26-92.86-92.15-92.86s-92.15,41.58-92.15,92.86,41.26,92.86,92.15,92.86,92.15-41.58,92.15-92.86Z"/>
  <path d="M627.41,490.52c0,89.69-72.15,162.4-161.15,162.4s-161.15-72.71-161.15-162.4,72.15-162.4,161.15-162.4,161.15,72.71,161.15,162.4ZM558.76,490.95c0-51.25-41.22-92.79-92.07-92.79s-92.07,41.54-92.07,92.79,41.22,92.79,92.07,92.79,92.07-41.54,92.07-92.79Z"/>
  <ellipse cx="2243.66" cy="492.91" rx="78.74" ry="79.35"/>
  <ellipse cx="2571.44" cy="493.05" rx="78.52" ry="79.13"/>
  <path d="M499.2,923.36l-68.03-.38c-19.86-.11-32.19-20.36-32.35-37.38s12.93-37.08,32.46-37.29l66.13-.74c21.48-.24,36.81,15.74,38.5,35.03,1.77,20.08-12.28,40.89-36.71,40.76Z"/>
  <path d="M940.5,923.4l-65.22.11c-20.94.04-35.01-19.57-34.73-37.75.29-18.6,13.55-37.73,34.93-37.85l63.97-.38c20.59-.12,36.21,16.72,37.57,35.19,1.45,19.66-12.98,40.65-36.52,40.69Z"/>
  <path d="M1370.5,923.69l-56.95-.14c-22.72-.06-39.3-16.72-39.25-37.95.05-20.97,16.63-38.22,39.18-38.14l61.51.23c20.75.08,35.52,20.1,35.47,38.01-.06,22.1-17.66,38.04-39.96,37.99Z"/>
  <path d="M2249.7,923.47l-66.35-.85c-22.12-.28-33.66-24.73-30.89-42.47,3.49-22.33,20.16-32.91,42.39-32.84l53.9.17c21.55.07,37.14,15.77,38.51,35.52,1.47,21.17-14.93,40.76-37.56,40.46Z"/>
  <path d="M2598.14,923.48l-65-.71c-19.69-.21-31.88-20.46-31.66-37.11.22-16.69,12.14-37.32,31.58-37.33l70.5-.02c19.72,0,32.8,21.56,32.67,37.35-.17,20.34-15.3,38.06-38.09,37.81Z"/>
  <path d="M1810.2,922.99l-68.1.14c-20.77.04-34.12-19.81-33.95-37.37.19-19.82,15.47-38.15,37.02-38.09l63.36.17c20.08.06,34.9,17.21,36.27,35.38,1.34,17.77-11.96,39.73-34.61,39.77Z"/>
  <path d="M353.57,2353.46l-69.3-.33c-15.09-.07-23.29-16.58-23.28-28.84,0-11.23,7.97-28.77,22.74-28.95l68.8-.82c16.65-.2,28.52,12.33,29.72,26.67,1.3,15.51-9.3,32.37-28.67,32.28Z"/>
  <path d="M354.27,1438.97l-67.44-.29c-16.05-.07-26.27-15.75-26.24-29.03.03-13.92,10-29.29,26.19-29.45l62.56-.63c17.69-.18,30.83,10.36,32.53,27.14,1.43,14.16-9.21,32.33-27.6,32.26Z"/>
  <path d="M1239.59,1706.62l-64.54-.29c-16.32-.07-26.47-16.05-26.23-29.71.27-15.51,11.96-29.05,29.63-29.02l62.03.09c17.28.03,28.38,14.01,28.73,28.94s-10.62,30.07-29.62,29.99Z"/>
  <path d="M1242.37,1438.64l-69.41-.36c-16.2-.08-24.7-18.47-23.45-31.51,1.32-13.84,12.46-27.01,28.86-26.92l65.43.33c15.99.08,25.8,15.78,25.52,29.31-.26,12.87-9.72,29.24-26.94,29.16Z"/>
  <path d="M2729.18,1961.93l-75.17.28c-16.76.06-24.5-20.87-22.07-33.2,3.31-16.77,16.06-25.53,33.52-25.2l62.1,1.16c13.79.26,22.61,14.57,23.79,25.74,1.21,11.48-6.21,31.16-22.17,31.22Z"/>
  <path d="M2719.2,1706.73l-56.93-.12c-17.05-.04-29.48-10.81-30.86-27.41-1.23-14.71,11.12-31.66,28.36-31.55l67.65.43c16.22.1,25.04,18.72,24.05,31.28-1.36,17.12-14.7,27.4-32.26,27.37Z"/>
  <path d="M2728.7,1437.84l-72.01.67c-16.75.16-26.02-18.03-24.89-31.25,1.37-16.14,13.48-27.44,30.56-27.43l59.78.05c15.24.01,25.97,11.04,28.8,24.13,2.66,12.33-5.23,33.68-22.24,33.84Z"/>
  <path d="M2723.93,2284.89l-67.83-.23c-15.86-.05-25.14-17.82-24.46-29.91.91-16.24,13.25-28.87,30.63-28.75l63.26.43c15.62.11,25.55,15.04,26.04,27.99.53,13.72-9.65,30.54-27.64,30.48Z"/>
  <polyline class="cls-1" points="802.61 1789.34 802.5 1663.22 1001.46 1663.04 1001.57 1789.16"/>
</svg>