<?xml version="1.0" encoding="UTF-8"?>
<svg id="Layer_1" data-name="Layer 1" xmlns="http://www.w3.org/2000/svg" viewBox="0 0 2992.58 2384.63">
  <path d="M2042.73,2340.68l1.42-101.37c6.97-100.14,89.1-179.25,189.17-179.66l117.41-.48-.04-1284.84-44.22,43.57c-220.78,217.56-482.75,354.1-799.1,353.49-351.57-.67-620.17-160.6-864.4-403.33l.02,1291.83,111.04-.36c104.83-.34,192.84,81.69,193.84,186.68l.92,96.89c.2,21.25-17.12,41.54-40.44,41.54l-870.1-.04c-18.9,0-37.83-17.85-37.9-34.87L0,2257.56c-.38-103.95,81.09-188.27,185.7-192.96l122.73-1.61-.04-1567c-30.23-20.87-52.77-46.26-70.73-77.36-64.31-111.36-45.03-254.49,47.99-343.5C331.85,30.91,389.17,6.56,452.67,1.31c110.15-9.11,213.64,46.81,265.19,145.04,61.39,116.99,34.99,268.13-74.79,348.4l-.2,146.3c134.4,148.11,283.95,274.66,465.78,358.11,280.33,128.66,603.51,113.84,871.13-39.15,145.64-83.26,259.54-186.44,370.9-313.39l.13-153.61c-114.68-88.82-137.83-254.66-57.11-374.4,46.66-69.22,119.73-110.33,202.32-117.53,127.08-11.08,242.97,64.65,283.75,185.42,35.7,112.38,3.71,239.57-94.6,307.94v1558.05c1.3,3.84,3.4,6.77,4.96,7.19l116.74.31c105.73.28,185.76,90.34,185.72,194.44l-.03,88.57c0,21.8-16.44,41.57-40.39,41.57l-869.39-.03c-24.94,0-40.34-22.53-40.04-43.86ZM663.81,276.66c0-104.2-84.47-188.68-188.68-188.68s-188.68,84.47-188.68,188.68,84.47,188.68,188.68,188.68,188.68-84.47,188.68-188.68ZM2707.5,275.43c0-103.89-84.22-188.11-188.11-188.11s-188.11,84.22-188.11,188.11,84.22,188.11,188.11,188.11,188.11-84.22,188.11-188.11ZM2600.75,2058.99l.12-1522.81c-56,16.34-111.45,15.84-165.77-.16l-.03,1523.51,165.68-.54ZM558.53,2061.95V539.01c-54.19,16.64-110.02,16.64-164.87.74l.1,1523.82,164.77-1.62ZM863.68,2299.63l.28-54.49c-2.95-58.03-51.87-101.05-110.17-100.51l-283.56,2.61-282.64,2.26c-64.85.52-106.61,59.41-104.31,119.67l1.16,30.49,779.24-.04ZM2908,2243.75c-4.88-60.96-55.18-99.96-113.55-99.96l-554.43.06c-59.5,0-111.66,43.57-111.77,102.15l-.1,53.6,780.4-.03-.55-55.82Z"/>
</svg>