<?xml version="1.0" encoding="UTF-8"?>
<svg id="Layer_1" xmlns="http://www.w3.org/2000/svg" version="1.1" viewBox="0 0 2992.58 2988.7">
  <!-- Generator: Adobe Illustrator 30.3.0, SVG Export Plug-In . SVG Version: 2.1.3 Build 182)  -->
  <path d="M1487.56,2988.7c-259.84-.02-571.98-19.65-819.67-84.49-73.75-19.31-166.68-50.35-217.22-98.63-34.14-32.61-38.8-78.42-8.3-114.2,18.89-22.17,43.93-37.65,71-52.27,119.04-57.19,254.91-78.96,388.22-100.27l-184.61-497.61-177.64-474.41-189.19-497.7-42.25-112.84c-83.84-8.85-138.41-73.74-131.3-147.06l-19.26-45.07-39.71,12.55c-17.21,5.44-41.01.31-48.03-16.52L7.14,610.57c-6.05-14.5,3.88-33.19,19.08-38.58l43.89-15.57L5.14,401.81c-16.8-39.98,9.4-87.95,52.53-104.82,32.37-12.66,62.48-21.13,95.69-32.15L78.18,92.34c-3.14-7.2,3.87-16.21,11.16-18.55l48.41-15.51c11.72-3.76,21.99,2.78,26.3,12.55l73.54,166.74,64.6-22.09c46.31-15.83,103.69-3.09,126.58,38.69l88.97,162.36,54.2-18.56c23.47-8.04,45.22.51,54.73,21l64.41,138.82c7.07,15.25-2.58,34.37-19.53,40.51l-47.45,17.18,22.05,45.3c50.22,46.14,59.13,113.6,19.61,169.12l106.91,137.98,405.32,526.99,141.77-683.49c-68.13-34.86-94.13-107.33-60.93-170.74l2.14-47.59-43.46-.18c-18.16-.07-33.42-12.08-33.45-28.95l-.27-155.96c-.03-15.56,11.51-31.03,30.96-31.26l58.46-.69,8.2-149.72c2.85-52.02,40.78-95.05,102.6-95.08l68.18-.03.55-143.34,86-.46.39,143.96,69.6-.2c47.48-.14,96.62,30.25,99.42,75.16l10.59,169.84,55.55.05c16.3.01,33.65,11.15,33.64,27.37l-.13,164.37c-.01,17.17-21.23,25.19-36.5,25.2h-42.03s2.55,45.32,2.55,45.32c34.09,63.83,8.45,136.39-58.32,172.33l141.63,686.36,522.2-661.41c-44.88-53.9-40.39-127.02,11.17-174.55l21.65-45.78-49.55-17.55c-15.43-5.47-25.81-24.01-18.93-38.95l63.13-137.29c7.47-16.26,25.66-32.44,47.59-25.59l63.15,19.74,86.05-160.34c20.34-37.9,74.22-56.04,117.81-42.61l75.75,23.34,71.95-165.71c3.5-8.07,14.78-15.52,23.88-12.76l46.63,14.11c4.58,1.39,10.9,4.92,13.22,7.86,2.32,2.94,2.26,12.41.69,16.06l-72.74,168.75,90.96,30.11c48.97,16.21,75.38,66.51,57,110.32l-63.61,151.62,35.46,11.87c22.36,7.48,33.73,25.01,25.29,45.25l-58.67,140.64c-8.27,19.83-28.42,29.2-51.2,21.93l-37.78-12.06-17.83,45.02c6.46,72.81-48.49,137.9-132.2,147.11l-353.96,936.57-241.22,646.79c129.14,18.95,257.68,42.44,372.24,92.42,32.1,15.77,61.98,32.39,84.41,57.74,32.3,36.5,27.98,84.17-8.21,117.77-61.26,56.86-186.83,91.97-276.7,111.93-244.16,54.23-522.49,69.28-775.18,69.26ZM1595.78,543.95c26.81,7.62,47.89,16.78,72.57,30.45l-18.23-347.9c-1.13-21.66-10.31-41.48-39.47-41.43l-233.21.4c-25.55.04-34.47,22.59-35.47,40.95l-19.04,347.66c32.67-18.22,61.99-29.16,96.72-36.12,58.45-9.91,117.34-8.38,176.12,5.99ZM556.95,617.69l-80.82-151.89-101.31-186.96c-5.7-10.51-28.71-18.24-40.85-14.3l-245.14,79.45c-18.7,6.06-32.61,25.61-24.96,43.75l146.68,347.68c20.33-23.26,42.17-43.36,69.93-59.86,77.73-46.19,183.52-76.5,276.46-57.87ZM2783.62,734.09l141.58-337.27c7.25-17.28,8.08-42.75-15.67-50.5l-246.64-80.47c-23.76-7.75-46.34,6.78-54.11,26.77l-172.32,326.22c40.1-9.17,77.82-10.22,117.39-2.59,66.17,11.53,126.82,34.5,180.02,70.72,19.87,13.92,36.62,29.45,49.75,47.13ZM1263.94,537.5l5.13-109.2-27.83-.39.31,111.47c7.39,2.29,18.34,2.41,22.39-1.89ZM1751.2,540.33l-.06-112.2-28.54.02,4.95,112.52,23.66-.34ZM602.82,566.74l25.18-9.09-49.76-105.82-26.68,9.46,51.26,105.45ZM2391.17,566.22l49.77-105.5-26.55-8.88-48.48,105.73,25.26,8.65ZM1630.38,709.41l48.08,19.17c23.73-50.81-13.73-100.72-67.37-121.85-67.33-26.52-143.92-29.29-213.35-7.51-63.11,19.8-111.86,71.68-83.55,129.1,86.89-45.73,216.32-46.03,316.2-18.91ZM115.77,722.55l20.42-8.09-44.45-107.55-22.02,6.58,46.05,109.06ZM2900.49,606.07l-44.49,109.83,21.48,6.85,44.49-109.83-21.48-6.85ZM2727.06,880.02c31.47-26.08,36.2-63,19.75-95.17-12.9-25.24-34.47-44.96-60.53-61.67-67.82-43.49-179.33-75.83-256.58-45.15-37.27,14.8-63.68,45.71-62.14,82.68,98.44-14.81,225.05,30.33,305.88,77.76,20.25,11.88,36.07,26.2,53.61,41.55ZM627.43,761.65c4.26-21.72-6.6-41.59-22.64-58.25-80.54-83.65-317.82-11.93-360.67,89.48-13.87,32.82-2.72,68.48,26.36,90.11,14.57-16.33,28.27-28.83,46.49-39.66,82.68-49.15,211.99-96.58,310.46-81.67ZM1636.65,767.92c-48-21.08-96.59-24.13-145.79-25.74-45.52,1.52-91.16,2.98-134.68,23.79,73.38,41.76,205.07,42.07,280.47,1.95ZM2666.96,902.29c-27.23-24.89-55.7-37.26-85.58-51.38-58.74-24.1-120.63-42.62-188.18-42.43,28.87,32.48,66.71,52.91,107.87,67.95,52.77,19.27,108.75,33.28,165.89,25.86ZM602.83,811.25c-51.68-2.19-97.33,8.95-142.46,24.07-47.54,15.93-94,35.55-130.26,67.67,92.31,10.29,214.83-29.89,272.72-91.74ZM1224.01,1553.66l272.76,351.6,272.76-349.85-149-722.49c-36.58,11.29-74.11,16.55-113.43,16.72-45.56,1.07-89.51-3.23-134.73-16.19l-81.35,392.77-67.01,327.45ZM961.64,2536.89l136.26-651.14,66.33-318.78-375.82-489.2-161.56-209.29c-69.48,54.41-166.99,85.62-258.35,91.53l135.64,355.38,294.67,785.37,162.84,436.13ZM2034.5,2534.36l492.03-1313.55,98.98-262.48c-90.23-6.74-175.91-35.34-248.74-85.03l-547.13,693.63,178.01,857.13c7.91,38.07,10.67,74.84,26.86,110.31ZM1072.57,2455.3l389.99-503.89-253-326.22-185.88,893.58,48.88-63.47ZM1706.96,2179.78l263.19,342.59-186.03-897.13-253.72,326.23,176.56,228.31ZM1508.73,2501.89c131.79.04,255.27,4.98,388.03,15.08l-107.53-140.94-292.92-379.59-320.2,414.09-81.06,106.99c140.95-11.32,273.12-16.34,413.68-15.63ZM2191.2,2882.18c70.59-13.37,137.26-29.48,203.49-53.37,44.64-16.1,126.24-51.81,117.98-89.69-17.94-82.26-337.06-138.75-439.42-151.15l-24.53,66.82c-2.44,6.66-16.37,12.18-23.27,12.3-6.78.12-19.42-3.46-23.41-8.88l-63.75-86.64c-294.35-25.67-587.27-26.02-883.8-.09l-61.43,84.17c-5.26,7.2-17.84,11.87-26.68,11.2-6.85-.52-20.26-6.57-22.49-12.68l-24.36-66.79-191.64,34.27c-56.49,12.92-109.92,27.77-162.5,49.32-50.29,20.61-113.86,60.23-76.81,97.86,12.5,12.69,27.33,24.22,44.44,32.67,48.72,24.06,98.49,41.36,152.89,55.05,129.72,32.64,260.72,52.19,395.88,63.91,342.22,29.68,773.74,25.3,1109.39-38.27Z"/>
</svg>