<?xml version="1.0" encoding="UTF-8"?>
<svg id="Layer_1" xmlns="http://www.w3.org/2000/svg" version="1.1" viewBox="0 0 2992.58 2988.7">
  <!-- Generator: Adobe Illustrator 30.3.0, SVG Export Plug-In . SVG Version: 2.1.3 Build 182)  -->
  <defs>
    <style>
      .st0 {
        fill: #fff;
      }
    </style>
  </defs>
  <path d="M1.05,2261.43c-6.63-69.3,44.72-126.85,111.95-134.31l60.88-1.75-.2-275.17-63.43-1.67C47.45,1839.53,1.44,1786.97.03,1725.56c-1.43-62.43,44.39-117.52,107.93-127.49l65.82-2.19.1-276.55-50.84-1.26c-71.14-1.76-126.61-62.9-122.73-133.66,3.53-64.41,54.63-112.88,118.04-117.39l55.55-1.18-.1-276.41-52.58-1.17c-29.33-.65-55.95-13.84-77.85-32.8-38.72-33.53-52.85-85.59-36.91-134.71,14.33-44.17,55.13-79.59,105.81-84.92l61.55-1.08.55-255.94c.19-89.99,76.07-180.06,171.66-180.14l1915.92-1.52c102.64-.08,194.36,76.84,194.42,183.18l.74,1286.62,177.75-341.06c14.92-28.62,33.05-50.43,59.7-59.1,34.23-11.14,62.89-3.51,91.49,13.24l164.15,96.17c47.36,27.75,52.29,87.24,28.27,132.43l-126.85,238.73-403.54,759.42-1.29,401.9c-.29,89.79-81.17,175.44-174.1,175.5l-1909.22,1.32c-98,.07-188.41-71.11-188.8-172.56l-1.7-434.91-56.5-1.11c-61.05-6.2-109.36-52.06-115.43-115.52ZM235.53,2378.32l1.43,432c.22,66.75,63.17,111.38,126.41,111.36l1905.19-.57c64.16-.02,116.07-58.19,116.18-119.63l.45-266.23c-1.3-6.92-5.13-4.5-7.21,2.85l-299.16,238.45c-9.74,7.76-26.13,7.05-35.9,3.4-10.93-4.09-18.12-13.9-21.79-27.82l20.8-397.7,352.5-667.83-.18-1399.01c0-75.34-59.85-126.16-132.46-126.11l-1915.65,1.2c-60.83.04-109.63,61.71-109.72,117.19l-.44,254.91c74.97-5.6,138.25,50.58,139.35,123.61,1.14,75.98-61.92,133.5-139.38,130.33l-.23,277.37c74.24-4.96,140.38,50.49,139.26,127.15-1.08,74.15-65.56,129.51-139.24,125.66l.12,277.15c71.71-4.08,132.97,46.47,138.75,115.99,6.61,79.46-59.99,142.36-138.8,138.32l-.12,275.69c44.62-3.75,85.05,14.58,111.55,47.03,26.29,32.19,35.45,76.26,21.65,116.73-19.6,57.48-72.59,90.81-133.37,88.51ZM173.87,725.6l-.03-128.67c-19.39-.84-39.44-1.75-57.89,1.61-32.94,5.99-53.96,33.45-53.5,64.77.43,29.61,24.16,57.26,56.3,61.82,17.79,2.52,36.9,1.65,55.13.48ZM235.83,725.86c41.42,5.66,77.49-25.81,77.1-65.56-.38-39.06-36.86-68.6-77.05-62.58l-.05,128.13ZM173.82,1256l.05-127.46-57.95,1.88c-31.26,4.78-52.99,32.01-53.75,61.02-.75,28.53,18.96,54.95,49.15,62.45,18.81,4.67,40.43,3.25,62.51,2.11ZM312.47,1197.33c3.84-44.64-37.41-74.36-76.65-67.74l.13,127.24c38.46,3.2,73.19-20.88,76.52-59.51ZM2928.62,1369.33c7.26-13.89-1.66-32.61-12.55-41.48l-176.34-100.86c-21.39-7.42-37,3.9-46.37,21.93l-65.54,126.07,229.67,130.43,71.12-136.09ZM2598.59,1429.98l-490.13,924.27,233.98,124.08,490.13-924.27-233.98-124.08ZM173.95,1788.05l-.26-129.18c-21.36-.29-40.96-1.85-58.81,1.75-32.56,6.57-53.7,34.83-52.46,65.29,1.18,29.18,23.18,59.63,54.86,60.53l56.68,1.61ZM235.76,1787.05c39.59,7.61,76.74-23.72,77.03-63.78s-36.74-70.12-77.01-63.69v127.48ZM173.71,2314.94l.04-126.57-56.96,1.43c-32.53.82-53.7,30.57-54.5,61.06-.72,27.43,19.09,54.74,49,62.09,18.78,4.61,40.51,3.22,62.41,1.99ZM312.45,2257.01c3.27-44.28-37.2-74.61-76.7-67.65l.02,125.44c35.77,5.95,73.7-17.48,76.68-57.78ZM2297.24,2522.44l-197.12-112.53-13.32,279.41,210.43-166.87Z"/>
  <path class="st0" d="M235.76,1787.05v-127.48"/>
  <path class="st0" d="M235.78,2314.79l-.02-125.44"/>
  <path d="M687.57,1074.68c-19.56,0-41-11.51-44.11-30.43l-63.21-384.69c-26.85-35.84-26.68-81.28.27-117.11l28.06-20.41c.85-28.96,13.5-55.4,34.41-71.99,22.57-17.92,50.22-24.85,78.93-18,14.25-41.51,50.07-64.75,87.91-69.5,44.02-5.53,82.06,16.13,106.3,52.75,31.17-13.67,65.34-11.72,95.67,4.13,29.75,15.55,39.89,50.25,49.72,80.74,26.59,11.03,67.75,23.16,74.86,57.58,17.89,32.85,11.09,69.73-11.09,99.28l-64.91,375.14c-4.89,28.26-23.71,42.4-51.7,42.41l-321.08.09ZM1074.15,634.07c18.26-12.28,22.82-39.51,12.61-55.22-12.01-18.47-33.43-27.81-54.82-18.43-11.93,5.23-25.2,3.08-32.34-6.07-8.27-10.6-4.3-21.4,1.2-32.77,10.07-20.81-4.99-46.5-22-53.91-23.36-10.17-47.01-3.83-60.79,16.51-7.83,11.55-22.32,13.98-33.45,8.03-11.14-5.96-10.8-18.71-12.01-31.69-2.55-27.29-31.17-43.65-55.68-40.8-24.99,2.9-47.12,23.12-48.89,50.47-.62,9.52-6.79,20.37-13.15,23.53-24.41,12.1-40.36-24.32-73.67-1.62-33.63,22.92.3,63.37-35.86,73.81-15.11,4.37-27.95,15.22-29.84,28.72s3.55,32.21,14.75,39.54l443.95-.08ZM761.7,1018.9l-21.57-330.8-100.38.45,54.58,331.67,67.37-1.31ZM886.94,1019.03l22.66-330.81-114.84.21,20.63,331.27,71.55-.67ZM1006.89,1019.69l57.25-331.33-99.6.07-22.58,331.21,64.93.05Z"/>
  <path d="M958.34,1902.2l-251.58.07c-16.69,0-36.74-15.01-38.55-31.94l-37.49-350.58c-13.82-7.42-27.51-19.08-27.47-34.76l.18-69.57c.06-24.45,23.62-42.65,47.56-42.65h177.73s13.89-92.66,13.89-92.66c2.8-18.67,10.66-34.24,30.58-38.79l101.54-33.43c14.83-4.88,28.39,3.52,33.48,15.71,5.48,13.13-1.51,26.88-14.95,34.1l-97.86,31.51-12.55,83.47,136.59-.09c26.35-.02,48.49,18.82,48.5,46.24l.02,62.64c0,17.95-12.65,30.95-29.38,36.87l-36.88,337.77c-2.51,22.95-14.89,46.08-43.36,46.08ZM1015.47,1426.02l-359.64.06v40.69s359.64-.06,359.64-.06v-40.69ZM984.44,1520.78l-41.81-.37-256.96.58,33.82,325.76,227.94.03,37.01-326Z"/>
  <path d="M1008.29,2185.51c3.17,33.62,38.78,55.78,69.64,49.43,12.05-2.48,23.43-2.65,33.05,3.62,8.6,5.6,11.43,16.84,14.01,28.38,40.82,183.21-91.91,359.66-280.22,369.35-163.35,8.41-302.13-117.85-313.59-281.78-5.98-85.51,25.18-169.23,83.25-232.56,75.51-82.34,188.98-111.76,296.3-84.14,9.94,2.56,19.88,7.48,23.98,13.28,6.84,9.68,5.63,21.71,2.96,32.56-8.03,32.65,16.19,62.82,47.22,70.25,16.13,3.86,21.75,14,23.41,31.6ZM1070.74,2289.48c-58.09-.26-103.72-36.8-116.86-88.86-46.19-19.04-73.76-61.44-72.64-111.39-114.21-22.6-223.32,36.22-271.26,139.79-41.62,89.91-26.75,194.57,37.95,268.14,64.17,72.96,167.84,101.32,261.04,69.29,115.3-39.62,185.7-155.26,161.77-276.97Z"/>
  <path d="M1845.91,845.16l-579.6.46c-17.92.01-29.63-11.66-30.35-26.69-.82-17.15,10.86-30.34,30.27-30.33l577.19.06c13.57,0,22.27,15.31,23.18,24.38.94,9.32-3.99,32.11-20.69,32.12Z"/>
  <path d="M1843.08,1620.76l-580.31-.07c-16.32,0-26.4-14.43-27.47-26.99-1.02-11.92,7.58-29.99,24.1-30l582.57-.16c15.69,0,24.32,16.03,24.47,27,.19,13.81-5.65,25.39-23.36,30.22Z"/>
  <path d="M1843.56,2364.36l-577.29.05c-18.41,0-30.21-10.11-31.08-27.31-.65-13,10.29-28.76,27.85-28.75l581.14.2c14.47,0,21.94,15.99,22.21,25.64.27,9.98-5.27,30.16-22.82,30.17Z"/>
  <path d="M1959.8,817.22c-11.57-11.98-12.93-25.98-5.53-38.75,5.7-9.85,26.47-20.66,37.79-9.15l62.29,63.37,143.3-179.89c9.09-11.42,28.48-8.79,37-2.68,9.52,6.82,17.15,26.28,8.1,37.63l-161.41,202.43c-11.84,14.85-31.19,20.56-45.9,5.34l-75.64-78.3Z"/>
  <path d="M1960.73,1593.96c-13.91-14.23-15.36-32.8-1.4-45.54,13.18-12.03,30.46-7.85,43.23,5.53l51.22,53.63,139.72-174.23c10.34-12.89,28.74-15.1,40.86-5.68,13.38,10.41,14.37,28.89,3.14,42.8l-153.37,189.99c-6.68,8.27-14.02,16-22.94,17.55-8.54,1.48-21.07-2.81-27.36-9.24l-73.09-74.81Z"/>
  <circle cx="967.45" cy="2372.05" r="31.28"/>
  <circle cx="777.52" cy="2193.3" r="31.24"/>
  <circle cx="811.69" cy="2473.26" r="31.18"/>
  <circle cx="687.21" cy="2341.98" r="31.07"/>
  <circle cx="844.84" cy="2311.15" r="30.99"/>
</svg>