<?xml version="1.0" encoding="UTF-8"?>
<svg id="Layer_1" xmlns="http://www.w3.org/2000/svg" version="1.1" viewBox="0 0 2992.58 2988.7">
  <!-- Generator: Adobe Illustrator 30.3.0, SVG Export Plug-In . SVG Version: 2.1.3 Build 182)  -->
  <g>
    <path d="M1978.7,2010.09c-.99-58.97-49.1-135.36-84.85-187.78-66.9-98.09-144.78-184.69-228.61-268.6-12.39-12.4-4.28-34.2,5.39-43.24,11.85-11.07,33.23-14.71,46.58-1.6,112.66,110.71,242.52,260.94,307.6,403.68,29.94,65.66,37.82,136.6-18.06,184.55-20.41,17.51-41.17,30.48-65.81,44.03l-953.56,524.31-551.1,303.74c-41.09,22.64-86.1,27.95-127.9,3.17-39.53-23.43-63.75-75.39-47.88-122.73l125.79-375.29,303.54-894.46,134.06-398.53,28.08-70.55c46.46-92.79,157.29-66.53,246.59-31.42,174.9,68.78,337.64,179.34,480.59,300.44,15.72,13.32,10.88,37.97-.65,48.52-16.53,15.11-36.15,11.88-52.7-2.08-84.61-71.37-172.08-135.16-268.18-190.74-68.03-39.34-135.04-73.81-208.96-99.44-37.34-12.95-99.96-28.63-119.67-8.72-19.33,19.52,28.59,107.15,52.48,146.17,130.71,213.51,338.02,414.06,543.61,556.73,98.1,68.08,200.31,125.35,311.05,168.48,45.25,17.62,143.15,45.34,142.58,11.36ZM1450.17,2331.04c-38.81-55.5-68.88-106.28-99.13-162.48-84.47-166.05-139.85-344.77-162.9-529.82-121-120.56-229.37-253.09-308.63-405.3l-135.75,405.47c24.33,98.91,57.95,191.12,100.36,283.21,70.49,153.06,159.64,293.21,272.31,418.21,35.62,40.71,72.35,76.83,113.65,111.67l220.08-120.96ZM1890.01,2089.54l-136.6-49.41c-89.36-40.22-172.3-87.15-253.57-142.34-81.14-54.79-153.63-114.49-229.57-180.41,39.31,208.33,118.47,410.54,242.02,579.21l377.71-207.05ZM1163.79,2489.15c-64.47-60.77-117.48-119.78-168.82-185.09-128.09-165.44-224.52-348.17-290.83-550.25l-176.03,519.43c70.73,152.47,170.01,290.33,295.47,403.38l340.21-187.47ZM383.52,2918.28l375.34-206.21c-107.76-102.05-191.24-215.97-262.99-346.18l-169.13,500.76c-5.24,15.53.68,33.39,10.43,41.91,8.29,7.24,30.83,18.25,46.35,9.72Z"/>
    <path d="M1187.02,456.07l-103.78,61.68c-13.92,8.28-33.67,4.75-46.77-1.96-11.19-5.73-25.38-21.11-24.63-37.16l5.75-122.97-75.93-66.22c-15.95-13.91-24.66-31.27-19.69-52.63,4.65-20,20.66-31.37,41.75-38.14l100.66-32.34,42.64-111.87c7.19-18.85,29.77-28.51,46.5-28.93,22-.55,37.56,12.88,48.87,31.29l56.28,91.61,123.81,15.61c16.37,2.06,28.5,20.42,31.92,29.98,5.57,20.68,1.2,37.21-11.3,51.44l-66.95,82.65,23.35,108.2c4.09,18.95,2.01,36.74-11.53,50.82-12.1,12.59-34.13,20.17-52.5,12.75l-108.47-43.81ZM1199.69,390.3l90.96,36.95-23.16-100.01c-.24-10.88,3.8-22.83,10.76-30.85l59.05-71.98-107.34-13.01c-5.87-.71-16.68-9.39-20.03-14.94l-52.38-86.65-34.05,87.72c-4.92,12.68-11.26,23.07-24.99,27.63l-97.92,30.05,64.49,54.68c9.79,8.3,18.09,18.54,20.14,31.68l-5.34,103.29,79.86-50.46c10.24-6.47,27.73-9.06,39.95-4.1Z"/>
    <path d="M231.97,1098.94l-85.29,47.53c-16.65,9.28-39.52,2.5-51.16-6.79-15.77-12.58-18.57-30.3-16.8-49.86l8.08-89.43-63.62-57.02c-14.43-12.93-24.64-25.72-23.01-46.42,1.06-13.36,9.8-36.52,27.46-40.84l104.28-25.51,40.5-92.96c7.45-17.09,27.22-26.82,43.74-27.22,19.67-.48,36.1,12.05,45.62,29.35l46.31,84.05,105.05,17.44c15.81,2.63,28,19.19,31.63,30.55,5.07,15.85,1.29,35.75-9.86,47.52l-67.27,70.99,16.25,94.39c3.08,17.87-2.66,34.85-15.7,46.58-10.49,9.44-31.66,16.88-47.77,9.29l-88.44-41.66ZM252.92,1036.19l61.97,29.68-13.47-68.53c-2.72-12.18-1.05-26.72,5.48-36.8l58.02-61.64-81.51-12.67c-12.85-2.32-23.93-11.06-29.42-22.87l-35.57-67.41-32.09,75.39c-4.02,9.43-15.58,17.48-25.15,19.48l-79.21,18.99,55.07,49.64c9.58,8.64,16.41,20.27,15.51,33.93l-5.16,78.1,57.79-34.44c15.37-9.16,31.95-8.42,47.73-.86Z"/>
    <path d="M1991.58,1466.55c40.29-78.49,92.42-150.27,181.46-166.83,44.74-8.32,86.75,2.88,127.17,21.41,32.3,14.8,69.7,19.64,102.02,3.81,31.58-15.47,51.22-46.47,59.85-80.11,7.61-29.67,7.55-59.01,8.57-89.56,2.52-74.75,62.15-129.38,136.89-125.47,37.44,1.96,71.53,16.52,103.44,35.22,29.57,17.32,64.8,12,88.45-12.22l27.82-35.02c12.22-15.38,28.96-23.13,46.43-14.72,13.74,6.62,25.17,28.72,15.48,45.93-12.18,21.62-30.33,41.37-48.85,58.54-45.8,42.45-109.36,46.39-163.46,16.3-21.54-11.98-44.9-22.34-69.09-24.56-40.18-3.67-69.28,23.89-69.98,63.48-.65,36.57-1.05,72.15-11.71,107.57-16.09,53.51-51.11,99.26-103.33,120.95-51.2,21.27-107.57,13.55-156.63-10.9-93.89-46.81-170.73,24.97-209.54,114.16-8.95,20.56-26.88,32.78-49.09,23.7-19.11-7.81-26.96-30.08-15.88-51.67Z"/>
    <path d="M1738.62,1205.23c4.8,22.01-11.46,37.93-27.96,40.64-22.44,3.68-38.49-11.8-41.91-33.08-4.94-30.73-8.11-61.01-3.4-91.12,8.91-56.94,45.59-96.04,97.68-116.27,60.57-23.53,89.2-88.89,60.81-147.03l-27.46-56.25c-32.31-66.17-12.88-143.18,41.64-191.88,58.66-52.39,123.03-32.6,137.48-90.78,4.32-17.39,3.07-38.01-2.71-54.91-7.62-22.27,4.09-42.93,23.84-47.57,23.79-5.59,40.57,8.67,45.12,31.81,16.73,85.19-6.29,152.01-89.81,180.64l-39.03,13.38c-59.67,20.45-80.11,89.42-48.81,144.68,17.95,31.69,34.64,63.52,38.14,101.19,7.61,82.12-42.96,153.84-118.81,182.46-58.41,22.04-57.49,75.84-44.78,134.11Z"/>
    <path d="M2324.02,2531.04c0,66.26-53.71,119.97-119.97,119.97s-119.97-53.71-119.97-119.97,53.71-119.97,119.97-119.97,119.97,53.71,119.97,119.97ZM2255.43,2531.09c0-28.35-22.98-51.33-51.33-51.33s-51.33,22.98-51.33,51.33,22.98,51.33,51.33,51.33,51.33-22.98,51.33-51.33Z"/>
    <path d="M2115.56,117.58c0,62.91-51,113.91-113.91,113.91s-113.91-51-113.91-113.91S1938.74,3.67,2001.65,3.67s113.91,51,113.91,113.91ZM2047.52,117.96c0-25.34-20.54-45.88-45.88-45.88s-45.88,20.54-45.88,45.88,20.54,45.88,45.88,45.88,45.88-20.54,45.88-45.88Z"/>
    <path d="M1444.41,978.81c-9.89,18.35-30.46,22.68-45.93,15.51-16.77-7.77-25.43-29.26-15.59-47.62,20.49-38.23,39.31-76.2,42.71-121.42,5.25-69.82-26.12-138.79-83.58-178.76-18.83-13.1-25.47-36.28-11.19-54.14,15.34-19.18,37.46-15.12,55.46-1.08,87.24,68.04,127.34,176.27,100.24,284.99-8.91,35.76-23.96,68.81-42.12,102.52Z"/>
    <path d="M474.95,245.74c0,51.21-41.51,92.72-92.72,92.72s-92.72-41.51-92.72-92.72,41.51-92.72,92.72-92.72,92.72,41.51,92.72,92.72ZM407.84,246.64c0-13.89-11.26-25.14-25.14-25.14s-25.14,11.26-25.14,25.14,11.26,25.14,25.14,25.14,25.14-11.26,25.14-25.14Z"/>
    <path d="M2388.28,791.5c-22.07,1.94-33.47-18.48-33.71-33.82-.8-51.54,76.72-15.68,96.28-99.09,4.15-17.68,26.6-22.9,41.38-18.45,13.9,4.18,28.3,19.91,24.34,38.41-13.08,61.12-63.64,107.27-128.29,112.95Z"/>
    <path d="M2760.28,803.47c-13.11,12.76-34.5,10.38-47.24-1.36-10.84-9.99-16.21-32.75-3.2-45.76l57.89-57.84c12.9-12.89,36.79-8.54,47.46,4.03,11.33,13.34,12.68,35.15-1.6,49.04l-53.32,51.89Z"/>
    <path d="M2504.8,524.96c-10.5,17.29-27.24,22.62-43.92,16.64-15.04-5.39-29.49-26.53-19.68-43.39l37.36-64.27c9.62-16.55,32.29-20.03,48.11-10.7,15.36,9.06,21.2,30.79,10.48,48.44l-32.34,53.27Z"/>
    <path d="M2200.78,1093.54c-10.52,19.28-22.11,33.33-44.13,29.65-16.14-2.7-36.25-21.34-27.52-40.62l12.79-28.21c6.02-13.28,17.81-22.41,30.68-23.96,14.99-1.8,29.01,7.99,34.63,18.43,8.8,16.32,1.56,30.02-6.46,44.71Z"/>
  </g>
  <path d="M2782.55,1717.38c0,66.26-53.71,119.97-119.97,119.97s-119.97-53.71-119.97-119.97,53.71-119.97,119.97-119.97,119.97,53.71,119.97,119.97ZM2713.96,1717.43c0-28.35-22.98-51.33-51.33-51.33s-51.33,22.98-51.33,51.33,22.98,51.33,51.33,51.33,51.33-22.98,51.33-51.33Z"/>
  <path d="M2801.97,2561l-83.35,49.54c-11.18,6.65-27.04,3.82-37.56-1.57-8.99-4.6-20.38-16.95-19.78-29.84l4.62-98.76-60.98-53.18c-12.81-11.17-19.8-25.11-15.81-42.27,3.74-16.06,16.59-25.19,33.53-30.63l80.85-25.97,34.24-89.85c5.77-15.14,23.91-22.9,37.34-23.23,17.67-.44,30.16,10.35,39.25,25.13l45.2,73.57,99.44,12.54c13.14,1.66,22.89,16.4,25.64,24.08,4.47,16.61.97,29.89-9.07,41.32l-53.77,66.38,18.75,86.9c3.28,15.22,1.61,29.5-9.26,40.81-9.72,10.11-27.41,16.2-42.16,10.24l-87.12-35.19ZM2812.15,2508.19l73.06,29.67-18.6-80.32c-.19-8.74,3.06-18.33,8.64-24.77l47.42-57.81-86.21-10.45c-4.72-.57-13.39-7.54-16.09-11.99l-42.07-69.6-27.34,70.45c-3.95,10.18-9.04,18.53-20.07,22.19l-78.65,24.14,51.79,43.91c7.87,6.67,14.53,14.89,16.18,25.44l-4.29,82.95,64.14-40.53c8.22-5.19,22.27-7.28,32.09-3.29Z"/>
</svg>