<?xml version="1.0" encoding="UTF-8"?>
<svg id="Layer_1" xmlns="http://www.w3.org/2000/svg" version="1.1" viewBox="0 0 2992.58 2988.7">
  <!-- Generator: Adobe Illustrator 30.3.0, SVG Export Plug-In . SVG Version: 2.1.3 Build 182)  -->
  <path d="M1853.7,2780.46c-6.65-193.03-164.65-396.54-352.73-396.96-189.03-.42-347.3,199.79-355.63,392.5l-1.32,176.36c-.16,21.17-18.99,34.83-36.74,36.22-18.01,1.41-43.13-10.53-43.2-32.49l-.52-170.02c-.56-184.92,120.44-400.8,295.27-460.48-101.92-51.77-166.37-154.36-175.18-262.59-9.49-116.53,42.92-227.88,137.41-293.34,146.88-101.77,341.78-62.22,441,83.8,108.52,159.71,54.71,381.29-120.84,472.12,175.57,62.94,294.64,278.33,293.78,463.98l-.77,166.34c-.09,19.7-22.04,31.47-36.84,32.49-16.88,1.17-41.64-9.56-41.85-30.21l-1.85-177.73ZM1739.35,2036.41c0-132.04-107.04-239.08-239.08-239.08s-239.08,107.04-239.08,239.08,107.04,239.08,239.08,239.08,239.08-107.04,239.08-239.08Z"/>
  <path d="M2911.1,2780.45c-7.77-185.52-154.25-386.63-337.24-396.58-197.16-10.72-365.15,195.34-375.21,393.14l-.73,172.23c-.09,21.26-16.6,36.43-35.27,38.88s-44.36-9.18-44.35-31.75l.02-184.32c7.31-179.47,124.44-386.13,294.74-446.88-139.8-73.37-208.48-234.87-160.48-383.6,47.62-147.53,194.31-238.89,346.06-216.07,150.77,22.67,265.24,150.04,268.65,305.78,2.71,123.73-63.14,235.9-174.91,292.97,186.07,66.52,301.21,282.06,300.2,475.77l-.81,154.19c-.11,20.76-21.82,33.54-38.67,34.12-17.49.6-40.21-11.47-40.4-32.24l-1.59-175.64ZM2788.02,2039.93c0-130.05-105.43-235.48-235.48-235.48s-235.48,105.43-235.48,235.48,105.43,235.48,235.48,235.48,235.48-105.43,235.48-235.48Z"/>
  <path d="M626.71,2436.88c-112.15-70.39-250.57-72.44-366.83-6.28-103.32,58.8-178.38,225.14-179.26,351.07l-1.19,170.99c-.15,21.95-19.72,34.83-38.34,35.73-17.18.83-40.97-10.42-40.99-32.11l-.11-180.56c6.85-184.79,128.79-396.17,302.87-452.67-137.12-74.42-202.63-233.13-156.31-380.16,38.69-122.8,147.04-209,276.09-218.5,98.91-7.28,192.39,34.23,257.52,109.75,66.11,76.64,89.83,177.96,65.42,282.06-19.94,85.05-79.82,164.71-166.23,208.27,172.23,61.25,289.01,270.27,295.21,450.98l.89,170.08c.12,22.56-13.99,39.88-34.09,42.67-19.3,2.68-46.12-9.02-46.2-32.54l-.52-155.57c-.42-125.36-59.3-295.03-167.93-363.21ZM676.54,2039.96c0-128.64-104.28-232.93-232.93-232.93s-232.93,104.28-232.93,232.93,104.28,232.93,232.93,232.93,232.93-104.28,232.93-232.93Z"/>
  <path d="M989.55,1239.21c-24.26-25.21-14.83-61.68,7.82-77.96,26.13-18.78,54.9-11.85,77.05,11.15l261.94,271.9,564.36-592.94c21.46-22.54,55.06-21.96,75.06-3.75,23.65,21.53,22.26,55.33.05,78.75l-590.5,622.73c-26.08,27.5-63.27,35.74-91.8,6.08l-303.98-315.96Z"/>
  <path d="M1603.43,97.34c-72.4-2.42-139.98-3.42-209.93.48-28.02,1.56-47.27-22.63-47.45-46.45-.22-29.85,21.93-47.3,51.71-48.46,72.31-2.82,143.21-5.91,214.83,2.84,23.83,2.91,36.45,29.56,34.14,49.52-2.24,19.36-17.39,42.92-43.3,42.06Z"/>
  <path d="M929.4,210.77c-24.21,9.48-47.31-9.41-54.02-28.21-6.78-18.99-2.51-46.96,19.52-56.89,68.24-30.77,137.96-55.08,210.53-74.22,25.76-6.79,48.66,12.81,53.53,34.53,5.47,24.36-6.59,48.73-31.97,55.99-67.19,19.21-130.65,42.58-197.59,68.8Z"/>
  <path d="M2097.34,126.45c23.56,10.67,25.69,40.84,17.67,59.61-8.92,20.86-35.2,33.02-58.37,23.53-61.64-25.24-122.33-48.15-186.54-65.8-26.3-7.23-40.73-28.17-36.33-55.25,3.38-20.81,24.96-43.58,51.73-36.99,72.59,17.87,141.88,43.2,211.85,74.91Z"/>
  <path d="M2503.99,388.14c19.52,18.18,10.52,49.31-4.5,63.41-17.96,16.86-45.15,17.35-64.78-.26-47.2-42.33-95.88-80.39-147.87-116.78-20.05-14.03-23.39-39.63-11.21-60.64,9.36-16.14,36.59-32.44,58.01-18.75,60.78,38.86,116.39,82.75,170.36,133.01Z"/>
  <path d="M118.51,1213.62c-4.97,28.28-18.83,44.22-45.09,47.01-20.67,2.19-51.79-13.53-49.42-41.32,5.68-66.86,27.51-130.07,45.08-194.45,7.4-27.1,26.45-44.57,54.87-41.74,23.83,2.38,48.2,27.67,39.93,55.43-17.14,57.51-34.6,113.81-45.37,175.06Z"/>
  <path d="M564.56,445.41c-23.56,22.53-54.76,24.46-74.04,2.76-22.87-25.73-11.91-55.08,12.03-74.65,51.58-42.19,100.22-85.16,157.81-119.33,19.61-11.63,45.33,2.88,55.14,18.6,11.49,18.41,11.13,46.45-8.33,60.7-48.85,35.74-97.76,69.03-142.61,111.93Z"/>
  <path d="M2968.07,1213.31c3.7,26.41-18.03,42.11-36.88,46.06-19.69,4.13-46.52-5.36-52.57-28.52l-49.93-190.88c-6.93-26.51,11.61-50.45,34.97-55.34,26.4-5.52,49.51,9.51,57.56,36.75,18.54,62.7,37.33,124.11,46.84,191.93Z"/>
  <path d="M271.81,801.06c-15.22,25.32-45.67,26.86-66.06,13.83-25.56-16.33-24.14-45.97-8.96-70.31,34.46-55.25,67.3-109.84,108.82-160.14,16.62-20.13,49.88-12.67,63.8,1.7,19.54,20.16,16.61,46.17.73,66.82-36.16,47.01-66.89,95.8-98.33,148.11Z"/>
  <path d="M2794.34,742.06c17.97,26.58,16.26,57.17-9.42,73.18-27.7,17.27-56.19,4.41-71.22-23.4-28.66-53.04-64.13-100.23-98.5-149.72-14.1-20.3-4.61-47.82,13.41-60.45,17.62-12.34,47.74-14.14,61.2,5.76l104.53,154.62Z"/>
  <path d="M103.83,1608.86c1.69,29.11-27.36,47.49-48.61,45.82-28.88-2.27-42.95-23.6-44.7-51.64l-6.38-102.05c-1.76-28.09,12.26-51.59,39.15-55.54,27.16-4,51.86,13.54,53.58,43.22l6.96,120.2Z"/>
  <path d="M2983.32,1601.16c-1.04,29.71-17.52,50.96-44.25,53.12-26.16,2.11-51.47-17.79-49.65-47.22l7.57-122.58c1.47-23.73,22.29-38.33,44.2-39.49,19.75-1.05,47.08,14.87,46.21,39.56l-4.09,116.61Z"/>
</svg>