<?xml version="1.0" encoding="UTF-8"?>
<svg id="Layer_1" xmlns="http://www.w3.org/2000/svg" version="1.1" viewBox="0 0 2992.58 2988.7">
  <!-- Generator: Adobe Illustrator 30.3.0, SVG Export Plug-In . SVG Version: 2.1.3 Build 182)  -->
  <defs>
    <style>
      .st0 {
        fill: #fff;
      }
    </style>
  </defs>
  <path d="M2416.6,2799.03c-11.08-288.08,24.69-571.66,105.74-843.58,34-114.08,76.01-222.57,129.86-327.66-17.1-15.69-30.42-35.46-30.46-59.8l-.15-89.68c-.04-21.96,9.41-41.78,23.96-56.6-130.92-145.51-236.82-322.3-316.36-504.66-123.5-283.12-197.45-604.66-227.33-916.62l68.65-.42c14.16,211.84,54.97,419.75,116.13,621.64,87.98,290.4,224.41,558.74,423.15,777.06l94.42-.88c-148.35-371.61-248.43-774.35-300.5-1173.35L2480.72.19h66.91c5.46,97.09,14.18,189.99,27.05,285.94,51.45,383.45,148.76,756.63,291.35,1112.98,43.38-4.98,83.49,27.11,84.03,73.75l1.04,90.45c-.61,33.64-17.81,61.61-46.97,74.96-12.72,248.77-16.24,494.42-10.16,743.22l21.97,417.82,54.22,1.43c15.14.4,23.43,18.61,22.32,32.37-1.04,12.91-10.39,28.11-26.52,28.12l-660.48.15c-17.74,14.53-33.73,26.26-53.71,32.24l-97.84,29.28-170.97,28.59c-158.94,18.9-315.74,25.71-476.18,25.98-202.38.34-413.86-9.1-612.69-44.32-62.66-11.1-153.17-31.22-201.27-71.78l-658.44-.09c-17.5,0-28.32-9.75-30.99-25.88-2.49-15.04,7.15-34.66,23.86-34.98l52.28-.98c20.54-264.53,27.88-527.14,23.91-792.73l-12.72-367.73c-29.8-14.44-45.53-42.68-46.99-76.1v-86.58c4.6-49.49,41.2-82.33,87.19-77.64,65.97-163.16,119.43-328.82,165.06-499.47C373.82,608.16,430.11,304.2,446.88.13l66.75.19c-31.81,403.12-117.43,803.8-242.34,1183.32l-77.46,214,96.17-.05c92.22-101.72,170.94-212.07,238.36-334.47,67.78-122.07,122.21-250.4,166.74-384.69C767.78,459.22,813.28,233.65,830.69.47l66.57-.47c-8.57,109.83-24.09,213.76-44.98,320.9-77.88,399.4-233.28,804.64-499.75,1101.53,10.3,14.81,21.97,33.03,21.96,52.64l-.06,91.47c-.02,24.32-12.23,44.68-28.66,60.32,121.18,243.46,189.11,501.85,220.61,774.38,15.34,132.68,20.56,262.43,13.5,398.46l93.96.25,17.35-26.19,434.63-1355.14,139.28-432.81c-23.57-26.9-41.36-61.08-35.76-98.65l10.5-70.52c-12.75,3.24-38.72-1.43-38.8-18.61l-1.04-222.42c-.06-13.58,13.24-24.96,24.77-25.07l40.72-.41,27.91-222.92c5.14-41.08,47.61-69.46,83.53-70.3l86.51-2.02-.04-254.87,70.48.09-.06,254.77,84.59,1.46c37.55.65,82.43,29.29,87.5,72.34l25.97,220.86,40.73.97c14.71.35,24.9,12.51,24.83,28.54l-.9,218.51c-.07,17.98-26.24,22.16-38.08,19.04.22,11.67-.18,28.73,2.91,38.73,14.76,47.83,3.74,94.2-29.3,130.25l163.01,495.56,430.82,1317.71,90.69.17ZM1699.36,779.62l-53.17-413.14c2.59-20.7-11.29-39.76-31.77-39.84l-220.55-.87c-12.81-.05-35.55,5.24-37.94,22.63l-59.56,434.22c65.4-43.94,137.83-63.3,213.47-60.37,67.7.65,128.51,21.31,189.52,57.35ZM1614.35,981.63c28.46-9.82,53.21-24.23,72.38-44.76,20.61-22.07,19.42-54.05-.95-75.11-15.59-16.12-33.98-29.57-55.52-38.23-82.79-33.29-174.74-33.13-258.25-1.99-26.33,9.82-49.76,24.24-66.95,46.1-15.81,20.1-14.42,47.28,2.11,66.25,17.06,19.58,38.77,33.9,63.37,43.28,78.1,29.79,163.16,32.28,243.81,4.46ZM2143.26,2705.49l116.38,35.04-427.17-1306-137.45-416.26c-23.7,13.89-45.73,25.15-70.07,33.81-104.6,32.68-226.23,27.16-322.09-33.91l-163.05,503.45-244.94,759.76-145.77,456.14c113.41-42.96,232.96-54.28,351.51-67.96,255.43-21.37,509.47-23.04,765.01-2.7,94.11,7.49,184.07,19.93,277.63,38.62ZM298.12,1583.15c12.06,0,21.03-12.07,20.99-22.83l-.29-78.32c-.05-12.56-11.04-21.82-22.15-21.8l-175.26.27c-13.44.02-21.87,11.1-21.77,24.91l.49,71.28c.09,13.7,7.15,26.54,21.55,26.53l176.44-.04ZM2871.67,1583.05c13.4-.01,23.34-9.61,23.34-23.31l-.02-77.59c0-13.05-10.19-21.94-21.65-21.93l-172.28.13c-13.51.01-24.61,9.63-24.53,25.49l.35,73.15c.07,15.86,11.01,24.21,24.25,24.2l170.54-.14ZM298.15,2320.91c-11.33-231.46-47.07-459.81-116.71-675.98l-35.01.13c7.48,113.33,10.77,223.37,12.76,338,4.75,273.54-.93,543.58-24.21,816.86l160.54-.26c11.35-162.71,10.52-317.45,2.63-478.75ZM523.99,2799.57c11.43-278.98-20.44-552.08-98.2-814.18-35.33-119.06-79.08-232.45-134.8-340.48l-50.91.06c59.08,188.51,92.85,385.32,108.06,583.5,14.67,191.06,15.57,381.28,3.75,571.67l172.1-.57ZM2653.74,2160.47c10.29-106.5,26.5-204.43,47.28-306.04l54.27-209.4-48.21.04c-49.52,95.7-89.59,195.17-122.46,300.18-86.06,274.9-123.08,564.11-111.54,854.75l170.76-.18c-14.4-213.58-10.88-424.05,9.91-639.35ZM2859.77,2799.8c-31.3-390.08-32.46-768.23-11.69-1154.49l-34.08-.23c-22.78,76.85-44.35,150.11-60.03,229.15-22.83,115.06-40.57,227.32-49.73,345.43-14.99,193.48-16.42,383.72-4.07,580.38l159.6-.24ZM2120.75,2877.35c44.03-8.52,132.61-29.25,149.4-60.06,11.15-20.45-81.94-49.3-118.88-57.71-84.58-19.26-168.37-30.33-255.38-38.21-287.72-26.06-575.03-23.68-862.28,6.98-74.61,7.96-145.32,20.31-217.36,39.17-30.12,7.88-85.56,28.17-86.83,45.61-1.64,22.61,66.08,45.52,100.88,53.69,86.68,20.36,172.76,33,262.13,41.05,309.45,27.87,724.2,28.35,1028.31-30.51Z"/>
  <path class="st0" d="M240.07,1644.97l50.91-.06"/>
  <path class="st0" d="M523.99,2799.57l-172.1.57"/>
  <path class="st0" d="M121.67,1583.19c-14.41,0-21.46-12.84-21.55-26.53l-.49-71.28c-.1-13.81,8.33-24.88,21.77-24.91l175.26-.27c11.11-.02,22.11,9.24,22.15,21.8l.29,78.32"/>
</svg>