<?xml version="1.0" encoding="UTF-8"?>
<svg id="Layer_1" xmlns="http://www.w3.org/2000/svg" version="1.1" viewBox="0 0 2992.58 2988.7">
  <!-- Generator: Adobe Illustrator 30.3.0, SVG Export Plug-In . SVG Version: 2.1.3 Build 182)  -->
  <path d="M408.06,825.94c-77.89,212.19-89.55,421.05-60.27,643.06,39.65-47.97,90.14-76.99,149.08-76.48l88.49.77c105.43,7.46,187.14,95.24,187.05,202.27l-.64,795.45c-.09,112.73-96.12,198.82-204.43,199.66l-52.21.25c-93.12.45-171.79-56.95-200.19-144.16-157.41,15.31-304.44-98.32-312.39-257.29l-2.55-399.66c9.57-147.77,124.64-263.79,273.71-272.29-37.61-248.29-29.28-479.25,57.07-716.34,95.74-247.92,266.05-459.93,490.05-603.37C1099.95,19.09,1441.45-41.58,1765.31,28.83c224.12,48.72,428.03,159.2,590.71,320.09,158.98,157.22,274.56,354.32,327.02,571.33,5.92,24.5-2.66,45.86-23.8,53.71-19.44,7.22-45.58-1.64-52.02-24.49l-34.32-121.81-45.94,30.18c-55.33,26.39-119.3,14.03-156.2-35.83-188.36-377.95-585.84-597.87-1007.96-538.03-173.92,24.66-334.83,91.4-473.82,198.51-112.75,86.88-203.98,194.19-270.15,320.52-20.96,44.8-64.67,71.29-114.74,68.15-36.41-2.28-68.04-19.12-96.03-45.21ZM2432.93,767.32c13.94,26.66,48.74,28.42,70.75,12.16,20.04-14.8,30.83-40.77,18.55-65.29-114.08-227.74-300.84-411.56-530.79-521.78-206.27-98.86-434.94-130.85-660.01-98.19-371.4,53.88-694.41,279.59-868.9,611.87-15.54,29.58-9.31,62.19,23.61,78.34,22.27,10.92,49.36,4.56,61.57-18.87,177.06-339.71,524.37-556.96,907.62-572.52,416.3-16.9,785.66,207.22,977.6,574.28ZM573.56,2509.32c62.84-.13,119.47-54.21,119.55-119.08l.99-787.54c.09-69.91-49.2-130.1-120.44-130.06l-71.69.05c-58.19.04-116.07,50.04-116.21,113.42l-1.7,790.4c-.15,70.68,48.07,133.09,120.39,132.94l69.1-.14ZM305.94,2366.51l.11-767.19c-121.33-8.49-224.38,82.99-226.74,205.11l.07,380.17c12.49,112.58,113.87,192.57,226.55,181.91Z"/>
  <path d="M2568.25,822.34h-.02c77.9,212.19,89.55,421.05,60.27,643.05-39.66-47.97-90.14-77-149.08-76.48l-88.5.77c-105.43,7.46-187.14,95.24-187.06,202.27l.64,795.45c.09,112.72,96.12,198.82,204.42,199.67l52.21.26c93.12.45,171.78-56.95,200.19-144.15,157.41,15.31,304.45-98.32,312.4-257.29l2.55-399.66c-9.57-147.77-124.64-263.79-273.71-272.29,37.61-248.29,29.28-479.26-57.08-716.35M2402.74,2505.73c-62.84-.12-119.47-54.2-119.54-119.08l-.99-787.54c-.09-69.92,49.2-130.1,120.44-130.06l71.69.05c58.19.04,116.07,50.04,116.21,113.43l1.69,790.4c.15,70.67-48.07,133.09-120.39,132.93l-69.1-.14h0ZM2670.37,2362.91l-.11-767.19c121.33-8.48,224.39,83,226.74,205.1l-.07,380.17c-12.48,112.58-113.87,192.57-226.55,181.91h-.01Z"/>
  <path d="M2976.28,2096.81c-6.39,190.82-61.19,373.06-189.05,516.73-129.83,145.87-310.61,230.87-505.73,234.97l-151.1-.16c-2.28.42-6.06,5.01-7.03,8.71-19.76,75.28-86.43,130.8-165.24,131.1l-140.15.53c-101.08.38-179.86-79.92-179.02-178.83.84-98.12,81.67-176.85,182.53-175.51l149.37,1.98c76.82,6.47,138.03,63.58,154.3,136.75l142.64-.43c308.42-.93,569.13-233.83,618-543.37M1959.86,2711.63l-151.77.09c-54.79.03-94,50.46-93.63,101.54.37,51.76,42.25,98.72,96.89,98.79l143.33.2c55.53.08,98.28-45.33,99.18-99.2.84-50.06-38.1-101.45-94-101.42Z"/>
</svg>