<?xml version="1.0" encoding="UTF-8"?>
<svg id="Layer_1" data-name="Layer 1" xmlns="http://www.w3.org/2000/svg" viewBox="0 0 2992.58 2988.7">
  <path d="M1760.6,2129.68c-170.4-87.41-283.94-262.82-330.51-446.43-43.61,21.79-85.95,38.71-131.04,50.8l35.91,134.57c4.1,15.36.14,32.64-9.14,44.34-9.23,11.64-24.25,18.2-41.09,18.18l-70.93-.11,21.37,208.77c6,58.67,4.04,115.41-4.28,173.42-10.39,72.53-41.73,136.09-89.88,190.66-24.3,27.53-47.19,53.67-64.65,86.13-52.89,98.31-32.31,231.81.84,336.85,5.97,18.93-1.55,37.38-20.07,44.37-14.75,5.57-37.36-1.88-42.89-20.19-43.33-143.55-65.27-305.35,27.95-431.2l50.54-61.41c39.57-48.07,66.93-101.71,73.48-164.74,5.99-57.65,6.66-113.81.76-171.88l-19.35-190.48-80.78-.3c-14.72-.06-29.62-8.03-37.16-18.13-9.78-13.08-11.89-28.88-7.82-44.82l32.98-129.01c-91.81-20-174.24-60.61-247.27-119.12-187.48-150.23-301.35-393.41-304.8-633.74-2.21-153.92,41.29-304.65,125.47-432.41,165.49-251.14,483.7-363.61,761.61-237.31,207.47,94.29,341.06,286.42,384.27,511.47,228.02-124.63,493.11-90.4,682.22,86.13,166.13,157.22,234.46,391.46,203.2,616.72-22.37,161.22-89.75,311.77-198.07,432.9-122.52,137.01-292.27,229.15-479.59,224l2.45,133.33c.51,27.7-33.18,43.45-57.39,37.62l-56.87-11.87c-11.75,104.21-30.38,222.13-80.6,310.27-30.96,54.34-75.63,98.99-133.84,122.53l-56.32,22.77c-68.53,27.71-120.17,83.2-140.1,155.25-6.04,21.82-21.73,36.2-44.71,29.4-20.92-6.19-27.71-27.47-20.34-48.61,37.78-108.31,101.63-172.31,210.17-209.64,56.01-19.26,100.8-54.26,129.28-106.77,22.4-41.3,36.67-84.69,46.9-131.14l24.6-160.26-79.46-18.74c-27.26-11.25-39.66-43.42-25.19-70.33l60.12-111.83ZM1415.05,1610.88c-34.69-225.86,29.66-454.65,175.4-629.72,34.83-41.83,73.07-77.44,118.19-110.49-25.56-186.46-124.45-357.96-286.32-456.61-255.63-155.78-577.85-64.22-737.61,183.83-95.98,149.02-131.34,327.77-100.49,502.96,36.53,207.49,160.08,414.07,346.71,516.65,157.52,86.59,327.78,83.11,484.12-6.61ZM2205.32,2069.76c73.53-34.36,137.23-82.62,192.91-142.11,95.22-101.74,157.6-227.34,185.26-364.23,28.92-143.15,13.37-290.86-49.06-422.86-53.9-113.97-142.31-207.71-255.31-263.79-139.66-69.32-302.6-67.29-442.79.24-74.85,36.05-139.51,87.21-192.91,151.3-198.53,238.27-223.64,585.48-55.19,847.08,34.34,53.33,74.8,99.35,123.78,138.83,143.53,115.7,326.89,133.31,493.31,55.55ZM1263.94,1863.18l-31.14-115.83c-36.71,3.52-70.83,3.98-110.93,2.02l-29.25,114.28,171.32-.47ZM1921.34,2289.87l-4.04-107.54-97.36-24.41-51.72,96.36,153.12,35.58Z"/>
  <path d="M1680.35,380.27c-16.76-.82-33.75-9.15-37.96-25.75-7.16-28.22-18.81-54.74-38.42-76.75-22.75-25.54-53.8-37.15-85.32-47.59-16.58-5.5-22.53-23.5-22.35-37.61.21-16.26,7.18-33.7,24.43-39.43,27.21-9.04,53.98-19.72,75.04-40.01,22.88-22.04,37.5-51.15,44.93-81.83C1645.62,10.93,1661.4.02,1682.17,0c21.34-.02,36.11,11.83,40.85,32.61,13.95,61.1,53.16,101.14,113.38,118.02,19.46,5.46,29.55,20.36,30.55,39.88,1.26,24.59-14.35,39.27-37.07,45.26-52.73,13.91-91.8,53.2-104.16,106.64-5.18,22.4-18.27,39.18-45.38,37.85ZM1681.93,275.02c19.59-37.59,45.13-64.2,83.57-82.81-36.83-19.21-63.9-46.28-83.96-84.42-17.72,38.15-47.51,64.69-83.23,84.7,38.09,19.92,64.44,45.49,83.62,82.54Z"/>
  <path d="M2726.03,2533.71c-50.12,51.49-26.55,105.92-79.47,106.21-21.45.12-37.01-12-41.69-32.72-13.34-58.99-57.51-100.38-115.79-113.98-16.18-3.77-25.05-21.97-26.17-35.28-1.29-15.28,3.6-34.99,19.77-40.88,27.79-10.12,55.71-19.44,77.92-40.11,23.23-21.62,37.63-50.84,44.63-81.61,4.72-20.77,20.23-32.25,41.43-32.09,52.34.4,28.32,53.6,77.71,106.88,22.19,23.94,51.54,35.48,81.78,45.48,15.43,5.1,21.59,23.15,21.87,36.99.29,14.49-6.51,33.87-22.64,38.9-29.22,9.12-57.37,19.63-79.34,42.21ZM2645.87,2533.94c21.37-37.79,46.79-62.86,83.55-80.77-37.76-17.89-64.38-46.55-83.66-82.57-19.57,38.76-46.22,64.07-83.18,83.1,37.93,18.68,63.07,46.06,83.29,80.24Z"/>
  <path d="M427.13,2153.21c-5.21,22.51-20.96,34.05-42.6,33.6-20.72-.43-34.75-11.66-39.33-31.82-11.77-51.89-49.68-92.71-101.71-106.16-22.21-5.74-37.04-17.81-37.79-40.42-.75-22.38,12.31-37.43,34.73-43.25,56.76-14.74,94.31-60.03,106.95-116.44,3.83-17.09,21.35-25.28,35.92-26.08,15.7-.85,36.39,6.51,40.31,24.46,12.93,59.31,52.8,105.51,112.6,119.84,18.81,4.51,29.22,21.15,29.01,39.9-.23,20.8-12.16,35.42-32.27,40.22-52.85,12.62-93.19,51.55-105.82,106.15ZM386.29,2083.31c20.79-35.24,44.12-59.83,79.83-76.77-35.69-19.05-61.86-44.72-80.42-80.05-18.68,37.05-44.36,60.66-79.47,80.48,37.18,16.91,60.02,44.68,80.06,76.34Z"/>
  <path d="M2968.32,661.28c-61.16,18.24-96.43,45.15-113.09,110.36-4.97,19.47-20.41,28.57-39.34,28.68-21.43.12-34.7-11.12-39.6-31.54-12.04-50.2-48.67-89.1-98.8-103.11-22.06-6.16-36.79-17.82-37.41-40.43-.64-23.02,13.93-37.62,36.98-43.84,50.39-13.6,86.76-52.34,98.5-103.19,4.84-20.96,18.08-33.43,40.24-33.5,20.4-.07,35.51,10.29,39.97,30.88,11.08,51.21,47.87,91.26,98.73,105.81,19.42,5.55,34.92,13.92,37.62,34.54,2.28,17.45-3.44,39.28-23.79,45.35ZM2816.76,699.65c19.32-35.88,42.87-59.28,77.38-76.02-35.39-18.3-59.64-43.17-77.41-77.22-19.11,35.26-43.76,58.8-78.25,78.24,35.33,16.84,59.15,43.39,78.29,75Z"/>
  <path d="M153.36,1131.48c-18.9-.13-32.11-9.02-36.18-26.27-10.24-43.41-41.97-76.55-85.05-89.25-16.41-4.84-28.86-13.46-31.45-28.94-2.75-16.4,2.66-35.64,19.56-41.57,22.77-7.99,45.71-16.72,63.33-33.72,43.4-41.87,21.91-86.82,68.45-88.13,19.78-.56,32.99,10.31,37.27,28.87,10.93,47.38,46.82,79.93,92.79,91.55,15.95,4.03,22.58,21.09,22.48,34.72-.1,13.46-7.25,30.57-23.01,34.35-45.2,10.86-79.6,41.43-90.43,87.92-4.24,18.2-15.77,30.61-37.76,30.46ZM152.79,1039.91c17.99-27.55,34.99-47.54,63.46-60.94-27.31-14.85-48.22-35.44-63.19-63.22-15.1,28.14-33.99,47.97-62.67,62.69,27.54,13.5,45.67,33.72,62.4,61.48Z"/>
  <path d="M541.88,180.73c0,58.72-47.61,106.33-106.33,106.33s-106.33-47.61-106.33-106.33,47.61-106.33,106.33-106.33,106.33,47.61,106.33,106.33ZM475.34,181.14c0-22.18-17.98-40.15-40.15-40.15s-40.15,17.98-40.15,40.15,17.98,40.15,40.15,40.15,40.15-17.98,40.15-40.15Z"/>
  <path d="M2564.35,180.73c0,58.6-47.5,106.1-106.1,106.1s-106.1-47.5-106.1-106.1,47.5-106.1,106.1-106.1,106.1,47.5,106.1,106.1ZM2498.58,180.94c0-22.17-17.98-40.15-40.15-40.15s-40.15,17.98-40.15,40.15,17.98,40.15,40.15,40.15,40.15-17.98,40.15-40.15Z"/>
  <path d="M564.31,2583.76c0,57.5-46.61,104.12-104.12,104.12s-104.12-46.61-104.12-104.12,46.61-104.12,104.12-104.12,104.12,46.61,104.12,104.12ZM499.57,2583.95c0-21.57-17.48-39.05-39.05-39.05s-39.05,17.48-39.05,39.05,17.48,39.05,39.05,39.05,39.05-17.48,39.05-39.05Z"/>
  <path d="M2477.71,1546.51c-4.62,23.63-18.33,38.43-41.3,35.03-21.1-3.12-32.19-23.16-27.72-45.08,17.08-83.7,15.98-168.69-11.15-249.75-18.95-56.63-46.28-108.35-87.42-150.97-14.45-14.96-19.9-35.34-5.58-52.2,12.03-14.16,35.71-17.07,50.6-2.01,53.72,54.33,89.11,120.35,111.72,193.47,27.43,88.67,28.93,179.04,10.83,271.51Z"/>
  <path d="M1577.45,800.48c6.04,22.94-10.41,40.85-28.16,43.88-23.75,4.06-36.07-10.62-42.17-33.04-23.25-85.44-75.6-161.82-147.61-213.68-18.37-13.23-30.05-30.06-16.95-53.31,9.85-17.47,35.25-22.04,54.24-8.1,88.1,64.68,152.22,156.32,180.64,264.25Z"/>
</svg>