<?xml version="1.0" encoding="UTF-8"?>
<svg id="Layer_1" xmlns="http://www.w3.org/2000/svg" version="1.1" viewBox="0 0 2992.58 2988.7">
  <!-- Generator: Adobe Illustrator 30.3.0, SVG Export Plug-In . SVG Version: 2.1.3 Build 182)  -->
  <defs>
    <style>
      .st0 {
        stroke: #000;
        stroke-miterlimit: 10;
      }
    </style>
  </defs>
  <path d="M3068.69,4051.11c34.68,0,67.29,13.51,91.81,38.03,24.52,24.52,38.03,57.13,38.03,91.81v1079.92c0,34.68-13.51,67.29-38.03,91.81s-57.13,38.03-91.81,38.03H485.8c-34.68,0-67.29-13.51-91.81-38.03s-38.03-57.13-38.03-91.81v-1079.92c0-34.68,13.51-67.29,38.03-91.81,24.52-24.52,57.13-38.03,91.81-38.03h2582.89M3068.69,3976.11H485.8c-113.13,0-204.84,91.71-204.84,204.84v1079.92c0,113.13,91.71,204.84,204.84,204.84h2582.89c113.13,0,204.84-91.71,204.84-204.84v-1079.92c0-113.13-91.71-204.84-204.84-204.84h0Z"/>
  <path class="st0" d="M.96,1495V213.53C-.04,170.87,11.21,128.81,33.39,92.34,68.21,36.63,119.76,7,184.76.31c8.12-.41,16.25-.41,24.37,0h2246.87c74.22,0,54.14-4.92,107.67,42.26,67.66,59.6,130.68,124.47,195.95,186.73,50.93,48.61,102.41,96.75,153.42,145.15,15.77,14.88,31.82,29.5,46.5,45.4,21.22,21.27,33.1,50.11,33.05,80.16-.64,422.63-.77,845.25-.41,1267.88,0,337.76.55,675.52-.34,1013.28,0,87.32-42.54,151.16-120.98,189.74-25.4,12.02-53.22,18.02-81.32,17.55-497.59-.27-1635.46-.43-2133.06-.48-149.87,0-299.87-2.32-449.66.68C103.78,2990.71-.41,2899.5,0,2779.4c1.43-428.09.55-856.11.55-1284.2l.41-.2ZM2466.24,56.77H214.11c-43.7,0-83.64,11.47-115.04,44.79-27,28.73-41.35,67.11-39.8,106.51.32,204.83.32,409.79,0,614.89v1961.01c-.97,29.17,7.43,57.88,23.96,81.93,32.29,45.2,76.95,66.09,132.25,66.09h2281.69c94.84,0,189.67.41,284.44,0,74.22-.55,134.23-48.75,147.68-118.66,2.65-18.77,3.52-37.74,2.59-56.67V538.32c0-10.45-.61-20.89-.89-30.25-2.76-1.1-5.62-1.92-8.53-2.46-81.18-.41-162.36-.41-243.54-1.09-26.1.73-52.21-.57-78.11-3.89-74.76-12.49-131.77-73.67-132.39-158.13-.48-75.1,1.37-149.8,1.57-224.7-.07-19.66-2.32-38.44-3.76-61.04ZM2529.67,90.91c-1.13,3.33-1.95,6.76-2.46,10.24,0,81.18-.89,162.29,0,243.47.75,50.11,27.31,81.93,76.33,95.59,13.03,3.29,26.43,4.91,39.87,4.85h232.62c6.42,0,12.84-.55,24.92-1.09l-371.28-353.05Z"/>
  <g>
    <path class="st0" d="M1453.89,996.14c-.55,10.79-.41,18.98-1.64,26.9-2.46,16.11-12.49,25.94-26.01,26.56-16.09.51-29.92-11.33-31.88-27.31-1.3-7.92-1.23-16.04-1.78-24.17-23.96-6.83-47.32-13.11-70.46-20-29.41-9.13-56.29-24.98-78.52-46.29-4.64-4.3-8.81-9.08-12.43-14.27-11.06-15.57-9.76-30.38,3.07-40.97,11.83-10.47,29.91-9.37,40.38,2.46.2.22.39.45.58.68,27.86,32.84,64.25,48.41,105.21,55.99,3.95.43,7.91.63,11.88.61v-172.81c-16.25-4.37-32.7-8.47-48.82-13.66-34.55-10.51-64.79-27.86-85.34-58.51-40.97-61.45-9.49-130.07,40.21-162.36,23.16-16.02,49.74-26.4,77.63-30.31,6.65-1.32,13.18-3.17,19.53-5.53.55-9.08.48-18.02,1.84-26.7,1.67-13.25,13.52-22.81,26.83-21.64,12.12-.17,22.56,8.53,24.58,20.48.53,4.53.78,9.09.75,13.66,0,3.55.48,6.83.96,13.66,8.81,2.05,18.16,4.37,27.31,6.49,38.12,8.14,73.64,25.59,103.37,50.8,20.48,17.82,17.07,42.47-6.83,51.89-11.08,4.98-24.11,2.22-32.23-6.83-20.48-20-46.84-29.97-74.08-37.48-4.78-.9-9.62-1.44-14.47-1.64v153.07c31.61,11.88,62.75,21.1,91.69,34.96,36.76,17.03,63.2,50.55,71.21,90.26,6.04,27.6.7,56.47-14.82,80.09-26.01,43.7-68.28,62.68-114.84,74.15-9.97,3.14-20.55,5.12-32.91,7.78ZM1453.41,770.83v158.19c0,2.18,1.98,4.44,4.37,9.29,19.8-6.83,39.8-12.08,58.51-20.48,33.95-13.1,50.86-51.23,37.76-85.18-6.28-16.27-18.75-29.39-34.69-36.48-19.8-9.42-41.37-15.84-65.95-25.19v-.14ZM1394.08,703.31c-.61-50.59,1.16-98.66-1.09-146.72-24.63.99-48.46,8.99-68.69,23.08-24.44,19.46-38.71,69.85,1.3,97.84,20.25,14.33,43.82,23.26,68.48,25.94v-.14Z"/>
    <path class="st0" d="M896.28,2566.69c-49.64,0-99.48-2.94-148.84.75-57.29,3.47-106.54-40.15-110.02-97.43-.24-3.93-.25-7.87-.04-11.81,3.89-72.85.68-146.11.68-219.23-1.14-23.37-.91-46.78.68-70.12,5.6-46.43,36.39-75.99,83.02-82.95,10.69-1.59,21.48-2.44,32.29-2.53h281.57c18.98,1.43,30.93,11.61,31.82,26.97.82,13.66-11.95,28.95-28.06,32.02-8.06,1.02-16.19,1.31-24.31.89h-276.18c-25.94,2.12-40.97,17.21-42.88,43.42-.41,4.51,0,9.01,0,13.66v249.14c0,41.99,17,59.33,58.65,59.47h259.93c14.41,0,28.88-1.16,43.22-2.25,26.29-1.91,40.97-15.43,45.68-40.97.87-6.26,1.19-12.59.96-18.91-.68-43.29-1.71-86.51-2.12-129.72.07-13.49.89-26.96,2.46-40.35.15-5.35,2.12-10.48,5.6-14.54,9.15-7.85,17.55-19.8,32.36-14.82,14.82,4.98,18.43,17.41,18.37,32.36,0,62.27.75,124.53,0,186.8-.75,58.03-43.63,100.09-101.87,100.71-54.14.55-108.35,0-162.5,0l-.48-.55Z"/>
    <path class="st0" d="M897.65,1795.03h-154.3c-35.37,0-65.2-12.36-86.64-41.85-12.04-15.97-18.53-35.44-18.5-55.44,0-95.59-.55-191.17,0-286.76.41-58.03,40.97-98.11,99.75-98.52,98.39-.61,196.77-.34,295.16,0,22.6,0,35.78,11.13,34.82,28.27-.82,14.2-18.84,31.07-38.3,30.72-92.04-1.5-184.34-1.23-276.18-1.57h-10.86c-28.81,2.18-44.11,17.34-46.7,46.29-.41,4.51,0,9.01,0,13.66v243.74c-.31,8.99.49,17.98,2.39,26.76,3.97,21.41,23.17,36.59,44.93,35.5,25.26.75,50.52.41,75.79.41h227.49c39.74,0,57.69-17.48,57.56-57.69,0-46.91-1.64-93.81-2.05-140.72-.16-11.68.84-23.34,3-34.82,4.4-13.88,15.93-24.32,30.18-27.31,11.25-1.11,21.61,6.22,24.31,17.21,1.11,6.22,1.5,12.54,1.16,18.84,0,59.54.48,119.14,0,178.68,0,42.4-18.23,75.85-56.53,94.36-17.31,7.17-35.89,10.77-54.62,10.58-50.46,1.37-101.05.48-151.64.48l-.2-.82Z"/>
    <path class="st0" d="M1883.96,1442.59h419.69c7.19-.3,14.4-.18,21.58.34,16.18,1.84,25.74,10.86,27.65,24.99,2.23,15.03-7.51,29.23-22.33,32.57-8.78,1.95-17.77,2.78-26.76,2.46-148.02,0-295.95,0-443.79,0h-400.91c-7.19.37-14.4-.02-21.51-1.16-14.64-3.2-25.31-15.82-26.01-30.79,0-13.66,11.68-25.4,28.47-27.72,8.08-.79,16.2-.99,24.31-.61h419.62v-.07Z"/>
    <path class="st0" d="M1881.23,2275.22h-433.55c-19.66,0-35.44-12.49-36.19-28.88-.55-13.66,12.97-30.38,34.82-30.04,58.65,1.02,117.3.41,176.01.48h679.75c9.11-.44,18.24-.21,27.31.68,15.02,1.4,26.05,14.72,24.65,29.74-.02.22-.04.43-.07.65-.82,14.47-10.17,23.96-26.01,26.08-4.55.28-9.11.28-13.66,0-86.64.61-173.28,1.43-259.93,1.84h-173.28l.14-.55Z"/>
    <path class="st0" d="M895.87,1602.84c27.72-32.7,51.28-61.45,75.1-88.76,45.52-52.53,91.03-104.87,136.55-157.03,10.72-12.22,21.37-24.44,32.43-36.32,5.88-6.8,12.45-12.98,19.6-18.43,12.75-9.71,30.95-7.25,40.67,5.49,8.49,11.14,7.81,26.75-1.61,37.11-6.28,7.65-13.66,14.34-20.14,21.85-73.15,85.3-146.38,170.71-219.71,256.24-11.13,12.97-21.44,26.7-32.57,39.67-15.29,17.89-35.03,19.46-51.41,2.46-33.11-34.14-65.48-69.57-97.63-104.94-11.45-11.16-11.68-29.49-.52-40.94.79-.81,1.62-1.57,2.5-2.28,12.9-11.74,26.83-12.22,40.97,1.64,21.64,21.58,42.06,44.58,62.81,67.12,4.03,4.57,7.44,9.9,12.97,17.14Z"/>
    <path class="st0" d="M1720.51,2474.04h-256.99c-8.11.39-16.24.09-24.31-.89-14.88-2.19-26.1-14.67-26.7-29.7.63-15.97,12.92-29.04,28.81-30.66,4.54-.35,9.11-.35,13.66,0h527.57c7.2-.4,14.42-.15,21.58.75,14.89,2.64,25.47,15.97,24.65,31.07.46,14.15-9.98,26.3-24.03,27.99-8.06,1.04-16.19,1.36-24.31.96h-259.45l-.48.48Z"/>
    <path class="st0" d="M895.8,2375.79c49.84-58.44,95.59-113,142.42-166.73,36.05-41.51,73.12-81.93,110.2-122.9,17.82-19.53,35.44-22.05,48.75-8.88s9.9,31.2-6.42,49.77c-64.18,73.19-128.06,146.7-191.65,220.53-23.49,27.31-45.81,55.71-68.28,83.77-19.46,24.03-39.46,25.13-61.45,1.98-30.86-32.91-61.45-66.3-91.63-99.61-12.2-11.96-12.39-31.54-.44-43.74,0,0,.02-.02.03-.03,11.53-11.35,30.08-11.2,41.42.33.6.61,1.18,1.25,1.73,1.92,21.92,22.74,43.15,46.09,64.59,69.37,3.62,3.96,6.55,8.6,10.72,14.2Z"/>
    <path class="st0" d="M1724.19,1641.69h267.78c9.7-.43,19.27,2.27,27.31,7.72,11.83,10.06,13.27,27.82,3.2,39.65-3.9,4.58-9.16,7.79-15.02,9.17-12.36,2.62-24.99,3.81-37.62,3.55-50.39.41-100.77,0-151.16,0-118.03,0-236.1,0-354.21,0-9.87.29-19.73-.67-29.36-2.87-15.5-4.16-26.15-18.98-24.58-31.54,3.34-15.53,16.83-26.79,32.7-27.31,10.79,0,21.58,1.02,32.36,1.02h248.59v.61Z"/>
  </g>
</svg>