<?xml version="1.0" encoding="UTF-8"?>
<svg id="Layer_1" data-name="Layer 1" xmlns="http://www.w3.org/2000/svg" viewBox="0 0 2973.94 2932.19">
  <path d="M568.47,2642.64c-52.77,48.37-58.43,131.35-114.65,195.81-77.44,88.8-199.86,119.4-307.46,70.54-115.76-52.58-174.61-184.24-133.04-304.82,28.96-84,93.51-144.28,175.56-176.93,39.13-15.57,79.02-30.14,108.95-60.99l216.55-223.16-65.5-67.8c-82.15-85.02-73.34-202.73,8.58-281.83l540.33-521.74,865.87-834.99c73.21-70.6,180.61-80.52,258.25-8.57l79.9,79.84,214.12-206.28c48.58-46.8,49.33-147.42,115.8-218.64,98.59-105.65,264.55-112.3,367.63-9.89,70.54,70.08,91.91,173.56,60.4,268.3-25.9,77.89-85.33,135.45-160.34,168.52-39.14,17.26-79.26,32.61-109.75,63.82l-213.13,218.13,66.48,71.38c56.71,68.33,61.64,182.48-5.33,247.53l-333.57,323.98-930.43,904.87-185.74,178.62c-61.38,59.03-162.58,53.25-223.26-2.07l-72.21-78.97-224.01,205.33ZM2405.53,718.82l193.62-198.74c44.24-45.41,95.06-76.05,153.85-99.56,53.8-21.51,96.77-61.93,114.61-116.89,21.37-65.81-2.15-135.54-56.57-174.74-53.21-38.32-125.02-37.47-180.4.69-35.81,24.67-54.88,59.93-68.41,101.45-16.41,50.35-34.98,102.49-73.83,140.19l-216.28,209.88,133.41,137.71ZM914.72,2426.36c30.64,32.87,78.77,45.55,113.31,11.84l970.27-946.85,461.12-444.06c36.3-34.95,35.77-90.2.87-126.48l-213.52-221.96-189.2-194.09c-27.98-28.7-78.97-36.23-110.17-6.16l-625.07,602.53-494.28,478.27-321.41,309.5c-27.61,40.28-15.82,85.89,16.05,119.14l75.72,78.99,316.3,339.33ZM359.41,2790.62c28.85-24.67,44.97-54,57.92-87.57,19.07-49.43,43.69-93.4,79.98-132.43l225.49-208.47-137.88-145.12-207.19,214.74c-41.66,40.2-89.4,68.26-144.03,87.07-47.58,16.39-86.61,45.45-112.22,88.64-36.47,61.52-25.33,137.15,28.95,184.42,59.86,52.12,147.43,51.37,208.97-1.27Z"/>
</svg>