<?xml version="1.0" encoding="UTF-8"?>
<svg id="Layer_1" xmlns="http://www.w3.org/2000/svg" version="1.1" viewBox="0 0 2995.13 2990.91">
  <!-- Generator: Adobe Illustrator 30.3.0, SVG Export Plug-In . SVG Version: 2.1.3 Build 182)  -->
  <path d="M2558.85,2988.66l-2148.3,2.25C185.62,2960.56,1.73,2790.7,1.48,2556.99L0,436.64C-.25,208.18,193.42,3.42,427.34,3.08L2576.65,0c230.16,26.81,418.58,199.54,418.48,435.8l-.58,2113.83c-.1,228.94-196.32,438.77-435.69,439.02ZM2893.1,2535.13l1.12-2077.41c.18-208.86-161.2-352.12-366.08-351.81l-2096.72,3.22c-178.04.27-328.27,152.82-328.44,327.86l-1.33,2102.65c-.18,179.45,145.16,345.69,330.02,345.77l2120.48.91c188.82.08,340.8-159.74,340.97-351.19Z"/>
  <path d="M1954.6,1565.46l-714.84,431.59c-23.36,14.1-66.37,16.84-91.28,5.03-21.19-10.05-45.44-45.27-45.44-76.8l-.16-852.57c0-30.17,18.88-64.72,41.86-77.53,24.58-13.7,65.91-12.49,95.33,4.98l709.06,421.13c21.3,12.65,43.85,44.19,46.44,63.1,3.25,23.77-13.17,64.27-40.97,81.06ZM1868.24,1494.94l-660.89-394.67-.05,794.74,660.95-400.07Z"/>
</svg>