<?xml version="1.0" encoding="UTF-8"?>
<svg id="Layer_1" xmlns="http://www.w3.org/2000/svg" version="1.1" viewBox="0 0 2608.02 2992.4">
  <!-- Generator: Adobe Illustrator 30.3.0, SVG Export Plug-In . SVG Version: 2.1.3 Build 182)  -->
  <path d="M2266.57,2553.06l239.93-89.74c38.69-14.47,78.99-1.1,95.69,37.03,14.19,32.4,2.58,79.99-35.9,94.35l-307.13,114.59c-40.14,14.98-82.05.37-99.59-39.34l-155.01-372.73-169.1-404.43-957.55.09c-44.96-.66-78.7-32.46-78.7-77.57l.14-1089.55c-217.73-48.93-348.32-277.72-264.83-486.82C584.48,109.26,700.81,17.94,839.07,2.28c154.92-17.54,301.24,67.37,367.65,208.1,46.31,104.17,43.37,224.23-7.6,326.51-54.05,100.23-148.81,170.42-261.02,189.97l.12,566.46h726.46c34.89,6.33,57.03,34.47,57.63,67.41.6,33.26-20.25,62.41-54.93,70.19l-729.2.05-.05,315.71,933.94.04c39.85-1.92,66.77,21.2,81.29,55.82l154.33,367.66,158.88,382.87ZM1101.75,366.61c0-125.48-101.72-227.2-227.2-227.2s-227.2,101.72-227.2,227.2,101.72,227.2,227.2,227.2,227.2-101.72,227.2-227.2Z"/>
  <path d="M1520.98,2638.8c119.99-109.42,207.23-248.96,249.26-404.15,10.61-39.18,41.39-64.99,82.2-58.48,37.08,5.91,67.78,44.57,56.9,85.87-86.8,329.48-340.86,597.28-670.25,693.29-166.94,48.66-345.54,49.65-512.98,1.62-148.53-42.61-285.31-120.53-398.61-224.61-108.75-99.9-190.91-222.49-247.21-358.35-47.61-114.89-75.63-234.32-79.74-358.88-3.77-114.35,11.33-225.53,46.39-333.43,87.6-269.58,284.41-489.21,543.45-604.05,26.28-11.65,55.79-11.67,79.04,6.68,20.55,16.22,30.26,41.66,26.32,67.46-3.74,24.44-19.25,45.8-44.17,56.79-88.32,38.98-169.64,90.76-240.34,157.43-185.16,174.58-289.53,430.27-265.76,686.6,13.23,142.58,60.34,280.4,135.79,401.71,87.56,140.79,213.62,251.85,363.85,321.2,134.46,62.07,281.07,85.79,428.92,67.99,165.89-19.98,322.57-91.29,446.92-204.69Z"/>
</svg>