<?xml version="1.0" encoding="UTF-8"?>
<svg id="Layer_1" xmlns="http://www.w3.org/2000/svg" version="1.1" viewBox="0 0 378.23 386">
  <!-- Generator: Adobe Illustrator 30.1.0, SVG Export Plug-In . SVG Version: 2.1.1 Build 136)  -->
  <defs>
    <style>
      .st0 {
        fill: none;
        stroke: #000;
        stroke-linecap: round;
        stroke-linejoin: round;
        stroke-width: 14px;
      }
    </style>
  </defs>
  <g id="Layer_2">
    <g id="Layer_15">
      <path class="st0" d="M265.4,190.2v161.05c0,10.34-8.38,18.73-18.73,18.73H32.72c-10.34,0-18.73-8.38-18.73-18.73h0V55.98c0-10.34,8.38-18.73,18.73-18.73h213.95c10.34,0,18.73,8.38,18.73,18.73v54.64"/>
      <line class="st0" x1="139.68" y1="14.2" x2="139.68" y2="60.3"/>
      <line class="st0" x1="60.28" y1="16.59" x2="60.28" y2="62.69"/>
      <line class="st0" x1="219.08" y1="15.52" x2="219.08" y2="61.62"/>
      <line class="st0" x1="13.99" y1="79.71" x2="265.37" y2="79.71"/>
      <line class="st0" x1="40.15" y1="128.29" x2="239.21" y2="128.29"/>
      <line class="st0" x1="40.15" y1="184.62" x2="203.27" y2="184.62"/>
      <line class="st0" x1="40.15" y1="240.94" x2="180.8" y2="240.94"/>
      <line class="st0" x1="40.15" y1="297.26" x2="239.21" y2="297.26"/>
      <path class="st0" d="M224.93,236.4l129.89-157.98c9.57-11.64,8.91-27.99-1.46-36.52h0c-10.37-8.53-26.55-6.01-36.11,5.62l-129.89,157.98h0l-4.49,24.63-4.49,24.62,23.29-9.17,23.28-9.18h-.02Z"/>
      <line class="st0" x1="318.82" y1="45.89" x2="355.67" y2="76.5"/>
      <line class="st0" x1="187.66" y1="203.75" x2="224.52" y2="234.36"/>
      <path class="st0" d="M214.89,226.4"/>
      <path class="st0" d="M346.05,68.54"/>
      <path class="st0" d="M198.49,212.09"/>
      <path class="st0" d="M329.1,54.87"/>
    </g>
  </g>
</svg>