<?xml version="1.0" encoding="UTF-8"?>
<svg id="Layer_1" xmlns="http://www.w3.org/2000/svg" version="1.1" viewBox="0 0 1978.14 2596.54">
  <!-- Generator: Adobe Illustrator 30.3.0, SVG Export Plug-In . SVG Version: 2.1.3 Build 182)  -->
  <defs>
    <style>
      .st0 {
        stroke: #000;
        stroke-miterlimit: 10;
        stroke-width: 42px;
      }
    </style>
  </defs>
  <path class="st0" d="M1930.61,2575.54l-1882.78-.02c-11.88,0-26.83-11.68-26.83-24.38V421.77c0-14.58,14.59-27.17,28.81-27.17l428.46-.15.14-100.96c4.37-15.67,18.29-25.66,34.89-24.49l177.78-.07c12.46-66.72,45.49-124.74,95.05-169.53,90.79-82.05,222.89-101.55,333.63-49.71,89.3,41.8,153.01,122.21,170.54,219.35l183.39-.06c16.06,1.28,28.4,12.32,29.62,28.28l-.07,97.25,419.93.02c19.48,0,33.97,11.26,33.97,31.9v2120c-.01,15.42-10.62,26.12-26.52,29.12ZM1438.53,551.54l-.03-216.72-176.04.02c-21.01,1.11-36.36-14.14-34.86-35.5-12.6-114.01-107.08-204.01-221.74-210.98-127.48-7.75-238.32,85.49-252.23,211.73.93,17.27-11.05,34.52-29.25,34.55l-181.35.27.12,216.64h895.39ZM1503.28,588.84c-1.97,14.73-11.06,24.25-25.18,27.3l-969.14-.03c-17.86.36-30.06-12.09-30.64-28.86l-.06-127.4-392.59.14.19,2048.88,1806.58-.02.06-2048.95h-389.14s-.1,128.94-.1,128.94Z"/>
  <path class="st0" d="M1374.51,1894.6l1.23-283.05c.08-17.33,18.92-27.55,33.02-27.72s34.68,8.61,34.65,26.5l-.51,295.02c-.13,72.68-66.68,137.1-140.06,137.1l-701.59-.03c-76.11,0-141.28-67.55-141.28-142.71l.03-650.51c0-74.66,63.92-141.59,139.41-141.8l414.89-1.15c17.54-.05,27.37,18.85,28.43,32.3,1.09,13.84-8.16,35.48-26.52,35.53l-407.72,1.16c-43.38.12-79.61,36.39-79.59,79.89l.23,640.95c.02,43.82,39.25,78.26,81.78,78.24l684.46-.31c42.62-.02,78.97-36.62,79.15-79.43Z"/>
  <path class="st0" d="M731.4,1519.31c-14.74-15.57-22.76-33.08-11.29-52.6,5.38-9.16,17.78-15.16,27.4-15.49,12.91-.44,22.81,4.64,31.98,14.27l157.38,165.24,198.91-213.72,186.2-198.82,48.79-51.64,158.01-164.88c14.28-14.9,41.15-8.83,51.56,5.12,12.91,17.31,8.01,36.24-6.63,51.63l-133.35,140.15-299.1,318.83-172.03,184.48c-9.43,10.12-18.53,16.43-31.5,16.75-14,.35-23.62-6.92-33.3-17.07l-67.32-70.57-105.7-111.68Z"/>
  <circle class="st0" cx="990.6" cy="291.54" r="81.98"/>
</svg>