<?xml version="1.0" encoding="UTF-8"?>
<svg id="Layer_1" xmlns="http://www.w3.org/2000/svg" version="1.1" viewBox="0 0 2892.69 2987.37">
  <!-- Generator: Adobe Illustrator 30.3.0, SVG Export Plug-In . SVG Version: 2.1.3 Build 182)  -->
  <g>
    <path d="M363.45,412.1c-54.75,3.07-78.91,13.51-115.61,59.48l-154.92,193.96c-68.13,85.31-53.59,209.2,32.47,276.72l384.15,301.43c3.66,2.88,7.42,5.55,11.2,8.11l400.99-502.03c-3.4-3.07-6.88-6.08-10.55-8.94l-292.88-231.85" fill="none" stroke="#000" stroke-linecap="round" stroke-linejoin="round" stroke-width="100"/>
    <path d="M911.33,770.16l-372.97,466.95c-64.97,81.34-.81,238.93,143.31,352l608.22-761.48c-144.11-113.07-313.59-138.8-378.56-57.48h0Z" fill="none" stroke="#000" stroke-linecap="round" stroke-linejoin="round" stroke-width="100"/>
  </g>
  <path d="M615.59,397.17c0,67.06-54.84,121.41-122.49,121.41h0c-67.65,0-122.49-54.35-122.49-121.41v-225.77c0-67.06,54.84-121.41,122.49-121.41h0c67.65,0,122.49,54.35,122.49,121.41v225.77Z" fill="none" stroke="#000" stroke-linecap="round" stroke-linejoin="round" stroke-width="100"/>
  <line x1="886.52" y1="1769.18" x2="1830.56" y2="2937.37" fill="none" stroke="#000" stroke-linecap="round" stroke-linejoin="round" stroke-width="100"/>
  <line x1="1500.58" y1="989.03" x2="2842.69" y2="1650.53" fill="none" stroke="#000" stroke-linecap="round" stroke-linejoin="round" stroke-width="100"/>
</svg>