<?xml version="1.0" encoding="UTF-8"?>
<svg id="_ÎÓÈ_1" data-name="—ÎÓÈ_1" xmlns="http://www.w3.org/2000/svg" viewBox="0 0 229 227.35">
  <defs>
    <style>
      .cls-1 {
        fill: #1d1d1b;
      }
    </style>
  </defs>
  <path class="cls-1" d="M223.87,29.11h-61.6l-4.41-25c-.43-2.45-2.56-4.11-5.05-4.11h-78.61c-2.49,0-4.62,1.66-5.05,4.12l-4.4,24.99H5.13c-2.83,0-5.13,2.3-5.13,5.13s2.3,5.13,5.13,5.13h14.28l19.35,153.18c2.51,19.84,18.07,34.8,36.19,34.8h79.09c18.13,0,33.69-14.96,36.2-34.8l19.35-153.18h14.28c2.83,0,5.13-2.3,5.13-5.13s-2.3-5.13-5.13-5.13ZM78.51,10h70l3.36,19.11h-76.71l3.35-19.11ZM180.07,191.26c-1.86,14.73-13.05,25.83-26.03,25.83h-79.09c-12.97,0-24.16-11.1-26.02-25.83L29.74,39.37h169.51l-19.18,151.89Z"/>
  <g>
    <path class="cls-1" d="M115,190.27c-2.83,0-5-2.3-5-5.13v-119.62c0-2.83,2.17-5.13,5-5.13s5,2.29,5,5.13v119.62c0,2.83-2.17,5.13-5,5.13Z"/>
    <g>
      <path class="cls-1" d="M74.57,188.09l-19.13-118.09c-.45-2.79,1.45-5.43,4.24-5.88,2.79-.45,5.43,1.45,5.88,4.24l19.13,118.08c.45,2.8-1.44,5.43-4.24,5.88-2.72.46-5.42-1.39-5.88-4.24Z"/>
      <path class="cls-1" d="M148.54,192.33c-2.79-.45-4.69-3.08-4.24-5.88l19.13-118.08c.45-2.8,3.07-4.69,5.88-4.24,2.79.45,4.69,3.09,4.24,5.88l-19.13,118.09c-.46,2.81-3.12,4.7-5.88,4.24Z"/>
    </g>
  </g>
</svg>