<?xml version="1.0" encoding="UTF-8"?>
<svg id="Layer_1" xmlns="http://www.w3.org/2000/svg" version="1.1" viewBox="0 0 2182.11 2977.03">
  <!-- Generator: Adobe Illustrator 30.3.0, SVG Export Plug-In . SVG Version: 2.1.3 Build 182)  -->
  <defs>
    <style>
      .st0 {
        stroke: #000;
        stroke-miterlimit: 10;
        stroke-width: 55px;
      }
    </style>
  </defs>
  <path class="st0" d="M2154.61,2608.39c.03,195.07-166.27,341.29-354.67,341.15l-1432.69-1.11c-180.33-4.49-328.62-148.37-339.74-328.44l.08-1559.63c0-56.84,15.7-109.28,42.19-157.61,60.73-110.79,173.59-181.42,299.68-188.38l57.14-1.26-.08-178.72c-96.91,11.29-178.22-60.05-178.07-156l.3-195.44c.11-73.51,52.61-134.94,123.52-150.69,30.21-6.71,57.58-4.31,89.72-4.31l1275.65-.07c30.15,0,54.94-2.32,83.29,4.73,65.19,16.2,119.4,71.21,119.73,140.61l1.04,215.12c-4.3,91.17-82.87,155.65-173.35,146.41l-.2,179.84c61.74-2.74,118.2,3.88,175.44,29.84,118.04,53.65,210.78,170.36,210.8,305.99l.21,1557.98ZM1791.5,432.2c32.15-4.88,48.25-28.12,48.23-56.92l-.15-189.12c-.02-28.86-23.27-53.89-53.56-53.89l-1384.9.18c-26.71,0-48.78,26.43-48.82,50.03l-.39,196.51c-.05,24.87,18.75,53.01,48.11,53.01l1391.48.19ZM1658.05,535.27l-1122.23.03v178.86s1122.23-.03,1122.23-.03v-178.86ZM1965.46,2786.26c50.91-44.62,89.46-108.72,89.46-179.51l.03-1536.77c0-141.55-122.62-252.68-261.45-252.6l-1406.55.78c-143.69.08-258.96,119.29-259.02,261.55l-.67,1507.6c-.06,141.13,109.63,258.73,253.32,258.74l1419.04.1c62.24,0,118.26-18.19,165.84-59.89Z"/>
  <path class="st0" d="M1145.25,2443.23c-.07,29.87-23.99,50.21-50.49,50.88-25.2.64-52.04-18.73-52.17-46.92l-.53-113.84c-68.48-7.27-132.19-29.85-184.02-73.92-57.91-49.24-90.1-122.73-82.68-198.63,2.96-30.24,36.01-43.81,60.6-39.13,31.1,5.91,41.48,30.79,42.08,61.48,2.71,138.54,208.49,183.94,346.6,122.08,86.63-38.8,124.28-139.84,80.08-223.31-37.93-71.63-134.4-83.97-207.47-101.78l-130.91-31.91c-52.62-17.55-98.35-45.7-134.18-87.4-42.9-49.94-59.24-111.19-60.14-176.61-2.18-157.09,116.38-259.1,269.8-273.58l.97-120.06c.23-27.78,27.43-45.77,51.88-45.22,25.27.58,49.94,19.87,50.11,47.77l.71,117.25c145.51,14.07,269.27,105.24,270.17,257.66.18,30.46-17.62,54.36-48.55,56.9-25.15,2.06-54.55-17.73-54.31-47.22.87-106.08-86.18-156.59-185.64-164.89-122.67-10.24-248.54,34.68-252.02,168.04-1.83,70.02,33.82,130.88,99.07,158.89,117.15,50.29,288.32,35.68,391.07,148.61,42.34,46.54,60.67,102.97,61.17,165.08,1.3,162.88-124.5,264.35-280.96,280.02l-.26,109.77Z"/>
</svg>