<?xml version="1.0" encoding="UTF-8"?>
<svg id="Layer_1" xmlns="http://www.w3.org/2000/svg" version="1.1" viewBox="0 0 2992.58 2988.7">
  <!-- Generator: Adobe Illustrator 30.3.0, SVG Export Plug-In . SVG Version: 2.1.3 Build 182)  -->
  <defs>
    <style>
      .st0 {
        fill: none;
        stroke-width: 143px;
      }

      .st0, .st1 {
        stroke: #000;
        stroke-miterlimit: 10;
      }

      .st1 {
        stroke-width: 91px;
      }
    </style>
  </defs>
  <path class="st1" d="M1492.47,149.39c91.39,0,182.71,9.2,271.39,27.35,86.38,17.68,171.35,44.05,252.54,78.39,79.74,33.73,156.66,75.48,228.61,124.09,71.3,48.17,138.34,103.49,199.29,164.42,60.94,60.93,116.26,127.99,164.42,199.29,48.61,71.95,90.36,148.88,124.09,228.62,34.34,81.2,60.72,166.16,78.39,252.54,18.15,88.68,27.35,180,27.35,271.39s-9.2,182.71-27.35,271.39c-17.68,86.38-44.05,171.35-78.39,252.54-33.73,79.74-75.48,156.66-124.09,228.62-48.17,71.29-103.49,138.34-164.42,199.29-60.93,60.93-127.99,116.26-199.29,164.42-71.95,48.61-148.88,90.36-228.61,124.09-81.2,34.34-166.16,60.72-252.54,78.39-88.68,18.15-180,27.35-271.39,27.35s-182.71-9.2-271.39-27.35c-86.38-17.68-171.35-44.05-252.54-78.39-79.74-33.73-156.66-75.48-228.62-124.09-71.29-48.17-138.34-103.49-199.29-164.42-60.93-60.93-116.26-127.99-164.42-199.29-48.61-71.95-90.36-148.88-124.09-228.62-34.34-81.2-60.72-166.16-78.39-252.54-18.15-88.68-27.35-180-27.35-271.39s9.2-182.71,27.35-271.39c17.68-86.38,44.05-171.35,78.39-252.54,33.73-79.74,75.48-156.66,124.09-228.62,48.17-71.29,103.49-138.34,164.42-199.29,60.93-60.93,127.99-116.26,199.29-164.42,71.95-48.61,148.88-90.36,228.62-124.09,81.2-34.34,166.16-60.72,252.54-78.39,88.68-18.15,180-27.35,271.39-27.35M1492.47,52.3C695.42,52.3,49.29,698.44,49.29,1495.49s646.14,1443.18,1443.19,1443.18,1443.19-646.14,1443.19-1443.18S2289.52,52.3,1492.47,52.3h0Z"/>
  <line class="st0" x1="1492.47" y1="675.74" x2="1492.47" y2="2312.96"/>
  <line class="st0" x1="2314.9" y1="1470.4" x2="677.68" y2="1470.4"/>
</svg>