<?xml version="1.0" encoding="UTF-8"?>
<svg id="Layer_1" xmlns="http://www.w3.org/2000/svg" version="1.1" viewBox="0 0 2963.18 2420.88">
  <!-- Generator: Adobe Illustrator 30.3.0, SVG Export Plug-In . SVG Version: 2.1.3 Build 182)  -->
  <defs>
    <style>
      .st0 {
        stroke: #000;
        stroke-miterlimit: 10;
        stroke-width: 49px;
      }
    </style>
  </defs>
  <path class="st0" d="M2272.12,1903.17l-26.34,212c-2.82,22.7-16.23,43.57-41.58,43.82l-188.77,1.88c-41.36.41-70.74,37.92-70.73,75.75,0,39.38,30.59,75.81,72.93,75.78l352.32-.26c46.01-.03,83.73-34.8,90.62-78.73l24.11-153.84c2.91-18.58,22.26-27.85,38.92-24.65,17.18,3.3,28.69,19.53,25.56,38.9l-25.87,160.17c-14.77,70.33-78.86,124.98-153.03,124.97l-1774.05-.04c-74.62,0-138.1-55.8-151.23-126.44l-23.63-157.81c-2.8-18.72,6.52-34.95,24.01-39.44,15.41-3.96,36.92,4.9,39.71,23.52l23.91,159.11c6.48,43.14,45.97,74.38,89.69,74.47l345.06.69c43.1.09,77.57-29.29,80.1-71.73,2.33-39.07-27.12-80.03-70.37-80.42l-189.36-1.68c-26.77-.24-43.51-23.43-46.52-48.37l-24.78-205.11c-6.24-51.62-22.11-97.64-53.22-139.43-49.69-66.74-124.81-109.44-208.83-112.86l-89.29.18c-97.57,5.86-183.56,62.95-226.22,150.66-15.78,32.45-25.13,66.41-25.19,103.68l-.76,460.87c-.03,17.68-18.25,27.79-32.48,27.57-14.46-.21-31.93-10.72-31.95-28.68l-.35-452.36c-.04-52.3,9.64-100.14,33.03-145.75,61.48-119.94,186.45-189.71,320.82-182.54,35.22,1.88,67.65-1.26,102.51,5.37,72.92,13.87,137.24,50.96,187.72,104.78,49.43,52.71,79.38,115.73,88.13,187.74l25.44,209.34,166.68.04c26.79,0,50.57,7.95,73.96,21.29l1.38-70.74c10.97-95.84,64.96-181.87,146.64-232.94,46.73-29.21,97.92-45.43,153.45-45.4l327.71.22c133.77.09,253.84,101.52,285.77,230.55,9.71,39.22,10.23,77.48,9.56,118.2,24.06-14.94,49.94-21.14,77.78-21.17l157.59-.16,22.73-191.02c9.49-79.74,38.58-151.02,94.31-209.13,58.57-61.07,135.49-100.45,220.92-105.6l72.44-1.19c38.27-.63,74.9,2.06,111.73,13.65,82.04,25.83,152.24,79.93,194.95,154.78,23.21,40.68,38.5,84.2,38.54,132.2l.41,479.8c.02,17.81-17.43,28.24-31.57,28.7-15.31.49-32.8-10.75-32.82-29.19l-.35-456.85c-.11-138.18-116.52-250.57-251-256.8l-89.58.14c-72.43,4.02-137.21,35.59-186.38,87.86-42.11,44.76-67.1,99.14-74.87,161.69ZM1882.4,2206.46l-.35-133.61c-3.51-128.1-107.41-240.63-235.26-240.73l-314.81-.25c-138.02-.11-243.06,116.6-244.05,252.72l.32,134.17c.08,33.59-2.37,65.43-21.91,94.02l834.55.02c-19.73-32.57-25.58-68.02-18.48-106.34Z"/>
  <path class="st0" d="M1392.53,898.46l-79.98,64.04-131.64,97.92c-11.56,8.6-30.35,6.97-42.86,1.95-10.06-4.03-26.2-15.87-26.27-30.98l-.63-133.31c-157.19-3.06-288.79-98.97-354.41-240.13-93.67-201.51-31.59-451.82,156.07-572.98,64.83-41.86,136.86-60.33,214.13-60.35l700-.12c81.14-.01,156.29,17.8,223.9,63.29,95.41,64.2,161.12,163.69,182.5,277.55,27.47,146.33-7.08,301.92-111.28,410.62-68.63,71.59-160.17,120.5-261.18,120.86l-468.33,1.64ZM1345.21,841.68c12.3-10.83,20.32-17.6,37.01-17.61l464.93-.37c75.69-.06,146.04-31.39,201.63-81.02,123.75-110.47,154.28-298.35,84.65-447.43-37.96-81.27-103.71-143.51-186.69-176.18-31.3-11.63-60.55-17.46-94.44-19.4l-750.54.06c-93.86,7.53-178.71,54.14-235.9,128.3-118.94,154.25-103,383.56,44.1,514.53,63.58,56.61,143.81,85.94,229.12,81.17,23.31-1.3,44.73,13.05,44.84,38.04l.46,107.82c55.01-42.17,108.87-82.17,160.82-127.91Z"/>
  <path class="st0" d="M1764.56,1418.69c0,153-124.03,277.03-277.03,277.03s-277.03-124.03-277.03-277.03,124.03-277.03,277.03-277.03,277.03,124.03,277.03,277.03ZM1697.09,1418.81c0-115.75-93.84-209.59-209.59-209.59s-209.59,93.84-209.59,209.59,93.84,209.59,209.59,209.59,209.59-93.84,209.59-209.59Z"/>
  <path class="st0" d="M662.71,1249.7c0,151.13-122.51,273.64-273.64,273.64s-273.64-122.51-273.64-273.64,122.51-273.64,273.64-273.64,273.64,122.51,273.64,273.64ZM595.38,1249.85c0-113.94-92.37-206.31-206.31-206.31s-206.31,92.37-206.31,206.31,92.37,206.31,206.31,206.31,206.31-92.37,206.31-206.31Z"/>
  <path class="st0" d="M2855.56,1247.73c0,151.13-122.51,273.64-273.64,273.64s-273.64-122.51-273.64-273.64,122.51-273.64,273.64-273.64,273.64,122.51,273.64,273.64ZM2788.28,1247.99c0-113.94-92.37-206.31-206.31-206.31s-206.31,92.37-206.31,206.31,92.37,206.31,206.31,206.31,206.31-92.37,206.31-206.31Z"/>
  <circle class="st0" cx="1758.08" cy="479.78" r="61.55"/>
  <circle class="st0" cx="1480.79" cy="479.86" r="61.3"/>
  <circle class="st0" cx="1203.41" cy="479.85" r="61.25"/>
</svg>