<?xml version="1.0" encoding="UTF-8"?>
<svg id="Layer_1" xmlns="http://www.w3.org/2000/svg" version="1.1" viewBox="0 0 2702.02 2976.85">
  <!-- Generator: Adobe Illustrator 30.3.0, SVG Export Plug-In . SVG Version: 2.1.3 Build 182)  -->
  <defs>
    <style>
      .st0 {
        fill: none;
        stroke: #000;
        stroke-miterlimit: 10;
        stroke-width: 111px;
      }
    </style>
  </defs>
  <path d="M2030.82,1732.52c75.95,0,149.56,14.85,218.8,44.14,33.29,14.08,65.41,31.51,95.46,51.82,29.79,20.13,57.81,43.25,83.28,68.71,25.47,25.47,48.59,53.49,68.71,83.28,20.3,30.05,37.73,62.17,51.82,95.46,29.29,69.24,44.14,142.86,44.14,218.8s-14.85,149.56-44.14,218.8c-14.08,33.29-31.51,65.4-51.82,95.46-20.13,29.79-43.25,57.81-68.71,83.28-25.47,25.47-53.49,48.59-83.28,68.71-30.05,20.3-62.17,37.73-95.46,51.82-69.24,29.29-142.86,44.14-218.8,44.14s-149.56-14.85-218.8-44.14c-33.29-14.08-65.41-31.51-95.46-51.82-29.79-20.13-57.81-43.25-83.28-68.71-25.47-25.47-48.59-53.49-68.71-83.28-20.3-30.05-37.73-62.17-51.81-95.46-29.29-69.24-44.14-142.86-44.14-218.8s14.85-149.56,44.14-218.8c14.08-33.29,31.51-65.4,51.81-95.46,20.13-29.79,43.25-57.81,68.71-83.28,25.47-25.47,53.49-48.59,83.28-68.71,30.05-20.3,62.17-37.73,95.46-51.82,69.24-29.29,142.86-44.14,218.8-44.14M2030.82,1623.52c-370.69,0-671.2,300.51-671.2,671.2s300.51,671.2,671.2,671.2,671.2-300.51,671.2-671.2-300.51-671.2-671.2-671.2h0Z"/>
  <path d="M2044.46,2965.7l-1783.38.23c-31.5,0-51.13-18.96-57.15-55.28l1.48-552.73c.33-123.48,17.89-240.7,49.35-357.55,29.84-110.84,73.54-212.79,134.16-305.11,132.35-201.58,334.52-329.11,551.53-349.79,27.78-2.65,48.38,4.29,71.89,15.83,160.74,78.88,321.74,69.34,480.97-10.77,22.21-5.75,42.76-4.91,66.87-1.41,192.12,27.9,371.14,124.36,515.6,274.55l-120.21,34.9c-120.2-109.96-265.32-176.82-416.86-197.86-17.2-2.39-34.15,5.22-49.23,12.22-309.83,143.91-500.71-18.33-541.16-12.73-104.85,14.5-202.45,54.28-291.98,117.5-148.95,105.17-246.49,276.51-295.07,469.52-23.64,103.75-39.58,206.31-39.81,314.93l-1,468.31,1459.54-.14,264.47,135.4Z"/>
  <circle class="st0" cx="1229.98" cy="651.94" r="596.9"/>
  <path d="M1964.26,2630.75c-53.48-10.65-102.62-33.03-142.19-69.84-27.58-25.65-31.78-64.78-9.38-92.48,22.73-28.11,66.32-35.06,94.94-9.89,28.99,25.49,61.33,41.85,100.92,46.13,28.69,3.1,57.3,1.88,83.14-11.97,29.24-15.66,42.86-51.36,25.94-80.88-9.69-16.9-26.98-29.86-45.48-35.64l-78.89-24.64c-35.66-11.14-69.94-21.85-102.12-40.03-57-32.2-90.53-87.69-93.91-153.12-5.42-105.08,64.35-181.3,165.74-200.37l1.3-28.75c5.34-39.37,41.51-63.49,77.43-57.36,39.22,6.7,62.51,43.46,54.64,85.23,48.02,10.71,93.81,28.45,130.26,61.57,27.9,25.35,32.5,65.2,10.15,93.83-21.09,27.02-65.17,37.47-94.24,11.89-45.96-40.45-109.27-56.81-167.63-32.5-21.78,9.07-35.98,27.51-37.36,48.72-1.59,24.5,10.43,44.01,33.02,55.94,52.54,27.75,122.07,30.37,197.14,72.23,61.32,34.19,97.02,94.09,97.02,164.32,0,106.81-64.42,177.52-168.21,197.84,5.57,31.65-4.87,61.87-30.98,77.59-25.42,15.31-59.78,13.31-82.11-9.05-17.46-17.48-23.2-40.63-19.14-68.77h0Z"/>
</svg>