<?xml version="1.0" encoding="UTF-8"?>
<svg id="Layer_1" xmlns="http://www.w3.org/2000/svg" version="1.1" viewBox="0 0 2949.52 2968.05">
  <!-- Generator: Adobe Illustrator 30.3.0, SVG Export Plug-In . SVG Version: 2.1.3 Build 182)  -->
  <defs>
    <style>
      .st0 {
        stroke: #000;
        stroke-miterlimit: 10;
        stroke-width: 42px;
      }
    </style>
  </defs>
  <path class="st0" d="M230.58,505.38c-62.59.26-118.41,55.83-118.45,118.85l-.8,1413.84.21,688.25c.02,81.29,61.93,131.45,139.57,131.41l1936.72-1.05c70.65-.04,121.6-61.81,121.64-129.36l.29-470.34,64.81-95.96c2.19-3.25,11.86-5.31,15.66-4.36,4.35,1.09,11.43,8.55,11.41,14.77l-1.68,572.82c-.32,110.64-94.56,202.83-206.17,202.8l-1969.91-.6c-109.7-.03-202.32-96.55-202.35-204.44l-.53-2114.63c-.03-113.76,88.2-208.78,203.26-212.36l363.78-1.81c-10.02-72.35,38.92-141.65,114.56-146.56l241.73-2.38c16.05-120.96,109.57-218.53,229.57-239.22,156.37-26.97,302.72,83.81,322.7,239.44l242.74,2.13c74.58,4.9,125.25,74.55,113.94,146.78l343.83.79c116.69.27,204.02,98.3,204.05,212.97l.12,341.13-54.39,79.82c-5.26,7.72-14.48,12.03-23.77,8.94-6.44-2.14-13.65-11.51-13.66-21.35l-1.07-411.57c-.11-65.75-55.59-119.36-119.8-119.48l-334.24-.58-.64,134.93c-.26,53.99-47.59,94.64-100.92,97.64l-1063.68-.29c-61.99-.02-103.07-54.47-102.68-112.12l.81-120.36-356.66,1.48ZM1745.15,643.56c9.17,0,20.89-4.71,20.9-14.24l.41-228.35c.04-21.88-13.68-45.62-38.73-45.65l-273.13-.28c-28.6-.03-45.79-23.12-45-50.3,2.28-78.45-44.2-148.4-116.44-179.27-61.32-26.2-129.53-17-184.84,22.73-48.6,34.9-79.8,95.06-77.88,159.69.76,25.47-16.99,47.14-43.23,47.17l-273.43.24c-21.47.02-38.04,19.62-38.03,40.04l.13,227.64c0,14.92,8.96,20.68,23.54,20.68l1045.71-.11Z"/>
  <path class="st0" d="M2785.79,1338.67l-181.33,262.54-477.54,688.88c-11.98,17.28-22.32,28.49-39.37,40.4l-327.03,228.31c-14.97,10.45-34.43,5.82-45.04-2.85-14.59-11.92-16.64-26.34-12.57-45.08l90.03-414.29,99.24-149.12,519.62-764.46,121.82-179.2c47.65-70.09,128.84-103.63,211.83-81.1,38.23,10.38,70.69,31.63,98.35,60.81,59,62.23,71.44,156.35,26.62,230.4l-38.07,57.05,48.64,34.03c48.38,33.85,63.56,107.63,28,158.56l-263.12,376.86c-12.28,17.59-36.31,19.33-51.7,10.56-17.33-9.87-28.1-34.81-15.25-53.37l261.92-378.47c9.99-14.43,2.72-40.65-9.64-49.17l-45.41-31.29ZM2744.77,1255.12l58.89-87.25c9.43-13.98,10.92-34,13.1-51.01-4.12-58.9-45.9-106.23-103.71-116.91-38.52-5.1-80.35,5.12-102.87,37.82l-56.82,82.48,191.41,134.88ZM2506.33,1188.4l-624.78,913.73,193.65,132.41,624.78-913.73-193.65-132.41ZM2006.65,2286.57l-150.09-105.81-52.93,247.77,203.02-141.96Z"/>
  <path class="st0" d="M1253.28,1524.92c-51.86-6.54-99.73-6.1-149.46.65-194.6,26.38-341.32,193.52-332.88,392.24,1.1,26.02-20.4,46.16-43.21,45.9-28.22-.32-43.31-21.78-43.8-48.81-1.93-106.26,28.87-207.34,93.68-291.37,56.72-73.55,130.18-129.88,220.24-160.75-129-92.21-171.8-260.98-96.25-400.58,44.96-83.07,124.3-141.02,209.65-159.64,191.57-41.79,378.15,97.29,383.71,296.13,2.97,106.31-44.96,201.28-131.26,264.01,88.52,31.53,158.8,83.6,214.82,153.19,68.59,85.21,101.57,189.35,99.13,298.98-.6,27.07-15.88,49.02-44.47,48.61-25.02-.36-43.79-20.99-42.71-48.81,7.72-199.35-140.79-364.95-337.18-389.73ZM1407.39,1208.7c0-125.33-101.6-226.93-226.93-226.93s-226.93,101.6-226.93,226.93,101.6,226.93,226.93,226.93,226.93-101.6,226.93-226.93Z"/>
  <path class="st0" d="M1580.49,2248.15l-1115.62.1c-25.34,0-40.98-21.93-41.28-43.17-.3-20.75,15.84-43.98,41.01-43.99l1109.29-.09c25.19,0,42.1,16.67,44.48,39.46,2.01,19.26-10.42,47.69-37.88,47.69Z"/>
  <path class="st0" d="M1476.06,2547.84l-1014.45.03c-24.6,0-38.93-25.3-38.04-44.25,1.01-21.5,16.38-42.92,41.58-42.92l1006.08-.04c25.11,0,42.05,18.27,43.75,40.04,1.56,19.99-11.33,47.14-38.93,47.14Z"/>
  <circle class="st0" cx="1218.58" cy="300.17" r="75.62"/>
</svg>