<?xml version="1.0" encoding="UTF-8"?>
<svg id="Layer_1" data-name="Layer 1" xmlns="http://www.w3.org/2000/svg" viewBox="0 0 3175.56 2985.95">
  <path d="M0,2536.9l11.15,129.96"/>
  <g>
    <path d="M2920.18,1462.09l-1238.18.34c-50.78.01-83.81-37.67-83.77-86.99l.88-1296.08c.03-51.15,45.98-78.06,90.63-79.04,269.66-5.94,531.16,70.04,752.88,223.65,73.66,51.03,143.21,109.62,204.28,174.72,247.46,263.78,373.58,616.62,352.61,977.56-2.5,43-29.18,85.82-79.34,85.84ZM2561.54,556.11c-205.01-236.15-485.67-374.46-797.91-386.55l.08,1124.87,1069.89.06c-1.69-272.85-97.2-531.74-272.07-738.39Z"/>
    <path d="M1734.77,2707.22c48.89-7.04,91.39,20.3,100.92,68.09,8.62,43.23-20.76,91.56-69,97.98-439.26,58.43-885.64-116.28-1188.07-435.8-239.97-253.54-372.69-589.31-374.87-938.51-1.74-277.92,77.89-550.29,231.87-781.38,169.93-255.03,420.51-445.21,713.47-536.7,81.77-25.53,164.61-43.22,250.19-50.65,48.46-4.21,87.11,36.92,88.61,81.1,1.73,51-35.91,82.9-83.22,88.51-337.89,40.09-640.53,228.02-828.92,510.6-142.07,213.11-213.19,466.78-203.43,723.16,12.12,318.41,150.02,619.2,380.35,838.54,200.15,190.6,458.04,310.95,733.7,338.4,83.06,8.27,164.36,8.76,248.4-3.35Z"/>
    <path d="M3175.56,2278.8c0,390.55-316.6,707.15-707.15,707.15s-707.15-316.6-707.15-707.15,316.6-707.15,707.15-707.15,707.15,316.6,707.15,707.15ZM3009.32,2279.24c0-298.74-242.17-540.91-540.91-540.91s-540.91,242.17-540.91,540.91,242.17,540.91,540.91,540.91,540.91-242.17,540.91-540.91Z"/>
  </g>
  <path d="M2658.36,2483.92c30.9.1,52.26,29.28,52.07,55.68-.2,28.68-22.48,55.52-53.48,55.49l-362.95-.33c-25.9-.02-44.77-25.77-47.7-46.51-3.79-26.85,9.93-48.06,32.32-61.2,41.67-24.46,52.47-88.93,42.71-136.98l-43.82-.46c-31.36-.33-52.39-28.54-51.07-57.62,1.33-29.5,24.36-52.81,55.66-53.34l17.1-.29c-5.08-44.47-2.12-87.28,12.87-128.57,29.85-82.2,101.48-138.53,189.5-145.68,72.42-5.88,145.81,24.14,191.65,80.86,20.24,25.04,9.06,63.21-13.54,79.68-26.84,19.55-59.66,13.08-81.93-11.27-25.13-27.48-61.84-39.64-99.59-31.66-32.64,6.9-61.56,31.59-74.9,66.35-10.91,28.42-10.73,59.2-6.39,90.41l122.04.26c29.75.06,52.23,23.78,54.22,51.63,1.97,27.59-16.81,58.38-47.74,58.71l-105.68,1.13c5.77,45.29,1.5,88.82-15.92,132.94l234.58.78Z"/>
</svg>