<?xml version="1.0" encoding="UTF-8"?>
<svg id="Layer_1" xmlns="http://www.w3.org/2000/svg" version="1.1" viewBox="0 0 2287.61 2937.02">
  <!-- Generator: Adobe Illustrator 30.3.0, SVG Export Plug-In . SVG Version: 2.1.3 Build 182)  -->
  <defs>
    <style>
      .st0 {
        stroke: #000;
        stroke-miterlimit: 10;
        stroke-width: 52px;
      }
    </style>
  </defs>
  <path class="st0" d="M2075.92,2911.02l-1858.66-.02c-126.68-11.73-203.67-120.53-189.62-243.12l49.2-549.25,32.56-369.65,90.03-1047.33c2.31-26.82,28.28-49.75,55.05-49.78l401.58-.39.68-151.01c7.8-165.39,98.38-316.99,238.96-403.3,136.78-83.98,304.52-94.28,450.08-27.39,164.75,75.71,278.1,236.29,290.15,417.96l1.58,163.75,401.84.58c29.25.04,51.82,26.33,54.13,53.47l62.37,732.62,54.51,657.35,51.22,609.42c-2.46,105.97-78.7,193.69-185.67,206.11ZM1542.68,651.51l-.26-138.39c-3.95-154.6-97.04-293.86-237.48-356.44-202.28-90.13-439.03,7.69-522.51,211.93-18.46,45.16-31.43,91.43-31.66,141.83l-.63,141.03,792.54.03ZM1637.07,747.28l-.18,174.05c51.07,29.91,63.85,94.43,30.57,139.45-32.99,44.63-96.21,52.86-139.83,15.4-23.58-20.25-34.95-51.6-31.26-82.92,3.34-28.31,18.58-55.38,46.37-71.66l-.05-174.4h-792.55s.3,174.69.3,174.69c53.42,31.13,62.53,101.49,23.99,145.58-39.29,44.95-110.94,43.11-147.34-5.22-34.29-47.25-20.21-110.14,29.03-141.02l-.13-174.11-370.73.2-64.31,756.96-25.11,286.66-75.67,900.34c-5.04,59.91,41.27,123.87,106.19,123.86l1837.88-.18c68.98,0,107.67-70.18,102.42-131.77l-52.28-613.23-80.95-962.13-30.41-360.67-365.94.12Z"/>
  <path class="st0" d="M1145.31,2213.39l-242.09,134.04c-23.58,13.06-48.85,16.15-72.52.29-16.42-11-33.75-35.52-29.72-61.11l46.71-296.72-194.02-191.61c-18.39-18.16-22.05-47.16-14.05-70.5,7.14-20.83,26.84-43.27,53.1-46.55l274.9-34.37,120.29-257.94c10.53-22.58,38.82-32.89,60.37-32.24,22.26.68,45.99,14.01,56.59,36.74l118.18,253.45,261.5,32.56c29.09,3.62,52.18,15.62,63.19,40.28,10.98,24.59,9.62,58.2-10.66,78.16l-195.33,192.27,46.44,295.85c3.65,23.28-9.75,46.26-25.19,58.06-18.45,14.11-45.71,20.17-67.33,8.18l-250.36-138.87ZM1172.47,2119.46l212.56,118.07-41.3-259.17c-3.41-21.41,12.25-35.46,25.41-48.48l161.07-159.28-233.63-30.1c-24.26.71-43.98-12.8-51.24-35.65l-99.96-216.22-99.78,216.09c-7.24,15.69-16.78,31.85-36.57,34.33l-249.73,31.35,168.4,166.18c13.04,11.2,19.76,26.74,18.21,43.6l-40.84,256.99,218.29-120.9c15-8.31,33.37-5.55,49.11,3.19Z"/>
</svg>