<?xml version="1.0" encoding="UTF-8"?>
<svg id="Layer_1" xmlns="http://www.w3.org/2000/svg" version="1.1" viewBox="0 0 2956.74 2554.54">
  <!-- Generator: Adobe Illustrator 30.3.0, SVG Export Plug-In . SVG Version: 2.1.3 Build 182)  -->
  <defs>
    <style>
      .st0 {
        stroke: #000;
        stroke-miterlimit: 10;
        stroke-width: 13px;
      }
    </style>
  </defs>
  <path class="st0" d="M1022.47,2389.41c-298.02-78.43-604.68-82.82-905.54-28.23-51.16,9.28-109.46-38.22-109.48-92.46l-.94-1909.14c12.17-103.14,100.23-109.43,192.13-122.85l.26-152.27c.07-41.64,33.76-73.35,74.37-73.97,98.1-5.07,192.97-2.21,291.37,6.94,151.53,14.09,298.94,40.43,444.66,83.31,110.79,32.66,215.56,73.81,315.99,130.07,55.09,30.86,105.55,65.07,153.06,107.65,100.65-90.19,224.51-150.59,350.57-198.49,228.56-84.18,478.59-125.4,721.87-133.45l141.9,2.24c40.28,6.3,65.84,38.7,65.76,78.65l-.28,148.19c92.91,13.99,184.87,21.61,192.07,126.81l-.72,581.49-1.29,1321.83c-.07,70.58-69.63,105.28-130.36,93.36-310.31-60.89-672.8-40.22-973.9,56.9-84.81,27.36-163.2,62.66-240.36,106.2-39.03,22.02-82.14,24.28-125.39,25.7-56.31,1.85-103.64-11.52-151.99-38.94-94.44-53.57-196.69-91.34-303.76-119.51ZM1708.49,2191.6c254.9-127.79,563.37-182.46,844.84-191.17l99.92,1.08.1-1888.3c-59.36-2.19-115.99.06-174.87,4.3-150.35,10.83-296.51,32.94-442.42,69.73-162.95,43.52-340.46,109.82-471.51,215.74l-34.86,32.76.02,1871.91c57.25-47,114.61-83.46,178.78-116.04ZM1426.97,434.59c-46.4-44.42-95.58-78.24-148.84-108.5-97.59-54.88-200.18-94.19-308.04-126.16-215.24-59.2-443.98-91.99-666.97-84.87l.09,1888.34c216.75-3.99,430.39,19.88,639.62,75,117.1,30.84,228.62,72.44,334.6,129.47,53.37,29.29,101.33,61.02,149.53,99.71V434.59ZM1259.12,2318.4c-171.93-103.45-380.34-157.78-577.05-186.98-138.13-20.51-273.35-28.13-413.12-22.77-34.88,1.34-70.13-28.24-70.13-65.22l-.14-1702.64c-29.17,3.6-58.82,9.32-88.11,20.85l.04,1895.79c343.96-65.68,712.42-46.08,1045.35,62.87,85.84,27.96,163.62,64.07,244.87,107.81-41.57-45.33-89.24-78.12-141.72-109.69ZM1682.93,2364.75c96.29-41.63,192.82-70.47,294.28-93.44,283.27-61.86,581.77-70.28,869.19-13.81l.65-1897.06c-30.05-10.54-58.38-16.5-89.03-20.03l-.13,1693.48c0,48.12-37.18,75.54-82.88,72.9-119.99-6.92-238.24,1.9-357.76,17.14-192.22,24.52-403.14,76.07-573.61,167.54-68.97,37-133.58,78.51-188.99,136.2l128.28-62.92Z"/>
  <path class="st0" d="M1746.93,1668.27c-25.02,7.5-45.8-.96-53.62-22.21-7.44-20.22,1.49-45.39,24.94-52.67,231.05-71.75,512.91-128.31,754.18-145.81,22.3-1.62,38.9,15.72,41.02,35.19,2.01,18.45-10.07,42.68-33.3,44.77-248.66,22.32-492.7,68.59-733.23,140.73Z"/>
  <path class="st0" d="M2470.61,593.6c-247.08,20.04-486.35,66.48-721.89,135.19-24.87,7.26-47.99.22-55.69-23.2-8.31-25.25,5.51-45.49,31.29-53.18,240.99-71.86,487.63-119.32,738.62-140.51,26.18-2.21,47.21,10.36,50.35,35.81,3,24.26-14.33,43.59-42.68,45.89Z"/>
  <path class="st0" d="M1750.58,1042.27c-25.97,7.72-48.63,1.71-57.1-20.51-9.21-24.17,3.51-47.27,28.5-54.7,241.26-71.78,487-120.88,737.83-142.04,24.65-2.08,44.32,3.38,52.3,27.61,5.23,15.87-3.68,48.87-28.75,51.11-248.25,22.18-491.99,66.99-732.78,138.54Z"/>
  <path class="st0" d="M2475.14,1217.65c-257.64,21.96-488,70.41-736.12,140.44-21.67,6.12-42.05-9.33-46.67-27.47-6.05-23.73,5.93-43.15,29.69-50.24,241.42-72.08,488.35-119.99,739.26-143.07,25.44-2.34,46.56,7.44,51.72,32.59,4.64,22.62-11.75,45.52-37.87,47.75Z"/>
  <path class="st0" d="M1217.07,1690.84l-188.61-48.3c-173.05-37.14-346.86-57.31-523.92-61.85-23.6-.6-39.35-14.62-41.44-36.68-1.78-18.8,11.49-42.78,35.13-42.78,111.82,0,220.29,9.59,331.58,24.38,138.73,18.43,273.15,46.69,406.3,86.9,22.2,6.7,33.28,26.1,29.71,46.75-3.49,20.2-23.98,37.94-48.74,31.6Z"/>
  <path class="st0" d="M1212.15,1982.35c-235.22-74.9-470.72-107.05-715.32-115.23-22.83-.76-35.78-25.77-33.82-43.62,2.83-25.63,22.16-36.89,47.64-36.23,245.41,6.34,487.22,43.32,721.41,115.9,23.76,7.36,38.22,25.23,33.68,48.92-4.41,23.07-27.86,38.46-53.6,30.26Z"/>
  <path class="st0" d="M528.27,514.15l-.52,67.73c-.16,20.21-15.34,34.55-34.15,33.74-19.21-.82-31.9-16.46-31.65-36.69l.84-69.43c.73-59.94,55.93-98.63,113.5-91.86l41.59,4.89c16.02,1.88,22.66,20.18,22.04,34.2-.56,12.69-10.89,31.92-27.52,30.91l-48.27-2.91c-16.92-1.02-35.7,8.78-35.86,29.42Z"/>
  <path class="st0" d="M1134.75,1378.81c-18.36-5.31-25.85-21.94-23.53-38.25,2.11-14.81,17.39-31.02,35.02-26.11l54.48,15.16c4.76,1.33,15.8.72,19.47-1.68,4.2-2.75,9-11.53,9.03-17.15l.31-59.81c.09-18.17,13.57-31.01,30.24-32.46,15.53-1.35,34.28,10.68,34.33,29.46l.21,69.55c.08,27.1-15.17,50.74-34.09,64.67-23.42,17.23-50.46,18.35-77.53,10.51l-47.94-13.88Z"/>
  <path class="st0" d="M1230.15,689.04l-.8-52.79c-.27-17.97-11.15-34.03-28.82-39.42l-39.47-12.04c-16.62-5.07-23.85-24.31-19.71-39.78,3.89-14.54,20.67-28.27,37.36-23.27l44.75,13.42c38.25,11.47,66.72,47.96,69.94,88.69l.12,66.38c.03,16.35-17.96,26.07-31.3,26.28-13.78.22-31.8-9.61-32.07-27.48Z"/>
  <path class="st0" d="M528.2,1203.12c.55,47.5,75.22,6.88,78.28,58.69,1.43,24.16-16,35.25-39.3,36.05-51.66,1.78-100.17-32.04-103.82-86.47l-.58-71.59c-.14-17.77,16.09-28.69,30.86-29.22,16.43-.59,33.61,10.38,33.82,29.14l.73,63.4Z"/>
  <path class="st0" d="M803.35,1249.7c18.86,1.79,32.14,15.01,32.35,33.19.2,16.61-13.17,35.33-32.77,33.43l-108.84-10.55c-19.2-1.86-33.25-10.43-36.15-30.1-2.24-15.16,10.16-38.82,29.97-36.93l115.43,10.97Z"/>
  <path class="st0" d="M1037.04,1288.04c18.44,3.35,27.45,23.2,23.99,39.07-3.59,16.45-19.7,29.57-38.03,26.12l-114.41-21.53c-16.7-3.14-24.69-21.36-22.48-36.74,2.1-14.6,15.24-31.6,33.7-28.24l117.22,21.32Z"/>
  <path class="st0" d="M1068.64,494.91c20.99,4.33,26.82,27.19,21.22,43.43-6.35,18.43-23.96,23.66-43.25,19.6l-104.85-22.09c-17.52-3.69-26.81-20.58-25.04-37.08,1.48-13.78,15.76-31.94,33.62-28.25l118.29,24.4Z"/>
  <path class="st0" d="M845.29,451.49c17.28,2.56,23.86,23.53,20.89,37.88-2.86,13.85-16.05,28.37-33.49,25.99l-108.45-14.81c-19.08-2.61-31.99-13.69-33.12-32.54-1-16.65,12.94-37.43,33-34.46l121.16,17.94Z"/>
  <path class="st0" d="M528.25,1020.71c.18,22.73-14.86,37.06-34.69,36.55-20.56-.53-31.86-17.21-31.61-38.26l1.18-102.15c.19-16.38,16.71-26.6,30.71-27.21s33.45,10.04,33.59,27.24l.82,103.83Z"/>
  <path class="st0" d="M528.3,800.7c.19,19.68-12.63,32.55-29.24,35.2-14.36,2.3-35.82-7.48-36-25.37l-1.01-102.12c-.2-19.84,7.3-33.99,26.76-38.56,15.51-3.64,38.27,6.98,38.47,27.12l1.02,103.72Z"/>
  <path class="st0" d="M1294.05,912.19c.07,19.02-17.68,28.56-31.92,28.91-14.59.36-32.24-10.02-32.26-27.59l-.15-114.69c-.02-16.86,15.98-26.7,29.66-27.8,13.93-1.11,34.15,7.29,34.22,25.02l.46,116.15Z"/>
  <path class="st0" d="M1293.91,1138.17c.02,17.42-19.62,26.63-31.34,26.72-15.95.12-28.43-9.36-33.17-25.41l.17-114.6c.03-17.55,15.1-28.72,29.94-30.02,15.07-1.32,34.24,8.9,34.26,27.23l.13,116.08Z"/>
</svg>