<?xml version="1.0" encoding="UTF-8"?>
<svg id="Layer_1" xmlns="http://www.w3.org/2000/svg" version="1.1" viewBox="0 0 2861.52 2498.36">
  <!-- Generator: Adobe Illustrator 30.3.0, SVG Export Plug-In . SVG Version: 2.1.3 Build 182)  -->
  <defs>
    <style>
      .st0 {
        stroke: #000;
        stroke-miterlimit: 10;
        stroke-width: 58px;
      }
    </style>
  </defs>
  <path class="st0" d="M1990.56,2280.83c-100.68,65-210.37,107.15-329.85,109.68l-165.1-4.36-656.49-53.41c-53.65-4.36-107.66,6.17-149.29,37.7l-98.36,83.17c-18.06,15.27-51.01,24.63-69.62,3.22l-202.34-232.85L39.32,1897.9c-18.09-21.06-10.38-49.41,7.62-66.82l341.39-330.14c41.44-40.07,84.51-73.92,133.1-104.26,68.04-42.48,141.1-68.92,221.35-77.87,127.47-14.21,255.36,3.43,372,56.51l175.25,79.75c29.63,13.48,54.9,20.04,87.92,21.21l410.96,14.51c121.62,10.32,211.28,92.48,197.68,218.42l557.09-247.36c42.67-20.77,85.67-30.41,132.5-24.46,70.05,8.89,127.08,56.84,147.71,124.7,20.21,66.49,4.1,136.49-39.27,190.37-22.94,28.5-49.89,47.93-81,68.02l-713.03,460.35ZM2601.04,1536.11l-723.93,320.5c-35.88,15.88-73.71,17.14-111.83,16.84l-615.38-4.86c-27.75-.22-45.35-25.73-42.89-49.14,2.66-25.32,21.99-41.52,48.66-41.35l284.23,1.82,346.2,2.21c68.58.44,115.81-44.17,111.86-104.64-2.23-34.11-23.25-65.73-56.39-81.15-25.82-12.02-52.74-15.05-82.23-16.13l-396.25-14.46c-40.96-1.5-76.7-12.43-113.42-28.94l-189.87-85.35c-131.76-53.18-289.01-65.31-422.4-12.62-59.04,27.36-114.3,59.21-161.99,105.02l-339.75,326.45,422.55,492.54,65.36-55.67c44.39-37.81,100.21-57.62,158.57-63.05,34.24-3.19,65.6-1.57,100.15,1.23l633.92,51.41,145.71,2.87c101.77-1.84,192.34-39.13,276.34-93.29l726.93-468.77c32.59-21.01,59.92-45.64,71.92-82.74,13.25-40.93,3.21-87.58-32.77-112.43-30.16-20.82-67.72-22.05-103.3-6.3Z"/>
  <path class="st0" d="M1664.86,1293.81c-57.16,55.91-136.28,45.95-190.09-6.24l-376.87-365.56-78.18-76.44c-30.99-30.3-58.68-60.81-85.42-95.31-76.95-99.25-108.77-223.45-92.73-348.16,26.47-196.12,183.83-347.12,379.61-370.16,132.52-15.6,261.65,31.12,352.48,133.14,104.87-114.7,260.14-161.02,408.99-122.66,200.23,51.6,333.24,239.35,319.33,445.83-7.95,117.95-53.64,228.48-138.05,312.42l-305.57,303.87-193.51,189.26ZM1857.02,978.74l241.63-240.56c73.63-77.56,115.89-178.96,113.67-285.75-2.45-117.69-63.87-223.49-163.11-283.53-109.59-66.3-245.58-63.95-351.45,8.32-32.27,22.03-59.55,47.98-85.13,77.48-10.62,12.25-23.37,20.43-38.24,21.09s-28.69-5.54-39.03-16.79l-46.84-50.97c-69.84-66.51-162.83-96.52-258.69-84.39-151.6,19.18-272.05,132.71-296.72,284.17-16.51,101.31,9.8,204.73,72.02,286.36,23.61,30.98,47.73,57.51,75.92,84.81l428.07,414.71,39.59,37.98c15.79,15.15,37.59,13.1,52.85-1.88l123.97-121.65,131.49-129.41Z"/>
</svg>