<?xml version="1.0" encoding="UTF-8"?>
<svg id="Layer_1" xmlns="http://www.w3.org/2000/svg" version="1.1" viewBox="0 0 2702.02 2976.85">
  <!-- Generator: Adobe Illustrator 30.3.0, SVG Export Plug-In . SVG Version: 2.1.3 Build 182)  -->
  <defs>
    <style>
      .st0 {
        fill: none;
        stroke: #000;
        stroke-miterlimit: 10;
        stroke-width: 111px;
      }
    </style>
  </defs>
  <path d="M2030.82,1732.52c75.95,0,149.56,14.85,218.8,44.14,33.29,14.08,65.41,31.51,95.46,51.82,29.79,20.13,57.81,43.25,83.28,68.71,25.47,25.47,48.59,53.49,68.71,83.28,20.3,30.05,37.73,62.17,51.82,95.46,29.29,69.24,44.14,142.86,44.14,218.8s-14.85,149.56-44.14,218.8c-14.08,33.29-31.51,65.4-51.82,95.46-20.13,29.79-43.25,57.81-68.71,83.28-25.47,25.47-53.49,48.59-83.28,68.71-30.05,20.3-62.17,37.73-95.46,51.82-69.24,29.29-142.86,44.14-218.8,44.14s-149.56-14.85-218.8-44.14c-33.29-14.08-65.41-31.51-95.46-51.82-29.79-20.13-57.81-43.25-83.28-68.71-25.47-25.47-48.59-53.49-68.71-83.28-20.3-30.05-37.73-62.17-51.81-95.46-29.29-69.24-44.14-142.86-44.14-218.8s14.85-149.56,44.14-218.8c14.08-33.29,31.51-65.4,51.81-95.46,20.13-29.79,43.25-57.81,68.71-83.28,25.47-25.47,53.49-48.59,83.28-68.71,30.05-20.3,62.17-37.73,95.46-51.82,69.24-29.29,142.86-44.14,218.8-44.14M2030.82,1623.52c-370.69,0-671.2,300.51-671.2,671.2s300.51,671.2,671.2,671.2,671.2-300.51,671.2-671.2-300.51-671.2-671.2-671.2h0Z"/>
  <path d="M2206.49,2484.02c28.58.09,48.33,27.08,48.16,51.49-.18,26.52-20.79,51.35-49.46,51.32l-335.66-.31c-23.95-.02-41.4-23.83-44.11-43.01-3.51-24.83,9.18-44.45,29.89-56.6,38.54-22.62,48.53-82.24,39.5-126.68l-40.53-.43c-29-.31-48.45-26.39-47.23-53.29,1.23-27.28,22.53-48.84,51.48-49.33l15.81-.27c-4.7-41.13-1.96-80.72,11.9-118.9,27.61-76.02,93.85-128.12,175.25-134.73,66.98-5.44,134.85,22.33,177.24,74.78,18.72,23.16,8.38,58.46-12.52,73.69-24.82,18.08-55.17,12.1-75.77-10.42-23.24-25.41-57.19-36.66-92.1-29.28-30.19,6.38-56.93,29.22-69.27,61.36-10.09,26.28-9.92,54.75-5.91,83.61l112.86.24c27.51.06,48.3,21.99,50.14,47.75,1.82,25.52-15.55,53.99-44.15,54.3l-97.74,1.04c5.34,41.89,1.39,82.14-14.72,122.95l216.94.72h0Z"/>
  <path d="M2044.46,2965.7l-1783.38.23c-31.5,0-51.13-18.96-57.15-55.28l1.48-552.73c.33-123.48,17.89-240.7,49.35-357.55,29.84-110.84,73.54-212.79,134.16-305.11,132.35-201.58,334.52-329.11,551.53-349.79,27.78-2.65,48.38,4.29,71.89,15.83,160.74,78.88,321.74,69.34,480.97-10.77,22.21-5.75,42.76-4.91,66.87-1.41,192.12,27.9,371.14,124.36,515.6,274.55l-120.21,34.9c-120.2-109.96-265.32-176.82-416.86-197.86-17.2-2.39-34.15,5.22-49.23,12.22-309.83,143.91-500.71-18.33-541.16-12.73-104.85,14.5-202.45,54.28-291.98,117.5-148.95,105.17-246.49,276.51-295.07,469.52-23.64,103.75-39.58,206.31-39.81,314.93l-1,468.31,1459.54-.14,264.47,135.4Z"/>
  <circle class="st0" cx="1229.98" cy="651.94" r="596.9"/>
</svg>