<?xml version="1.0" encoding="UTF-8"?>
<svg id="Layer_1" xmlns="http://www.w3.org/2000/svg" version="1.1" viewBox="0 0 2992.58 2988.7">
  <!-- Generator: Adobe Illustrator 30.3.0, SVG Export Plug-In . SVG Version: 2.1.3 Build 182)  -->
  <defs>
    <style>
      .st0 {
        fill: red;
      }

      .st1 {
        stroke: #000;
        stroke-miterlimit: 10;
        stroke-width: 25px;
      }
    </style>
  </defs>
  <path class="st0" d="M3639.25,796.7"/>
  <path class="st1" d="M1376.36,2162.11l-315.46,495.03-156.23,246.17c-66.78,83.12-185.84,98.44-272.25,36.54-68.85-51.18-97.7-142.06-68.92-223.95l184.36-367.28,373.59-731.24,172.03-388.42,101.92-230.7c-26.79-150.14-39.21-300.98-33.27-453.41,2.56-65.65,8.92-128.7,22.03-192.67,9.57-45.23,22.68-86.84,42.96-127.99C1520.43,34.91,1734.49.75,1926.93,43.6c228.49,50.88,430.88,182.75,571.94,369.01,29.07,38.39,54.51,77.68,76.78,120.36,85.54,163.99,75.6,311.62-53.2,447.4-42.44,44.74-89.57,82.11-139.56,118.6-136.44,94.55-277.93,166.7-433.43,225.44l-276.66,388.3-113.03,158.88-183.42,290.52ZM1842.17,943.22l-138.37,211.79,55.36,29.59,167.74-169.53,116.07-115.95,91.37-90.35,46.8-43.83c2.43-2.27,10.82-2.79,10.87-.34l.2,9.71-38.53,47.64c-110.5,133.56-225.03,262.11-344.26,387.99l38.01,17.14c137.66-97.4,271.74-195.55,405.48-297.16l44.14-31.1c1.87-1.32,7.9-.52,9.4,1.22s.72,7.93-1.33,9.92c-105.22,102.37-216.23,196.25-331.26,287.33l-69.44,54.98,15.07,4.78c128.13-55.98,252.23-118.82,369.79-194.63,50.24-32.4,96.53-67.16,140.64-106.77,67.02-60.18,121.84-136.37,116.18-229.1-4.43-72.53-36.78-143.44-75.58-204.69-97.58-154.06-240.34-273.51-408.51-344.25-125.4-52.74-278.95-85.3-410.03-43.66-84.02,26.69-139.3,85.9-168.72,168.16-15.28,42.7-23.09,85.54-29.04,130.7-23.26,176.64-10.75,377.24,12.61,554.2,1,7.59,3.76,12.94,11.19,16.06l26.7-171.5c17.15-110.12,40.52-217.28,68.49-324.65,1.05-4.02,7.15-8.67,9.98-7.64,2.42.88,6.2,6.69,5.88,9.76l-6.03,56.73-45.57,390.18-10.18,85.67,34.68,23.77,80.93-189.83,146.01-306.53c2.51-5.27,9.52-13.84,14-12.76,7.58,1.83,5.22,12.01,2.94,18.06l-113.56,302.15-85.86,219.93,51.49,31.46,142.71-204.12,185.52-256.21,23-27.21c1.45-1.72,8.87-3.65,9.26-1.59l1.95,10.29c-56.9,99.74-115.55,197.39-178.19,294.2ZM1579.07,1701.13l159.73-223.98,112.22-158.12c-144.38-59.21-278.45-137.18-403.5-232.81l-59.99,136.05-167.88,378.26c90.65,81.83,193.28,137.07,306.79,175.77l52.64-75.16ZM836,2853.61l158.17-249.97,224.06-351.38,257.16-403.64c-108.66-39.45-205.52-92.89-293.27-168.11l-297.45,586.07-124.95,247.24-115.5,230.16c-5.39,10.74-6.99,24.74-6.94,36.25.22,47.4,30.42,87.58,71.01,103.75,45.61,17.51,94.76,6.85,127.71-30.37Z"/>
</svg>