<?xml version="1.0" encoding="UTF-8"?>
<svg id="Layer_1" xmlns="http://www.w3.org/2000/svg" version="1.1" viewBox="0 0 930.38 2722.83">
  <!-- Generator: Adobe Illustrator 30.3.0, SVG Export Plug-In . SVG Version: 2.1.3 Build 182)  -->
  <path d="M742.25,2702.63v.03M165.4,2701.42c-17.3,0-25.38-20.86-24.55-33.52.92-14.09,11.82-29.38,28.68-29.39l263.35-.2-.04-895.11-243.85.07c-18.63,0-34.69-3.3-49.63-13.9-12.13-11.47-20.07-25.5-25.34-41.94-23.33-72.7-32.93-146.83-31.41-223.62,1.54-77.86,19.74-151.45,53.78-220.98l34.95-71.42c55.26-112.91,42-228.29-16.94-337.4l-55.4-102.56c-42.16-78-79.32-178.7-77.96-266.99.77-49.63,44.14-61.39,85.93-75.46l108.24-36.42c14.7-4.95,28.35-11.41,41.71-18.91,14.76-8.27,25.21-22.08,27.86-39.41,5.07-33.15,6.68-65.97,8.56-99.8,1.16-20.78,16.52-35.82,37.19-40.71,33.33-7.9,67.33-9.16,102.62-10.34l-.05-67.62-19.07-1.29c-13.99-.94-21.66-14.35-22.03-26.61-.36-12.26,9.38-26.51,23.99-26.57l92.86-.34c14.46-.05,25.33,10.57,27.09,23.66,1.74,13.09-5.43,25.7-19.09,30.04l-20.9.95.13,67.88c33.79,1.06,67.55,2.74,99.18,10.89,24.82,6.39,37.76,23.29,38.24,47.8.6,30.04,2.91,59.58,7.08,89.27,4.41,31.51,30.17,46.32,60.64,56.5l145.67,48.73c14.41,4.82,27.9,12.01,39.7,20.89,18.21,13.68,23.79,35.16,22.67,57.9-5.57,113.51-51.54,208.27-105.24,305.66-18.07,32.77-34.37,63.96-48.88,98.3-41.56,98.37-36.98,207.55,11.95,302.27l45.37,95.25c22.47,53.83,35.46,108.83,38.29,167.39,4.18,85.98-4.72,169.88-32.27,250.74-10.58,27.78-32.3,47.59-63.42,47.66l-261.99.57.03,894.98,262,.25c16.08.02,26.83,16.43,27.72,29.13,1.09,15.72-7.18,29.2-24.62,34.11l-592.75-.4h-.02ZM745.17,1694.32c12.49,0,19.23-6.2,21.64-16.18,38.47-158.54,42.69-271.14-31.55-420.13l-43.71-98.04c-14.37-38.59-20.24-77.42-21.42-118.59-3.14-108.81,32.19-183.55,81.87-275.92l43.56-81c31.7-63.24,52-130.27,58.91-200.92,1.25-12.71-3.42-21.08-15.82-24.95l-132.51-41.27c-25.4-7.91-48.94-17.82-71.38-31.07-25.27-14.91-42.37-37.63-47.34-66.6-5.41-31.46-7.85-61.93-10.06-93.99-.37-5.44-3.08-12.3-9.04-13.2-69.69-10.56-138.54-10.92-208.25-.39-6.37.96-10.96,6.36-11.4,12.49-2.32,31.71-4.41,61.92-9.16,93.26-9.03,59.47-68.94,83.14-124.17,100.72l-126.96,40.44c-10.31,3.27-14.6,11.77-13.64,22.27,4.8,52.02,17.31,100.95,36.16,149.7,17.66,45.64,40.45,86.72,64.63,129.17,22.71,39.91,42.59,78.95,59.32,121.68,36.47,93.02,38.23,195.75,2.66,289.25l-37.57,82.36c-20.98,46.01-40.55,91.22-50.28,141.21-19.4,99.55-5.14,187.38,18.79,283.72,2.66,10.71,10.85,15.95,22.78,15.95l553.87.05h.04v-.02h.02Z" fill="#010101" stroke="#010101" stroke-miterlimit="10" stroke-width="42"/>
</svg>