<?xml version="1.0" encoding="UTF-8"?>
<svg id="Layer_1" xmlns="http://www.w3.org/2000/svg" version="1.1" viewBox="0 0 972.56 2736">
  <!-- Generator: Adobe Illustrator 30.3.0, SVG Export Plug-In . SVG Version: 2.1.3 Build 182)  -->
  <defs>
    <style>
      .st0 {
        fill: #010101;
        stroke: #010101;
        stroke-miterlimit: 10;
        stroke-width: 84px;
      }
    </style>
  </defs>
  <path class="st0" d="M756.61,2681.03v.03M192.43,2679.85c-16.92,0-24.82-20.4-24.01-32.78.9-13.78,11.56-28.73,28.05-28.74l257.56-.2-.04-875.44-238.49.07c-18.22,0-33.93-3.23-48.54-13.59-11.86-11.22-19.63-24.94-24.78-41.02-22.82-71.1-32.21-143.6-30.72-218.71,1.51-76.15,19.31-148.12,52.6-216.12l34.18-69.85c54.05-110.43,41.08-223.27-16.57-329.99l-54.18-100.31c-41.23-76.29-77.58-174.77-76.25-261.12.75-48.54,43.17-60.04,84.04-73.8l105.86-35.62c14.38-4.84,27.73-11.16,40.79-18.49,14.44-8.09,24.66-21.59,27.25-38.54,4.96-32.42,6.53-64.52,8.37-97.61,1.13-20.32,16.16-35.03,36.37-39.82,32.6-7.73,65.85-8.96,100.37-10.11l-.05-66.13-18.65-1.26c-13.68-.92-21.18-14.03-21.55-26.03-.35-11.99,9.17-25.93,23.46-25.99l90.82-.33c14.14-.05,24.77,10.34,26.49,23.14,1.7,12.8-5.31,25.14-18.67,29.38l-20.44.93.13,66.39c33.05,1.04,66.07,2.68,97,10.65,24.27,6.25,36.93,22.78,37.4,46.75.59,29.38,2.85,58.27,6.92,87.31,4.31,30.82,29.51,45.3,59.31,55.26l142.47,47.66c14.09,4.71,27.29,11.75,38.83,20.43,17.81,13.38,23.27,34.39,22.17,56.63-5.45,111.02-50.41,203.69-102.93,298.94-17.67,32.05-33.61,62.55-47.81,96.14-40.65,96.21-36.17,202.99,11.69,295.63l44.37,93.16c21.98,52.65,34.68,106.44,37.45,163.71,4.09,84.09-4.62,166.15-31.56,245.23-10.35,27.17-31.59,46.54-62.03,46.61l-256.23.56.03,875.32,256.24.24c15.73.02,26.24,16.07,27.11,28.49,1.07,15.37-7.02,28.56-24.08,33.36l-579.73-.39ZM759.46,1694.87c12.22,0,18.81-6.06,21.16-15.82,37.62-155.06,41.75-265.18-30.86-410.9l-42.75-95.89c-14.05-37.74-19.8-75.72-20.95-115.98-3.07-106.42,31.48-179.52,80.07-269.86l42.6-79.22c31-61.85,50.86-127.41,57.62-196.51,1.22-12.43-3.34-20.62-15.47-24.4l-129.6-40.36c-24.84-7.74-47.86-17.43-69.81-30.39-24.71-14.58-41.44-36.8-46.3-65.14-5.29-30.77-7.68-60.57-9.84-91.92-.36-5.32-3.01-12.03-8.84-12.91-68.16-10.33-135.5-10.68-203.67-.38-6.23.94-10.72,6.22-11.15,12.22-2.27,31.01-4.31,60.56-8.96,91.21-8.83,58.16-67.43,81.31-121.44,98.51l-124.17,39.55c-10.08,3.2-14.28,11.51-13.34,21.78,4.69,50.88,16.93,98.73,35.37,146.41,17.27,44.64,39.56,84.81,63.21,126.33,22.21,39.03,41.65,77.22,58.02,119.01,35.67,90.98,37.39,191.45,2.6,282.89l-36.74,80.55c-20.52,45-39.66,89.22-49.18,138.11-18.97,97.36-5.03,183.26,18.38,277.49,2.6,10.47,10.61,15.6,22.28,15.6l541.7.05h.04v-.02Z"/>
</svg>