<?xml version="1.0" encoding="UTF-8"?>
<svg id="Layer_1" xmlns="http://www.w3.org/2000/svg" version="1.1" viewBox="0 0 2992.58 2988.7">
  <!-- Generator: Adobe Illustrator 30.3.0, SVG Export Plug-In . SVG Version: 2.1.3 Build 182)  -->
  <defs>
    <style>
      .st0 {
        fill: red;
      }

      .st1 {
        stroke: #000;
        stroke-miterlimit: 10;
        stroke-width: 40px;
      }
    </style>
  </defs>
  <path class="st0" d="M3639.25,796.7"/>
  <g>
    <path class="st1" d="M885.96,1879.63c11.12-104.72,8.12-205.51-2.26-308.88-79.82-78.02-145.05-168.97-191.38-270.78-94.46-207.56-72.16-491.54,108.01-643.88,22.71-18.57,46.24-33.35,72.92-44.78l10.17,2.19c2.05.44-1.03,7.52-2.51,9.04-100.15,102.55-153.25,238.51-152.93,382.3.15,65.07,6.1,126.14,26.22,188.16,30.19,93.04,79.96,175.48,144.04,249.28,52.76,60.78,110.17,114.02,174.68,161.8,23.71,17.56,49.02,31,76.18,41.06,25.5,9.44,50.85,10.32,76.37.79,46.56-17.38,86.68-43.89,123.87-77.43,82.58-74.44,165.92-187.17,190.44-296.36,3.43-15.27,6.49-34.51,1.92-49.58-13.59-44.75-34.92-85.49-65.77-120.52-40.39-45.86-88.34-82.37-143.11-109.21l-88.9-43.56c-65.96-32.32-127.69-68.53-181.09-119.48-84.17-80.31-134.36-189.13-136.05-305.46-.16-11.06,3.34-18.08,12.19-25.62l6.99,18.48c42.79,113.13,118.11,211.15,217.17,281.07,43.12,30.43,88.05,52.6,134.82,75.89l104.4,51.98c43.91,21.86,81.28,50.66,117.02,84.53,38.77,36.73,68.7,80.07,90.59,128.74l28.23,74.13c44.9,141.3,127.13,261.61,263.86,325.03l106.99,49.62c51.79,24.02,97.36,53.71,141.88,89.78,82.58,72,140.99,165.23,170.38,271.11,13.59,48.96,19.63,96.37,25.57,147.58,52.94-79.82,66.7-157.64,65.37-253.17-1.13-81.65-24.57-158.79-65.88-228.78-17.64-29.89-35.4-57.01-59.1-82.59-42.97-46.38-93.89-82.26-150.5-110.61l-112.45-56.29c-70.4-35.25-131.76-84.31-182.04-145.35-79.58-96.6-123.1-223.39-159.26-342.97-17.57-58.1-36.28-113.16-58.93-169.41-52.39-130.04-128.78-241.66-255.84-306.25-33.89-17.23-70.16-27.23-106.45-37.55l-43.47-12.36c9.8-11.37,18.31-11.99,30.44-11.86,66.96.72,132.02,16.35,192.65,45.9,46.51,22.66,86.64,53.26,124.25,89.04,65.82,62.63,111.97,138.98,146.99,222.62l66.44,180.19c60.57,164.26,119.8,295.4,278.27,388.79l98.86,51.96c69.64,36.59,135.54,76.85,191.31,133.18,87.09,87.96,137.52,203.63,147.34,326.91l.18,103.54c-11.63,117.89-54.42,234.07-148.54,308.82-7.49,107.95-46.9,208.79-120.37,288.02-28.81,31.64-62.19,55.9-102.25,70.29l-11.9-4.16c-2.98-1.04.41-9.43,2.61-11.79l30.69-32.96c41.05-52.05,71.78-109.7,90.05-174.25,32.36-114.3,31.34-233.9-2.76-347.46-41.59-138.48-138.13-244.03-269.4-301.76l-100.6-44.24c-116.41-49.62-209.2-138.17-263.19-255.84-19.32,44.4-40.39,84.06-66.81,123.18-8.25,68.03-6.02,134.57,9.34,201.03,21.14,95.3,74.82,174.31,151.98,232.9,34.73,26.36,65.73,52.95,95.08,85.53,128.97,143.2,140.52,368.89,9.88,513.46l-80.22,75.91c-57.36,52.39-81.48,126.9-65.43,203.3l-3.44,12.09c-2.53,8.89-38.51-22.28-41.54-86.95-2.09-44.8,6.86-86.23,30.19-124.53,38.8-63.71,100.48-102.03,138.06-198.24,41.56-106.38,24.64-225.59-48.34-313.28-25.68-30.85-54.66-54.97-86.87-78.67-43.12-31.73-80.95-66.05-114.18-108.27-68.42-88.37-89.12-195.36-94.65-306.26-48.05,48.58-98.8,88.61-158.15,117.47-37.22,18.11-76.03,24.18-116.57,17.44-75.43-18.76-126.57-56.93-183.33-105.7,6.72,80.45,4.9,154.57-8.86,230.43-17.45,99.48-63.6,209.87-144.42,270.57-7.39,5.55-15.94,7.73-24.51,2.31,49.29-79.48,79.2-165.16,89.31-260.32v-.03Z"/>
    <path class="st1" d="M872.13,359.96c-59.96,12.45-125.28,59.32-166.62,102.22-66.95,69.48-115,152.5-141.89,245.76-59.69,206.99-41.75,422.24,58.62,613.44l85.95,163.74c91.97,175.22,145.41,458.91,50.72,635.39-59.94,111.71-153.49,119.13-147.05,106.38l4.33-8.57c57.32-49.38,92.13-115.26,104.1-190.73,32.07-210.35-34.78-379.51-131.31-561.61-29.99-56.57-58.5-110.53-82.91-169.64-41.09-99.49-62.37-201.66-63.89-309.47-1.66-117.66,12.47-231.42,52.42-341.75,55.37-152.93,162.79-282.95,313.85-348.08,28.33-70.38,79.98-124.27,140.8-168.72,115.03-78.05,250.58-110.77,389.47-100.9,94.53,6.72,183.94,29.42,268.47,71.68,190.84,95.4,293.99,253.69,364.53,449.95l50.28,163.29c39.74,129.07,73.38,270.87,182.19,364.81,28.99,25.03,62,41.18,96.33,57.1l74.11,34.37c27.7,12.85,51.07,31.5,73.85,52.75,68.59,63.99,102.29,155.47,102.1,249.27-.06,27.13-2.08,51.87-11.2,77.51-16.2-2.47-23.26-16.12-24.12-30.25-2.89-47.07-11.84-91.02-31.51-133.58-28.96-62.65-75.42-111.68-140.1-136.9l-84.3-32.88c-171.77-66.98-254.64-229.31-301.06-399.35l-40.69-149.08c-27.5-100.74-67.97-196.94-122.49-285.06-118.9-192.15-334.5-296.65-559-272.41-86.48,9.33-167.96,37.62-237.63,89.91-55.94,41.98-99.45,94.51-126.31,161.4h-.01Z"/>
    <path class="st1" d="M1852.75,2886.69c18.05,45.6,62.23,55.41,63.61,71.06,2.04,23.12-149.95-3.83-157.26-167.12-2.37-52.87,11.71-101.59,42.46-144.52,21.73-30.34,47.92-55.17,74.66-81.52l80.14-78.95c153.26-175.68,132.16-433.46-26.65-595.67l-91.27-77.1c-36.08-30.49-67.6-65.32-86.78-108.23-5.72-12.81-10.42-26.41-3.36-40.34,31.38,42.63,65.34,78.18,109.41,105.14l82.22,50.28c151.47,92.64,223.54,254.99,215.24,431.08-5.28,112.21-48.27,214.97-123.54,297.78l-69.45,65.98-62.97,60.16c-17.64,16.86-28.19,38.54-38.85,60.68-22.9,47.55-27.11,101.99-7.6,151.29h0Z"/>
  </g>
</svg>