<?xml version="1.0" encoding="UTF-8"?>
<svg id="Layer_1" xmlns="http://www.w3.org/2000/svg" version="1.1" viewBox="0 0 3013.58 1835.56">
  <!-- Generator: Adobe Illustrator 30.3.0, SVG Export Plug-In . SVG Version: 2.1.3 Build 182)  -->
  <path d="M755.76,1803.9c-101.94,44.32-212.9,17.35-284.41-65.39-39.39-45.58-66.36-97.88-85.16-156.03-18.31-56.61-31.32-112.12-43.76-170.89-21.67-102.43-53.81-198.46-100-292.5l-82.88-155.12-54.74-110.36c-55.28-124.45-88.12-255.92-93.74-392.44-5.07-122.87,23.11-260.42,105-351.75C193.46,23.09,311.41-8.02,420.77,31.36c88.34,31.82,160.57,106.73,209.52,186.78,67.3,110.07,109.78,231.4,125.7,360,10.69,86.36,8.79,168.96-.04,254.98-11.83,115.27-10.17,249.96,39.67,353.45,69.4,144.09,140.97,356.11,74.09,504.62-22.97,51.01-61.44,89.87-113.94,112.7ZM718.1,1189.65c-21.83-61.28-33.02-116.52-38.18-175.96-4.23-67.86-2.28-132.56,5.25-200.7,22.68-202.89-17.96-414.47-134.16-582.67-25.57-37.01-54.3-68.26-89.79-95.03-99.04-74.72-226.98-61.77-303.96,38.4-68.54,89.17-81.81,222.5-70.63,334.35,14.38,143.88,59.17,280.23,128.6,406.42l55.06,100.08c49.39,89.76,88.33,181.78,118.05,283.98l329.76-108.87ZM774.35,1705.06c27.69-26.66,38.16-61.09,46.06-96.81,17.64-119.5-26.16-240.56-70.97-352.48l-342.78,113.18,44.12,179.1c13.35,54.19,38.8,101.72,74.68,142.96,65.02,74.75,176.17,84.04,248.89,14.05Z" stroke="#000" stroke-miterlimit="10" stroke-width="21"/>
  <path d="M2294.99,1812.83c-70.7-18.29-125.29-64.53-152.66-130.9-38.81-94.12-25.91-201.94,1.58-299.95,19.46-69.37,44.79-134.39,76.03-199.49,53.15-110.77,50.07-250.83,37.34-373.15-20.39-195.92,9.81-376.76,102.28-550.45,49.54-93.05,120.82-182.68,218.13-224.92,106.55-46.25,226.29-22.98,308.33,59.45,96.96,97.42,122.77,244.62,116.06,381.15-7.26,147.61-47.81,288.78-112.91,420.77l-82.13,153.11c-49.12,91.58-92.45,184.02-116.5,285.42l-39.96,168.53c-22.24,93.77-57,185.69-126.77,252.33-61.63,58.87-144.54,79.89-228.81,58.09ZM2626.03,1296.07c27.66-94.99,62.58-181.55,108.7-265.94l72.48-132.6c62.36-118.08,103.94-243.39,118.92-376.48,13.93-123.86,1.17-271.72-81.81-365.72-60.59-68.63-152.93-90.8-236.88-54.47-93.03,40.26-157.67,133.91-200.94,225.04-68.84,144.96-93.89,303.35-78.82,463.57,16.17,137.03,16.81,268.16-30.83,398.34l329.19,108.26ZM2538.35,1611.64c18.15-41.64,32.11-83.51,42.5-128.16l27.15-116.69-342.45-112.59c-46.41,113.72-95.07,252.43-66.58,370.86,15.2,68.33,67.77,114.54,136.5,122.34,97.87,11.12,160.98-51.24,202.87-135.76Z" stroke="#000" stroke-miterlimit="10" stroke-width="21"/>
  <path d="M1430.89,1019.72l-124.24-.6c-19.05-.09-30.18-17.74-30.18-33.18,0-18.21,13.43-33.6,33.54-33.65l120.78-.3c21.54-.05,36.7,13.73,36.63,33.89s-15.08,33.95-36.54,33.84Z" stroke="#000" stroke-miterlimit="10" stroke-width="21"/>
  <path d="M2026.67,952.5c21.84-.04,32.29,20.19,31.02,36.28-1.47,18.75-16.27,31.05-36.27,30.93l-127.75-.73c-17.23-.1-26.97-19.59-27.1-33.11-.13-13.46,9.85-33.07,27.29-33.11l132.82-.27Z" stroke="#000" stroke-miterlimit="10" stroke-width="21"/>
  <path d="M1147.24,1019.47l-135.86-.19c-19.93-.03-30.81-20.68-29.35-36.12,1.79-18.82,16.07-31.29,36.1-31.19l127.73.63c15.87.08,26.14,18.4,26.98,29.7,1.26,16.91-7.05,30.53-25.61,37.18Z" stroke="#000" stroke-miterlimit="10" stroke-width="21"/>
  <path d="M1734.6,1018.61l-135.88.23c-17.57.03-27.04-19.79-27.02-32.89.02-16.01,11.37-33.57,30.28-33.55l130.98.14c17.22.02,27.77,16.57,28.94,30.84,1.1,13.45-7.59,35.19-27.29,35.22Z" stroke="#000" stroke-miterlimit="10" stroke-width="21"/>
</svg>