<?xml version="1.0" encoding="UTF-8"?>
<svg id="Layer_1" xmlns="http://www.w3.org/2000/svg" version="1.1" viewBox="0 0 2992.58 2988.7">
  <!-- Generator: Adobe Illustrator 30.3.0, SVG Export Plug-In . SVG Version: 2.1.3 Build 182)  -->
  <path d="M2014.48,98.06c30.79,0,59.75,11.99,81.52,33.77s33.77,50.73,33.77,81.52v1797.07c0,30.79-11.99,59.74-33.77,81.52-21.77,21.77-50.73,33.77-81.52,33.77H217.41c-30.79,0-59.75-11.99-81.52-33.77-21.77-21.77-33.77-50.73-33.77-81.52V213.35c0-30.79,11.99-59.75,33.77-81.52,21.77-21.77,50.73-33.77,81.52-33.77h1797.07M2014.48-1.94H217.41C98.51-1.94,2.12,94.45,2.12,213.35v1797.07c0,118.9,96.39,215.29,215.29,215.29h1797.07c118.9,0,215.29-96.39,215.29-215.29V213.35c0-118.9-96.39-215.29-215.29-215.29h0Z"/>
  <path d="M2149.52,761.06h582.14c116.2,0,210.4,94.2,210.4,210.4v1756.31c0,116.2-94.2,210.4-210.4,210.4H975.34c-116.2,0-210.4-94.2-210.4-210.4v-601.07" fill="none" fill-rule="evenodd" stroke="#000" stroke-miterlimit="10" stroke-width="100"/>
</svg>