<?xml version="1.0" encoding="UTF-8"?>
<svg id="Layer_1" xmlns="http://www.w3.org/2000/svg" version="1.1" viewBox="0 0 2377.26 2985.95">
  <!-- Generator: Adobe Illustrator 30.3.0, SVG Export Plug-In . SVG Version: 2.1.3 Build 182)  -->
  <defs>
    <style>
      .st0 {
        fill-rule: evenodd;
      }
    </style>
  </defs>
  <g id="Layer_x5F_1">
    <g id="_173222496">
      <polygon id="_173221464" points="114.29 1763.38 2262.97 1763.38 2262.97 1921.73 114.29 1921.73 114.29 1763.38"/>
      <polygon id="_173221656" points="371.45 84.16 371.45 1860.26 276.44 1860.26 276.44 84.16 371.45 84.16"/>
      <polygon id="_173219856" points="2100.82 84.16 2100.82 1860.26 2005.81 1860.26 2005.81 84.16 2100.82 84.16"/>
      <path id="_173220840" d="M2087.61,1909.91c29.4-18.87,37.91-57.99,19.03-87.31-18.87-29.4-57.99-37.91-87.31-19.03L181.76,2983.84h233.76l1672.02-1073.86h.08v-.08Z"/>
      <path id="_173222544" d="M2133.13,2985.87L377.85,1777.48c-28.67-19.84-68.04-12.64-87.8,16.12-19.84,28.67,100.76,145.31,129.51,165.15l1490.99,1027.2h222.58v-.08Z"/>
      <path id="_173220624" class="st0" d="M323.91,0c46.49,0,84.16,37.66,84.16,84.16s-37.66,84.16-84.16,84.16-84.16-37.66-84.16-84.16S277.41,0,323.91,0Z"/>
      <path id="_173221584" class="st0" d="M2053.35,0c46.49,0,84.16,37.66,84.16,84.16s-37.66,84.16-84.16,84.16-84.16-37.66-84.16-84.16S2006.86,0,2053.35,0Z"/>
      <path id="_173223552" class="st0" d="M114.29,1728.31c63.1,0,114.29,51.19,114.29,114.29s-51.19,114.29-114.29,114.29S0,1905.69,0,1842.6s51.19-114.29,114.29-114.29Z"/>
      <path id="_173219688" class="st0" d="M2262.97,1728.31c63.1,0,114.29,51.19,114.29,114.29s-51.19,114.29-114.29,114.29-114.29-51.19-114.29-114.29,51.19-114.29,114.29-114.29Z"/>
      <path id="_173220240" class="st0" d="M1001.53,662.88l106.67-180.22c24.7-42.36,49.57-96.55,91.2-81.89,23.25,8.18,41.55,26.32,52.49,48.44l109.83,210.35,264.94,38.88c34.42,10.12,46.49,52.73,22.44,79.38l-184.19,194.39,45.68,271.99c.4,45.93-48.19,75.73-88.93,54.51-78.73-41.15-226.22-116.8-241.86-107.16-261.62,161.18-310.38,104.49-310.38,104.49l35.72-296.61-205-239.99,40.98-61.07M2053.35,297.83H323.99v1123.83h1729.36V297.83Z"/>
    </g>
  </g>
  <path d="M1404.24,1326.32l-217.88-114.53c-2.19-1.13-4.94-1.13-7.13,0l-217.88,114.53c-61.48,32.32-130.32-21.79-119.23-86.59l41.63-242.67c.41-2.51-.41-5.02-2.19-6.8l-176.33-171.88c-22.52-21.95-30.54-54.27-20.82-84.24,9.72-29.97,35.15-51.35,66.34-55.89l243.64-35.4c2.51-.32,4.62-1.94,5.75-4.21l108.94-220.8c13.93-28.27,42.2-45.76,73.71-45.76s59.69,17.58,73.71,45.76l108.94,220.8c1.13,2.27,3.24,3.81,5.75,4.21l243.64,35.4c31.18,4.54,56.62,25.92,66.34,55.89,9.72,29.97,1.78,62.21-20.82,84.24l-176.33,171.88c-1.78,1.78-2.59,4.29-2.19,6.8,0,0,41.55,242.34,41.63,242.67,11.1,64.88-57.83,118.9-119.23,86.59h0ZM1182.8,1170.49c7.94,0,15.88,1.78,22.52,5.26l217.88,114.53c29.08,15.31,65.85-10.12,60.1-43.66l-41.63-242.67c-3.73-24.54,2.51-31.67,13.93-42.77,0,0,175.76-171.31,176.33-171.88,24.22-23.65,10.37-65.85-23-70.71l-243.64-35.4c-15.71-2.27-29.32-12.15-36.37-26.49l-108.94-220.8c-7.13-14.5-21.06-23.08-37.18-23.08s-30.05,8.67-37.18,23.08l-108.94,220.8c-7.05,14.26-20.65,24.14-36.45,26.49,0,0-218.37,31.75-243.64,35.4-32.64,4.78-47.14,47.14-23,70.71l176.33,171.88c11.42,11.1,16.6,27.13,13.93,42.77,0,0-41.55,242.1-41.63,242.67-5.67,33.13,30.37,59.37,60.1,43.66,0,0,216.99-114.04,217.88-114.53,6.64-3.48,14.58-5.26,22.52-5.26h.08Z"/>
</svg>