<?xml version="1.0" encoding="UTF-8"?>
<svg id="Layer_1" xmlns="http://www.w3.org/2000/svg" version="1.1" viewBox="0 0 2992.58 2988.7">
  <!-- Generator: Adobe Illustrator 30.3.0, SVG Export Plug-In . SVG Version: 2.1.3 Build 182)  -->
  <path d="M1188.8,100c31.02,0,60.19,12.08,82.13,34.02s34.02,51.11,34.02,82.13v1366.46c0,31.02-12.08,60.19-34.02,82.13-21.94,21.94-51.1,34.02-82.13,34.02H216.15c-31.02,0-60.19-12.08-82.13-34.02-21.94-21.94-34.02-51.1-34.02-82.13V216.15c0-31.02,12.08-60.19,34.02-82.13,21.94-21.94,51.11-34.02,82.13-34.02h972.65M1188.8,0H216.15C96.77,0,0,96.77,0,216.15v1366.46C0,1701.98,96.77,1798.76,216.15,1798.76h972.65c119.38,0,216.15-96.77,216.15-216.15V216.15C1404.95,96.77,1308.17,0,1188.8,0h0Z"/>
  <path d="M2776.41,1289.94c31.03,0,60.2,12.08,82.15,34.03,21.94,21.94,34.03,51.11,34.03,82.15v1366.41c0,31.03-12.08,60.2-34.03,82.15-21.94,21.94-51.11,34.03-82.15,34.03h-972.61c-31.03,0-60.2-12.08-82.15-34.03-21.94-21.94-34.03-51.12-34.03-82.15v-1366.41c0-31.03,12.08-60.2,34.03-82.15,21.94-21.94,51.11-34.03,82.15-34.03h972.61M2776.41,1189.94h-972.61c-119.39,0-216.17,96.78-216.17,216.17v1366.41c0,119.39,96.78,216.17,216.17,216.17h972.61c119.39,0,216.17-96.78,216.17-216.17v-1366.41c0-119.39-96.78-216.17-216.17-216.17h0Z"/>
  <path d="M2774.59,100c31.52,0,61.15,12.27,83.43,34.56s34.56,51.92,34.56,83.43v572.22c0,31.52-12.27,61.15-34.56,83.43-22.28,22.29-51.91,34.56-83.43,34.56h-968.97c-31.52,0-61.15-12.27-83.43-34.56-22.29-22.28-34.56-51.91-34.56-83.43V217.99c0-31.52,12.27-61.15,34.56-83.43,22.29-22.28,51.91-34.56,83.43-34.56h968.97M2774.59,0h-968.97C1685.23,0,1587.63,97.6,1587.63,217.99v572.22c0,120.39,97.6,217.99,217.99,217.99h968.97c120.39,0,217.99-97.6,217.99-217.99V217.99C2992.58,97.6,2894.98,0,2774.59,0h0Z"/>
  <path d="M1189.27,2080.5c30.9,0,59.95,12.03,81.8,33.88,21.85,21.85,33.88,50.9,33.88,81.8v576.84c0,30.9-12.03,59.95-33.88,81.8-21.85,21.85-50.9,33.88-81.8,33.88H215.68c-30.9,0-59.95-12.03-81.8-33.88-21.85-21.85-33.88-50.9-33.88-81.8v-576.84c0-30.9,12.03-59.95,33.88-81.8,21.85-21.85,50.9-33.88,81.8-33.88h973.58M1189.27,1980.5H215.68C96.56,1980.5,0,2077.06,0,2196.18v576.84c0,119.12,96.56,215.68,215.68,215.68h973.58c119.12,0,215.68-96.56,215.68-215.68v-576.84c0-119.12-96.56-215.68-215.68-215.68h0Z"/>
</svg>