<?xml version="1.0" encoding="UTF-8"?>
<svg id="_Слой_1" data-name="Слой_1" xmlns="http://www.w3.org/2000/svg" version="1.1" viewBox="0 0 332.77 503">
  <!-- Generator: Adobe Illustrator 30.3.0, SVG Export Plug-In . SVG Version: 2.1.3 Build 182)  -->
  <path d="M125.64,48.36c-1.11-15.12,3.32-27.68,14.69-37.19,7.93-6.82,18.21-10.26,28.65-9.59,7.52.47,14.76,3.02,20.91,7.36,6.29,4.2,10.64,10.02,13.85,16.82,3.32,6.99,3.93,14.39,3.44,22.23,1.32.13,2.38.33,3.47.34,5.66,0,11.31.11,16.98,0,7.88-.28,15.53,2.64,21.23,8.08,1.61,1.55,3.8,2.35,6.03,2.21,17.55-.1,35.11.19,52.65-.15,12.33-.23,23.73,10.38,23.71,23.68-.11,71.47-.13,142.95-.07,214.43v180.88c0,5.71-1.31,10.96-4.86,15.5-4.06,5.42-10.47,8.58-17.25,8.5-19.53.07-39.06,0-58.6,0H25.04c-8.64,0-15.3-3.56-20.01-10.67-2.43-3.86-3.65-8.35-3.52-12.91V81.73c-.09-12.67,10.11-23.01,22.78-23.09.02,0,.04,0,.06,0,17.71-.08,35.4-.06,53.07.07,2.65.14,5.23-.87,7.07-2.78,5.27-5.07,12.36-7.8,19.66-7.58,6.91.06,13.83.02,21.48.02ZM76.16,67.88c-2.36-.15-4.15-.37-5.95-.37-14.29,0-28.6.11-42.89-.07-10.97-.14-17.22,6.75-16.97,17.17.12,4.95.34,9.9.34,14.85v371.91c0,2.69,0,5.38.15,8.06.12,5.71,3.99,10.67,9.5,12.18,2.3.66,4.69.95,7.09.87,74.46.05,148.91.08,223.36.08,18.68,0,37.36,0,56.05,0,8.79,0,14.02-4.53,15.27-13.21.16-1.55.21-3.11.16-4.66,0-37.36,0-74.73,0-112.1,0-92.71,0-185.42,0-278.12,0-10.85-6.64-17.08-16.72-17-15.15.11-30.29,0-45.39,0-1.11,0-2.21.12-3.92.22,4.02,6.76,3.52,14.04,3.6,21.39h8.17c2.32.08,3.55,1.02,3.7,2.63s-1.11,2.61-3.52,2.69c-2.66.09-5.33,0-8.04,0-.42,1.25-.76,2.21-1.04,3.1-1.17,3.99-3.85,7.36-7.46,9.41-3.19,1.87-6.83,2.81-10.53,2.71H91.65c-9.96,0-15.2-3.89-18.27-13.14-.46-1.42-1.11-2.13-2.68-2.07-2.21.07-4.54.08-6.8,0s-3.32-1.11-3.16-3.04c.18-2.08,1.64-2.37,3.32-2.36h8.62c-.08-7.32.13-14.09,3.47-21.12ZM166.32,100.27h54.77c7.22,0,14.39,0,21.65-.06,4.56,0,7.75-2.67,8.07-7.04.38-5.58.73-11.29-.73-16.83-3.32-12.3-12.68-19.79-24.56-19.2-6.92.34-13.86.09-20.8,0-4.67-.07-6.26-1.78-6.31-6.51v-7.21c.18-14.68-9.59-27.62-23.76-31.46-3.52-1-7.18-1.41-10.84-1.22-5.98.46-11.67,2.75-16.3,6.57-7.82,6.17-12.54,14.08-12.63,24.36,0,2.98-.12,5.95,0,8.92.24,3.48-2.38,6.5-5.87,6.75-.35.02-.7.02-1.05-.01-7.2-.29-14.39-.1-21.64,0-13.11-.11-23.86,10.34-24.13,23.45-.12,4.24,0,8.49.09,12.73-.07,3.43,2.53,6.33,5.95,6.64,1.26.14,2.54.19,3.81.14l74.29-.02Z" stroke="#000" stroke-miterlimit="10" stroke-width="3"/>
  <path d="M185.87,274.52h-85.37c-1.85.07-3.7,0-5.54-.2-2.2-.29-3.89-2.08-4.06-4.28-.04-2.38,1.74-4.39,4.11-4.65,1.54-.18,3.1-.25,4.65-.19h172.37c1.56-.06,3.11,0,4.66.16,2.54.15,4.49,2.33,4.35,4.87-.11,2.58-1.8,4.2-4.8,4.27-4.24.11-8.49,0-12.73,0h-77.64v.02Z" stroke="#000" stroke-miterlimit="10" stroke-width="3"/>
  <path d="M185.87,325.44h-86.65c-1.41.06-2.82.02-4.23-.12-2.06-.23-3.68-1.85-3.91-3.91-.18-2.2,1.2-4.24,3.32-4.87,1.24-.29,2.51-.42,3.78-.37h175.81c.99-.04,1.98,0,2.96.12,2.39.27,4.18,2.31,4.14,4.72-.19,2.33-2.02,4.2-4.35,4.43-.85.05-1.7.05-2.55,0h-88.31Z" stroke="#000" stroke-miterlimit="10" stroke-width="3"/>
  <path d="M185.93,171.77h-84c-2.13,0-4.26.07-6.37-.14-2.88-.3-4.68-2.21-4.59-4.62s2.06-4,5.03-4.09c6.5-.18,13-.39,19.5-.39h150.18c3.53,0,7.06.18,10.58.41,2.94.2,4.71,1.93,4.75,4.36s-1.93,4.24-4.72,4.43c-.84.07-1.69,0-2.55,0h-87.81v.03Z" stroke="#000" stroke-miterlimit="10" stroke-width="3"/>
  <path d="M185.94,222.94h-87.46c-1.27.06-2.55.04-3.82-.08-2.06-.24-3.63-1.95-3.71-4.02-.11-2.21,1.38-4.18,3.53-4.67.98-.14,1.97-.19,2.96-.13h176.59c.99-.05,1.98-.03,2.97.08,2.5.33,4.29,2.59,4.03,5.1-.22,2.34-2.05,3.9-4.69,3.92-1.84,0-3.68-.17-5.54-.17h-84.86v-.03Z" stroke="#000" stroke-miterlimit="10" stroke-width="3"/>
  <path d="M185.79,367.59h86.12c1.69,0,3.4-.09,5.08.07,2.41.18,4.21,2.28,4.03,4.69-.15,2-1.64,3.63-3.61,3.98-.98.13-1.97.17-2.96.11H101.36c-1.98.05-3.96,0-5.93-.14-2.83-.31-4.43-1.97-4.33-4.31.06-2.54,1.82-4.16,4.75-4.34.99-.06,1.98,0,2.97,0l86.97-.06Z" stroke="#000" stroke-miterlimit="10" stroke-width="3"/>
  <path d="M63.46,274.52c-1.27.02-2.54-.05-3.81-.2-2.2-.28-3.86-2.14-3.87-4.36-.2-2.08,1.25-3.97,3.32-4.3,2.94-.36,5.92-.36,8.86,0,1.98.22,3.32,2.44,3.32,4.43-.13,2.04-1.56,3.76-3.54,4.26-.27.08-.56.12-.84.12h-3.4l-.03.04Z" stroke="#000" stroke-miterlimit="10" stroke-width="3"/>
  <path d="M63.36,325.44c-1.12.08-2.25.08-3.38,0-2.33-.26-4.13-2.16-4.26-4.49-.11-2.37,1.72-4.38,4.09-4.49.01,0,.02,0,.03,0,2.38-.25,4.77-.25,7.15,0,2.34.25,4.11,2.24,4.09,4.59-.11,2.37-1.98,4.27-4.34,4.43-1.11.11-2.21,0-3.32,0l-.06-.03Z" stroke="#000" stroke-miterlimit="10" stroke-width="3"/>
  <path d="M63.71,222.84c-1.4.1-2.81.1-4.22,0-2.04-.22-3.62-1.9-3.72-3.95-.18-2.21,1.35-4.2,3.53-4.61,2.81-.27,5.63-.27,8.44,0,2.06.2,3.69,2.69,3.53,4.65-.21,2.19-1.99,3.89-4.18,4-1.11.1-2.21,0-3.32,0l-.06-.09Z" stroke="#000" stroke-miterlimit="10" stroke-width="3"/>
  <path d="M63.14,171.8c-1.27.03-2.54-.06-3.8-.24-2.14-.52-3.63-2.45-3.6-4.65.19-2.36,2.21-4.15,4.57-4.06,2.11,0,4.25,0,6.37.12,2.36.14,4.21,2.07,4.26,4.43-.08,2.21-1.78,4.03-3.99,4.25-1.27.09-2.55.09-3.82,0v.15Z" stroke="#000" stroke-miterlimit="10" stroke-width="3"/>
  <path d="M63.89,367.68c.99-.05,1.98-.05,2.97,0,2.18.22,3.9,1.93,4.12,4.11.16,2.24-1.49,4.21-3.73,4.43-2.53.25-5.08.25-7.61,0-2.38-.24-4.12-2.35-3.9-4.73.24-2.2,2.12-3.86,4.34-3.83,1.26-.1,2.54,0,3.81,0v.02Z" stroke="#000" stroke-miterlimit="10" stroke-width="3"/>
  <path d="M179.29,40.92c-.14,6.99-6.42,13-13.29,12.72-6.45-.24-12.41-6.64-12.18-12.96.32-7.58,6.03-13.42,12.83-13.11,7.17.19,12.83,6.16,12.63,13.33,0,0,0,.01,0,.02ZM166.5,36.49c-1.98-.04-3.61,1.54-3.65,3.52,0,.1,0,.21,0,.31-.04,2.07,1.54,3.81,3.61,3.96,2.04.04,3.75-1.51,3.91-3.54.04-2.21-1.67-4.06-3.87-4.2v-.06Z" stroke="#000" stroke-miterlimit="10" stroke-width="3"/>
</svg>