<?xml version="1.0" encoding="UTF-8"?>
<svg id="Layer_1" xmlns="http://www.w3.org/2000/svg" version="1.1" viewBox="0 0 1765.82 2946.63">
  <!-- Generator: Adobe Illustrator 30.3.0, SVG Export Plug-In . SVG Version: 2.1.3 Build 182)  -->
  <path d="M648.66,2502.21l-543.79,433.44c-17.7,14.11-47.5,12.82-65.26,6.18-19.87-7.43-32.94-25.27-39.61-50.57l37.81-722.91L1115.6,116.96c27.12-52.02,60.08-91.67,108.52-107.43,62.22-20.25,114.32-6.38,166.3,24.07l298.38,174.81c86.09,50.44,95.05,158.58,51.39,240.72l-230.58,433.95M1649.57,377.7c13.2-25.25-3.02-59.28-22.81-75.4l-320.54-183.34c-38.88-13.49-67.26,7.09-84.29,39.86l-119.13,229.16,417.48,237.09,129.28-247.38h.02ZM1049.67,487.94L158.74,2168.02l425.31,225.54,890.92-1680.08-425.31-225.54h0ZM501.89,2473.74l-358.31-204.55-24.21,507.89,382.51-303.33.02-.02Z"/>
</svg>