<?xml version="1.0" encoding="UTF-8"?>
<svg id="Layer_1" xmlns="http://www.w3.org/2000/svg" version="1.1" viewBox="0 0 2992.58 2988.7">
  <!-- Generator: Adobe Illustrator 30.3.0, SVG Export Plug-In . SVG Version: 2.1.3 Build 182)  -->
  <path d="M1360.52,2963.99c-36.85,27.74-85.76,30.34-129.22,16.61-52.39-16.55-102.32-67.82-102.38-129.72l-1.26-1269.92c-.03-27.8-13.92-45.83-29.77-65.03l-293.44-355.47L186.32,407.13,36.38,224.43C1.53,181.96-11.26,127.91,11.21,76.33,32.37,27.79,79.35,0,134.57,0l2735.63.2c46.97,0,88.54,32.29,106.76,68.44,20.89,41.45,23.29,100.61-8.07,138.79l-1071.96,1305.26c-20.06,24.43-31.54,42.69-31.54,76.58l-.13,920.87c0,58.08-33.05,98.77-75.3,130.58l-429.44,323.28h0ZM1740.25,2515.24l-.18-929.6c1.24-57.62,19.2-108.08,56.47-149.73l646.55-783.79,424.69-520.5-2744.23-.64,1071.56,1303.33c38.59,44.51,58.97,98.08,56.94,158.61l.03,1245.85c0,9.22,11.67,18.19,17.49,20.06,5.95,1.92,17.89,1.58,25.09-3.91l445.58-339.68h.01Z"/>
</svg>