<?xml version="1.0" encoding="UTF-8"?>
<svg id="Layer_1" xmlns="http://www.w3.org/2000/svg" version="1.1" viewBox="0 0 2362.93 2991.07">
  <!-- Generator: Adobe Illustrator 30.3.0, SVG Export Plug-In . SVG Version: 2.1.3 Build 182)  -->
  <path d="M2339.43,1463.45v1447.67c-2.02,43.98-35.52,66.36-76.98,50.19-23.52-10.19-46.48-21.6-68.77-34.14-23.39-12.06-46.85-24.67-69.51-38.31-17.02-10.26-31.11-8.63-45.68,4.28-19.66,17.61-39.5,35.11-60.44,51.16-32.89,25.28-62.16,26.3-98.35,5.43-37.48-21.6-75.26-42.59-112.19-64.97-15.06-9.11-27.56-7.6-41.83.6-32.89,19-66.2,37.1-99.33,55.62-5.39,2.96-10.66,6.03-16.04,9.23-33.44,18.1-66.63,20.15-100.98.97-40.05-22.32-81.69-41.93-121.25-65.09-25.11-14.72-46.73-13.57-71.71-.3-38.89,20.69-79.61,38.43-118.86,58.27-31.97,16.17-63.01,19.42-96.27,2.47-43.23-22.08-87.82-41.5-131.17-63.34-19.41-11.1-43.54-10.74-62.59.97-40.91,22.68-82.98,43.25-123.76,66.06-34.05,19.06-66.14,19.91-100.19-.42-37.78-22.68-77.47-42.23-115.44-64.67-16.84-10.01-30.62-8.75-46.73.78-34.05,20.39-68.65,39.93-102.94,59.84-7.35,4.89-15,9.29-22.96,13.15-30.62,12.79-60.63,12.73-87.51-8.87-19.17-15.44-37.11-32.33-55.73-48.26-28.11-24.13-33.01-25.03-65.53-7.6s-63.57,34.63-95.47,51.76c-10.66,6.21-21.86,11.52-33.38,15.93-37.23,12.79-68.16-6.03-73.49-44.58-.67-6.94-.86-13.93-.55-20.93V149.34c0-22.68-.67-45.42,0-68.11,1.16-47.66,39.74-70.34,82.98-48.26,35.33,18.1,69.81,37.88,104.6,57.01,7.78,4.22,15.43,8.63,23.09,12.97,15.37,10.38,36.13,8.2,48.99-5.13,21.74-19.24,43.97-37.94,65.89-56.95,16.11-14.3,38.15-20.27,59.4-16.05,10.35,1.81,20.33,5.43,29.46,10.62,35.52,19.67,70.49,40.24,105.64,60.32l23.03,13.03c12.19,7.84,27.92,7.84,40.11,0,22.9-13.27,46.3-25.64,69.44-38.49,20.82-11.52,41.28-24.13,62.52-34.57,28.54-14.3,57.99-15.44,86.47,0,41.09,22.38,82.31,44.58,122.48,68.83,22.54,13.69,42.32,17.19,66.57,3.92,38.64-21.23,79-39.45,118.13-59.78s75.88-18.1,113.97,1.75c40.6,21.42,82.31,40.72,122.97,61.95,15.55,8.87,34.84,8.45,49.97-1.21,40.23-22.08,82.06-41.44,121.38-64.97,43.72-26.18,84.02-25.1,126.34,2.65,30.19,19.73,63.14,35.35,93.82,54.29,20.64,12.91,38.83,12.06,59.03-.48,33.13-20.15,67.36-38.43,100.62-58.58,37.48-22.74,72.38-18.76,105.33,8.2,15.68,12.79,30.19,26.84,45.32,40.3,26.21,23.29,29.88,23.77,60.32,7.48,38.09-20.45,76.12-41.08,114.15-61.53,3.92-2.11,7.9-4.04,11.88-6.03,45.01-19.67,81.75,3.68,81.75,53.21v1377.69h0ZM80.26,2906.89c7.1-2.84,12.25-4.28,16.41-6.64,38.15-20.27,76.49-40.18,114.21-61.11,40.42-22.62,65.4-21.72,102.02,7.48,21.98,17.49,42.87,36.62,64.61,54.29,16.6,13.33,23.21,13.45,40.48,3.5,38.21-22.08,76.73-43.55,114.39-66.36,36.19-21.96,71.47-21.84,107.66-.6,29.64,17.37,59.28,34.93,89.59,51.22,51.56,27.69,40.48,26.18,88.98,1.09,38.4-19.85,76.06-41.08,114.64-60.63,30.93-15.68,62.65-17.13,94.19-.48,8.57,4.52,17.39,8.57,26.15,12.79,35.03,16.77,70.18,33.3,105.02,50.43,18.37,9.05,35.64,11.58,55.12,1.27,38.27-19.97,78.45-36.5,116.35-56.95,44.58-24.13,86.16-24.67,130.07,2.47,36.74,22.68,76.18,40.78,114.21,61.35,15.31,9.47,34.84,9.23,49.91-.6,36.74-21.35,74.53-40.3,110.84-61.95,36.31-21.66,69.69-20.57,104.84.72s70.79,40.12,105.51,61.29c13.41,9.59,31.78,8.57,44.09-2.35,8.33-6.51,16.66-13.03,24.5-19.85,12.74-10.92,24.8-22.5,37.72-33.06,30.01-24.49,56.95-26.84,90.51-8.45,37.91,20.81,75.69,41.8,113.66,62.5,7.96,4.4,16.47,7.84,25.78,12.06,5.45-68.59,2.88-2802.74-2.69-2825.54-5.76,2.59-11.39,4.83-16.72,7.66-39.62,21.23-80.04,41.26-118.56,64.31-32.15,19.24-73.49,14.3-99.94-12.06-15.86-15.26-32.82-29.32-48.99-44.52-11.88-12.61-30.99-15.56-46.24-7.18-9.61,4.46-18.86,9.65-28.05,14.96-29.76,17.07-59.59,34.14-89.16,51.58-25.29,15.81-57.44,16.47-83.41,1.75-10.23-5.19-20.21-10.8-30.19-16.47-28.35-16.17-57.01-31.91-84.88-48.86-18.49-12.85-43.11-13.45-62.16-1.39-39.25,21.96-80.1,41.2-118.93,63.82s-74.59,24.55-112.62,1.99c-6.12-3.56-12.68-6.03-18.98-9.41l-108.82-53.93c-14.88-8.39-33.07-8.69-48.2-.78-43.23,22.02-87.02,42.95-130.07,65.39-33.38,17.37-65.34,17.49-98.29-1.21-40.6-23.1-82-44.88-122.85-67.68-18.37-11.7-41.95-11.7-60.32,0-22.72,13.45-45.75,26.54-68.83,39.45-20.82,11.58-41.4,23.65-62.95,33.72-24.92,11.7-50.34,8.63-73.92-4.34-39.38-21.72-78.26-44.34-117.21-66.84-32.52-18.82-32.7-19.3-62.4,4.95-17.7,14.48-34.23,30.16-51.5,45.3-30.62,26.78-64.24,30.83-100.31,10.56-30.01-16.89-60.08-33.6-90.27-50.07-13.72-7.42-27.8-14.18-44.03-22.38v2823.79h0Z" stroke="#000" stroke-miterlimit="10" stroke-width="47"/>
  <path d="M1180.97,1821.54h786.8c7.96-.42,15.92-.24,23.88.54,13.72,2.05,23.76,13.93,23.21,27.63.92,13.57-9.49,25.34-23.33,26.24h-.55c-6.12.6-12.25.72-18.37.48H396.07c-7.96.36-15.92.12-23.82-.66-15-1.87-25.6-15.38-23.64-30.16,1.59-12.43,11.7-22.08,24.31-23.41,7.96-.72,15.92-.97,23.88-.6h784.16v-.12.06Z" stroke="#000" stroke-miterlimit="10" stroke-width="47"/>
  <path d="M1076.19,874.92h674.79c7.04,0,14.21-.48,21.25,0,15.68.78,28.17,13.09,29.03,28.53-1.04,14.42-11.82,26.3-26.21,28.96-6.12.72-12.25.97-18.37.6H393.68c-6.12.3-12.25.18-18.37-.48-15.98-1.45-27.74-15.38-26.27-31.07,1.29-13.69,12.31-24.61,26.27-25.88,8.82-1.03,17.7-1.33,26.52-.9h674.36v.24h0Z" stroke="#000" stroke-miterlimit="10" stroke-width="47"/>
  <path d="M888.06,1539.94h491.38c8.82-.42,17.7-.18,26.52.72,14.57,2.23,25.66,14,26.95,28.47.37,13.39-10.59,24.91-27.07,27.33-7.9.9-15.92,1.21-23.88.9H393.93c-7.96.3-15.86-.42-23.64-2.05-12.37-3.26-21.13-14.18-21.56-26.78.73-13.57,10.66-24.91,24.13-27.63,8.82-1.03,17.7-1.33,26.52-.9h488.69v-.06Z" stroke="#000" stroke-miterlimit="10" stroke-width="47"/>
  <path d="M779.73,1154.1h-401.05c-18.37-1.03-29.58-11.34-29.76-26.66.8-14.6,12.49-26.3,27.25-27.39,5.27-.36,10.59-.36,15.86,0h767.63c7.96-.36,15.92-.12,23.82.72,14.64,1.99,25.66,14.18,25.97,28.77-.55,14.36-11.15,23.65-28.66,24.79-7.04.42-14.15,0-21.25,0h-379.68l-.12-.24h0Z" stroke="#000" stroke-miterlimit="10" stroke-width="47"/>
  <path d="M702.76,707.34h-307.91c-7.96.36-15.92-.06-23.76-1.27-12.49-2.9-21.62-13.39-22.54-26-.12-12.61,8.39-23.77,20.76-27.09,7.65-1.99,15.62-2.9,23.52-2.71,196.45,0,392.91.18,589.3.48,15,0,30.07,1.15,45.01,2.41,13.84.18,25.29,10.56,26.52,24.13.8,14.6-9.8,27.39-24.5,29.5-7.04.84-14.15,1.03-21.19.66h-305.21v-.12h0Z" stroke="#000" stroke-miterlimit="10" stroke-width="47"/>
  <path d="M657.07,1376.58h-260.33c-7.96.24-15.92-.18-23.76-1.39-15.25-2.35-25.66-16.41-23.27-31.43,1.84-11.64,11.08-20.87,22.9-22.86,6.06-.97,12.25-1.33,18.37-1.03,176.25,0,352.49.12,528.68.3,7.04-.3,14.15.18,21.07,1.45,15,1.75,25.72,15.14,23.94,29.86-1.71,14.24-14.39,24.61-28.9,23.71-18.37,1.03-37.11,1.69-55.67,1.75h-223.15l.12-.36Z" stroke="#000" stroke-miterlimit="10" stroke-width="47"/>
  <path d="M2080.42,2589.32c26.5.06,44.75,25.07,44.62,47.74-.19,24.55-19.29,47.54-45.85,47.54l-311.04-.26c-22.21,0-38.38-22.08-40.85-39.88-3.25-22.99,8.51-41.18,27.67-52.41,35.72-20.98,44.94-76.18,36.57-117.36l-37.54-.39c-26.89-.26-44.88-24.49-43.77-49.36,1.17-25.26,20.85-45.27,47.67-45.72l14.68-.26c-4.35-38.12-1.82-74.82,11.04-110.15,25.59-70.4,86.97-118.72,162.37-124.83,62.03-5.07,124.96,20.65,164.19,69.3,17.34,21.43,7.79,54.17-11.63,68.26-22.99,16.76-51.11,11.24-70.21-9.68-21.56-23.58-53-33.97-85.34-27.15-27.99,5.91-52.74,27.08-64.17,56.83-9.35,24.36-9.22,50.72-5.46,77.48l104.57.19c25.52,0,44.75,20.39,46.44,44.23,1.69,23.64-14.42,50.01-40.92,50.33l-90.54.97c4.94,38.84,1.3,76.12-13.64,113.92l201.01.65h.13Z"/>
</svg>