<svg id="Слой_1" data-name="Слой 1" xmlns="http://www.w3.org/2000/svg" viewBox="0 0 500 500"><path d="M444,244.13v205.8c0,1,0,2,0,3-.33,7.29-5.8,11-12.57,8.32a119.18,119.18,0,0,1-11.23-5.66c-3.82-2-7.65-4.09-11.35-6.35-2.78-1.7-5.08-1.43-7.46.71-3.21,2.92-6.45,5.82-9.87,8.48-5.37,4.19-10.15,4.36-16.06.9-6.12-3.58-12.29-7.06-18.32-10.77-2.46-1.51-4.5-1.26-6.83.1-5.37,3.15-10.81,6.15-16.22,9.22-.88.49-1.74,1-2.62,1.53-5.46,3-10.88,3.34-16.49.16-6.54-3.7-13.34-6.95-19.8-10.79-4.1-2.44-7.63-2.25-11.71-.05-6.35,3.43-13,6.37-19.41,9.66-5.22,2.68-10.29,3.22-15.72.41-7.06-3.66-14.34-6.88-21.42-10.5a9.92,9.92,0,0,0-10.22.16c-6.68,3.76-13.55,7.17-20.21,10.95-5.56,3.16-10.8,3.3-16.36-.07-6.17-3.76-12.65-7-18.85-10.72-2.75-1.66-5-1.45-7.63.13-5.56,3.38-11.21,6.62-16.81,9.92a32.91,32.91,0,0,1-3.75,2.18c-5,2.12-9.9,2.11-14.29-1.47-3.13-2.56-6.06-5.36-9.1-8-4.59-4-5.39-4.15-10.7-1.26s-10.38,5.74-15.59,8.58a37.48,37.48,0,0,1-5.45,2.64c-6.08,2.12-11.13-1-12-7.39a25.06,25.06,0,0,1-.09-3.47q0-201.68,0-403.35c0-3.76-.11-7.53,0-11.29.19-7.9,6.49-11.66,13.55-8,5.77,3,11.4,6.28,17.08,9.45,1.27.7,2.52,1.43,3.77,2.15a6.2,6.2,0,0,0,8-.85c3.55-3.19,7.18-6.29,10.76-9.44a11.19,11.19,0,0,1,9.7-2.66,14.9,14.9,0,0,1,4.81,1.76c5.8,3.26,11.51,6.67,17.25,10l3.76,2.16a6,6,0,0,0,6.55,0c3.74-2.2,7.56-4.25,11.34-6.38,3.4-1.91,6.74-4,10.21-5.73,4.66-2.37,9.47-2.56,14.12,0,6.71,3.71,13.44,7.39,20,11.41,3.68,2.27,6.91,2.85,10.87.65,6.31-3.52,12.9-6.54,19.29-9.91s12.39-3,18.61.29c6.63,3.55,13.44,6.75,20.08,10.27a7.81,7.81,0,0,0,8.16-.2c6.57-3.66,13.4-6.87,19.82-10.77,7.14-4.34,13.72-4.16,20.63.44,4.93,3.27,10.31,5.86,15.32,9,3.37,2.14,6.34,2,9.64-.08,5.41-3.34,11-6.37,16.43-9.71,6.12-3.77,11.82-3.11,17.2,1.36,2.56,2.12,4.93,4.45,7.4,6.68,4.28,3.86,4.88,3.94,9.85,1.24,6.22-3.39,12.43-6.81,18.64-10.2.64-.35,1.29-.67,1.94-1C438,24.51,444,28.38,444,36.59q0,52.32,0,104.64v102.9ZM75.09,452.23c1.16-.47,2-.71,2.68-1.1C84,447.77,90.26,444.47,96.42,441c6.6-3.75,10.68-3.6,16.66,1.24,3.59,2.9,7,6.07,10.55,9,2.71,2.21,3.79,2.23,6.61.58,6.24-3.66,12.53-7.22,18.68-11,5.91-3.64,11.67-3.62,17.58-.1,4.84,2.88,9.68,5.79,14.63,8.49,8.42,4.59,6.61,4.34,14.53.18,6.27-3.29,12.42-6.81,18.72-10.05,5.05-2.6,10.23-2.84,15.38-.08,1.4.75,2.84,1.42,4.27,2.12,5.72,2.78,11.46,5.52,17.15,8.36,3,1.5,5.82,1.92,9,.21,6.25-3.31,12.81-6.05,19-9.44,7.28-4,14.07-4.09,21.24.41,6,3.76,12.44,6.76,18.65,10.17a7.52,7.52,0,0,0,8.15-.1c6-3.54,12.17-6.68,18.1-10.27s11.38-3.41,17.12.12S374,447.49,379.67,451a5.73,5.73,0,0,0,7.2-.39c1.36-1.08,2.72-2.16,4-3.29,2.08-1.81,4.05-3.73,6.16-5.48,4.9-4.06,9.3-4.45,14.78-1.4,6.19,3.45,12.36,6.93,18.56,10.36,1.3.73,2.69,1.3,4.21,2,.89-11.37.47-412.59-.44-416.37-.94.43-1.86.8-2.73,1.27-6.47,3.52-13.07,6.84-19.36,10.66a13.26,13.26,0,0,1-16.32-2c-2.59-2.53-5.36-4.86-8-7.38a6.18,6.18,0,0,0-7.55-1.19c-1.57.74-3.08,1.6-4.58,2.48-4.86,2.83-9.73,5.66-14.56,8.55a13.17,13.17,0,0,1-13.62.29c-1.67-.86-3.3-1.79-4.93-2.73-4.63-2.68-9.31-5.29-13.86-8.1a9.09,9.09,0,0,0-10.15-.23c-6.41,3.64-13.08,6.83-19.42,10.58s-12.18,4.07-18.39.33c-1-.59-2.07-1-3.1-1.56L259.8,38.46a8.15,8.15,0,0,0-7.87-.13c-7.06,3.65-14.21,7.12-21.24,10.84-5.45,2.88-10.67,2.9-16.05-.2-6.63-3.83-13.39-7.44-20.06-11.22a9.08,9.08,0,0,0-9.85,0c-3.71,2.23-7.47,4.4-11.24,6.54-3.4,1.92-6.76,3.92-10.28,5.59-4.07,1.94-8.22,1.43-12.07-.72-6.43-3.6-12.78-7.35-19.14-11.08-5.31-3.12-5.34-3.2-10.19.82-2.89,2.4-5.59,5-8.41,7.51-5,4.44-10.49,5.11-16.38,1.75q-7.35-4.2-14.74-8.3c-2.24-1.23-4.54-2.35-7.19-3.71Z"/><path d="M254.83,303.49H383.31a26.61,26.61,0,0,1,3.9.09,4.46,4.46,0,0,1,3.79,4.58,4.09,4.09,0,0,1-3.9,4.36,21.83,21.83,0,0,1-3,.08H126.66a26.5,26.5,0,0,1-3.89-.11,4.47,4.47,0,0,1,.11-8.88,28.15,28.15,0,0,1,3.9-.1H254.83Z"/><path d="M237.72,146.57H347.91c1.15,0,2.32-.08,3.47,0a5,5,0,0,1,4.74,4.73,5.27,5.27,0,0,1-4.28,4.8,17,17,0,0,1-3,.1H126.27a19.11,19.11,0,0,1-3-.08,4.74,4.74,0,0,1,0-9.44,26,26,0,0,1,4.33-.15H237.72Z"/><path d="M364.9,344.14V364c2.73.72,5.24,1.3,7.7,2.06a23.25,23.25,0,0,1,10.47,6.72c7.12,7.92,5.82,18.66-2.89,24.89-3.56,2.54-8.27,4.23-15.67,5.54,0,1.33.05,2.74,0,4.13-.14,3.41-1.82,5.61-4.2,5.63s-4.15-2.18-4.28-5.52c0-1.29,0-2.59,0-4.16-1.64-.41-3.13-.9-4.66-1.15a27.69,27.69,0,0,1-14.29-6.76,16.13,16.13,0,0,1-2.36-2.53c-1.85-2.55-1.77-4.46.15-6.13,2.11-1.84,4.3-1.77,6.4.68,3.81,4.43,8.69,6.44,14.61,7.15V371.92a31.69,31.69,0,0,1-4.8-1.21c-3.16-1.34-6.62-2.4-9.27-4.47-10.57-8.26-7.61-22.19,4-27.85,3.07-1.49,6.5-2.26,10.07-3.46.15-1.17.28-2.59.53-4,.46-2.52,1.85-3.9,3.86-3.94s3.51,1.39,4.09,3.79a17.07,17.07,0,0,1,.27,2.15c.08.7.15,1.41.23,2.08,3,.81,6.06,1.26,8.77,2.46a44.1,44.1,0,0,1,8.41,5.17,4.84,4.84,0,0,1,1.72,3.7,6.12,6.12,0,0,1-2.28,3.82c-1.51,1.15-3.37.68-4.69-.77C373.65,346,369.54,344.86,364.9,344.14Zm-.06,50.51a66.13,66.13,0,0,0,7.18-1.82c3.45-1.3,5.9-3.77,6.4-7.54s-1.17-6.78-4.28-8.87a20.17,20.17,0,0,0-9.3-3.65Zm-9.1-31.31V343.88c-2.65.84-5,1.24-7,2.28a8.6,8.6,0,0,0-4.72,8.2c0,3.51,2.25,5.54,5.22,6.79C351.24,362,353.33,362.54,355.74,363.34Z"/><path d="M207,256.81h80.24a29.72,29.72,0,0,1,4.33.12,5.23,5.23,0,0,1,4.4,4.72c.06,2.22-1.73,4.13-4.42,4.53a25.35,25.35,0,0,1-3.9.15q-80.67,0-161.34,0a15.51,15.51,0,0,1-3.86-.34,4.76,4.76,0,0,1-3.52-4.44,4.94,4.94,0,0,1,3.94-4.58,26,26,0,0,1,4.33-.15H207Z"/><path d="M189.31,192.85H126.43c-.87,0-1.74,0-2.61,0-3-.17-4.83-1.88-4.86-4.42a4.81,4.81,0,0,1,4.45-4.54,18.64,18.64,0,0,1,2.59,0l125.35,0a25.18,25.18,0,0,1,3.89.12,4.91,4.91,0,0,1,4.24,4.77c-.09,2.38-1.82,3.92-4.68,4.11-1.15.07-2.31,0-3.47,0h-62Z"/><path d="M176.74,118.79H126.46a20,20,0,0,1-3.88-.21,4.79,4.79,0,0,1-3.68-4.31,4.61,4.61,0,0,1,3.39-4.49,14.12,14.12,0,0,1,3.84-.45q48.12,0,96.23.08c2.45,0,4.91.19,7.35.4a4.4,4.4,0,0,1,4.33,4,4.69,4.69,0,0,1-4,4.89,19.89,19.89,0,0,1-3.46.11H176.74Z"/><path d="M169.28,229.73H126.77a20.86,20.86,0,0,1-3.88-.23,4.56,4.56,0,0,1-.06-9,14.47,14.47,0,0,1,3-.17q43.17,0,86.33.05a15.17,15.17,0,0,1,3.44.24,4.46,4.46,0,0,1-.81,8.88c-3,.17-6.06.28-9.09.29-12.15,0-24.29,0-36.44,0Z"/></svg>