<?xml version="1.0" encoding="UTF-8"?>
<svg id="_Слой_1" xmlns="http://www.w3.org/2000/svg" version="1.1" viewBox="0 0 396.54 503">
  <!-- Generator: Adobe Illustrator 30.3.0, SVG Export Plug-In . SVG Version: 2.1.3 Build 182)  -->
  <path d="M207.34,125.91c4.08.01,6.89,3.86,6.87,7.35-.03,3.78-2.97,7.32-7.06,7.32l-47.89-.04c-3.42,0-5.91-3.4-6.29-6.14-.5-3.54,1.31-6.34,4.26-8.07,5.5-3.23,6.92-11.73,5.63-18.07l-5.78-.06c-4.14-.04-6.91-3.77-6.74-7.6.18-3.89,3.21-6.97,7.34-7.04l2.26-.04c-.67-5.87-.28-11.52,1.7-16.96,3.94-10.84,13.39-18.28,25-19.22,9.55-.78,19.24,3.18,25.28,10.67,2.67,3.3,1.2,8.34-1.79,10.51-3.54,2.58-7.87,1.73-10.81-1.49-3.32-3.63-8.16-5.23-13.14-4.18-4.31.91-8.12,4.17-9.88,8.75-1.44,3.75-1.42,7.81-.84,11.93l16.1.03c3.93,0,6.89,3.14,7.15,6.81.26,3.64-2.22,7.7-6.3,7.75l-13.94.15c.76,5.98.2,11.72-2.1,17.54l30.95.1h.02Z"/>
  <path d="M1.66,251.61V37.22c-.17-7.14,1.72-14.17,5.43-20.27C12.91,7.63,21.53,2.67,32.41,1.55c1.36-.07,2.72-.07,4.08,0h268.78c12.42,0,9.06-.82,18.01,7.07,11.32,9.97,21.86,20.82,32.78,31.24,8.52,8.13,17.13,16.19,25.67,24.28,2.64,2.49,5.32,4.93,7.78,7.6,3.55,3.56,5.54,8.38,5.53,13.41-.11,70.7-.13,141.41-.07,212.11,0,56.51.09,113.01-.06,169.52,0,14.61-7.12,25.29-20.24,31.74-4.25,2.01-8.9,3.02-13.6,2.94-83.25-.05-166.49-.07-249.74-.08-25.07,0-50.17-.39-75.23.11-17.24.34-34.67-14.92-34.6-35.01.24-71.62.09-143.22.09-214.84l.07-.03h0ZM306.98,11H37.32c-7.31,0-13.99,1.92-19.25,7.49-4.52,4.81-6.92,11.23-6.66,17.82.05,34.27.05,68.56,0,102.87v328.07c-.16,4.88,1.24,9.68,4.01,13.71,5.4,7.56,12.87,11.06,22.13,11.06h274.6c15.87,0,31.73.07,47.59,0,12.42-.09,22.46-8.16,24.71-19.85.44-3.14.59-6.31.43-9.48V91.56c0-1.75-.1-3.5-.15-5.06-.46-.18-.94-.32-1.43-.41-13.58-.07-27.16-.07-40.74-.18-4.37.12-8.73-.1-13.07-.65-12.51-2.09-22.05-12.32-22.15-26.45-.08-12.56.23-25.06.26-37.59-.01-3.29-.39-6.43-.63-10.21h.01ZM317.59,16.71c-.19.56-.33,1.13-.41,1.71,0,13.58-.15,27.15,0,40.73.13,8.38,4.57,13.71,12.77,15.99,2.18.55,4.42.82,6.67.81h38.92c1.07,0,2.15-.09,4.17-.18l-62.11-59.06h0Z" stroke="#000" stroke-miterlimit="10" stroke-width="3"/>
  <path d="M95.19,434.81c-8.3,0-16.64-.49-24.9.13-9.58.58-17.82-6.72-18.41-16.3-.04-.66-.04-1.32,0-1.98.65-12.19.11-24.44.11-36.68-.19-3.91-.15-7.83.11-11.73.94-7.77,6.09-12.71,13.89-13.88,1.79-.27,3.59-.41,5.4-.42h47.11c3.18.24,5.17,1.94,5.32,4.51.14,2.28-2,4.84-4.69,5.36-1.35.17-2.71.22-4.07.15h-46.2c-4.34.35-6.85,2.88-7.17,7.26-.07.75,0,1.51,0,2.28v41.68c0,7.02,2.84,9.93,9.81,9.95h43.48c2.41,0,4.83-.19,7.23-.38,4.4-.32,6.85-2.58,7.64-6.85.15-1.05.2-2.11.16-3.16-.11-7.24-.29-14.47-.35-21.7,0-2.26.15-4.51.41-6.75.02-.89.36-1.75.94-2.43,1.53-1.31,2.94-3.31,5.41-2.48s3.08,2.91,3.07,5.41c0,10.42.13,20.83,0,31.25-.13,9.71-7.3,16.75-17.04,16.85-9.06.09-18.13,0-27.19,0l-.08-.09h0Z" stroke="#000" stroke-miterlimit="10" stroke-width="3"/>
  <path d="M95.41,297.65h-25.81c-5.92,0-10.91-2.07-14.49-7-2.01-2.67-3.1-5.93-3.1-9.27,0-15.99-.09-31.98,0-47.97.07-9.71,6.85-16.41,16.69-16.48,16.46-.1,32.92-.06,49.38,0,3.78,0,5.99,1.86,5.83,4.73-.14,2.38-3.15,5.2-6.41,5.14-15.4-.25-30.84-.21-46.2-.26h-1.82c-4.82.37-7.38,2.9-7.81,7.74-.07.75,0,1.51,0,2.28v40.78c-.05,1.5.08,3.01.4,4.48.66,3.58,3.88,6.12,7.52,5.94,4.23.13,8.45.07,12.68.07h38.06c6.65,0,9.65-2.92,9.63-9.65,0-7.85-.27-15.69-.34-23.54-.03-1.95.14-3.91.5-5.83.74-2.32,2.66-4.07,5.05-4.57,1.88-.19,3.62,1.04,4.07,2.88.19,1.04.25,2.1.19,3.15,0,9.96.08,19.93,0,29.89,0,7.09-3.05,12.69-9.46,15.79-2.9,1.2-6,1.8-9.14,1.77-8.44.23-16.91.08-25.37.08l-.03-.14h-.02Z" stroke="#000" stroke-miterlimit="10" stroke-width="3"/>
  <path d="M260.42,238.69h70.21c1.2-.05,2.41-.03,3.61.06,2.71.31,4.31,1.82,4.63,4.18.37,2.51-1.26,4.89-3.74,5.45-1.47.33-2.97.46-4.48.41h-141.31c-1.2.06-2.41,0-3.6-.19-2.45-.53-4.23-2.65-4.35-5.15,0-2.28,1.95-4.25,4.76-4.64,1.35-.13,2.71-.17,4.07-.1h70.2v-.02Z" stroke="#000" stroke-miterlimit="10" stroke-width="3"/>
  <path d="M259.96,386.05h-72.53c-3.29,0-5.93-2.09-6.05-4.83-.09-2.28,2.17-5.08,5.83-5.03,9.81.17,19.62.07,29.45.08h113.72c1.52-.07,3.05-.03,4.57.11,2.51.24,4.36,2.46,4.12,4.97,0,.04,0,.07-.01.11-.14,2.42-1.7,4.01-4.35,4.36-.76.05-1.52.05-2.28,0-14.49.1-28.99.24-43.48.31h-28.99l.02-.09h-.02Z" stroke="#000" stroke-miterlimit="10" stroke-width="3"/>
  <path d="M95.12,265.5c4.64-5.47,8.58-10.28,12.56-14.85,7.61-8.79,15.23-17.54,22.84-26.27,1.79-2.04,3.58-4.09,5.43-6.08.98-1.14,2.08-2.17,3.28-3.08,2.13-1.62,5.18-1.21,6.8.92,1.42,1.86,1.31,4.48-.27,6.21-1.05,1.28-2.28,2.4-3.37,3.66-12.24,14.27-24.49,28.56-36.76,42.87-1.86,2.17-3.59,4.47-5.45,6.64-2.56,2.99-5.86,3.26-8.6.41-5.54-5.71-10.95-11.64-16.33-17.56-1.92-1.87-1.95-4.93-.09-6.85.13-.14.27-.26.42-.38,2.16-1.96,4.49-2.04,6.85.27,3.62,3.61,7.04,7.46,10.51,11.23.67.77,1.25,1.66,2.17,2.87h0Z" stroke="#000" stroke-miterlimit="10" stroke-width="3"/>
  <path d="M233.08,419.31h-42.99c-1.36.07-2.72.02-4.07-.15-2.49-.37-4.37-2.45-4.47-4.97.11-2.67,2.16-4.86,4.82-5.13.76-.06,1.52-.06,2.28,0h88.26c1.2-.07,2.41-.03,3.61.13,2.49.44,4.26,2.67,4.12,5.2.08,2.37-1.67,4.4-4.02,4.68-1.35.17-2.71.23-4.07.16h-43.4l-.08.08h.01Z" stroke="#000" stroke-miterlimit="10" stroke-width="3"/>
  <path d="M95.11,402.88c8.34-9.78,15.99-18.9,23.83-27.89,6.03-6.94,12.23-13.71,18.44-20.56,2.98-3.27,5.93-3.69,8.16-1.48s1.66,5.22-1.07,8.33c-10.74,12.24-21.42,24.54-32.06,36.89-3.93,4.57-7.66,9.32-11.42,14.02-3.26,4.02-6.6,4.2-10.28.33-5.16-5.51-10.28-11.09-15.33-16.67-2.04-2-2.07-5.28-.07-7.32h0c1.93-1.9,5.03-1.87,6.93.06.1.1.2.21.29.32,3.67,3.8,7.22,7.71,10.81,11.61.61.66,1.1,1.44,1.79,2.38l-.02-.02Z" stroke="#000" stroke-miterlimit="10" stroke-width="3"/>
  <path d="M233.62,279.58h45.61c.78-.05,1.56-.03,2.34.06,1.76.31,2.8,1.82,3.01,4.18.24,2.51-.82,4.89-2.43,5.45-.95.33-1.93.46-2.91.41h-91.8c-.78.06-1.56,0-2.34-.19-1.59-.53-2.75-2.65-2.83-5.15,0-2.28,1.27-4.25,3.09-4.64.88-.13,1.76-.17,2.64-.1h45.61v-.02Z" stroke="#000" stroke-miterlimit="10" stroke-width="3"/>
</svg>