<?xml version="1.0" encoding="UTF-8"?>
<svg id="Layer_1" xmlns="http://www.w3.org/2000/svg" version="1.1" viewBox="0 0 3140.78 2985.95">
  <!-- Generator: Adobe Illustrator 30.3.0, SVG Export Plug-In . SVG Version: 2.1.3 Build 182)  -->
  <defs>
    <style>
      .st0 {
        stroke: #000;
        stroke-miterlimit: 10;
        stroke-width: 38px;
      }
    </style>
  </defs>
  <path class="st0" d="M3048.18,816.01c.48-8.82,1.17-15.77,1.17-22.73,0-93.53.48-187.05-.55-280.51-.18-20.26-3.36-40.38-9.44-59.71-22.45-70.25-84.85-113.91-162.6-114.74-65.08-.76-248.69,0-313.77,0-6.89,0-14.26.55-21.35,0-19.08-1.72-31.34-14.33-30.92-30.99.92-16.86,13.93-30.57,30.72-32.37,6.08-.38,12.17-.38,18.25,0h319.9c133.13.34,234.16,100.41,234.16,233.27v1533.33c.5,10.17.06,20.36-1.31,30.44-2.14,16.68-17.39,28.46-34.06,26.33-.35-.05-.71-.1-1.06-.16-17.01-1.93-25.55-11.36-26.72-30.99-.69-12.19-.41-24.38-.41-36.57,0-325.3-.18-781.14-.55-1106.4v-32.51c-25.34-6.89-2905.8-9.37-2959.38-2.96v123.42c0,25.34-1.31,50.69-1.1,75.76,0,55.1,1.86,109.71,1.93,164.53,0,39.6-2.07,79.2-2,118.87.69,434.99,1.49,870,2.41,1305.04-.64,49.99,15.13,98.82,44.9,138.98,42.42,56.89,100.55,82.65,171.28,82.65h1939.57c9.09-.43,18.2.4,27.07,2.48,14.22,4.26,23.49,17.93,22.18,32.71-1.52,14.54-13.01,26.03-27.55,27.55-7.07.7-14.18.89-21.28.55H301.96c-55.1,0-106.34-11.78-152.69-43.53-66.94-45.32-105.3-108.33-119.08-187.05-3.7-23.05-5.47-46.36-5.3-69.7,0-713.55-.14-1427.12-.41-2140.72-.8-43.83,9.78-87.11,30.72-125.62,40.7-73.35,104.13-114.33,186.43-119.35,74.93-4.61,270.73-1.38,346.01-1.03,22.93,0,35.54,12.88,35.12,32.71-.41,19.83-12.26,30.65-36.91,30.79-67.08.41-254.55-.96-321.63.48-77.48,1.65-144.01,45.18-166.12,119.49-4.28,14.57-6.6,29.65-6.89,44.84-1.52,72.08-2.39,144.22-2.62,216.39,0,31.41,2.34,62.81,3.65,93.66,24.66,7.3,2891.89,10.47,2955.94,3.37Z"/>
  <path class="st0" d="M3121.09,2486.02c2.39,269.08-214.24,467.31-457.8,475.16-271.73,8.52-490.7-204.32-491.43-472.15-.68-270.84,216.17-469.96,466.48-474.64,265.85-4.94,486.65,213.41,482.75,471.63ZM2643.75,2064.61c-228.43-.52-423.34,192.05-422.25,423.6,1.09,239.45,201.4,422.3,418.19,423.55,236.12,1.4,433.01-182.8,432.8-424.95-.05-238.05-198.65-424.48-428.75-422.2Z"/>
  <path class="st0" d="M2174.35,345.83c0-55.85.48-111.78,0-167.63-.76-67.98,33.2-115.57,91.94-142.01,99.11-44.77,215.15,26.1,217.01,130.85,1.93,111.71,3.44,223.42,3.24,335.19,0,88.71-57.78,154.68-145.11,162.81-87.33,8.13-166.05-64.39-166.74-145.52-.62-57.85,0-115.77,0-173.69h-.34ZM2238.54,342.79h0c0,55.1-.62,109.71,0,164.53.76,46.28,36.23,85.81,79.13,90.43,49.53,6.13,94.64-29.06,100.77-78.58.43-3.45.65-6.92.68-10.4.87-110.7.87-221.4,0-332.1-.34-39.53-22.8-66.94-57.71-82.65-56.41-25.21-121.49,17.84-122.8,81.06-1.24,55.99-.07,111.85-.07,167.77v-.07Z"/>
  <path class="st0" d="M656.16,345.83c0-55.1.96-109.78,0-164.6-1.86-88.64,73.62-178.31,194.22-153.79,62.47,12.74,113.22,76.52,114.19,141.39,1.17,83.33.34,166.67.69,250,0,27.55.78,54.94,2.34,82.16,4.13,85.06-66.74,163.57-153.72,163.91-100.35,0-158.4-76.72-157.71-151.52.55-55.85,0-111.78,0-167.63v.07ZM900.72,345.83h0c0-55.1.41-109.64,0-164.46-.34-38.57-26.1-75.76-59.71-87.67-58.33-21.14-118.87,20.66-119.97,86.23-1.72,108.61-1.31,217.22,0,325.83-1.09,37.97,22.12,72.42,57.71,85.68,59.02,24.38,120.59-16.46,122.31-81.2.83-54.68-.34-109.57-.34-164.33v-.07Z"/>
  <path class="st0" d="M1567.86,1586.81h-109.57c-63.29-.55-105.79-41.32-106.61-104.13-.96-73.07-.69-146.14,0-219.15.76-59.99,41.32-102.14,101.24-103.31,78.1-1.38,156.27-1.1,234.16,0,52.51-.41,95.8,41.05,97.66,93.53,1.79,80.1,1.93,160.33,0,240.43-1.31,52.07-45.45,91.46-98.49,93.04-20.25.62-40.56,0-60.88.41h-57.51v-.83ZM1569.16,1520.56h100.62c41.32,0,52.41-11.64,52.48-52.48,0-56.96-1.52-113.91,0-170.8,1.72-67.22-17.77-73.62-75.07-73.55-61.98,0-123.97,1.17-185.95,2.48-33.2.62-42.7,11.09-42.84,45.04-.32,67.08-.55,134.16-.69,201.24,0,34.44,12.74,47.73,47.66,48.21,34.92.48,69.28-.14,103.86-.14h-.07Z"/>
  <path class="st0" d="M2328.77,1586.81h-109.57c-65.5-.76-107.99-43.87-108.06-109.37v-213.09c0-61.36,41.32-103.86,102.34-104.48,77.14-.83,154.27-.83,231.41,0,54.68.61,99.11,44.31,100.62,98.97,1.58,77.07,1.52,154.27,0,231.41-1.9,54.47-46.74,97.57-101.24,97.31h-115.7l.21-.76ZM2327.53,1520.69v-.14h103.65c37.47-.41,50.62-13.77,50.83-52,.32-62.99.32-126.01,0-189.05,0-37.19-13.77-51.93-50.83-53.1-48.69-1.45-97.45-2.27-146.21-2.75-22.31,0-44.7,0-67.01,1.45-30.44,1.72-41.32,14.81-40.08,44.63.62,12.12,1.03,24.38.96,36.5,0,53.93-.76,107.78-.83,161.64,0,41.32,11.64,53.1,51.93,53.1l97.59-.28Z"/>
  <path class="st0" d="M594.75,1370.42v-106.61c.48-59.85,41.32-102.96,100.55-103.79,78.05-1.19,156.27-1.19,234.64,0,59.92,1.03,99.73,43.66,99.93,103.93v219.42c0,57.44-41.32,101.45-98.55,102.69-78.05,1.79-156.25,1.79-234.57,0-60.47-1.24-101.86-46.07-102.14-106.34v-109.71l.14.41ZM813.48,1520.56h103.31c34.44,0,47.73-11.78,48.55-46.83.62-26.38,0-52.76,0-79.13,0-39.53.55-79.13,0-118.66-.48-38.36-15.77-52.62-54.48-52.34-4.06,0-8.13,0-12.19.41h-69.84c-41.32,0-83.13-.96-124.73-.34-28.51.48-44.28,14.39-44.9,39.19-.83,30.3,0,60.68,0,91.05,0,38.5,1.72,77.07.83,115.57-.9,37.26,9.78,50.34,46.56,50.69,35.88.41,71.35.41,106.89.41Z"/>
  <path class="st0" d="M1568.54,1968.43c39.53,0,79.13-.41,118.73,0,57.92.76,97.8,39.88,98.35,97.59.69,75.14.41,150.28,0,225.35,0,50.28-37.6,102.41-102.55,101.03-74.04-1.52-148.14,0-222.25,0-63.91,0-106.89-38.77-108.47-102.2-2-75-1.65-150.21,0-225.28,1.58-59.37,42.98-96.42,103.31-96.42h112.88v-.07ZM1567.86,2032.28h-103.31c-34.44,0-45.66,11.36-45.8,45.59-.28,67.03-.28,134.05,0,201.03,0,33.68,16.46,49.72,50.96,49.93,68.04.41,136.07.41,204.06,0,33.2,0,48.21-14.88,48.21-48.21.41-65.98.41-131.98,0-198,0-36.09-14.19-49.45-50.07-49.79-34.78-.83-69.28-.55-104.06-.55Z"/>
  <path class="st0" d="M811.41,1968.43c38.57,0,77.2-.41,115.77,0,63.22.76,102.34,40.15,102.55,103.31.28,72.08.28,144.17,0,216.25,0,60.74-42.36,103.31-103.31,104-75.16.69-150.3.69-225.41,0-61.98-.34-105.92-43.73-106.54-105.3-.69-73.1-.69-146.19,0-219.29.69-57.85,42.91-98.83,100.9-99.31h115.7l.34.34ZM812.58,2031.93c-32.44,0-65.08,1.93-97.31-.48-39.26-2.96-59.09,18.25-56.27,61.98,3.79,58.54,2.41,117.56,1.03,176.31-.96,41.32,12.95,58.61,53.65,58.82,66.94.37,133.89.37,200.83,0,35.33,0,50.62-14.26,50.9-48.97.62-65.91.55-131.82,0-197.73,0-36.16-13.77-49.79-49.59-50.14-34.3,0-68.8.21-103.24.21Z"/>
  <path class="st0" d="M1567.25,337.97h-539.4c-19.7-1.58-30.51-12.53-30.58-30.58-.53-17.05,12.46-31.5,29.48-32.78,6.08-.38,12.17-.38,18.25,0h1039.19c8.13-.34,16.27-.21,24.38.41,17.89,1.94,31.41,17.13,31.27,35.12-1.17,16.6-13.77,27.55-33.13,28.65h-539.47v-.83Z"/>
  <path class="st0" d="M2619.64,2231.82c0-13.29-.69-25.34,0-37.26,1.24-17.29,11.85-29.2,24.93-29.75,13.09-.55,26.17,12.19,27.55,30.58.83,11.91,0,23.97,0,32.3,31.82,11.5,60.88,19.97,88.02,32.58,16.21,8.31,30.91,19.3,43.46,32.51,14.81,14.67,14.39,31.41,2.27,43.18-12.12,11.78-27.55,11.57-43.11-2.48-21.91-21.15-50.6-33.86-80.99-35.88-8.13,22.93-9.71,100-3.93,150.21,28.99,10.61,57.71,19.7,85.33,31.47,25.43,10.99,46.6,29.94,60.33,53.99,30.65,52.2,19.28,112.74-28.65,153.17-29.61,24.93-64.67,37.26-102.07,44.28-5.85,1.1-11.78,1.72-20.66,3.03,0,15.77.55,30.79,0,45.8-.9,19.22-11.36,31.2-26.1,31.41-15.77-1.3-28.34-13.72-29.82-29.48-.96-7.99,0-16.18,0-24.31,0-6.89-.69-13.77-1.1-21.69-24.79-6.89-49.17-13.77-73-21.49-31.19-9.94-58.79-28.78-79.41-54.2-6.89-8.75-13.15-18.04-8.75-30.58,4.63-15.85,21.23-24.94,37.07-20.31,5.53,1.62,10.47,4.79,14.24,9.15,28.51,32.02,64.19,48.21,109.02,56.06,5.44-29.2,1.79-58.2,2.41-86.78.62-28.58,0-56.54,0-85.47-18.25-4.96-35.95-8.95-53.17-14.53-30.37-9.29-56.86-28.28-75.41-54.06-28.11-39.33-27.3-92.4,2-130.85,23.69-31.13,55.99-49.38,92.56-60.88,10.47-3.24,21.35-5.51,36.98-9.71ZM2677.01,2673.83c27.34-1.9,53.59-11.45,75.76-27.55,28.73-20.51,35.38-60.43,14.87-89.15-4.81-6.74-10.9-12.49-17.9-16.91-21.68-14.92-46.76-24.15-72.93-26.86l.21,160.47ZM2617.16,2298.83c-31.27.62-50.55,7.3-67.49,21.83-27.96,23.83-36.91,76.17,7.58,99.38,19.54,9.01,39.54,16.99,59.92,23.9v-145.11Z"/>
</svg>