<?xml version="1.0" encoding="UTF-8"?>
<svg id="_Слой_1" data-name="Слой_1" xmlns="http://www.w3.org/2000/svg" version="1.1" viewBox="0 0 383.18 493.04">
  <!-- Generator: Adobe Illustrator 30.3.0, SVG Export Plug-In . SVG Version: 2.1.3 Build 182)  -->
  <path d="M380.68,241.2v239.98c-.33,7.29-5.8,11-12.57,8.32-3.84-1.69-7.59-3.58-11.23-5.66-3.82-2-7.65-4.09-11.35-6.35-2.78-1.7-5.08-1.43-7.46.71-3.21,2.92-6.45,5.82-9.87,8.48-5.37,4.19-10.15,4.36-16.06.9-6.12-3.58-12.29-7.06-18.32-10.77-2.46-1.51-4.5-1.26-6.83.1-5.37,3.15-10.81,6.15-16.22,9.22-.88.49-1.74,1-2.62,1.53-5.46,3-10.88,3.34-16.49.16-6.54-3.7-13.34-6.95-19.8-10.79-4.1-2.44-7.63-2.25-11.71-.05-6.35,3.43-13,6.37-19.41,9.66-5.22,2.68-10.29,3.22-15.72.41-7.06-3.66-14.34-6.88-21.42-10.5-3.17-1.84-7.11-1.78-10.22.16-6.68,3.76-13.55,7.17-20.21,10.95-5.56,3.16-10.8,3.3-16.36-.07-6.17-3.76-12.65-7-18.85-10.72-2.75-1.66-5-1.45-7.63.13-5.56,3.38-11.21,6.62-16.81,9.92-1.2.81-2.45,1.54-3.75,2.18-5,2.12-9.9,2.11-14.29-1.47-3.13-2.56-6.06-5.36-9.1-8-4.59-4-5.39-4.15-10.7-1.26s-10.38,5.74-15.59,8.58c-1.74,1.03-3.57,1.91-5.45,2.64-6.08,2.12-11.13-1-12-7.39-.11-1.15-.14-2.31-.09-3.47V23.36c0-3.76-.11-7.53,0-11.29.19-7.9,6.49-11.66,13.55-8,5.77,3,11.4,6.28,17.08,9.45,1.27.7,2.52,1.43,3.77,2.15,2.51,1.72,5.9,1.36,8-.85,3.55-3.19,7.18-6.29,10.76-9.44,2.63-2.37,6.23-3.36,9.7-2.66,1.69.3,3.32.9,4.81,1.76,5.8,3.26,11.51,6.67,17.25,10l3.76,2.16c1.99,1.3,4.56,1.3,6.55,0,3.74-2.2,7.56-4.25,11.34-6.38,3.4-1.91,6.74-4,10.21-5.73,4.66-2.37,9.47-2.56,14.12,0,6.71,3.71,13.44,7.39,20,11.41,3.68,2.27,6.91,2.85,10.87.65,6.31-3.52,12.9-6.54,19.29-9.91s12.39-3,18.61.29c6.63,3.55,13.44,6.75,20.08,10.27,2.54,1.47,5.69,1.4,8.16-.2,6.57-3.66,13.4-6.87,19.82-10.77,7.14-4.34,13.72-4.16,20.63.44,4.93,3.27,10.31,5.86,15.32,9,3.37,2.14,6.34,2,9.64-.08,5.41-3.34,11-6.37,16.43-9.71,6.12-3.77,11.82-3.11,17.2,1.36,2.56,2.12,4.93,4.45,7.4,6.68,4.28,3.86,4.88,3.94,9.85,1.24,6.22-3.39,12.43-6.81,18.64-10.2.64-.35,1.29-.67,1.94-1,7.35-3.26,13.35.61,13.35,8.82v228.38ZM11.77,480.48c1.16-.47,2-.71,2.68-1.1,6.23-3.36,12.49-6.66,18.65-10.13,6.6-3.75,10.68-3.6,16.66,1.24,3.59,2.9,7,6.07,10.55,9,2.71,2.21,3.79,2.23,6.61.58,6.24-3.66,12.53-7.22,18.68-11,5.91-3.64,11.67-3.62,17.58-.1,4.84,2.88,9.68,5.79,14.63,8.49,8.42,4.59,6.61,4.34,14.53.18,6.27-3.29,12.42-6.81,18.72-10.05,5.05-2.6,10.23-2.84,15.38-.08,1.4.75,2.84,1.42,4.27,2.12,5.72,2.78,11.46,5.52,17.15,8.36,3,1.5,5.82,1.92,9,.21,6.25-3.31,12.81-6.05,19-9.44,7.28-4,14.07-4.09,21.24.41,6,3.76,12.44,6.76,18.65,10.17,2.5,1.57,5.69,1.53,8.15-.1,6-3.54,12.17-6.68,18.1-10.27s11.38-3.41,17.12.12,11.56,6.65,17.23,10.16c2.19,1.59,5.19,1.42,7.2-.39,1.36-1.08,2.72-2.16,4-3.29,2.08-1.81,4.05-3.73,6.16-5.48,4.9-4.06,9.3-4.45,14.78-1.4,6.19,3.45,12.36,6.93,18.56,10.36,1.3.73,2.69,1.3,4.21,2,.89-11.37.47-464.61-.44-468.39-.94.43-1.86.8-2.73,1.27-6.47,3.52-13.07,6.84-19.36,10.66-5.25,3.19-12,2.37-16.32-2-2.59-2.53-5.36-4.86-8-7.38-1.94-2.09-5.06-2.58-7.55-1.19-1.57.74-3.08,1.6-4.58,2.48-4.86,2.83-9.73,5.66-14.56,8.55-4.13,2.62-9.38,2.73-13.62.29-1.67-.86-3.3-1.79-4.93-2.73-4.63-2.68-9.31-5.29-13.86-8.1-3.02-2.13-7.04-2.23-10.15-.23-6.41,3.64-13.08,6.83-19.42,10.58s-12.18,4.07-18.39.33c-1-.59-2.07-1-3.1-1.56l-17.77-8.94c-2.43-1.39-5.4-1.44-7.87-.13-7.06,3.65-14.21,7.12-21.24,10.84-5.45,2.88-10.67,2.9-16.05-.2-6.63-3.83-13.39-7.44-20.06-11.22-3-1.94-6.85-1.94-9.85,0-3.71,2.23-7.47,4.4-11.24,6.54-3.4,1.92-6.76,3.92-10.28,5.59-4.07,1.94-8.22,1.43-12.07-.72-6.43-3.6-12.78-7.35-19.14-11.08-5.31-3.12-5.34-3.2-10.19.82-2.89,2.4-5.59,5-8.41,7.51-5,4.44-10.49,5.11-16.38,1.75-4.9-2.8-9.81-5.57-14.74-8.3-2.24-1.23-4.54-2.35-7.19-3.71v468.1Z" stroke="#000" stroke-miterlimit="10" stroke-width="5"/>
  <path d="M191.51,300.56h128.48c1.3-.07,2.6-.04,3.9.09,2.24.34,3.88,2.31,3.79,4.58.15,2.25-1.55,4.2-3.81,4.35-.03,0-.06,0-.09,0-1,.1-2,.12-3,.08H63.34c-1.3.06-2.6.02-3.89-.11-2.45-.31-4.18-2.55-3.86-5,.26-2.06,1.91-3.66,3.97-3.88,1.3-.12,2.6-.16,3.9-.1h128.05v-.02Z" stroke="#000" stroke-miterlimit="10" stroke-width="5"/>
  <path d="M174.4,143.64h110.19c1.15,0,2.32-.08,3.47,0,2.56.13,4.6,2.17,4.74,4.73-.17,2.39-1.93,4.36-4.28,4.8-1,.12-2,.16-3,.1H62.95c-1,.05-2,.03-3-.08-2.61-.24-4.53-2.55-4.29-5.15.21-2.27,2.01-4.08,4.29-4.29,1.44-.17,2.89-.22,4.33-.15h110.12v.04Z" stroke="#000" stroke-miterlimit="10" stroke-width="5"/>
  <path d="M312.73,374.8v19.86c2.73.72,5.24,1.3,7.7,2.06,4.04,1.25,7.66,3.57,10.47,6.72,7.12,7.92,5.82,18.66-2.89,24.89-3.56,2.54-8.27,4.23-15.67,5.54,0,1.33.05,2.74,0,4.13-.14,3.41-1.82,5.61-4.2,5.63s-4.15-2.18-4.28-5.52v-4.16c-1.64-.41-3.13-.9-4.66-1.15-5.32-.82-10.28-3.17-14.29-6.76-.88-.76-1.67-1.6-2.36-2.53-1.85-2.55-1.77-4.46.15-6.13,2.11-1.84,4.3-1.77,6.4.68,3.81,4.43,8.69,6.44,14.61,7.15v-22.63c-1.63-.28-3.23-.68-4.8-1.21-3.16-1.34-6.62-2.4-9.27-4.47-10.57-8.26-7.61-22.19,4-27.85,3.07-1.49,6.5-2.26,10.07-3.46.15-1.17.28-2.59.53-4,.46-2.52,1.85-3.9,3.86-3.94s3.51,1.39,4.09,3.79c.14.71.23,1.43.27,2.15.08.7.15,1.41.23,2.08,3,.81,6.06,1.26,8.77,2.46,2.99,1.4,5.81,3.14,8.41,5.17,1.09.92,1.72,2.27,1.72,3.7-.25,1.51-1.07,2.88-2.28,3.82-1.51,1.15-3.37.68-4.69-.77-3.14-3.39-7.25-4.53-11.89-5.25ZM312.67,425.31c2.43-.47,4.82-1.08,7.18-1.82,3.45-1.3,5.9-3.77,6.4-7.54s-1.17-6.78-4.28-8.87c-2.74-1.98-5.94-3.23-9.3-3.65v21.88ZM303.57,394v-19.46c-2.65.84-5,1.24-7,2.28-3.07,1.54-4.93,4.77-4.72,8.2,0,3.51,2.25,5.54,5.22,6.79,2,.85,4.09,1.39,6.5,2.19h0Z" stroke="#000" stroke-miterlimit="10" stroke-width="5"/>
  <path d="M143.68,253.88h80.24c1.44-.07,2.89-.03,4.33.12,2.38.37,4.19,2.32,4.4,4.72.06,2.22-1.73,4.13-4.42,4.53-1.29.15-2.6.2-3.9.15H62.99c-1.3.05-2.59-.07-3.86-.34-2.02-.54-3.45-2.35-3.52-4.44.12-2.25,1.74-4.13,3.94-4.58,1.44-.17,2.89-.22,4.33-.15h79.8Z" stroke="#000" stroke-miterlimit="10" stroke-width="5"/>
  <path d="M125.99,189.92H60.5c-3-.17-4.83-1.88-4.86-4.42.13-2.42,2.04-4.36,4.45-4.54.86-.06,1.73-.06,2.59,0h125.35c1.3-.06,2.6-.02,3.89.12,2.39.33,4.19,2.35,4.24,4.77-.09,2.38-1.82,3.92-4.68,4.11-1.15.07-2.31,0-3.47,0h-62l-.02-.04Z" stroke="#000" stroke-miterlimit="10" stroke-width="5"/>
  <path d="M113.42,115.86h-50.28c-1.3.06-2.6-.01-3.88-.21-2.04-.48-3.53-2.22-3.68-4.31-.02-2.09,1.37-3.94,3.39-4.49,1.25-.33,2.55-.48,3.84-.45,32.08,0,64.16.03,96.23.08,2.45,0,4.91.19,7.35.4,2.26.03,4.13,1.75,4.33,4,.13,2.42-1.6,4.54-4,4.89-1.15.14-2.31.17-3.46.11h-49.84v-.02Z" stroke="#000" stroke-miterlimit="10" stroke-width="5"/>
  <path d="M105.96,226.8h-42.51c-1.3.04-2.6-.03-3.88-.23-2.49-.39-4.19-2.72-3.8-5.21.3-1.93,1.81-3.46,3.74-3.79.99-.16,2-.22,3-.17,28.78,0,57.56.02,86.33.05,1.15-.05,2.31.03,3.44.24,2.45.29,4.2,2.51,3.91,4.95-.28,2.36-2.35,4.08-4.72,3.93-3,.17-6.06.28-9.09.29h-36.44l.02-.06Z" stroke="#000" stroke-miterlimit="10" stroke-width="5"/>
</svg>