<?xml version="1.0" encoding="UTF-8"?>
<svg xmlns="http://www.w3.org/2000/svg" version="1.1" viewBox="0 0 2992.58 2988.7">
  <!-- Generator: Adobe Illustrator 30.3.0, SVG Export Plug-In . SVG Version: 2.1.3 Build 182)  -->
  <g id="Layer_1">
    <path d="M1496.82,2889.28L228.93,1424.76c-86.15-99.51-142.72-221.32-162.22-351.49-7.3-48.68-11.1-98.72-11.1-149.77C55.61,437.64,399.77,43.78,824.31,43.78c296.88,0,497.4,98.33,625.47,380.3l42.88,107.29c125.97-289.05,386.88-487.59,688.3-487.59,424.54,0,768.7,393.86,768.7,879.72,0,80.42-9.43,158.32-27.09,232.34-28.43,119.13-86.3,229.23-167.74,320.7l-1258,1412.75Z" fill="none" stroke="#000" stroke-miterlimit="10" stroke-width="100"/>
    <polyline points="1945.62 1073.43 1473.26 1619.82 1198.31 1366.01" fill="none" stroke="#000" stroke-linecap="round" stroke-linejoin="round" stroke-width="100"/>
  </g>
  <g id="Layer_2">
    <g id="Layer_21" data-name="Layer_2">
      <path d="M1654.73,2773.64" fill="none" stroke="#5f5950" stroke-miterlimit="10" stroke-width="99"/>
      <path d="M2781.61,1494.35" fill="none" stroke="#ed1c24" stroke-miterlimit="10" stroke-width="99"/>
    </g>
  </g>
</svg>