<?xml version="1.0" encoding="UTF-8"?>
<svg id="Layer_1" xmlns="http://www.w3.org/2000/svg" version="1.1" viewBox="0 0 3140.78 2985.95">
  <!-- Generator: Adobe Illustrator 30.3.0, SVG Export Plug-In . SVG Version: 2.1.3 Build 182)  -->
  <path d="M2818.54,1550.72l-1.4,944.48-.27,383.08c-.04,59.25-49.87,107.71-108.31,107.67l-316.41-.19-1956.12-.31c-60.92,0-114.5-43.49-114.51-107.52l-.1-1329.97-234.85-.68c-46.35-.13-80.33-35.74-86.5-80.07-.77-27.9,4.86-58.27,25.52-78.04l86.78-83.04L1494.68,30.14c45.02-41.56,110.7-40.24,153.54,4.63l377.81,342.21,249.42,229.27,1.06-266.41c.18-46.43,37.99-79.52,83.33-82.38l481.87-.19c47.17-.02,82.53,36.74,85.99,81.51l-.6,91.63-.6,779.62,188.91,179.49c19.25,18.29,24.31,46.53,25.38,71.26-2.68,52.09-42.18,89.97-93.87,89.97l-228.38-.02ZM1184.29,1977.43c9.61-63.2,57.54-105.83,120.12-104.06l533.16-.05c58.7,5.67,101.38,51.17,105.73,109.98v844.32s716.02.06,716.02.06l.49-1353.84c4.81-47.16,39.51-80.87,86.16-81.29l140.09-1.24-341.25-317.9c-322.99-300.89-645.77-597.69-974.34-893.42l-145.74,132.77-506.94,466.71-659.5,608.79,128.8,1.58c49.66-2.3,87.97,30.98,93.59,81.3l-.92,367.26-.77,989.23h705.14s.15-850.21.15-850.21ZM2768.63,1063.83l.08-649.69-335.29.25.08,338.14,335.14,311.3ZM1785.22,2031.31h-443.29v796.43h443.29v-796.43Z"/>
</svg>