<?xml version="1.0" encoding="UTF-8"?>
<svg id="Layer_1" xmlns="http://www.w3.org/2000/svg" version="1.1" viewBox="0 0 2980.64 3001.58">
  <!-- Generator: Adobe Illustrator 30.3.0, SVG Export Plug-In . SVG Version: 2.1.3 Build 182)  -->
  <defs>
    <style>
      .st0 {
        fill: none;
        stroke: #000;
        stroke-miterlimit: 10;
        stroke-width: 128px;
      }
    </style>
  </defs>
  <path d="M2516.47,2038.14l-1.04-644.3c4.55-44.6,37.36-76.48,81.48-76.87l132.48-1.17-322.73-300.64c-305.46-284.56-610.72-565.25-921.45-844.92l-137.83,125.57-479.42,441.37L244.28,1312.92l121.81,1.5c46.97-2.18,83.19,29.3,88.51,76.88l-.87,347.33-.73,935.53h666.86s.14-804.06.14-804.06c9.09-59.77,54.41-100.08,113.6-98.41l504.22-.05c55.51,5.36,95.88,48.4,99.99,104.01v798.49c113.11,0,115.19.02,228.3.03l85.16,149.52-1738.91-.29c-57.62,0-108.29-41.12-108.29-101.69l-.1-1257.78-222.11-.65c-43.83-.13-75.97-33.8-81.8-75.73-.73-26.39,4.59-55.11,24.13-73.81l82.07-78.54L1413.55,28.5c42.58-39.3,104.69-38.06,145.21,4.38l357.3,323.64,235.88,216.82,1-251.95c.17-43.91,35.93-75.21,78.8-77.91l455.71-.18c44.61-.02,78.05,34.74,81.32,77.08l-.57,86.66-.56,737.3,178.65,169.75c18.2,17.3,22.99,44,24.01,67.4-2.53,49.26-39.89,85.09-88.77,85.08l-215.98-.02-1.32,598.18M2618.35,1006.09l.07-614.42-317.09.24.07,319.79,316.95,294.4ZM1688.32,1921.05h-419.22v753.2h419.22v-753.2Z"/>
  <circle class="st0" cx="2435.98" cy="2456.92" r="480.66"/>
  <path d="M2161.83,2572.8l-29.81-30.32c-12.35-12.56-16.94-29.65-14.49-47.04,3.38-24.01,21.18-42.36,45.28-45.76,19.4-2.59,37.44,4.56,50.97,18.67l108.01,112.66,130.23-130.55,201.1-201.44c17.24-17.27,55.03-14.71,74.01,3.71,18.45,17.91,23.39,55.29,7.42,71.36l-364.32,366.63c-9.32,9.38-19.28,16.58-31.69,20.51-20.44,6.49-40.62.65-55.52-14.59l-121.19-123.84h0Z"/>
</svg>