<?xml version="1.0" encoding="UTF-8"?>
<svg id="Layer_1" xmlns="http://www.w3.org/2000/svg" version="1.1" viewBox="0 0 2103.29 2954">
  <!-- Generator: Adobe Illustrator 30.3.0, SVG Export Plug-In . SVG Version: 2.1.3 Build 182)  -->
  <path d="M1826.23,2953.93l-1523.96.07c-60.49,0-113.76-13.86-164.35-47.44C60.06,2854.89.96,2768.12.89,2670.79l-.89-1243.27c9.79-146.55,124.64-264.99,270.59-278.32l67.74-.96.53-458.46c.1-87.46,20.53-169.92,53.46-249.44C491.73,200.32,715.99,32.46,974.21,4.21c174.81-19.12,348.75,27.28,491.41,130.07,178.36,128.52,291.79,333.53,295.66,555.24l1.28,459.37c48.54-1.9,95.2-.63,140.17,15.31,115.92,41.1,195.33,145.09,200.55,268.77l-.7,1238.55c-.08,138.96-130.16,273.56-276.35,282.38ZM1553.57,1148.45l-1.1-449.05c-4.32-197.55-129.81-367.9-310.2-441.95-187.37-76.06-401.91-32.95-548.17,107.2-89.56,90.12-147.44,211.11-147.66,340.48l-.76,443.33h1007.9ZM1822.96,2753.35c45.52-9.6,86.86-46.37,86.89-94.3l.71-1210.55c.03-50.44-37.6-105.81-92.53-105.83l-1528.47-.36c-48.75-.01-94.99,44.11-95.01,93.71l-.53,1226.4c6.05,45.44,43.13,90.43,92.38,90.45l1536.55.49Z"/>
  <path d="M1157.7,2470.8l-203.96,1.76c-43.93.38-85.33-39.35-77.91-84.74l53.4-326.74c-79.25-44.7-128.18-128.3-124.7-219.79,2.56-67.42,33.02-130.88,83.58-174.47,94.95-81.86,235.71-81,329.04,2.64,59.59,53.4,89.5,131.98,78.63,213.17-9.65,72.07-54.51,140.71-123.21,178.62l52.49,312.23c7.45,44.3-14.52,94.03-67.36,97.32Z"/>
</svg>