<?xml version="1.0" encoding="UTF-8"?>
<svg id="Layer_2" xmlns="http://www.w3.org/2000/svg" version="1.1" viewBox="0 0 1983.88 2981.91">
  <!-- Generator: Adobe Illustrator 30.3.0, SVG Export Plug-In . SVG Version: 2.1.3 Build 182)  -->
  <path d="M1093.31,2556.94l-193.37,1.67c-41.65.36-80.9-37.31-73.86-80.34l50.63-309.78c-75.14-42.38-121.53-121.63-118.23-208.38,2.43-63.92,31.31-124.09,79.24-165.41,90.02-77.61,223.47-76.8,311.96,2.51,56.5,50.63,84.85,125.12,74.55,202.1-9.14,68.33-51.68,133.4-116.81,169.35l49.76,296.02c7.06,42-13.76,89.15-63.87,92.27h0Z"/>
  <rect x="50" y="1306.28" width="1883.88" height="1625.62" rx="226.06" ry="226.06" fill="none" stroke="#000" stroke-miterlimit="10" stroke-width="100"/>
  <path d="M446.06,1306.28v-692.82c0-311.19,244.4-563.47,545.88-563.47h0c301.48,0,545.88,252.27,545.88,563.47v692.82" fill="none" stroke="#000" stroke-miterlimit="10" stroke-width="100"/>
</svg>