<?xml version="1.0" encoding="UTF-8"?>
<svg id="Layer_1" xmlns="http://www.w3.org/2000/svg" version="1.1" viewBox="0 0 3024.3 2020.44">
  <!-- Generator: Adobe Illustrator 30.3.0, SVG Export Plug-In . SVG Version: 2.1.3 Build 182)  -->
  <path d="M1515.81,22.26h1275.82c63.01-1.57,123.4,25.26,164.44,73.03,29.52,32.21,45.59,74.6,44.85,118.32-.37,167.35-.37,334.71,0,502.21,0,51.72,2.02,103.45,1.87,155.1,0,99.71-1.87,199.34-2.02,298.98-.37,207.79-2.32,415.73.82,623.52,1.42,93.36-61.66,180.36-170.19,200.54-22.2,3.66-44.77,5.31-67.27,4.93H235.14c-57.1.67-112.19-21.3-153.23-60.99-40.74-38.57-58.82-86.55-58.9-141.57v-451.61c0-367.82,2.69-735.79-1.49-1103.6C20.02,114.04,115.55,20.54,242.91,21.51c316.99,2.32,634.13.82,951.12.82h321.78v-.07ZM156.73,1884.59c22.65,16.74,50.38,25.26,78.56,24.14h2545.8c10.31.3,20.7-.15,30.94-1.42,21-1.87,40.74-10.76,55.98-25.26l-991.41-890.51c-3.81,2.69-6.95,4.71-9.94,6.95-67.27,49.71-134.54,99.63-201.81,149.49-95.97,70.56-209.81,70.71-303.54.82-49.78-37.37-99.41-74.3-149.49-111.15-20.93-15.47-42.6-29.9-64.06-44.85L156.73,1884.59h0ZM144.62,146.93c6.58,5.08,12.33,9.72,18.24,13.98,155.69,113.61,311.46,227.22,467.15,340.76,151.06,110.55,301.97,221.24,452.65,332.16,112.12,82.22,226.25,162.12,336.72,246.66,45.44,34.76,138.73,44.85,190.45-3.96,7.1-6.2,14.58-11.88,22.42-17.12,89.69-65.33,179.39-130.65,269.08-195.98,93.36-68.24,186.41-136.93,279.77-205.17,113.84-83.27,227.75-166.46,341.66-249.57,103.22-75.49,206.37-151.06,309.44-226.78l48.06-35.13c-28.93-33.78-66.15-37.37-104.04-36.85-53.52,0-107.03,1.94-160.55,1.87-51.65,0-103.22-2.17-154.87-2.17-66.75,0-133.49,1.87-200.24,2.24-44.85,0-90.14-1.42-135.21-1.35-108.08,0-216.24,1.27-324.32,1.2-72.35,0-144.63-1.49-216.76-2.02-18.76,0-37.37,1.79-56.36,1.72-52.32,0-105.17-1.49-157.71-1.42-67.64,0-135.29,1.57-202.93,1.72-44.1,0-88.2-2.02-132.3-1.94-89.25,0-178.49,1.87-267.81,1.87s-171.02-1.57-256.52-2.02c-21.6,0-43.2,2.02-64.8,1.87-69.59,0-139.17-2.39-208.69-1.12-33.86.6-67.64,6.5-92.53,36.55h0ZM2910.99,1802.67V234.53l-960.77,703.57,960.77,864.57h0ZM1075.27,937.43L115.55,234.83v1568.14l959.72-865.54h0Z" stroke="#000" stroke-miterlimit="10" stroke-width="43"/>
</svg>