<?xml version="1.0" encoding="UTF-8"?>
<svg id="Layer_1" xmlns="http://www.w3.org/2000/svg" version="1.1" viewBox="0 0 2979.12 2978.96">
  <!-- Generator: Adobe Illustrator 30.3.0, SVG Export Plug-In . SVG Version: 2.1.3 Build 182)  -->
  <path d="M686.62,614.88c-129.9-11.68-237.8-104.67-270.51-230.6l-339.43-.09c-42.57-.01-75.93-33.56-76.6-74.87-.65-40.01,31.2-76.99,74.08-77.03l341.86-.27c29.65-114.7,121.86-202.25,236.77-225.72,161.05-32.89,318.69,66.04,360.36,225.67l1890.56.05c43.02,0,76.09,36.7,75.37,77.23-.74,41.63-34.54,74.98-77.51,74.98l-1888.5.02c-37.76,145.46-174.13,244.32-326.44,230.62ZM870.67,308.18c0-86.22-69.89-156.11-156.11-156.11-86.22,0-156.11,69.89-156.11,156.11s69.89,156.11,156.11,156.11,156.11-69.89,156.11-156.11Z"/>
  <path d="M1734.84,1720.42c-115.06,102-287.49,102.88-403.53,3.19-48.08-41.31-82.56-95.91-98.73-158.14l-1154.19.13c-43.83,0-78.54-33.39-78.39-76.42.15-42.58,34.59-75.71,78.38-75.71l1154.22.09c30.98-118.75,127.87-207.65,247.47-227.78,158.32-26.65,309.48,72.53,349.79,227.77l1075.92.17c41.82,0,73.24,37.11,73.29,75.35.05,41.13-32.61,76.4-75.35,76.4h-1073.74c-15.71,60.2-48.27,113.42-95.13,154.95ZM1687.38,1489.61c0-86.22-69.89-156.11-156.11-156.11s-156.11,69.89-156.11,156.11,69.89,156.11,156.11,156.11,156.11-69.89,156.11-156.11Z"/>
  <path d="M1101.22,2975.66c-124.04-18.18-222.65-109.49-253.92-228.85l-773.04-.06c-42.2,0-74.24-36.25-74.25-76.05,0-39.64,32.12-75.59,74.21-75.6l773.17-.11c27.17-104.29,105.33-185.91,205.34-217.62,170.05-53.92,347.7,46.63,391.86,217.6l1463.15.29c42.62,0,73.34,41.2,71.29,78.9-2.35,43.25-36.51,72.77-79.42,72.77l-1454.94-.08c-39.23,151.6-185.77,251.92-343.44,228.81ZM1302.14,2670.81c0-86.22-69.89-156.11-156.11-156.11s-156.11,69.89-156.11,156.11,69.89,156.11,156.11,156.11,156.11-69.89,156.11-156.11Z"/>
</svg>