<?xml version="1.0" encoding="UTF-8"?>
<svg id="Layer_1" xmlns="http://www.w3.org/2000/svg" version="1.1" viewBox="0 0 3027.64 2347.96">
  <!-- Generator: Adobe Illustrator 30.3.0, SVG Export Plug-In . SVG Version: 2.1.3 Build 182)  -->
  <defs>
    <style>
      .st0 {
        stroke: #000;
        stroke-miterlimit: 10;
        stroke-width: 47px;
      }
    </style>
  </defs>
  <path class="st0" d="M2864.17,1802.29l-19.72,5.9c-103.68,31.14-213.4-27.9-244.48-131.65l-418.43-1394.34c-31.14-103.68,27.9-213.4,131.65-244.48l19.72-5.9c103.68-31.14,213.4,27.9,244.48,131.65l418.43,1394.34c31.14,103.68-27.9,213.4-131.65,244.48h0ZM2331.68,99.56c-69.55,20.89-109.2,94.47-88.31,164.15l418.43,1394.34c20.89,69.55,94.47,109.2,164.09,88.31l19.72-5.9c69.55-20.89,109.2-94.47,88.31-164.09l-418.43-1394.34c-20.89-69.62-94.54-109.26-164.09-88.37l-19.72,5.9h0Z"/>
  <path class="st0" d="M2631.11,1668.05c-2.14.65-4.48,1.1-6.81,1.3l-1925.09,149.69c-1.23,0-2.47.13-3.63,0l-220.41,66.18c-17.06,5.13-35.04-4.54-40.16-21.61-5.13-17.06,4.54-35.04,21.61-40.16l230.34-69.17c5.77-1.75,11.61-1.75,17.13-.45l1915.16-148.97c17.78-1.36,33.29,11.94,34.71,29.65,1.17,15.44-8.63,29.13-22.9,33.41h0l.06.13Z"/>
  <path class="st0" d="M553.74,1310.41l-230.01,69.04c-17.06,5.13-35.04-4.54-40.16-21.61-5.13-17.06,4.54-35.04,21.61-40.16l218.53-65.6c1.23-.97,2.53-1.95,3.96-2.79l1678.6-970.85c15.31-8.95,35.17-3.7,44.12,11.81,8.95,15.38,3.7,35.17-11.81,44.12l-1670.1,965.85c-3.76,4.74-8.76,8.43-14.79,10.25h0l.06-.06Z"/>
  <path class="st0" d="M396.98,2035.29l-14.27,4.28c-79.55,23.88-163.64-21.41-187.51-100.96L29.87,1387.68c-23.88-79.55,21.41-163.7,100.96-187.51l14.27-4.28c79.55-23.88,163.7,21.41,187.51,100.96l165.32,550.92c23.88,79.55-21.41,163.7-100.96,187.51ZM149.32,1261.88c-45.48,13.63-71.31,61.7-57.68,107.19l165.32,550.92c13.63,45.48,61.7,71.31,107.19,57.68l14.27-4.28c45.48-13.63,71.31-61.7,57.68-107.19l-165.32-550.92c-13.63-45.48-61.7-71.31-107.19-57.68l-14.27,4.28h0Z"/>
  <path class="st0" d="M1834.54,2147.08l-558.58,167.66c-121.2,36.4-249.48-32.64-285.81-153.9l-114.39-381.19c-5.13-17.06,4.54-35.04,21.61-40.16,17.06-5.13,35.04,4.54,40.16,21.61l114.39,381.19c26.15,87.14,118.28,136.77,205.49,110.63l558.58-167.66c87.14-26.15,136.77-118.28,110.63-205.49l-53.27-177.46c-5.13-17.06,4.54-35.04,21.61-40.16,17.06-5.13,35.04,4.54,40.16,21.61l53.27,177.46c36.4,121.2-32.64,249.48-153.9,285.81l.06.07Z"/>
</svg>