<?xml version="1.0" encoding="UTF-8"?>
<svg id="Layer_1" xmlns="http://www.w3.org/2000/svg" baseProfile="tiny" version="1.2" viewBox="0 0 3139.31 3248.44">
  <!-- Generator: Adobe Illustrator 30.3.0, SVG Export Plug-In . SVG Version: 2.1.3 Build 182)  -->
  <g>
    <path d="M1848.63,1415.72c-141.29-160.75-383.18-175.08-543.12-33.49-75.13,66.51-122.48,163.1-127.63,265.86l-2.45,304.11c-.2,24.9-23.7,40.89-45.47,41.65-20.15.7-48.36-13.58-48.46-38.36l-1.01-231.38c-.06-13.82-.06-30.97-3.61-43.83-40.46-146.43-172.15-251.37-324.85-234.29-75.14,8.4-144.29,41.06-192.51,98.7-30.28,36.19-50.82,78.98-53.97,125.66-1.87,27.79-17.3,48.34-45.21,50.92-23.5,2.17-52.77-15.97-50.85-45.17,4.92-75.07,36.71-145.37,84.9-201.58,110.37-117.24,277.14-159.89,427.61-101.87,74.08,28.56,134.75,77.05,183.6,143.98,69.39-211.01,273.52-345.77,495.65-327.58,186.37,15.27,351.56,139.71,413.29,321.15,31.91-43.92,70.3-77.23,114.95-104.41,164.68-100.22,372.36-69.79,500.22,75.08,48.01,54.4,80.2,123.84,80.95,198.31.29,28.69-30.01,44.53-53.4,41.68-28.26-3.45-41-26.11-43.42-54.52-4.85-56.87-36.54-107.71-78.78-146.08-97.37-88.43-239.7-99.64-353.19-34.1-68.6,39.62-116.8,102.87-136.4,180.7-5.02,19.92-4.6,42.01-4.67,63.57l-.68,222.15c-.08,25.88-28.02,42.79-49.41,41.37-25.4-1.68-46.03-20.53-46.16-47.93l-1.36-297.95c-.4-87.59-37.13-167-94.57-232.34Z"/>
    <path d="M1850.59,812.03c0,160.4-130.03,290.44-290.44,290.44s-290.44-130.03-290.44-290.44,130.03-290.44,290.44-290.44,290.44,130.03,290.44,290.44ZM1754.95,812.73c0-107.41-87.08-194.49-194.49-194.49s-194.49,87.08-194.49,194.49,87.08,194.49,194.49,194.49,194.49-87.08,194.49-194.49Z"/>
    <path d="M1022.52,1058.44c0,140.67-114.04,254.71-254.71,254.71s-254.71-114.04-254.71-254.71,114.04-254.71,254.71-254.71,254.71,114.04,254.71,254.71ZM926.5,1058.7c0-87.44-70.88-158.32-158.32-158.32s-158.32,70.88-158.32,158.32,70.88,158.32,158.32,158.32,158.32-70.88,158.32-158.32Z"/>
    <path d="M2606.82,1057.91c0,140.51-113.9,254.41-254.41,254.41s-254.41-113.9-254.41-254.41,113.9-254.41,254.41-254.41,254.41,113.9,254.41,254.41ZM2510.74,1058.68c0-87.33-70.79-158.12-158.12-158.12s-158.12,70.79-158.12,158.12,70.79,158.12,158.12,158.12,158.12-70.79,158.12-158.12Z"/>
  </g>
  <path d="M986.73,2951.12c-59.74-25.16-117.52-54.08-173.02-86.45C367.69,2604.57,68,2121.33,68,1568.17,68,739.65,740.31,68,1569.66,68s1501.66,671.65,1501.66,1500.17c0,557.59-304.5,1044.12-756.44,1302.7-50.93,29.14-103.73,55.38-158.18,78.51" fill="none" stroke="#000" stroke-linecap="round" stroke-miterlimit="10" stroke-width="136"/>
  <path d="M1828.42,3209.69l-254.61-133.85c-2.55-1.34-5.76-1.34-8.31,0l-254.61,133.85c-71.8,37.75-152.27-25.41-139.27-101.18l48.63-283.51c.5-2.9-.46-5.86-2.57-7.91l-205.99-200.79c-26.36-25.68-35.66-63.4-24.28-98.39,11.38-35,41.07-60.03,77.48-65.32l284.67-41.37c2.92-.43,5.42-2.25,6.72-4.88l127.31-257.96c16.3-32.99,49.28-53.5,86.08-53.5s69.78,20.5,86.08,53.51l127.31,257.96c1.3,2.64,3.82,4.47,6.72,4.88l284.67,41.37c36.42,5.29,66.11,30.33,77.49,65.32,11.38,35,2.07,72.71-24.28,98.39l-205.99,200.79c-2.1,2.05-3.07,5.01-2.57,7.91,0,0,48.56,283.19,48.63,283.51,13,75.8-67.53,138.9-139.27,101.18h-.01ZM1569.66,3027.59c9.26,0,18.51,2.05,26.28,6.13,0,0,254.55,133.83,254.61,133.85,34.01,17.89,76.99-11.8,70.26-51.04l-48.63-283.51c-4.39-28.71,2.93-37.02,16.25-50,0,0,205.36-200.18,205.99-200.79,28.31-27.6,12.1-76.94-26.84-82.6l-284.67-41.37c-18.4-2.68-34.31-14.23-42.53-30.9l-127.31-257.96c-8.34-16.9-24.57-26.99-43.42-26.99s-35.08,10.09-43.42,26.99l-127.31,257.96c-8.24,16.68-24.13,28.24-42.54,30.9,0,0-255.13,37.07-284.67,41.37-38.15,5.54-55.07,55.07-26.84,82.58l205.99,200.79c13.32,12.98,19.39,31.68,16.25,50,0,0-48.53,282.91-48.63,283.51-6.65,38.75,35.5,69.32,70.26,51.04,0,0,253.51-133.28,254.61-133.85,7.79-4.09,17.05-6.15,26.3-6.15v.02Z" stroke="#000" stroke-miterlimit="10" stroke-width="55"/>
</svg>