<?xml version="1.0" encoding="UTF-8"?>
<svg id="Layer_1" xmlns="http://www.w3.org/2000/svg" version="1.1" viewBox="0 0 2992.58 2985.83">
  <!-- Generator: Adobe Illustrator 30.3.0, SVG Export Plug-In . SVG Version: 2.1.3 Build 182)  -->
  <defs>
    <style>
      .st0 {
        stroke-width: 100px;
      }

      .st0, .st1, .st2 {
        stroke: #000;
        stroke-miterlimit: 10;
      }

      .st0, .st2 {
        fill: none;
      }

      .st1 {
        stroke-width: 30px;
      }

      .st2 {
        stroke-linecap: round;
        stroke-width: 150px;
      }
    </style>
  </defs>
  <path class="st1" d="M880.43,2753.83h-344.69c-7.55.35-15.11.07-22.62-.84-15.29-2.51-26.67-12-26.46-26.03.91-54.23-6.98-108.89,8.79-162.5,34.9-122.02,147.7-213.88,273.77-221.07,16.62-.6,33.2,1.96,48.86,7.54,40.4,15.37,84.97,15.76,125.65,1.12,26.94-9.84,54.94-8.24,82.02-3.7,128.16,21.57,233.98,121.17,250.24,256.73,4.54,38.04,2.38,76.78,1.47,115.52-.49,19.62-14.73,31.41-34.9,33.01-6.63.49-13.4,0-20.1,0h-342.03v.22ZM1214.72,2688.15c0-26.39,2.93-51.03-.56-74.69-11.59-77.9-53.89-136.05-121.1-175.9-26.86-15.71-56.6-25.87-87.47-29.88-19.75-2.72-38.04,3.07-56.54,8.65-50.4,15.22-100.59,17.31-150.08-3.77-18.78-8.03-37.7-5.58-56.82-1.81-62.26,12.15-110.85,45.79-148.54,95.84-40.49,53.61-53.12,114.05-42.86,181.49l663.96.07Z"/>
  <path class="st1" d="M2162.5,2326.08h-436.72c-7.69,0-15.29.54-22.8,0-19.85-.2-35.84-16.35-35.84-36.2-2.52-20.35,11.1-39.19,31.22-43.16,8.6-1.26,17.3-1.65,25.97-1.18h883.93c7.59-.35,15.19-.02,22.71,1,20.05,3.76,34.28,21.7,33.39,42.08-1.3,19.12-16.3,34.46-35.38,36.2-8.63.8-17.31,1.01-25.97.63h-440.52v.63h.01Z"/>
  <path class="st1" d="M2167.39,1997.05h433.73c8.68-.45,17.38-.45,26.06,0,19.45.63,35.17,16.04,36.2,35.47,2.27,19.23-10.21,37.13-29.05,41.63-8.42,1.98-17.06,2.84-25.7,2.53h-887.19c-37.19,0-54.3-16.2-51.22-46.6.57-17.07,13.76-31.03,30.77-32.58,9.74-1,19.54-1.27,29.32-.81h436.99l.09.36Z"/>
  <path class="st1" d="M2008.67,2574.12h-283.51c-7.6.41-15.23.23-22.8-.54-19.27-1.95-33.94-18.18-33.93-37.55-1.28-19.26,11.79-36.53,30.68-40.54,8.55-1.39,17.23-1.88,25.88-1.45h570.1c9.73-.43,19.48.49,28.96,2.71,20.93,6.58,32.56,28.88,25.98,49.81-4.56,14.51-17,25.14-32.05,27.38-8.64.74-17.31.89-25.97.45h-283.33v-.27h0Z"/>
  <path class="st1" d="M2787.74,1571.22c34.68,0,67.29,13.51,91.81,38.03s38.03,57.13,38.03,91.81v1079.92c0,34.68-13.51,67.29-38.03,91.81s-57.13,38.03-91.81,38.03H204.84c-34.68,0-67.29-13.51-91.81-38.03s-38.03-57.13-38.03-91.81v-1079.92c0-34.68,13.51-67.29,38.03-91.81,24.52-24.52,57.13-38.03,91.81-38.03h2582.89M2771.99,1496.22H218.67c-111.83,0-202.49,90.58-202.49,202.32v1066.64c0,111.74,90.66,202.32,202.49,202.32h2553.31c111.83,0,202.49-90.58,202.49-202.32v-1066.64c0-111.74-90.66-202.32-202.49-202.32h0Z"/>
  <line class="st2" x1="860.66" y1="100" x2="1355.3" y2="1149.77"/>
  <path class="st1" d="M1590.12,1250.03c16.36,0,29.66,13.31,29.66,29.66v160.17c0,16.36-13.31,29.66-29.66,29.66h-181.68c-16.36,0-29.66-13.31-29.66-29.66v-160.17c0-16.36,13.31-29.66,29.66-29.66h181.68M1590.12,1150.03h-181.68c-71.61,0-129.66,58.05-129.66,129.66v160.17c0,71.61,58.05,129.66,129.66,129.66h181.68c71.61,0,129.66-58.05,129.66-129.66v-160.17c0-71.61-58.05-129.66-129.66-129.66h0Z"/>
  <line class="st2" x1="2161.19" y1="100" x2="1646.87" y2="1160.49"/>
  <path class="st0" d="M1099.84,2028.39c0,143.35-94.59,211.27-211.27,211.27s-211.27-94.59-211.27-211.27,94.59-211.27,211.27-211.27,211.27,94.59,211.27,211.27Z"/>
</svg>