<?xml version="1.0" encoding="UTF-8"?>
<svg id="Layer_1" xmlns="http://www.w3.org/2000/svg" version="1.1" viewBox="0 0 2584.68 2994.86">
  <!-- Generator: Adobe Illustrator 30.3.0, SVG Export Plug-In . SVG Version: 2.1.3 Build 182)  -->
  <path d="M1337.68,2838.9c-14.73,85.3-60,154.55-156.19,154.77l-500.64,1.18c-74.91.18-141.39-59.98-128.72-137.53l43.62-267.04-448.31.98c-87.3.19-160.55-68.52-145.45-159.71L386.65,108.29C397.79,40.99,473.49-.03,537.42,0l994.8.4c119.62.05,232.84,26.52,339.06,72.7,292.96,127.37,416.86,411.52,381.67,721.65,200.47,97.08,320.17,293.78,330.75,514.07,22.15,461.12-334.77,852.08-805.87,891.34l-330.93,6.38-109.22,632.35ZM1322.72,1545.72c481.81-4.03,819.44-432.7,797.91-909.87-9.9-219.45-150.97-397.27-360.09-464.54-86.12-23.53-167.77-37.54-259.44-37.6l-985.1-.67-206.34,1253.19-178.64,1071.54,487.14.12,131.04-761.29c4.83-81.83,72.64-146.67,157.43-147.38l416.11-3.48ZM1199.25,2862.47l109.58-648.63c6.63-74.25,66.08-136.76,144.05-138.11l284.69-4.94c426.91-20.36,751.03-377.51,710.44-793.59-14-143.48-90.74-272.22-220.59-349.05-102.41,425.51-452.21,742.79-899.66,748.76l-442.49,5.9-199.03,1180.07,513.01-.41Z"/>
</svg>