<?xml version="1.0" encoding="UTF-8"?>
<svg id="Layer_1" xmlns="http://www.w3.org/2000/svg" version="1.1" viewBox="0 0 2992.58 2988.7">
  <!-- Generator: Adobe Illustrator 30.3.0, SVG Export Plug-In . SVG Version: 2.1.3 Build 182)  -->
  <path d="M2661.9,100c61.29,0,118.91,23.87,162.25,67.21s67.21,100.96,67.21,162.25v2325.53c0,61.29-23.87,118.91-67.21,162.25-43.34,43.34-100.96,67.21-162.25,67.21H336.37c-61.29,0-118.91-23.87-162.25-67.21-43.34-43.34-67.21-100.96-67.21-162.25V329.45c0-61.29,23.87-118.91,67.21-162.25,43.34-43.34,100.96-67.21,162.25-67.21h2325.53M2661.9,0H336.37C154.42,0,6.92,147.5,6.92,329.45v2325.53c0,181.95,147.5,329.45,329.45,329.45h2325.53c181.95,0,329.45-147.5,329.45-329.45V329.45C2991.36,147.5,2843.85,0,2661.9,0h0Z"/>
  <path d="M1799.06,982.02c56.74,0,110.08,22.09,150.19,62.21,40.12,40.12,62.21,93.46,62.21,150.19v599.85c0,56.74-22.09,110.08-62.21,150.19-40.12,40.12-93.46,62.21-150.19,62.21h-599.85c-56.74,0-110.08-22.09-150.19-62.21-40.12-40.12-62.21-93.46-62.21-150.19v-599.85c0-56.74,22.09-110.08,62.21-150.19,40.12-40.12,93.46-62.21,150.19-62.21h599.85M1799.06,882.02h-599.85c-172.54,0-312.41,139.87-312.41,312.41v599.85c0,172.54,139.87,312.41,312.41,312.41h599.85c172.54,0,312.41-139.87,312.41-312.41v-599.85c0-172.54-139.87-312.41-312.41-312.41h0Z"/>
</svg>