<?xml version="1.0" encoding="UTF-8"?>
<svg id="Layer_1" xmlns="http://www.w3.org/2000/svg" version="1.1" viewBox="0 0 2971.31 2988.7">
  <!-- Generator: Adobe Illustrator 30.3.0, SVG Export Plug-In . SVG Version: 2.1.3 Build 182)  -->
  <path d="M1839.75,1132.93l231.1-.8c44.47-.15,83.25,47.87,83.61,89.64l1.47,173.15c252.29-8.4,478.49,107.12,629.87,285.47,167.4,197.23,221.64,454.62,162.18,700.4-68.89,284.74-281.64,491.27-537.13,572.79-302.47,96.5-596.15-15.99-812.12-214.11l-1488.13-8.9c-68-.41-112.35-59.12-110.54-120.55l4.41-149.93c2.45-83.1,98.69-118.68,179.83-105.94l3.39-162.68c1.5-71.92,70.49-111.81,143.5-99.85l.28-859.16c.02-56.31,37.15-100.87,96.12-100.42l244.4,1.88c45.49.35,76.99,56.67,76.98,97.87l-.14,857.85,291.78.02.89-867.07c.06-55.21,49.13-90.57,98.61-90.61l215.73-.16c66.15-.05,99.09,48.62,99.18,109.86l.88,620.97c72.03-138.61,160.14-254.71,292.71-337.69l-.03-293.9c0-46.7,34.49-97.95,91.18-98.14ZM626.7,1256.72l-173.75.07.33,833.03,173.75-.07-.33-833.03ZM1163.85,1256.32l-1.22,833.37,170.31.25,1.22-833.37-170.31-.25ZM2036.76,1405.23l-1.31-148.03-166.97.63.41,200.22,167.88-52.81ZM2848.62,2191.58c0-369.57-299.6-669.17-669.17-669.17s-669.17,299.6-669.17,669.17,299.6,669.17,669.17,669.17,669.17-299.6,669.17-669.17ZM1400.4,2212.93l-1092.26,1.18.15,138.02,1092.26-1.18-.15-138.02ZM1501.3,2606.33l-64.3-130.62-1314.53-.13,1.96,131.24,1376.87-.49Z"/>
  <path d="M2343.67,1013.78l-2195.53.13c-78.84,0-113.05-79.4-106.32-143.09,3.8-35.93-9.04-93.03,26.83-116.72L1173.34,24.58c41.34-27.3,83.83-35.18,127.57-6.48l1125.08,738.12c26.46,30.26,21.47,75.62,24.02,115.83,3.67,58.04-24.91,141.73-106.34,141.73ZM2321.13,888.02c1.98-21.33,1.33-41.93-2.16-53.46L1240.4,130.22,200.28,817.39c-29.27,19.34-44.47,33.25-31.82,70.85l2152.67-.22Z"/>
  <path d="M2340.13,2097.11l63.65-74.88-585.57-1.61c-24.15-.07-43.51-41.27-41.1-59.62,3.24-24.67,27.93-53.98,58.02-54.03l568.58-.97-59.95-61.87c-15.12-15.6-9.82-57.65,6.76-71.06,24.97-20.2,56.18-14.54,78.43,7.82l142.51,143.23c20.26,20.36,19.83,60.55-1.06,81.67l-156.17,157.83c-12.16,12.29-51.78,6.64-64.27-3.12-12.49-9.77-21.41-49.74-9.82-63.38Z"/>
  <path d="M1961.44,2476.64l46.65,51.62c14.24,15.76,15.8,51.12,2.84,67.74-13.07,16.77-54.4,23.5-69.88,8.21l-153.93-152.02c-24.17-23.87-10.86-63.87,9.4-84.57l141.28-144.37c17.6-17.98,54.21-19.45,73.63-1.06,14.09,13.34,19.89,50.25,5.06,66.13l-66.37,71.1,583.53,1.6c30.33.08,55.05,33.86,53.66,57.94-1.51,26.13-27.3,55.79-57.99,55.88l-567.9,1.8Z"/>
</svg>