<?xml version="1.0" encoding="UTF-8"?>
<svg id="Layer_1" xmlns="http://www.w3.org/2000/svg" version="1.1" viewBox="0 0 2202.68 2988.7">
  <!-- Generator: Adobe Illustrator 30.3.0, SVG Export Plug-In . SVG Version: 2.1.3 Build 182)  -->
  <path d="M1732.31,2836.32c-476.59,245.89-1142.41,169.49-1627.64-53.76-40.87-18.8-88.04-49.91-88.07-101.19l-.44-605.93c-.03-40.32,39.81-77.2,67.19-88.9,37.81-16.15,86.49-8.64,121.52,11.92,198.5,116.51,410.14,199.62,638.35,233.95,164.04,24.68,413.43,31.15,448.33-105.88,28.08-110.23-74.99-172.26-191.72-213.23l-388.97-136.51c-135.1-47.41-258.8-110.55-374.74-191.73C117.98,1432.33-2.7,1195.15.05,928.41,3.33,610.13,169.13,329.71,444.25,170.06c447.47-259.67,1067.58-195.43,1531.25,14.63,41.97,19.02,72.48,59.66,72.56,104.9l.97,555.04c.08,44.93-21.22,86.82-53.83,106.58-38.19,23.14-83.54,22.42-124.64,1.94-198.4-98.87-404.21-165.67-626.17-185.86-140.33-12.76-325.7-2.05-339.78,114.62-13.96,115.71,114.8,161.71,241.38,207.58l408.42,148.02c118.93,43.1,226.16,102.54,326.69,177.37,202.27,150.55,316.13,374.6,321.39,627.57,7.01,337.36-170.95,639.5-470.16,793.88ZM1704.18,2692.46c231.05-133.44,363.47-372.13,360.4-639.53-4.74-413.33-315.07-600.29-670.91-727.43l-364.02-130.06c-172.63-61.68-300.04-182.19-260.23-353.91,38.12-164.39,208.26-218.24,380.4-218.86,265.59,6.75,513.96,73.38,759.93,195.34l.37-508.38c-308.4-139.25-637.37-194.81-968.95-156.52C519.81,201.78,166.26,456.33,142.59,897.08c-11.09,206.52,63.57,399.47,222.52,532.27,93.54,78.16,195.69,141.29,311.2,182.47l457.42,163.07c188.22,67.1,333.14,173.42,296.41,371.96-36.42,196.84-269.11,254.72-471.79,240.53-283.32-19.28-548.71-109.53-801.82-256.08l.1,519.22c452.37,218.63,1116.97,290.62,1547.54,41.94Z"/>
</svg>