<?xml version="1.0" encoding="UTF-8"?>
<svg id="Layer_1" xmlns="http://www.w3.org/2000/svg" version="1.1" viewBox="0 0 2956.74 2393.75">
  <!-- Generator: Adobe Illustrator 30.3.0, SVG Export Plug-In . SVG Version: 2.1.3 Build 182)  -->
  <path d="M2956.04,2131.35c-.07,132.62-134.28,261.68-261.98,261.72l-2427.29.68C122.52,2384.54,6.6,2266.96.12,2122.86L0,730.27c0-56.68,13.88-107.5,45.79-153.81,38.09-55.26,93.18-95.17,159.76-109.25l.44-110.79c.22-56.45,48.3-99.69,104.37-98.46l279.8.49c55.14.1,96.26,47.4,98.28,100.21l-.45,104.01,113.13-.26,221.66-393.06C1051.95,27.3,1095.55-.03,1147.76,0l667.23.33c52.51.03,100.63,31.1,125.88,75.83l159.75,282.93,57.82,103.65h111.23s.5-106.17.5-106.17c.27-57.84,49.27-98.87,105.58-98.81l280.12.29c48.65,2.98,91.93,40.72,94.87,90.56l1.03,117.56c112.06,24.82,197.17,121.88,204.96,237.83l-.7,1427.36ZM2692.36,2265.92c71.02-8.04,138.44-68.73,138.5-142.26l1.16-1406.57c-3.25-66.98-53.55-122.43-120.13-129.58l-582.08-.42c-28.63-.02-50.14-18.93-68.48-38.71l-227.89-405.7c-5.88-10.47-16.36-14.47-28.28-14.47l-649.59.02c-10.31,0-23.06,2.51-28.26,11.75l-227.54,403.91c-13.66,24.24-43.35,43.12-71.27,43.14l-582.26.5c-66.78,7.32-117.44,62.29-120.27,129.62l.03,1403.92c5.84,75.75,65.59,136.75,140.95,144.84h2425.41ZM568.56,378.64l-243.08.11.04,84.15,243.08-.11-.04-84.15ZM2389.01,378.64l-.04,84.23,243.31.11.04-84.23-243.31-.11Z"/>
  <path d="M1157.04,2071.19c-78.82-37.57-149.28-89.47-213.22-150.45-33.14-31.6-59.95-65.47-87.15-102.31-49.15-66.55-85.29-138.93-111.57-217.61-46.32-138.68-51.07-285.3-14.06-427.2,72.25-277.05,286.44-502.52,565.5-574.41,159.94-41.21,326.74-28.33,478.38,36.88,339.46,145.98,539.01,522.2,461.56,884.79-34.86,163.21-119.97,309.44-240.91,421.01-227.45,209.83-558.41,262.82-838.53,129.3ZM2131.48,1360.11c0-359.47-291.41-650.89-650.89-650.89s-650.89,291.41-650.89,650.89,291.41,650.89,650.89,650.89,650.89-291.41,650.89-650.89Z"/>
  <path d="M583.16,926.4c0,80.06-64.9,144.95-144.95,144.95s-144.95-64.9-144.95-144.95,64.9-144.95,144.95-144.95,144.95,64.9,144.95,144.95ZM475.42,926.49c0-20.54-16.65-37.19-37.19-37.19s-37.19,16.65-37.19,37.19,16.65,37.19,37.19,37.19,37.19-16.65,37.19-37.19Z"/>
  <path d="M1976.14,1360.07c0,273.74-221.91,495.65-495.65,495.65s-495.65-221.91-495.65-495.65,221.91-495.65,495.65-495.65,495.65,221.91,495.65,495.65ZM1851.15,1359.93c0-204.7-165.94-370.64-370.64-370.64s-370.64,165.94-370.64,370.64,165.94,370.64,370.64,370.64,370.64-165.94,370.64-370.64Z"/>
  <path d="M1294.6,1320.34c-4.15,33.51-22.97,57.43-56.2,59.7-27.36,1.87-60.47-22.25-58.43-54.44,8.87-139.66,119.41-253.04,256.85-270.73,35.78-4.61,66.22,16.04,69.73,49.73,3.87,37.1-23.11,60.29-58.88,64.27-77.34,8.62-143.39,73.33-153.07,151.47Z"/>
</svg>