<?xml version="1.0" encoding="UTF-8"?>
<svg id="_ÎÓÈ_1" data-name="—ÎÓÈ_1" xmlns="http://www.w3.org/2000/svg" viewBox="0 0 1254.1 1744.27">
  <g>
    <g>
      <path d="M640.47,498.5c-5.52,0-10.78-3.22-13.12-8.61l-113.42-261.52c-2.81-6.49-7.98-11.49-14.56-14.09-6.58-2.6-13.77-2.49-20.26.32L19.99,413.8c-7.25,3.14-15.67-.18-18.81-7.43-3.14-7.24.18-15.66,7.43-18.81l459.13-199.2c27.89-12.07,60.36.78,72.42,28.64l113.42,261.51c3.14,7.24-.18,15.66-7.43,18.8-1.85.8-3.79,1.18-5.69,1.18Z"/>
      <path d="M478.22,1088.4c-2.81,0-5.62-.08-8.44-.23-90.18-4.88-177.13-34.77-251.45-86.41-74.2-51.62-132.42-122.74-168.38-205.69L1.19,683.7c-3.14-7.24.18-15.67,7.42-18.81,7.25-3.15,15.66.18,18.81,7.42l48.78,112.38c33.84,78.08,88.64,145.02,158.47,193.59,69.95,48.62,151.79,76.74,236.67,81.34,40.87,2.18,80.94-15.19,107.2-46.51,24.98-29.81,46.01-62.53,62.5-97.25,3.38-7.14,11.92-10.18,19.04-6.78,7.13,3.38,10.17,11.91,6.78,19.04-17.53,36.92-39.88,71.69-66.42,103.35-30.2,36.02-75.38,56.92-122.22,56.92Z"/>
      <path d="M696.29,675.98c-6.1,0-11.75-3.93-13.64-10.08v-.04c-2.33-7.55,1.9-15.55,9.45-17.87,7.55-2.33,15.55,1.92,17.87,9.46,2.32,7.55-1.91,15.57-9.46,17.89-1.41.43-2.83.64-4.22.64Z"/>
      <path d="M161.44,608.95c-24.39,0-46.04-7.08-56.79-11.31-4.58-1.8-8.18-5.28-10.14-9.78-1.95-4.5-2.03-9.5-.22-14.08,6.59-16.63,26.1-57.12,64.71-73.88,38.62-16.75,81.51-3.33,98.16,3.21h0c4.58,1.8,8.18,5.28,10.14,9.78,1.95,4.5,2.03,9.51.22,14.08-6.59,16.63-26.1,57.12-64.71,73.87-13.71,5.95-27.96,8.09-41.37,8.09ZM125.24,574.53c15.74,4.78,42.99,10.16,66.18.09,23.19-10.06,37.88-33.63,45.15-48.39-15.74-4.78-42.99-10.16-66.19-.09-23.19,10.06-37.88,33.63-45.15,48.39ZM246.69,529.72s0,0,.01,0c0,0,0,0-.01,0Z"/>
      <path d="M385.59,511.7c-24.39,0-46.04-7.08-56.78-11.31-4.58-1.8-8.18-5.28-10.14-9.78-1.95-4.5-2.03-9.51-.22-14.08,6.59-16.63,26.1-57.12,64.71-73.87,38.63-16.75,81.51-3.33,98.16,3.21h0c4.58,1.8,8.18,5.27,10.13,9.78,1.95,4.5,2.03,9.51.22,14.08-6.59,16.63-26.1,57.12-64.71,73.87-13.71,5.95-27.96,8.1-41.38,8.1ZM349.4,477.28c15.74,4.78,42.99,10.16,66.19.09,23.19-10.06,37.88-33.63,45.15-48.39-15.75-4.78-43-10.15-66.18-.09-23.19,10.06-37.88,33.64-45.15,48.39Z"/>
      <path d="M396.53,959.4c-.85,0-1.71-.07-2.57-.23-7.77-1.41-12.92-8.86-11.51-16.63,6.25-34.35,31.89-65.13,66.92-80.32,35.01-15.19,75-12.89,104.35,6,6.64,4.27,8.56,13.12,4.28,19.76-4.27,6.65-13.12,8.57-19.76,4.29-21.42-13.79-51.12-15.26-77.49-3.81-26.38,11.44-45.6,34.13-50.17,59.21-1.25,6.9-7.27,11.74-14.05,11.74Z"/>
    </g>
    <g>
      <path d="M1056.21,1192.81c-2.81,0-5.62-.08-8.43-.23-90.21-4.89-177.14-34.78-251.39-86.42-65.25-45.32-118.92-106.75-155.18-177.66-4.71-9.1-9.18-18.56-13.27-28.06l-133.81-308.41c-5.85-13.47-6.1-28.43-.7-42.11,5.4-13.67,15.79-24.42,29.28-30.26l523.03-226.89c27.82-12.04,60.29.75,72.41,28.54l134.23,309.49c.26.59.52,1.19.75,1.81,2.83,7.36-.84,15.59-8.19,18.43-7.35,2.85-15.63-.82-18.49-8.17l-.23-.53c-.21-.48-.42-.96-.61-1.45l-133.67-308.18c-5.82-13.34-21.45-19.51-34.81-13.71l-523.04,226.89c-6.47,2.8-11.46,7.96-14.05,14.52-2.59,6.57-2.48,13.75.34,20.22l133.82,308.46c3.84,8.92,8.03,17.77,12.45,26.33,34.15,66.8,84.65,124.61,146.07,167.25,69.9,48.62,151.71,76.75,236.61,81.36,40.74,2.13,80.88-15.19,107.21-46.52,28.95-34.53,52.54-72.93,70.1-114.12,3.09-7.27,11.48-10.65,18.76-7.55,7.27,3.1,10.64,11.49,7.55,18.76-18.66,43.78-43.74,84.59-74.5,121.29-30.27,36.02-75.45,56.91-122.23,56.91Z"/>
      <path d="M739.42,713.33c-24.39,0-46.05-7.08-56.79-11.31-4.59-1.81-8.19-5.29-10.14-9.8-1.95-4.51-2.02-9.51-.21-14.08,6.59-16.62,26.09-57.11,64.71-73.86,38.63-16.75,81.51-3.33,98.16,3.21h0c4.57,1.8,8.17,5.28,10.13,9.78s2.03,9.5.23,14.07c-6.6,16.64-26.1,57.13-64.72,73.89-13.71,5.95-27.95,8.09-41.37,8.09ZM698.87,688.68s0,.01,0,.02c0,0,0-.01,0-.02ZM703.23,678.91c15.74,4.77,43,10.14,66.18.09,23.19-10.06,37.88-33.63,45.15-48.39-15.74-4.78-42.98-10.16-66.19-.09-23.19,10.06-37.88,33.63-45.15,48.39Z"/>
      <path d="M963.58,616.08c-24.39,0-46.05-7.08-56.79-11.31-4.57-1.8-8.17-5.27-10.13-9.77-1.95-4.5-2.04-9.51-.23-14.08,6.6-16.65,26.1-57.14,64.72-73.89,38.63-16.76,81.51-3.34,98.16,3.21,4.59,1.8,8.19,5.28,10.14,9.79,1.95,4.51,2.03,9.51.21,14.09-6.59,16.62-26.09,57.11-64.71,73.86-13.71,5.95-27.96,8.09-41.37,8.09ZM927.39,581.66c15.74,4.78,42.99,10.15,66.19.09,23.19-10.06,37.88-33.64,45.15-48.4-15.75-4.78-43-10.16-66.19-.09-23.19,10.06-37.88,33.63-45.15,48.39ZM1048.85,536.86h.06-.06ZM1043.08,523.57s0,.01,0,.02c0,0,0-.01,0-.02Z"/>
      <path d="M1007.23,1040.15c-20.4,0-40.19-5.38-56.65-15.97-6.63-4.28-8.56-13.12-4.28-19.76,4.28-6.65,13.12-8.55,19.77-4.28,21.42,13.79,51.11,15.25,77.48,3.81,26.37-11.44,45.59-34.13,50.15-59.21,1.41-7.77,8.85-12.92,16.63-11.51,7.77,1.41,12.92,8.86,11.51,16.63-6.25,34.35-31.89,65.13-66.91,80.32-15.38,6.67-31.72,9.97-47.69,9.97Z"/>
    </g>
    <path d="M978.67,880.8c-9.04,0-18.04-2.26-26.27-6.73-14.98-8.16-25.18-22.49-27.97-39.32l-18.96-114.23c-1.3-7.79,3.97-15.15,11.76-16.44,7.8-1.3,15.15,3.98,16.44,11.76l18.96,114.23c1.34,8.08,6.24,14.96,13.44,18.88,7.2,3.92,15.64,4.29,23.15,1.03l26.88-11.66c7.24-3.15,15.67.18,18.81,7.43,3.14,7.24-.18,15.66-7.43,18.8l-26.88,11.66c-7.06,3.06-14.5,4.58-21.93,4.58Z"/>
    <path d="M367.65,794.41c-5.53,0-10.78-3.22-13.12-8.61-3.14-7.24.18-15.66,7.43-18.81l28.31-12.28c7.52-3.26,13.01-9.68,15.06-17.61,2.06-7.93.37-16.21-4.61-22.71l-70.45-91.85c-4.81-6.27-3.62-15.24,2.64-20.05,6.27-4.8,15.24-3.62,20.05,2.64l70.45,91.85c10.38,13.54,13.88,30.78,9.6,47.29-4.28,16.51-15.71,29.88-31.36,36.67l-28.31,12.28c-1.85.8-3.78,1.18-5.68,1.18Z"/>
  </g>
  <path d="M1178.53,1744.27H75.6C33.92,1744.27.02,1710.37.02,1668.7V75.57C.02,33.9,33.92,0,75.6,0h1102.94c41.67,0,75.57,33.9,75.57,75.57v1593.13c0,41.67-33.9,75.57-75.57,75.57ZM75.6,28.59c-25.9,0-46.98,21.07-46.98,46.98v1593.13c0,25.9,21.07,46.98,46.98,46.98h1102.94c25.9,0,46.97-21.08,46.97-46.98V75.57c0-25.9-21.07-46.98-46.97-46.98H75.6Z"/>
  <path d="M1117.26,1560.45h-245.1c-7.9,0-14.3-6.4-14.3-14.3s6.4-14.3,14.3-14.3h245.1c7.9,0,14.3,6.4,14.3,14.3s-6.4,14.3-14.3,14.3Z"/>
  <path d="M749.61,1560.45H136.87c-7.9,0-14.3-6.4-14.3-14.3s6.4-14.3,14.3-14.3h612.74c7.9,0,14.3,6.4,14.3,14.3s-6.4,14.3-14.3,14.3Z"/>
  <path d="M1117.26,1376.62h-551.47c-7.9,0-14.3-6.4-14.3-14.3s6.4-14.3,14.3-14.3h551.47c7.9,0,14.3,6.4,14.3,14.3s-6.4,14.3-14.3,14.3Z"/>
  <path d="M443.24,1376.62H136.87c-7.9,0-14.3-6.4-14.3-14.3s6.4-14.3,14.3-14.3h306.37c7.9,0,14.3,6.4,14.3,14.3s-6.4,14.3-14.3,14.3Z"/>
</svg>