<?xml version="1.0" encoding="UTF-8"?>
<svg id="Layer_1" xmlns="http://www.w3.org/2000/svg" version="1.1" viewBox="0 0 3140.78 2985.95">
  <!-- Generator: Adobe Illustrator 30.3.0, SVG Export Plug-In . SVG Version: 2.1.3 Build 182)  -->
  <path d="M2898.14,2750.78c0,46.31,36.69,83.88,82.03,84.03l87.15.27c40.68.13,71.63,32.87,73.39,72.5,1.72,38.77-28.78,78.35-70.92,78.35l-2997.37.03c-42.13,0-72.62-36.47-72.42-75.86.21-42.01,32.16-75.03,74.61-75.16l65.19-.21c45.34-.15,82.02-37.73,82.02-84.04l-.06-2272.89c0-76.78,14.06-150.23,49.8-218.19C346.06,106.06,509.01.32,678.74.28l1365.67-.28,408.56.82c149.48.3,296.59,91.28,376.66,218.35,40.22,67.43,68.36,143.5,68.36,224.37l.16,2307.24ZM2462.31,349.47c66.72,0,112.91,58.04,112.9,121.74l-.13,2356.34c0,3.19,3.18,7.35,5,7.34l94.6-.15c45.39-.07,82.15-37.67,82.15-84.03l.02-1409.12-.21-472.79-.85-403.26c-3.48-162.34-128.87-295.27-285.73-309.76-2.35-.22-4.71-.31-7.07-.3l-1806.22.75c-69.12.03-132.27,37.33-184.15,78.81-2.14,1.71-4.2,3.53-6.15,5.47-58.37,57.93-92.82,132.97-99.45,216.28-.17,2.19-.25,4.39-.25,6.59l-.03,2287.3c0,46.4,36.83,84.03,82.26,84.03h18.25c45.45.01,82.29-37.61,82.29-84.03l-.02-2285.5c0-2.52.1-5.03.33-7.54,5.64-62.09,53.02-109.2,115.22-108.36l1797.24.17ZM1401.64,495.86h-619.29c-51.69,0-93.6,41.91-93.6,93.6v2151.9c0,51.69,41.91,93.6,93.6,93.6h619.29c51.69,0,93.6-41.91,93.6-93.6V589.46c0-51.69-41.91-93.6-93.6-93.6ZM2344.62,495.83h-627.92c-51.69,0-93.6,41.91-93.6,93.61l.02,2151.92c0,51.69,41.91,93.6,93.6,93.6h627.92c51.69,0,93.6-41.91,93.6-93.61l-.02-2151.92c0-51.69-41.91-93.6-93.6-93.6Z"/>
  <ellipse cx="1828.36" cy="1619.64" rx="107.11" ry="109.4"/>
  <ellipse cx="1289.7" cy="1619.59" rx="107.04" ry="109.32"/>
</svg>