<?xml version="1.0" encoding="UTF-8"?>
<svg id="Layer_1" xmlns="http://www.w3.org/2000/svg" version="1.1" viewBox="0 0 3140.78 2985.95">
  <!-- Generator: Adobe Illustrator 30.3.0, SVG Export Plug-In . SVG Version: 2.1.3 Build 182)  -->
  <defs>
    <style>
      .st0 {
        stroke-linecap: round;
      }

      .st0, .st1, .st2 {
        stroke: #000;
        stroke-linejoin: round;
        stroke-width: 85px;
      }

      .st0, .st2 {
        fill: none;
      }
    </style>
  </defs>
  <path d="M2908.22,85c39.42,0,76.47,15.35,104.35,43.22,27.87,27.87,43.22,64.93,43.22,104.35v2536.26c0,39.42-15.35,76.47-43.22,104.35-27.87,27.87-64.93,43.22-104.35,43.22H229.35c-39.42,0-76.47-15.35-104.35-43.22-27.87-27.87-43.22-64.93-43.22-104.35V232.57c0-39.42,15.35-76.47,43.22-104.35,27.87-27.87,64.93-43.22,104.35-43.22h2678.87M2908.22,0H229.35C100.9,0-3.22,104.12-3.22,232.57v2536.26c0,128.44,104.12,232.57,232.57,232.57h2678.87c128.44,0,232.57-104.12,232.57-232.57V232.57C3140.78,104.12,3036.66,0,2908.22,0h0Z"/>
  <path class="st0" d="M419.33,2937.34V623.45c0-128.44,104.12-232.57,232.57-232.57h1837c128.44,0,232.57,104.12,232.57,232.57v2313.88"/>
  <line class="st2" x1="1570.39" y1="390.88" x2="1570.39" y2="2937.34"/>
  <circle class="st1" cx="1310.45" cy="1845.74" r="49.85"/>
  <circle class="st1" cx="1830.34" cy="1845.74" r="49.85"/>
</svg>