<?xml version="1.0" encoding="UTF-8"?>
<svg id="Layer_1" xmlns="http://www.w3.org/2000/svg" version="1.1" viewBox="0 0 3128.69 2987.5">
  <!-- Generator: Adobe Illustrator 30.3.0, SVG Export Plug-In . SVG Version: 2.1.3 Build 182)  -->
  <path d="M2890.43,92.15c39.03,0,75.71,15.2,103.31,42.79,27.59,27.59,42.79,64.28,42.79,103.31v2510.99c0,39.03-15.2,75.71-42.79,103.31-27.59,27.59-64.28,42.79-103.31,42.79H238.25c-39.03,0-75.71-15.2-103.31-42.79-27.59-27.59-42.79-64.28-42.79-103.31V238.25c0-39.03,15.2-75.71,42.79-103.31,27.59-27.59,64.28-42.79,103.31-42.79h2652.18M2890.43,8H238.25C111.08,8,8,111.08,8,238.25v2510.99c0,127.16,103.08,230.25,230.25,230.25h2652.18c127.16,0,230.25-103.08,230.25-230.25V238.25c-.01-127.17-103.09-230.25-230.25-230.25h0Z" stroke="#000" stroke-miterlimit="10" stroke-width="16"/>
  <path d="M426.34,2916.07V625.24c0-127.16,103.08-230.25,230.25-230.25h1818.7c127.16,0,230.25,103.08,230.25,230.25v2290.83" fill="none" stroke="#000" stroke-linecap="round" stroke-linejoin="round" stroke-width="100"/>
  <line x1="1565.93" y1="394.99" x2="1565.93" y2="2916.07" fill="none" stroke="#000" stroke-linejoin="round" stroke-width="99"/>
  <circle cx="1308.58" cy="1835.35" r="49.35" stroke="#000" stroke-linejoin="round" stroke-width="85"/>
  <circle cx="1823.29" cy="1835.35" r="49.35" stroke="#000" stroke-linejoin="round" stroke-width="85"/>
</svg>