<?xml version="1.0" encoding="UTF-8"?>
<svg id="Layer_1" xmlns="http://www.w3.org/2000/svg" version="1.1" viewBox="0 0 3006 3030.71">
  <!-- Generator: Adobe Illustrator 30.3.0, SVG Export Plug-In . SVG Version: 2.1.3 Build 182)  -->
  <g id="Layer_1-2">
    <g id="_653965720">
      <path id="_653959768" d="M35.9,33.86c8.67-10.25,22.41-14.7,35.43-11.43,4.88,1.23,9.03,2.36,10.61,2.74,235.93,56.9,476.55,103.09,718.31,134.7,233.44,30.46,468.55,47.5,702.66,47.5s469.38-17.04,702.66-47.5c241.75-31.6,482.34-77.79,718.26-134.69,4.45-1.07,29.24-9.39,38.64-4.73l10.3,6.24c3.25,1.97,5.77,4.93,7.2,8.45,6.23,15.23,10.46,45.19-8.76,48.68-.16.03-.32.06-.49.09-247.73,60.73-501.12,110.05-756.33,143.41-237.43,31-475.7,48.41-711.47,48.41s-474.2-17.22-711.47-48.41C535.41,193.78,281.19,144.29,32.8,83.37l8.14-33.18-8.14,33.18c-.16-.04-.32-.08-.47-.12-21.04-5.4-6.15-31.76-6.25-40.55l9.82-8.85Z" stroke="#000" stroke-miterlimit="10" stroke-width="38"/>
      <path id="_653954056" d="M577.28,3011.69H53.23c-18.94,0-34.23-15.41-34.23-34.27v-830.53c0-18.86,15.29-34.27,34.23-34.27h383.65c14.95,0,27.58,9.43,32.23,22.84,50.01,109.14,114.15,274.12,144.72,454.33,21.77,128.54,26.42,264.88-3.16,395.05l-33.4-7.43,33.4,7.61c-3.66,15.95-17.78,26.65-33.4,26.65h0v.02ZM87.46,2943.16h462.07c21.1-112.59,15.78-230.25-3.16-342.29-27.75-163.89-84.74-315.1-131.59-419.89H87.46v762.18h0ZM1101.16,221.87c-.5-18.86-16.12-33.72-34.89-33.36s-33.73,16.14-33.4,34.81c7.48,316.55,3.16,552.23-71.94,784.11-73.94,228.62-217.16,456.33-486.16,757.83-4.15-.36-7.98-.54-11.46-.54H87.46V53.27c0-18.86-15.29-34.27-34.23-34.27s-34.23,15.41-34.23,34.27v1746.08c0,18.86,15.29,34.27,34.23,34.27h410.23c2.82,0,5.15,0,7.14.18.66,0,1.33.18,1.99.18v-1.81h.17v1.63c1.83.18,4.49.54,7.31,1.09,11.8,2.9,24.92-.73,33.56-10.33l-25.59-22.84,25.42,22.66c283.79-316,434.32-554.41,512.42-795.72,78.09-241.49,82.74-483.16,75.1-806.6h.17v-.18h0Z" stroke="#000" stroke-miterlimit="10" stroke-width="38"/>
      <path id="_653971840" d="M2952.6,3011.69h-524.05c-17.28,0-31.57-12.87-33.9-29.37-28.91-129.45-24.09-264.88-2.49-392.51,30.74-181.84,95.87-348.09,145.88-457.05l31.07,14.14-31.07-14.32c5.82-12.69,18.61-20.12,31.74-19.94h382.98c18.94,0,34.23,15.41,34.23,34.27v830.53c0,18.85-15.29,34.27-34.23,34.27h-.17v-.02ZM2456.3,2943.16h462.07v-762.18h-327.32c-46.86,104.97-103.85,255.99-131.43,419.89-18.94,111.86-24.26,229.7-3.16,342.29h-.17,0ZM1973.13,223.5c.5-18.86-14.46-34.45-33.4-34.81-18.78-.36-34.56,14.5-34.89,33.36-7.98,327.42-4.32,568.19,73.44,808.23,77.59,240.04,228.46,476.45,513.91,794.27l25.42-22.66-25.59,22.84c8.64,9.79,21.77,13.23,33.56,10.33,2.99-.54,5.48-.91,7.48-1.09v-1.63h0v1.81c.83,0,1.5,0,2.16-.18,1.99,0,4.32-.18,7.14-.18h410.23c18.94,0,34.23-15.41,34.23-34.27V53.27c0-18.86-15.29-34.27-34.23-34.27s-34.23,15.41-34.23,34.27v1711.82h-375.84c-3.49,0-7.31,0-11.46.54-270.66-303.31-414.05-529.03-487.66-756.19-74.6-230.43-78.09-465.21-70.12-785.75h0l-.17-.18h.02Z" stroke="#000" stroke-miterlimit="10" stroke-width="38"/>
      <path id="_653970472" d="M53.23,1765.08h410.23c45.03,0,85.9,18.31,115.48,48.04l-24.09,24.11,24.26-24.29,1.99,2.18c28.41,29.37,46.02,69.44,46.02,113.31s-18.44,174.95-48.02,204.51l-24.26-24.11,24.26,24.11s-1.5,1.45-2.16,1.99c-29.41,28.46-69.45,46.05-113.48,46.05H53.23c-18.94,0-34.23-15.41-34.23-34.27v-347.55c0-18.86,15.29-34.27,34.23-34.27h0v.18h0ZM463.3,1833.43H87.46v279.2h375.84c25.42,0,48.52-9.97,65.63-26.29l1.5-1.63h0c17.28-17.22,27.91-130.17,27.91-156.28s-10.14-48.41-26.42-65.63c-.5-.54-1-.91-1.66-1.45h0c-17.28-17.22-41.04-27.92-67.29-27.92h.33Z" stroke="#000" stroke-miterlimit="10" stroke-width="38"/>
      <path id="_653970832" d="M2542.54,1765.08h410.23c18.94,0,34.23,15.41,34.23,34.27v347.55c0,18.86-15.29,34.27-34.23,34.27h-410.23c-45.03,0-85.9-18.31-115.48-48.04l24.09-24.11-24.26,24.29s-1.33-1.45-1.99-2.18c-28.41-29.37-46.02-158.64-46.02-202.51s18.44-85.75,48.02-115.31l24.26,24.11-24.26-24.11s1.5-1.45,2.16-1.99c29.41-28.46,69.45-46.05,113.48-46.05h0v-.18h0ZM2918.37,1833.43h-375.84c-25.42,0-48.52,9.97-65.63,26.29l-1.5,1.63h0c-17.28,17.22-27.91,40.97-27.91,67.08s10.14,137.61,26.42,154.83c.5.54,1,.91,1.66,1.45h0c17.28,17.22,41.04,27.92,67.29,27.92h375.84v-279.2h-.33Z" stroke="#000" stroke-miterlimit="10" stroke-width="38"/>
    </g>
  </g>
</svg>