<?xml version="1.0" encoding="UTF-8"?>
<svg id="Layer_1" xmlns="http://www.w3.org/2000/svg" version="1.1" viewBox="0 0 2511.07 2516.98">
  <!-- Generator: Adobe Illustrator 30.3.0, SVG Export Plug-In . SVG Version: 2.1.3 Build 182)  -->
  <defs>
    <style>
      .st0 {
        stroke: #000;
        stroke-miterlimit: 10;
        stroke-width: 24px;
      }
    </style>
  </defs>
  <path class="st0" d="M1446.12,1558.4l-90.82-100.8-118.38,119.64,78.07,78.97c32.07,32.43,27.6,83.14-1.72,113.29-31.87,32.78-81.27,36.38-116.5,6.07l-50.68,29.48c-26.19,15.23-49.06,35.07-67.94,58.37-17.51,21.61-24.91,45.1-30.48,72.15-5.94,28.81-14.95,60.04-36.82,81.97l-426.16,427.36c-102.68,89.05-256.38,77.69-345.05-24.68-93.55-83.41-103.91-222.5-25.92-321.99l432.11-445.61c25.46-26.25,62.11-30.91,95.66-37.81,65.53-13.49,116.96-84.67,149.63-142.17-24.89-36.73-19.05-82.64,11.54-111.03,31.21-28.97,78.5-31.33,112.54-3.51l89.16,88.22,124.88-127.53-153.99-167.12-295.77-318.74c-33.77,16.52-72.14,6.21-96.76-22.01-15.92-18.24-35.22-31.21-58.67-37.74-63.3-9.05-123.68,40.83-150.57,97.67,16.55,41.73,20.14,91.95-9.27,128.16-26.11,32.14-57.16,57.7-85.49,88.17-28.05,30.18-75.84,33.91-105.89,3.77l-239.32-239.97c-26.35-26.42-28.29-66.32-6.98-96.85l97.08-95.71c33.07-32.61,88.2-29.65,128.18-9.59,64.95-34.45,100.79-100.99,101.09-175.31.15-36.87,14.03-76.54,40.22-102.7l146.34-146.17C729.35,51.59,1023.01-17.15,1274.2,23.24c66.19,10.64,128.42,27.92,187.74,58.29,18.16,9.29,25.62,32.86,24.95,51.28-.72,20.07-10.97,39.66-30.66,49.6-12.41,6.27-27.41,6.28-42.13,6.02-133.09-2.39-287.76,18.96-395.61,99.05-53.06,39.4-94.86,96.47-86.06,164.05,6.42,27.26,17.41,52.61,36.54,73.29,26.13,28.25,35.08,67.86,16.5,104.85l370.92,370.11,96.69,95.91,144.29-146.79,414.33-420.15,22.51-104.76c1.93-8.99,8.55-19.79,15.91-25.95l220.46-184.51c17.63-14.75,46.29-21.19,63.86-3.56l103.22,103.58c13.44,13.49,13.73,42.73,2.26,58.21l-168.8,227.82c-9.3,12.55-18.56,23.11-33.97,27.43l-90.66,25.42-562.37,573.15,97.38,95.66c31.69,2.15,60.68,13.16,84.48,36.59l285.53,287.5,264.43,267.44,140.31,143.58c58.33,59.69,54.95,157.99,2.78,228.84-27.26,37.02-59.24,69.66-97.58,95.06-83.14,55.1-180.42,38.18-246.03-34.96l-70.76-78.88-571.05-629.77c-19.11-21.07-26.6-48.85-27.48-78.23ZM761.05,783.88l178.49-177.83c11.23-11.19,5.12-30.2-3.29-40.07-59.52-69.92-76.65-149.08-29.55-230.56,26.53-45.9,65.57-81.23,111.11-109.37,119.06-73.57,271.03-93.59,410.21-88.73,2.88.1,10.54-4.37,9.06-6.72l-5.19-8.28c-54.74-24.03-109.67-38.96-169.25-48.42-118.11-18.95-236.18-10.79-352.4,17.26-123.31,29.76-235.43,85.05-332.91,166.35l-149.6,150.4c-21.45,21.57-24.46,53.44-25.68,82.27-3.41,80.89-44.48,150.4-110.35,194.19l146.34,145.33c28.4-48.06,71.34-85.4,124.28-102.04,42.18-13.75,84.25-6.91,121.01,16.51l41.53,36.01c8.87,7.69,25.04,14.81,36.18,3.7ZM1548.51,1189.93l566.42-577.24,27.97-11.72,81.42-23.35,172.84-233.25-92.64-92.88-221.44,185.2-21.66,99.13c-1.84,8.42-5.2,16.37-9.45,24.7l-327.13,331.24-235.42,239.78,59.08,58.39ZM1627.27,1338.6l-155.56-153.21-357.72-356.02-163.31-162.81-132.88,133.09,242.96,262.11,402.03,440.43,164.48-163.6ZM342.52,1051.92l84.11-85c12.27-27.33,10.85-57.18-4.71-82.64l-185.46-183.73c-21.6-21.39-56.41-18.75-80.13-4.49l-88.41,88.88c-5.58,5.61-7.47,21.15-1.21,27.43l236.54,237.04c11.35,11.37,26.35,15.56,39.26,2.52ZM1200.6,1542.6l120.11-122.75-57.55-62.99-123.23,124.84,60.68,60.9ZM2332.08,2338.12c39.57-26.58,72.37-59.55,96.42-99.76,28.39-47.47,27.55-110.36-11.85-150.28l-131.69-133.42-238.2-241.3-320.73-323.45c-17.22-17.36-53.05-24.1-69.94-7.2l-148.87,148.96c-20.6,20.61-9.91,56.68,8.32,76.7l460.82,506.14,190.29,211.34c48.55,40.69,111.64,48.42,165.43,12.29ZM1278.51,1691.05l-294.92-292.59c-13.66-13.55-33.8-10.55-46.24.81-10.51,9.6-17.3,31.07-4.1,44.12l294.74,291.43c13.43,13.28,32.74,13.43,46.84,1.64,10.82-9.04,18.04-31.16,3.68-45.41ZM541.26,2416.15l434.2-433.92c17.73-17.72,20.28-43.1,24.86-66.27,10.41-52.73,41.31-96.46,83.79-129.17l76.63-47.09-232.65-229.9c-45.32,72.4-98.1,138.84-185.29,156.8-22.12,2.55-45.89,6.46-62.22,23.14l-163.7,167.15-263.5,273.28,287.88,286ZM312.49,2417.78c52.99,39.61,121.38,45.01,180.66,23.8l-266.47-265.87c-22.37,57.38-18.51,119.61,14.77,168.62,19.1,28.12,42.87,52.38,71.05,73.45Z"/>
  <path class="st0" d="M530.39,2066.88l-91.74,91.96c-9.29,9.31-26.72,4.16-32.91-2.65-7.98-8.79-11.08-24.21-.94-34.42l383.82-386.89c9.8-9.88,28.11-4.81,35.06,3.05,7.51,8.49,9.66,23.89-.45,34.07l-292.84,294.89Z"/>
  <path class="st0" d="M542.63,2260.35c-10.47,10.51-27.24,3.67-33.41-2.98-7.64-8.23-10.17-24.01-.13-34.09l384.47-386.31c9.08-9.13,25.83-4.64,32.9,1.91,6.5,6.03,12.38,23.95,2.56,33.8l-386.38,387.68Z"/>
</svg>