<?xml version="1.0" encoding="UTF-8"?>
<svg id="_Слой_1" data-name="Слой_1" xmlns="http://www.w3.org/2000/svg" version="1.1" viewBox="0 0 327.54 493">
  <!-- Generator: Adobe Illustrator 30.3.0, SVG Export Plug-In . SVG Version: 2.1.3 Build 182)  -->
  <defs>
    <style>
      .st0 {
        stroke: #000;
        stroke-miterlimit: 10;
        stroke-width: 7px;
      }
    </style>
  </defs>
  <path class="st0" d="M124.16,49.05c-1.08-14.7,3.23-26.9,14.28-36.15,7.71-6.63,17.7-9.98,27.85-9.32,7.31.46,14.34,2.94,20.33,7.16,6.11,4.08,10.34,9.74,13.46,16.35,3.23,6.79,3.82,13.99,3.35,21.61,1.28.13,2.31.32,3.37.33,5.5,0,11,.11,16.51,0,7.66-.27,15.1,2.56,20.64,7.86,1.57,1.51,3.7,2.29,5.86,2.15,17.06-.1,34.12.18,51.18-.15,11.99-.23,23.06,10.09,23.05,23.02-.11,69.47-.13,138.95-.06,208.43v175.81c0,5.55-1.27,10.65-4.72,15.07-3.95,5.27-10.18,8.34-16.77,8.26-18.98.06-37.96,0-56.96,0H26.38c-8.39,0-14.88-3.46-19.45-10.37-2.36-3.75-3.55-8.12-3.42-12.55V81.48c-.08-12.31,9.83-22.36,22.15-22.45.02,0,.04,0,.05,0,17.22-.08,34.41-.06,51.59.06,2.57.14,5.08-.85,6.88-2.7,5.12-4.93,12.01-7.58,19.11-7.37,6.71.05,13.44.02,20.88.02ZM76.07,68.02c-2.29-.15-4.04-.36-5.78-.36-13.89,0-27.8.11-41.69-.06-10.66-.14-16.73,6.56-16.5,16.69.12,4.81.33,9.62.33,14.43v361.49c0,2.61,0,5.23.15,7.83.12,5.55,3.87,10.37,9.23,11.84,2.24.64,4.56.93,6.89.85,72.37.05,144.74.08,217.1.08,18.16,0,36.32,0,54.48,0,8.54,0,13.62-4.4,14.84-12.84.16-1.5.21-3.02.15-4.53,0-36.31,0-72.64,0-108.97,0-90.11,0-180.22,0-270.34,0-10.55-6.46-16.6-16.25-16.53-14.72.11-29.44,0-44.12,0-1.08,0-2.15.12-3.81.22,3.91,6.57,3.42,13.64,3.5,20.79h7.94c2.26.08,3.45.99,3.59,2.56s-1.08,2.54-3.42,2.61c-2.58.09-5.18,0-7.81,0-.41,1.22-.74,2.15-1.01,3.01-1.14,3.88-3.74,7.16-7.25,9.15-3.1,1.81-6.64,2.73-10.23,2.64H91.13c-9.68,0-14.77-3.78-17.76-12.77-.45-1.38-1.08-2.07-2.6-2.01-2.15.06-4.41.08-6.61,0s-3.23-1.08-3.07-2.96c.17-2.02,1.59-2.3,3.23-2.29h8.38c-.08-7.11.13-13.7,3.37-20.53ZM163.71,99.5h53.23c7.02,0,13.99,0,21.05-.05,4.43,0,7.53-2.59,7.84-6.84.37-5.42.71-10.98-.71-16.36-3.23-11.96-12.32-19.24-23.87-18.66-6.73.33-13.47.09-20.22,0-4.54-.06-6.08-1.73-6.13-6.33v-7.01c.17-14.27-9.32-26.85-23.09-30.58-3.42-.97-6.98-1.37-10.53-1.18-5.81.44-11.34,2.67-15.84,6.38-7.6,5.99-12.19,13.69-12.28,23.67,0,2.89-.12,5.78,0,8.67.24,3.39-2.32,6.32-5.7,6.56-.34.02-.68.02-1.02-.01-6.99-.28-13.99-.1-21.04,0-12.74-.1-23.19,10.05-23.46,22.79-.12,4.12,0,8.25.09,12.38-.06,3.33,2.46,6.15,5.78,6.46,1.23.14,2.47.19,3.7.14l72.21-.02Z"/>
  <path class="st0" d="M182.71,268.87h-82.98c-1.8.07-3.59,0-5.38-.19-2.13-.28-3.78-2.02-3.95-4.16-.04-2.31,1.69-4.27,3.99-4.52,1.5-.18,3.01-.24,4.52-.18h167.55c1.51-.06,3.03,0,4.53.15,2.47.14,4.36,2.26,4.23,4.73-.11,2.51-1.75,4.08-4.67,4.15-4.12.11-8.25,0-12.38,0h-75.47v.02Z"/>
  <path class="st0" d="M182.71,318.37h-84.23c-1.37.06-2.75.02-4.11-.12-2-.22-3.57-1.8-3.8-3.8-.18-2.14,1.17-4.12,3.23-4.73,1.2-.29,2.44-.41,3.67-.36h170.88c.96-.04,1.92,0,2.87.12,2.32.27,4.06,2.25,4.02,4.58-.18,2.27-1.96,4.08-4.23,4.3-.82.05-1.65.05-2.48,0h-85.84Z"/>
  <path class="st0" d="M182.77,169h-81.64c-2.07,0-4.14.06-6.19-.14-2.8-.29-4.55-2.15-4.47-4.49s2-3.88,4.89-3.97c6.32-.17,12.63-.38,18.95-.38h145.97c3.43,0,6.87.17,10.29.4,2.86.19,4.57,1.87,4.62,4.24s-1.87,4.12-4.58,4.3c-.82.06-1.65,0-2.48,0h-85.36v.03Z"/>
  <path class="st0" d="M182.78,218.74h-85.01c-1.24.06-2.48.04-3.71-.08-2-.24-3.53-1.89-3.6-3.91-.11-2.15,1.34-4.06,3.43-4.54.95-.14,1.91-.18,2.87-.13h171.65c.96-.05,1.93-.03,2.88.08,2.43.32,4.17,2.52,3.92,4.96-.22,2.27-1.99,3.79-4.56,3.81-1.79,0-3.57-.16-5.38-.16h-82.48v-.03Z"/>
  <path class="st0" d="M182.63,359.34h83.71c1.65,0,3.3-.09,4.94.06,2.34.18,4.09,2.22,3.92,4.56-.15,1.94-1.59,3.53-3.51,3.87-.95.13-1.91.16-2.87.11H100.56c-1.92.05-3.85,0-5.77-.14-2.75-.3-4.3-1.92-4.21-4.19.05-2.46,1.76-4.05,4.62-4.22.96-.05,1.93,0,2.88,0l84.54-.05Z"/>
  <path class="st0" d="M63.73,268.87c-1.24.02-2.47-.05-3.7-.19-2.14-.27-3.75-2.08-3.77-4.24-.2-2.03,1.22-3.85,3.23-4.18,2.86-.35,5.75-.35,8.61,0,1.93.22,3.23,2.37,3.23,4.3-.12,1.98-1.52,3.66-3.44,4.14-.27.08-.54.12-.82.12h-3.3l-.03.04Z"/>
  <path class="st0" d="M63.63,318.37c-1.09.08-2.19.08-3.28,0-2.26-.25-4.01-2.1-4.14-4.37-.11-2.3,1.67-4.26,3.97-4.37,0,0,.02,0,.03,0,2.31-.25,4.64-.25,6.95,0,2.28.24,3.99,2.18,3.97,4.47-.1,2.3-1.92,4.15-4.22,4.3-1.08.11-2.15,0-3.23,0l-.05-.03Z"/>
  <path class="st0" d="M63.96,218.64c-1.36.1-2.74.1-4.1,0-1.99-.22-3.52-1.85-3.62-3.84-.17-2.15,1.31-4.09,3.43-4.48,2.73-.26,5.47-.26,8.2,0,2,.19,3.58,2.61,3.43,4.52-.21,2.12-1.94,3.78-4.07,3.88-1.08.1-2.15,0-3.23,0l-.05-.09Z"/>
  <path class="st0" d="M63.42,169.03c-1.23.02-2.47-.05-3.69-.24-2.08-.51-3.53-2.38-3.5-4.52.19-2.29,2.15-4.03,4.44-3.95,2.06,0,4.13,0,6.19.12,2.29.14,4.09,2.01,4.14,4.3-.08,2.15-1.73,3.92-3.87,4.13-1.24.09-2.48.09-3.71,0v.15Z"/>
  <path class="st0" d="M64.15,359.42c.96-.05,1.92-.05,2.88,0,2.11.21,3.79,1.88,4,3.99.16,2.18-1.45,4.09-3.63,4.3-2.46.25-4.93.25-7.39,0-2.31-.23-4-2.28-3.79-4.59.24-2.14,2.06-3.75,4.22-3.72,1.23-.1,2.46,0,3.7,0v.02Z"/>
  <path class="st0" d="M176.31,41.81c-.14,6.79-6.24,12.63-12.91,12.36-6.27-.24-12.06-6.46-11.84-12.6.31-7.37,5.86-13.04,12.47-12.74,6.97.19,12.47,5.99,12.28,12.96,0,0,0,.01,0,.02ZM163.88,37.51c-1.93-.03-3.51,1.5-3.55,3.42,0,.1,0,.2,0,.3-.04,2.01,1.5,3.7,3.51,3.85,1.98.04,3.65-1.47,3.8-3.44.04-2.15-1.62-3.95-3.77-4.08v-.05Z"/>
</svg>