<?xml version="1.0" encoding="UTF-8"?>
<svg id="Layer_1" xmlns="http://www.w3.org/2000/svg" version="1.1" viewBox="0 0 2018.17 1195.11">
  <!-- Generator: Adobe Illustrator 30.3.0, SVG Export Plug-In . SVG Version: 2.1.3 Build 182)  -->
  <defs>
    <style>
      .st0 {
        stroke: #000;
        stroke-miterlimit: 10;
        stroke-width: 24px;
      }
    </style>
  </defs>
  <path class="st0" d="M44.49,1008.16c-17.94,0-32.49-14.54-32.49-32.49V219.44c0-17.94,14.55-32.49,32.49-32.49s32.49,14.54,32.49,32.49v756.23c0,17.94-14.55,32.49-32.49,32.49Z"/>
  <path class="st0" d="M258.84,1123.25c-17.94,0-32.49-14.55-32.49-32.49V104.36c0-17.94,14.55-32.49,32.49-32.49s32.49,14.55,32.49,32.49v986.4c0,17.94-14.55,32.49-32.49,32.49Z"/>
  <path class="st0" d="M473.2,987.89c-17.94,0-32.49-14.55-32.49-32.49V239.71c0-17.94,14.55-32.49,32.49-32.49s32.49,14.55,32.49,32.49v715.69c0,17.94-14.55,32.49-32.49,32.49Z"/>
  <path class="st0" d="M687.55,863.73c-17.94,0-32.49-14.55-32.49-32.49v-467.37c0-17.94,14.55-32.49,32.49-32.49s32.49,14.55,32.49,32.49v467.37c0,17.94-14.55,32.49-32.49,32.49Z"/>
  <path class="st0" d="M901.91,962.23c-17.94,0-32.49-14.55-32.49-32.49V265.37c0-17.94,14.55-32.49,32.49-32.49s32.49,14.55,32.49,32.49v664.37c0,17.94-14.55,32.49-32.49,32.49Z"/>
  <path class="st0" d="M1116.26,1162.62c-17.94,0-32.49-14.55-32.49-32.49V64.98c0-17.94,14.55-32.49,32.49-32.49s32.49,14.55,32.49,32.49v1065.15c0,17.94-14.55,32.49-32.49,32.49Z"/>
  <path class="st0" d="M1330.62,1183.11c-17.94,0-32.49-14.55-32.49-32.49V44.49c0-17.94,14.55-32.49,32.49-32.49s32.49,14.55,32.49,32.49v1106.13c0,17.94-14.55,32.49-32.49,32.49Z"/>
  <path class="st0" d="M1544.97,1030c-17.94,0-32.49-14.55-32.49-32.49V197.59c0-17.94,14.54-32.49,32.49-32.49s32.49,14.55,32.49,32.49v799.92c0,17.94-14.54,32.49-32.49,32.49Z"/>
  <path class="st0" d="M1759.32,879.76c-17.94,0-32.49-14.55-32.49-32.49v-499.43c0-17.94,14.55-32.49,32.49-32.49s32.49,14.55,32.49,32.49v499.43c0,17.94-14.55,32.49-32.49,32.49Z"/>
  <path class="st0" d="M1973.68,854.27c-17.94,0-32.49-14.55-32.49-32.49v-448.44c0-17.94,14.55-32.49,32.49-32.49s32.49,14.55,32.49,32.49v448.44c0,17.94-14.55,32.49-32.49,32.49Z"/>
</svg>