<?xml version="1.0" encoding="UTF-8"?>
<svg id="Layer_1" xmlns="http://www.w3.org/2000/svg" version="1.1" viewBox="0 0 3016.57 3027.44">
  <!-- Generator: Adobe Illustrator 30.3.0, SVG Export Plug-In . SVG Version: 2.1.3 Build 182)  -->
  <rect x="49.5" y="1791.1" width="1186.84" height="1186.84" fill="none" stroke="#000" stroke-linecap="round" stroke-linejoin="round" stroke-width="99"/>
  <rect x="1780.23" y="1788.83" width="1186.84" height="1186.84" fill="none" stroke="#000" stroke-linecap="round" stroke-linejoin="round" stroke-width="99"/>
  <rect x="916.53" y="49.5" width="1186.84" height="1186.84" fill="none" stroke="#000" stroke-linecap="round" stroke-linejoin="round" stroke-width="99"/>
  <line x1="642.92" y1="1791.1" x2="642.92" y2="1509.21" fill="none" stroke="#000" stroke-linecap="round" stroke-linejoin="round" stroke-width="99"/>
  <line x1="2373.65" y1="1791.1" x2="2373.65" y2="1509.21" fill="none" stroke="#000" stroke-linecap="round" stroke-linejoin="round" stroke-width="99"/>
  <line x1="1537.79" y1="1495.94" x2="1537.79" y2="1236.34" fill="none" stroke="#000" stroke-linecap="round" stroke-linejoin="round" stroke-width="99"/>
  <line x1="642.92" y1="1509.21" x2="2373.65" y2="1509.21" fill="none" stroke="#000" stroke-linecap="round" stroke-linejoin="round" stroke-width="99"/>
  <path d="M155.84,2979.41c1.44-52.73-7.26-105.85,11.32-158.03,41.16-118.8,171.98-208.68,317.53-216.29,19.18-.67,38.31,1.74,56.33,7.09,46.54,14.73,97.95,14.89,145,.46,31.16-9.72,63.46-8.28,94.67-4,147.76,20.33,269.16,116.62,287,248.34,4.96,36.95,2.2,74.64.86,112.32l-912.71,10.12h0ZM610.07,3003.54v.02M1022.25,2941.64c.69-181-89.77-215.88-167.07-254.28-30.89-15.13-62.61-17.25-98.19-20.99-22.8-2.55-43.91,3.18-65.3,8.68-58.28,15.06-116.22,17.33-173.18-2.91-21.6-7.7-43.46-5.24-65.57-1.47-71.96,12.11-132.78,38.17-176.65,87.04-47.11,52.32-73.66,118.43-62.29,183.92" fill="#020202" stroke="#000" stroke-miterlimit="10" stroke-width="21"/>
  <path d="M888.58,2301.25c2.13,135.85-107.3,279.56-286.24,279.06-154.39-1.58-278.75-127.17-278.77-281.6.14-150.66,128.63-276.46,281.05-277.03,178.94-.92,285.44,151.09,283.95,279.57h.04-.03ZM609.88,2510.26c105.13-.36,206.31-85.6,206.67-206.74.12-117.02-89.3-210.65-208.54-210.37-125.6.27-212.06,94.92-212.97,206.4-.41,115.99,93.29,210.35,209.24,210.76,1.86,0,3.73,0,5.59-.05h0l144.19-7.22-144.19,7.2v.02Z" fill="#020202" stroke="#000" stroke-miterlimit="10" stroke-width="21"/>
  <path d="M1916.71,2977.11c1.44-52.73-7.26-105.85,11.32-158.03,41.16-118.8,171.98-208.68,317.53-216.29,19.18-.67,38.31,1.74,56.33,7.09,46.54,14.73,97.95,14.89,145,.46,31.16-9.72,63.46-8.28,94.67-4,147.76,20.33,269.16,116.62,287,248.34,4.96,36.95,2.2,74.64.86,112.32l-912.71,10.12h0ZM2370.94,3001.24v.02M2783.12,2939.34c.69-181-89.77-215.88-167.07-254.28-30.89-15.13-62.61-17.25-98.19-20.99-22.8-2.55-43.91,3.18-65.3,8.68-58.28,15.06-116.22,17.33-173.18-2.91-21.6-7.7-43.46-5.24-65.57-1.47-71.96,12.11-132.78,38.17-176.65,87.04-47.11,52.32-73.66,118.43-62.29,183.92" fill="#020202" stroke="#000" stroke-miterlimit="10" stroke-width="21"/>
  <path d="M2649.45,2298.95c2.13,135.85-107.3,279.56-286.24,279.06-154.39-1.58-278.75-127.17-278.77-281.6.14-150.66,128.63-276.46,281.05-277.03,178.94-.92,285.44,151.09,283.95,279.57h.04-.03ZM2370.75,2507.96c105.13-.36,206.31-85.6,206.67-206.74.12-117.02-89.3-210.65-208.54-210.37-125.6.27-212.06,94.92-212.97,206.4-.41,115.99,93.29,210.35,209.24,210.76,1.86,0-5.49,9.19-3.63,9.14l25.76-9.95-16.54.73h0v.02Z" fill="#020202" stroke="#000" stroke-miterlimit="10" stroke-width="21"/>
  <path d="M1080.84,1229.58c1.44-52.73-7.26-105.85,11.32-158.03,41.16-118.8,171.98-208.68,317.53-216.29,19.18-.67,38.31,1.74,56.33,7.09,46.54,14.73,97.95,14.89,145,.46,31.16-9.72,63.46-8.28,94.67-4,147.76,20.33,269.16,116.62,287,248.34,4.96,36.95,2.2,74.64.86,112.32l-912.71,10.12h0ZM1535.07,1253.71v.02M1947.25,1191.81c.69-181-89.77-215.88-167.07-254.28-30.89-15.13-62.61-17.25-98.19-20.99-22.8-2.55-43.91,3.18-65.3,8.68-58.28,15.06-116.22,17.33-173.18-2.91-21.6-7.7-43.46-5.24-65.57-1.47-71.96,12.11-132.78,38.17-176.65,87.04-47.11,52.32-73.66,118.43-62.29,183.92" fill="#020202" stroke="#000" stroke-miterlimit="10" stroke-width="21"/>
  <path d="M1813.58,551.43c2.13,135.85-107.3,279.56-286.24,279.06-154.39-1.58-278.75-127.17-278.77-281.6.14-150.66,128.63-276.46,281.05-277.03,178.94-.92,285.44,151.09,283.95,279.57h.04-.03ZM1534.89,760.43c105.13-.36,206.31-85.6,206.67-206.74.12-117.02-89.3-210.65-208.54-210.37-125.6.27-212.06,94.92-212.97,206.4-.41,115.99,93.29,210.35,209.24,210.76,1.86,0,3.73,0,5.59-.05h0l28.42-2.16-28.42,2.14v.02Z" fill="#020202" stroke="#000" stroke-miterlimit="10" stroke-width="21"/>
</svg>