<?xml version="1.0" encoding="UTF-8"?>
<svg id="Layer_1" data-name="Layer 1" xmlns="http://www.w3.org/2000/svg" viewBox="0 0 2992.57 3003.44">
  <defs>
    <style>
      .cls-1 {
        fill: none;
        stroke: #000;
        stroke-linecap: round;
        stroke-linejoin: round;
        stroke-width: 75px;
      }

      .cls-2 {
        fill: #020202;
      }
    </style>
  </defs>
  <rect class="cls-1" x="37.5" y="1779.1" width="1186.84" height="1186.84"/>
  <rect class="cls-1" x="1768.23" y="1776.83" width="1186.84" height="1186.84"/>
  <rect class="cls-1" x="904.53" y="37.5" width="1186.84" height="1186.84"/>
  <line class="cls-1" x1="630.92" y1="1779.1" x2="630.92" y2="1497.21"/>
  <line class="cls-1" x1="2361.65" y1="1779.1" x2="2361.65" y2="1497.21"/>
  <line class="cls-1" x1="1525.79" y1="1483.94" x2="1525.79" y2="1224.34"/>
  <line class="cls-1" x1="630.92" y1="1497.21" x2="2361.65" y2="1497.21"/>
  <path class="cls-2" d="M143.84,2967.41c1.44-52.73-7.26-105.85,11.32-158.03,41.16-118.8,171.98-208.68,317.53-216.29,19.18-.67,38.31,1.74,56.33,7.09,46.54,14.73,97.95,14.89,145,.46,31.16-9.72,63.46-8.28,94.67-4,147.76,20.33,269.16,116.62,287,248.34,4.96,36.95,2.2,74.64.86,112.32l-912.71,10.12h0ZM598.07,2991.54v.02M1010.25,2929.64c.69-181-89.77-215.88-167.07-254.28-30.89-15.13-62.61-17.25-98.19-20.99-22.8-2.55-43.91,3.18-65.3,8.68-58.28,15.06-116.22,17.33-173.18-2.91-21.6-7.7-43.46-5.24-65.57-1.47-71.96,12.11-132.78,38.17-176.65,87.04-47.11,52.32-73.66,118.43-62.29,183.92"/>
  <path class="cls-2" d="M876.58,2289.25c2.13,135.85-107.3,279.56-286.24,279.06-154.39-1.58-278.75-127.17-278.77-281.6.14-150.66,128.63-276.46,281.05-277.03,178.94-.92,285.44,151.09,283.95,279.57h.04-.02ZM597.88,2498.26c105.13-.36,206.31-85.6,206.67-206.74.12-117.02-89.3-210.65-208.54-210.37-125.6.27-212.06,94.92-212.97,206.4-.41,115.99,93.29,210.35,209.24,210.76,1.86,0,3.73,0,5.59-.05h0v-.02h0Z"/>
  <path class="cls-2" d="M1904.71,2965.11c1.44-52.73-7.26-105.85,11.32-158.03,41.16-118.8,171.98-208.68,317.53-216.29,19.18-.67,38.31,1.74,56.33,7.09,46.54,14.73,97.95,14.89,145,.46,31.16-9.72,63.46-8.28,94.67-4,147.76,20.33,269.16,116.62,287,248.34,4.96,36.95,2.2,74.64.86,112.32l-912.71,10.12h0ZM2358.94,2989.24v.02M2771.12,2927.34c.69-181-89.77-215.88-167.07-254.28-30.89-15.13-62.61-17.25-98.19-20.99-22.8-2.55-43.91,3.18-65.3,8.68-58.28,15.06-116.22,17.33-173.18-2.91-21.6-7.7-43.46-5.24-65.57-1.47-71.96,12.11-132.78,38.17-176.65,87.04-47.11,52.32-73.66,118.43-62.29,183.92"/>
  <path class="cls-2" d="M2637.45,2286.95c2.13,135.85-107.3,279.56-286.24,279.06-154.39-1.58-278.75-127.17-278.77-281.6.14-150.66,128.63-276.46,281.05-277.03,178.94-.92,285.44,151.09,283.95,279.57h.04-.02ZM2358.75,2495.96c105.13-.36,206.31-85.6,206.67-206.74.12-117.02-89.3-210.65-208.54-210.37-125.6.27-212.06,94.92-212.97,206.4-.41,115.99,93.29,210.35,209.24,210.76,1.86,0,3.73,0,5.59-.05h0v-.02h0Z"/>
  <path class="cls-2" d="M1068.84,1217.58c1.44-52.73-7.26-105.85,11.32-158.03,41.16-118.8,171.98-208.68,317.53-216.29,19.18-.67,38.31,1.74,56.33,7.09,46.54,14.73,97.95,14.89,145,.46,31.16-9.72,63.46-8.28,94.67-4,147.76,20.33,269.16,116.62,287,248.34,4.96,36.95,2.2,74.64.86,112.32l-912.71,10.12h0ZM1523.07,1241.71v.02M1935.25,1179.81c.69-181-89.77-215.88-167.07-254.28-30.89-15.13-62.61-17.25-98.19-20.99-22.8-2.55-43.91,3.18-65.3,8.68-58.28,15.06-116.22,17.33-173.18-2.91-21.6-7.7-43.46-5.24-65.57-1.47-71.96,12.11-132.78,38.17-176.65,87.04-47.11,52.32-73.66,118.43-62.29,183.92"/>
  <path class="cls-2" d="M1801.58,539.43c2.13,135.85-107.3,279.56-286.24,279.06-154.39-1.58-278.75-127.17-278.77-281.6.14-150.66,128.63-276.46,281.05-277.03,178.94-.92,285.44,151.09,283.95,279.57h.04-.02ZM1522.89,748.43c105.13-.36,206.31-85.6,206.67-206.74.12-117.02-89.3-210.65-208.54-210.37-125.6.27-212.06,94.92-212.97,206.4-.41,115.99,93.29,210.35,209.24,210.76,1.86,0,3.73,0,5.59-.05h0v-.02h0Z"/>
</svg>