<?xml version="1.0" encoding="UTF-8"?>
<svg id="Layer_1" xmlns="http://www.w3.org/2000/svg" version="1.1" viewBox="0 0 2829.37 2984.49">
  <!-- Generator: Adobe Illustrator 30.3.0, SVG Export Plug-In . SVG Version: 2.1.3 Build 182)  -->
  <path d="M1683.28,1958.11l-287.64-194.99-286.77,194.71c-14.7,9.98-33.9,6.91-45.55-1.77-14.37-10.71-18.21-27.19-13.47-44.95l93.35-349.74-251.08-204.75c-14.12-11.77-21.95-24.92-19.26-44.19,2.27-10.32,11.64-32.78,28.42-34.22l342.51-16.99,108.1-315.6c5.99-12.58,21.17-18.54,32.88-22.64,19.17-1.53,39.31,7.6,46.2,26.96l110.82,311.48,327.19,13.52c13.42.55,23.76,3.99,34.67,10.84,19.01,17.95,20.35,49.69-1.54,67.52l-255.49,208.01,96.32,356.99c4.16,15.41-5.36,30.79-16.03,38.41-11.65,8.32-29.17,11.23-43.65,1.42l.02-.02ZM1414.5,1682.34l231.88,161.59-80.48-285.39c-5.62-14.14-.4-26.87,10.61-37.07l214.91-174.42-284.52-8.51c-13.69-.41-22.3-12.16-25.14-24.34l-87.88-241.46-91.02,250.65c-5.46,9.29-14.91,16.22-26.74,16.52l-274.91,6.98,208.8,171.69c13.56,8.02,20.6,23.51,15.87,39.82l-83.86,289.22,236.49-166.85c11.35-8.01,24.51-6.95,36,1.57h-.01Z" stroke="#000" stroke-miterlimit="10"/>
  <path d="M2126.81,2934.49H149.7c-55.06,0-99.7-44.64-99.7-99.7V149.7c0-55.06,44.64-99.7,99.7-99.7h1977.11c55.06,0,99.7,44.64,99.7,99.7" fill="none" stroke="#000" stroke-miterlimit="10" stroke-width="100"/>
  <rect x="50" y="55.8" width="2176.51" height="2878.56" rx="97.87" ry="97.87" fill="none" stroke="#000" stroke-miterlimit="10" stroke-width="100"/>
  <path d="M2476.95,466.98c33.81,0,61.23,22.45,61.23,50.14v402.62c0,27.69-27.42,50.14-61.23,50.14h-259.39v99.99h259.39c24.69,0,48.73-3.98,71.4-11.84,21.85-7.57,41.45-18.38,58.24-32.14,16.79-13.76,30-29.8,39.24-47.69,9.6-18.57,14.46-38.25,14.46-58.47v-402.62c0-20.22-4.86-39.9-14.46-58.47-9.24-17.89-22.45-33.94-39.24-47.69s-36.39-24.57-58.24-32.13c-22.68-7.86-46.71-11.84-71.4-11.84h0s-259.39,0-259.39,0v100h259.39"/>
  <path d="M2646.02,2190.56c33.81,0,61.23,22.45,61.23,50.14v438.05c0,27.69-27.42,50.14-61.23,50.14h-426.01v99.98h426.01c24.69,0,48.73-3.98,71.4-11.84,21.85-7.57,41.45-18.38,58.24-32.13,16.8-13.76,30-29.8,39.24-47.69,9.6-18.57,14.46-38.25,14.46-58.47v-438.05c0-20.22-4.86-39.9-14.46-58.47-9.24-17.89-22.45-33.94-39.24-47.69-16.8-13.76-36.39-24.57-58.24-32.13-22.68-7.86-46.71-11.84-71.4-11.84h-426.01v100h426.01"/>
  <path d="M2487.6,2734.53v100.47c0,54.95-44.64,99.49-99.7,99.49H189.43" fill="none" stroke="#000" stroke-miterlimit="10" stroke-width="100"/>
  <line x1="2487.6" y1="1828.5" x2="2487.6" y2="2155.45" fill="none" stroke="#000" stroke-miterlimit="10" stroke-width="100"/>
  <path d="M2487.6,984.53v278.54" fill="none" stroke="#000" stroke-miterlimit="10" stroke-width="100"/>
  <line x1="512.98" y1="2470.46" x2="512.98" y2="2893.11" fill="none" stroke="#000" stroke-miterlimit="10" stroke-width="99"/>
  <path d="M604.29,554.52c27.69,0,50.14,22.45,50.14,50.14v57.61c0,27.69-22.45,50.14-50.14,50.14h-182.57c-27.69,0-50.14-22.45-50.14-50.14v-57.61c0-27.69,22.45-50.14,50.14-50.14h182.57M604.29,454.52h-182.57c-20.22,0-39.9,3.98-58.47,11.84-17.89,7.57-33.94,18.38-47.69,32.13s-24.57,29.8-32.13,47.69c-7.86,18.57-11.84,38.25-11.84,58.47v57.61c0,20.22,3.98,39.9,11.84,58.47,7.57,17.89,18.38,33.94,32.13,47.69s29.8,24.57,47.69,32.14c18.57,7.86,38.25,11.84,58.47,11.84h182.57c20.22,0,39.9-3.98,58.47-11.84,17.89-7.57,33.94-18.38,47.69-32.14s24.57-29.8,32.13-47.69c7.86-18.57,11.84-38.25,11.84-58.47v-57.61c0-20.22-3.98-39.9-11.84-58.47-7.57-17.89-18.38-33.94-32.13-47.69s-29.8-24.57-47.69-32.13c-18.57-7.86-38.25-11.84-58.47-11.84h0Z"/>
  <path d="M604.29,1413.3c27.69,0,50.14,22.45,50.14,50.14v57.61c0,27.69-22.45,50.14-50.14,50.14h-182.57c-27.69,0-50.14-22.45-50.14-50.14v-57.61c0-27.69,22.45-50.14,50.14-50.14h182.57M604.29,1313.3h-182.57c-20.22,0-39.9,3.98-58.47,11.84-17.89,7.57-33.94,18.38-47.69,32.13s-24.57,29.8-32.13,47.69c-7.86,18.57-11.84,38.25-11.84,58.47v57.61c0,20.22,3.98,39.9,11.84,58.47,7.57,17.89,18.38,33.94,32.13,47.69s29.8,24.57,47.69,32.13c18.57,7.86,38.25,11.84,58.47,11.84h182.57c20.22,0,39.9-3.98,58.47-11.84,17.89-7.57,33.94-18.38,47.69-32.13s24.57-29.8,32.13-47.69c7.86-18.57,11.84-38.25,11.84-58.47v-57.61c0-20.22-3.98-39.9-11.84-58.47-7.57-17.89-18.38-33.94-32.13-47.69s-29.8-24.57-47.69-32.13c-18.57-7.86-38.25-11.84-58.47-11.84h0Z"/>
  <path d="M604.29,2265.4c27.69,0,50.14,22.45,50.14,50.14v57.61c0,27.69-22.45,50.14-50.14,50.14h-182.57c-27.69,0-50.14-22.45-50.14-50.14v-57.61c0-27.69,22.45-50.14,50.14-50.14h182.57M604.29,2165.4h-182.57c-20.22,0-39.9,3.98-58.47,11.84-17.89,7.57-33.94,18.38-47.69,32.13s-24.57,29.8-32.13,47.69c-7.86,18.57-11.84,38.25-11.84,58.47v57.61c0,20.22,3.98,39.9,11.84,58.47,7.57,17.89,18.38,33.94,32.13,47.69s29.8,24.57,47.69,32.13c18.57,7.86,38.25,11.84,58.47,11.84h182.57c20.22,0,39.9-3.98,58.47-11.84,17.89-7.57,33.94-18.38,47.69-32.13s24.57-29.8,32.13-47.69c7.86-18.57,11.84-38.25,11.84-58.47v-57.61c0-20.22-3.98-39.9-11.84-58.47-7.57-17.89-18.38-33.94-32.13-47.69s-29.8-24.57-47.69-32.13c-18.57-7.86-38.25-11.84-58.47-11.84h0Z"/>
  <line x1="513.01" y1="1621.26" x2="513.01" y2="2190.56" fill="none" stroke="#000" stroke-miterlimit="10" stroke-width="99"/>
  <line x1="512.98" y1="768.77" x2="512.98" y2="1341.18" fill="none" stroke="#000" stroke-miterlimit="10" stroke-width="99"/>
  <line x1="512.98" y1="87.38" x2="512.98" y2="510.03" fill="none" stroke="#000" stroke-miterlimit="10" stroke-width="99"/>
  <path d="M2593.39,1307.93c33.81,0,61.23,22.45,61.23,50.14v410.28c0,27.69-27.42,50.14-61.23,50.14h-372.88v99.98s372.87,0,372.87,0c24.69,0,48.73-3.98,71.4-11.84,21.85-7.57,41.45-18.38,58.24-32.13,16.8-13.76,30-29.8,39.24-47.69,9.6-18.57,14.46-38.25,14.46-58.47v-410.28c0-20.22-4.86-39.9-14.46-58.47-9.24-17.89-22.45-33.94-39.25-47.69-16.8-13.76-36.39-24.57-58.24-32.13-22.68-7.86-46.71-11.84-71.4-11.84h.02-372.88v100h372.88"/>
  <path d="M2487.6,430.95v-145.63c0-57.59-44.64-104.28-99.7-104.28h-158.09" fill="none" stroke="#000" stroke-miterlimit="10" stroke-width="100"/>
</svg>