<?xml version="1.0" encoding="UTF-8"?>
<svg id="Layer_1" xmlns="http://www.w3.org/2000/svg" version="1.1" viewBox="0 0 2659 2836">
  <!-- Generator: Adobe Illustrator 30.3.0, SVG Export Plug-In . SVG Version: 2.1.3 Build 182)  -->
  <path d="M207.85,46.23h1876.4c80.43,0,145.74,65.3,145.74,145.74v372.29c0,85.41-69.34,154.75-154.75,154.75H207.85c-85.41,0-154.75-69.34-154.75-154.75V200.99c0-85.41,69.34-154.75,154.75-154.75Z" fill="none" stroke="#000" stroke-miterlimit="10" stroke-width="100"/>
  <rect x="2216.47" y="244.18" width="232.23" height="276.89" rx="68.07" ry="68.07" stroke="#000" stroke-miterlimit="10"/>
  <path d="M2369.26,382.63h200.03c22.25,0,40.29,18.38,40.29,41.06v587.57c0,42.3-29.48,78.65-70.26,86.61l-1327.52,259.09c-40.77,7.96-70.26,44.3-70.26,86.61v325.85" fill="none" stroke="#000" stroke-miterlimit="10" stroke-width="100"/>
  <path d="M745.4,2138.49h801.05c48.94,0,88.68,39.74,88.68,88.68v109.23c0,53.79-43.67,97.45-97.45,97.45h-792.28c-53.79,0-97.45-43.67-97.45-97.45v-100.46c0-53.79,43.67-97.45,97.45-97.45Z" transform="translate(3427.71 1144.63) rotate(90)" fill="none" stroke="#000" stroke-miterlimit="10" stroke-width="100"/>
</svg>