<svg id="Слой_1" data-name="Слой 1" xmlns="http://www.w3.org/2000/svg" viewBox="0 0 500 500"><path d="M125.42,77.39c0-4.24,0-8,0-11.76.08-9.13,5.76-16.54,14.68-18.61,16-3.71,25.3,8.78,25.1,19.21-.07,3.51,0,7,0,11.1,56.46.11,112.55,0,169.1,0,.06-1.66.14-3.1.17-4.53.08-3.66-.28-7.38.29-11,1.37-8.61,9.27-15,18-15.4,11.09-.57,18.73,6.36,20.68,15.19a22.61,22.61,0,0,1,.41,4.43c.06,3.52,0,7,0,11.06,1.58.07,3,.18,4.43.19,17.63,0,35.27.08,52.9,0a23.4,23.4,0,0,1,13.1,3.72c7,4.59,11.17,10.82,11.14,19.52-.06,18.18,0,36.36,0,54.53q0,40.89,0,81.76,0,37.43,0,74.85c0,7.18.32,14.37.3,21.55,0,11-.26,21.93-.29,32.89,0,6.1.24,12.2.28,18.3.06,9.07,0,18.15.06,27.23s-2.17,17.55-7.78,24.75c-7.69,9.86-17.77,16.16-30.45,16.43-21.14.44-42.3.17-63.45.18q-21.36,0-42.73,0-113.1,0-226.22,0c-17.32,0-30.06-8-37.78-23.55A32.47,32.47,0,0,1,43.94,415q0-156.27,0-312.53c0-6,1.44-11.48,5.32-16.24a22.65,22.65,0,0,1,18-8.79c16.55-.16,33.1,0,49.65,0ZM53.86,158V170q0,109.49-.16,219c0,4.87,1.64,7.95,5.33,10.47.56.38,1.13.74,1.7,1.12,9,6,19.06,8.24,29.72,8.24q158.73,0,317.45,0A59.94,59.94,0,0,0,423.61,407c7.38-2,14.42-4.66,19.95-10.36a8,8,0,0,0,2.38-6.12q-.09-112.95-.07-225.89c0-2.13-.17-4.25-.27-6.71Zm71.51-70.31c-1.46-.1-2.51-.24-3.56-.24-17.78,0-35.55.08-53.32-.06-8.67-.07-14.91,6.35-14.72,14.81.33,13.83.08,27.67.07,41.51v3.92c5.36.32,388.64,1,392-.32V110.87c0-3,.11-6,0-9-.41-9.29-5.76-14.48-15-14.51q-26.87-.06-53.73,0a29.68,29.68,0,0,0-3.19.36c0,4.11-.22,7.92,0,11.7a19.46,19.46,0,0,1-20.45,20.71c-7.26-.3-16.1-5.43-18.26-13.63a28,28,0,0,1-.78-6.4c-.12-4.16,0-8.32,0-12.76-56.61,0-112.71,0-169.19,0,0,4.63.06,8.68,0,12.72-.22,12.23-9.38,22.33-24.48,19.57-9.06-1.65-15.28-9.66-15.35-18.95C125.34,96.46,125.37,92.15,125.37,87.64ZM54.54,408.21c-.33.42-.6.61-.61.82-.08,1.76-.1,3.52-.16,5.28-.34,9.85,7.48,22.67,18.93,26.45A45.21,45.21,0,0,0,87.08,443q161.55,0,323.12,0a71.42,71.42,0,0,0,7.32-.16c11.65-1.23,20.35-6.82,25.59-17.5,2.67-5.45,2.34-11.25,2.43-17-.34,0-.5-.12-.6-.07a16,16,0,0,0-1.42.76c-11,6.8-23.08,9.71-36,9.7q-159.33,0-318.65,0a61.8,61.8,0,0,1-15.65-2.17A60.41,60.41,0,0,1,54.54,408.21ZM135.36,83.46V92c0,2.84,0,5.69,0,8.54,0,4.17,1.82,7.34,5.66,9.08,6.82,3.11,14-1.47,14.21-9.33.25-11.38.14-22.77,0-34.16a9.43,9.43,0,0,0-3.72-7.79,10.27,10.27,0,0,0-10.77-1.24c-3.71,1.62-5.31,4.94-5.38,8.87C135.29,71.8,135.37,77.63,135.36,83.46Zm228.49.12h0c0-6.09.11-12.19,0-18.28a9.22,9.22,0,0,0-7.58-8.84c-4.55-1-8.82.64-10.71,4.54a14.66,14.66,0,0,0-1.22,5.85c-.19,5.94-.16,11.89-.15,17.84,0,5.68-.05,11.36.16,17a8.35,8.35,0,0,0,4.41,7.31c7,4,14.86-.32,15.06-8.39C364,95,363.85,89.27,363.85,83.58Z"/><path d="M249.18,290h33.37a26.24,26.24,0,0,1,3.66.1c2.69.38,4.07,1.81,4.42,4.53a29.73,29.73,0,0,1,.08,3.66q0,28.28,0,56.56c0,.81,0,1.63,0,2.44-.26,3.26-1.84,4.83-5.16,5.12-.94.08-1.9.05-2.85.05H214.3c-5.18,0-6.59-1.31-6.61-6.42q-.09-29.7-.06-59.41c0-5.06,1.5-6.56,6.56-6.58,11.66,0,23.33,0,35,0Zm-31.46,10.05v52.31H280.6V300.08Z"/><path d="M148.43,290h33.75a25.16,25.16,0,0,1,3.25.1,4.13,4.13,0,0,1,3.86,3.59,26.44,26.44,0,0,1,.38,4.44q0,28.05,0,56.11c0,.68,0,1.36,0,2-.28,4.44-1.93,6.14-6.33,6.15q-35,.06-69.94,0c-4.78,0-6.1-1.46-6.1-6.47q0-23.38,0-46.76c0-4.33-.1-8.66,0-13,.13-5.3,1.14-6.2,6.63-6.21q15.85,0,31.71,0Zm-31.52,62.34h62.71V300.3c-4.81-.78-59.71-.61-62.71.19Z"/><path d="M148.32,265.81h-35c-5.2,0-6.08-.91-6.11-6.21q-.18-28.67-.33-57.32c0-1.08,0-2.17,0-3.25.26-3.86,1.71-5.32,5.62-5.34,9.34-.06,18.69,0,28,0q21.13,0,42.28,0c5.47,0,6.79,1.19,6.8,6.59q.08,29.89,0,59.77c0,4.33-1.56,5.78-6,5.79-11.8,0-23.59,0-35.38,0Zm31.35-62.51H117v52.79c6.59.76,59.75.47,62.69-.33Z"/><path d="M249.23,193.66c11.66,0,23.32,0,35,0,5.11,0,6.52,1.42,6.53,6.52q0,29.49,0,59c0,5.35-1.34,6.64-6.8,6.64q-35,0-69.95,0c-4.63,0-6.25-1.45-6.27-6q-.1-30.3,0-60.59c0-4,1.63-5.55,5.8-5.56C225.37,193.63,237.3,193.66,249.23,193.66Zm-31.51,62.52h62.64c.81-5,.62-50.19-.18-52.82-7-.72-59.46-.46-62.46.32Z"/><path d="M350.54,265.81H316.77c-.95,0-1.9,0-2.85,0-3.2-.21-4.64-1.6-4.73-4.85-.11-3.79,0-7.59,0-11.39q-.06-25.22-.13-50.45c0-3.88,1.44-5.46,5.29-5.49,12.74-.1,25.48-.22,38.22-.28,10,0,20.06,0,30.08,0a41.75,41.75,0,0,1,4.87.3c3.14.4,4.54,1.84,4.9,4.93a19.88,19.88,0,0,1,.06,2.44l0,57.37c0,.4,0,.81,0,1.22-.12,4.6-1.58,6.13-6.08,6.21-3.39,0-6.78,0-10.17,0Zm31.9-62.5H318.86v52.81c8.47.87,60.57.51,63.58-.46Z"/><path d="M383.71,325.45A34.64,34.64,0,0,1,349.41,360c-16.56.13-34.1-13.18-34.31-34.11-.18-18.5,15.43-34.2,33.52-34.51C370.36,291,384.49,310.26,383.71,325.45Zm-9.85-.05a24.43,24.43,0,1,0-48.85.7c.24,11.82,9.29,24,24.74,23.87C363.57,349.81,373.8,338.79,373.86,325.4Z"/></svg>