<?xml version="1.0" encoding="UTF-8"?>
<svg id="Layer_1" xmlns="http://www.w3.org/2000/svg" version="1.1" viewBox="0 0 2665.91 2988.7">
  <!-- Generator: Adobe Illustrator 30.3.0, SVG Export Plug-In . SVG Version: 2.1.3 Build 182)  -->
  <path d="M219.04,2988.65c-70.44,0-130.65-37.15-166.57-93.26-24.19-37.79-38.57-77.7-45.32-122.65-9.24-61.47-9.74-123.45-.21-184.99,16.8-108.5,83.82-207.79,196.35-216.75-62.93-79.42-68.03-183.7-56.13-280.87,16.86-96.7,74.37-180.64,173.53-195.23-72.73-76.28-81.6-212.43-41.85-303.48,36.07-82.62,114.09-133.08,204.35-133.06l502.94.13c-37.42-28.89-68.27-58.28-96.29-94.82-116.12-151.46-196.74-356.78-185.63-549.37,3.89-67.43,21.62-131.21,53.93-190.04,88.26-160.72,277.31-235.29,446.65-157.32l61.42,33.43c-10.99-86.07-43.95-182.41-111.74-240.63-22.82-19.6-48.03-30.45-77.09-35.16-20.97-3.4-31.92-26.3-27.97-43.92,12.6-56.12,101.96-20.32,149.96,18.18,51.05,40.94,85.76,95.23,110.03,157.02,23.91-147.41,110.92-268.06,248.3-322.62,99.37-39.46,187.22-36.94,291.34-27.01,26.81,2.56,45.43,23.04,41.16,50.5-5.52,169.63-74.08,319.46-239.4,382.05,108.88,13.14,200.18,72.62,256.78,162.86,31.16,50,48.1,104.22,55.33,163.03,9.88,80.05,4.25,158.62-12.66,237.89-28.77,126.32-79.76,245.18-153.52,351.41-27.22,39.2-57.37,72.16-94.69,104.77l638.54-.09c24.62,0,42.3,14.76,46.71,35.84,4.91,23.47-6.91,39.67-26.1,52.37-12.68,14.56-20.3,37.11-25.67,56.57-23.53,85.26-20.85,198.34,26.32,274.29,14.04,3.69,22.91,12.61,27.57,25.33l95.13.56c21.73.13,38.51,15.58,41.82,34.64,3.51,20.19-7.02,38.79-27.49,46.5-48.09,79.42-51,203.8-28.05,292.19,6.59,25.39,15.47,51.83,31.81,71.33,8.01,6.37,19.51,11.22,25.41,21.61l90.58.6c20.91.14,33.33,18.03,36.47,34.09,4.71,24.08-13.41,32.99-26.52,47.63-18.33,20.49-25.31,52.06-31.65,79.49-21.72,94.11-20.43,190.2-.74,284.4,6.68,31.96,18.1,60.55,33.65,88.17,23.69,4.22,37.72,23.85,35.91,45.97-1.67,20.35-19.42,38.48-43.88,38.48l-2402.83-.05ZM1654.81,259.87c-7.45,6.24-18.19,9.71-26.89,14.15-60.06,30.69-112.93,69.8-164.68,114.87,45.16,2.73,87.74-.73,130.67-11.13,86.28-20.91,152.79-80.64,185.35-162.87,17.22-43.49,25.8-86.77,29.46-134.65l-63.2-3c-55.57-2.64-109.43,7.74-160.99,28.16-107.5,42.58-174.06,134.96-194.98,250.12,67.25-59.98,148.68-126.36,230.85-158.55,17.39-6.81,36.18,2.73,43.9,16.7,8.17,14.79,5.35,33.76-9.49,46.2ZM1422.52,494.82l68.22-30.77c-34.92-.89-67.09-3.05-101.51-7.8l-24.34,19.51c-14.09,11.29-19.62,28.62-17.14,44.97,26.65-4.99,49.65-14.58,74.77-25.91ZM1741.72,1301.64c56.88-84.92,98.01-177.48,124.25-276.51,41.73-157.5,43.65-352.41-94.43-457.42-66.89-50.87-150.24-65.65-230.7-40.51-30.09,9.4-56.93,22.78-85.27,36.74-63.75,31.4-123.95,47.81-192.29,20.21-21.78-8.79-40.91-19.96-60.72-32.05-99.7-60.8-223.4-49.53-310.43,28.41-39.35,35.24-66.86,79.7-84.37,130.37-44.03,127.4-17.75,275.27,29.81,399.89,26.33,68.99,58.79,133.21,102.28,192.41,58.82,80.07,137.41,146.82,239.61,113.94l68.41-26.96c57.65-22.72,117.86-26.61,173.98.1l59.27,28.21c36.89,17.56,79.17,21.04,118.46,9.49,59.59-17.51,107.38-74.42,142.14-126.32ZM1391.9,1459.89c-35.02-18.3-77.06-17.19-114.84.2l114.84-.2ZM1653.24,1888.43c-17.91-31.72-28.98-63.65-35.81-98.52-8.05-48.76-8.45-96.74-1.53-145.79,6.35-38.36,18.55-73.84,39.58-108.52l-1187.39.25c-46.39,0-85.15,29.83-107.57,67.43-35.31,59.19-35.76,159.94-.35,218.66,23.38,38.76,62.68,66.41,109.87,66.42l1183.2.07ZM1795.56,1807.98c-19.93-1.54-30.42-16.32-29.44-32.97.85-14.57,12.85-28.45,30.33-28.45l448.53.09-.1-66.08-450.83-.09c-17.6,0-28.15-16.51-28.16-30.16-.02-15.91,10.31-29.14,27.93-31.09l459.2-.05c5.55-27.94,12.78-53.53,24.08-80.81l-514.69-.16c-14.9,2.88-26.76,10.85-35.45,23.03-44.15,61.8-49.74,153.49-33.12,227.17,8.31,36.83,30.35,90.92,66.43,98.71l518.58.06c-11.78-27.61-19.73-51.96-25.22-79.16l-458.08-.04ZM346.28,2365.09l160.19.31c-34.18-132.86-34.17-267.6-7.84-399.52l-143.39-.09c-34.67-.02-65.02,13.32-87.41,39.84-49.55,54.96-53.06,156.63-40.56,228.5,11.14,64.04,51.7,130.84,119.02,130.96ZM656.5,2364.89c-13.56-52.01-20.58-96.34-24.25-145.21-5.65-85.86-.47-169.74,16.25-253.81l-75.5-.02c-27.7,127.84-30.35,276.22,10.06,399.87l73.43-.83ZM1427.16,2258.1c-16.34-101.42-12.32-210.96,50.85-292.2l-753.9-.06c-30.24,130.52-30.54,273.7,9.07,399.58l740.02-.09c-23.77-33.88-37.58-67.54-46.04-107.23ZM1622.82,2197.07l759.84.03.21-73.77-766.9-.09c-18.95,0-29.5-20.41-27.63-33.94,2.23-16.13,14.5-26.78,32.92-26.56l769.95.03c6.36-32.71,16.35-62.66,29.06-92.36l-809.75-.32c-64.02,7.87-98.45,71.42-108.08,131.88-6.42,40.3-6.53,80.45-1.21,121.06,8.34,63.65,40.63,134.09,107.62,142.34h814.68c-15.96-34.56-27.47-68.17-33.2-105.61l-769.06-.23c-19.84-.14-33.72-14.31-33.26-32.15.46-17.89,13.08-30.32,34.81-30.32ZM232.23,2914.4l1162.62-.08c-26.02-34.5-41.18-71.79-52.05-113.55-17.02-84.24-17.05-170.56,2.78-254.07,10.99-38.05,24.88-71.69,50.11-104.61l-1177.6.21c-35.3,0-66.12,22.44-86.92,48.33-55.01,68.47-57.11,189.44-42.4,275.24,6.7,39.08,21.67,75.07,46.28,104.83,24.65,29.82,56.63,43.71,97.17,43.71ZM1546.3,2778.51c-20.23-4.74-29.34-20.75-26.63-37.98,2.37-15.08,14.94-27.34,33-27.34h954.95s.78-98.2.78-98.2l-961.63-.04c-18.55-3.51-28.36-17.92-27.82-34.32.5-15.22,10.12-28.55,27.77-31.95l970.22-.03c6.02-37.06,16.42-70.91,30.34-106.29l-1014.96.09c-64.43,6.75-100.74,73.42-113.78,133.93-14.26,66.15-13.59,133.62-.55,200.13,11.48,58.59,46.57,127.61,108.55,136.52l1023.06.28c-19.37-44.29-30.77-88.45-35.95-134.8h-967.35Z"/>
  <path d="M1422.52,494.82c-25.12,11.33-48.12,20.92-74.77,25.91-2.48-16.35,3.05-33.67,17.14-44.97l24.34-19.51c34.43,4.75,66.59,6.9,101.51,7.8l-68.22,30.77Z" fill="#fff"/>
  <path d="M1391.9,1459.89l-114.84.2c37.78-17.39,79.82-18.51,114.84-.2Z" fill="#fff"/>
  <path d="M622.97,1809.26c.02,18.6-15.68,29.41-30.35,30.31-14.88.91-34.02-9.5-34.03-27.42l-.08-199.07c0-17.12,17.73-27.82,32.02-28.03,13.87-.21,32.2,10.31,32.21,27.59l.22,196.62Z"/>
</svg>