<?xml version="1.0" encoding="UTF-8"?>
<svg id="Layer_1" xmlns="http://www.w3.org/2000/svg" version="1.1" viewBox="0 0 2665.91 2988.7">
  <!-- Generator: Adobe Illustrator 30.3.0, SVG Export Plug-In . SVG Version: 2.1.3 Build 182)  -->
  <path d="M245.68,2953.63c-68.76,0-127.53-36.26-162.59-91.03-23.61-36.89-37.65-75.84-44.24-119.72-9.02-60-9.51-120.5-.2-180.57,16.4-105.91,81.82-202.82,191.65-211.57-61.42-77.52-66.4-179.31-54.79-274.15,16.46-94.39,72.59-176.32,169.38-190.56-70.99-74.46-79.65-207.35-40.85-296.22,35.21-80.64,111.36-129.9,199.46-129.88l490.91.13c-36.53-28.2-66.64-56.89-93.99-92.55-113.34-147.84-192.03-348.25-181.19-536.23,3.8-65.82,21.1-128.07,52.64-185.49,86.15-156.88,270.68-229.66,435.97-153.56l59.95,32.63c-10.73-84.01-42.9-178.05-109.07-234.88-22.27-19.13-46.88-29.72-75.25-34.32-20.47-3.32-31.16-25.67-27.3-42.87,12.3-54.78,99.52-19.83,146.37,17.75,49.83,39.96,83.71,92.95,107.4,153.26,23.34-143.88,108.27-261.65,242.36-314.9,96.99-38.52,182.74-36.06,284.37-26.36,26.17,2.5,44.34,22.49,40.18,49.29-5.39,165.57-72.31,311.82-233.67,372.91,106.28,12.83,195.39,70.88,250.64,158.96,30.41,48.8,46.95,101.73,54.01,159.13,9.64,78.14,4.15,154.83-12.36,232.2-28.08,123.3-77.85,239.32-149.85,343.01-26.57,38.26-56,70.43-92.43,102.26l623.27-.09c24.03,0,41.29,14.41,45.59,34.98,4.79,22.91-6.74,38.72-25.48,51.12-12.38,14.21-19.81,36.22-25.06,55.22-22.97,83.22-20.35,193.6,25.69,267.73,13.7,3.6,22.36,12.31,26.91,24.72l92.85.55c21.21.13,37.59,15.21,40.82,33.81,3.43,19.71-6.85,37.86-26.83,45.39-46.94,77.52-49.78,198.93-27.38,285.2,6.43,24.78,15.1,50.59,31.05,69.62,7.82,6.22,19.04,10.95,24.8,21.09l88.41.59c20.41.14,32.53,17.6,35.6,33.27,4.6,23.5-13.09,32.2-25.89,46.49-17.89,20-24.7,50.81-30.89,77.59-21.2,91.86-19.94,185.65-.72,277.6,6.52,31.2,17.67,59.1,32.85,86.06,23.12,4.12,36.82,23.28,35.05,44.87-1.63,19.86-18.96,37.56-42.83,37.56l-2345.36-.05h.04ZM1450.11,411.51c6.91,3.13,14.36,4.84,21.94,5.11,39.69,1.42,77.51-2.21,115.62-11.44,84.22-20.41,149.14-78.71,180.92-158.97,16.81-42.45,25.18-84.69,28.76-131.43l-61.69-2.93c-54.24-2.58-106.81,7.55-157.14,27.49-88.78,35.16-148.95,105.12-177.74,193.91-9.02,27.82,4.51,57.97,31.15,70.03l18.18,8.23h0ZM1420.38,519.44l66.59-30.03c-34.08-.87-65.49-2.98-99.08-7.61l-23.76,19.04c-13.75,11.02-19.15,27.94-16.73,43.89,26.01-4.87,48.46-14.23,72.98-25.29h0ZM1731.94,1306.97c55.52-82.89,95.67-173.24,121.28-269.9,40.73-153.73,42.61-343.98-92.17-446.48-65.29-49.65-146.65-64.08-225.18-39.54-29.37,9.18-55.57,22.24-83.23,35.86-62.23,30.65-120.99,46.67-187.69,19.73-21.26-8.58-39.93-19.48-59.27-31.28-97.32-59.35-218.06-48.35-303.01,27.73-38.41,34.4-65.26,77.79-82.35,127.25-42.98,124.35-17.33,268.69,29.1,390.33,25.7,67.34,57.38,130.02,99.83,187.81,57.41,78.15,134.12,143.31,233.88,111.22l66.77-26.32c56.27-22.18,115.04-25.97,169.82.1l57.85,27.54c36.01,17.14,77.28,20.54,115.63,9.26,58.16-17.09,104.81-72.64,138.74-123.3h0ZM1390.49,1461.43c-34.18-17.86-75.22-16.78-112.09.2l112.09-.2ZM1645.58,1879.72c-17.48-30.96-28.29-62.13-34.95-96.16-7.86-47.59-8.25-94.43-1.49-142.3,6.2-37.44,18.11-72.07,38.63-105.92l-1158.99.24c-45.28,0-83.11,29.12-105,65.82-34.47,57.77-34.9,156.11-.34,213.43,22.82,37.83,61.18,64.82,107.24,64.83l1154.9.07h0ZM2223.07,1738.15l-440.05-.09c-17.18,0-27.48-16.12-27.49-29.44-.02-15.53,10.06-28.44,27.26-30.35l448.22-.05c5.42-27.27,12.47-113.57,23.5-140.19l-502.38-.16c-14.54,2.81-26.12,10.59-34.6,22.48-43.09,60.32-48.55,149.82-32.33,221.74,8.11,35.95,29.62,88.75,64.84,96.35l506.18.06-33.16-140.35h.01ZM369.88,2344.99l97.84.3c-33.36-129.68-33.35-261.2-7.65-389.96l-81.45-.09c-33.84-.02-63.46,13-85.32,38.89-48.36,53.65-51.79,152.88-39.59,223.04,10.87,62.51,50.46,127.71,116.17,127.83h0ZM672.68,2344.79c-13.24-50.77-20.09-94.04-23.67-141.74-5.51-83.81-.46-165.68,15.86-247.74l-132.21-.02c-27.04,124.78-29.62,269.61,9.82,390.31l130.19-.81h.01ZM1424.91,2240.55c-15.95-98.99-12.03-205.91,49.63-285.21l-735.87-.06c-29.52,127.4-29.81,267.15,8.85,390.02l722.32-.09c-23.2-33.07-36.68-65.92-44.94-104.67h0ZM2365.9,2049.9c6.21-31.93,15.96-61.16,28.37-90.15l-790.38-.31c-62.49,7.68-96.1,69.71-105.5,128.73-6.27,39.34-6.37,78.53-1.18,118.16,8.14,62.13,39.66,130.88,105.05,138.94h795.2c-15.58-33.73-23.3-118.01-28.89-154.56l-750.67-.22c-19.37-.14-32.91-13.97-32.46-31.38.45-17.46,12.77-29.59,33.98-29.59h0l741.67.04,4.83-79.64-.02-.02ZM258.56,2881.16l1134.81-.08c-25.4-33.67-40.2-70.07-50.81-110.83-16.61-82.23-16.64-166.48,2.71-247.99,10.73-37.14,24.28-69.98,48.91-102.11l-1149.44.2c-34.46,0-64.54,21.9-84.84,47.17-53.69,66.83-55.74,184.91-41.39,268.66,6.54,38.15,21.15,73.27,45.17,102.32,24.06,29.11,55.28,42.66,94.85,42.66h.03ZM2478.31,2683.03l-938.63-.04c-18.11-3.43-27.68-17.49-27.15-33.5.49-14.86,9.88-27.87,27.11-31.19l947.02-.03c5.88-36.17,18.01-163.34,31.6-197.87l-990.69.09c-62.89,6.59-98.33,71.66-111.06,130.73-13.92,64.57-13.26,130.42-.54,195.34,11.21,57.19,45.46,124.56,105.95,133.25l998.59.27c-18.91-43.23-30.03-86.33-35.09-131.58l-7.11-65.49v.02Z" stroke="#000" stroke-miterlimit="10" stroke-width="27"/>
  <path d="M1420.38,519.44c-24.52,11.06-46.97,20.42-72.98,25.29-2.42-15.96,2.98-32.86,16.73-43.89l23.76-19.04c33.61,4.64,65,6.73,99.08,7.61l-66.59,30.03h0Z" fill="#fff" stroke="#000" stroke-miterlimit="10" stroke-width="27"/>
  <path d="M1390.49,1461.43l-112.09.2c36.88-16.97,77.91-18.07,112.09-.2Z" fill="#fff" stroke="#000" stroke-miterlimit="10" stroke-width="27"/>
  <path d="M639.95,1858.37c.02,18.16-15.3,28.71-29.62,29.59-14.52.89-33.21-9.27-33.22-26.76l-.08-325.85c0-16.71,17.31-27.15,31.25-27.36,13.54-.2,31.43,10.06,31.44,26.93l.21,267.54v55.92h.02Z" stroke="#000" stroke-miterlimit="10" stroke-width="27"/>
</svg>