<?xml version="1.0" encoding="UTF-8"?>
<svg id="Layer_1" xmlns="http://www.w3.org/2000/svg" version="1.1" viewBox="0 0 2194.5 2946.75">
  <!-- Generator: Adobe Illustrator 30.3.0, SVG Export Plug-In . SVG Version: 2.1.3 Build 182)  -->
  <defs>
    <style>
      .st0 {
        stroke-width: 45px;
      }

      .st0, .st1 {
        stroke: #000;
        stroke-miterlimit: 10;
      }

      .st1 {
        fill: none;
        stroke-linecap: round;
        stroke-width: 136px;
      }
    </style>
  </defs>
  <path class="st0" d="M1127.02,2039.15l-60.25.02-227.48,576.37-106.76,271.08c-8.5,21.59-22.4,35.92-45.33,37.48-23.89,1.63-38.79-13.52-50.19-34.83l-191.6-358.11-361.81,129.36c-17.99,6.43-37.33-3.56-47.74-13.74-13-12.71-15.54-29.55-11.76-48.89l214.9-513.27,147.46-348.89c-76.95-78.19-141.42-164.12-188.37-261.36-87.3-180.81-117.08-384.32-89.62-582.9,30.76-242.14,149.67-461.1,332.66-621.43C780.57-27.37,1292.54-63.36,1663.72,197.83c142.58,100.33,255.51,234.89,331.39,391.73,179.45,383.46,114.39,848-185.97,1150.4l138.55,322.66,222.75,532.21c3.04,19.66,2.61,36.34-10.44,50.36-9.49,10.2-30.73,22.11-49.26,15.48l-363.01-129.98-193.72,364.45c-10.6,19.94-28.14,30.88-48.99,28.89-23.12-2.21-34.07-17.06-42.48-38.29l-174.27-439.93-161.26-406.65h.01ZM2010.37,1032.48c0-504.05-408.62-912.67-912.67-912.67S185.03,528.43,185.03,1032.48s408.62,912.67,912.67,912.67,912.67-408.62,912.67-912.67h0ZM679.55,2778.98l151.69-384.29,143.17-363.94c-59.02-6.92-113.86-19.62-170.31-37.46-126.73-41.88-242.22-105.76-346.75-192.94l-265.62,626.63-48.81,118.15,306.37-109.07c26.49-9.43,53.79,7.42,62.7,32.96l167.56,309.96h0ZM1681.76,2467.24c12.33-29.87,39.95-39.46,67.96-29.5l304.49,108.27-122.95-293.24-192.22-448.44c-148.47,124.64-325.09,202.91-518.85,227.92l235.59,593.37,59.44,153.26,166.52-311.64h.02Z"/>
  <line class="st1" x1="1593.81" y1="536.37" x2="605.15" y2="1525.02"/>
  <line class="st1" x1="1590.24" y1="1528.59" x2="601.59" y2="539.94"/>
</svg>