<?xml version="1.0" encoding="UTF-8"?>
<svg id="Layer_1" data-name="Layer 1" xmlns="http://www.w3.org/2000/svg" viewBox="0 0 2992.58 2657.12">
  <path d="M2675.7,1354.52l-1.95,903.27-1110.98,388.25c-34.87,12.18-79.64,15.7-114.38,3.47l-1128.8-397.52-1.44-901.48-276.48-91.78-37.23-34.06c-10.65-9.74.12-49.24,8.9-60.8l304.32-400.44L77.05,371.97c-21.61-35.16,11.34-79.15,42.38-88.34L928.03,44.24c66.72-19.75,127.91-40.4,199.73-44.24l375.14,441.36L1851.65,32.83c15.47-18.13,57.99-26.4,83.67-22.85l932.37,274.29c17.96,5.28,40.25,17.29,49.39,26.95,10.96,11.59,9.65,53.1.91,67.24l-241.39,390.44,310.11,409.38c15.92,21.01-3.22,74.43-24.81,81.57l-286.19,94.67ZM403.59,724.04l1001.44-249.42-319.84-375.81L181.94,365.48l221.65,358.55ZM2590.59,729.42l222.92-360.1L1913.64,106.09l-311.64,367.66,988.59,255.67ZM1508.84,1063.54l900.61-281.69-911.07-233.62-912.2,230.65,922.66,284.67ZM1128.41,1527.88l295.93-388.21L389.96,819.43l-268.83,362.92,1007.28,345.53ZM2875.78,1187.17l-276.61-362.82-1022.46,317.77,291.43,387.92,1007.64-342.87ZM413.17,1385.66l.09,796.96,1040.41,365.25-1.41-1278.21c-100.14,117.78-173.06,216.64-257,328.31-24.78,30.91-69.05,38.54-105.97,18.57l-676.11-230.88ZM2578.99,1389.49l-679.19,230.3c-45.37,16.87-93.92,1.93-114.09-41.7-78.37-105.49-151.52-204.41-238.47-309.08l-.07,1278.6,1032.47-358.65-.66-799.46Z"/>
  <path d="M2347.44,1867.61c-134.37,56.34-377.72,157.78-379,67.53l-2.24-157.79c-.28-19.56,38.23-54.76,58.95-61.76,93.91-31.73,198.02-71.16,293.68-92.96,83.94-19.12,78.89,223.9,28.6,244.98ZM2053.42,1879.41l236.8-81.75.71-79.14-233.5,77.56-4.01,83.32Z"/>
</svg>