<?xml version="1.0" encoding="UTF-8"?>
<svg id="Layer_1" data-name="Layer 1" xmlns="http://www.w3.org/2000/svg" viewBox="0 0 1949.29 2945.29">
  <defs>
    <style>
      .cls-1 {
        stroke-linecap: round;
        stroke-linejoin: round;
        stroke-width: 101px;
      }

      .cls-1, .cls-2, .cls-3 {
        stroke: #000;
      }

      .cls-2 {
        stroke-width: 65px;
      }

      .cls-2, .cls-3 {
        stroke-miterlimit: 10;
      }

      .cls-3 {
        stroke-width: 27px;
      }
    </style>
  </defs>
  <path class="cls-3" d="M1887.42,2707.97l-381.57,61.83-797.64,131.55c-100.45,16.57-199.38,26.97-300.67,29.97-107.2,3.18-228.47-8.34-314.35-73.79-42.94-32.72-77.39-82.43-77.48-139.27l-1.27-867.68-.95-1356.71c-.02-33.26,21.62-61.82,43.97-82.19,28.92-26.36,64.92-40,103.04-47.88l128.29-26.54c337.7-80.19,672.53-164.14,1006.66-258.8l221.57-62.77c36.36-10.3,76.64,17.31,80.45,53.27l1.87,76.21,39.83-7.42c27.92-.48,53.43,22.46,53.74,50.02l.82,73.09,25-5.45c32.19-7.02,72.07,12.19,72.44,47.91l1.02,99.76,66-9.44c44.71-6.39,77.6,28.29,77.6,71.77v2191.63c0,30.11-19.6,46.28-48.36,50.94ZM1264.18,402.31c-320.75,65.56-638.07,124.91-958.64,177-14.37,2.33-35.95,28.27-48.13,23.76-7.64-2.83-114.65-24.08-114.11-31.53.46-6.26,62.15-24.13,71.27-25.75l610.36-108.32,816.24-164.13-1.28-84.68c-459.47,107.8-913.04,210.58-1371.9,307.57-48.34,10.22-94.01,18.01-138.31,38.66-12.75,5.94-27.84-1.03-31.65-13.29-2.82-9.06,0-24.07,11.44-30.1,36-18.98,74.89-29.33,115.47-37.83l203.03-42.58,732.62-162.64,383.97-89.31.44-74.23c.04-7.37-6.75-19.12-17.43-16.15l-454.6,126.39-448.54,115.94-309.28,75.86-156.8,34.62c-48.54,10.72-98.25,50.44-85.81,78.98,22.94,52.63,106,79.62,163.96,89.51,62.72,10.69,123.75,14.49,188.09,12.49,105.09-3.27,206.72-12.86,310.89-29.24l379.36-59.64,625.01-102.36.54-92.35c.03-4.91-3.93-13.19-10.47-11.86l-465.75,95.2ZM68.26,2712.25c4.85,48.03,29.28,84.44,67.6,108.74,73.61,46.68,166.9,57.66,254.4,56.55,72.52-.92,142.16-6.96,213.83-16.94l145.87-20.32,885.37-146.45,246.27-39.63-.18-2191.43c0-11.12-10.82-15.51-19.71-15.02l-163.3,25.55-575.33,94.08-401.47,63.12c-70.52,11.09-137.84,17.14-208.82,22.64-66.59,5.16-130.27,5.61-196.69,2.06-57-4.62-111.16-13.25-165-31-30.22-10.74-56.7-24.24-84.85-43.65l1,1187.39,1.01,944.3Z"/>
  <path class="cls-2" d="M1090.04,1735.53l-299.82,232.34c-10.96,8.49-25.8,7.92-36.82.84-9.8-6.3-17.25-19.34-13.75-33.98l87.33-365.06-263.59-191.16c-12-8.7-13.28-24.96-9.13-37.63s15.66-18.05,30.49-20.36l340.2-52.91,91.23-247.78,34.86-96.75c6.12-15.27,20.91-23.36,35.6-21.85,17.3,1.79,23.56,13.75,29.93,29.74l121.87,305.7,346.36-22.47c13.15-.85,23.78,8.53,28.16,17.11,6.08,11.93,4.27,25.42-4.31,35.72l-150.44,143.07-117.87,112.98,101.72,344.74c4.44,15.06-4.19,28.88-14.09,35.39-12.43,8.17-25.92,5.61-39.34-1.84l-298.59-165.82ZM1107.25,1683.21l269.43,149.65-89.04-300.51c-6.94-17.7-1.76-34.91,14.13-45.27l225.84-216.07-294.91,18.84c-19.06,4.33-35.44-6.05-39.95-25.24l-109.45-271.92-110,297.47c-3.1,18.95-17,29.99-36.02,29.5l-299.1,46.8,236.22,170.76c7.71,8,10.16,16.68,8.85,28.13l-78.2,323.86,270.36-208.38c8.8-6.78,22.21-3.44,31.83,2.38Z"/>
  <line class="cls-1" x1="247.91" y1="2765.36" x2="247.57" y2="736.98"/>
  <path class="cls-2" d="M1088.05,2276.47l-478.45,75.6c-16.35,2.58-29.29-3.81-32.52-19.15-3.13-14.85,4.78-27.96,22.54-30.78l984.06-156c16.36-2.59,28.02,4.91,31.31,18.64,2.84,11.85-3.97,28.26-19.61,30.75l-507.34,80.93Z"/>
  <path class="cls-2" d="M1049.82,2511.53l-442.37,72.16c-15.46,2.52-25.72-10.23-27.18-21.34-1.96-14.91,6.16-26.55,22.58-29.24l817.11-134,170.7-27.25c14.14-2.26,25.4,7.56,27.67,20.06,2.02,11.12-4.14,27.06-19.33,29.55l-549.18,90.06Z"/>
</svg>