<svg id="Слой_1" data-name="Слой 1" xmlns="http://www.w3.org/2000/svg" viewBox="0 0 500 500"><path d="M249.93,51.33c17.35-.75,34.37,1.61,51.11,5.94a204.74,204.74,0,0,1,55.19,23.27c31.3,19,55.72,44.67,73.68,76.48,10.9,19.29,17.78,40,22,61.78,3.4,17.38,3.68,34.92,2.41,52.37a192.21,192.21,0,0,1-18,68.48A205.47,205.47,0,0,1,306.86,449.49a211.3,211.3,0,0,1-67.81,7.68,199.69,199.69,0,0,1-74-17.87A208.53,208.53,0,0,1,111.28,404a199,199,0,0,1-48.35-66.58A204.27,204.27,0,0,1,46.1,276.29a186.12,186.12,0,0,1,0-43.56A203,203,0,0,1,92.35,125,203.13,203.13,0,0,1,125,93.53a206.73,206.73,0,0,1,44.42-26.11,202.8,202.8,0,0,1,45.93-13.68A162.19,162.19,0,0,1,249.93,51.33ZM442.11,253.78a170.81,170.81,0,0,0-4.43-41.43,187.76,187.76,0,0,0-25.17-59.59,192.09,192.09,0,0,0-53.09-55.17A197.09,197.09,0,0,0,312.3,73.71c-18.53-6.54-37.64-9.5-57.15-10.37a183,183,0,0,0-29.76,1.58,177,177,0,0,0-50.91,13.92,196.7,196.7,0,0,0-52,33.11A192.1,192.1,0,0,0,90,149.07c-15.26,23.05-25.56,48.12-29.9,75.6A189.73,189.73,0,0,0,149.9,417.05,185.81,185.81,0,0,0,231.62,444c21.47,1.81,42.75.71,63.7-4.39a190.72,190.72,0,0,0,60.26-25.84c22.41-14.73,41.26-33,55.88-55.49C431.82,327,442.42,292.67,442.11,253.78Z"/><path d="M249.87,269.12c-10,.17-17.33-9.31-16.63-16.75.24-2.55-.7-4-2.81-5.39q-26.88-17.89-53.6-36c-5.54-3.74-11-7.65-16.48-11.4-2-1.35-3.44-2.89-3-5.46a9.2,9.2,0,0,1,4.77-6.64c1.7-1,3.13.11,4.48,1.05,6.1,4.24,12.15,8.55,18.3,12.71,17.69,12,35.44,23.92,53.12,35.94,1.77,1.2,3.24,1.64,5.26.55a13.71,13.71,0,0,1,12.45-.51c1.89.83,2.95.25,4.3-1q29-26,58.08-52c9.07-8.12,18.15-16.23,27.15-24.43,1.92-1.75,3.71-2.9,6.31-1.52a7.22,7.22,0,0,1,4.22,6.8,6,6,0,0,1-2.08,3.7c-7.55,6.92-15.19,13.74-22.85,20.54Q299.7,217,268.45,244.53c-2.2,1.94-2.36,4-1.83,6.35C268.49,259.19,260.22,269.34,249.87,269.12Z"/><path d="M87.18,250.2c3.26,0,6.52-.08,9.77,0,3,.08,4.89,2,4.91,4.58s-2,4.54-4.94,4.58q-9.78.15-19.55,0a4.51,4.51,0,0,1-4.58-4.85c.14-2.61,1.78-4.23,4.61-4.31C80.66,250.13,83.92,250.2,87.18,250.2Z"/><path d="M413,259.41c-3.41,0-6.82.09-10.22,0-3.05-.1-4.59-1.58-4.7-4.19-.11-2.87,1.5-4.89,4.46-4.95,6.81-.14,13.63-.13,20.44,0,2.8,0,4.19,1.8,4.13,4.65s-1.55,4.43-4.34,4.53c-3.25.11-6.51,0-9.77,0Z"/><path d="M164.77,100.1c.63.44,2.18,1,2.85,2.09,3.62,5.93,6.94,12,10.54,18a4.14,4.14,0,0,1-1.56,5.72,4.51,4.51,0,0,1-6-1.08,2.45,2.45,0,0,1-.26-.37c-3.42-5.88-6.95-11.7-10.21-17.67C158.47,103.66,160.59,100.26,164.77,100.1Z"/><path d="M335.46,100.29c4.06,0,5.94,2.74,4.4,6.28a50.65,50.65,0,0,1-2.79,5c-2.39,4.09-4.76,8.2-7.26,12.22-1.7,2.73-4.16,3.52-6.33,2.29-2.39-1.36-2.92-4-1.24-7,3.09-5.39,6.24-10.75,9.4-16.11C332.56,101.5,333.55,100,335.46,100.29Z"/><path d="M404.12,340.29c0,4-3.66,6.53-6.56,4.92-6-3.29-11.82-6.75-17.62-10.3-2.25-1.38-2.72-3.44-1.73-5.33a5,5,0,0,1,5.66-2.42,5.32,5.32,0,0,1,1.23.51c5.65,3.22,11.35,6.38,16.9,9.76C403.1,338.1,403.67,339.66,404.12,340.29Z"/><path d="M178.63,387.17a7.79,7.79,0,0,1-.55,1.38c-3.34,5.78-6.58,11.61-10.08,17.28-2.08,3.36-5.4,3.5-7.65.62a3.65,3.65,0,0,1-.48-4.51c3.52-5.84,7-11.72,10.52-17.54a4.06,4.06,0,0,1,5-1.9A5.07,5.07,0,0,1,178.63,387.17Z"/><path d="M326.79,382.23c.66.53,2.19,1.27,3,2.5q5.08,8,9.77,16.33c1.82,3.21,1,5.43-2.08,6.88-2.14,1-3.71.81-5-1.23-3.67-5.88-7.3-11.8-10.63-17.88C320.14,385.75,322.53,382.28,326.79,382.23Z"/><path d="M121.8,177.09c0,4-3.46,6.4-6.26,4.94-5.89-3.07-11.7-6.29-17.46-9.6-2.47-1.42-2.87-4.12-1.31-6.54a4.28,4.28,0,0,1,6.13-1.56c5.37,3.11,10.72,6.26,15.95,9.59A14.89,14.89,0,0,1,121.8,177.09Z"/><path d="M122,331.86c-.47.65-1.05,2.19-2.16,2.88-5.81,3.58-11.72,7-17.68,10.34a4.14,4.14,0,0,1-5.7-1.71,4.3,4.3,0,0,1,1.2-5.91c2.33-1.57,4.86-2.86,7.32-4.24,3.5-2,6.93-4.05,10.54-5.78C118.66,326,121.93,328,122,331.86Z"/><path d="M403.77,168.35a4.37,4.37,0,0,1-2.59,4.29c-5.54,3.12-11.07,6.25-16.65,9.27-2.44,1.32-4.63.55-6-1.82s-1-4.2,1.46-5.69c5.67-3.47,11.41-6.84,17.25-10C400.48,162.63,403.62,164.71,403.77,168.35Z"/><path d="M245.6,91.64c0-3.26.18-6.52-.06-9.76a4.15,4.15,0,0,1,4.29-4.54c2.56,0,4.22,1.66,4.25,4.57q.13,10.2,0,20.42c0,2.69-1.69,4.29-4,4.35-2.6.06-4.39-1.56-4.49-4.39-.12-3.55,0-7.1,0-10.65Z"/><path d="M254.06,416.22c0,3.27.08,6.54,0,9.8s-1.51,4.65-4.16,4.61-4.22-1.47-4.27-4.56q-.15-10,0-20c0-3.08,1.91-5,4.53-4.92,2.42.05,3.92,1.78,4,4.87.08,3.41,0,6.83,0,10.24Z"/></svg>