<?xml version="1.0" encoding="UTF-8"?>
<svg id="Layer_1" xmlns="http://www.w3.org/2000/svg" version="1.1" viewBox="0 0 2998.03 2998.67">
  <!-- Generator: Adobe Illustrator 30.3.0, SVG Export Plug-In . SVG Version: 2.1.3 Build 182)  -->
  <path d="M2718.81,100c47.87,0,92.88,18.64,126.73,52.49,33.85,33.85,52.49,78.86,52.49,126.73v2440.23c0,47.87-18.64,92.88-52.49,126.73-33.85,33.85-78.86,52.49-126.73,52.49H279.22c-47.87,0-92.88-18.64-126.73-52.49-33.85-33.85-52.49-78.86-52.49-126.73V279.22c0-47.87,18.64-92.88,52.49-126.73,33.85-33.85,78.86-52.49,126.73-52.49h2439.59M2718.81,0H279.22C125.01,0,0,125.01,0,279.22v2440.23c0,154.21,125.01,279.22,279.22,279.22h2439.59c154.21,0,279.22-125.01,279.22-279.22V279.22c0-154.21-125.01-279.22-279.22-279.22h0Z"/>
</svg>