<?xml version="1.0" encoding="UTF-8"?>
<svg id="Layer_1" data-name="Layer 1" xmlns="http://www.w3.org/2000/svg" viewBox="0 0 2986.21 2988.86">
  <defs>
    <style>
      .cls-1 {
        fill: #fff;
      }
    </style>
  </defs>
  <path d="M2610.56,3l.07,203.91-2264.25.04-.07-203.91,2264.25-.04Z"/>
  <ellipse cx="2700.58" cy="1395.65" rx="66.5" ry="66.49"/>
  <ellipse cx="2700.55" cy="797.38" rx="66.1" ry="66.09"/>
  <ellipse cx="886.61" cy="2922.92" rx="65.95" ry="65.94"/>
  <ellipse cx="886.32" cy="2706.24" rx="66.25" ry="66.25"/>
  <ellipse cx="2919.85" cy="1386.26" rx="66.36" ry="66.35"/>
  <ellipse cx="1085.5" cy="2922.35" rx="65.76" ry="65.75"/>
  <ellipse cx="1677.14" cy="2706.09" rx="65.94" ry="65.93"/>
  <ellipse cx="2700.43" cy="1794.38" rx="65.65" ry="65.64"/>
  <ellipse cx="2700.71" cy="394.2" rx="65.84" ry="65.83"/>
  <ellipse cx="2700.6" cy="1195.13" rx="65.58" ry="65.57"/>
  <ellipse cx="1478.57" cy="2706.41" rx="65.87" ry="65.86"/>
  <ellipse cx="2071.96" cy="2922" rx="65.66" ry="65.65"/>
  <ellipse cx="1875.49" cy="2706.38" rx="65.94" ry="65.93"/>
  <ellipse cx="2071.57" cy="2705.95" rx="65.88" ry="65.87"/>
  <ellipse cx="2700.77" cy="996.79" rx="65.6" ry="65.59"/>
  <ellipse cx="1875.16" cy="2922.63" rx="66" ry="65.99"/>
  <ellipse cx="2700.6" cy="1594.75" rx="65.79" ry="65.79"/>
  <ellipse cx="2919.61" cy="1785.25" rx="65.74" ry="65.73"/>
  <ellipse cx="2700.31" cy="597.32" rx="65.67" ry="65.66"/>
  <ellipse cx="1283.93" cy="2706.58" rx="65.78" ry="65.77"/>
  <ellipse cx="1677.55" cy="2922.71" rx="65.48" ry="65.47"/>
  <ellipse cx="1283.65" cy="2922.59" rx="65.71" ry="65.7"/>
  <ellipse cx="1085.67" cy="2485.53" rx="65.62" ry="65.61"/>
  <ellipse cx="1283.39" cy="2485.47" rx="65.63" ry="65.62"/>
  <ellipse cx="2919.57" cy="788.15" rx="65.68" ry="65.67"/>
  <ellipse cx="1677.47" cy="2485.66" rx="65.45" ry="65.44"/>
  <ellipse cx="1875.13" cy="2485.18" rx="65.92" ry="65.91"/>
  <ellipse cx="2919.36" cy="385.36" rx="65.59" ry="65.58"/>
  <ellipse cx="2919.94" cy="1185.77" rx="65.52" ry="65.51"/>
  <ellipse cx="1478.58" cy="2922.31" rx="65.69" ry="65.68"/>
  <ellipse cx="1085.62" cy="2705.85" rx="65.81" ry="65.8"/>
  <ellipse cx="2919.8" cy="587.98" rx="65.66" ry="65.66"/>
  <ellipse cx="886.39" cy="2485.52" rx="65.67" ry="65.67"/>
  <ellipse cx="2919.71" cy="1585.14" rx="65.48" ry="65.48"/>
  <ellipse cx="2919.64" cy="987.45" rx="65.51" ry="65.5"/>
  <ellipse cx="1478.47" cy="2485.5" rx="65" ry="64.99"/>
  <ellipse cx="2071.59" cy="2485.38" rx="65.26" ry="65.25"/>
  <path class="cls-1" d="M1958.62,1260.22l-24.64,2.17c-7.62.67-15.44,22.62-9.14,26.95,6.3,4.33,24.56,10.26,32.02,9.94l30.63-1.31c5.05-.22,5.04,10.3,6.05,23.67l-97.08,1.19.69-145.65,94.77.18c-.39,13.85.39,24.44-4.55,24.44h-28.22s-25.02.03-25.02.03c-7.62,0-16.79,26.26-9.56,28.67,7.23,2.41,24.7,6.25,32.28,6.43l23.72.56c5.4.13,8.72,20.04,3.37,20.51l-25.32,2.22Z"/>
  <path d="M2109.68,2264.25l-1250.31.07L859.14.07l1250.31-.07.23,2264.25Z"/>
  <ellipse cx="2700.46" cy="2193.78" rx="65.65" ry="65.64"/>
  <ellipse cx="2700.63" cy="1994.16" rx="65.79" ry="65.79"/>
  <ellipse cx="2919.64" cy="2184.65" rx="65.74" ry="65.73"/>
  <ellipse cx="2919.75" cy="1984.54" rx="65.48" ry="65.48"/>
  <ellipse cx="2481.59" cy="1387.33" rx="66.5" ry="66.49"/>
  <ellipse cx="2481.56" cy="789.06" rx="66.1" ry="66.09"/>
  <ellipse cx="2481.44" cy="1786.05" rx="65.65" ry="65.64"/>
  <ellipse cx="2481.72" cy="385.88" rx="65.84" ry="65.83"/>
  <ellipse cx="2481.61" cy="1186.81" rx="65.58" ry="65.57"/>
  <ellipse cx="2481.78" cy="988.47" rx="65.6" ry="65.59"/>
  <ellipse cx="2481.62" cy="1586.43" rx="65.79" ry="65.79"/>
  <ellipse cx="2481.33" cy="589" rx="65.67" ry="65.66"/>
  <ellipse cx="2481.47" cy="2185.46" rx="65.65" ry="65.64"/>
  <ellipse cx="2481.65" cy="1985.84" rx="65.79" ry="65.79"/>
  <ellipse cx="285.49" cy="1399.95" rx="66.5" ry="66.49"/>
  <ellipse cx="285.46" cy="801.68" rx="66.1" ry="66.09"/>
  <ellipse cx="504.76" cy="1390.56" rx="66.36" ry="66.35"/>
  <ellipse cx="285.34" cy="1798.67" rx="65.65" ry="65.64"/>
  <ellipse cx="285.62" cy="398.5" rx="65.84" ry="65.83"/>
  <ellipse cx="285.51" cy="1199.43" rx="65.58" ry="65.57"/>
  <ellipse cx="285.68" cy="1001.09" rx="65.6" ry="65.59"/>
  <ellipse cx="285.51" cy="1599.05" rx="65.79" ry="65.79"/>
  <ellipse cx="504.52" cy="1789.54" rx="65.74" ry="65.73"/>
  <ellipse cx="285.22" cy="601.61" rx="65.67" ry="65.66"/>
  <ellipse cx="504.47" cy="792.45" rx="65.68" ry="65.67"/>
  <ellipse cx="504.27" cy="389.66" rx="65.59" ry="65.58"/>
  <ellipse cx="504.85" cy="1190.07" rx="65.52" ry="65.51"/>
  <ellipse cx="504.71" cy="592.28" rx="65.66" ry="65.66"/>
  <ellipse cx="504.62" cy="1589.43" rx="65.48" ry="65.48"/>
  <ellipse cx="504.55" cy="991.74" rx="65.51" ry="65.5"/>
  <ellipse cx="285.37" cy="2198.08" rx="65.65" ry="65.64"/>
  <ellipse cx="285.54" cy="1998.46" rx="65.79" ry="65.79"/>
  <ellipse cx="504.55" cy="2188.95" rx="65.74" ry="65.73"/>
  <ellipse cx="504.66" cy="1988.84" rx="65.48" ry="65.48"/>
  <ellipse cx="66.5" cy="1391.63" rx="66.5" ry="66.49"/>
  <ellipse cx="66.47" cy="793.36" rx="66.1" ry="66.09"/>
  <ellipse cx="66.35" cy="1790.35" rx="65.65" ry="65.64"/>
  <ellipse cx="66.63" cy="390.18" rx="65.84" ry="65.83"/>
  <ellipse cx="66.52" cy="1191.11" rx="65.58" ry="65.57"/>
  <ellipse cx="66.69" cy="992.77" rx="65.6" ry="65.59"/>
  <ellipse cx="66.52" cy="1590.73" rx="65.79" ry="65.79"/>
  <ellipse cx="66.24" cy="593.29" rx="65.67" ry="65.66"/>
  <ellipse cx="66.38" cy="2189.76" rx="65.65" ry="65.64"/>
  <ellipse cx="66.56" cy="1990.14" rx="65.79" ry="65.79"/>
</svg>