<?xml version="1.0" encoding="UTF-8"?>
<svg id="Layer_1" data-name="Layer 1" xmlns="http://www.w3.org/2000/svg" viewBox="0 0 2984.3 2983.03">
  <defs>
    <style>
      .cls-1 {
        fill: #fff;
      }
    </style>
  </defs>
  <ellipse cx="861.59" cy="2912.89" rx="70.14" ry="70.13"/>
  <ellipse cx="861.28" cy="2682.44" rx="70.47" ry="70.46"/>
  <ellipse cx="1073.12" cy="2912.29" rx="69.94" ry="69.93"/>
  <ellipse cx="1702.4" cy="2682.27" rx="70.13" ry="70.12"/>
  <ellipse cx="1491.19" cy="2682.61" rx="70.06" ry="70.05"/>
  <ellipse cx="2122.33" cy="2911.91" rx="69.83" ry="69.83"/>
  <ellipse cx="1913.36" cy="2682.58" rx="70.13" ry="70.12"/>
  <ellipse cx="2121.92" cy="2682.12" rx="70.07" ry="70.06"/>
  <ellipse cx="1913.02" cy="2912.59" rx="70.2" ry="70.19"/>
  <ellipse cx="1284.17" cy="2682.8" rx="69.96" ry="69.96"/>
  <ellipse cx="1702.84" cy="2912.67" rx="69.65" ry="69.64"/>
  <ellipse cx="1283.88" cy="2912.55" rx="69.89" ry="69.88"/>
  <ellipse cx="1073.31" cy="2447.69" rx="69.79" ry="69.78"/>
  <ellipse cx="1283.6" cy="2447.62" rx="69.8" ry="69.79"/>
  <ellipse cx="1702.74" cy="2447.82" rx="69.62" ry="69.61"/>
  <ellipse cx="1912.98" cy="2447.31" rx="70.11" ry="70.11"/>
  <ellipse cx="1491.21" cy="2912.24" rx="69.87" ry="69.86"/>
  <ellipse cx="1073.25" cy="2682.02" rx="70" ry="69.99"/>
  <ellipse cx="861.35" cy="2447.68" rx="69.85" ry="69.84"/>
  <ellipse cx="1491.09" cy="2447.65" rx="69.13" ry="69.13"/>
  <ellipse cx="2121.94" cy="2447.52" rx="69.41" ry="69.4"/>
  <path class="cls-1" d="M1953.82,1254.39l-24.64,2.17c-7.62.67-15.44,22.62-9.14,26.95,6.3,4.33,24.56,10.26,32.02,9.94l30.63-1.31c5.05-.22,5.04,10.3,6.05,23.67l-97.08,1.19.69-145.65,94.77.18c-.39,13.85.39,24.44-4.55,24.44h-28.22s-25.02.03-25.02.03c-7.62,0-16.79,26.26-9.56,28.67,7.23,2.41,24.7,6.25,32.28,6.43l23.72.56c5.4.13,8.72,20.04,3.37,20.51l-25.32,2.22Z"/>
  <path d="M2192.17,2191.24l-1401.1.04-.26-1399.5,1401.1-.04.26,1399.5Z"/>
  <ellipse cx="861.19" cy="535.69" rx="70.14" ry="70.13"/>
  <ellipse cx="860.88" cy="305.23" rx="70.47" ry="70.46"/>
  <ellipse cx="1072.73" cy="535.09" rx="69.94" ry="69.93"/>
  <ellipse cx="1702.01" cy="305.07" rx="70.13" ry="70.12"/>
  <ellipse cx="1490.8" cy="305.41" rx="70.06" ry="70.05"/>
  <ellipse cx="2121.94" cy="534.71" rx="69.83" ry="69.83"/>
  <ellipse cx="1912.97" cy="305.38" rx="70.13" ry="70.12"/>
  <ellipse cx="2121.52" cy="304.92" rx="70.07" ry="70.06"/>
  <ellipse cx="1912.62" cy="535.39" rx="70.2" ry="70.19"/>
  <ellipse cx="1283.78" cy="305.6" rx="69.96" ry="69.96"/>
  <ellipse cx="1702.44" cy="535.47" rx="69.65" ry="69.64"/>
  <ellipse cx="1283.48" cy="535.34" rx="69.89" ry="69.88"/>
  <ellipse cx="1072.92" cy="70.48" rx="69.79" ry="69.78"/>
  <ellipse cx="1283.21" cy="70.41" rx="69.8" ry="69.79"/>
  <ellipse cx="1702.35" cy="70.62" rx="69.62" ry="69.61"/>
  <ellipse cx="1912.58" cy="70.11" rx="70.11" ry="70.11"/>
  <ellipse cx="1490.81" cy="535.04" rx="69.87" ry="69.86"/>
  <ellipse cx="1072.86" cy="304.81" rx="70" ry="69.99"/>
  <ellipse cx="860.96" cy="70.47" rx="69.85" ry="69.84"/>
  <ellipse cx="1490.7" cy="70.45" rx="69.13" ry="69.13"/>
  <ellipse cx="2121.54" cy="70.32" rx="69.41" ry="69.4"/>
  <ellipse cx="70.13" cy="861.62" rx="70.13" ry="70.14"/>
  <ellipse cx="300.59" cy="861.3" rx="70.46" ry="70.47"/>
  <ellipse cx="70.74" cy="1073.15" rx="69.93" ry="69.94"/>
  <ellipse cx="300.76" cy="1702.43" rx="70.12" ry="70.13"/>
  <ellipse cx="300.42" cy="1491.22" rx="70.05" ry="70.06"/>
  <ellipse cx="71.11" cy="2122.36" rx="69.83" ry="69.83"/>
  <ellipse cx="300.45" cy="1913.39" rx="70.12" ry="70.13"/>
  <ellipse cx="300.91" cy="2121.94" rx="70.06" ry="70.07"/>
  <ellipse cx="70.44" cy="1913.04" rx="70.19" ry="70.2"/>
  <ellipse cx="300.23" cy="1284.2" rx="69.96" ry="69.96"/>
  <ellipse cx="70.36" cy="1702.86" rx="69.64" ry="69.65"/>
  <ellipse cx="70.48" cy="1283.9" rx="69.88" ry="69.89"/>
  <ellipse cx="535.34" cy="1073.34" rx="69.78" ry="69.79"/>
  <ellipse cx="535.41" cy="1283.63" rx="69.79" ry="69.8"/>
  <ellipse cx="535.21" cy="1702.77" rx="69.61" ry="69.62"/>
  <ellipse cx="535.72" cy="1913" rx="70.11" ry="70.11"/>
  <ellipse cx="70.79" cy="1491.24" rx="69.86" ry="69.87"/>
  <ellipse cx="301.01" cy="1073.28" rx="69.99" ry="70"/>
  <ellipse cx="535.35" cy="861.38" rx="69.84" ry="69.85"/>
  <ellipse cx="535.37" cy="1491.12" rx="69.13" ry="69.13"/>
  <ellipse cx="535.51" cy="2121.96" rx="69.4" ry="69.41"/>
  <ellipse cx="2448.61" cy="861.22" rx="70.13" ry="70.14"/>
  <ellipse cx="2679.07" cy="860.91" rx="70.46" ry="70.47"/>
  <ellipse cx="2449.22" cy="1072.75" rx="69.93" ry="69.94"/>
  <ellipse cx="2679.23" cy="1702.03" rx="70.12" ry="70.13"/>
  <ellipse cx="2678.89" cy="1490.83" rx="70.05" ry="70.06"/>
  <ellipse cx="2449.59" cy="2121.96" rx="69.83" ry="69.83"/>
  <ellipse cx="2678.93" cy="1912.99" rx="70.12" ry="70.13"/>
  <ellipse cx="2679.38" cy="2121.55" rx="70.06" ry="70.07"/>
  <ellipse cx="2448.92" cy="1912.65" rx="70.19" ry="70.2"/>
  <ellipse cx="2678.71" cy="1283.8" rx="69.96" ry="69.96"/>
  <ellipse cx="2448.84" cy="1702.47" rx="69.64" ry="69.65"/>
  <ellipse cx="2448.96" cy="1283.51" rx="69.88" ry="69.89"/>
  <ellipse cx="2913.82" cy="1072.94" rx="69.78" ry="69.79"/>
  <ellipse cx="2913.89" cy="1283.23" rx="69.79" ry="69.8"/>
  <ellipse cx="2913.69" cy="1702.37" rx="69.61" ry="69.62"/>
  <ellipse cx="2914.2" cy="1912.61" rx="70.11" ry="70.11"/>
  <ellipse cx="2449.26" cy="1490.84" rx="69.86" ry="69.87"/>
  <ellipse cx="2679.49" cy="1072.88" rx="69.99" ry="70"/>
  <ellipse cx="2913.83" cy="860.98" rx="69.84" ry="69.85"/>
  <ellipse cx="2913.85" cy="1490.72" rx="69.13" ry="69.13"/>
  <ellipse cx="2913.99" cy="2121.57" rx="69.4" ry="69.41"/>
</svg>