<?xml version="1.0" encoding="UTF-8"?>
<svg id="Layer_1" data-name="Layer 1" xmlns="http://www.w3.org/2000/svg" viewBox="0 0 2988.87 2983.11">
  <path d="M2628.46,0l.07,732.05-2264.25.14-.07-732.05,2264.25-.14Z"/>
  <ellipse cx="1359.72" cy="2009.79" rx="82.66" ry="82.63"/>
  <ellipse cx="1105.55" cy="2604.41" rx="82.44" ry="82.41"/>
  <ellipse cx="2390.99" cy="2010.23" rx="82.27" ry="82.23"/>
  <ellipse cx="1615.77" cy="2900.54" rx="82.45" ry="82.42"/>
  <ellipse cx="2391.39" cy="2603.43" rx="82.17" ry="82.13"/>
  <ellipse cx="338.77" cy="2010.36" rx="82.73" ry="82.7"/>
  <ellipse cx="1359.86" cy="2308.66" rx="82.54" ry="82.5"/>
  <ellipse cx="1105.42" cy="2900.62" rx="82.29" ry="82.26"/>
  <ellipse cx="1360.02" cy="2900.23" rx="82.69" ry="82.66"/>
  <ellipse cx="592.1" cy="2010.5" rx="82.78" ry="82.74"/>
  <ellipse cx="1875.78" cy="2604.13" rx="82.12" ry="82.09"/>
  <ellipse cx="2135.84" cy="2900.83" rx="82.1" ry="82.06"/>
  <ellipse cx="2644.06" cy="2309.1" rx="81.64" ry="81.61"/>
  <ellipse cx="2391.21" cy="2900.35" rx="82.49" ry="82.45"/>
  <ellipse cx="1615.68" cy="2309" rx="82.29" ry="82.26"/>
  <ellipse cx="1615.61" cy="2010.2" rx="82.45" ry="82.42"/>
  <ellipse cx="83.04" cy="2010.45" rx="83.04" ry="83.01"/>
  <ellipse cx="1615.24" cy="2604.04" rx="82.3" ry="82.27"/>
  <ellipse cx="1359.64" cy="2603.93" rx="82.24" ry="82.21"/>
  <ellipse cx="1875.44" cy="2901.07" rx="82.07" ry="82.04"/>
  <ellipse cx="82.96" cy="2309.07" rx="82.67" ry="82.64"/>
  <ellipse cx="2135.95" cy="2309.33" rx="81.92" ry="81.88"/>
  <ellipse cx="848.74" cy="2010.28" rx="82.36" ry="82.33"/>
  <ellipse cx="2643.9" cy="2900.83" rx="81.79" ry="81.76"/>
  <ellipse cx="1875.65" cy="2309.31" rx="81.82" ry="81.79"/>
  <ellipse cx="1105.18" cy="2010.46" rx="82.11" ry="82.08"/>
  <ellipse cx="2391.02" cy="2308.76" rx="81.93" ry="81.9"/>
  <ellipse cx="338.34" cy="2308.9" rx="82.6" ry="82.57"/>
  <ellipse cx="2902.3" cy="2308.99" rx="81.85" ry="81.82"/>
  <ellipse cx="82.96" cy="2604.21" rx="82.6" ry="82.57"/>
  <ellipse cx="338.74" cy="2603.83" rx="82.47" ry="82.44"/>
  <ellipse cx="592.43" cy="2603.88" rx="82.25" ry="82.22"/>
  <ellipse cx="848.95" cy="2603.58" rx="82.22" ry="82.19"/>
  <ellipse cx="83.5" cy="2900.31" rx="82.63" ry="82.6"/>
  <ellipse cx="2902.61" cy="2603.61" rx="82.07" ry="82.04"/>
  <ellipse cx="2135.95" cy="2604.1" rx="81.89" ry="81.86"/>
  <ellipse cx="1105.41" cy="2309.58" rx="82.07" ry="82.04"/>
  <ellipse cx="1875.9" cy="2010.07" rx="82.03" ry="81.99"/>
  <ellipse cx="2644.05" cy="2604.07" rx="81.66" ry="81.63"/>
  <ellipse cx="2902.73" cy="2010.22" rx="82.14" ry="82.11"/>
  <ellipse cx="338.76" cy="2900.42" rx="82.59" ry="82.55"/>
  <ellipse cx="592.1" cy="2900.58" rx="82.31" ry="82.28"/>
  <ellipse cx="848.97" cy="2900.36" rx="82.21" ry="82.17"/>
  <ellipse cx="592.08" cy="2308.81" rx="82.18" ry="82.15"/>
  <ellipse cx="2902.4" cy="2900.68" rx="82.09" ry="82.05"/>
  <ellipse cx="2643.98" cy="2010.25" rx="81.63" ry="81.6"/>
  <ellipse cx="2135.85" cy="2010.25" rx="81.96" ry="81.93"/>
  <ellipse cx="848.77" cy="2308.86" rx="82" ry="81.97"/>
  <ellipse cx="1363.72" cy="1411.52" rx="82.66" ry="82.63"/>
  <ellipse cx="2394.99" cy="1411.95" rx="82.27" ry="82.23"/>
  <ellipse cx="342.77" cy="1412.08" rx="82.73" ry="82.7"/>
  <ellipse cx="1363.86" cy="1710.39" rx="82.54" ry="82.5"/>
  <ellipse cx="596.1" cy="1412.22" rx="82.78" ry="82.74"/>
  <ellipse cx="2648.06" cy="1710.83" rx="81.64" ry="81.61"/>
  <ellipse cx="1619.68" cy="1710.73" rx="82.29" ry="82.26"/>
  <ellipse cx="1619.61" cy="1411.93" rx="82.45" ry="82.42"/>
  <ellipse cx="87.04" cy="1412.18" rx="83.04" ry="83.01"/>
  <ellipse cx="86.96" cy="1710.79" rx="82.67" ry="82.64"/>
  <ellipse cx="2139.95" cy="1711.06" rx="81.92" ry="81.88"/>
  <ellipse cx="852.74" cy="1412" rx="82.36" ry="82.33"/>
  <ellipse cx="1879.65" cy="1711.03" rx="81.82" ry="81.79"/>
  <ellipse cx="1109.18" cy="1412.18" rx="82.11" ry="82.08"/>
  <ellipse cx="2395.02" cy="1710.49" rx="81.93" ry="81.9"/>
  <ellipse cx="342.34" cy="1710.62" rx="82.6" ry="82.57"/>
  <ellipse cx="2906.3" cy="1710.71" rx="81.85" ry="81.82"/>
  <ellipse cx="1109.41" cy="1711.3" rx="82.07" ry="82.04"/>
  <ellipse cx="1879.9" cy="1411.8" rx="82.03" ry="81.99"/>
  <ellipse cx="2906.73" cy="1411.95" rx="82.14" ry="82.11"/>
  <ellipse cx="596.08" cy="1710.54" rx="82.18" ry="82.15"/>
  <ellipse cx="2647.98" cy="1411.97" rx="81.63" ry="81.6"/>
  <ellipse cx="2139.85" cy="1411.98" rx="81.96" ry="81.93"/>
  <ellipse cx="852.77" cy="1710.58" rx="82" ry="81.97"/>
</svg>