<?xml version="1.0" encoding="UTF-8"?>
<svg id="_ÎÓÈ_1" data-name="—ÎÓÈ_1" xmlns="http://www.w3.org/2000/svg" viewBox="0 0 937.99 899.66">
  <path d="M675.73,890.67l-203.42-106.94c-2.04-1.07-4.6-1.07-6.64,0l-203.42,106.94c-57.36,30.16-121.65-20.3-111.27-80.84l38.85-226.51c.4-2.32-.37-4.68-2.05-6.32L23.21,416.58c-21.06-20.52-28.49-50.65-19.4-78.61,9.09-27.96,32.81-47.96,61.9-52.19l227.43-33.05c2.33-.34,4.33-1.8,5.37-3.9l101.71-206.09C413.24,16.38,439.59,0,468.99,0s55.75,16.38,68.77,42.75l101.71,206.09c1.04,2.11,3.05,3.57,5.37,3.9l227.43,33.05c29.1,4.23,52.82,24.23,61.91,52.19,9.09,27.96,1.65,58.09-19.4,78.61l-164.57,160.42c-1.68,1.64-2.45,4-2.05,6.32,0,0,38.8,226.25,38.85,226.51,10.39,60.56-53.95,110.97-111.27,80.84ZM469,745.19c7.4,0,14.79,1.64,21,4.9,0,0,203.37,106.92,203.42,106.94,27.17,14.29,61.51-9.43,56.13-40.78l-38.85-226.51c-3.51-22.94,2.34-29.58,12.98-39.95,0,0,164.07-159.93,164.57-160.42,22.62-22.05,9.67-61.47-21.44-65.99l-227.43-33.05c-14.7-2.14-27.41-11.37-33.98-24.69l-101.71-206.09c-6.66-13.5-19.63-21.56-34.69-21.56s-28.03,8.06-34.69,21.56l-101.71,206.09c-6.58,13.33-19.28,22.56-33.99,24.69,0,0-203.83,29.62-227.43,33.05-30.48,4.43-44,44-21.44,65.98l164.57,160.42c10.64,10.37,15.49,25.31,12.98,39.95,0,0-38.77,226.03-38.85,226.51-5.31,30.96,28.36,55.38,56.13,40.78,0,0,202.54-106.48,203.42-106.94,6.22-3.27,13.62-4.91,21.01-4.91Z"/>
  <path d="M551.77,295.15c-7.44,0-14.5-4.4-17.55-11.7l-65.34-156.83c-4.04-9.69.54-20.81,10.23-24.85,9.68-4.04,20.81.54,24.85,10.23l65.34,156.83c4.04,9.69-.54,20.81-10.23,24.85-2.39,1-4.86,1.47-7.3,1.47Z"/>
</svg>