<?xml version="1.0" encoding="UTF-8"?>
<svg id="Layer_1" xmlns="http://www.w3.org/2000/svg" version="1.1" viewBox="0 0 2992.58 2988.7">
  <!-- Generator: Adobe Illustrator 30.3.0, SVG Export Plug-In . SVG Version: 2.1.3 Build 182)  -->
  <path d="M2816.31,100c45.31,0,82.18,36.87,82.18,82.18v1999.84c0,45.32-36.87,82.18-82.18,82.18H182.18c-45.32,0-82.18-36.87-82.18-82.18V182.18c0-45.31,36.87-82.18,82.18-82.18h2634.13M2816.31,0H182.18C81.57,0,0,81.57,0,182.18v1999.84c0,100.62,81.56,182.18,182.18,182.18h2634.13c100.62,0,182.18-81.57,182.18-182.18V182.18c0-100.62-81.57-182.18-182.18-182.18h0Z"/>
  <path d="M2472.2,2729.93v164.36H534.25v-164.36h1937.95M2478.68,2629.93H527.77c-51.65,0-93.52,41.87-93.52,93.52v177.33c0,51.65,41.87,93.52,93.52,93.52h1950.91c51.65,0,93.52-41.87,93.52-93.52v-177.33c0-51.65-41.87-93.52-93.52-93.52h0Z"/>
  <line x1="669.21" y1="2336.3" x2="586.64" y2="2678.57" fill="none" stroke="#000" stroke-linecap="round" stroke-linejoin="round" stroke-width="100"/>
  <line x1="2304.1" y1="2340.53" x2="2392.09" y2="2678.57" fill="none" stroke="#000" stroke-linecap="round" stroke-linejoin="round" stroke-width="100"/>
</svg>