<?xml version="1.0" encoding="UTF-8"?>
<svg id="Layer_1" xmlns="http://www.w3.org/2000/svg" version="1.1" viewBox="0 0 1803.52 3000.2">
  <!-- Generator: Adobe Illustrator 30.3.0, SVG Export Plug-In . SVG Version: 2.1.3 Build 182)  -->
  <path d="M1199.22,519.83c111.89-19.4,247.44-54.93,333.19-125.09,39.48-32.3,65.62-75.48,39.22-121.44-38.12-66.35-136.2-106.22-210.04-129.47-90.35-28.46-181.9-43.85-276.61-52.48-173.8-15.84-347.01-9.02-518.34,24.06-93.05,17.96-206.62,49.62-280.77,105.63-42.53,32.12-75.31,79.28-48.06,127.73,34.44,61.22,126.64,103.58,194.65,126.49,99.69,33.58,201.57,52.13,307.03,61.39,153.96,13.52,306.1,9.81,459.73-16.82ZM1581.83,540.26l.58-93.86c-86.49,71.31-205.66,110.27-314.55,133.03-131.69,27.53-263.09,37.88-397.94,35.77-133.01-2.08-262.34-17.25-390.56-51.04-87.74-23.13-180.75-59.63-252.41-117.69-.16,32.97-1.11,63.65.57,95.26,1.66,31.23,22.42,55.55,43.51,76.58,65.8,60.06,178.23,100.45,266.04,120.78,247.71,57.34,505.44,55.52,752.4-4.78,55.34-13.51,107.02-32.3,157.43-56.77,51.65-25.07,134.58-80.4,134.93-137.28ZM1384.71,1623.91l-15.93-304.23-24.03-477.2-2.43-48.21-86.5,21.3c-129.25,27.08-259.47,38.57-391.57,35.61-133.33-3.12-267.38-19.67-396.84-56.37l-44.36,853.42c6.8,40.68,29.6,71.8,61.11,96.89,95.89,76.34,241.96,102.51,363.9,108.61,93.09,4.66,184.25-2.58,275.52-21.73,79.05-16.58,178.57-53.32,230.38-113.7,23.5-27.39,32.67-57.26,30.73-94.39ZM1699.07,1929.27c-18.76-40.52-45.15-74.34-74.37-108.46-50.67-55.17-107.26-101.9-173.45-143.01-21.59,91.04-98.53,145.36-180.15,181.86-150.86,64.78-339.46,76.29-501.89,59.57-81.1-8.35-157.97-27.69-232.49-59.78-80.24-39.46-157.22-91.09-178.59-182.12-108.74,67.48-224.58,176.28-266.98,297.09-29.79,84.89,13.49,153.37,80.94,205.31,102.5,78.93,257.02,130.34,384.89,155.64,159,31.46,319.91,39.54,481.44,27.74,179.23-13.1,376.41-50.34,531.83-141.61,118.15-69.38,192.46-154.78,128.81-292.22ZM974.21,2983.35l-.12-545.24-145.74.09.09,545.83-69.74.34-.66-550.36c-163.43-11.46-323.91-43.55-473.97-107.91-59.31-26.85-114.72-57.45-165.39-98.15-128.94-103.58-137.16-237.05-48.1-373.15,70.31-106.92,173.14-197.25,285.53-257.13l12.63-265.06,29.43-561.33c-79.21-30.43-157.73-72.03-209.45-138.47-17.45-27.07-32.51-55.36-32.52-88.68l-.09-232.1c-.06-161.15,245.99-237.01,382.34-264.11C723.69,11.09,912.51,2.48,1100.51,20.79c153.45,14.95,381.37,58.8,493.5,165.26,29.43,27.94,57.52,65.31,57.6,107.78l.49,257.81c.07,34.63-21.05,63.48-38.76,90.6l-47.09,45.03c-46.3,36.54-98.95,61.92-154.29,82.94l41.07,826.99c70.62,37.33,135.63,85.41,193.34,141.97,48.69,47.72,89.38,99.59,118.08,161.35,20.34,43.8,29.3,89.08,27.29,137.47-4.76,114.27-89.98,187.05-182.33,243.51-77.12,44.64-157.81,77.27-244.37,100.29-105.2,27.98-210.7,44.82-320.93,52.54l.71,550.04-70.62-1.02Z" stroke="#000" stroke-miterlimit="10" stroke-width="23"/>
  <path d="M901.28,3000.2" stroke="#000" stroke-miterlimit="10" stroke-width="23"/>
</svg>