<?xml version="1.0" encoding="UTF-8"?>
<svg id="_Слой_1" data-name="Слой_1" xmlns="http://www.w3.org/2000/svg" version="1.1" viewBox="0 0 495.71 284.51">
  <!-- Generator: Adobe Illustrator 30.3.0, SVG Export Plug-In . SVG Version: 2.1.3 Build 182)  -->
  <path d="M248.03,281.51H9.79c-4.84-.25-6.25-1.73-6.34-6.71-.09-5.41-.17-10.82-.24-16.23,0-3.24.59-4.05,3.74-4.83.7-.17,1.4-.28,2.11-.44,3.06-.71,4.45-2.95,5-5.76.46-2.28-1.55-5.03-4.23-6.32l-.48-.24q-5.9-2.46-5.88-8.61c0-3.97-.06-7.98,0-11.91,0-4.17.24-4.35,4.32-5.41,3.89-1.03,6.41-3.5,6.46-6.33s-2.28-5.38-6.1-6.75q-4.56-1.63-4.71-6.41v-2.17c0-6.34,0-6.28,6.02-8.22,14.24-4.63,22.56-14.67,25.41-28.97,3.34-16.83-2.55-30.49-16.32-40.56-2.96-2.17-6.74-3.33-10.26-4.63-4.42-1.64-4.71-1.82-4.88-6.47-.1-2.88-.4-5.76-.42-8.64,0-3.99.8-4.97,4.64-6.08.71-.11,1.41-.3,2.09-.55,2.51-1.36,4.56-3.42,4.42-6.3s-2.14-4.87-4.83-5.96q-5.87-2.37-5.87-8.39v-13.53c0-4.51.46-5.23,4.76-6.44,3.89-1.14,5.93-3.31,6.06-6.55.13-2.95-2.7-6.37-6.12-7.41q-4.56-1.37-4.63-5.7c-.07-6.14-.11-12.28-.07-18.41,0-5.87,1.82-7.57,7.89-7.58h31.92l440.21.06c1.26-.08,2.52-.08,3.78,0,3.36.43,5.24,2.28,5.3,5.7.13,7.04,0,14.08,0,21.12,0,2.82-1.21,4.21-4.01,4.78-1.74.32-3.35,1.15-4.63,2.37-4.06,4.26-2.14,10.17,3.58,11.58,4.48,1.14,4.96,1.61,5.02,6.16.07,5.24.07,10.47,0,15.71-.07,4.32-.62,4.94-4.56,6.02-4.17,1.14-6.41,3.6-6.24,6.92s2.74,5.97,6.59,6.84,4.18,1.14,4.29,4.75c.08,3.25.08,6.5,0,9.75-.13,3.77-.85,4.69-4.38,5.79-15.82,5.02-24.45,16.46-26.79,32.21-2.28,15.39,3.07,28.5,15.88,37.85,3.3,2.17,6.89,3.87,10.67,5.04,4.1,1.47,4.56,1.62,4.65,5.92.05.72.05,1.44,0,2.17-.23,2.12.08,4.62-.96,6.21-.87,1.33-3.32,1.68-5.12,2.28-2.41.89-4.89,3.75-4.66,6.05.25,2.59,1.27,4.94,3.91,6.03,1,.4,2.05.64,3.12.73,2.35.23,3.65,1.4,3.66,3.81,0,5.77.06,11.55,0,17.33,0,2.56-1.47,3.69-4.05,4.12-4.45.74-6.6,3.03-6.68,6.45s2.39,6.42,6.84,7.03c3.03.43,4,1.94,4,4.65,0,5.78.07,11.56-.08,17.33-.09,3.65-1.71,5.23-5.22,5.62-.9.05-1.81.05-2.71,0h-236.65v.15ZM12.07,101.89c20.86,8.46,32.57,24,32.82,46.01.25,22.01-11.08,37.62-32.31,45.95,6.55,3.13,8.49,5.11,9.84,9.6,2.28,7.55-.11,13.44-7.41,18.41-3.66,2.5-3.81,9.38,0,11.65,12.11,7.46,9.37,22.27-.08,26.99-1.07.51-1.86,1.45-2.2,2.59-.25,2.95,0,5.95,0,8.89h470.55v-10.37c-.91-.37-1.8-.79-2.67-1.25-10.4-6.36-10.48-20.44,0-26.65,2.14-1.28,3.03-2.53,3.09-5,.07-3.26-.57-5.4-3.64-7.49-10.36-7.06-9.66-19.57,1.14-26.07l2.22-1.37c-21.66-7.68-32.17-29.13-31.55-46,.2-9.97,3.28-19.66,8.87-27.92,5.46-8.34,13.57-14.6,23.03-17.76.48-2.58-.4-3.82-2.7-5.13-8.5-4.83-10.85-14.82-5.33-22.8,1.84-2.68,4.86-4.56,7.98-7.36,0-1.14-.13-3.34,0-5.48.21-2.61-.49-4.3-3.08-5.55-3.44-1.74-5.97-4.88-6.94-8.61-2.35-7.64.18-14.82,6.84-19.38,1.28-.88,3.07-1.2,3.02-3.35-.07-3.92,0-7.85,0-12.03H12.66c0,2.88.19,5.4,0,7.89-.35,3.85.72,6.39,4.07,8.98,9.3,7.16,8.8,20.02-.91,25.94-2.88,1.77-3.58,3.57-3.42,6.43.07,1.26.07,2.53,0,3.8-.24,1.63.72,3.2,2.28,3.73,3.46,1.68,6.14,4.63,7.49,8.23,2.95,7.38,0,15.35-7.28,19.38-2.12,1.15-3.75,2.13-2.8,5.11Z" stroke="#000" stroke-miterlimit="10" stroke-width="6"/>
  <path d="M264.81,79.74h30.61c2.62,0,5.7-.71,7.01,2.61,1.35,3.5-1.95,4.66-3.81,6.34-7.87,7.12-15.84,14.14-23.94,21.29,2.67,10.35,5.31,20.6,7.98,30.85.22.88.85,1.77.73,2.56-.18,1.31-.49,3.02-1.39,3.7-1.18.65-2.6.73-3.85.22-3.04-1.57-6-3.29-8.87-5.16-7.01-4.39-13.99-8.83-21.18-13.38l-21.49,13.53c-2.6,1.63-5.19,3.27-7.79,4.89-1.44.89-2.88,1.55-4.43.18-1.48-1.14-2.04-3.11-1.38-4.86.97-3.09,1.94-6.18,2.79-9.29,2.11-7.63,4.15-15.26,6.28-23.11-8.57-7.59-17.01-15.15-25.58-22.55-1.81-1.56-3.16-3.03-2.21-5.47s2.99-2.28,5-2.28c9.37,0,18.75,0,28.12-.09,4.56,0,4.47-.09,6.11-4.32,3.56-9.22,7.22-18.42,10.81-27.64.76-1.98,1.79-3.58,4.18-3.55s3.18,1.85,3.92,3.8c3.42,9.12,6.94,18.15,10.44,27.2.56,1.3,1.13,2.6,1.93,4.53ZM286.58,87.64c-8.12,0-15.1.08-22.1,0-5.89-.09-6.42-.67-8.47-6.3-2.35-6.38-4.86-12.7-7.64-19.94-3.04,7.8-5.8,14.56-8.3,21.42-1.3,3.53-3.36,5.1-7.26,4.96-7.35-.25-14.73-.07-22.09-.07l-.82,1.14c.72.18,1.4.46,2.03.84,5.61,4.79,11.15,9.68,16.78,14.45,2.12,1.8,2.99,3.57,2.13,6.54-2.07,7.18-3.69,14.5-5.7,22.38l2.79-1.74c5.48-3.42,11.02-6.84,16.44-10.41,2.58-1.69,4.9-1.82,7.46-.06,2.07,1.42,4.29,2.64,6.44,3.97,4.46,2.72,8.9,5.47,13.68,8.4-2.05-7.35-3.83-14.14-5.86-20.85-1.26-3.29-.17-7.03,2.67-9.12,4.41-3.72,8.7-7.58,13.04-11.4l4.79-4.22Z" stroke="#000" stroke-miterlimit="10" stroke-width="6"/>
  <path d="M73.93,142.26V39.12c-.06-1.46,0-2.91.17-4.36.17-1.87,1.8-3.36,3.88-3.53,2.36-.27,3.76,1.11,4.39,2.91.4,1.4.57,2.85.5,4.3v207.73c.08,1.29,0,2.59-.23,3.86-.33,1.84-2.06,3.22-4.14,3.29-2.26-.03-4.15-1.54-4.45-3.55-.14-1.13-.17-2.26-.1-3.39v-104.11h-.02Z" stroke="#000" stroke-miterlimit="10" stroke-width="6"/>
  <path d="M422.91,142.27v102.56c.07,1.62-.01,3.24-.24,4.84-.42,1.97-2.26,3.45-4.49,3.59-2.22-.25-3.92-1.88-4.08-3.88-.09-1.13-.11-2.27-.06-3.4V38.92c-.1-1.45-.02-2.91.24-4.34.34-1.84,2.07-3.21,4.14-3.3,2.25.07,4.13,1.58,4.45,3.58.14,1.13.17,2.26.09,3.39,0,34.68,0,69.35,0,104.02h-.05Z" stroke="#000" stroke-miterlimit="10" stroke-width="6"/>
  <path d="M248.62,173.9h106.56c1.63,0,3.26-.09,4.87.07,2.22-.02,4.04,1.76,4.06,3.99,0,.06,0,.12,0,.17.19,2.09-1.27,3.96-3.34,4.3-1.41.28-2.85.39-4.29.33h-103.86l-111.44-.06c-1.44.06-2.88.03-4.32-.09-2.26-.1-4.06-1.92-4.15-4.18-.07-2.28,1.69-4.16,4.47-4.45,1.61-.16,3.25-.08,4.87-.08h106.57Z" stroke="#000" stroke-miterlimit="10" stroke-width="6"/>
  <path d="M248.73,216.17h107.22c1.44,0,2.9-.06,4.33.08,2.34.23,3.42,1.81,3.73,3.98.35,2.08-1.04,4.05-3.11,4.42-1.23.26-2.49.36-3.75.3-47.66,0-95.31.02-142.96.06-24.55,0-49.1-.06-73.64-.17-1.45.03-2.89-.06-4.32-.27-2.18-.38-3.6-1.6-3.59-4.01-.03-2.28,1.73-4.17,4-4.31,1.62-.13,3.24-.16,4.87-.09h107.22v.02Z" stroke="#000" stroke-miterlimit="10" stroke-width="6"/>
</svg>