<?xml version="1.0" encoding="UTF-8"?>
<svg id="Layer_1" xmlns="http://www.w3.org/2000/svg" version="1.1" viewBox="0 0 1994.09 2954">
  <!-- Generator: Adobe Illustrator 30.3.0, SVG Export Plug-In . SVG Version: 2.1.3 Build 182)  -->
  <path d="M321.27,667.97c.1-82.92,19.46-175.1,50.68-250.49C466.2,189.92,678.82,30.78,923.63,4c165.73-18.13,330.65,25.86,465.89,123.32,169.1,121.84,276.64,316.21,280.31,526.42l1.21,588.89c46.02-1.8,90.26-.6,132.89,14.52,109.9,38.97,185.19,137.56,190.14,254.82l-.67,1174.25c-.07,131.75-123.4,259.35-262,267.72l-1444.84.07c-57.35,0-107.86-13.14-155.82-44.97C56.94,2860.03.91,2777.77.84,2685.5l-.84-1178.72c9.29-138.94,118.17-251.23,256.54-263.87l1216.37-.72-1.05-579.11c-4.1-187.29-123.07-348.8-294.1-419-177.64-72.11-381.04-31.24-519.71,101.63-84.91,85.44-139.78,200.15-139.99,322.8M1728.31,2763.77c43.16-9.1,82.35-43.96,82.38-89.41l.68-1147.7c.03-47.82-35.65-100.32-87.72-100.33l-1449.12-.35c-46.22-.01-90.06,41.82-90.08,88.84l-.5,1162.73c5.73,43.08,40.89,85.73,87.59,85.75l1456.77.46Z"/>
  <path d="M1097.6,2495.89l-193.37,1.67c-41.65.36-80.9-37.31-73.86-80.34l50.63-309.78c-75.14-42.38-121.53-121.63-118.23-208.38,2.43-63.92,31.31-124.09,79.24-165.41,90.02-77.61,223.47-76.8,311.96,2.51,56.5,50.63,84.85,125.12,74.55,202.1-9.14,68.33-51.68,133.4-116.81,169.35l49.76,296.02c7.06,42-13.76,89.15-63.87,92.27Z"/>
</svg>