<?xml version="1.0" encoding="UTF-8"?>
<svg xmlns="http://www.w3.org/2000/svg" version="1.1" viewBox="0 0 2980.37 2994.15">
  <!-- Generator: Adobe Illustrator 30.3.0, SVG Export Plug-In . SVG Version: 2.1.3 Build 182)  -->
  <g id="Layer_1">
    <g id="Layer_3">
      <g>
        <g>
          <path d="M2169.05,2648.45l-1628.58,257.1c-61.53,9.71-119.49-32.44-129.2-93.97L39.89,459.16c-9.71-61.53,32.44-119.49,93.97-129.2L1762.46,72.86c61.53-9.71,119.49,32.44,129.2,93.97l371.36,2352.4c9.71,61.53-32.44,119.49-93.97,129.2h0v.02ZM140.54,372.18c-38.24,6.04-64.46,42.06-58.42,80.32l371.36,2352.4c6.04,38.24,42.06,64.46,80.32,58.42l1628.58-257.1c38.24-6.04,64.46-42.08,58.42-80.32L1849.44,173.51c-6.04-38.24-42.06-64.46-80.3-58.42L140.54,372.18Z" stroke="#000" stroke-miterlimit="10" stroke-width="40"/>
          <path d="M2035.71,2391.3l-361.91,57.13c-11.65,1.84-22.6-6.12-24.44-17.78-1.84-11.65,6.12-22.6,17.78-24.44l361.91-57.13c11.65-1.84,22.6,6.12,24.44,17.78s-6.12,22.6-17.78,24.44Z" stroke="#000" stroke-miterlimit="10" stroke-width="40"/>
          <path d="M1492.86,2477l-904.78,142.83c-11.65,1.84-22.6-6.12-24.44-17.78s6.12-22.6,17.78-24.44l904.78-142.83c11.65-1.84,22.6,6.12,24.44,17.78,1.84,11.65-6.12,22.6-17.78,24.44h0Z" stroke="#000" stroke-miterlimit="10" stroke-width="40"/>
          <path d="M1992.87,2119.86l-814.29,128.54c-11.65,1.84-22.6-6.12-24.44-17.78-1.84-11.65,6.12-22.6,17.78-24.44l814.29-128.54c11.65-1.84,22.6,6.12,24.44,17.78,1.84,11.65-6.12,22.6-17.78,24.44h0Z" stroke="#000" stroke-miterlimit="10" stroke-width="40"/>
          <path d="M997.62,2276.98l-452.38,71.41c-11.65,1.84-22.6-6.12-24.44-17.78-1.84-11.65,6.12-22.6,17.78-24.44l452.38-71.41c11.65-1.84,22.6,6.12,24.44,17.78s-6.12,22.6-17.78,24.44Z" stroke="#000" stroke-miterlimit="10" stroke-width="40"/>
        </g>
        <path d="M1958.38,1901.39l-361.91,57.13c-11.65,1.84-22.6-6.12-24.44-17.78-1.84-11.65,6.12-22.6,17.78-24.44l361.91-57.13c11.65-1.84,22.6,6.12,24.44,17.78,1.84,11.65-6.12,22.6-17.78,24.44Z" stroke="#000" stroke-miterlimit="10" stroke-width="40"/>
        <path d="M1415.51,1987.09l-904.78,142.83c-11.65,1.84-22.6-6.12-24.44-17.78-1.84-11.65,6.12-22.6,17.78-24.44l904.78-142.83c11.65-1.84,22.6,6.12,24.44,17.78s-6.12,22.6-17.78,24.44h0Z" stroke="#000" stroke-miterlimit="10" stroke-width="40"/>
        <path d="M1915.52,1629.96l-814.29,128.54c-11.65,1.84-22.6-6.12-24.44-17.78-1.84-11.65,6.12-22.6,17.78-24.44l814.29-128.54c11.65-1.84,22.6,6.12,24.44,17.78s-6.12,22.6-17.78,24.44Z" stroke="#000" stroke-miterlimit="10" stroke-width="40"/>
        <path d="M920.28,1787.07l-452.38,71.41c-11.65,1.84-22.6-6.12-24.44-17.78-1.84-11.65,6.12-22.6,17.78-24.44l452.38-71.41c11.65-1.84,22.6,6.12,24.44,17.78s-6.12,22.6-17.78,24.44h0Z" stroke="#000" stroke-miterlimit="10" stroke-width="40"/>
        <path d="M1874.46,1369.77l-361.91,57.13c-11.65,1.84-22.6-6.12-24.44-17.78-1.84-11.65,6.12-22.6,17.78-24.44l361.91-57.13c11.65-1.84,22.6,6.12,24.44,17.78,1.84,11.65-6.12,22.6-17.78,24.44h0Z" stroke="#000" stroke-miterlimit="10" stroke-width="40"/>
        <path d="M1331.59,1455.47l-904.78,142.83c-11.65,1.84-22.6-6.12-24.44-17.78-1.84-11.65,6.12-22.6,17.78-24.44l904.78-142.83c11.65-1.84,22.6,6.12,24.44,17.78s-6.12,22.6-17.78,24.44h0Z" stroke="#000" stroke-miterlimit="10" stroke-width="40"/>
        <path d="M1831.6,1098.33l-814.29,128.54c-11.65,1.84-22.6-6.12-24.44-17.78-1.84-11.65,6.12-22.6,17.78-24.44l814.29-128.54c11.65-1.84,22.6,6.12,24.44,17.78,1.84,11.65-6.12,22.6-17.78,24.44h0Z" stroke="#000" stroke-miterlimit="10" stroke-width="40"/>
        <path d="M836.35,1255.44l-452.38,71.41c-11.65,1.84-22.6-6.12-24.44-17.78-1.84-11.65,6.12-22.6,17.78-24.44l452.38-71.41c11.65-1.84,22.6,6.12,24.44,17.78,1.84,11.65-6.12,22.6-17.78,24.44h0Z" stroke="#000" stroke-miterlimit="10" stroke-width="40"/>
        <path d="M1790.87,849.82l-361.91,57.13c-11.65,1.84-22.6-6.12-24.44-17.78s6.12-22.6,17.78-24.44l361.91-57.13c11.65-1.84,22.6,6.12,24.44,17.78,1.84,11.65-6.12,22.6-17.78,24.44Z" stroke="#000" stroke-miterlimit="10" stroke-width="40"/>
        <path d="M1248.01,935.52l-904.78,142.83c-11.65,1.84-22.6-6.12-24.44-17.78-1.84-11.65,6.12-22.6,17.78-24.44l904.78-142.83c11.65-1.84,22.6,6.12,24.44,17.78s-6.12,22.6-17.78,24.44h0Z" stroke="#000" stroke-miterlimit="10" stroke-width="40"/>
        <path d="M1748.01,578.38l-814.29,128.54c-11.65,1.84-22.6-6.12-24.44-17.78s6.12-22.6,17.78-24.44l814.29-128.54c11.65-1.84,22.6,6.12,24.44,17.78s-6.12,22.6-17.78,24.44Z" stroke="#000" stroke-miterlimit="10" stroke-width="40"/>
        <path d="M752.77,735.51l-452.38,71.41c-11.65,1.84-22.6-6.12-24.44-17.78s6.12-22.6,17.78-24.44l452.38-71.41c11.65-1.84,22.6,6.12,24.44,17.78,1.84,11.65-6.12,22.6-17.78,24.44h0Z" stroke="#000" stroke-miterlimit="10" stroke-width="40"/>
        <path d="M1710.26,329.67l-361.91,57.13c-11.65,1.84-22.6-6.12-24.44-17.78-1.84-11.65,6.12-22.6,17.78-24.44l361.91-57.13c11.65-1.84,22.6,6.12,24.44,17.78,1.84,11.65-6.12,22.6-17.78,24.44Z" stroke="#000" stroke-miterlimit="10" stroke-width="40"/>
        <path d="M1167.4,415.37l-904.78,142.83c-11.65,1.84-22.6-6.12-24.44-17.78-1.84-11.65,6.12-22.6,17.78-24.44l904.78-142.83c11.65-1.84,22.6,6.12,24.44,17.78,1.84,11.65-6.12,22.6-17.78,24.44h0Z" stroke="#000" stroke-miterlimit="10" stroke-width="40"/>
      </g>
    </g>
    <g id="Layer_2">
      <path d="M2590.81,2964.15H735.49c-70.11,0-127.14-57.03-127.14-127.12V157.12c0-70.1,57.03-127.12,127.14-127.12h1855.33c70.1,0,127.12,57.03,127.12,127.12v2679.91c0,70.1-57.03,127.12-127.12,127.12h-.02.01ZM735.49,78.09c-43.57,0-79.03,35.44-79.03,79.03v2679.91c0,43.57,35.44,79.03,79.03,79.03h1855.33c43.57,0,79.01-35.46,79.01-79.03V157.12c0-43.57-35.44-79.03-79.01-79.03H735.49Z" display="none" fill="#fff" stroke="#fff" stroke-miterlimit="10" stroke-width="60"/>
      <rect x="886.67" y="78.09" width="2013.37" height="2886.06" fill="#fff" stroke="#fff" stroke-miterlimit="10" stroke-width="40"/>
    </g>
    <g id="Layer_11">
      <path d="M2823.23,2964.15H967.92c-70.11,0-127.14-57.03-127.14-127.12V157.12c0-70.1,57.03-127.12,127.14-127.12h1855.33c70.1,0,127.12,57.03,127.12,127.12v2679.91c0,70.1-57.03,127.12-127.12,127.12h-.02ZM967.92,78.09c-43.57,0-79.03,35.44-79.03,79.03v2679.91c0,43.57,35.44,79.03,79.03,79.03h1855.33c43.57,0,79.01-35.46,79.01-79.03V157.12c0-43.57-35.44-79.03-79.01-79.03H967.92Z" stroke="#000" stroke-miterlimit="10" stroke-width="40"/>
      <path d="M2720.16,2654.94h-412.3c-13.29,0-24.05-10.77-24.05-24.06s10.77-24.06,24.05-24.06h412.3c13.29,0,24.06,10.77,24.06,24.06s-10.77,24.06-24.06,24.06Z" stroke="#000" stroke-miterlimit="10" stroke-width="40"/>
      <path d="M2101.72,2654.94h-1030.73c-13.29,0-24.05-10.77-24.05-24.06s10.77-24.06,24.05-24.06h1030.73c13.29,0,24.05,10.77,24.05,24.06s-10.77,24.06-24.05,24.06Z" stroke="#000" stroke-miterlimit="10" stroke-width="40"/>
      <path d="M2720.16,2345.7h-927.66c-13.29,0-24.05-10.77-24.05-24.06s10.77-24.06,24.05-24.06h927.66c13.29,0,24.06,10.77,24.06,24.06s-10.77,24.06-24.06,24.06Z" stroke="#000" stroke-miterlimit="10" stroke-width="40"/>
      <path d="M1586.35,2345.7h-515.37c-13.29,0-24.05-10.77-24.05-24.06s10.77-24.06,24.05-24.06h515.37c13.29,0,24.05,10.77,24.05,24.06s-10.77,24.06-24.05,24.06Z" stroke="#000" stroke-miterlimit="10" stroke-width="40"/>
      <path d="M1270.85,642.29c277.11,55.75,470.36-5.83,721.87-107.98,23.1-9.38,54.98-6.95,74.02,6.96,17.65,12.9,27.02,39.98,28.19,66.82,9.77,222.29,10.92,438.74-14.08,659.67,223.86-26.91,349.37,210.98,283.36,224.58-16.63,3.42-27.9-7.81-34.02-25.38-36.95-106.05-149.01-164.73-258.56-146.1-19.76,127.18-45.85,249.02-105.43,367.42,155.05,88.43,342.39,23.91,479.81-97.64,214.6-189.78,317.91-532.86,386.48-813.04l43.87-179.27c1.46-5.98,1.17-18.26-.76-22.85-2.58-6.12-21.07-10.92-28.56-10.2-398.35,38.2-643.72-28.08-957.47-272-6.83-5.31-31.54-8.04-33.91-.13l-66.29,220.43c-2.81,9.35-25.96,17.54-34.1,13.33-8.14-4.21-16.34-25.7-13.71-34.54l59.29-199.14c6.18-20.76,24.21-44.73,40.39-50.92,24.15-9.23,54.35-6.42,74.74,8.24,196.8,141.53,361.44,243.55,609.63,266.51,105.6,9.77,207.05,7.61,313.92-1.95,26.16-2.34,53.85,5.25,68.92,20.6,20.83,21.23,23.45,49.93,16.38,79.81-62.15,262.86-127.53,541.42-256.64,777.12-67.08,122.47-157.3,228.67-275.23,303.94-135.99,86.79-309.47,118.64-450.6,38.99-40.23,60.41-77.8,115.74-129.14,161.56-192.08,171.47-412.57,167.36-600.42-4.34-108.94-99.58-179.11-224.61-221.5-367.05-81.48-273.8-94.66-601.27-102.38-893.67-.5-19.13,10.9-46.06,21.69-56.2,12.81-12.04,48.43-21.81,67.35-15.91,99.53,31.05,191.72,61.96,292.9,82.32h0ZM1286.87,1886.09c183.9,140.44,374.87,100.11,524.36-62.44,173.61-188.77,208.99-455.4,230.97-706.93,8.27-173.6,5.45-341.05,1.59-515.12l-15.01-20.61c-3.19-4.37-17.68,1.77-23.69,4.16-254.04,100.68-433.27,161.39-719.41,114-107.41-20.93-208.03-50.16-310.51-88.05l-22.27.31c-4.95.07-9.43,13.91-11.77,20.94l24.68,463.45c31.04,286.3,81.24,607.13,321.05,790.27h0v.02h.01Z" stroke="#000" stroke-miterlimit="10" stroke-width="40"/>
      <path d="M2475.26,978.09c75.06,27.19,105.37-42.39,144.94-28.12,40.92,14.76-45.12,105.63-142.67,81.71-98.74-24.2-138.89-121.41-102.75-138.63,37.19-17.72,34.66,61.2,100.47,85.04h.01Z" stroke="#000" stroke-miterlimit="10" stroke-width="40"/>
      <path d="M1529.89,1692.43c-183.13,10.15-291.26-146.88-237.43-161.72,9.75-2.69,30.03,5.54,36.09,15.16,43.11,68.4,115.86,96.22,192.22,94.18,74.45-4.07,145.19-42.09,182.47-116.1l30.66-5.19c8.77-1.48,17.23,25.65,12.1,35.6-41.2,79.78-130.56,133.34-216.12,138.08h.01Z" stroke="#000" stroke-miterlimit="10" stroke-width="40"/>
      <path d="M1399.17,1179.45c-34.36,35.68-47.69-63.25-132.34-65.38-95.68-2.41-88.85,81.93-132.34,75.13-12.62-1.97-22.33-25.78-15.29-39.2,28.87-55.05,79.11-84.38,133.74-87.6,104.77-6.16,174.74,87.46,146.24,117.06h-.01Z" stroke="#000" stroke-miterlimit="10" stroke-width="40"/>
      <path d="M1885.17,1162.23c-36.56,30.42-45.9-69.86-137.61-65.32-87.45,4.33-89.07,95.54-127.82,76.53-39.32-19.29,18.1-122.15,126.18-128.84,97.58-6.03,172.98,89.55,139.25,117.62h0Z" stroke="#000" stroke-miterlimit="10" stroke-width="40"/>
    </g>
  </g>
  <g id="Layer_31" data-name="Layer_3">
    <ellipse cx="823.59" cy="2574.71" rx="218.82" ry="305.74" fill="#fff"/>
  </g>
  <g id="Layer_21" data-name="Layer_2">
    <path d="M840.78,2163.02c-216.25,0-391.52,175.27-391.52,391.52s175.27,391.52,391.52,391.52,391.52-175.27,391.52-391.52-175.27-391.52-391.52-391.52ZM1039.73,2543.41c-5.09,11.63-16.62,19.18-29.35,19.18h-105.44v233.66h-128.33v-233.66h-105.44c-12.72,0-24.15-7.53-29.35-19.18-5.09-11.63-2.84-25.14,5.67-34.52l169.6-185.54c6.06-6.66,14.66-10.46,23.67-10.46s17.61,3.82,23.67,10.46l169.6,185.54c8.6,9.38,10.76,22.89,5.67,34.52h.03Z"/>
  </g>
</svg>