<?xml version="1.0" encoding="UTF-8"?>
<svg id="Layer_1" xmlns="http://www.w3.org/2000/svg" version="1.1" viewBox="0 0 2992.58 2988.7">
  <!-- Generator: Adobe Illustrator 30.3.0, SVG Export Plug-In . SVG Version: 2.1.3 Build 182)  -->
  <g id="Layer_21">
    <path d="M1496.29,0C670.91,0,1.94,668.97,1.94,1494.35s668.97,1494.35,1494.35,1494.35,1494.35-668.97,1494.35-1494.35S2321.67,0,1496.29,0ZM2255.64,1451.87c-19.43,44.39-63.44,73.21-112.02,73.21h-402.44v891.83h-489.81v-891.83h-402.44c-48.55,0-92.18-28.74-112.02-73.21-19.43-44.39-10.84-95.95,21.64-131.76l647.33-708.17c23.13-25.42,55.95-39.92,90.34-39.92s67.21,14.58,90.34,39.92l647.33,708.17c32.82,35.8,41.07,87.37,21.64,131.76h.11Z"/>
  </g>
</svg>