<?xml version="1.0" encoding="UTF-8"?>
<svg id="Layer_1" xmlns="http://www.w3.org/2000/svg" version="1.1" viewBox="0 0 2282.32 2994.81">
  <!-- Generator: Adobe Illustrator 30.3.0, SVG Export Plug-In . SVG Version: 2.1.3 Build 182)  -->
  <g id="Layer_11" data-name="Layer_1">
    <g>
      <g>
        <path d="M2117.9,2953.47l-1833.85,2.84c-69.28.1-125.65-56.46-125.64-126.09l.24-2662.4c0-69.64,56.38-126.38,125.66-126.48l1833.87-2.84c69.28-.1,125.65,56.46,125.64,126.09l-.25,2662.38c-.01,69.64-56.38,126.38-125.66,126.48h0v.02h-.01ZM284.33,89.12c-43.06.07-78.11,35.33-78.12,78.63l-.25,2662.38c0,43.28,35.03,78.45,78.11,78.39l1833.85-2.84c43.06-.07,78.12-35.35,78.12-78.63l.25-2662.36c0-43.28-35.03-78.45-78.09-78.39l-1833.86,2.82h0Z" stroke="#000" stroke-miterlimit="10" stroke-width="40"/>
        <path d="M2016.03,2646.43l-407.53.63c-13.12.02-23.76-10.66-23.77-23.85,0-13.19,10.65-23.9,23.77-23.93l407.53-.63c13.12-.02,23.76,10.66,23.77,23.85,0,13.19-10.65,23.9-23.77,23.93Z" stroke="#000" stroke-miterlimit="10" stroke-width="40"/>
        <path d="M1404.76,2647.38l-1018.82,1.58c-13.12.02-23.76-10.66-23.77-23.85,0-13.19,10.65-23.9,23.77-23.93l1018.82-1.58c13.12-.02,23.76,10.66,23.77,23.85s-10.65,23.9-23.77,23.93Z" stroke="#000" stroke-miterlimit="10" stroke-width="40"/>
        <path d="M2016.07,2339.22l-916.92,1.41c-13.12.02-23.76-10.66-23.77-23.85,0-13.19,10.65-23.9,23.77-23.93l916.92-1.41c13.12-.02,23.76,10.66,23.77,23.85s-10.65,23.9-23.77,23.93h0Z" stroke="#000" stroke-miterlimit="10" stroke-width="40"/>
        <path d="M895.38,2340.96l-509.4.78c-13.12.02-23.76-10.66-23.77-23.85,0-13.19,10.65-23.9,23.77-23.93l509.4-.78c13.12-.02,23.76,10.66,23.77,23.85,0,13.19-10.65,23.9-23.77,23.93Z" stroke="#000" stroke-miterlimit="10" stroke-width="40"/>
      </g>
      <path d="M2016.1,2091.96l-407.53.63c-13.12.02-23.76-10.66-23.77-23.85,0-13.19,10.65-23.9,23.77-23.93l407.53-.63c13.12-.02,23.76,10.66,23.77,23.85,0,13.19-10.65,23.9-23.77,23.93h0Z" stroke="#000" stroke-miterlimit="10" stroke-width="40"/>
      <path d="M1404.81,2092.91l-1018.82,1.58c-13.12.02-23.76-10.66-23.77-23.85,0-13.19,10.65-23.9,23.77-23.93l1018.82-1.58c13.12-.02,23.76,10.66,23.77,23.85,0,13.19-10.65,23.9-23.77,23.93Z" stroke="#000" stroke-miterlimit="10" stroke-width="40"/>
      <path d="M2016.12,1784.77l-916.92,1.41c-13.12.02-23.76-10.66-23.77-23.85s10.65-23.9,23.77-23.93l916.92-1.41c13.12-.02,23.76,10.66,23.77,23.85,0,13.19-10.65,23.9-23.77,23.93h0Z" stroke="#000" stroke-miterlimit="10" stroke-width="40"/>
      <path d="M895.43,1786.5l-509.4.78c-13.12.02-23.76-10.66-23.77-23.85,0-13.19,10.65-23.9,23.77-23.93l509.4-.78c13.12-.02,23.76,10.66,23.77,23.85,0,13.19-10.65,23.9-23.77,23.93h0Z" stroke="#000" stroke-miterlimit="10" stroke-width="40"/>
      <path d="M2016.16,1490.29l-407.53.63c-13.12.02-23.76-10.66-23.77-23.85,0-13.19,10.65-23.9,23.77-23.93l407.53-.63c13.12-.02,23.76,10.66,23.77,23.85s-10.65,23.9-23.77,23.93h0Z" stroke="#000" stroke-miterlimit="10" stroke-width="40"/>
      <path d="M1404.87,1491.24l-1018.82,1.58c-13.12.02-23.76-10.66-23.77-23.85,0-13.19,10.65-23.9,23.77-23.93l1018.82-1.58c13.12-.02,23.76,10.66,23.77,23.85,0,13.19-10.65,23.9-23.77,23.93Z" stroke="#000" stroke-miterlimit="10" stroke-width="40"/>
      <path d="M2016.18,1183.08l-916.92,1.41c-13.12.02-23.76-10.66-23.77-23.85,0-13.19,10.65-23.9,23.77-23.93l916.92-1.41c13.12-.02,23.76,10.66,23.77,23.85,0,13.19-10.65,23.9-23.77,23.93h0Z" stroke="#000" stroke-miterlimit="10" stroke-width="40"/>
      <path d="M895.49,1184.81l-509.4.78c-13.12.02-23.76-10.66-23.77-23.85,0-13.19,10.65-23.9,23.77-23.93l509.4-.78c13.12-.02,23.76,10.66,23.77,23.85,0,13.19-10.65,23.9-23.77,23.93h0Z" stroke="#000" stroke-miterlimit="10" stroke-width="40"/>
      <path d="M2014.56,901.57l-407.53.63c-13.12.02-23.76-10.66-23.77-23.85,0-13.19,10.65-23.9,23.77-23.93l407.53-.63c13.12-.02,23.76,10.66,23.77,23.85,0,13.19-10.65,23.9-23.77,23.93Z" stroke="#000" stroke-miterlimit="10" stroke-width="40"/>
      <path d="M1403.27,902.52l-1018.82,1.58c-13.12.02-23.76-10.66-23.77-23.85,0-13.19,10.65-23.9,23.77-23.93l1018.82-1.58c13.12-.02,23.76,10.66,23.77,23.85,0,13.19-10.65,23.9-23.77,23.93Z" stroke="#000" stroke-miterlimit="10" stroke-width="40"/>
      <path d="M2014.58,594.36l-916.92,1.41c-13.12.02-23.76-10.66-23.77-23.85,0-13.19,10.65-23.9,23.77-23.93l916.92-1.41c13.12-.02,23.76,10.66,23.77,23.85,0,13.19-10.65,23.9-23.77,23.93h0Z" stroke="#000" stroke-miterlimit="10" stroke-width="40"/>
      <path d="M893.89,596.11l-509.4.78c-13.12.02-23.76-10.66-23.77-23.85s10.65-23.9,23.77-23.93l509.4-.78c13.12-.02,23.76,10.66,23.77,23.85,0,13.19-10.65,23.9-23.77,23.93Z" stroke="#000" stroke-miterlimit="10" stroke-width="40"/>
      <path d="M2016.27,313.14l-407.53.63c-13.12.02-23.76-10.66-23.77-23.85,0-13.19,10.65-23.9,23.77-23.93l407.53-.63c13.12-.02,23.76,10.66,23.77,23.85,0,13.19-10.65,23.9-23.77,23.93Z" stroke="#000" stroke-miterlimit="10" stroke-width="40"/>
      <path d="M1404.98,314.09l-1018.82,1.58c-13.12.02-23.76-10.66-23.77-23.85,0-13.19,10.65-23.9,23.77-23.93l1018.82-1.58c13.12-.02,23.76,10.66,23.77,23.85,0,13.19-10.65,23.9-23.77,23.93h0Z" stroke="#000" stroke-miterlimit="10" stroke-width="40"/>
    </g>
  </g>
  <g id="Layer_2">
    <g>
      <circle cx="422.48" cy="2595.05" r="293.75" fill="#fff"/>
      <path d="M391.52,2200.01c-216.25,0-391.52,175.27-391.52,391.52s175.27,391.52,391.52,391.52,391.52-175.27,391.52-391.52-175.27-391.52-391.52-391.52ZM590.47,2580.39c-5.09,11.63-16.62,19.18-29.35,19.18h-105.44v233.66h-128.33v-233.66h-105.44c-12.72,0-24.15-7.53-29.35-19.18-5.09-11.63-2.84-25.14,5.67-34.52l169.6-185.54c6.06-6.66,14.66-10.46,23.67-10.46s17.61,3.82,23.67,10.46l169.6,185.54c8.6,9.38,10.76,22.89,5.67,34.52h.03Z"/>
    </g>
  </g>
</svg>