<?xml version="1.0" encoding="UTF-8"?>
<svg id="Layer_1" xmlns="http://www.w3.org/2000/svg" version="1.1" viewBox="0 0 2357.84 2994.15">
  <!-- Generator: Adobe Illustrator 30.3.0, SVG Export Plug-In . SVG Version: 2.1.3 Build 182)  -->
  <g id="Layer_11" data-name="Layer_1">
    <path d="M2200.7,2964.15H345.39c-70.11,0-127.14-57.03-127.14-127.12V157.12c0-70.1,57.03-127.12,127.14-127.12h1855.33c70.1,0,127.12,57.03,127.12,127.12v2679.91c0,70.1-57.03,127.12-127.12,127.12h-.02ZM345.39,78.09c-43.57,0-79.03,35.44-79.03,79.03v2679.91c0,43.57,35.44,79.03,79.03,79.03h1855.33c43.57,0,79.01-35.46,79.01-79.03V157.12c0-43.57-35.44-79.03-79.01-79.03H345.39Z" stroke="#000" stroke-miterlimit="10" stroke-width="40"/>
    <path d="M2097.63,2654.94h-412.3c-13.29,0-24.05-10.77-24.05-24.06s10.77-24.06,24.05-24.06h412.3c13.29,0,24.06,10.77,24.06,24.06s-10.77,24.06-24.06,24.06h0Z" stroke="#000" stroke-miterlimit="10" stroke-width="60"/>
    <path d="M1479.19,2654.94H448.45c-13.29,0-24.05-10.77-24.05-24.06s10.77-24.06,24.05-24.06h1030.73c13.29,0,24.05,10.77,24.05,24.06s-10.77,24.06-24.05,24.06h.01Z" stroke="#000" stroke-miterlimit="10" stroke-width="60"/>
    <path d="M2097.63,2345.7h-927.66c-13.29,0-24.05-10.77-24.05-24.06s10.77-24.06,24.05-24.06h927.66c13.29,0,24.06,10.77,24.06,24.06s-10.77,24.06-24.06,24.06Z" stroke="#000" stroke-miterlimit="10" stroke-width="60"/>
    <path d="M963.82,2345.7H448.45c-13.29,0-24.05-10.77-24.05-24.06s10.77-24.06,24.05-24.06h515.37c13.29,0,24.05,10.77,24.05,24.06s-10.77,24.06-24.05,24.06Z" stroke="#000" stroke-miterlimit="10" stroke-width="60"/>
    <path d="M648.32,642.29c277.11,55.75,470.36-5.83,721.87-107.98,23.1-9.38,54.98-6.95,74.02,6.96,17.65,12.9,27.02,39.98,28.19,66.82,9.77,222.29,10.92,438.74-14.08,659.67,223.86-26.91,349.37,210.98,283.36,224.58-16.63,3.42-27.9-7.81-34.02-25.38-36.95-106.05-149.01-164.73-258.56-146.1-19.76,127.18-45.85,249.02-105.43,367.42,155.05,88.43,342.39,23.91,479.81-97.64,214.6-189.78,317.91-532.86,386.48-813.04l43.87-179.27c1.46-5.98,1.17-18.26-.76-22.85-2.58-6.12-21.07-10.92-28.56-10.2-398.35,38.2-643.72-28.08-957.47-272-6.83-5.31-31.54-8.04-33.91-.13l-66.29,220.43c-2.81,9.35-25.96,17.54-34.1,13.33-8.14-4.21-16.34-25.7-13.71-34.54l59.29-199.14c6.18-20.76,24.21-44.73,40.39-50.92,24.15-9.23,54.35-6.42,74.74,8.24,196.8,141.53,361.44,243.55,609.63,266.51,105.6,9.77,207.05,7.61,313.92-1.95,26.16-2.34,53.85,5.25,68.92,20.6,20.83,21.23,23.45,49.93,16.38,79.81-62.15,262.86-127.53,541.42-256.64,777.12-67.08,122.47-157.3,228.67-275.23,303.94-135.99,86.79-309.47,118.64-450.6,38.99-40.23,60.41-77.8,115.74-129.14,161.56-192.08,171.47-412.57,167.36-600.42-4.34-108.94-99.58-179.11-224.61-221.5-367.05-81.48-273.8-94.66-601.27-102.38-893.67-.5-19.13,10.9-46.06,21.69-56.2,12.81-12.04,48.43-21.81,67.35-15.91,99.53,31.05,191.72,61.96,292.9,82.32h0ZM664.34,1886.09c183.9,140.44,374.87,100.11,524.36-62.44,173.61-188.77,208.99-455.4,230.97-706.93,8.27-173.6,5.45-341.05,1.59-515.12l-15.01-20.61c-3.19-4.37-17.68,1.77-23.69,4.16-254.04,100.68-433.27,161.39-719.41,114-107.41-20.93-208.03-50.16-310.51-88.05l-22.27.31c-4.95.07-9.43,13.91-11.77,20.94l24.68,463.45c31.04,286.3,81.24,607.13,321.05,790.27h0v.02h.01Z" stroke="#000" stroke-miterlimit="10" stroke-width="40"/>
    <path d="M1852.73,978.09c75.06,27.19,105.37-42.39,144.94-28.12,40.92,14.76-45.12,105.63-142.67,81.71-98.74-24.2-138.89-121.41-102.75-138.63,37.19-17.72,34.66,61.2,100.47,85.04h.01Z" stroke="#000" stroke-miterlimit="10" stroke-width="40"/>
    <path d="M907.36,1692.43c-183.13,10.15-291.26-146.88-237.43-161.72,9.75-2.69,30.03,5.54,36.09,15.16,43.11,68.4,115.86,96.22,192.22,94.18,74.45-4.07,145.19-42.09,182.47-116.1l30.66-5.19c8.77-1.48,17.23,25.65,12.1,35.6-41.2,79.78-130.56,133.34-216.12,138.08h.01Z" stroke="#000" stroke-miterlimit="10" stroke-width="60"/>
    <path d="M776.64,1179.45c-34.36,35.68-47.69-63.25-132.34-65.38-95.68-2.41-88.85,81.93-132.34,75.13-12.62-1.97-22.33-25.78-15.29-39.2,28.87-55.05,79.11-84.38,133.74-87.6,104.77-6.16,174.74,87.46,146.24,117.06h-.01Z" stroke="#000" stroke-miterlimit="10" stroke-width="40"/>
    <path d="M1262.64,1162.23c-36.56,30.42-45.9-69.86-137.61-65.32-87.45,4.33-89.07,95.54-127.82,76.53-39.32-19.29,18.1-122.15,126.18-128.84,97.58-6.03,172.98,89.55,139.25,117.62h0Z" stroke="#000" stroke-miterlimit="10" stroke-width="40"/>
  </g>
  <g id="Layer_2">
    <g>
      <circle cx="422.48" cy="2591.73" r="293.75" fill="#fff"/>
      <path d="M391.52,2196.69c-216.25,0-391.52,175.27-391.52,391.52s175.27,391.52,391.52,391.52,391.52-175.27,391.52-391.52-175.27-391.52-391.52-391.52ZM590.47,2577.08c-5.09,11.63-16.62,19.18-29.35,19.18h-105.44v233.66h-128.33v-233.66h-105.44c-12.72,0-24.15-7.53-29.35-19.18-5.09-11.63-2.84-25.14,5.67-34.52l169.6-185.54c6.06-6.66,14.66-10.46,23.67-10.46s17.61,3.82,23.67,10.46l169.6,185.54c8.6,9.38,10.76,22.89,5.67,34.52h.03Z"/>
    </g>
  </g>
</svg>