<?xml version="1.0" encoding="UTF-8"?>
<svg id="_ÎÓÈ_1" data-name=" ÎÓÈ 1" xmlns="http://www.w3.org/2000/svg" viewBox="0 0 1272.79 1611.08">
  <defs>
    <style>
      .cls-1 {
        fill: #231f20;
      }

      .cls-2 {
        fill: #fff;
      }
    </style>
  </defs>
  <g>
    <rect class="cls-2" x="172.49" y="25.27" width="1087.48" height="1495.31" rx="58.61" ry="58.61"/>
    <g>
      <g>
        <path d="M730.39,440.59c-4.88,0-9.53-2.85-11.6-7.61l-100.24-231.14c-2.49-5.73-7.05-10.16-12.87-12.46-5.81-2.3-12.17-2.2-17.9.28l-405.79,176.06c-6.41,2.78-13.85-.16-16.62-6.56-2.78-6.4.16-13.84,6.56-16.62l405.8-176.07c24.65-10.66,53.35.69,64.01,25.31l100.24,231.14c2.77,6.4-.16,13.84-6.57,16.62-1.64.71-3.35,1.05-5.03,1.05h.01Z"/>
        <path d="M586.99,961.98c-2.48,0-4.97-.07-7.46-.2-79.7-4.31-156.55-30.73-222.24-76.38-65.58-45.62-117.04-108.48-148.82-181.8l-43.11-99.32c-2.78-6.4.16-13.85,6.56-16.63s13.84.16,16.63,6.56l43.11,99.32c29.91,69.01,78.34,128.17,140.06,171.1,61.83,42.97,134.16,67.83,209.18,71.9,36.13,1.93,71.54-13.42,94.75-41.1,22.08-26.34,40.66-55.27,55.24-85.95,2.99-6.31,10.54-9,16.83-5.99,6.3,2.99,8.99,10.53,5.99,16.83-15.49,32.63-35.24,63.36-58.7,91.35-26.69,31.83-66.63,50.3-108.02,50.3h0Z"/>
        <path d="M779.73,597.46c-5.4,0-10.39-3.48-12.06-8.91v-.03c-2.06-6.67,1.68-13.74,8.35-15.8s13.74,1.69,15.8,8.36c2.05,6.67-1.69,13.76-8.36,15.81-1.24.38-2.5.56-3.73.56h0Z"/>
        <path d="M307,538.22c-21.56,0-40.7-6.26-50.19-9.99-4.05-1.59-7.23-4.66-8.96-8.65-1.73-3.98-1.79-8.4-.19-12.44,5.82-14.7,23.06-50.49,57.2-65.3,34.13-14.8,72.04-2.94,86.76,2.84h0c4.05,1.59,7.23,4.66,8.96,8.65,1.73,3.98,1.79,8.4.19,12.44-5.82,14.7-23.06,50.49-57.2,65.29-12.11,5.25-24.71,7.15-36.57,7.15h0ZM275.01,507.8c13.92,4.22,38,8.98,58.5.08,20.5-8.89,33.48-29.73,39.91-42.77-13.91-4.22-38-8.98-58.5-.08-20.5,8.89-33.48,29.73-39.9,42.77h0ZM382.35,468.2h0Z"/>
        <path d="M505.11,452.27c-21.55,0-40.69-6.26-50.18-9.99-4.05-1.59-7.23-4.66-8.96-8.65-1.73-3.98-1.79-8.4-.19-12.44,5.82-14.7,23.06-50.49,57.2-65.29,34.14-14.81,72.04-2.94,86.76,2.84h0c4.05,1.59,7.23,4.66,8.96,8.65,1.73,3.98,1.79,8.4.19,12.44-5.83,14.7-23.06,50.49-57.19,65.29-12.12,5.26-24.71,7.16-36.57,7.16h-.02ZM473.13,421.84c13.91,4.22,38,8.98,58.5.08,20.5-8.89,33.48-29.73,39.9-42.77-13.92-4.22-38-8.97-58.49-.08-20.5,8.89-33.48,29.73-39.91,42.77h0Z"/>
        <path d="M514.79,847.96c-.75,0-1.51-.06-2.28-.2-6.87-1.25-11.42-7.83-10.17-14.7,5.52-30.36,28.19-57.56,59.14-70.99,30.95-13.42,66.29-11.39,92.23,5.3,5.87,3.78,7.56,11.59,3.79,17.46s-11.6,7.57-17.46,3.79c-18.94-12.19-45.18-13.49-68.49-3.37-23.32,10.11-40.31,30.17-44.34,52.33-1.11,6.1-6.43,10.38-12.42,10.38h0Z"/>
      </g>
      <g>
        <path d="M1097.85,1054.27c-2.48,0-4.97-.07-7.45-.2-79.73-4.32-156.56-30.74-222.19-76.38-57.67-40.05-105.11-94.35-137.15-157.03-4.16-8.04-8.12-16.4-11.73-24.8l-118.26-272.59c-5.17-11.91-5.4-25.13-.62-37.22,4.77-12.08,13.96-21.58,25.88-26.74l462.28-200.54c24.59-10.64,53.29.67,64,25.22l118.64,273.55c.23.53.46,1.05.67,1.6,2.5,6.5-.74,13.78-7.24,16.29-6.5,2.52-13.81-.73-16.34-7.22l-.21-.47c-.19-.42-.37-.85-.54-1.28l-118.14-272.39c-5.14-11.79-18.96-17.24-30.77-12.12l-462.28,200.54c-5.72,2.48-10.13,7.04-12.42,12.84-2.29,5.81-2.19,12.16.3,17.87l118.28,272.63c3.4,7.88,7.09,15.7,11.01,23.27,30.18,59.04,74.82,110.14,129.1,147.82,61.78,42.97,134.09,67.83,209.13,71.91,36.01,1.89,71.49-13.43,94.76-41.11,25.59-30.52,46.44-64.46,61.96-100.86,2.73-6.42,10.15-9.41,16.58-6.67,6.42,2.74,9.4,10.16,6.67,16.58-16.5,38.69-38.66,74.76-65.85,107.2-26.75,31.83-66.69,50.3-108.03,50.3h-.04Z"/>
        <path d="M817.85,630.48c-21.56,0-40.7-6.26-50.19-9.99-4.06-1.6-7.24-4.67-8.96-8.66-1.73-3.98-1.79-8.4-.18-12.45,5.82-14.69,23.06-50.47,57.19-65.28,34.14-14.81,72.04-2.95,86.76,2.84h0c4.04,1.59,7.22,4.66,8.95,8.64,1.73,3.98,1.8,8.39.2,12.44-5.83,14.71-23.07,50.5-57.21,65.31-12.11,5.25-24.71,7.15-36.57,7.15h.01ZM782.01,608.69v.02-.02ZM785.86,600.06c13.92,4.22,38,8.97,58.49.08,20.5-8.89,33.48-29.73,39.91-42.77-13.92-4.22-37.99-8.98-58.5-.08-20.5,8.89-33.48,29.73-39.9,42.77Z"/>
        <path d="M1015.98,544.52c-21.56,0-40.7-6.26-50.19-9.99-4.04-1.59-7.22-4.65-8.95-8.63s-1.8-8.4-.2-12.45c5.83-14.71,23.07-50.5,57.2-65.31,34.14-14.81,72.04-2.95,86.76,2.84,4.05,1.59,7.24,4.67,8.96,8.65,1.73,3.98,1.79,8.41.18,12.45-5.82,14.69-23.06,50.47-57.19,65.28-12.11,5.25-24.71,7.15-36.57,7.15h0ZM983.98,514.1c13.92,4.22,38,8.97,58.5.08,20.5-8.89,33.48-29.73,39.9-42.77-13.92-4.23-38.01-8.98-58.5-.08-20.5,8.89-33.48,29.73-39.9,42.77ZM1091.34,474.51h.05-.05ZM1086.24,462.76v.02-.02Z"/>
        <path d="M1054.55,919.34c-18.03,0-35.53-4.75-50.07-14.11-5.86-3.78-7.56-11.6-3.79-17.47,3.79-5.87,11.6-7.56,17.47-3.79,18.93,12.19,45.17,13.48,68.48,3.37,23.31-10.11,40.29-30.17,44.33-52.33,1.25-6.87,7.82-11.42,14.7-10.17,6.87,1.25,11.42,7.83,10.17,14.7-5.52,30.36-28.19,57.56-59.14,70.99-13.59,5.89-28.04,8.81-42.16,8.81h.01Z"/>
      </g>
      <path d="M1029.31,778.5c-7.99,0-15.95-1.99-23.22-5.95-13.24-7.21-22.26-19.88-24.73-34.75l-16.75-100.96c-1.15-6.88,3.51-13.39,10.4-14.53,6.9-1.15,13.39,3.51,14.53,10.4l16.76,100.96c1.18,7.15,5.51,13.23,11.88,16.69,6.36,3.46,13.82,3.8,20.46.91l23.76-10.3c6.4-2.78,13.85.16,16.63,6.57,2.77,6.4-.16,13.84-6.57,16.62l-23.76,10.31c-6.24,2.7-12.82,4.05-19.38,4.05v-.02Z"/>
      <path d="M489.26,702.14c-4.88,0-9.53-2.85-11.6-7.61-2.78-6.4.16-13.84,6.56-16.62l25.02-10.86c6.64-2.88,11.5-8.56,13.31-15.57,1.82-7.01.33-14.33-4.08-20.08l-62.27-81.18c-4.25-5.54-3.2-13.47,2.34-17.72,5.54-4.24,13.47-3.2,17.72,2.34l62.27,81.18c9.18,11.97,12.27,27.2,8.49,41.8s-13.89,26.41-27.72,32.41l-25.02,10.86c-1.64.71-3.34,1.05-5.02,1.05Z"/>
    </g>
    <path d="M1205.96,1541.67H231.13c-36.83,0-66.79-29.96-66.79-66.8V66.79C164.34,29.96,194.3,0,231.13,0h974.83c36.83,0,66.79,29.96,66.79,66.79v1408.08c0,36.83-29.96,66.8-66.79,66.8h0ZM231.13,25.27c-22.89,0-41.52,18.63-41.52,41.52v1408.08c0,22.89,18.63,41.52,41.52,41.52h974.83c22.89,0,41.52-18.63,41.52-41.52V66.79c0-22.89-18.62-41.52-41.52-41.52H231.13Z"/>
    <path d="M1151.8,1379.2h-216.63c-6.98,0-12.64-5.66-12.64-12.64s5.66-12.64,12.64-12.64h216.63c6.98,0,12.64,5.66,12.64,12.64s-5.66,12.64-12.64,12.64Z"/>
    <path d="M826.86,1379.2H285.29c-6.98,0-12.64-5.66-12.64-12.64s5.66-12.64,12.64-12.64h541.57c6.98,0,12.64,5.66,12.64,12.64s-5.66,12.64-12.64,12.64Z"/>
    <path d="M1151.8,1216.73h-487.41c-6.98,0-12.64-5.66-12.64-12.64s5.66-12.64,12.64-12.64h487.41c6.98,0,12.64,5.66,12.64,12.64s-5.66,12.64-12.64,12.64Z"/>
    <path d="M556.07,1216.73h-270.78c-6.98,0-12.64-5.66-12.64-12.64s5.66-12.64,12.64-12.64h270.78c6.98,0,12.64,5.66,12.64,12.64s-5.66,12.64-12.64,12.64Z"/>
  </g>
  <ellipse class="cls-2" cx="255.21" cy="1381.2" rx="159.65" ry="178.74"/>
  <path class="cls-1" d="M229.88,1151.32c-126.97,0-229.88,102.91-229.88,229.88s102.91,229.88,229.88,229.88,229.88-102.91,229.88-229.88-102.91-229.88-229.88-229.88ZM346.69,1374.65c-2.99,6.83-9.76,11.26-17.23,11.26h-61.91v137.19h-75.35v-137.19h-61.91c-7.47,0-14.18-4.42-17.23-11.26-2.99-6.83-1.67-14.76,3.33-20.27l99.58-108.94c3.56-3.91,8.61-6.14,13.9-6.14s10.34,2.24,13.9,6.14l99.58,108.94c5.05,5.51,6.32,13.44,3.33,20.27Z"/>
</svg>