<?xml version="1.0" encoding="UTF-8"?>
<svg id="Layer_1" xmlns="http://www.w3.org/2000/svg" version="1.1" viewBox="0 0 2322.41 3003.02">
  <!-- Generator: Adobe Illustrator 30.3.0, SVG Export Plug-In . SVG Version: 2.1.3 Build 182)  -->
  <path d="M1779.88,2785.26v-397.52s-1234.01.07-1234.01.07l-.05,396.2c.65,6.91,18.58,16.1,22.98,17.52,60.02,19.57,86.52,69.18,83.85,130.14-1.07,24.56-9.71,55.78-42.78,55.83l-339.53.51c-35.5.05-48.91-26.1-50.16-56.83-2.33-57.11,21.55-106.49,78.2-126.87,8.9-3.2,22.82-11.17,29.54-19.5l.24-397.22c-46.64,3.2-88-23.22-97.18-67.32-5.34-25.67-3.26-52.25-2.53-79.7-68.56-26.06-120.44-90.57-120.45-166.23l-.02-175.08c0-29.97,10.77-58.68,23.72-84.62-71.43-23.92-116.72-87.81-116.7-162.9l.08-361.71c3.64-82.12,65.42-154.28,149.33-160.81,55.96-4.35,110.5-.75,163.97-1.53l-.18-672.01c4.93-233.58,181.28-419.99,413.75-440.71l846.98,1.59c196,.37,407.02,201.15,407.89,417.41l2.78,693.72c52.56,1.08,104.62-3.13,157.31,1.82,84.29,7.92,150.57,79.9,150.5,164.55l-.32,374.08c-.06,68.05-53.41,121.48-113.55,146.02,11.87,26.99,24.52,55.22,24.32,85.06l-1.23,190.86c-.46,70.67-57.56,126.55-119.74,149.02-.31,28.23,2.25,55.42-2.57,80.98-8.32,44.14-51.24,68.71-95.18,67.3l-.12,397.28c7.48,8.18,19.56,15.08,29.28,18.65,56.65,20.85,81.77,69.85,78.83,127.92-1.34,26.45-10.07,56.36-43.94,56.37l-343.32.02c-36.36,0-45.75-31.32-46.74-60.32-1.93-56.57,22.46-103.55,78.11-123.45,7.73-2.76,20.25-10.4,28.64-18.63ZM1349.24,1641.23c171.99,3.4,339.72,13.42,511.94,29.84l.9-392.11c.1-45.14,25.3-81.26,57.16-110.48l-.26-697.85c-.07-196.96-148.11-357.32-342.78-378.62l-815.02,1.79c-175.49.38-350.35,172.66-351.05,360.95l-2.66,716.22c37.38,32.35,56.87,74.65,56.92,123.54l.36,378c294.28-32.67,588.54-37.14,884.49-31.29ZM337.82,1685.52l45.79-5.85-.54-381.2c-.06-44.33-37.31-86.51-80.34-88.35-43.75-1.86-83.25-1.65-126.61-.44-45.95,1.28-82.18,42.43-82.19,88.69l-.07,344.91c-.01,55.73,37.71,99.51,94.18,101.69,43.77-33.8,93.36-52.24,149.78-59.45ZM2136.55,1745.05c44.36-3.34,90.8-36.67,90.9-83.94l.82-360.02c.11-46.49-35.9-91.2-82.93-91.03l-129.36.45c-47.75.17-74.09,48.1-74.04,91.85l.44,376.88,93.62,16.81c37.23,6.68,64.96,29.03,100.55,49.02ZM297.05,2161.13l1737.72-.06c56.52,0,103.1-36.6,103.39-95.76l.73-145.72c.51-100.89-94.73-148.51-192.24-160.32-399.44-48.39-800.91-58.66-1203.17-32.66-138.66,8.96-273.7,19.35-409.97,41.2-70.2,11.26-142.78,66.53-144.01,131.8-1.09,57.99-2.24,116.86.49,173.23,2.86,59.15,50.73,88.3,107.06,88.3ZM305.74,2237.59v72.24s1713.6.17,1713.6.17v-72.24s-1713.6-.17-1713.6-.17ZM572.75,2913.45c-.7-22.9-12.23-34.41-34.55-41.53-26.59-8.47-67.83-33.61-67.95-67.57l-1.56-416.71-60.78.19-.99,408.68c-.1,40.03-39.75,65.87-72.43,76.13-21.77,6.83-33.92,20.24-31.74,40.82l270.01-.02ZM1947.27,2849.13c-17.28-14.54-27.68-34.88-27.68-58.21l-.07-403.16-60.96-.16-.93,413.58c-.08,35.76-37.27,60.81-67.12,70.25-22.77,7.2-37.2,18.67-34.45,42.17l271.32-.19c.56-43.86-41.89-32.13-80.11-64.29Z" stroke="#000" stroke-miterlimit="10" stroke-width="30"/>
  <line x1="1161.2" y1="390.14" x2="1161.2" y2="1102.08" fill="none" stroke="#000" stroke-linecap="round" stroke-miterlimit="10" stroke-width="120"/>
  <circle cx="1161.2" cy="1329.64" r="44.75" stroke="#000" stroke-linecap="round" stroke-miterlimit="10" stroke-width="84"/>
</svg>