<?xml version="1.0" encoding="UTF-8"?>
<svg id="Layer_1" xmlns="http://www.w3.org/2000/svg" baseProfile="tiny" version="1.2" viewBox="0 0 3088.45 1898.14">
  <!-- Generator: Adobe Illustrator 30.3.0, SVG Export Plug-In . SVG Version: 2.1.3 Build 182)  -->
  <path d="M2079.14,946.2c0,295.52-239.57,535.09-535.09,535.09s-535.09-239.57-535.09-535.09,239.57-535.09,535.09-535.09,535.09,239.57,535.09,535.09Z"/>
  <path d="M1830.06,1871.5c-213.81,40.98-433.08,34.34-644.25-17.51-145.11-35.63-284.57-89.15-416.25-159.62-168.55-90.2-322.74-203.1-460.08-335.73-108.41-104.69-221.7-236.37-297.93-365.78-16.88-28.65-13.4-61.82-1.54-92.04,26.52-45,54.53-87.78,86.28-129.95,204.6-271.74,485.4-501.49,799.54-635.83,151.68-64.87,312.22-106.72,476.35-125.08,244.16-27.31,490.27,1.79,721.5,83.84,356.07,126.35,667.35,369.76,893.89,669.53,31.31,41.44,58.88,82.74,85.09,127.18,19.77,33.53,21.81,73.84,1.39,107.66-29.23,48.41-60.57,93.55-95.41,138.62-182.05,235.56-407.96,428.32-672.11,567.38-149.76,78.84-310.13,135.43-476.47,167.32ZM1250.44,1706.26c314.83,71.83,619.88,25.02,909.24-109.08,307.73-145.39,568.19-370.82,759.96-650.87-123.54-188.01-285.01-349.29-466.2-480.44-134.45-96.46-281.38-173.68-437.67-228.06-309.32-107.63-636.93-103.62-945.89,3.4-161.01,55.77-312.01,135.47-448.99,236.74-73.68,54.47-142.49,114.3-208.11,177.44l-38.5,38.41c-76.99,76.79-144.48,161.72-204.64,253.65,55.54,79.63,114.95,153.94,180.7,224.04l93.13,93.36c127.21,118.38,268.88,219.58,423.5,300.1,120.87,62.94,249.4,110.72,383.47,141.31Z"/>
</svg>