<?xml version="1.0" encoding="UTF-8"?>
<svg id="Layer_1" xmlns="http://www.w3.org/2000/svg" baseProfile="tiny" version="1.2" viewBox="0 0 3088.65 2320.34">
  <!-- Generator: Adobe Illustrator 30.3.0, SVG Export Plug-In . SVG Version: 2.1.3 Build 182)  -->
  <path d="M487.78,2320.34l-30.97-.73c-37.37-6.87-64-37.37-69.94-73.7-6.65-17.46,4.97-44.33,15.47-63.18L2568,17.25c20.44-14.14,45.03-20.1,69.24-15.96,32.74,9.12,60.55,33.05,66.67,67.43,2.24,12.56,1.66,27.14.03,39.88-1.95,15.27-11.74,28.93-22.75,39.93L523.57,2305.86c-11.43,6.52-22.58,10.47-35.79,14.48Z"/>
  <path d="M913.15,1986.22l122.11-122.31c78.1,29.84,158.03,53.76,240.38,70.93,190.52,39.78,386.61,37.28,576.15-7.52,109.36-25.28,215.3-63.05,316.8-110.98,304.4-146.09,560.46-368.1,751.3-646.44-56.27-85.93-119.74-165.08-190.01-239.15l-60.1-60.61c-110.11-106.06-230.27-198.82-364.3-276.16l118.86-118.96c145.67,88.74,277.81,194.87,396.05,316.73,64.6,66.42,124.11,136.45,178.97,210.74,27.75,37.58,52.19,74.73,75.24,114.88,19.93,34.71,18.36,75.13-2.76,108.87-30.26,48.35-61.63,93.85-96.88,139.15-61.54,79.08-128.34,153.19-200.54,223.22-133.72,129.71-284.73,240-448.87,328.79-149.4,80.82-309.61,139.46-476.09,173.44-215.49,44-437.21,40.2-650.95-10.95-97.77-23.19-192.27-53.82-285.36-93.68Z"/>
  <path d="M777.07,1738.11l-116.47,116.77c-133.88-82.79-256.08-179.38-367.44-289.17-74.51-73.79-143.89-151.56-205.67-235.9-27.91-38.09-53.71-74.55-76.69-115.85-14.75-26.52-14.18-62.41.48-89.67,26.2-48.74,57.27-92.57,90.83-137,175.68-232.59,410.71-434.23,669.72-569.47,152.93-80.26,316.51-136.81,486.3-167.27,307-56.29,621.95-22.98,910.95,95.82l-125.07,125.23c-152.98-56.54-312.73-86.71-475.7-88.79-152.61-1.79-303.77,21.28-449.48,66.15-201.64,62.82-389.36,163.46-553.64,295.76-152.3,122.83-286.95,260.99-395.37,426.15,74.35,106.67,158.12,206.07,251.79,296.25,107.72,103.48,224.55,193.04,355.46,270.98Z"/>
  <path d="M1270,1629.31l733.82-733.87c126.12,210.74,91.05,479.69-79.9,651.59-171.23,172.18-440.57,209.16-653.92,82.28Z"/>
  <path d="M1810.36,705.16l-730.27,730.48c-120.85-209.26-83.61-474.66,85.04-643.69,168.89-169.27,432.96-207.83,645.23-86.78Z"/>
</svg>