<?xml version="1.0" encoding="UTF-8"?>
<svg id="Layer_1" xmlns="http://www.w3.org/2000/svg" version="1.1" viewBox="0 0 2992.58 2988.7">
  <!-- Generator: Adobe Illustrator 30.3.0, SVG Export Plug-In . SVG Version: 2.1.3 Build 182)  -->
  <path d="M2593.08,1158.22c88.4,78.91,196.75,83.37,311.32,71.48,37.76-3.92,71.71,19.19,74.99,57.48l11.15,129.96c30.7,586.72-287.65,1139.21-811.48,1413.23-215.59,112.78-454.47,170.65-701.59,165.58-208.56-4.28-412.41-51.74-600.63-140.4-277.84-130.88-513.86-338.48-670-599.95-254.14-425.57-273.53-948.92-61.32-1394.64,143.04-300.43,381.33-543.28,681.1-695.09C1124.23,15.17,1465.61-37.33,1795,26.91c108.05,21.07,210.38,52.83,311.7,93.99l107.5,50.59c31.4,14.78,45.41,52.8,30.43,85.45-29.18,63.6-53.32,128.51-58.6,198.91-12.94,172.55,90.57,324.08,264.22,336.11,41.2,2.86,67.22,36.69,58.72,76.41-23,107.43.92,215.58,84.1,289.84ZM2848.64,1775.58c30.49-142.09,35.22-285.57,21.66-428.89-55.38,2.63-106.48,3.11-159.27-6.98-136.39-26.82-249.25-116.89-298.18-245.62-23.22-62.75-30.31-127.02-24.48-195.76-114.94-24.25-210.82-93.79-265.42-196.58-75.52-143.36-63.41-302.48-.72-449.57-420.04-193.09-872.66-184.4-1278.23,35.83-128.79,69.93-245.12,156.31-345.72,262.52C248.78,813.93,108.3,1166.35,115.36,1527.93c6.77,346.78,147.25,677.64,391.41,926,183.21,186.37,416.04,321.11,670.57,387.23,319.33,82.96,657.08,41.89,947.52-111.42,109.69-57.9,211.28-127.94,301.75-212.23,214.06-199.44,360.92-457.13,422.04-741.93Z"/>
  <ellipse cx="765.88" cy="1252.46" rx="173.29" ry="171.41"/>
  <ellipse cx="1837.73" cy="2319.61" rx="172.76" ry="170.89"/>
  <ellipse cx="947.78" cy="2151.42" rx="172.67" ry="170.8"/>
  <ellipse cx="1513.59" cy="751.99" rx="172.86" ry="170.99"/>
  <ellipse cx="1525.62" cy="1583.22" rx="172.33" ry="170.47"/>
  <ellipse cx="2313.55" cy="1674.05" rx="172.28" ry="170.41"/>
</svg>