<?xml version="1.0" encoding="UTF-8"?>
<svg id="Layer_1" xmlns="http://www.w3.org/2000/svg" version="1.1" viewBox="0 0 3175.56 2985.95">
  <!-- Generator: Adobe Illustrator 30.3.0, SVG Export Plug-In . SVG Version: 2.1.3 Build 182)  -->
  <path d="M2854.68,1737.29l-249.76,275.28-372.67,375.59-580.13,569.39c-30.5,29.94-81.29,41.56-114.99,8.12l-522.05-518.12-199.1-197.25-100.89-100.99c-137.74-137.88-271.64-278.1-399.8-427.43-121.29-141.34-211.25-272.86-267.8-461.64C-86.82,811.84,104.38,333.77,470.03,116.28,817.03-90.12,1201.7-15,1479.78,290.36c40.89,44.9,76.47,92.32,111.4,142.5,103.39-151.48,222.25-269.52,375.7-348.04,253.26-128.59,528.19-109.02,768.52,45.39,167.99,107.93,300.41,273.26,374.8,474.55,102.47,277.25,82.77,570.16-47.24,830.88-50.73,101.73-133.3,219.01-208.28,301.65h0ZM2684.91,1645.82l133.9-164.24c117.23-159.31,189.17-355.99,174.84-563.65-19.53-282.86-172.99-527.28-401.27-645.33-205.89-106.47-447.85-89.6-640.19,48.36-80.68,57.86-150.73,132.43-207.64,219.45-27.6,42.21-52.91,84.17-73.58,130.44-16.65,37.27-43.49,60.42-80.4,60.58-36.29.16-62.8-24.85-79.14-61.81-23.08-52.17-52.22-98.92-83.86-145.58-71.71-105.74-162.72-190.39-269.36-248.43-82.84-45.08-171.25-68.55-262-71.7-312.91-10.86-595.01,218.31-683.21,555.87-28.17,107.83-35.86,221.49-16.8,333.71,24.27,142.91,82.09,272.37,165.35,383.38,60.86,81.15,125.77,156.02,193.72,229.53l94.5,102.23,382.17,388.26,258.65,255.03,300.35,301.53,369.56-365.53,444.38-440.22c97.51-96.6,189.16-198.23,280.06-301.9l-.03.02Z"/>
</svg>