<?xml version="1.0" encoding="UTF-8"?>
<svg id="Layer_1" xmlns="http://www.w3.org/2000/svg" version="1.1" viewBox="0 0 1808.02 2981.03">
  <!-- Generator: Adobe Illustrator 30.3.0, SVG Export Plug-In . SVG Version: 2.1.3 Build 182)  -->
  <polygon points="1758.02 1128.62 879.34 1339.53 879.34 213.46 1758.02 50 1758.02 1128.62" fill="none" stroke="#000" stroke-linecap="round" stroke-linejoin="round" stroke-width="100"/>
  <path d="M1539.06,734.66c-20.87,214.6-136.45,378.96-258.16,367.11-121.71-11.83-203.45-195.41-182.59-409.99,20.87-214.6,136.45-378.96,258.16-367.13,121.71,11.83,203.45,195.41,182.59,409.99v.02Z" fill="none" stroke="#000" stroke-linecap="round" stroke-linejoin="round" stroke-width="100"/>
  <path d="M874.96,1102.39h-479.02c-191.05,0-345.94-171.1-345.94-382.15h0c0-211.05,154.87-382.15,345.94-382.15h479.02" fill="none" stroke="#000" stroke-linecap="round" stroke-linejoin="round" stroke-width="100"/>
  <line x1="603.52" y1="1102.39" x2="603.52" y2="2757.07" fill="none" stroke="#000" stroke-linecap="round" stroke-linejoin="round" stroke-width="100"/>
  <line x1="603.52" y1="1929.73" x2="50" y2="2931.03" fill="none" stroke="#000" stroke-linecap="round" stroke-linejoin="round" stroke-width="100"/>
  <line x1="603.52" y1="1929.73" x2="1157.05" y2="2931.03" fill="none" stroke="#000" stroke-linecap="round" stroke-linejoin="round" stroke-width="100"/>
</svg>