<?xml version="1.0" encoding="UTF-8"?>
<svg id="Layer_1" xmlns="http://www.w3.org/2000/svg" version="1.1" viewBox="0 0 2992.58 2988.7">
  <!-- Generator: Adobe Illustrator 30.3.0, SVG Export Plug-In . SVG Version: 2.1.3 Build 182)  -->
  <path d="M2051.77,2912.01c26.04,0,41.69,11.4,44.61,33.43,2.31,17.47-9.45,43.27-32.92,43.27l-1740.68-.28c-60.96,0-119.16-17-174.79-34.8-24.03-7.69-44.77-20.46-59.17-41.91-19.21-28.62-26.29-78.33-1.36-107.16l251.29-290.58c-16.69-27.83-11.05-57.7,9.24-82.17,48.54-58.55,91.88-118.75,128.77-185.54,26.8-48.52,45.85-97.51,61.89-150.66,32.03-106.13,32.92-215.54,5.21-322.79-3.75-14.51-2.54-32.2,8.07-43.87l298.2-327.93,333.34-367.13,210.5-230.34L2065.3,64.71c71.46-78.65,195.55-86.02,276.97-19.87l68.53,64.25,330.58,314.37c31.74,30.19,51.6,65.32,59.04,109,9.1,53.43,4.42,112.76-29.02,157.66l-88.26,105.33-568.96,673.98-365.82,431.25-449.48,530.01c-14.52,17.13-30.81,28.2-54.47,23.07-97.57-21.17-197.57-15.93-292.81,16.21-135.04,45.56-241.53,128.02-334.37,234.32-19.02,21.78-48.58,25.18-72.53,8.92l-4.28,4.46-148.43,189.35,1.7,5.01,1658.09-.03ZM2712.81,643.12c26.49-50,21.64-107.04-11.16-150.66l-401.23-382.72c-47.56-40.23-121.35-45.18-168.09-.61-40.7,38.81-76.15,82-114.23,122.69l580.86,543.45,113.85-132.15ZM1342.4,2258.89l662.86-779.37,543.42-645.2-582.08-544.37-634.52,696.38-628.56,691.8,638.88,580.75ZM574.27,2637.05c66.64-74.46,140.6-137.21,226.63-185.78,136.79-77.13,287.78-107.19,444.1-76.9l47.6-56.38-641.4-582.8-31.13,31.91c26.94,106.58,25.53,213.32-.06,320.2-19.89,87.75-57.15,166.68-102.98,243.83-32.76,51.48-67.43,97.43-107.26,146.83l164.5,159.09ZM295.56,2907.34l191.89-246.27-94.44-91.95-235.26,269.89c-5.65,6.48-10.05,13.61-8.76,20.92.97,5.48,8.08,14.23,14.49,16.68,42.93,16.38,86.52,26.47,132.08,30.73Z"/>
  <path d="M1350.09,1583.59l336.3-381.12,264.94-297c13.64-15.29,37.65-12.55,51.55-1.48,11.76,9.36,20.33,35.35,6.78,50.63l-598.77,675.35c-14.99,16.91-35.78,22.13-54.25,9.04-15.16-10.75-22.52-37.31-6.54-55.42Z"/>
</svg>