<?xml version="1.0" encoding="UTF-8"?>
<svg id="Layer_1" xmlns="http://www.w3.org/2000/svg" version="1.1" viewBox="0 0 2992.58 2988.7">
  <!-- Generator: Adobe Illustrator 30.3.0, SVG Export Plug-In . SVG Version: 2.1.3 Build 182)  -->
  <path d="M394.95,799.19c-75.39,205.37-86.67,407.51-58.33,622.38,38.38-46.43,87.24-74.52,144.29-74.02l85.65.75c102.04,7.22,181.12,92.18,181.04,195.77l-.62,769.88c-.09,109.1-93.03,192.43-197.85,193.25l-50.53.25c-90.13.44-166.26-55.12-193.75-139.52-152.35,14.82-294.66-95.16-302.35-249.02l-2.47-386.81c9.26-143.02,120.63-255.31,264.91-263.54-36.4-240.31-28.34-463.85,55.24-693.32,92.67-239.95,257.5-445.15,474.3-583.97C1064.59,18.28,1395.12-40.44,1708.57,27.7c216.92,47.16,414.27,154.08,571.72,309.8,153.87,152.17,265.74,342.93,316.51,552.96,5.73,23.72-2.58,44.39-23.03,51.99-18.81,6.98-44.12-1.59-50.35-23.7l-33.22-117.89-44.47,29.21c-53.55,25.54-115.46,13.58-151.18-34.68-182.3-365.8-567.01-578.65-975.56-520.74-168.33,23.86-324.07,88.47-458.59,192.13-109.12,84.09-197.42,187.94-261.47,310.21-20.28,43.36-62.59,69-111.05,65.96-35.24-2.21-65.86-18.5-92.95-43.76ZM2354.72,742.46c13.49,25.8,47.18,27.5,68.48,11.77,19.39-14.32,29.84-39.46,17.95-63.19-110.41-220.42-291.16-398.33-513.73-505.01-199.64-95.69-420.95-126.64-638.79-95.04-359.46,52.15-672.09,270.6-840.97,592.2-15.04,28.63-9.01,60.2,22.85,75.82,21.56,10.57,47.77,4.42,59.59-18.27,171.37-328.79,507.52-539.06,878.44-554.11,402.92-16.35,760.41,200.55,946.18,555.82ZM555.12,2428.46c60.82-.12,115.63-52.46,115.7-115.25l.96-762.22c.09-67.67-47.62-125.92-116.57-125.88l-69.38.05c-56.32.04-112.34,48.43-112.47,109.78l-1.64,764.99c-.15,68.4,46.52,128.81,116.52,128.66l66.88-.14ZM296.1,2290.23l.11-742.53c-117.43-8.21-217.17,80.33-219.45,198.51l.07,367.95c12.08,108.96,110.21,186.38,219.26,176.06Z"/>
  <path d="M2841.51,2967.55l-1233.24-.03c-90.09,0-165.27-73-165.27-163.47l.03-1654.1c0-89.95,72.13-162.9,161.18-163.28l236.26-1.01c1.1-43.93,29.96-84.78,73.19-90.87,40.01-5.63,79.12-2.49,120.87-2.16,18.99-114.71,141.41-186.9,250.19-143.53,62.55,24.93,104.97,77.08,116.47,142.85l105.37.62c50.93.3,91.37,41.96,89.57,93.45l237.74.93c84.2.33,158.71,71.67,158.71,159.49l-.15,1660.87c0,85.33-68.52,150.44-150.93,160.24ZM2501.98,1155.01c11.03,0,18.89-10.13,18.9-19.79l.12-146c0-9.35-8.79-19.79-18.4-19.83l-138.02-.55c-23.79-.1-38.37-21.31-37.43-42.77,1.93-43.74-24.67-81.26-58.83-99.42-40.49-21.52-86.13-14.28-119.74,13.95-26.05,21.88-40.7,50.09-39.84,85.41.47,19.32-13.29,42.8-35.37,42.87l-135.17.47c-10.67.04-22.17,8.16-22.18,20.02l-.13,146.05c0,9.76,9.07,19.58,19.77,19.58h566.31ZM2827.13,1064.19l-230.13-.1-.36,78.96c-.2,43.19-36.15,88.15-83.07,88.26l-575.13,1.28c-49.26.11-96.52-31.2-96.98-83.66l-.74-84.79-240.42.93c-39.4.15-81.48,38.56-81.49,81.16l-.38,1654.26c-.01,46.9,39.31,88.57,86.48,88.59l1217.5.46c48.25.02,94.64-34.88,94.63-87.25l-.14-1654.22c0-48.49-47.06-83.86-89.77-83.88Z"/>
  <path d="M2690.87,1639.21l-464.58-.07c-24.46,0-39.75-20.03-39.17-40.32.74-25.92,20.64-38.21,46.3-38.18l464.6.47c22.21.02,33.26,24.03,32.67,40.79-.71,20.13-16.52,37.31-39.81,37.31Z"/>
  <path d="M2685.62,2433.55c26.3-.03,42.32,12.71,45.04,35.87,2.05,17.53-10.32,42.46-33.87,42.46l-476.32.03c-21.27,0-33.88-23.03-33.42-39.27.5-17.77,14.03-38.64,35.46-38.66l463.12-.44Z"/>
  <path d="M2689.33,2073.21l-466.56-.15c-23.08,0-37.19-22.35-35.75-40.51,1.77-22.34,18.27-37.42,43.02-37.42l460.48.09c23.64,0,39.37,17.39,40.14,36.79.92,23.02-14.55,41.21-41.32,41.2Z"/>
  <path d="M1713.17,2523.79c-15.52-15.66-17.45-36.76-6.83-53.05,9.6-14.72,38.32-23.68,52.83-8.75l56.69,58.31,165.84-165.51c14.27-14.24,35.96-11.93,49.53-2.21,13.19,9.45,22.36,38.72,8.06,53.12l-192.43,193.84c-13.19,13.29-38.87,19.95-53.42,5.27l-80.28-81.02Z"/>
  <path d="M1792.56,2166.89l-84.75-87.03c-14.12-14.5-8.62-40.35,3.04-51.53,13.66-13.09,38.24-15.07,52.36-.81l54.05,54.57,166.22-166.08c14.62-14.61,40.94-9.15,52.47,3.66,11.98,13.31,14.49,37.7.06,52.23l-187.55,188.73c-13.64,13.72-39.63,22.99-55.9,6.28Z"/>
  <path d="M1710.29,1647.15c-15.29-15.6-13.53-41.1,1.2-54.79,15.14-14.07,39.32-13.21,54.59,2.72l50.15,52.32,165.8-166.21c14.4-14.43,39.54-10.99,52.02.51,12.38,11.42,18.07,37.57,3.93,51.8l-190.96,192.11c-16.37,16.47-40.76,19.46-57.66,2.22l-79.08-80.67Z"/>
</svg>