<?xml version="1.0" encoding="UTF-8"?>
<svg id="_Слой_1" data-name="Слой_1" xmlns="http://www.w3.org/2000/svg" version="1.1" viewBox="0 0 500 500">
  <!-- Generator: Adobe Illustrator 30.3.0, SVG Export Plug-In . SVG Version: 2.1.3 Build 182)  -->
  <defs>
    <style>
      .st0 {
        stroke: #000;
        stroke-miterlimit: 10;
        stroke-width: 7px;
      }
    </style>
  </defs>
  <path class="st0" d="M250.5,397.03H11.63c-4.86-.25-6.26-1.74-6.35-6.73-.09-5.43-.17-10.85-.24-16.28,0-3.25.59-4.06,3.75-4.85.7-.17,1.41-.29,2.11-.45,3.06-.71,4.46-2.96,5.02-5.77.46-2.29-1.55-5.04-4.24-6.33l-.48-.24q-5.92-2.47-5.9-8.63c0-3.98-.06-8,0-11.94,0-4.18.24-4.37,4.33-5.43,3.9-1.03,6.42-3.51,6.48-6.34s-2.29-5.39-6.11-6.77q-4.57-1.63-4.72-6.42v-2.17c0-6.35,0-6.3,6.03-8.24,14.28-4.64,22.62-14.71,25.48-29.04,3.35-16.87-2.56-30.57-16.37-40.67-2.97-2.17-6.75-3.34-10.29-4.64-4.43-1.65-4.72-1.83-4.89-6.49-.1-2.89-.4-5.77-.42-8.66,0-4,.8-4.98,4.65-6.09.71-.11,1.41-.3,2.09-.55,2.51-1.36,4.57-3.43,4.43-6.32s-2.15-4.88-4.85-5.98q-5.89-2.38-5.89-8.41v-13.57c0-4.53.46-5.25,4.78-6.46,3.9-1.14,5.94-3.31,6.08-6.57.13-2.96-2.71-6.39-6.14-7.43q-4.57-1.37-4.64-5.71c-.07-6.16-.11-12.31-.07-18.46,0-5.89,1.83-7.59,7.91-7.6h32l441.38.06c1.26-.08,2.53-.08,3.79,0,3.37.43,5.26,2.29,5.31,5.71.13,7.06,0,14.12,0,21.18,0,2.82-1.21,4.22-4.02,4.79-1.74.33-3.36,1.15-4.64,2.38-4.07,4.27-2.15,10.2,3.59,11.61,4.49,1.14,4.97,1.61,5.03,6.17.07,5.25.07,10.5,0,15.75-.07,4.33-.62,4.95-4.57,6.03-4.18,1.14-6.42,3.61-6.25,6.94.17,3.33,2.74,5.99,6.61,6.86s4.19,1.14,4.3,4.77c.08,3.26.08,6.51,0,9.77-.13,3.78-.86,4.7-4.39,5.81-15.86,5.03-24.52,16.5-26.86,32.3-2.29,15.43,3.07,28.57,15.92,37.95,3.31,2.18,6.91,3.88,10.7,5.05,4.11,1.47,4.57,1.62,4.66,5.93.05.72.05,1.45,0,2.17-.23,2.13.08,4.63-.96,6.23-.87,1.34-3.33,1.68-5.13,2.29-2.41.89-4.9,3.76-4.67,6.07.25,2.59,1.27,4.95,3.92,6.05,1,.4,2.06.64,3.13.73,2.35.23,3.66,1.41,3.67,3.82,0,5.78.06,11.58,0,17.37,0,2.57-1.47,3.7-4.06,4.13-4.46.74-6.62,3.04-6.7,6.47-.08,3.43,2.4,6.43,6.86,7.05,3.04.43,4.01,1.94,4.01,4.66,0,5.79.07,11.59-.08,17.37-.09,3.66-1.71,5.25-5.23,5.63-.91.05-1.81.05-2.72,0h-237.28v.15ZM13.92,216.94c20.92,8.48,32.65,24.06,32.91,46.13.25,22.07-11.11,37.72-32.39,46.07,6.57,3.14,8.52,5.12,9.86,9.62,2.29,7.57-.11,13.48-7.43,18.46-3.67,2.5-3.82,9.41,0,11.68,12.14,7.48,9.4,22.33-.08,27.07-1.07.52-1.87,1.46-2.21,2.59-.25,2.96,0,5.97,0,8.92h471.81v-10.4c-.91-.37-1.81-.79-2.67-1.26-10.42-6.38-10.5-20.49,0-26.72,2.15-1.28,3.04-2.54,3.1-5.02.07-3.27-.57-5.42-3.65-7.51-10.39-7.07-9.68-19.62,1.14-26.14l2.23-1.37c-21.72-7.7-32.25-29.2-31.64-46.12.2-9.99,3.29-19.71,8.89-27.99,5.47-8.36,13.61-14.64,23.09-17.81.48-2.58-.4-3.83-2.71-5.14-8.53-4.85-10.88-14.86-5.35-22.86,1.84-2.69,4.87-4.57,8-7.38,0-1.14-.13-3.35,0-5.5.21-2.62-.49-4.31-3.09-5.57-3.45-1.75-5.98-4.89-6.96-8.63-2.35-7.66.18-14.86,6.86-19.43,1.28-.88,3.07-1.2,3.03-3.36-.07-3.93,0-7.88,0-12.06H14.5c0,2.89.19,5.42,0,7.91-.35,3.86.72,6.41,4.08,9.01,9.33,7.18,8.82,20.07-.91,26.01-2.89,1.77-3.59,3.58-3.43,6.45.07,1.27.07,2.54,0,3.81-.24,1.63.72,3.2,2.29,3.74,3.47,1.69,6.15,4.64,7.51,8.25,2.96,7.39,0,15.4-7.3,19.43-2.13,1.15-3.76,2.14-2.81,5.12Z"/>
  <path class="st0" d="M267.33,194.73h30.69c2.63,0,5.71-.71,7.03,2.62,1.35,3.51-1.95,4.67-3.82,6.35-7.89,7.14-15.89,14.17-24,21.35,2.67,10.38,5.33,20.65,8,30.93.22.88.86,1.77.73,2.57-.18,1.31-.49,3.03-1.39,3.71-1.19.66-2.61.73-3.86.22-3.05-1.57-6.02-3.3-8.89-5.18-7.03-4.4-14.02-8.86-21.24-13.42l-21.54,13.57c-2.61,1.63-5.2,3.28-7.81,4.9-1.44.89-2.89,1.55-4.45.18-1.48-1.14-2.04-3.12-1.38-4.87.97-3.1,1.94-6.19,2.8-9.32,2.11-7.65,4.16-15.3,6.3-23.17-8.6-7.61-17.05-15.19-25.65-22.61-1.82-1.57-3.17-3.04-2.22-5.49s2.99-2.29,5.02-2.29c9.4,0,18.8,0,28.2-.09,4.57,0,4.48-.09,6.13-4.33,3.57-9.25,7.23-18.47,10.84-27.72.77-1.99,1.79-3.59,4.19-3.55s3.19,1.85,3.93,3.81c3.43,9.14,6.96,18.2,10.47,27.27.56,1.3,1.13,2.61,1.93,4.54ZM289.16,202.65c-8.14,0-15.14.08-22.16,0-5.91-.09-6.43-.67-8.49-6.32-2.35-6.4-4.87-12.73-7.66-19.99-3.05,7.82-5.82,14.6-8.32,21.48-1.3,3.54-3.37,5.11-7.28,4.97-7.37-.25-14.77-.07-22.15-.07l-.82,1.14c.72.18,1.4.46,2.03.85,5.62,4.8,11.18,9.7,16.82,14.49,2.13,1.81,2.99,3.58,2.14,6.56-2.08,7.2-3.7,14.54-5.71,22.44l2.8-1.75c5.5-3.43,11.05-6.86,16.48-10.44,2.58-1.69,4.91-1.83,7.47-.06,2.08,1.43,4.3,2.65,6.46,3.98,4.47,2.73,8.93,5.49,13.72,8.42-2.06-7.37-3.84-14.17-5.87-20.9-1.27-3.3-.17-7.04,2.67-9.14,4.42-3.73,8.72-7.6,13.08-11.43l4.8-4.23Z"/>
  <path class="st0" d="M75.94,257.89v-115.11c-.06-1.63,0-3.25.17-4.87.17-2.08,1.81-3.74,3.89-3.94,2.37-.3,3.77,1.23,4.4,3.25.4,1.57.57,3.18.5,4.8v231.84c.08,1.44,0,2.89-.23,4.31-.33,2.06-2.07,3.59-4.15,3.67-2.26-.04-4.16-1.72-4.46-3.97-.14-1.26-.17-2.52-.1-3.78v-116.19h-.02Z"/>
  <path class="st0" d="M425.86,257.9v114.46c.07,1.81-.01,3.61-.24,5.41-.42,2.2-2.27,3.85-4.5,4.01-2.22-.28-3.94-2.1-4.09-4.33-.09-1.26-.11-2.53-.06-3.79v-231.1c-.1-1.62-.02-3.24.24-4.85.34-2.05,2.07-3.58,4.15-3.68,2.26.08,4.14,1.76,4.46,4,.14,1.26.17,2.52.09,3.78,0,38.7,0,77.4,0,116.09h-.05Z"/>
  <path class="st0" d="M251.1,289.14h106.84c1.63,0,3.27-.09,4.88.07,2.23-.02,4.05,1.77,4.07,4,0,.06,0,.12,0,.17.19,2.09-1.27,3.98-3.35,4.31-1.41.28-2.86.39-4.3.33h-104.14l-111.74-.06c-1.44.06-2.89.03-4.33-.09-2.27-.11-4.07-1.93-4.16-4.19-.07-2.29,1.69-4.17,4.48-4.46,1.61-.16,3.26-.08,4.88-.08h106.86Z"/>
  <path class="st0" d="M251.21,331.52h107.51c1.44,0,2.9-.06,4.34.08,2.34.23,3.43,1.82,3.74,3.99.35,2.08-1.04,4.06-3.12,4.43-1.23.27-2.5.37-3.76.3-47.78,0-95.56.02-143.34.06-24.62,0-49.23-.06-73.84-.17-1.45.03-2.9-.06-4.33-.27-2.18-.38-3.61-1.6-3.6-4.02-.03-2.28,1.73-4.19,4.01-4.32,1.62-.13,3.25-.16,4.88-.09h107.51v.02Z"/>
</svg>