<?xml version="1.0" encoding="UTF-8"?>
<svg id="Layer_1" xmlns="http://www.w3.org/2000/svg" version="1.1" viewBox="0 0 2992.58 2988.7">
  <!-- Generator: Adobe Illustrator 30.3.0, SVG Export Plug-In . SVG Version: 2.1.3 Build 182)  -->
  <path d="M2816.31,100c45.31,0,82.18,36.87,82.18,82.18v1999.84c0,45.32-36.87,82.18-82.18,82.18H182.18c-45.32,0-82.18-36.87-82.18-82.18V182.18c0-45.31,36.87-82.18,82.18-82.18h2634.13M2816.31,0H182.18C81.57,0,0,81.57,0,182.18v1999.84c0,100.62,81.56,182.18,182.18,182.18h2634.13c100.62,0,182.18-81.57,182.18-182.18V182.18c0-100.62-81.57-182.18-182.18-182.18h0Z"/>
  <path d="M2472.2,2729.93v164.36H534.25v-164.36h1937.95M2478.68,2629.93H527.77c-51.65,0-93.52,41.87-93.52,93.52v177.33c0,51.65,41.87,93.52,93.52,93.52h1950.91c51.65,0,93.52-41.87,93.52-93.52v-177.33c0-51.65-41.87-93.52-93.52-93.52h0Z"/>
  <line x1="669.21" y1="2336.3" x2="586.64" y2="2678.57" fill="none" stroke="#000" stroke-linecap="round" stroke-linejoin="round" stroke-width="100"/>
  <line x1="2304.1" y1="2340.53" x2="2392.09" y2="2678.57" fill="none" stroke="#000" stroke-linecap="round" stroke-linejoin="round" stroke-width="100"/>
  <path d="M862.5,568.56c18.91,16.88,42.08,17.83,66.58,15.29,8.08-.84,15.34,4.1,16.04,12.29l2.38,27.8c6.57,125.48-61.52,243.65-173.55,302.25-46.11,24.12-97.2,36.5-150.05,35.41-44.61-.92-88.2-11.07-128.46-30.03-59.42-27.99-109.9-72.39-143.3-128.31-54.35-91.02-58.5-202.95-13.11-298.28,30.59-64.25,81.56-116.19,145.67-148.66,63.65-32.23,136.66-43.46,207.11-29.72,23.11,4.51,44.99,11.3,66.66,20.1l22.99,10.82c6.72,3.16,9.71,11.29,6.51,18.28-6.24,13.6-11.4,27.48-12.53,42.54-2.77,36.9,19.37,69.31,56.51,71.89,8.81.61,14.38,7.85,12.56,16.34-4.92,22.98.2,46.11,17.99,61.99h0ZM917.16,700.6c6.52-30.39,7.53-61.08,4.63-91.73-11.84.56-22.77.67-34.06-1.49-29.17-5.74-53.31-25-63.77-52.53-4.97-13.42-6.48-27.17-5.24-41.87-24.58-5.19-45.09-20.06-56.77-42.04-16.15-30.66-13.56-64.69-.15-96.15-89.84-41.3-186.64-39.44-273.38,7.66-27.54,14.96-52.42,33.43-73.94,56.15-53.36,56.33-83.41,131.71-81.9,209.04,1.45,74.17,31.49,144.93,83.71,198.05,39.18,39.86,88.98,68.68,143.42,82.82,68.3,17.74,140.53,8.96,202.65-23.83,23.46-12.38,45.19-27.36,64.54-45.39,45.78-42.66,77.19-97.77,90.26-158.68h0Z" stroke="#000" stroke-miterlimit="10" stroke-width="49"/>
  <ellipse cx="471.71" cy="588.72" rx="37.06" ry="36.66" stroke="#000" stroke-miterlimit="10"/>
  <ellipse cx="700.95" cy="816.95" rx="36.95" ry="36.55" stroke="#000" stroke-miterlimit="10"/>
  <ellipse cx="510.62" cy="780.98" rx="36.93" ry="36.53" stroke="#000" stroke-miterlimit="10"/>
  <ellipse cx="631.63" cy="481.68" rx="36.97" ry="36.57" stroke="#000" stroke-miterlimit="10"/>
  <ellipse cx="634.2" cy="659.46" rx="36.86" ry="36.46" stroke="#000" stroke-miterlimit="10"/>
  <ellipse cx="802.72" cy="678.89" rx="36.85" ry="36.45" stroke="#000" stroke-miterlimit="10"/>
  <path d="M762.04,2020.16l-274.89.08c-18.24,0-40.14-16.4-42.12-34.9l-40.96-383.07c-15.1-8.11-30.06-20.85-30.02-37.98l.2-76.02c.07-26.72,25.81-46.6,51.97-46.6h194.2l15.18-101.25c3.06-20.4,11.65-37.41,33.41-42.38l110.95-36.53c16.2-5.33,31.02,3.85,36.58,17.17,5.99,14.35-1.65,29.37-16.34,37.26l-106.93,34.43-13.71,91.2,149.25-.1c28.79-.02,52.98,20.56,52.99,50.52l.02,68.44c0,19.61-13.82,33.82-32.1,40.29l-40.3,369.07c-2.74,25.08-16.27,50.35-47.38,50.35h0ZM824.46,1499.85l-392.97.07v44.46l392.97-.07v-44.46ZM790.55,1603.39l-45.68-.4-280.77.63,36.95,355.95,249.06.03,40.44-356.21h0Z"/>
  <path d="M1994.82,696.59l-804.43.7c-24.87.02-41.12-17.85-42.12-40.86-1.14-26.25,15.07-46.45,42.01-46.43l801.08.09c18.83,0,30.91,23.44,32.17,37.32,1.3,14.27-5.54,49.16-28.72,49.17h0Z" stroke="#000" stroke-miterlimit="10" stroke-width="31"/>
  <path d="M2180.15,653.82c-17.71-18.34-19.79-39.77-8.47-59.32,8.73-15.08,40.52-31.63,57.85-14.01l95.36,97.01,219.37-275.38c13.92-17.48,43.6-13.46,56.64-4.1,14.57,10.44,26.25,40.23,12.4,57.61l-247.09,309.89c-18.13,22.73-47.75,31.47-70.27,8.17l-115.79-119.86h0Z" stroke="#000" stroke-miterlimit="10" stroke-width="31"/>
  <path d="M1994.82,1785.12l-804.43.7c-24.87.02-41.12-17.85-42.12-40.86-1.14-26.25,15.07-46.45,42.01-46.43l801.08.09c18.83,0,30.91,23.44,32.17,37.32,1.3,14.27-5.54,49.16-28.72,49.17h0Z" stroke="#000" stroke-miterlimit="10" stroke-width="31"/>
  <path d="M2180.15,1742.35c-17.71-18.34-19.79-39.77-8.47-59.32,8.73-15.08,40.52-31.63,57.85-14.01l95.36,97.01,219.37-275.38c13.92-17.48,43.6-13.46,56.64-4.1,14.57,10.44,26.25,40.23,12.4,57.61l-247.09,309.89c-18.13,22.73-47.75,31.47-70.27,8.17l-115.79-119.86h0Z" stroke="#000" stroke-miterlimit="10" stroke-width="31"/>
</svg>