<?xml version="1.0" encoding="UTF-8"?>
<svg id="Layer_1" xmlns="http://www.w3.org/2000/svg" version="1.1" viewBox="0 0 2992.58 2988.7">
  <!-- Generator: Adobe Illustrator 30.3.0, SVG Export Plug-In . SVG Version: 2.1.3 Build 182)  -->
  <path d="M2800.25,2975.65c-33.38,10.85-59.08,13.06-91.55,13.05l-2439.96-.37c-101.86-.02-194.25-64.2-237.93-153.25-19.16-39.06-30.83-78.53-30.81-122.61L.99,272.55C1.05,128.07,124.49,1.09,267.86,1.03L2734.63,0c137.92,11.42,257.63,128.3,257.64,272.05l.31,2447.02c.01,118.04-85.49,221.84-192.33,256.58h0ZM2903.31,2704.91l.02-2413.78c0-111.8-80.8-198.38-188.05-198.34l-2450.73.86c-90.27.03-174.01,86.79-174.04,177.95l-.76,2438.14c-.03,93.86,78.36,185.53,174.29,185.53l2463.89.07c99.32,0,175.38-92.86,175.38-190.43Z"/>
  <path d="M1546.34,2562.56c-.06,26.62-27.95,41.36-48.26,39.98-24.32-1.65-43.56-21.86-43.52-48l.35-215.39-81.5-.7c-32.27-.28-56.02-28.34-56.92-60.28l-.03-364.8c0-40.64,31.66-63.63,69.43-63.62l68.84.03.34-692.04c.01-25.42,22.81-41.47,42.9-42.8,20.89-1.38,48.38,13.41,48.4,39.72l.37,695.41,63.15-.33c36.28-.19,66.74,24.91,66.73,63.56l-.05,361.72c.64,33.25-23.9,62.84-57.54,63.28l-72.19.96-.49,223.31h0ZM1598.37,1928.8l-204.17.12.07,127.56,204.17-.12-.07-127.56h0ZM1598.32,2131.86h-204.06v128.16h204.06v-128.16h0Z"/>
  <path d="M659.5,2559.12c-.01,28.34-24.51,43.24-46.87,43.35-20.58.1-45.41-16.05-45.42-41.93l-.22-488.98-81.75-.99c-33.18-.4-58-29.33-56.99-62.31l-.32-358.64c-.03-36.48,23.11-65.22,60.84-65.47l78.25-.52.14-426.15c0-25.99,24.56-42.84,45.48-42.71,22.79.14,46.81,15.83,46.83,42.67l.22,426.37,66.95.69c28.87.3,57.55,24.22,57.58,55.4l.35,368.32c.03,33.41-23.65,61.84-57.52,62.2l-67.31.72-.23,487.99h-.01ZM706.94,1663.15l-201.93.1.06,126.01,201.93-.1-.06-126.01ZM706.91,1863.85l-201.95.11.07,128.44,201.95-.11-.07-128.44h0Z"/>
  <path d="M2341.76,2558.93c0,29.67-26.13,44.95-49.22,43.4-24.4-1.64-42.43-21.06-42.43-48.26v-686.34l-76.15-.79c-26.42-.28-54.85-25.05-54.96-53.68l-1.41-357.3c-.16-41.17,22.97-73.13,66.25-73.02l66.23.16v-219.54c-.01-25.63,16.2-44.83,39.63-48.35,22.25-3.34,51.39,11.9,51.48,38.84l.8,230.09,73.99-.28c30.67-.11,57.01,26.91,56.98,59.51l-.3,367.28c-.03,33.08-29.85,56.25-59.04,56.56l-71.73.77-.11,690.95h0ZM2195.4,1462.36l-.05,126.38,199.92.08.05-126.38-199.92-.08ZM2395.26,1663.11l-199.91.1.06,126.16,199.91-.1-.06-126.16Z"/>
  <path d="M1662.15,491.63c0,89.95-72.35,162.86-161.6,162.86s-161.6-72.92-161.6-162.86,72.35-162.86,161.6-162.86,161.6,72.92,161.6,162.86ZM1593.18,492.02c0-51.26-41.24-92.82-92.1-92.82s-92.1,41.56-92.1,92.82,41.24,92.82,92.1,92.82,92.1-41.56,92.1-92.82h0Z"/>
  <path d="M773.64,491.63c0,89.69-72.15,162.4-161.15,162.4s-161.15-72.71-161.15-162.4,72.15-162.4,161.15-162.4,161.15,72.71,161.15,162.4ZM704.99,492.06c0-51.25-41.22-92.79-92.07-92.79s-92.07,41.54-92.07,92.79,41.22,92.79,92.07,92.79,92.07-41.54,92.07-92.79h0Z"/>
  <ellipse cx="2295.27" cy="492.91" rx="78.74" ry="79.35"/>
  <path d="M644.25,923.36l-68.03-.38c-19.86-.11-32.19-20.36-32.35-37.38s12.93-37.08,32.46-37.29l66.13-.74c21.48-.24,36.81,15.74,38.5,35.03,1.77,20.08-12.28,40.89-36.71,40.76h0Z"/>
  <path d="M1518.45,923.69l-56.95-.14c-22.72-.06-39.3-16.72-39.25-37.95.05-20.97,16.63-38.22,39.18-38.14l61.51.23c20.75.08,35.52,20.1,35.47,38.01-.06,22.1-17.66,38.04-39.96,37.99h0Z"/>
  <path d="M2328.44,923.47l-66.35-.85c-22.12-.28-33.66-24.73-30.89-42.47,3.49-22.33,20.16-32.91,42.39-32.84l53.9.17c21.55.07,37.14,15.77,38.51,35.52,1.47,21.17-14.93,40.76-37.56,40.46h0Z"/>
</svg>