<?xml version="1.0" encoding="UTF-8"?>
<svg id="Layer_1" xmlns="http://www.w3.org/2000/svg" version="1.1" viewBox="0 0 1158.18 2138.24">
  <!-- Generator: Adobe Illustrator 30.1.0, SVG Export Plug-In . SVG Version: 2.1.1 Build 136)  -->
  <defs>
    <style>
      .st0 {
        fill: #231f20;
        stroke: #000;
        stroke-miterlimit: 10;
        stroke-width: 27px;
      }
    </style>
  </defs>
  <path class="st0" d="M1079.09,939.89c-25.35-98.59-127.64-136.74-216.2-158.53-2.73-.67-5.3-.79-7.77-.67-7.37-2.2-14.44-5.06-20.72-9.41-27.46-18.99-17.55-49.59-1.69-73.02,28.37-41.92,66.26-74.17,91.01-119.2,33.54-61.04,56.68-146.5,48.53-223.31.17-.78.42-1.5.57-2.28,11.3-55.92-23.29-110.32-70.87-137.1-67.84-38.18-157.41-32.81-232.77-34.77-94.44-2.46-189.35-11.76-283.39-20.87-9.15-.89-15.11,4.53-17.42,11.28-1.28-.03-2.55-.08-3.83-.1-56.23-1.23-117.9,7.99-153.63,56.47-13.31,18.07-19.46,38.13-19.49,58.06-6.77-.59-14.1,4.21-12.94,13.08,5.85,44.96,6.11,101.15,18.94,148.31.37,2.64.67,5.29,1.09,7.91,13.17,82.68,56.39,139.93,101.67,207.25,95,141.25-120.92,153.38-190.92,222.7-46.31,45.86-44.18,114.65-4.58,164.57,55.02,69.34,151.44,72.04,232.36,75.38,46.31,1.91,92.62,3.81,138.93,5.72,4.63,292.18,27.22,584.5,42.15,876.27,1.08,21.18,34.84,19.62,36.83-.83,28.23-289.85,70.77-578.1,97.31-868.17.72.03,1.45.06,2.18.09,96.76,3.99,207.07,22.29,300.89-8.95,78.41-26.11,146.08-103.03,123.75-189.86v-.02ZM235.96,275.81c4.86-18.63,22.03-31.92,29.02-44.94.41-.77.87-1.42,1.32-2.12-1.45-2.07-3.28-3.88-5.4-5.27,7.93-4.99,16.83-8.8,26.29-11.72,1.41-.51,2.84-.93,4.29-1.22,38.09-10.54,84.49-7.52,116.87-6.1,31.13,1.38,61.8,2.81,92.41,3.49,80.26,9.74,160.25,21.01,240.42,32.31,47.95,6.76,112.29,9.33,149.25,44.87,39.07,37.57,27.21,90.11-26.84,101.02-48.45,9.78-101.15,1.78-150.02-.44-61.62-2.8-123.25-5.6-184.88-8.4-60.25-2.73-121.07-2.75-181.15-7.87-32.89-2.8-79.62-14.89-104.69-41.07.78-3.95,1.76-7.89,2.66-11.84-8.69-11.54-13.65-24.99-9.55-40.71h0ZM544.36,1752.35c-8.11-206.71-16.09-413.62-33.08-619.53,31.76,1.31,63.51,2.61,95.28,3.93-25.1,204.77-42.32,410.32-62.2,615.61h0ZM1021.14,979.14c-7.5,86.29-116.65,104.23-184.22,104.29-176.02.16-352.5-12.24-528.45-17.15-38.83-1.08-79.14-1.34-115.94-15.33-36.3-13.8-75.78-48.41-70.93-91.5,5.43-48.32,62.76-69.91,101.48-85.38,39.29-15.7,83.42-27.83,115.39-57.09,37.06-33.9,47.05-85.35,28.88-131.78-12.9-32.96-36.98-60.33-58.59-87.75-27.53-34.95-49.02-72.93-61.09-115.99-10.23-36.5-13.31-72.31-10.89-107.67,48.03,37.93,114.14,38.96,173.12,43.02,80.41,5.53,160.91,9.84,241.36,14.6,70.02,4.15,145.92,17.42,215.76,6.45,20.91-3.28,41.56-9.87,59.12-20.44-.51,4.31-1.09,8.63-1.83,12.98-9.18,54.15-30.26,108.29-61.69,153.37-41.67,59.79-153.35,149.93-64.48,223.12,8.76,7.22,20.18,13.99,32.74,19.34,2.8,7.13,8.29,13.04,17.08,15.68,64.43,19.33,180.99,47.52,173.2,137.2h0Z"/>
  <path class="st0" d="M471.86,885.78c-43.98,4-91.31,29.92-132.37,45.46-3.55,1.35-1.78,7.62,1.95,6.51,42.7-12.67,95.75-20.67,133.8-44.42,3.94-2.46.37-7.9-3.39-7.56h0Z"/>
  <path class="st0" d="M603.93,914.26c-31.38,2.28-61.48,17.33-90.43,28.53-11.96,4.62-3.57,21.2,8.04,17.71,29.82-8.97,62.03-15.65,88.27-33.15,6.72-4.48.7-13.58-5.88-13.1h0Z"/>
  <path class="st0" d="M810.78,945.2c-2.75-4.28-7.21-5.08-11.85-3.66-10.51,3.22-20.53,7.38-30.71,11.53-14.36,5.85-3.73,29.13,9.93,21.88,10.45-5.56,20.74-11.03,30.66-17.51,3.88-2.53,4.27-8.67,1.97-12.24h0Z"/>
</svg>