<?xml version="1.0" encoding="UTF-8"?>
<svg id="_Слой_1" xmlns="http://www.w3.org/2000/svg" version="1.1" viewBox="0 0 500 500">
  <!-- Generator: Adobe Illustrator 30.1.0, SVG Export Plug-In . SVG Version: 2.1.1 Build 136)  -->
  <defs>
    <style>
      .st0 {
        stroke: #000;
        stroke-miterlimit: 10;
        stroke-width: 7px;
      }
    </style>
  </defs>
  <path class="st0" d="M155.73,49.4c0-2.49-.16-4.53,0-6.55,1-11.73,11.93-17.79,22.61-12.46,4.9,2.45,7.3,6.71,7.76,12,.19,2.15.05,4.34.06,7.13,15.93.06,31.59,0,47.77-.13v-6.35c.05-11,10.77-18.32,22.16-13.23,4.77,2.14,7.2,6.4,7.64,11.55.21,2.44.05,4.91.06,7.66l47.88-.16c.08-2.06.13-4.05.23-6,.45-9,6.15-14.7,14.81-14.82,8.06-.22,14.87,5.95,15.43,14,.14,2.16,0,4.33,0,6.76,1.66.12,2.95.28,4.24.28,10.56,0,21.12.25,31.66-.12,12.42-.43,27.58,9.89,27.6,26.82,0,48,.28,96,.43,144.06.22,69.47.43,138.94.63,208.41.01,2.77-.15,5.53-.5,8.28-1.51,11.84-12.11,21.73-26.1,21.76-32.4.08-64.81.18-97.22.3l-162.34.55c-11.27,0-19.2-5.19-24.22-14.89-1.58-3.31-2.33-6.95-2.2-10.61-.08-36.11-.2-72.19-.36-108.24-.28-82.9-.57-165.8-.86-248.7-.05-11.46,5.26-19.57,15.39-24.55,3.38-1.47,7.02-2.23,10.71-2.24,10.7-.33,21.41-.19,32.11-.25,1.35,0,2.67-.14,4.62-.26h0ZM155.67,59.54c-13.45,0-26.09-.12-38.7.21-6.37.17-12.16,5.26-13.68,11.45-.68,2.98-.99,6.03-.93,9.08.34,116.62.71,233.24,1.12,349.85,0,1.31,0,2.63.07,3.94.69,9,7.22,15,16.38,15.18h5.35l245.72-.71c3.42,0,6.84,0,10.26-.14,8.35-.16,15.14-6.79,15.5-15.13.08-1.31,0-2.62,0-3.94-.34-103.48-.67-206.96-1-310.43-.05-14.31-.13-28.61-.1-42.91,0-5.12-1.6-9.4-5.54-12.84-3.4-2.94-7.78-4.5-12.27-4.37-10.86,0-21.71,0-32.56.07-1.07.09-2.13.25-3.17.48,0,4,0,7.8.05,11.58.03,4-1.45,7.86-4.13,10.83-5.5,6.45-17.13,6.13-22.42-.49-2.49-3.11-3.8-7.01-3.69-11v-11.07l-48.13.16c0,4.43.09,8.63,0,12.83-.11,6.83-5.5,13.37-11.61,14.21-8.28,1.16-14.8-2.38-17.19-9.75-.55-2.1-.86-4.27-.91-6.44-.32-3.57.45-7.21-.55-10.72l-47.35.16c0,4.48.11,8.68,0,12.88-.2,6.86-5.07,12.69-11.79,14.1-7.89,1.39-14.24-1.61-17.13-8.55-.89-2.3-1.39-4.73-1.5-7.19-.25-3.6-.08-7.23-.1-11.33h0ZM253.84,57.47h-.04"/>
  <path class="st0" d="M299.35,164.93l-51.23.17c-1.19.06-2.38.03-3.56-.09-2.46-.18-4.37-2.24-4.36-4.71.02-2.47,1.83-4.55,4.27-4.91,1.03-.13,2.07-.18,3.11-.14l103.35-.32h2.23c3,.28,5.14,2.4,5,5-.18,2.6-2.3,4.65-4.91,4.73-.73.07-1.48,0-2.22,0l-51.68.17v.1h0Z"/>
  <path class="st0" d="M163.48,200.48c4.74-5,8.32-8.86,12-12.61,8.18-8.25,16.43-16.44,24.65-24.65.62-.65,1.29-1.25,2-1.8,2.36-1.79,4.72-1.84,6.45-.2,2,1.77,2.19,4.83.43,6.83-.07.07-.13.15-.21.22-2.27,2.51-4.65,4.92-7.05,7.3-10.55,10.47-21.11,20.93-31.69,31.38-.53.51-1,1-1.61,1.51-3.79,3.27-6,3.24-9.55-.25-5.68-5.56-11.35-11.14-17-16.75-1.31-1.19-2.53-2.46-3.66-3.81-1.45-1.61-1.39-4.07.15-5.6,1.94-2.32,4.6-2.59,7-.5,2.21,1.95,4.32,4,6.33,6.15,3.73,3.95,7.37,8,11.76,12.78h0Z"/>
  <path class="st0" d="M273.91,215.7l-25.87.09c-1.19.05-2.38.03-3.56-.07-2.48-.33-3.93-1.72-4.21-3.83-.39-2.27.93-4.49,3.12-5.21,1.27-.4,2.6-.59,3.93-.57,17.84-.09,35.68-.15,53.51-.18.74-.03,1.49,0,2.23.08,2.42.36,4.23,2.43,4.26,4.88-.06,2.46-1.98,4.47-4.43,4.65-1.77.17-3.57,0-5.35.06l-23.63.08v.02h0Z"/>
  <path class="st0" d="M301.79,322.36l-51.23.17c-1.19.06-2.38.03-3.56-.09-2.46-.18-4.37-2.24-4.36-4.71.02-2.47,1.83-4.55,4.27-4.91,1.03-.13,2.07-.18,3.11-.14l103.35-.32h2.23c3,.28,5.14,2.4,5,5-.18,2.6-2.3,4.65-4.91,4.73-.73.07-1.48,0-2.22,0l-51.68.17v.1h0Z"/>
  <path class="st0" d="M165.92,357.91c4.74-5,8.32-8.86,12-12.61,8.18-8.25,16.43-16.44,24.65-24.65.62-.65,1.29-1.25,2-1.8,2.36-1.79,4.72-1.84,6.45-.2,2,1.77,2.19,4.83.43,6.83-.07.07-.13.15-.21.22-2.27,2.51-4.65,4.92-7.05,7.3-10.55,10.47-21.11,20.93-31.69,31.38-.53.51-1,1-1.61,1.51-3.79,3.27-6,3.24-9.55-.25-5.68-5.56-11.35-11.14-17-16.75-1.31-1.19-2.53-2.46-3.66-3.81-1.45-1.61-1.39-4.07.15-5.6,1.94-2.32,4.6-2.59,7-.5,2.21,1.95,4.32,4,6.33,6.15,3.73,3.95,7.37,8,11.76,12.78h0Z"/>
  <path class="st0" d="M276.35,373.13l-25.87.09c-1.19.05-2.38.03-3.56-.07-2.48-.33-3.93-1.72-4.21-3.83-.39-2.27.93-4.49,3.12-5.21,1.27-.4,2.6-.59,3.93-.57,17.84-.09,35.68-.15,53.51-.18.74-.03,1.49,0,2.23.08,2.42.36,4.23,2.43,4.26,4.88-.06,2.46-1.98,4.47-4.43,4.65-1.77.17-3.57,0-5.35.06l-23.63.08v.02h0Z"/>
</svg>