<?xml version="1.0" encoding="UTF-8"?>
<svg id="_ÎÓÈ_1" data-name=" ÎÓÈ 1" xmlns="http://www.w3.org/2000/svg" viewBox="0 0 1415.9 1676.47">
  <defs>
    <style>
      .cls-1 {
        fill: #231f20;
      }

      .cls-2 {
        fill: #fff;
      }
    </style>
  </defs>
  <g>
    <g>
      <path d="M1259.69,1523.64l-962.9,152.01c-36.38,5.74-70.65-19.18-76.39-55.56L.82,229.22c-5.74-36.38,19.18-70.65,55.56-76.39L1019.29.82c36.38-5.74,70.65,19.18,76.39,55.56l219.57,1390.86c5.74,36.38-19.18,70.65-55.56,76.39h0ZM60.33,177.79c-22.61,3.57-38.11,24.87-34.54,47.49l219.57,1390.86c3.57,22.61,24.87,38.11,47.49,34.54l962.9-152.01c22.61-3.57,38.11-24.88,34.54-47.49L1070.72,60.33c-3.57-22.61-24.87-38.11-47.48-34.54L60.33,177.79Z"/>
      <path d="M1180.85,1371.6l-213.98,33.78c-6.89,1.09-13.36-3.62-14.45-10.51s3.62-13.36,10.51-14.45l213.98-33.78c6.89-1.09,13.36,3.62,14.45,10.51s-3.62,13.36-10.51,14.45Z"/>
      <path d="M859.89,1422.27l-534.95,84.45c-6.89,1.09-13.36-3.62-14.45-10.51s3.62-13.36,10.51-14.45l534.95-84.45c6.89-1.09,13.36,3.62,14.45,10.51s-3.62,13.36-10.51,14.45Z"/>
      <path d="M1155.52,1211.11l-481.45,76c-6.89,1.09-13.36-3.62-14.45-10.51s3.62-13.36,10.51-14.45l481.45-76c6.89-1.09,13.36,3.62,14.45,10.51s-3.62,13.36-10.51,14.45Z"/>
      <path d="M567.08,1304.01l-267.47,42.22c-6.89,1.09-13.36-3.62-14.45-10.51-1.09-6.89,3.62-13.36,10.51-14.45l267.47-42.22c6.89-1.09,13.36,3.62,14.45,10.51s-3.62,13.36-10.51,14.45Z"/>
    </g>
    <path d="M1135.13,1081.94l-213.98,33.78c-6.89,1.09-13.36-3.62-14.45-10.51s3.62-13.36,10.51-14.45l213.98-33.78c6.89-1.09,13.36,3.62,14.45,10.51s-3.62,13.36-10.51,14.45Z"/>
    <path d="M814.16,1132.61l-534.95,84.45c-6.89,1.09-13.36-3.62-14.45-10.51s3.62-13.36,10.51-14.45l534.95-84.45c6.89-1.09,13.36,3.62,14.45,10.51s-3.62,13.36-10.51,14.45Z"/>
    <path d="M1109.79,921.46l-481.45,76c-6.89,1.09-13.36-3.62-14.45-10.51s3.62-13.36,10.51-14.45l481.45-76c6.89-1.09,13.36,3.62,14.45,10.51s-3.62,13.36-10.51,14.45Z"/>
    <path d="M521.35,1014.35l-267.47,42.22c-6.89,1.09-13.36-3.62-14.45-10.51s3.62-13.36,10.51-14.45l267.47-42.22c6.89-1.09,13.36,3.62,14.45,10.51s-3.62,13.36-10.51,14.45h0Z"/>
    <path d="M1085.51,767.62l-213.98,33.78c-6.89,1.09-13.36-3.62-14.45-10.51s3.62-13.36,10.51-14.45l213.98-33.78c6.89-1.09,13.36,3.62,14.45,10.51s-3.62,13.36-10.51,14.45h0Z"/>
    <path d="M764.54,818.29l-534.95,84.45c-6.89,1.09-13.36-3.62-14.45-10.51s3.62-13.36,10.51-14.45l534.95-84.45c6.89-1.09,13.36,3.62,14.45,10.51s-3.62,13.36-10.51,14.45Z"/>
    <path d="M1060.17,607.13l-481.45,76c-6.89,1.09-13.36-3.62-14.45-10.51s3.62-13.36,10.51-14.45l481.45-76c6.89-1.09,13.36,3.62,14.45,10.51s-3.62,13.36-10.51,14.45h0Z"/>
    <path d="M471.73,700.02l-267.47,42.22c-6.89,1.09-13.36-3.62-14.45-10.51s3.62-13.36,10.51-14.45l267.47-42.22c6.89-1.09,13.36,3.62,14.45,10.51s-3.62,13.36-10.51,14.45h0Z"/>
    <path d="M1036.09,460.2l-213.98,33.78c-6.89,1.09-13.36-3.62-14.45-10.51s3.62-13.36,10.51-14.45l213.98-33.78c6.89-1.09,13.36,3.62,14.45,10.51s-3.62,13.36-10.51,14.45Z"/>
    <path d="M715.12,510.87l-534.95,84.45c-6.89,1.09-13.36-3.62-14.45-10.51s3.62-13.36,10.51-14.45l534.95-84.45c6.89-1.09,13.36,3.62,14.45,10.51s-3.62,13.36-10.51,14.45Z"/>
    <path d="M1010.75,299.71l-481.45,76c-6.89,1.09-13.36-3.62-14.45-10.51s3.62-13.36,10.51-14.45l481.45-76c6.89-1.09,13.36,3.62,14.45,10.51s-3.62,13.36-10.51,14.45Z"/>
    <path d="M422.31,392.61l-267.47,42.22c-6.89,1.09-13.36-3.62-14.45-10.51s3.62-13.36,10.51-14.45l267.47-42.22c6.89-1.09,13.36,3.62,14.45,10.51s-3.62,13.36-10.51,14.45Z"/>
    <path d="M988.43,152.66l-213.98,33.78c-6.89,1.09-13.36-3.62-14.45-10.51s3.62-13.36,10.51-14.45l213.98-33.78c6.89-1.09,13.36,3.62,14.45,10.51s-3.62,13.36-10.51,14.45Z"/>
    <path d="M667.46,203.33l-534.95,84.45c-6.89,1.09-13.36-3.62-14.45-10.51s3.62-13.36,10.51-14.45l534.95-84.45c6.89-1.09,13.36,3.62,14.45,10.51s-3.62,13.36-10.51,14.45h0Z"/>
  </g>
  <g>
    <rect class="cls-2" x="315.61" y="83.42" width="1087.48" height="1495.31" rx="58.61" ry="58.61"/>
    <g>
      <g>
        <path d="M873.51,498.74c-4.88,0-9.53-2.85-11.6-7.61l-100.24-231.14c-2.49-5.73-7.05-10.16-12.87-12.46-5.81-2.3-12.17-2.2-17.9.28l-405.79,176.06c-6.41,2.78-13.85-.16-16.62-6.56-2.78-6.4.16-13.84,6.56-16.62l405.8-176.07c24.65-10.66,53.35.69,64.01,25.31l100.24,231.14c2.77,6.4-.16,13.84-6.57,16.62-1.64.71-3.35,1.05-5.03,1.05h.01Z"/>
        <path d="M730.11,1020.13c-2.48,0-4.97-.07-7.46-.2-79.7-4.31-156.55-30.73-222.24-76.38-65.58-45.62-117.04-108.48-148.82-181.8l-43.11-99.32c-2.78-6.4.16-13.85,6.56-16.63s13.84.16,16.63,6.56l43.11,99.32c29.91,69.01,78.34,128.17,140.06,171.1,61.83,42.97,134.16,67.83,209.18,71.9,36.13,1.93,71.54-13.42,94.75-41.1,22.08-26.34,40.66-55.27,55.24-85.95,2.99-6.31,10.54-9,16.83-5.99,6.3,2.99,8.99,10.53,5.99,16.83-15.49,32.63-35.24,63.36-58.7,91.35-26.69,31.83-66.63,50.3-108.02,50.3h0Z"/>
        <path d="M922.85,655.61c-5.4,0-10.39-3.48-12.06-8.91v-.03c-2.06-6.67,1.68-13.74,8.35-15.8s13.74,1.69,15.8,8.36c2.05,6.67-1.69,13.76-8.36,15.81-1.24.38-2.5.56-3.73.56h0Z"/>
        <path d="M450.12,596.37c-21.56,0-40.7-6.26-50.19-9.99-4.05-1.59-7.23-4.66-8.96-8.65-1.73-3.98-1.79-8.4-.19-12.44,5.82-14.7,23.06-50.49,57.2-65.3,34.13-14.8,72.04-2.94,86.76,2.84h0c4.05,1.59,7.23,4.66,8.96,8.65,1.73,3.98,1.79,8.4.19,12.44-5.82,14.7-23.06,50.49-57.2,65.29-12.11,5.25-24.71,7.15-36.57,7.15h0ZM418.13,565.95c13.92,4.22,38,8.98,58.5.08,20.5-8.89,33.48-29.73,39.91-42.77-13.91-4.22-38-8.98-58.5-.08-20.5,8.89-33.48,29.73-39.9,42.77h0ZM525.47,526.35h0Z"/>
        <path d="M648.23,510.42c-21.55,0-40.69-6.26-50.18-9.99-4.05-1.59-7.23-4.66-8.96-8.65-1.73-3.98-1.79-8.4-.19-12.44,5.82-14.7,23.06-50.49,57.2-65.29,34.14-14.81,72.04-2.94,86.76,2.84h0c4.05,1.59,7.23,4.66,8.96,8.65,1.73,3.98,1.79,8.4.19,12.44-5.83,14.7-23.06,50.49-57.19,65.29-12.12,5.26-24.71,7.16-36.57,7.16h-.02ZM616.25,479.99c13.91,4.22,38,8.98,58.5.08,20.5-8.89,33.48-29.73,39.9-42.77-13.92-4.22-38-8.97-58.49-.08-20.5,8.89-33.48,29.73-39.91,42.77h0Z"/>
        <path d="M657.91,906.11c-.75,0-1.51-.06-2.28-.2-6.87-1.25-11.42-7.83-10.17-14.7,5.52-30.36,28.19-57.56,59.14-70.99,30.95-13.42,66.29-11.39,92.23,5.3,5.87,3.78,7.56,11.59,3.79,17.46s-11.6,7.57-17.46,3.79c-18.94-12.19-45.18-13.49-68.49-3.37-23.32,10.11-40.31,30.17-44.34,52.33-1.11,6.1-6.43,10.38-12.42,10.38h0Z"/>
      </g>
      <g>
        <path d="M1240.97,1112.42c-2.48,0-4.97-.07-7.45-.2-79.73-4.32-156.56-30.74-222.19-76.38-57.67-40.05-105.11-94.35-137.15-157.03-4.16-8.04-8.12-16.4-11.73-24.8l-118.26-272.59c-5.17-11.91-5.4-25.13-.62-37.22,4.77-12.08,13.96-21.58,25.88-26.74l462.28-200.54c24.59-10.64,53.29.67,64,25.22l118.64,273.55c.23.53.46,1.05.67,1.6,2.5,6.5-.74,13.78-7.24,16.29-6.5,2.52-13.81-.73-16.34-7.22l-.21-.47c-.19-.42-.37-.85-.54-1.28l-118.14-272.39c-5.14-11.79-18.96-17.24-30.77-12.12l-462.28,200.54c-5.72,2.48-10.13,7.04-12.42,12.84-2.29,5.81-2.19,12.16.3,17.87l118.28,272.63c3.4,7.88,7.09,15.7,11.01,23.27,30.18,59.04,74.82,110.14,129.1,147.82,61.78,42.97,134.09,67.83,209.13,71.91,36.01,1.89,71.49-13.43,94.76-41.11,25.59-30.52,46.44-64.46,61.96-100.86,2.73-6.42,10.15-9.41,16.58-6.67,6.42,2.74,9.4,10.16,6.67,16.58-16.5,38.69-38.66,74.76-65.85,107.2-26.75,31.83-66.69,50.3-108.03,50.3h-.04Z"/>
        <path d="M960.97,688.63c-21.56,0-40.7-6.26-50.19-9.99-4.06-1.6-7.24-4.67-8.96-8.66-1.73-3.98-1.79-8.4-.18-12.45,5.82-14.69,23.06-50.47,57.19-65.28,34.14-14.81,72.04-2.95,86.76,2.84h0c4.04,1.59,7.22,4.66,8.95,8.64,1.73,3.98,1.8,8.39.2,12.44-5.83,14.71-23.07,50.5-57.21,65.31-12.11,5.25-24.71,7.15-36.57,7.15h.01ZM925.13,666.84v.02-.02ZM928.98,658.21c13.92,4.22,38,8.97,58.49.08,20.5-8.89,33.48-29.73,39.91-42.77-13.92-4.22-37.99-8.98-58.5-.08-20.5,8.89-33.48,29.73-39.9,42.77Z"/>
        <path d="M1159.1,602.67c-21.56,0-40.7-6.26-50.19-9.99-4.04-1.59-7.22-4.65-8.95-8.63s-1.8-8.4-.2-12.45c5.83-14.71,23.07-50.5,57.2-65.31,34.14-14.81,72.04-2.95,86.76,2.84,4.05,1.59,7.24,4.67,8.96,8.65,1.73,3.98,1.79,8.41.18,12.45-5.82,14.69-23.06,50.47-57.19,65.28-12.11,5.25-24.71,7.15-36.57,7.15h0ZM1127.1,572.25c13.92,4.22,38,8.97,58.5.08,20.5-8.89,33.48-29.73,39.9-42.77-13.92-4.23-38.01-8.98-58.5-.08-20.5,8.89-33.48,29.73-39.9,42.77ZM1234.46,532.66h.05-.05ZM1229.36,520.91v.02-.02Z"/>
        <path d="M1197.67,977.49c-18.03,0-35.53-4.75-50.07-14.11-5.86-3.78-7.56-11.6-3.79-17.47,3.79-5.87,11.6-7.56,17.47-3.79,18.93,12.19,45.17,13.48,68.48,3.37,23.31-10.11,40.29-30.17,44.33-52.33,1.25-6.87,7.82-11.42,14.7-10.17,6.87,1.25,11.42,7.83,10.17,14.7-5.52,30.36-28.19,57.56-59.14,70.99-13.59,5.89-28.04,8.81-42.16,8.81h.01Z"/>
      </g>
      <path d="M1172.43,836.65c-7.99,0-15.95-1.99-23.22-5.95-13.24-7.21-22.26-19.88-24.73-34.75l-16.75-100.96c-1.15-6.88,3.51-13.39,10.4-14.53,6.9-1.15,13.39,3.51,14.53,10.4l16.76,100.96c1.18,7.15,5.51,13.23,11.88,16.69,6.36,3.46,13.82,3.8,20.46.91l23.76-10.3c6.4-2.78,13.85.16,16.63,6.57,2.77,6.4-.16,13.84-6.57,16.62l-23.76,10.31c-6.24,2.7-12.82,4.05-19.38,4.05v-.02Z"/>
      <path d="M632.38,760.29c-4.88,0-9.53-2.85-11.6-7.61-2.78-6.4.16-13.84,6.56-16.62l25.02-10.86c6.64-2.88,11.5-8.56,13.31-15.57,1.82-7.01.33-14.33-4.08-20.08l-62.27-81.18c-4.25-5.54-3.2-13.47,2.34-17.72,5.54-4.24,13.47-3.2,17.72,2.34l62.27,81.18c9.18,11.97,12.27,27.2,8.49,41.8s-13.89,26.41-27.72,32.41l-25.02,10.86c-1.64.71-3.34,1.05-5.02,1.05Z"/>
    </g>
    <path d="M1349.08,1599.82H374.25c-36.83,0-66.79-29.96-66.79-66.8V124.94c0-36.83,29.96-66.79,66.79-66.79h974.83c36.83,0,66.79,29.96,66.79,66.79v1408.08c0,36.83-29.96,66.8-66.79,66.8h0ZM374.25,83.42c-22.89,0-41.52,18.63-41.52,41.52v1408.08c0,22.89,18.63,41.52,41.52,41.52h974.83c22.89,0,41.52-18.63,41.52-41.52V124.94c0-22.89-18.62-41.52-41.52-41.52H374.25Z"/>
    <path d="M1294.92,1437.35h-216.63c-6.98,0-12.64-5.66-12.64-12.64s5.66-12.64,12.64-12.64h216.63c6.98,0,12.64,5.66,12.64,12.64s-5.66,12.64-12.64,12.64Z"/>
    <path d="M969.98,1437.35H428.41c-6.98,0-12.64-5.66-12.64-12.64s5.66-12.64,12.64-12.64h541.57c6.98,0,12.64,5.66,12.64,12.64s-5.66,12.64-12.64,12.64Z"/>
    <path d="M1294.92,1274.88h-487.41c-6.98,0-12.64-5.66-12.64-12.64s5.66-12.64,12.64-12.64h487.41c6.98,0,12.64,5.66,12.64,12.64s-5.66,12.64-12.64,12.64Z"/>
    <path d="M699.19,1274.88h-270.78c-6.98,0-12.64-5.66-12.64-12.64s5.66-12.64,12.64-12.64h270.78c6.98,0,12.64,5.66,12.64,12.64s-5.66,12.64-12.64,12.64Z"/>
  </g>
  <ellipse class="cls-2" cx="260.61" cy="1439.35" rx="159.65" ry="178.74"/>
  <path class="cls-1" d="M235.28,1209.47c-126.97,0-229.88,102.91-229.88,229.88s102.91,229.88,229.88,229.88,229.88-102.91,229.88-229.88-102.91-229.88-229.88-229.88ZM352.08,1432.81c-2.99,6.83-9.76,11.26-17.23,11.26h-61.91v137.19h-75.35v-137.19h-61.91c-7.47,0-14.18-4.42-17.23-11.26-2.99-6.83-1.67-14.76,3.33-20.27l99.58-108.94c3.56-3.91,8.61-6.14,13.9-6.14s10.34,2.24,13.9,6.14l99.58,108.94c5.05,5.51,6.32,13.44,3.33,20.27Z"/>
</svg>