<?xml version="1.0" encoding="UTF-8"?>
<svg id="_Слой_1" xmlns="http://www.w3.org/2000/svg" version="1.1" viewBox="0 0 500 500">
  <!-- Generator: Adobe Illustrator 30.3.0, SVG Export Plug-In . SVG Version: 2.1.3 Build 182)  -->
  <defs>
    <style>
      .st0 {
        stroke: #000;
        stroke-miterlimit: 10;
        stroke-width: 11px;
      }
    </style>
  </defs>
  <path class="st0" d="M434.45,158.85c.15-.71.25-1.43.31-2.16,0-15.17.12-30.34-.08-45.5-.15-10.94-6.68-19.19-17.07-21.93-2.1-.49-4.26-.73-6.42-.7-8.67-.08-29.3-.33-37.96-.33-1.33.07-2.67.03-4-.11-3.44-.56-5.93-3.59-5.81-7.07.05-3.64,2.83-6.92,6.47-7,11.33-.08,34.72-.55,45.96.66,17.86,1.93,32.73,15.19,32.95,37,.23,22.66.12,45.33.13,68,0,78.33.02,156.67.07,235,0,10-2.34,19.12-9.19,26.74-6.72,7.84-16.56,12.31-26.89,12.21-31.16.1-62.33,0-93.49,0H88.43c-5.17.17-10.32-.8-15.07-2.86-14.82-6.8-22.21-18.6-22.26-34.8-.09-33,.06-66,.06-99,0-68.16-.02-136.32-.07-204.49,0-19.24,12-34.12,30.58-37.69,1.14-.25,2.3-.38,3.46-.41,10.67,0,32.34.66,43.01.78,5.06,0,7.64,3.15,7.13,8.08-.4,3.89-2.67,5.93-7.2,6-8.83.11-28.67-.78-37.5-.71-1.67,0-3.34-.06-5,.08-11,.87-20.11,10-20.3,21.06-.27,15.66-.08,31.33-.07,47,.06.73.17,1.46.34,2.17l368.91-.02ZM65.19,172.74v243.57c0,12.82,9.33,23.72,23.06,23.34,16.48-.47,33,0,49.48,0h273.87c4.42,0,8.6-.68,12.45-3,7.79-4.71,10.75-11.9,10.75-20.65v-237.44c0-1.94-.11-3.87-.17-5.86l-369.44.04h0Z"/>
  <path class="st0" d="M180.08,82.63c0,6.32.28,12.66-.05,19-.76,14.38-13.34,27.76-30.81,23.15-9.74-2.56-17.11-12-17.32-22.6-.27-12.97-.27-25.94,0-38.93.21-11.38,8.55-21.69,18.66-23.74,15.37-3.11,29.15,7.86,29.59,23.69.18,6.49,0,13,0,19.47l-.07-.04h0ZM166.08,82.2h0v-16.45c.05-1.68-.08-3.35-.39-5-1-4.4-4.89-7.89-9-8.25s-7.91,1.93-9.75,6.3c-.94,2.11-1.48,4.38-1.58,6.69-.15,11.14-.22,22.28.07,33.41.11,2.97.96,5.87,2.49,8.42,2.82,4.59,8.45,6.72,14.12,2.08,2.71-2.3,4.19-5.74,4-9.29.04-5.94.05-11.93.05-17.91h-.01Z"/>
  <path class="st0" d="M368.32,82.64v18.48c-.1,12.37-9.19,23-20.82,24.34-12.47,1.38-23.97-6.87-26.64-19.13-.47-1.94-.72-3.92-.75-5.92-.07-11.82-.11-23.64,0-35.47,0-7.56,3.1-14.79,8.59-20,8.53-8.52,28.22-9.08,36.28,6.35,2.17,3.96,3.31,8.4,3.31,12.92-.08,6.16,0,12.32,0,18.48l.03-.05h0ZM334,82h0v16.5c-.02,1.17.03,2.33.14,3.49.52,5.15,4.49,9.28,9.61,10,4.23.48,8.53-2.84,10.18-8,.48-1.41.74-2.89.78-4.38.05-11.33.2-22.66-.13-34-.17-3.13-1.13-6.18-2.79-8.84-3.48-5.6-10.59-5.71-14.81-.6-1.97,2.31-3.03,5.26-3,8.29.08,5.92.02,11.75.02,17.54h0Z"/>
  <path class="st0" d="M250,88.51h-65.3c-1.65.09-3.3-.11-4.88-.58-2.75-1-4.42-4.44-4-7.37.54-3.02,2.84-5.43,5.83-6.11.67-.05,1.33-.05,2,0l133.21-.03c5.32,0,8.27,3.16,7.76,8-.28,3.09-2.65,5.57-5.72,6-1.16.12-2.33.15-3.49.09l-65.41.02s0-.02,0-.02Z"/>
  <path class="st0" d="M256.53,352.02v44.29c.02,2.83-.18,5.66-.59,8.46-.3,2.94-2.6,5.28-5.53,5.64-3.13.25-6-1.74-6.87-4.75-.52-1.92-.76-3.91-.71-5.9-.08-14-.08-28-.1-42v-5.76h-72.84v49.46c0,5.49-2.45,8.93-6.45,9-3.33.09-7.08-3.2-7-9.22.3-14.49.11-29,.12-43.49v-5.87c-2.2-.1-4-.24-5.75-.25h-43.44c-1.33.07-2.67.03-4-.13-3.21-.69-5.52-3.5-5.58-6.78.25-3.28,2.81-5.92,6.09-6.25,1.33-.1,2.67-.12,4-.06h47.85c1.06-3.73,1.36-61.59.34-68.59h-48.23c-1.17,0-2.34.06-3.5,0-3.85-.28-6.52-2.79-6.63-6.16.12-3.28,2.46-6.05,5.67-6.72,1.48-.23,2.98-.31,4.48-.24h48.49c.11-2,.27-3.81.27-5.57v-38.5c-.06-1.49.06-2.99.37-4.45.95-3.48,4.55-5.54,8.03-4.59,2.48.68,4.34,2.75,4.74,5.3.14,1.33.18,2.67.12,4v42.83c3.81,1.18,63.58,1.57,72.51.51.08-1.67.25-3.43.26-5.19,0-12.33,0-24.66.06-37-.05-1.67.05-3.34.29-5,.68-3.79,3.48-6.14,6.85-6s5.87,2.79,6.06,6.72c.28,5.66.45,11.33.5,17,.08,9.8,0,19.59,0,29.64h72.38v-43c-.05-1.66.1-3.32.45-4.94.45-3.7,3.81-6.33,7.5-5.88,3.35.41,5.88,3.23,5.93,6.6.16,1.49.21,2.99.14,4.49v42.68c2.16.1,3.78.24,5.4.24h42.49c1.33-.05,2.67-.03,4,.08,4,.51,6.42,3.33,6.25,7.09-.16,3.55-2.59,5.83-6.64,6s-8.34.05-12.5.05h-38.74v68.62h48.11c1.5-.08,2.99-.02,4.48.16,3.54.7,5.84,4.13,5.14,7.67-.5,2.54-2.46,4.55-4.98,5.11-1.48.24-2.98.32-4.47.24h-48.61v48.72c.05,1.98-.25,3.95-.87,5.83-.89,2.65-3.41,4.4-6.2,4.32-2.94-.12-5.45-2.15-6.19-5-.44-1.94-.63-3.94-.56-5.93v-46.49c-.07-.36-.18-.72-.34-1.05h-72.05,0ZM242.47,270.18h-72.25v68h72.25v-68ZM256.83,270.18c-1.32,4.72-.87,63.21.52,67.95,8.18,1,67.69.63,71.16-.43v-67.61l-71.68.09h0Z"/>
</svg>