<?xml version="1.0" encoding="UTF-8"?>
<svg id="_Слой_1" xmlns="http://www.w3.org/2000/svg" version="1.1" viewBox="0 0 500 500">
  <!-- Generator: Adobe Illustrator 30.1.0, SVG Export Plug-In . SVG Version: 2.1.1 Build 136)  -->
  <defs>
    <style>
      .st0 {
        stroke: #000;
        stroke-miterlimit: 10;
        stroke-width: 7px;
      }
    </style>
  </defs>
  <path class="st0" d="M397.45,370.72H94.59v54.86c0,.94.06,1.89,0,2.82-.17,3.27-2.73,5.91-6,6.19-2.91.24-5.84.24-8.75,0-3.83-.33-6.06-3.22-6.06-7.38v-56.47c-1.33-.06-2.35-.14-3.36-.15-6.37,0-12.74,0-19.1-.11-1.76-.04-3.5-.38-5.14-1-2.15-.72-3.69-2.63-3.94-4.88-.28-2.27-.28-4.57,0-6.84.4-3.26,2.56-5.12,5.7-5.87.59-.14,1.2-.22,2.07-.38V80.33c0-5.67,3.17-9,8.87-9,7.09-.06,14.19,0,21.29,0h352.82c6.18-.07,9.3,4.28,9.25,9.47-.11,10.22,0,20.45,0,30.68v239.81c1.12.36,2,.6,2.87.92,2.88.92,4.83,3.62,4.79,6.65.05,1.14,0,2.29,0,3.44-.06,5-3.12,8.13-8.24,8.18-7.62.06-15.24,0-23.21,0-.14,2.92-.4,5.89-.41,8.87,0,4.69.2,9.39.18,14.08-.05,11.68-.14,23.35-.29,35-.04,3.41-2.82,6.15-6.23,6.14-2.61.1-5.22.1-7.83,0-3.88-.18-6.33-2.76-6.35-6.69-.05-7.62,0-15.24,0-22.86v-30.06l-.06-4.24h0ZM55.89,351.49c8.82.77,377.64.42,380.42-.41V81.7c0-3.58-.65-4.17-4.19-4.17H58.64c-1.9.17-2.59.84-2.73,2.71-.06.73,0,1.46,0,2.19v264.85l-.02,4.21ZM246.14,364.32h194.15c3.39,0,3.81-.45,3.68-3.77-.1-2.38-.55-2.82-3-2.92H50.75c-2,.13-2.36.48-2.49,2.4v1.56c.1,2.32.51,2.72,2.79,2.72h195.09ZM79.71,370.72v52.56c0,5.92-1.09,5.43,5.53,5.4,3.3,0,3.5-.22,3.5-3.61,0-17.41-.02-34.82-.06-52.23-.05-.71-.15-1.42-.3-2.12h-8.67ZM403.56,370.72c-.05,1.15-.14,2.17-.14,3.18v53.11c0,1.18.64,1.67,1.77,1.66l5.31-.05c.77.09,1.47-.46,1.57-1.23.01-.1.01-.2,0-.31v-53.1c0-1-.11-2-.17-3.26h-8.34,0Z"/>
  <path class="st0" d="M208.95,167.01v16.28c0,3.83-1.15,5-5.09,5-5.32.06-10.64.05-16,.05h-50.41c-3-.17-4.34-1.51-4.36-4.54s0-6,0-9.06v-21.9c0-8.76.07-17.52.09-26.28,0-2.73,1.3-4,4.36-4h22.01c0-.86,0-1.47.13-2.06.28-2,1.42-3.3,3.47-3.33,5.53-.09,11.06,0,16.59,0,1.54-.03,2.86,1.07,3.11,2.59.2.8.25,1.64.43,2.85h20.85c3.51,0,4.71,1.17,4.72,4.68.05,8.87.1,17.74,0,26.61l.1,13.11h0ZM290.79,128.74v-2.19c.24-2.67,1.51-3.92,4.24-4h21.75c.23-.33.43-.48.45-.66.47-4.11,1.17-4.75,5.31-4.76h12.52c4.67,0,5.1.36,5.88,5.26.82,0,1.71.16,2.61.16,6.26,0,12.52.08,18.78,0,2.58,0,4.48,1.17,4.5,4.37.06,11.68.11,23.37.08,35.05,0,7.29-.15,14.59-.26,21.88,0,3.47-1.24,4.62-4.8,4.63h-66.06c-3.55,0-5-1.34-5-4.89-.1-5.74-.06-11.48-.1-17.22l.1-37.63M290.61,281.41c.06-.93.13-1.55.13-2.17l.06-25.67c0-.93-.06-1.88,0-2.81.17-2.87,1.48-4.14,4.31-4.23l17.93-.04h3.78c.33-.48.53-.63.55-.81.53-4.27.94-4.64,5.29-4.65h12.53c4.31,0,4.81.46,5.27,4.66.1.32.25.62.42.9h3.19c6.15,0,12.31-.07,18.47-.05,3.12,0,4.33,1.27,4.33,4.37,0,18.37-.15,36.74-.05,55.11,0,4.75-.83,6.54-6.73,6.27-3.84-.19-7.71.07-11.57,0-6.14-.05-12.29-.24-18.44-.23-7.51,0-15,.17-22.53.24h-11.88c-3.12,0-4.78-1.55-4.83-4.85-.09-5.32,0-10.64,0-16v-3.22l-.23-6.82h0ZM208.91,288.72v18.65c0,3.52-1.15,4.62-4.72,4.68h-7.52c-6.36.07-12.72.26-19.09.24-13.14,0-26.29-.16-39.43-.27-4,0-5.08-1.4-5-5.37.13-5.83,0-11.67,0-17.51,0-7.3.03-14.6.1-21.91,0-1,.07-2.08.08-3.13v-12.21c0-4.59.74-5.32,5.21-5.34,5.74,0,11.48,0,17.22-.06h3c1.54-5.42,1.61-5.46,7.23-5.46h11c4.7,0,5.14.37,5.88,5.26,1.87.19,3.7.33,5.48-.14l17.02.45c1.76-.08,3.28,1.24,3.44,3,.09.72.12,1.45.08,2.18v26.29c0,.52.05,1,0,1.56l.02,9.09h0ZM360.58,182.09v-53.68h-3.57c-8.23.14-16.45.4-24.68.39-10.63,0-21.25-.26-31.88-.39-1.1,0-2.2.1-3.47.16,0,18-.1,35.7.13,53.48l63.47.04ZM139.96,252.5c-.2.17-.32.22-.36.3-.16.26-.27.54-.33.84-.06.72-.06,1.45-.06,2.18.06,16.58.12,33.16.19,49.73,0,.08.12.16.19.24l.22.21c6.53.6,60.69.28,63.23-.43-.08-17.61,0-35.28-.08-53.09h-3.24c-6.75.25-13.49,0-20.27.55-6.74.48-13.52.35-20.24-.39-6.39-.69-12.91-.14-19.25-.14h0ZM316.44,252.49c-4-.14-7.92,0-11.89,0l-7.39-.02v53.26c4,.72,61.15.57,63.46-.14.62-7.37.32-50.75-.39-53.1h-43.79,0ZM202.83,128.26c-10.8.23-21.31.52-31.82.65s-21-1-31.6-.31v53.38h63.42v-53.72ZM166.33,122.85v.12h9.66v-.12h-9.66ZM333.24,123.05v-.17h-9.2v.22l9.2-.05ZM175.31,247.15v-.15h-9v.15h9ZM333.26,247.12v-.18h-9.17v.18h9.17Z"/>
</svg>