<?xml version="1.0" encoding="UTF-8"?>
<svg id="Layer_1" xmlns="http://www.w3.org/2000/svg" version="1.1" viewBox="0 0 1853.63 1949">
  <!-- Generator: Adobe Illustrator 30.1.0, SVG Export Plug-In . SVG Version: 2.1.1 Build 136)  -->
  <defs>
    <style>
      .st0 {
        stroke: #000;
        stroke-miterlimit: 10;
        stroke-width: 57px;
      }
    </style>
  </defs>
  <path class="st0" d="M817.77,938.59c-1.14,58.53-31.56,116.1-86.9,138.87-22.74,9.36-45.94,8.88-69.79,8.88H250.45c-83.43,0-138.94-70.56-138.94-152.07V316.1c0-60.98.67-118.04,48.27-164.34,45.12-43.88,113.37-33.72,170.56-33.72h246.59c51.48,0,118.27-10.04,165.68,14.54,48.12,24.94,75.16,79.99,75.16,133.41v672.62c0,34.19,52.32,34.19,52.32,0V345.46c0-47.88,3.99-98.21-9.88-144.54-16.26-54.39-57.33-101.25-109.31-122.64-26.82-11.03-54.28-13.28-82.75-13.28H255.19c-94.61,0-171.07,62.55-191.5,156.81-9.27,42.78-4.5,91.23-4.5,134.62v479.99c0,41.18-2.7,83.52,1.3,124.59,9.76,100.22,90.18,178.34,189.96,178.34h410.64c24.13,0,47.39-.36,71.1-6.55,54.44-14.21,98.51-58.53,120.56-109.74,11.55-26.86,16.78-55.26,17.35-84.49.66-34.21-51.65-34.14-52.32,0h0Z"/>
  <path class="st0" d="M817.77,1696.45c-1.35,61.04-39.59,112.1-97.37,129.59-20.77,6.3-43.15,4.79-64.62,4.79H247.99c-43.84,0-84.65-18.86-111.01-54.97-22.33-30.6-25.48-65.15-25.48-101.52v-219.39c0-85.32,60.61-143.22,143.69-143.22h412.97c39.33,0,75.19,7.23,105.9,34.62,36.15,32.25,43.73,75.96,43.73,121.88v228.19c0,34.19,52.32,34.19,52.32,0v-197.56c0-26.93,1.79-54.92-2.38-81.62-9.12-58.25-44.53-107.72-95.17-136.32-53.1-29.98-119.29-22.23-177.88-22.23h-246.85c-55.61,0-119.77-7.62-172.45,13.59-53.94,21.74-93.08,68.11-109.58,124-8.53,28.92-6.6,60.1-6.6,89.94v208.89c0,104.1,84.52,188.72,186.94,188.72h335.35c36.96,0,74,.67,110.96-.16,99.49-2.27,175.5-89.3,177.68-187.25.76-34.21-51.57-34.14-52.32,0h-.03Z"/>
  <path class="st0" d="M1743.24,511.67c-1.36,61.04-39.6,112.09-97.37,129.59-20.98,6.36-43.67,4.79-65.36,4.79h-400.81c-50.92,0-94.6-27.97-119.15-72.61-15.93-28.98-14.79-61.05-14.79-92.91v-219.69c0-85.41,61.1-142.83,143.98-142.83h409.51c45.3,0,83.77,14.31,114.3,49.48,28.75,33.11,29.68,74.84,29.68,116.04v228.14c0,34.19,52.32,34.19,52.32,0v-195.14c0-23.81.37-47.67-.16-71.48-1.33-59.75-33.6-112.22-80.01-147-53.55-40.14-121.84-33.06-184.42-33.06h-246.65c-56.21,0-121.4-7.86-174.66,13.59-53.94,21.74-93.08,68.1-109.58,124-8.39,28.46-6.6,59.03-6.6,88.38v215.86c0,104.05,80.75,192.26,185.26,192.26h325.98c37.71,0,75.49.7,113.18-.16,99.48-2.27,175.5-89.31,177.68-187.25.76-34.21-51.57-34.14-52.32,0h0Z"/>
  <path class="st0" d="M1743.24,1696.45c-1.36,61.04-39.59,112.1-97.37,129.59-20.98,6.36-43.67,4.79-65.36,4.79h-400.81c-50.92,0-94.6-27.96-119.15-72.6-13.03-23.68-14.79-49.92-14.79-76.27v-601.02c0-81.8,60.87-140.18,140.6-140.18h408.96c31.67,0,60.31,4.69,88.03,21.97,38.57,24.04,59.87,69.62,59.87,114.55v619.16c0,34.19,52.32,34.19,52.32,0v-621.21c0-56.73-26.02-110.67-69.41-146.19-55.51-45.43-120.66-41.29-187.01-41.29h-245.56c-54.82,0-117.72-7.43-170.99,8.72-85.14,25.8-129.11,107.74-129.11,193.17v601.02c0,101.34,71.5,181.23,170.48,192.55,39.34,4.5,80.92.65,120.36.65h326.32c102.35,0,182.68-85.46,184.93-187.43.76-34.21-51.57-34.14-52.32,0h0Z"/>
</svg>