<svg id="Слой_1" data-name="Слой 1" xmlns="http://www.w3.org/2000/svg" viewBox="0 0 500 500"><path d="M77.86,252.49q0-93.84,0-187.69a32.69,32.69,0,0,1,4.75-17.75c5.1-8.16,12.65-12.5,22.17-13.48a35.39,35.39,0,0,1,3.57,0l235.31,0c10.87,0,7.93-.72,15.77,6.19,9.91,8.73,19.14,18.23,28.7,27.35,7.46,7.12,15,14.17,22.47,21.26,2.31,2.18,4.66,4.32,6.81,6.65a16.58,16.58,0,0,1,4.84,11.74q-.14,92.85-.06,185.7c0,49.47.08,98.94-.05,148.41,0,12.79-6.23,22.14-17.72,27.79a26.78,26.78,0,0,1-11.91,2.57q-109.32-.06-218.64-.07c-21.95,0-43.92-.34-65.86.1-15.09.3-30.35-13.06-30.29-30.65.21-62.7.08-125.39.08-188.09ZM345.16,41.84H180.89c-23.94,0-47.87,0-71.81,0-6.4,0-12.25,1.68-16.85,6.56A21.55,21.55,0,0,0,86.4,64q.07,45,0,90.06,0,122.39,0,244.78c0,14.14,0,28.29,0,42.44a20,20,0,0,0,3.51,12c4.73,6.62,11.27,9.68,19.37,9.68q120.21,0,240.41,0c13.89,0,27.78.06,41.66,0,10.87-.08,19.66-7.14,21.63-17.38a44.09,44.09,0,0,0,.38-8.3q0-114.45,0-228.91,0-48,0-96c0-1.53-.09-3.06-.13-4.43a6.55,6.55,0,0,0-1.25-.36c-11.89-.06-23.78-.06-35.67-.16a73.83,73.83,0,0,1-11.44-.57c-10.95-1.83-19.3-10.79-19.39-23.16-.07-11,.2-21.94.23-32.91C345.7,47.9,345.37,45.15,345.16,41.84Zm9.29,5a8.42,8.42,0,0,0-.36,1.5c0,11.89-.13,23.77,0,35.66.11,7.34,4,12,11.18,14a23.41,23.41,0,0,0,5.84.71c11.36,0,22.71,0,34.07,0,.94,0,1.88-.08,3.65-.16Z"/><path d="M241.41,150.75c-.08,1.58-.06,2.78-.24,3.94-.36,2.36-1.83,3.8-3.81,3.89a4.56,4.56,0,0,1-4.67-4c-.19-1.16-.18-2.35-.26-3.54-3.51-1-6.93-1.92-10.32-2.93a29.08,29.08,0,0,1-11.5-6.78,12.94,12.94,0,0,1-1.82-2.09c-1.62-2.28-1.43-4.45.45-6a4.19,4.19,0,0,1,6,.46c4.08,4.81,9.41,7.09,15.41,8.2a15.64,15.64,0,0,0,1.74.09V116.68c-2.38-.64-4.79-1.24-7.15-2-5.06-1.54-9.49-4.08-12.5-8.57-6-9-1.39-19.05,5.89-23.78A26.44,26.44,0,0,1,230,77.89a18.69,18.69,0,0,0,2.86-.81c.08-1.33.07-2.64.27-3.91A3.64,3.64,0,0,1,237.06,70a3.6,3.6,0,0,1,3.6,3,16.2,16.2,0,0,1,.11,2c0,.52.07,1,.14,2,1.29.3,2.66.64,4,.95a34.57,34.57,0,0,1,15.14,7.44c3,2.61,2.5,6.22-1,7.6a4.09,4.09,0,0,1-4.72-1c-3-2.93-6.86-4.39-10.85-5.49a14.73,14.73,0,0,0-2.12-.24v22.42c4.63,1.74,9.19,3.09,13.43,5.12a18.63,18.63,0,0,1,10.43,13.22,15.38,15.38,0,0,1-2.17,11.73c-3.81,6.4-10,9.18-16.82,10.86C244.77,150.07,243.22,150.36,241.41,150.75Zm-.07-33c0,8.4,0,15.79,0,23.17,0,.32.29.65.64,1.36,2.9-1,5.83-1.77,8.57-3a9.65,9.65,0,0,0,.45-17.82C248.1,120.08,244.94,119.14,241.34,117.77Zm-8.69-9.89c-.09-7.41.17-14.45-.16-21.49a18.93,18.93,0,0,0-10.06,3.38c-3.58,2.85-5.67,10.23.19,14.33A21.35,21.35,0,0,0,232.65,107.88Z"/><path d="M159.74,380.78c-7.27,0-14.57-.43-21.8.11a15.22,15.22,0,0,1-16.12-16c.57-10.67.1-21.4.1-32.11a87.87,87.87,0,0,1,.1-10.27c.82-6.8,5.33-11.13,12.16-12.15a34,34,0,0,1,4.73-.37q19.83,0,39.66,0c.53,0,1.06,0,1.58,0,2.78.21,4.53,1.7,4.66,3.95.12,2-1.75,4.24-4.11,4.69a20.09,20.09,0,0,1-3.56.13l-37.28,0c-1.06,0-2.12,0-3.17,0-3.8.31-6,2.52-6.28,6.36-.06.66,0,1.32,0,2q0,18.24,0,36.49c0,6.15,2.49,8.69,8.59,8.71q19,0,38.07,0c2.11,0,4.23-.17,6.33-.33,3.85-.28,6-2.26,6.69-6a15.93,15.93,0,0,0,.14-2.77c-.1-6.34-.25-12.67-.31-19a53.11,53.11,0,0,1,.36-5.91,3.42,3.42,0,0,1,.82-2.13c1.34-1.15,2.57-2.9,4.74-2.17s2.7,2.55,2.69,4.74c0,9.12.11,18.24,0,27.36-.11,8.5-6.39,14.66-14.92,14.75-7.93.08-15.87,0-23.8,0Z"/><path d="M159.94,267.76c-7.53,0-15.07,0-22.6,0-5.18,0-9.55-1.81-12.69-6.13a13.46,13.46,0,0,1-2.71-8.12c0-14-.08-28,0-42,.06-8.5,6-14.37,14.61-14.43,14.41-.09,28.82-.05,43.23,0,3.31,0,5.24,1.63,5.1,4.14-.12,2.08-2.76,4.55-5.61,4.5-13.48-.22-27-.18-40.45-.23-.53,0-1.06,0-1.59,0-4.22.32-6.46,2.54-6.84,6.78-.06.66,0,1.32,0,2q0,17.85,0,35.7a16,16,0,0,0,.35,3.92,6.37,6.37,0,0,0,6.58,5.2c3.7.11,7.4.06,11.1.06h33.32c5.82,0,8.45-2.56,8.43-8.45,0-6.87-.24-13.74-.3-20.61a25.65,25.65,0,0,1,.44-5.1,5.91,5.91,0,0,1,4.42-4,3.33,3.33,0,0,1,3.56,2.52,12,12,0,0,1,.17,2.76c0,8.72.07,17.45,0,26.17,0,6.21-2.67,11.11-8.28,13.82a20.37,20.37,0,0,1-8,1.55c-7.39.2-14.8.07-22.21.07Z"/><path d="M304.4,216.14h61.47a27.73,27.73,0,0,1,3.16.05c2.37.27,3.77,1.59,4.05,3.66a4.25,4.25,0,0,1-3.27,4.77,15.52,15.52,0,0,1-3.92.36q-32.52,0-65,0H242.17a15,15,0,0,1-3.15-.17,4.85,4.85,0,0,1-3.81-4.51c0-2,1.71-3.72,4.17-4.06a24.83,24.83,0,0,1,3.56-.09H304.4Z"/><path d="M304,338.09H240.5c-2.88,0-5.19-1.83-5.3-4.23-.08-2,1.9-4.45,5.1-4.4,8.59.15,17.18.06,25.78.07h99.56a27.46,27.46,0,0,1,4,.1,4,4,0,0,1,3.6,4.45c-.12,2.12-1.49,3.51-3.81,3.82a16.31,16.31,0,0,1-2,0c-12.69.09-25.38.21-38.07.27-8.46,0-16.92,0-25.38,0Z"/><path d="M159.68,239.61c4.06-4.79,7.51-9,11-13q10-11.54,20-23c1.57-1.79,3.13-3.58,4.75-5.32a19.26,19.26,0,0,1,2.87-2.7,4.25,4.25,0,0,1,5.72,6.24c-.92,1.12-2,2.1-2.95,3.2Q185,223.77,168.89,242.56c-1.63,1.9-3.14,3.91-4.77,5.81-2.24,2.62-5.13,2.85-7.53.36-4.85-5-9.59-10.19-14.3-15.37a4.24,4.24,0,0,1,.29-6.33c1.89-1.72,3.93-1.79,6,.24,3.17,3.16,6.16,6.53,9.2,9.83C158.37,237.77,158.87,238.55,159.68,239.61Z"/><path d="M280.46,367.21H242.82a21.09,21.09,0,0,1-3.56-.13,4.58,4.58,0,0,1-3.91-4.35,4.7,4.7,0,0,1,4.22-4.49,12.93,12.93,0,0,1,2,0l77.27,0a17.46,17.46,0,0,1,3.16.11,4.38,4.38,0,0,1,3.61,4.55,4,4,0,0,1-3.52,4.1,20.09,20.09,0,0,1-3.56.14h-38Z"/><path d="M159.67,352.82c7.3-8.56,14-16.55,20.86-24.42,5.28-6.08,10.71-12,16.14-18,2.61-2.86,5.19-3.23,7.14-1.3s1.45,4.57-.94,7.29q-14.1,16.08-28.07,32.3c-3.44,4-6.71,8.16-10,12.27-2.85,3.52-5.78,3.68-9,.29-4.52-4.82-9-9.71-13.42-14.59a4.53,4.53,0,0,1-.06-6.41,4.29,4.29,0,0,1,6.32.33c3.21,3.33,6.32,6.75,9.46,10.16C158.63,351.32,159.06,352,159.67,352.82Z"/><path d="M281,245.3c13.08,0,26.15,0,39.22,0a6.61,6.61,0,0,1,4,1.13,4.12,4.12,0,0,1-1.73,7.15,24.17,24.17,0,0,1-5.51.52c-7.38.06-14.76,0-22.14,0q-25.93,0-51.88,0a17.11,17.11,0,0,1-4.3-.42c-2.27-.61-3.83-2.78-3.6-4.62a5.07,5.07,0,0,1,4.79-4c1.58,0,3.16.15,4.74.15H281Z"/></svg>