<?xml version="1.0" encoding="UTF-8"?>
<svg id="_Слой_1" xmlns="http://www.w3.org/2000/svg" version="1.1" viewBox="0 0 500 500">
  <!-- Generator: Adobe Illustrator 30.1.0, SVG Export Plug-In . SVG Version: 2.1.1 Build 136)  -->
  <defs>
    <style>
      .st0 {
        stroke: #000;
        stroke-miterlimit: 10;
        stroke-width: 11px;
      }
    </style>
  </defs>
  <path class="st0" d="M250.26,119.71h170.69c8.43-.21,16.51,3.38,22,9.77,3.95,4.31,6.1,9.98,6,15.83-.05,22.39-.05,44.78,0,67.19,0,6.92.27,13.84.25,20.75,0,13.34-.25,26.67-.27,40-.05,27.8-.31,55.62.11,83.42.19,12.49-8.25,24.13-22.77,26.83-2.97.49-5.99.71-9,.66H78.92c-7.64.09-15.01-2.85-20.5-8.16-5.45-5.16-7.87-11.58-7.88-18.94v-60.42c0-49.21.36-98.44-.2-147.65-.2-17,12.58-29.51,29.62-29.38,42.41.31,84.84.11,127.25.11h43.05,0ZM68.43,368.87c3.03,2.24,6.74,3.38,10.51,3.23h340.6c1.38.04,2.77-.02,4.14-.19,2.81-.25,5.45-1.44,7.49-3.38l-132.64-119.14c-.51.36-.93.63-1.33.93-9,6.65-18,13.33-27,20-12.84,9.44-28.07,9.46-40.61.11-6.66-5-13.3-9.94-20-14.87-2.8-2.07-5.7-4-8.57-6l-132.59,119.31h0ZM66.81,136.39c.88.68,1.65,1.3,2.44,1.87,20.83,15.2,41.67,30.4,62.5,45.59,20.21,14.79,40.4,29.6,60.56,44.44,15,11,30.27,21.69,45.05,33,6.08,4.65,18.56,6,25.48-.53.95-.83,1.95-1.59,3-2.29,12-8.74,24-17.48,36-26.22,12.49-9.13,24.94-18.32,37.43-27.45,15.23-11.14,30.47-22.27,45.71-33.39,13.81-10.1,27.61-20.21,41.4-30.34l6.43-4.7c-3.87-4.52-8.85-5-13.92-4.93-7.16,0-14.32.26-21.48.25-6.91,0-13.81-.29-20.72-.29-8.93,0-17.86.25-26.79.3-6,0-12.06-.19-18.09-.18-14.46,0-28.93.17-43.39.16-9.68,0-19.35-.2-29-.27-2.51,0-5,.24-7.54.23-7,0-14.07-.2-21.1-.19-9.05,0-18.1.21-27.15.23-5.9,0-11.8-.27-17.7-.26-11.94,0-23.88.25-35.83.25s-22.88-.21-34.32-.27c-2.89,0-5.78.27-8.67.25-9.31,0-18.62-.32-27.92-.15-4.53.08-9.05.87-12.38,4.89h0ZM436.92,357.91v-209.8l-128.54,94.13,128.54,115.67h0ZM191.32,242.15L62.92,148.15v209.8l128.4-115.8h0Z"/>
</svg>