<?xml version="1.0" encoding="UTF-8"?>
<svg id="Layer_1" xmlns="http://www.w3.org/2000/svg" version="1.1" viewBox="0 0 288 192">
  <!-- Generator: Adobe Illustrator 30.1.0, SVG Export Plug-In . SVG Version: 2.1.1 Build 136)  -->
  <defs>
    <style>
      .st0 {
        stroke: #000;
        stroke-miterlimit: 10;
        stroke-width: 8px;
      }
    </style>
  </defs>
  <g id="Layer_x5F_1">
    <g id="_653965720">
      <path id="_653959768" class="st0" d="M56.28,10.59h8.91c.21,0,.41.03.6.08,13.29,2.77,26.82,5.01,40.43,6.52,12.67,1.41,25.41,2.19,38.06,2.19s25.38-.78,38.06-2.19c13.65-1.52,27.23-3.76,40.56-6.55l.46,1.84-.46-1.84c.16-.03.33-.05.49-.05h8.88c1.14,0,2.06.85,2.06,1.89v4.53c0,.93-.74,1.71-1.72,1.86-14.91,3.35-30.16,6.07-45.52,7.91-14.29,1.71-28.63,2.67-42.82,2.67s-28.54-.95-42.82-2.67c-15.41-1.85-30.71-4.58-45.66-7.94l.49-1.83-.49,1.83c-.95-.21-1.58-1-1.57-1.86v-4.5c0-1.04.92-1.89,2.06-1.89h0ZM64.98,14.37h-6.64v1.17c14.33,3.18,28.95,5.76,43.64,7.52,14.05,1.68,28.2,2.62,42.29,2.62s28.25-.94,42.29-2.62c14.69-1.76,29.31-4.34,43.64-7.52v-1.17h-6.64c-13.42,2.8-27.06,5.05-40.75,6.57-12.85,1.43-25.74,2.22-38.54,2.22s-25.69-.79-38.54-2.22c-13.69-1.52-27.34-3.77-40.75-6.57h0Z"/>
      <path id="_653954056" class="st0" d="M88.56,175.44h-31.54c-1.14,0-2.06-.85-2.06-1.89v-45.81c0-1.04.92-1.89,2.06-1.89h23.09c.9,0,1.66.52,1.94,1.26,3.01,6.02,6.87,15.12,8.71,25.06,1.31,7.09,1.59,14.61-.19,21.79l-2.01-.41,2.01.42c-.22.88-1.07,1.47-2.01,1.47h0ZM59.08,171.66h27.81c1.27-6.21.95-12.7-.19-18.88-1.67-9.04-5.1-17.38-7.92-23.16h-19.7v42.04h0ZM120.09,26.48c-.03-1.04-.97-1.86-2.1-1.84s-2.03.89-2.01,1.92c.45,17.46.19,30.46-4.33,43.25-4.45,12.61-13.07,25.17-29.26,41.8-.25-.02-.48-.03-.69-.03h-22.62V17.18c0-1.04-.92-1.89-2.06-1.89s-2.06.85-2.06,1.89v96.31c0,1.04.92,1.89,2.06,1.89h24.69c.17,0,.31,0,.43.01.04,0,.08.01.12.01v-.1h.01v.09c.11.01.27.03.44.06.71.16,1.5-.04,2.02-.57l-1.54-1.26,1.53,1.25c17.08-17.43,26.14-30.58,30.84-43.89,4.7-13.32,4.98-26.65,4.52-44.49h.01Z"/>
      <path id="_653971840" class="st0" d="M231.52,175.44h-31.54c-1.04,0-1.9-.71-2.04-1.62-1.74-7.14-1.45-14.61-.15-21.65,1.85-10.03,5.77-19.2,8.78-25.21l1.87.78-1.87-.79c.35-.7,1.12-1.11,1.91-1.1h23.05c1.14,0,2.06.85,2.06,1.89v45.81c0,1.04-.92,1.89-2.06,1.89h-.01ZM201.65,171.66h27.81v-42.04h-19.7c-2.82,5.79-6.25,14.12-7.91,23.16-1.14,6.17-1.46,12.67-.19,18.88h0ZM172.57,26.57c.03-1.04-.87-1.9-2.01-1.92-1.13-.02-2.08.8-2.1,1.84-.48,18.06-.26,31.34,4.42,44.58,4.67,13.24,13.75,26.28,30.93,43.81l1.53-1.25-1.54,1.26c.52.54,1.31.73,2.02.57.18-.03.33-.05.45-.06v-.09h0v.1c.05,0,.09,0,.13-.01.12,0,.26-.01.43-.01h24.69c1.14,0,2.06-.85,2.06-1.89V17.18c0-1.04-.92-1.89-2.06-1.89s-2.06.85-2.06,1.89v94.42h-22.62c-.21,0-.44,0-.69.03-16.29-16.73-24.92-29.18-29.35-41.71-4.49-12.71-4.7-25.66-4.22-43.34h0Z"/>
      <path id="_653970472" class="st0" d="M57.02,111.6h24.69c2.71,0,5.17,1.01,6.95,2.65l-1.45,1.33,1.46-1.34.12.12c1.71,1.62,2.77,3.83,2.77,6.25s-1.11,4.73-2.89,6.36l-1.46-1.33,1.46,1.33s-.09.08-.13.11c-1.77,1.57-4.18,2.54-6.83,2.54h-24.69c-1.14,0-2.06-.85-2.06-1.89v-14.25c0-1.04.92-1.89,2.06-1.89h0ZM81.7,115.37h-22.62v10.48h22.62c1.53,0,2.92-.55,3.95-1.45l.09-.09h0c1.04-.95,1.68-2.26,1.68-3.7s-.61-2.67-1.59-3.62c-.03-.03-.06-.05-.1-.08h0c-1.04-.95-2.47-1.54-4.05-1.54h.02Z"/>
      <path id="_653970832" class="st0" d="M206.84,111.6h24.69c1.14,0,2.06.85,2.06,1.89v14.25c0,1.04-.92,1.89-2.06,1.89h-24.69c-2.71,0-5.17-1.01-6.95-2.65l1.45-1.33-1.46,1.34s-.08-.08-.12-.12c-1.71-1.62-2.77-3.83-2.77-6.25s1.11-4.73,2.89-6.36l1.46,1.33-1.46-1.33s.09-.08.13-.11c1.77-1.57,4.18-2.54,6.83-2.54h0ZM229.46,115.37h-22.62c-1.53,0-2.92.55-3.95,1.45l-.09.09h0c-1.04.95-1.68,2.26-1.68,3.7s.61,2.67,1.59,3.62c.03.03.06.05.1.08h0c1.04.95,2.47,1.54,4.05,1.54h22.62v-10.48h-.02Z"/>
    </g>
  </g>
</svg>