<?xml version="1.0" encoding="UTF-8"?>
<svg id="Layer_1" xmlns="http://www.w3.org/2000/svg" version="1.1" viewBox="0 0 580 386">
  <!-- Generator: Adobe Illustrator 30.1.0, SVG Export Plug-In . SVG Version: 2.1.1 Build 136)  -->
  <defs>
    <style>
      .st0, .st1 {
        fill: #231f20;
      }

      .st1 {
        stroke: #000;
        stroke-miterlimit: 10;
        stroke-width: 12px;
      }
    </style>
  </defs>
  <g id="Layer_11">
    <path class="st1" d="M256.62,194.88v-54.49h44.83c12.65,0,23.06-10.41,23.06-23.06V34.55c0-12.65-10.41-23.06-23.06-23.06h-99.89c-12.65,0-23.06,10.41-23.06,23.06v82.78c0,12.65,10.41,23.06,23.06,23.06h55.06M188.73,117.51V34.73c0-7.07,5.76-12.65,12.65-12.65h99.89c7.07,0,12.65,5.76,12.65,12.65v82.78c0,7.07-5.76,12.65-12.65,12.65h-99.89c-6.88,0-12.65-5.76-12.65-12.65h0Z"/>
    <path class="st0" d="M270.48,86.28c-.18-.18-1.3-.55-1.67-.75-.37-.18-1.48-.55-1.67-.55-4.28-1.48-9.11-2.23-13.95-2.23s-9.68.75-13.95,2.23c-.18,0-1.3.55-1.67.55-.37.18-1.3.55-1.67.75-15.99,6.88-25.85,23.06-25.67,39.43h85.93c.18-16.37-9.68-32.55-25.67-39.43h-.02.01Z"/>
    <path class="st0" d="M252.8,75.5c10.98.18,20.09-8.74,20.27-19.72.18-11.16-8.74-20.09-19.91-20.09s-19.72,8.74-19.91,19.72c0,10.98,8.74,20.09,19.53,20.09h.02Z"/>
  </g>
  <g id="Layer_2">
    <g>
      <path class="st0" d="M170.99,319.64c-.18-.18-1.3-.55-1.67-.75s-1.48-.55-1.67-.55c-4.28-1.48-9.11-2.23-13.95-2.23s-9.68.75-13.95,2.23c-.18,0-1.3.55-1.67.55-.37.18-1.3.55-1.67.75-15.99,6.88-25.85,23.06-25.67,39.43h85.93c.18-16.37-9.86-32.55-25.67-39.43h-.02,0Z"/>
      <path class="st0" d="M153.32,308.86c10.98.18,20.09-8.74,20.27-19.72.18-11.16-8.74-20.09-19.91-20.09s-19.72,8.74-19.91,19.72,8.56,20.09,19.53,20.09h.02Z"/>
      <path class="st1" d="M339.7,182.61l-191.03-.18v64.17h-44.83c-12.65,0-23.06,10.41-23.06,23.06v82.78c0,12.65,10.41,23.06,23.06,23.06h99.89c12.65,0,23.06-10.41,23.06-23.06v-82.78c0-12.65-10.41-23.06-23.06-23.06h-45.01v-53.76h180.8M216.19,269.67v82.78c0,7.07-5.76,12.65-12.65,12.65h-99.89c-7.07,0-12.65-5.76-12.65-12.65v-82.78c0-7.07,5.76-12.65,12.65-12.65h99.89c7.07,0,12.65,5.76,12.65,12.65h0Z"/>
    </g>
    <g>
      <path class="st0" d="M353.42,319.64c.18-.18,1.31-.55,1.68-.75s1.5-.55,1.68-.55c4.31-1.48,9.18-2.23,14.04-2.23s9.74.75,14.04,2.23c.18,0,1.31.55,1.68.55.37.18,1.31.55,1.68.75,16.1,6.88,26.03,23.06,25.84,39.43h-86.5c-.18-16.37,9.93-32.55,25.84-39.43h.02-.01.01Z"/>
      <path class="st0" d="M371.21,308.86c-11.05.18-20.22-8.74-20.41-19.72-.18-11.16,8.8-20.09,20.04-20.09s19.85,8.74,20.04,19.72c.18,10.98-8.61,20.09-19.66,20.09h-.01.01-.01Z"/>
      <path class="st1" d="M183.58,182.61l192.3-.18v64.17h45.13c12.73,0,23.21,10.41,23.21,23.06v82.78c0,12.65-10.48,23.06-23.21,23.06h-100.56c-12.73,0-23.21-10.41-23.21-23.06v-82.78c0-12.65,10.48-23.06,23.21-23.06h45.32v-53.76h-182.01M307.92,269.67v82.78c0,7.07,5.81,12.65,12.73,12.65h100.56c7.11,0,12.73-5.76,12.73-12.65v-82.78c0-7.07-5.81-12.65-12.73-12.65h-100.56c-7.11,0-12.73,5.76-12.73,12.65h0Z"/>
    </g>
    <path class="st1" d="M251.32,194.88v-57.89M261.55,136.87l.17,58"/>
  </g>
</svg>